<svg id="Layer_1" xmlns="http://www.w3.org/2000/svg" viewBox="0 0 495.7 258.1">
  <style>
    .st0{fill:#fbb042}.st1{fill:#7c9545}
  </style>
  <path class="st0" d="M262.9 199.8c2.9-.1 5.1.4 6.5 1.6 1.4 1.2 2.2 2.9 2.3 5.2.1 1.3-.2 2.6-.9 3.7-.6 1.1-1.6 2.1-2.7 3-1.2.8-2.6 1.5-4.2 2s-3.4.8-5.4.9c-1.9.1-3.6 0-4.9-.2-1.4-.2-2.5-.6-3.4-1.1-.9-.5-1.5-1.1-1.9-1.9-.4-.8-.6-1.7-.7-2.6-.1-1.4.2-2.6.8-3.6.6-1 1.5-1.8 2.6-2.6-.8-.4-1.4-.9-1.8-1.6-.5-.6-.7-1.5-.8-2.5-.1-1.2.1-2.2.6-3 .5-.8 1.2-1.6 2.1-2.3-1.2-.7-2.1-1.7-2.8-2.8-.7-1.1-1-2.4-1.1-3.8-.1-1.2.1-2.4.5-3.5s1.1-2.1 1.9-2.9c.9-.8 2-1.5 3.2-2 1.3-.5 2.8-.8 4.4-.9 1.6-.1 3.1.1 4.5.5s2.5 1 3.5 1.7c.6-.8 1.3-1.5 2.2-1.9.9-.4 2.1-.7 3.6-.8.1.4.2.8.2 1.2.1.4.1.8.1 1.3v1.5c0 .5 0 1-.1 1.6l-3.9.2c.2.3.3.7.5 1.1.2.4.2 1 .3 1.8.1 1.2-.1 2.4-.5 3.5s-1 2.1-1.9 2.9c-.9.8-1.9 1.5-3.2 2-1.3.5-2.7.8-4.4.9-1.4.1-2.6 0-3.7-.2-.5.4-.8.8-.9 1.2-.1.4-.2.8-.1 1.1 0 .5.2.9.6 1.2.4.3 1 .4 2.1.4l6.8-.3zm-5.8 5.3c-.7 0-1.3.1-1.7.3-.5.2-.8.5-1.1.8-.3.3-.4.7-.5 1-.1.4-.1.7-.1 1.1.1 1.2.6 2 1.5 2.4.9.4 2.2.5 3.7.5 2-.1 3.6-.5 4.8-1.2 1.2-.7 1.8-1.6 1.7-2.7 0-.3-.1-.6-.2-.9-.1-.3-.3-.5-.5-.8-.2-.2-.6-.4-1-.6-.4-.1-1-.2-1.6-.2l-5 .3zm1.2-13.2c1.3-.1 2.3-.5 2.8-1.3s.8-1.9.7-3.2c-.1-1.3-.4-2.4-1.1-3.1-.6-.8-1.6-1.1-3-1-1.4.1-2.4.5-2.9 1.3-.6.8-.8 1.9-.7 3.2.1 1.3.4 2.4 1.1 3.1.7.7 1.7 1 3.1 1zM287 203.2c-2 .1-3.8-.1-5.3-.7s-2.8-1.4-3.8-2.5-1.8-2.4-2.4-4c-.6-1.5-.9-3.2-1-5.1-.1-1.8.1-3.6.5-5.2s1.1-3.1 2-4.3 2.1-2.2 3.6-3c1.5-.8 3.2-1.2 5.2-1.3 2-.1 3.8.1 5.3.7s2.8 1.4 3.9 2.6c1.1 1.1 1.9 2.5 2.4 4 .6 1.6.9 3.3 1 5.1.1 1.8-.1 3.5-.4 5.1-.4 1.6-1.1 3-2 4.2-.9 1.2-2.1 2.2-3.6 2.9-1.6 1-3.4 1.4-5.4 1.5zm-.3-5.2c1.8-.1 3-.8 3.8-2.2.7-1.4 1-3.3.9-5.8s-.6-4.4-1.5-5.7-2.2-1.9-4-1.8c-1.8.1-3 .8-3.7 2.2-.7 1.4-1 3.3-.9 5.8s.6 4.4 1.5 5.7c.8 1.3 2.2 1.9 3.9 1.8zM302.6 176.9c1.1-.3 2.3-.4 3.4-.5 1.1-.1 2.3 0 3.4.1l.7 13.2c.1 1.3.2 2.4.5 3.2.3.8.6 1.5 1.1 2 .5.5 1 .8 1.7 1 .7.2 1.4.2 2.3.2 1.2-.1 2.2-.2 3-.5l-1-19.5c1.1-.3 2.3-.4 3.3-.5 1.1-.1 2.3 0 3.4.1l1.3 23.9c-1 .4-2.3.8-4 1.3-1.7.4-3.4.7-5.2.8-1.6.1-3.2 0-4.7-.1-1.5-.2-2.9-.6-4.1-1.4-1.2-.8-2.2-1.9-2.9-3.5-.8-1.6-1.2-3.7-1.4-6.3l-.8-13.5zM330.5 175.4c.5-.1.9-.2 1.4-.3.4-.1.9-.1 1.4-.1h1.4c.4 0 .9.1 1.4.2.1.2.2.4.3.7l.3.9c.1.3.2.7.2 1s.1.6.2.8c.7-1 1.5-2 2.5-2.8 1-.8 2.2-1.3 3.8-1.4h1.1c.4 0 .7 0 .9.1.1.3.1.7.2 1.1.1.4.1.8.1 1.3v1.8c0 .6-.1 1.3-.2 1.8-.4 0-.8-.1-1.2 0s-.7 0-.8 0c-.5 0-1.2.1-1.8.3-.7.1-1.3.5-1.9 1-.6.5-1 1.3-1.4 2.2-.3 1-.5 2.3-.4 4.1l.6 11.8c-.6.1-1.1.2-1.7.3-.6.1-1.1.1-1.7.1h-1.7c-.6 0-1.2 0-1.8-.1l-1.2-24.8zM349.8 174.3c.4-.1.9-.2 1.3-.3.4-.1.9-.1 1.5-.2h1.4c.4 0 .9.1 1.3.1.1.2.2.4.3.7.1.3.2.6.3 1 .1.3.2.7.2 1 .1.3.1.6.2.8.2-.5.5-1 .9-1.5s.9-1 1.4-1.4c.6-.4 1.2-.8 1.9-1 .7-.3 1.5-.4 2.4-.5 3.9-.2 6.4 1.1 7.7 4 .6-1.2 1.4-2.3 2.5-3.2 1.1-.9 2.6-1.5 4.4-1.6 2.8-.2 4.9.5 6.4 2 1.4 1.5 2.2 3.9 2.4 7.2l.8 15.8c-1.1.3-2.3.4-3.4.5-1.1.1-2.3 0-3.4-.1l-.8-14c-.1-1.7-.4-3-.9-4-.5-.9-1.4-1.3-2.7-1.3-.5 0-1.1.1-1.6.3-.5.2-1 .5-1.4 1-.4.5-.7 1.1-1 1.9-.2.8-.3 1.8-.2 3.1l.7 13.4c-1.1.3-2.3.4-3.4.5-1.1.1-2.3 0-3.4-.1l-.8-14c-.1-1.7-.4-3-.9-4s-1.4-1.3-2.7-1.3c-.5 0-1.1.1-1.6.3-.5.2-1 .5-1.4 1-.4.5-.7 1.2-.9 2-.2.8-.3 1.9-.2 3.3l.7 13c-1.1.3-2.3.4-3.4.5-1.1.1-2.3 0-3.4-.1l-1.2-24.8zM398.3 186.3c.2 1.9 1 3.3 2.2 4.1 1.3.8 2.9 1.1 4.9 1 1.1-.1 2.2-.2 3.3-.5 1.1-.3 2.2-.6 3.2-1.1.4.6.7 1.4 1 2.3s.5 1.8.6 2.9c-2.4 1.1-5.2 1.7-8.4 1.9-2.3.1-4.3-.1-6-.6-1.7-.6-3.1-1.4-4.2-2.5s-1.9-2.4-2.5-3.9c-.6-1.5-.9-3.2-1-5.1-.1-1.8.1-3.6.5-5.2s1.1-3.1 2.1-4.3c.9-1.2 2.1-2.2 3.6-3 1.5-.8 3.2-1.2 5.2-1.3 1.7-.1 3.3.1 4.7.7 1.4.5 2.6 1.3 3.6 2.3 1 1 1.8 2.2 2.3 3.7.6 1.4.9 3 1 4.6v1.8c0 .6 0 1.1-.1 1.4l-16 .8zm9.5-5.3c-.1-1.5-.6-2.8-1.5-3.7-.8-.9-2-1.3-3.4-1.2-1.6.1-2.8.6-3.6 1.5-.8.9-1.2 2.2-1.3 3.9l9.8-.5zM420 175.8l-3.1.2-.3-.9 8.4-12 1.1-.1.4 7.3 5.8-.3c.1.5.2.9.3 1.3.1.4.1.8.1 1.2v1.3c0 .4 0 .9-.1 1.4l-5.8.3.5 9.8c.1 1 .2 1.8.4 2.4s.5 1.1.8 1.4c.3.3.7.6 1.2.7.5.1 1 .1 1.6.1.5 0 1-.1 1.4-.2.5-.1.9-.2 1.2-.3.3.6.5 1.2.6 1.9s.2 1.2.2 1.7v1.6c-1.5.4-3 .7-4.5.8-2.9.2-5.2-.4-6.8-1.7-1.6-1.3-2.5-3.5-2.7-6.5l-.7-11.4z"/>
  <path class="st1" d="M46.9 119.9c.7-4.2 2.9-5.5 5.4-6.2 21.7-6 43.8-10.4 66.4-10.7 2.7 0 7.3-1 7.7 1.9.4 3-4.3 3.4-6.9 3.7-7.4.8-9.9 4.5-9.9 11.8 0 16.4-8.1 28.8-21.3 38-12.6 8.8-26.4 10.7-40.3 4.3-13.8-6.3-17.9-19.3-18.7-33.2C27.6 100.2 35 73 49.8 47.8 56.7 36 64.5 33.2 77.8 37c.6.2 1.1.3 1.7.4 27.4 7.3 28.1 17.4 26.3 42.8-.2 3-.4 7.4-4.8 7.6-4.7.2-5.8-3.9-6.5-7.6-1.2-6.1-.8-12.4-.6-18.6.4-10-3.3-15.2-13.7-18.9-8.1-2.9-13.8-1-19.3 7.4-10.2 15.6-16 33.1-19.8 51.2-2.6 12.3-3.3 24.6-1.1 37 3.5 19.6 18.1 27.6 36.1 19 14.2-6.8 25.1-17.1 26.2-34.3.6-9-1.7-11.1-10.7-10.3-14.9 1.3-29.7 2.5-44.7 7.2"/>
  <path class="st0" d="M122.1 172a6.7 6.7 0 1 1-6.7-6.7c3.7.1 6.7 3.1 6.7 6.7M160.9 190.3c0 8.9-7.2 16.1-16.1 16.1s-16.1-7.2-16.1-16.1c0-8.9 7.2-16.1 16.1-16.1s16.1 7.3 16.1 16.1M196.4 190.3c0 6.4-5.2 11.7-11.7 11.7-6.4 0-11.7-5.2-11.7-11.7 0-6.4 5.2-11.7 11.7-11.7 6.5.1 11.7 5.3 11.7 11.7M319.6 36.4c4.8.7 5.3 4.2 5.2 8.1-.1 3.3-1.4 5.7-5.2 5.5-3.8-.2-7.6-4.2-6.9-7.9.6-3.5 2.7-5.9 6.9-5.7"/>
  <path class="st1" d="M388.7 139.2c-.9 2.4-1.7 6-4.9 5.7-3.2-.3-4.4-3.7-4.8-6.6-1.6-11.2-.8-22.4 1.3-33.4 1-5.5 2.5-10.9 4-16.3.7-2.3 1.5-5.3 4.7-5.1 2.7.1 3 3.1 4.1 5 4.3 7.1 2 14.6 1.8 22.5-.6 9.3-2.6 19-6.2 28.2M355 24.2c8.3 11.4 1.4 60.2-10.9 76.5-.2-25.9 4.6-51.1 10.9-76.5m-70.3 121.9c-1.9 3.7-5.5 3.3-8.1-.9-3.2-5.1-3.7-11-3.9-16.8-.2-6 .3-12 .5-17.7 1.2-6.8 2.1-13.3 3.5-19.7.5-2.6 1.6-5.5 5.2-5.2 3.7.4 5.1 3.2 4.8 6.2-.9 10.4 2.5 20.3 4 30.3 1.4 8.9-2.2 16.4-6 23.8m139.6-58.6c-1.9.4-1.9 2.2-2.2 3.7-2.1 9.9-4.1 19.7-6.3 29.6-1.2 5.5-2.8 10.9-5.6 15.8-.8 1.5-1.8 3.2-3.9 3-2-.2-2.9-1.8-3.6-3.4-1.6-3.8-2.6-7.8-2.3-11.9.8-9.1 1.3-18.2 2.8-27.2.8-4.7 2.1-8.5-4.3-9.9-1.4-.3-2.5-2.8-3.4-4.5-2.2-4.4-5.9-6-10.5-5.7-4.6.2-5.1 4.4-6.2 7.5-3 8.8-4.5 18-5.7 27.3-1.3 9.7-4.1 18.9-8.7 27.6-1.5 2.9-3.4 5.9-7.7 4.1-8.4-3.6-15.6-23.4-11-31.1 13.5-22.4 18-47.2 19.1-72.8.4-9.4-.4-18.8-10.4-24-.8-.1-1.5-.1-2.3-.2-3.3 1.6-5.6 4-6.2 7.8-2.3 15.7-5.3 31.3-6.7 47.2-1.5 16.9.1 34.2-5.3 50.7-2.2 6.6-3 13.6-6.3 19.9-.9 1.6-1.9 3-3.9 2.9-2-.1-3.1-1.5-3.8-3.2-1.5-3.4-1.7-7.1-1.9-10.8-.5-12.1 1-24 3.3-35.8.5-2.8 1.5-6.1-3.2-6.4-4.5-.3-4.9 2.6-4.9 6.1 0 3.7.3 7.4-.1 11-.6 5.4-1.8 10.9-6.8 14.2-4.9 3.3-9 1.4-9.6-4.5-.6-6-1.1-12-1.6-17.9-.8-8.6-6.2-13.5-13.6-16.5-7-2.8-10.7-.5-12 7-1.1 6.2-2 12.5-2.7 18.8-1.4 13.2-1.4 26.3 2.8 39.1 1.7 5.3 5 9.5 11 9.7 6.2.2 9.3-4.2 11.2-9.4 2-5.3 3.6-10.6 4.2-16.3.2-1.8.3-4.7 3.1-3.6 5.1 1.9 8.9-.1 13.1-3.8.2 4 .3 7 .4 10 .2 3.3.7 6.5 1.8 9.7 1.6 4.4 3.7 8.3 9 8.6 5.6.3 7.6-4 9.3-8.2 1.2-2.8 1.6-6 2.7-8.9 1.1-2.9.9-6.2 3.5-9.5.6 2.4 1 4.1 1.5 5.8 1.8 5.8 3.7 11.5 7.7 16.2 6.6 7.8 14.7 7.1 19.7-1.6 1.6-2.7 2.9-5.6 4.8-9.4.8 3 1.2 4.8 1.8 6.6 1.5 4.5 3.1 9.3 8.8 9.6 5.7.3 7.9-4.2 9.7-8.5 1.1-2.6 1.9-5.2 3.1-8.4 2 3.1 3.4 5.7 5.2 7.9 4.5 5.5 8.9 5.1 12.2-1.1 2.7-5 4.1-10.4 5.9-15.8 2.6-7.8 2.8-16.3 6.8-23.8.3-3.5.7-7 1-10.4-1.5-.7-1-3.3-2.8-2.9M240 147.8c-1.8 3.6-4.1 7.2-8.8 5.5-4.4-1.5-5.6-5.5-5.1-9.9.1-.9.7-2.4.3-2.7-7-6-2.1-12.8-.8-18.8 1.9-9.3 5.2-18.2 7.9-27.3.8-2.6 1.5-5.7 4.8-5.8 3.9 0 5 3.4 5.6 6.4 2.1 10.1 1.7 20.4 1.7 30.3-1.7 7.7-2.2 15.4-5.6 22.3m-55.3 3.1c-.9 2.4-1.5 6-4.9 5.7-3.7-.3-4.7-4-5-7-1-8.9-1.3-17.8.2-26.7 1.3-7.6 3.4-15.1 5.3-22.6.6-2.2 1.4-4.8 4.2-4.9 2.9-.1 3.3 2.7 4.4 4.7 3.5 6.5 3.6 13.2 2.3 18.6-.6 12.2-2.8 22.4-6.5 32.2m64.6-57.8c-1-5.7-5.5-8-11.1-8.6-5.5-.5-6.5 3.7-8.3 7.3-2.1 4.3-2.6 9.4-6.1 14.4-.2-2.1-.3-3-.3-3.9-.2-4.4-.2-8.9-.6-13.3-.2-2.1-1.6-3.6-4-3.2-1.5.3-2.4 1.3-2 2.9 2.8 10.8-.2 21.2-2.3 31.6-1.9 9.5-3.8 19-8.2 27.8-.8 1.6-1.8 3.2-3.7 3.3-2.3.1-3.3-1.9-4-3.7-1.3-3.1-2-6.3-2.1-9.6-.4-10.9 1-21.7 3.3-32.3.5-2.2 1.4-5-2.1-5.6-3.6-.7-5-3.4-6.4-6.2-2.3-4.6-6.3-5.4-10.8-5.2-4 .2-4.6 3.9-5.5 6.6-3.6 10.7-5.6 21.8-6.7 33-.8 8.2-3.6 15.8-7 23.3-.7 1.6-1.6 3.2-3.8 3.1-2.2-.1-3.5-1.6-4.1-3.6-.5-1.7-.8-3.4-.9-5.1-.8-9.7.1-19.4.9-29.1.8-9.6-1.6-16.3-11.2-19.5-5-1.7-6.7-5.4-6.1-10.5.4-3.1.5-6.2-.6-9.2-.6-1.5-1.7-2.7-3.5-2.6-1.7.1-2.9 1-3.5 2.6-1.2 3.6-1.5 7.4 0 10.8 3.8 8.1 2.7 16.3 1 24.5-.5 2.3-1 4.6-1.3 6.9-.2 1.4-.9 3.5 1.2 3.9 2 .3 2.2-1.9 2.5-3.3 1.1-4.5 1.9-9.1 3-13.6.5-2.1-.7-5.5 2-6 2.6-.4 4.8 2.1 6.7 4.1 1.6 1.7 1.6 3.8 1.8 6 .7 12 .3 24 2 36 .6 4.2 2 7.9 5.5 10.5 4.5 3.4 8.3 2.7 11-2.2 1.5-2.7 2.6-5.5 4.3-9 1.1 3.3 1.8 5.9 2.8 8.4 1.4 3.9 3.7 7.1 8.2 7.2 4.2.1 6.7-2.9 8.3-6.3 1.6-3.2 2.7-6.6 4.1-9.9 1.9.8 2 2.3 2.7 3.4 2.3 3.3 4.2 7.5 9 7.3 5-.3 5.9-5 7.5-8.6 1.7-4 3-8.1 4.6-12.4 1.4 1.5.9 2.7.9 3.7-.5 13.9-1.5 27.9-1.6 41.9-.1 12.9-1 26 5.7 38 .8.1 1.6.1 2.3.2 1-1.3 2.4-2.3 1.4-4.5-3.6-8.4-3.2-17.5-3.7-26.3-.6-11.1 0-22.1.6-33.1.1-1.3.1-3 1.4-3.6 1.3-.7 1.9.8 2.7 1.6 7 7.2 14.7 6.3 19-3.2 8.3-18.4 8.5-37.7 5.1-57.1"/>
  <g>
    <path class="st0" d="M301.6 235.1c.6.2 1.4.4 2.4.5 1 .1 1.9.2 2.8.1 1.7-.1 3-.5 3.9-1.3.9-.8 1.4-1.7 1.3-2.8 0-.8-.2-1.4-.5-1.8-.3-.5-.7-.9-1.2-1.2-.5-.3-1.1-.5-1.7-.7-.6-.2-1.3-.4-1.9-.5l-2.1-.6c-.7-.2-1.3-.6-1.9-1-.6-.4-1-.9-1.4-1.5-.4-.6-.6-1.3-.6-2.3-.1-1.7.5-3.1 1.6-4.2 1.2-1.1 3.1-1.8 5.6-1.9 1.1-.1 2.1 0 3.2.1 1 .1 1.8.3 2.4.5-.1.8-.2 1.6-.5 2.4-.6-.2-1.3-.3-2.3-.5-.9-.1-1.9-.2-2.8-.1-1.7.1-2.9.5-3.6 1.1-.7.6-1 1.4-.9 2.4 0 .5.2 1 .4 1.3.3.4.6.7 1 .9.4.2.9.4 1.4.6.5.2 1.1.3 1.7.5.8.2 1.5.4 2.3.7.8.3 1.5.6 2.1 1 .7.4 1.2 1 1.6 1.7.4.7.7 1.6.7 2.7.1 1-.1 1.9-.5 2.8-.4.8-.9 1.6-1.6 2.2s-1.5 1.1-2.5 1.5c-1 .4-2.1.6-3.3.6-1.3.1-2.5.1-3.6-.1-1-.1-1.9-.3-2.6-.5.6-.9.8-1.7 1.1-2.6zM322.4 226.7c.2 2.8.9 4.9 2.3 6.1 1.4 1.3 3.4 1.8 6 1.7 1.1-.1 2-.2 2.9-.4.9-.2 1.8-.5 2.6-.9.2.3.3.7.4 1.1.1.4.2.8.2 1.2-.8.4-1.7.7-2.8 1-1.1.3-2.2.4-3.5.5-1.8.1-3.4-.1-4.8-.6-1.3-.5-2.5-1.2-3.4-2.1-.9-.9-1.6-2.1-2.1-3.4-.5-1.3-.8-2.8-.8-4.4-.1-1.6 0-3 .3-4.4.3-1.4.8-2.6 1.5-3.7s1.6-1.9 2.8-2.6c1.2-.6 2.6-1 4.2-1.1 1.4-.1 2.6.1 3.7.5s2.1 1 2.8 1.8 1.4 1.8 1.8 3c.4 1.2.7 2.4.8 3.8v2l-14.9.9zm12.4-3c0-.9-.2-1.7-.5-2.5s-.7-1.5-1.2-2.1c-.5-.6-1.1-1.1-1.9-1.4-.8-.3-1.7-.5-2.7-.4-1.9.1-3.4.8-4.4 2s-1.6 3-1.7 5.1l12.4-.7zM342.6 205.1c.2 0 .4-.1.7-.1.3 0 .5 0 .7-.1h1.4l1.4 25.7c0 .7.2 1.3.3 1.7.2.4.4.7.7.8.3.2.5.3.9.3h.8c.3 0 .6-.1 1-.1.3-.1.6-.1.8-.2.2.3.3.7.4 1.1.1.4.1.7.2 1.1-.4.2-.8.3-1.3.4-.5.1-.9.1-1.3.2-.6 0-1.2 0-1.8-.1-.6-.1-1.1-.3-1.6-.6s-.9-.8-1.2-1.4c-.3-.6-.5-1.4-.5-2.3l-1.6-26.4zM357.1 224.8c.2 2.8.9 4.9 2.3 6.1 1.4 1.3 3.4 1.8 6 1.7 1.1-.1 2-.2 2.9-.4.9-.2 1.8-.5 2.6-.9.2.3.3.7.4 1.1.1.4.2.8.2 1.2-.8.4-1.7.7-2.8 1-1.1.3-2.2.4-3.5.5-1.8.1-3.4-.1-4.8-.6-1.3-.5-2.5-1.2-3.4-2.1-.9-.9-1.6-2.1-2.1-3.4-.5-1.3-.8-2.8-.8-4.4-.1-1.6 0-3 .3-4.4.3-1.4.8-2.6 1.5-3.7s1.6-1.9 2.8-2.6c1.2-.6 2.6-1 4.2-1.1 1.4-.1 2.6.1 3.7.5s2.1 1 2.8 1.8c.8.8 1.4 1.8 1.8 3 .4 1.2.7 2.4.8 3.8v2l-14.9.9zm12.3-2.9c0-.9-.2-1.7-.5-2.5s-.7-1.5-1.2-2.1c-.5-.6-1.1-1.1-1.9-1.4-.8-.3-1.7-.5-2.7-.4-1.9.1-3.4.8-4.4 2-1 1.3-1.6 3-1.7 5.1l12.4-.7zM392.8 230.5c.2.3.3.6.5 1.1.1.5.3.8.3 1.2-.7.3-1.5.5-2.3.8-.9.2-1.9.3-2.9.4-3.5.2-6.2-.6-8.1-2.4-1.9-1.8-3-4.5-3.2-8.1-.1-1.6.1-3.1.4-4.4.4-1.4 1-2.6 1.8-3.6s1.8-1.9 3.1-2.5c1.3-.6 2.7-1 4.4-1.1 1.1-.1 2.1 0 3 .1 1 .1 1.7.2 2.3.4 0 .4 0 .8-.1 1.3s-.2.9-.3 1.1c-.6-.2-1.3-.3-2.1-.4-.9-.1-1.8-.1-2.7-.1-1.3.1-2.3.3-3.2.8-.9.5-1.7 1.1-2.2 1.9s-1 1.8-1.2 2.8c-.2 1.1-.3 2.2-.3 3.5.2 3 1 5.2 2.5 6.5 1.5 1.3 3.5 1.9 5.9 1.8.8 0 1.6-.2 2.4-.3.8-.3 1.4-.6 2-.8zM398.8 213.9l-3.6.2c0-.1-.1-.3-.1-.5s0-.4-.1-.7v-.6-.5l3.6-.2-.2-4 2.4-2.7h.2l.4 6.5 5.7-.3c0 .1.1.3.1.5s0 .4.1.6v1.2l-5.7.3.7 13.8c0 .7.2 1.2.4 1.6.2.4.5.7.8.9.3.2.6.3 1 .4.4 0 .8.1 1.2 0 1-.1 1.8-.2 2.5-.5.2.7.4 1.5.5 2.3-1 .4-2.1.6-3.5.6-1.6.1-2.9-.3-3.9-1.1s-1.6-2.1-1.7-4.1l-.8-13.7zM413.3 213.1l-2.7.1c0-.1-.1-.3-.1-.5s0-.4-.1-.6v-.7-.5l5.4-.3 1.1 21.2c-.2 0-.4.1-.7.1-.3 0-.5 0-.7.1h-1.4l-.8-18.9zm-1.8-7.5c0-.2-.1-.6-.1-.9 0-.4-.1-.7-.1-.9v-.8-.8c.2 0 .6-.1.9-.1.4 0 .7-.1.9-.1h1.6c0 .2.1.5.1.8 0 .3.1.6.1.8v1.8c-.2 0-.5.1-.8.1-.3 0-.6.1-.8.1h-.9c-.3.1-.6 0-.9 0zM432.7 231.5c-1.6.1-3-.1-4.2-.6-1.2-.5-2.3-1.2-3.1-2.2-.8-1-1.5-2.1-2-3.4-.5-1.3-.7-2.8-.8-4.3-.1-1.6 0-3 .3-4.4.3-1.4.8-2.6 1.6-3.6s1.7-1.9 2.9-2.5 2.5-1 4.1-1.1c1.6-.1 3 .1 4.2.6 1.2.5 2.2 1.2 3.1 2.2.8 1 1.5 2.1 2 3.4.5 1.3.8 2.8.8 4.3.1 1.6 0 3-.4 4.4-.3 1.4-.9 2.6-1.6 3.6-.7 1-1.7 1.9-2.8 2.5-1.2.7-2.5 1-4.1 1.1zm-.1-2.4c2.2-.1 3.8-1 4.9-2.6 1-1.6 1.4-3.8 1.3-6.5-.1-2.7-.8-4.8-2-6.3s-2.9-2.2-5.1-2.1-3.8 1-4.9 2.6c-1 1.6-1.4 3.8-1.3 6.5.1 2.7.8 4.8 2 6.3 1.1 1.5 2.8 2.2 5.1 2.1z"/>
  </g>
  <g>
    <path class="st0" d="M447.2 208.9c.2 0 .4-.1.6-.1.2 0 .4 0 .6-.1h1.2c.1.5.2 1.1.2 1.9.1.7.1 1.4.1 2 .3-.5.6-1 1-1.6.4-.5.9-1 1.5-1.5.6-.4 1.2-.8 2-1.1.8-.3 1.6-.5 2.5-.5 2.4-.1 4.3.5 5.4 1.9 1.2 1.4 1.9 3.4 2 6.1l.7 13.4c-.2 0-.4.1-.7.1-.3 0-.5 0-.7.1h-1.4l-.7-12.6c-.1-2.4-.6-4-1.4-5-.8-1-1.9-1.4-3.4-1.4-1 .1-1.9.3-2.7.7-.8.4-1.6 1-2.1 1.8-.6.8-1 1.7-1.3 2.8-.3 1.1-.4 2.3-.3 3.7l.7 10.5c-.2 0-.4.1-.7.1s-.5 0-.7.1h-1.4l-1-21.3z"/>
  </g>
</svg>
