<svg width="342" height="632" xmlns="http://www.w3.org/2000/svg">
  <g fill="none" fill-rule="evenodd">
    <circle fill="#C7FBF5" cx="155" cy="539" r="93"/>
    <circle fill="#C7FBF5" cx="155" cy="402" r="75"/>
    <circle fill="#C7FBF5" cx="155.5" cy="286.5" r="58.5"/>
    <path d="M121.675 243.53s-2.191-20.585-23.81-38.878c-21.62-18.294-64.86-33.261-81.49-48.229-16.63-14.967-18.294-24.945-14.968-33.26 3.327-8.316 8.316 0 11.642 8.315 3.326 8.315 9.978 16.63 14.967 13.304 4.99-3.326 6.652-4.99 4.99-14.967-1.664-9.979 0-38.25 4.988-46.566 4.99-8.315 13.305-6.652 13.305 1.663 0 8.316-3.326 44.903 8.315 63.196 11.641 18.294 18.294 19.957 18.294-9.978 0-29.935-1.664-79.826 1.663-99.783C82.897 18.391 91.21-1.566 97.864.097c6.652 1.663 0 29.935-1.663 46.565s-6.652 33.261 8.315 33.261c14.968 0 24.946-6.652 31.598-13.304 6.652-6.652 14.967-19.957 19.957-19.957 4.989 0 14.967 4.99-3.326 23.283-18.294 18.294-43.24 28.272-48.229 61.533-4.989 33.26-3.326 46.565 11.642 68.185 14.967 21.62 24.945-4.99 24.945-4.99s8.315-19.956 16.63-13.304c8.316 6.652-3.325 16.63-3.325 16.63s-9.979 4.99-13.305 16.63c-3.326 11.642 0 24.304 0 24.304l-19.428 4.597zM172 240.95s7.885-22.392 9.425-35.174c1.54-12.782-7.346-35.898-7.346-35.898s-2.92-10.207 3.299-12.311c6.218-2.104 12.656 9.046 12.656 9.046l7.127 22.645s4.207 12.437 16.3 2.482c12.092-9.955 26.288-13.69 31.253-46.29s-1.001-45.508-10.956-57.6c-9.955-12.093-32.313-48.244-13.312-48.807 19.001-.564 14.634 22.77 21.07 33.92 6.438 11.15 19.566 18.438 26.727 12.816 7.16-5.62 9.643-21.92 12.597-39.979 2.954-18.058 1.919-35.3 10.241-31.186 8.323 4.115 7.128 22.645 2.289 47.738-4.839 25.094-22.839 71.165-22.839 71.165s-17.402 36.807-3.332 40.577c14.07 3.77 33.23-32.565 33.23-32.565s6.943-18.875 7.54-28.14c.598-9.265 9.047-12.656 10.334-10.426 1.288 2.23 5.15 8.92 2.323 19.472-2.828 10.553-18.817 42.083-12.253 45.727 6.564 3.644 13.599 5.529 19.001-.564 5.402-6.092 9.989-16.173 12.564-11.713 2.575 4.46 4.552 18.185-6.127 22.863-10.678 4.679-22.3 12.875-52.324 12.37-30.024-.505-61.589 11.772-68.75 17.393-7.161 5.621-20.196 19.094-24.437 34.922L172 240.95z" fill="#552800"/>
  </g>
</svg>
