<svg id="Layer_1" xmlns="http://www.w3.org/2000/svg" viewBox="0 0 160 24.9">
  <style>
    .st0{fill:#fff}
  </style>
  <g id="Page-1">
    <g id="Desktop-HD" transform="translate(-250 -785)">
      <g id="Group" transform="translate(250 785)">
        <path id="Shape" class="st0" d="M79.5 11.3c-2.3 1.4-3.1 3.9-3 6.4.1 2.1 2.2 4.2 4.2 5 2.7.8 5.4-.1 7.5-1.9L80 11c-.1 0-.2.2-.5.3m1.7-10.1c-3.2 1.7-1.3 5.5.8 7.7 1.2-.3 2.1-1.5 2.4-2.6.4-1.5.5-3.2-.6-4.5-.7-.7-1.7-.9-2.6-.6m-3.1 10c.5-.4 1.4-.9 1.4-.9-1.5-1.8-2.7-4.1-2.3-6.7C77.7 2 79.4.3 81.6 0s4.2.5 5.3 2.4c.8 1.3.4 3.2-.3 4.4-1.2 1.4-2.4 1.9-4 2.7 2.3 3 5.3 6.3 7.8 9.1.8-.8 1.3-1.9.9-3.3-.3-1.1-2.1-1.3-3.2-1.3v-.4h8.7v.4c-3 .1-3.9 3.6-5.8 5.3 1.5 1.8 4.1 4.8 5.5 4 .5-.3 1.2-1.2 1.2-1.2.1.4-.3 1-.6 1.5-1.3 1.4-3 1.4-4.4.8S90 22.5 89 21.2c-2.6 2.3-5.5 4.1-9.3 3.5-3.6-.6-5.5-3-6.2-5.8-.4-2.9 1-5.4 4.6-7.7"/>
        <path id="Shape_1_" class="st0" d="M97.7 1.2h-.3c-.1.4-.1.5-.5.5-.3 0-.5-.1-.6-.3-.6-.4-1.2-.5-1.8-.5-1.7 0-3.1 1.4-3.1 3.3 0 3.9 5.4 3.7 5.4 6.4 0 1-.9 1.7-1.8 1.7-1.8 0-3.1-1.9-3.2-3.7h-.3V13h.1c.1-.4.4-.6.8-.6.1 0 .4.1.5.1.6.4 1.2.5 1.9.5 1.8 0 3.5-1.4 3.5-3.5 0-3.9-5.4-4-5.4-6.3 0-1 .9-1.5 1.7-1.5 1.4 0 2.7 1.7 2.8 3.2h.3V1.2z"/>
        <path id="Shape_2_" class="st0" d="M105.4 1.8c1.3 0 1.9.4 2.3 2.4h.3v-3H97.4v3.1h.3c.4-2.1 1.2-2.4 2.3-2.4h1.5v8.6c0 1.4 0 1.8-1.5 1.8v.3h5.7v-.3c-1.5 0-1.5-.4-1.5-1.8V1.8h1.2z"/>
        <path id="Shape_3_" class="st0" d="M112.3 1.8h.9c2.2 0 3.5.1 3.9 2.7h.3V1.2h-9.5v.3c1.7 0 1.7.5 1.7 1.8v7.1c0 1.4 0 1.8-1.7 1.8v.3h9.8l.5-3.6h-.3c-.9 3-2.8 3-4.5 3-1.2 0-1.2-.3-1.2-1.8V6.9c1.9 0 2.2 1.2 2.4 2.7h.3v-6h-.1c-.3 1.5-.4 2.7-2.4 2.7V1.8h-.1z"/>
        <path id="Shape_4_" class="st0" d="M122.2 1.2h-4v.3c.8 0 1.2.4 1.7 1v8.3c0 .9-.5 1.4-1.7 1.4v.3h3.9v-.3c-1.2 0-1.7-.5-1.7-1.4V3.4l7.6 9.5h.3v-10c0-.9.5-1.4 1.7-1.4v-.3h-3.9v.3c1.2 0 1.7.5 1.7 1.4v5.3l-5.6-7z"/>
        <path id="Shape_5_" class="st0" d="M139.4 1.2h-8.5l-.3 3.3h.3c.1-1 1.2-2.7 2.7-2.7h2.4l-6.3 10.8h9.9l.4-4.1h-.3c-.8 3.1-2.6 3.5-4.4 3.5H133l6.4-10.8z"/>
        <path id="Shape_6_" class="st0" d="M144.4 1.8h.9c2.2 0 3.5.1 3.9 2.7h.3V1.2H140v.3c1.7 0 1.7.5 1.7 1.8v7.1c0 1.4-.6 1.8-2.3 1.8v.3h10.4l.5-3.6h-.3c-.9 3-2.8 3-4.5 3-1.2 0-1.2-.3-1.2-1.8V6.9c1.9 0 2.2 1.2 2.4 2.7h.3v-6h-.1c-.3 1.5-.4 2.7-2.4 2.7V1.8h-.1z"/>
        <path id="Shape_7_" class="st0" d="M160 8.6h-.3c-.9 3-1.5 3.3-3.5 3.3-1.7 0-1.7 0-1.7-1.8V3.3c0-1.4 0-1.8 1.5-1.8v-.3h-5.4v.3c1.4 0 1.4.5 1.4 1.8v7.1c0 1.4 0 1.8-1.4 1.8v.3h9.1l.3-3.9z"/>
        <path id="Shape_8_" class="st0" d="M25.4 1.2h-4.2v.3c.9 0 1.2.4 1.8 1v8.3c0 .9-.4 1.4-1.5 1.4v.3h3.9v-.3c-1.3 0-1.7-.5-1.7-1.4V3.4l8 9.2h.5V2.9c0-.9-.1-1.4 1-1.4v-.3h-3.5v.3c1.3 0 1.7.5 1.7 1.4v5.3l-6-7z"/>
        <path id="Shape_9_" class="st0" d="M37.4 7.2l2.2 3.1c.3.3.8 1 .8 1.5 0 .4-.5.5-.8.5v.3h5.3v-.3c-.9 0-1.4-.6-2.2-1.9l-3.6-4.9 3.3-3.1c.8-.6 1.2-1 1.8-1v-.2h-4v.3c.5 0 1.2.1 1.2.6 0 .4-.3.6-.9 1.3l-3.2 3.1V3.4c0-1.4 0-1.8 1.2-1.8v-.3h-5v.3c1.4 0 1.4.5 1.4 1.8v7.1c0 1.4 0 1.8-1.4 1.8v.3h5.1v-.3c-1.3 0-1.3-.5-1.3-1.8v-3l.1-.3z"/>
        <path id="Shape_10_" class="st0" d="M53.5 8.6h-.4c-.9 3-1.5 3.3-3.7 3.3-1.7 0-1.8 0-1.8-1.8V3.3c0-1.4 0-1.8 1.7-1.8v-.3h-5.8v.3c1.5 0 1.5.3 1.5 1.8v7.1c0 1.4 0 1.8-1.5 1.8v.3H53l.5-3.9z"/>
        <path id="Shape_11_" class="st0" d="M57.6 1.8h.9c2.2 0 3.2.1 3.7 2.7h.3V1.2h-9v.3C55 1.5 55 2 55 3.3v7.1c0 1.4 0 1.8-1.5 1.8v.3h9.3l.5-3.6H63c-.8 3.1-2.7 3.1-4.3 3.1-1.2 0-1.2-.3-1.2-1.8V7.1c1.9 0 2.1 1.2 2.3 2.7h.3v-6h-.3c-.3 1.5-.4 2.7-2.3 2.7l.1-4.7z"/>
        <path id="Shape_12_" class="st0" d="M67.3 1.8v5h.8c1.9 0 2.4-1 2.4-2.4 0-1.8-.8-2.6-2.2-2.6h-1zm0 5.6v3.1c0 1.4 0 1.8 1.5 1.8v.3h-5.5v-.3c1.5 0 1.5-.5 1.5-1.8V3.4c0-1.4 0-1.8-1.5-1.8v-.3h5.8c2.3 0 4 1 4 3.2 0 1.5-1 2.6-2.3 2.8l2.7 4.1c.4.6.6 1 1.3 1v.3h-3.3l-3.3-5.3h-.9z"/>
        <path id="Shape_13_" class="st0" d="M16.1 1.5c-.6.1-.9.9-1.2 1.7L11.4 13h-.3L8.4 5.6l-3 7.4h-.3L1.4 3.4C1 2.5.8 1.7 0 1.7v-.2h4.6v.3c-.4 0-.9.1-.9.6 0 .3.1.8.3 1l2.2 5.9 1.7-4.4-.6-1.5c-.4-1-.6-1.7-1.7-1.7v-.2h5.3v.3c-.5 0-1.2 0-1.2.6.1.2.2.6.3.9L12.1 9l1.7-4.8c.1-.5.5-1.3.5-1.7 0-.8-.5-.8-1-.8v-.2h7.8v.3c-1.7 0-1.7.5-1.7 1.8v7.1c0 1.4 0 1.8 1.3 1.8v.3h-5.1v-.3c1.4 0 1.4-.5 1.4-1.8V3.5c.1-1.5.2-1.9-.9-2"/>
      </g>
    </g>
  </g>
</svg>
