<?xml version="1.0" encoding="utf-8"?>
<!-- Generator: Adobe Illustrator 21.1.0, SVG Export Plug-In . SVG Version: 6.00 Build 0)  -->
<svg version="1.1" id="Layer_1" xmlns="http://www.w3.org/2000/svg" xmlns:xlink="http://www.w3.org/1999/xlink" x="0px" y="0px"
	 viewBox="0 0 32 32" style="enable-background:new 0 0 32 32;" xml:space="preserve">
<style type="text/css">
	.st0{fill:none;stroke:#414042;stroke-miterlimit:10;}
</style>
<g id="Layer_1_1_">
</g>
<path class="st0" d="M31,2.2c0.2,0.4,0.2,0.7,0.1,1.1s-0.2,0.7-0.5,1L15.8,30.3C15.4,30.8,15,31,14.4,31H2.8c-0.4,0-0.8-0.1-1.1-0.3
	S1.1,30.2,1,29.9c-0.2-0.4-0.2-0.8-0.2-1.2c0.1-0.4,0.2-0.7,0.5-1L16.1,1.7C16.5,1.2,17,1,17.6,1h11.7c0.4,0,0.8,0.1,1.1,0.3
	C30.6,1.6,30.9,1.8,31,2.2z"/>
</svg>
