<svg id="Layer_1" xmlns="http://www.w3.org/2000/svg" viewBox="0 0 1000 562">
  <style>
    .st0{fill:#9e9e9e}.st1{fill:#fcbc1d}
  </style>
  <path class="st0" d="M215.5 153.5v31.9h-39.3v-34c0-33.5-13.3-53.6-43.5-53.6-29.7 0-43.5 20.2-43.5 53.6v196.5c0 33.5 13.8 53.6 43.5 53.6 30.3 0 43.5-20.2 43.5-53.6v-74.3H138v-37.2h77.5v109.4c0 56.3-26.5 93.5-83.9 93.5-56.8 0-83.4-37.2-83.4-93.5V153.5c0-56.3 26.5-93.5 83.4-93.5 57.4.1 83.9 37.2 83.9 93.5zM418.9 153.5v31.9h-39.3v-34c0-33.5-13.3-53.6-43.5-53.6-29.7 0-43.5 20.2-43.5 53.6v196.5c0 33.5 13.8 53.6 43.5 53.6 30.3 0 43.5-20.2 43.5-53.6v-74.3h-38.2v-37.2h77.5v109.4c0 56.3-26.5 93.5-83.9 93.5-56.8 0-83.4-37.2-83.4-93.5V153.5c0-56.3 26.5-93.5 83.4-93.5 57.3.1 83.9 37.2 83.9 93.5z"/>
  <path class="st1" d="M509.5 101.2c-6 0-10.8 4.9-10.8 10.8v34.7c0 6-4.9 10.8-10.8 10.8s-10.8-4.9-10.8-10.8V77.4c0-6-4.9-10.8-10.8-10.8s-10.8 4.9-10.8 10.8V408c0 17.4 14.1 31.4 31.4 31.4h2.2c17.4 0 31.4-14.1 31.4-31.4V112.1c-.1-6-5-10.9-11-10.9z"/>
  <circle class="st1" cx="509.5" cy="77.4" r="10.8"/>
  <path class="st0" d="M83.6 498.4v4.4h-10v18.8h-4.8v-43.4H86v4.4H73.7v15.8h9.9zM106.6 512.9l-1.7 8.7h-4.5l8.3-43.4h7l8.3 43.4h-4.8l-1.7-8.7h-10.9zm.6-4.2h9.7l-4.9-25-4.8 25zM158.7 488.7v3.7h-4.6v-4c0-3.9-1.5-6.3-5.1-6.3-3.5 0-5.1 2.4-5.1 6.3v22.9c0 3.9 1.6 6.3 5.1 6.3 3.5 0 5.1-2.4 5.1-6.3v-8.7h-4.5v-4.3h9v12.8c0 6.6-3.1 10.9-9.8 10.9-6.6 0-9.7-4.3-9.7-10.9v-22.4c0-6.6 3.1-10.9 9.7-10.9 6.8 0 9.9 4.3 9.9 10.9zM180 512.9l-1.7 8.7h-4.5l8.3-43.4h7l8.3 43.4h-4.8l-1.7-8.7H180zm.6-4.2h9.7l-4.9-25-4.8 25zm10.9-39.1l-5.7 6.4h-3.4l4.3-6.4h4.8zM232.1 521.6h-19.7v-4.3l14.9-34.6H213v-4.4h19.1v4.3l-14.9 34.6H232v4.4zM267.4 488.7v3.7h-4.6v-4c0-3.9-1.5-6.3-5.1-6.3-3.5 0-5.1 2.4-5.1 6.3v22.9c0 3.9 1.6 6.3 5.1 6.3 3.5 0 5.1-2.4 5.1-6.3v-8.7h-4.5v-4.3h9v12.8c0 6.6-3.1 10.9-9.8 10.9-6.6 0-9.7-4.3-9.7-10.9v-22.4c0-6.6 3.1-10.9 9.7-10.9 6.9 0 9.9 4.3 9.9 10.9zM299.2 497.4v4.3h-10.6v15.4h13v4.4h-17.8v-43.4h17.8v4.4h-13v14.8h10.6zM322.2 521.6h-4.3v-43.4h6.1l10 31.4v-31.4h4.3v43.4h-5l-11.1-35.1v35.1zM370.5 497.4v4.3h-10.6v15.4h13v4.4H355v-43.4h17.8v4.4h-13v14.8h10.7zM398.8 478.2c6.8 0 9.7 3.5 9.7 9.9v3.5c0 4.8-1.7 7.7-5.4 8.9 4 1.2 5.5 4.4 5.5 9v6.8c0 1.9.1 3.7.9 5.2h-4.9c-.6-1.2-.8-2.4-.8-5.3v-6.8c0-4.9-2.3-6.4-6.3-6.4h-3.4v18.5h-4.8v-43.4h9.5zm-1.3 20.5c3.8 0 6.1-1.2 6.1-5.9v-4.2c0-3.9-1.4-5.9-5-5.9h-4.7v16h3.6zM430.2 512.9l-1.7 8.7H424l8.3-43.4h7l8.3 43.4h-4.8l-1.7-8.7h-10.9zm.6-4.2h9.7l-4.9-25-4.8 25zm10.9-39.1L436 476h-3.4l4.3-6.4h4.8zM469.5 521.6v-39h-8v-4.4h20.8v4.4h-8v39h-4.8zM496.9 488.7c0-6.6 3.3-10.9 9.9-10.9 6.7 0 10 4.3 10 10.9v22.4c0 6.6-3.3 10.9-10 10.9-6.6 0-9.9-4.3-9.9-10.9v-22.4zm4.8 22.7c0 4 1.7 6.3 5.1 6.3 3.5 0 5.1-2.3 5.1-6.3v-22.9c0-3.9-1.6-6.3-5.1-6.3-3.5 0-5.1 2.4-5.1 6.3v22.9zM542.9 478.2c6.8 0 9.7 3.5 9.7 9.9v3.5c0 4.8-1.7 7.7-5.4 8.9 4 1.2 5.5 4.4 5.5 9v6.8c0 1.9.1 3.7.9 5.2h-4.9c-.6-1.2-.8-2.4-.8-5.3v-6.8c0-4.9-2.3-6.4-6.3-6.4H538v18.5h-4.8v-43.4h9.7zm-1.3 20.5c3.8 0 6.1-1.2 6.1-5.9v-4.2c0-3.9-1.4-5.9-5-5.9H538v16h3.6zM569 488.7c0-6.6 3.3-10.9 9.9-10.9 6.7 0 10 4.3 10 10.9v22.4c0 6.6-3.3 10.9-10 10.9-6.6 0-9.9-4.3-9.9-10.9v-22.4zm4.8 22.7c0 4 1.7 6.3 5.1 6.3 3.5 0 5.1-2.3 5.1-6.3v-22.9c0-3.9-1.6-6.3-5.1-6.3-3.5 0-5.1 2.4-5.1 6.3v22.9zM624.1 488.6v1.2h-4.6v-1.4c0-3.9-1.5-6.2-5-6.2s-5 2.3-5 6.1c0 9.7 14.6 10.7 14.6 22.9 0 6.6-3.2 10.8-9.8 10.8-6.6 0-9.7-4.3-9.7-10.8v-2.5h4.5v2.7c0 3.9 1.6 6.2 5.1 6.2s5.1-2.3 5.1-6.2c0-9.7-14.5-10.6-14.5-22.8 0-6.7 3.1-10.8 9.6-10.8 6.6 0 9.7 4.3 9.7 10.8zM668.9 502.8l-2.5 4.3v14.6h-4.8v-43.4h4.8v20.9l11.5-20.9h4.9l-11 19.8 11.3 23.6h-5l-9.2-18.9zM703.5 478.2v43.4h-4.8v-43.4h4.8zM739 488.6v1.2h-4.6v-1.4c0-3.9-1.5-6.2-5-6.2s-5 2.3-5 6.1c0 9.7 14.6 10.7 14.6 22.9 0 6.6-3.2 10.8-9.8 10.8-6.6 0-9.7-4.3-9.7-10.8v-2.5h4.5v2.7c0 3.9 1.6 6.2 5.1 6.2s5.1-2.3 5.1-6.2c0-9.7-14.5-10.6-14.5-22.8 0-6.7 3.1-10.8 9.6-10.8 6.6 0 9.7 4.3 9.7 10.8zM770.5 497.4v4.3h-10.6v15.4h13v4.4H755v-43.4h17.8v4.4h-13v14.8h10.7zM798.8 478.2c6.8 0 9.7 3.5 9.7 9.9v3.5c0 4.8-1.7 7.7-5.4 8.9 4 1.2 5.5 4.4 5.5 9v6.8c0 1.9.1 3.7.9 5.2h-4.9c-.6-1.2-.8-2.4-.8-5.3v-6.8c0-4.9-2.3-6.4-6.3-6.4h-3.4v18.5h-4.8v-43.4h9.5zm-1.3 20.5c3.8 0 6.1-1.2 6.1-5.9v-4.2c0-3.9-1.4-5.9-5-5.9h-4.7v16h3.6zM844.8 488.7v22.4c0 6.6-3.3 10.9-10 10.9-6.6 0-9.9-4.3-9.9-10.9v-22.4c0-6.6 3.3-10.9 9.9-10.9 6.7 0 10 4.3 10 10.9zm-7.7-19.5l-5 6.4h-3l3.5-6.4h4.5zm-7.4 19.2v22.9c0 4 1.7 6.3 5.1 6.3 3.5 0 5.1-2.3 5.1-6.3v-22.9c0-3.9-1.6-6.3-5.1-6.3-3.4.1-5.1 2.4-5.1 6.3zm14.1-19.2l-5 6.4h-3l3.5-6.4h4.5zM877.2 521.5h-4.6l-7.2-34.5v34.6h-4.2v-43.4h6.8l7.1 34.6 6.9-34.6h6.8v43.4h-4.6v-34.9l-7 34.8zM924.6 511.1c0 6.6-3 11-9.7 11-6.6 0-9.7-4.4-9.7-11v-32.9h4.8v33.2c0 3.9 1.5 6.3 5.1 6.3 3.5 0 5-2.4 5-6.3v-33.2h4.5v32.9zm-7.5-41.8l-5 6.4h-3l3.5-6.4h4.5zm6.7 0l-5 6.4h-3l3.5-6.4h4.5z"/>
  <g>
    <path class="st1" d="M641.9 58.1c-57.1 0-91.2 37.1-91.2 99.2v181.3c0 62.4 34.1 99.7 91.2 99.7 57.4 0 91.7-37.3 91.7-99.7V157.3c0-62.1-34.3-99.2-91.7-99.2zm0 322.9c-7.6 0-30.8 0-30.8-39.9V155.3c0-17.3 3.2-40.4 30.8-40.4 13.2 0 30.8 4.2 30.8 40.4v185.8c0 35.8-17.6 39.9-30.8 39.9zM857.3 58.1c-57.1 0-91.2 37.1-91.2 99.2v181.3c0 62.4 34.1 99.7 91.2 99.7 57.4 0 91.7-37.3 91.7-99.7V157.3c0-62.1-34.3-99.2-91.7-99.2zm0 322.9c-7.6 0-30.8 0-30.8-39.9V155.3c0-17.3 3.2-40.4 30.8-40.4 13.2 0 30.8 4.2 30.8 40.4v185.8c0 35.8-17.6 39.9-30.8 39.9z"/>
  </g>
</svg>
