<svg width="47" height="45" xmlns="http://www.w3.org/2000/svg">
  <g fill="none" fill-rule="evenodd">
    <path d="M28.326.674L26.08 6.583S14.48 10.537 13.13 22.595H.03S-1.015 12.4 8.94 4.753C18.317-2.451 28.326.674 28.326.674" fill="#007955"/>
    <path d="M1 28.767L6.916 27s9.357 8.496 20.675 3.41l6.42 11.102s-8.458 5.3-19.543 1.333C3.62 38.963 1 28.767 1 28.767" fill="#FFC100"/>
    <path d="M40.153 37.665l-4.704-4.349S38.24 21.164 28 14.245L34.39 3s9.431 4.588 11.527 15.803c2.192 11.73-5.764 18.862-5.764 18.862" fill="#B60055"/>
  </g>
</svg>
