<svg id="Layer_1" xmlns="http://www.w3.org/2000/svg" viewBox="0 0 153.8 86.5">
  <style>
    .st0{fill:#939696}.st1{fill:#fcba32}.st2{fill:none;stroke:#fcba32;stroke-width:2.989;stroke-miterlimit:10}
  </style>
  <path class="st0" d="M37.8 24.1v4.4h-5.4v-4.7c0-4.6-1.8-7.4-6-7.4-4.1 0-6 2.8-6 7.4v27.1c0 4.6 1.9 7.4 6 7.4 4.2 0 6-2.8 6-7.4V40.6h-5.3v-5.1h10.7v15.1c0 7.8-3.7 12.9-11.6 12.9-7.8 0-11.5-5.1-11.5-12.9V24.1c0-7.8 3.7-12.9 11.5-12.9 8 0 11.6 5.1 11.6 12.9M65.9 24.1v4.4h-5.4v-4.7c0-4.6-1.8-7.4-6-7.4-4.1 0-6 2.8-6 7.4v27.1c0 4.6 1.9 7.4 6 7.4 4.2 0 6-2.8 6-7.4V40.6h-5.3v-5.1h10.7v15.1c0 7.8-3.7 12.9-11.6 12.9-7.8 0-11.5-5.1-11.5-12.9V24.1c0-7.8 3.7-12.9 11.5-12.9 7.9 0 11.6 5.1 11.6 12.9"/>
  <path class="st1" d="M90.9 50c0 4.4 1.9 7 5.7 7 3.9 0 5.7-2.6 5.7-7V24.3c0-4.4-1.8-7.1-5.7-7.1-3.9 0-5.7 2.6-5.7 7.1V50zm-5.4-25.4c0-7.4 3.7-12.2 11.1-12.2 7.5 0 11.1 4.8 11.1 12.2v25c0 7.4-3.7 12.3-11.1 12.3-7.4 0-11.1-4.8-11.1-12.3v-25z"/>
  <path class="st2" d="M90.9 50c0 4.4 1.9 7 5.7 7 3.9 0 5.7-2.6 5.7-7V24.3c0-4.4-1.8-7.1-5.7-7.1-3.9 0-5.7 2.6-5.7 7.1V50zm-5.4-25.4c0-7.4 3.7-12.2 11.1-12.2 7.5 0 11.1 4.8 11.1 12.2v25c0 7.4-3.7 12.3-11.1 12.3-7.4 0-11.1-4.8-11.1-12.3v-25z"/>
  <path class="st1" d="M120.6 50c0 4.4 1.9 7 5.7 7 3.9 0 5.7-2.6 5.7-7V24.3c0-4.4-1.8-7.1-5.7-7.1-3.9 0-5.7 2.6-5.7 7.1V50zm-5.4-25.4c0-7.4 3.7-12.2 11.1-12.2 7.5 0 11.1 4.8 11.1 12.2v25c0 7.4-3.7 12.3-11.1 12.3-7.4 0-11.1-4.8-11.1-12.3v-25z"/>
  <path class="st2" d="M120.6 50c0 4.4 1.9 7 5.7 7 3.9 0 5.7-2.6 5.7-7V24.3c0-4.4-1.8-7.1-5.7-7.1-3.9 0-5.7 2.6-5.7 7.1V50zm-5.4-25.4c0-7.4 3.7-12.2 11.1-12.2 7.5 0 11.1 4.8 11.1 12.2v25c0 7.4-3.7 12.3-11.1 12.3-7.4 0-11.1-4.8-11.1-12.3v-25z"/>
  <path class="st1" d="M78.4 16.9c-.8 0-1.5.7-1.5 1.5v4.8c0 .8-.7 1.5-1.5 1.5s-1.5-.7-1.5-1.5v-9.6c0-.8-.7-1.5-1.5-1.5s-1.5.7-1.5 1.5v45.5c0 2.4 1.9 4.3 4.3 4.3h.3c2.4 0 4.3-1.9 4.3-4.3V18.4c0-.8-.6-1.5-1.4-1.5M79.8 13.6c0 .8-.7 1.5-1.5 1.5s-1.5-.7-1.5-1.5.7-1.5 1.5-1.5c.9 0 1.5.7 1.5 1.5"/>
  <path class="st0" d="M19.4 77.6h-1.3l-1.2-8.4h.9l1 7.2 1-7.2h.9l.9 7.2.9-7.2h.9l-1.2 8.4H21l-.8-5.7zM27.2 75.6c0 .8.3 1.2 1 1.2s1-.4 1-1.2v-4.4c0-.8-.3-1.2-1-1.2s-1 .5-1 1.2v4.4zm-.9-4.3c0-1.3.6-2.1 1.9-2.1 1.3 0 1.9.8 1.9 2.1v4.3c0 1.3-.6 2.1-1.9 2.1-1.3 0-1.9-.8-1.9-2.1v-4.3zM34.2 75.6c0 .8.3 1.2 1 1.2s1-.4 1-1.2v-4.4c0-.8-.3-1.2-1-1.2s-1 .5-1 1.2v4.4zm-.9-4.3c0-1.3.6-2.1 1.9-2.1 1.3 0 1.9.8 1.9 2.1v4.3c0 1.3-.6 2.1-1.9 2.1-1.3 0-1.9-.8-1.9-2.1v-4.3zM42.2 76.8c.7 0 1-.4 1-1.2v-4.3c0-.8-.3-1.2-1-1.2h-1v6.7h1zm0-7.6c1.3 0 1.9.8 1.9 2.1v4.2c0 1.3-.6 2.1-1.9 2.1h-2v-8.4h2zM55.1 71.3v.7h-.9v-.8c0-.8-.3-1.2-1-1.2s-1 .5-1 1.2v4.4c0 .8.3 1.2 1 1.2s1-.5 1-1.2V74h-.9v-.8h1.8v2.5c0 1.3-.6 2.1-1.9 2.1-1.3 0-1.9-.8-1.9-2.1v-4.3c0-1.3.6-2.1 1.9-2.1 1.3-.2 1.9.7 1.9 2M59.4 75.1h1.9l-.9-4.8-1 4.8zm-.2.8l-.3 1.7H58l1.6-8.4H61l1.6 8.4h-.9l-.3-1.7h-2.2z"/>
  <g>
    <path class="st0" d="M69.3 71.2v.2h-.9v-.3c0-.8-.3-1.2-1-1.2s-1 .4-1 1.2c0 1.9 2.8 2.1 2.8 4.4 0 1.3-.6 2.1-1.9 2.1-1.3 0-1.9-.8-1.9-2.1V75h.9v.5c0 .8.3 1.2 1 1.2s1-.4 1-1.2c0-1.9-2.8-2-2.8-4.4 0-1.3.6-2.1 1.9-2.1 1.3.1 1.9 1 1.9 2.2M80.2 71.3v.7h-.9v-.8c0-.8-.3-1.2-1-1.2s-1 .5-1 1.2v4.4c0 .8.3 1.2 1 1.2s1-.5 1-1.2V74h-.9v-.8h1.8v2.5c0 1.3-.6 2.1-1.9 2.1-1.3 0-1.9-.8-1.9-2.1v-4.3c0-1.3.6-2.1 1.9-2.1 1.3-.2 1.9.7 1.9 2"/>
  </g>
  <path class="st0" d="M86.3 72.9v.9h-2v3h2.5v.8h-3.4v-8.4h3.4v.9h-2.5v2.8zM90.8 77.6h-.9v-8.4h1.2l2 6.1v-6.1h.8v8.4h-1l-2.1-6.8zM100.1 72.9v.9h-2v3h2.5v.8h-3.5v-8.4h3.5v.9h-2.5v2.8z"/>
  <g>
    <path class="st0" d="M105.4 73.2c.7 0 1.2-.2 1.2-1.1v-.8c0-.8-.3-1.1-1-1.1h-.9v3.1h.7zm.2-4c1.3 0 1.9.7 1.9 1.9v.7c0 .9-.3 1.5-1 1.7.8.2 1.1.9 1.1 1.8v1.3c0 .4 0 .7.2 1h-.9c-.1-.2-.2-.5-.2-1v-1.3c0-.9-.4-1.2-1.2-1.2h-.7v3.6h-.9v-8.4h1.7z"/>
  </g>
  <path class="st0" d="M111.8 75.1h1.9l-.9-4.8-1 4.8zm-.1.8l-.3 1.7h-.9l1.6-8.4h1.4l1.6 8.4h-.9l-.3-1.7h-2.2zM119.3 77.6v-7.5h-1.6v-.9h4.1v.9h-1.6v7.5z"/>
  <g>
    <path class="st0" d="M125.5 75.6c0 .8.3 1.2 1 1.2s1-.4 1-1.2v-4.4c0-.8-.3-1.2-1-1.2s-1 .5-1 1.2v4.4zm-.9-4.3c0-1.3.6-2.1 1.9-2.1 1.3 0 1.9.8 1.9 2.1v4.3c0 1.3-.6 2.1-1.9 2.1-1.3 0-1.9-.8-1.9-2.1v-4.3zM133.2 73.2c.7 0 1.2-.2 1.2-1.1v-.8c0-.8-.3-1.1-1-1.1h-.9v3.1h.7zm.3-4c1.3 0 1.9.7 1.9 1.9v.7c0 .9-.3 1.5-1 1.7.8.2 1.1.9 1.1 1.8v1.3c0 .4 0 .7.2 1h-.9c-.1-.2-.2-.5-.2-1v-1.3c0-.9-.4-1.2-1.2-1.2h-.7v3.6h-.9v-8.4h1.7z"/>
  </g>
</svg>
