<svg xmlns="http://www.w3.org/2000/svg" xmlns:xlink="http://www.w3.org/1999/xlink" version="1.1" id="Layer_1" x="0" y="0" viewBox="0 0 37.5 65" xml:space="preserve" enable-background="new 0 0 37.5 65"><style type="text/css">
	.st0{fill:none;}
	.st1{fill:#20ED28;}
</style><title>Page 1</title><desc>Created with Sketch.</desc><g id="Clip-2"/><rect x="25.3" y="51.4" transform="matrix(0.7054 -0.7088 0.7088 0.7054 -29.1601 33.1981)" class="st0" width="0.1" height="0.6"/><path class="st0" d="M23.9 50L23.9 50l-0.1-0.2c0 0-0.1 0-0.1 0L23.6 50C23.8 50.1 23.8 50.1 23.9 50z"/><path class="st0" d="M19 45c-0.1-0.3-0.3-0.5-0.5-0.6 -0.2-0.2-0.4-0.3-0.6-0.5L17.9 44c0.2 0.2 0.3 0.3 0.5 0.5C18.6 44.6 18.8 44.8 19 45z"/><path class="st0" d="M2.6 31.8C2.6 31.8 2.6 31.8 2.6 31.8c-0.1 0-0.1 0.1-0.2 0.1 0.1 0.1 0.2 0.2 0.3 0.3 0.1-0.1 0.1-0.1 0.2-0.2C2.8 32 2.7 31.9 2.6 31.8z"/><path class="st0" d="M3.3 32.6C3.3 32.6 3.3 32.6 3.3 32.6c0-0.1-0.1-0.1-0.1-0.2 -0.1 0.1-0.2 0.1-0.2 0.2 0.1 0.1 0.1 0.1 0.2 0.2C3.2 32.8 3.3 32.7 3.3 32.6z"/><rect x="23" y="49.2" transform="matrix(0.7071 -0.7071 0.7071 0.7071 -28.1045 30.7635)" class="st0" width="0.1" height="0.3"/><path class="st0" d="M23.7 18.4l-0.4 0.4c0.2-0.1 0.3-0.1 0.3-0.1C23.6 18.7 23.7 18.6 23.7 18.4z"/><path class="st0" d="M20.2 23.2c0.1-0.1 0.1-0.1 0.2-0.1 0.1 0 0.1-0.1 0.2-0.1 0 0 0.1-0.1 0.1-0.1 0-0.1 0.1-0.1 0.1-0.1l0 0c-0.2 0.2-0.3 0.3-0.5 0.5 -0.1 0.1-0.3 0.3-0.5 0.4l0.1 0.1L20.2 23.2z"/><path class="st0" d="M21.7 21.8c0.1-0.1 0.2-0.2 0.4-0.3L22 21.4c-0.3 0.3-0.5 0.4-0.6 0.5 0 0 0 0.1 0 0.1 0 0 0 0 0 0.1 0 0 0.1 0 0.1 0C21.5 21.9 21.6 21.9 21.7 21.8z"/><path class="st0" d="M16.3 25.4L16.3 25.4l-0.2 0.1L16 25.6c0 0 0.1 0 0.1 0L16.3 25.4z"/><path class="st0" d="M13.1 27.9L13.1 27.9 13.1 27.9C13.1 28 13.1 28 13.1 27.9z"/><path class="st0" d="M21.4 46L21.4 46C21.3 46 21.3 46 21.4 46L21.4 46C21.4 46.1 21.4 46.1 21.4 46z"/><path class="st0" d="M20.8 45.5L20.8 45.5c-0.2-0.4-0.5-0.8-0.8-1.1 -0.3-0.3-0.6-0.7-1-1.1l-0.1 0.1c0.4 0.4 0.7 0.7 1 1C20.2 44.9 20.5 45.2 20.8 45.5z"/><path class="st0" d="M23.7 48.6c0 0 0.1 0.1 0.1 0.1 0 0 0.1 0.1 0.1 0.2 0.1 0.2 0.1 0.3 0.2 0.4 0.1 0.1 0.2 0 0.3-0.1 -0.3-0.4-0.6-0.8-1-1.1 -0.3-0.4-0.7-0.8-1.1-1.1 0.2 0.3 0.4 0.6 0.6 0.9C23.1 48.2 23.4 48.4 23.7 48.6z"/><path class="st0" d="M6.1 32.3c0.1 0.1 0.1 0.1 0.2 0.2 0.1-0.1 0.2-0.2 0.3-0.2 -0.1-0.1-0.1-0.1-0.2-0.2C6.3 32.1 6.2 32.2 6.1 32.3z"/><path class="st0" d="M6.9 32.7c-0.1 0.1-0.2 0.1-0.3 0.2 0 0 0.1 0.1 0.1 0.1L6.9 32.7C6.9 32.7 6.9 32.7 6.9 32.7z"/><path class="st0" d="M6.8 33.1c0 0.1 0.1 0.1 0.1 0.2 0.1-0.1 0.2-0.1 0.2-0.2 0 0 0 0 0 0l-0.1-0.2C7 33 6.9 33.1 6.8 33.1z"/><path class="st0" d="M6 34.8C6 34.8 6 34.8 6 34.8c0 0.1 0.1 0.1 0.1 0.2 0.1-0.1 0.2-0.1 0.2-0.2 -0.1-0.1-0.1-0.1-0.2-0.2C6.2 34.7 6.1 34.7 6 34.8z"/><path class="st0" d="M5.6 33.9C5.6 33.9 5.6 33.9 5.6 33.9c-0.1 0-0.2 0-0.3 0.1 0 0 0 0.1 0.1 0.1L5.6 33.9z"/><path class="st0" d="M7 31.5c0 0 0 0.1 0 0.1 0 0.1 0.1 0.1 0.1 0.1 0 0 0.1-0.1 0.1-0.1L7 31.5C7.1 31.5 7.1 31.5 7 31.5z"/><path class="st0" d="M6.1 28.9C6 29 5.9 29 5.9 29.1c0 0 0.1 0.1 0.1 0.1C6 29.2 6.1 29.1 6.2 29 6.1 29 6.1 29 6.1 28.9z"/><path class="st0" d="M5.6 29.5C5.6 29.5 5.6 29.5 5.6 29.5c-0.1-0.1-0.1-0.1-0.1-0.1 -0.1 0-0.1 0.1-0.2 0.1 0 0.1 0.1 0.1 0.1 0.2C5.5 29.6 5.5 29.6 5.6 29.5z"/><path class="st0" d="M5.4 35.4c0 0 0.1 0.1 0.1 0.1 0.1-0.1 0.2-0.2 0.3-0.2 0 0-0.1-0.1-0.1-0.1C5.6 35.2 5.5 35.3 5.4 35.4z"/><path class="st0" d="M27.1 54.1C27 54.1 26.9 54 26.9 54c-0.1-0.1-0.2-0.1-0.2-0.2 -0.5-0.5-0.9-0.9-1.4-1.4 -0.4-0.5-0.9-0.9-1.3-1.4 -0.4-0.4-0.7-0.7-1-1 -0.3-0.3-0.6-0.6-0.9-1 -0.2-0.2-0.3-0.3-0.5-0.4 -0.1-0.1-0.3-0.3-0.4-0.5 -0.2-0.3-0.4-0.5-0.6-0.7 -0.2-0.2-0.5-0.5-0.7-0.7l-2.3-2.3c-0.6-0.7-1.2-1.4-1.8-2 -0.7-0.7-1.3-1.3-1.8-2 -0.3-0.3-0.6-0.6-0.9-0.9 -0.3-0.3-0.6-0.6-0.9-1 -0.5-0.6-1-1.1-1.6-1.7 -0.5-0.6-1-1.1-1.6-1.7 -0.2-0.2-0.4-0.4-0.6-0.6 -0.2-0.2-0.3-0.3-0.4-0.5 -0.1 0.1-0.2 0.1-0.3 0.2 0.3 0.3 0.7 0.7 0.9 1 0.2 0.2 0.3 0.3 0.6 0.5 0.2 0.2 0.4 0.4 0.5 0.6 0.1 0.3 0.3 0.5 0.5 0.7 0.2 0.2 0.4 0.4 0.5 0.7 0.4 0.5 0.7 1 1.1 1.2 0.3 0.1 0.6 0.4 0.8 0.7 0.5 0.5 1.1 1.1 1.6 1.7 0.5 0.6 1.1 1.2 1.7 1.8 0.6 0.5 1.1 1 1.6 1.6 0.5 0.6 1 1.1 1.6 1.7l3.9 3.9c0.6 0.7 1.3 1.4 2 2.1 0.7 0.7 1.3 1.4 2 2.1 0.1 0.1 0.2 0.2 0.2 0.3 0.1 0.1 0.1 0.2 0.2 0.2 0.1-0.2 0.1-0.3 0-0.4C27.3 54.3 27.2 54.2 27.1 54.1z"/><path class="st0" d="M31 57.9c0.2 0.3 0.3 0.5 0.4 0.6 0 0.1 0.2 0.2 0.4 0.2 -0.1-0.3-0.2-0.4-0.3-0.5C31.3 58.1 31.2 58 31 57.9z"/><path class="st0" d="M16.5 42.4c-0.1-0.2-0.2-0.4-0.3-0.5 -0.1-0.1-0.2-0.2-0.4-0.3 0.1 0.2 0.2 0.3 0.3 0.5C16.1 42.2 16.3 42.3 16.5 42.4z"/><path class="st0" d="M7.6 33.4c-0.1 0.1-0.2 0.2-0.3 0.2 0.1 0.1 0.1 0.1 0.2 0.2 0.1-0.1 0.2-0.2 0.3-0.2C7.7 33.6 7.6 33.5 7.6 33.4z"/><polygon class="st0" points="29.4 56.1 29.5 56 29.4 56 "/><path class="st0" d="M28.1 54.7L28.1 54.7l0.1 0.1c0 0 0.1 0 0.1 0 0 0 0 0 0.1 0l-0.1-0.1L28.1 54.7z"/><path class="st0" d="M5 29.7c0 0.1 0.1 0.1 0.2 0.2 0 0 0 0 0.1-0.1L5 29.7C5.1 29.7 5.1 29.7 5 29.7z"/><path class="st0" d="M28 56.3c0.1 0.3 0.3 0.5 0.5 0.6 0.2 0.2 0.3 0.4 0.4 0.7l0.2 0.2c0.2 0 0.3 0.2 0.4 0.4 0.1 0.3 0.2 0.4 0.4 0.4l0.2 0.2c0.1 0.1 0.2 0.2 0.2 0.1 -0.1-0.3-0.3-0.6-0.7-1.1 -0.4-0.4-1.1-1.2-2.2-2.2L28 56.3z"/><path class="st0" d="M8.4 32C8.4 31.9 8.5 31.9 8.4 32c0 0 0-0.1 0-0.1C8.4 31.9 8.4 31.9 8.4 32 8.4 31.9 8.4 31.9 8.4 32z"/><path class="st0" d="M11.3 29.4c0 0 0 0.1 0 0.1l0 0 0.1-0.1L11.3 29.4 11.3 29.4z"/><path class="st0" d="M8.1 31c0.7-0.5 1.3-1 1.9-1.6 0.8-0.7 1.5-1.4 2.3-2l0-0.2 -0.2 0.2c-0.4 0.3-0.8 0.6-1.2 0.9 -0.4 0.3-0.8 0.7-1.2 1 -0.4 0.3-0.9 0.7-1.3 1 -0.2 0.1-0.3 0.3-0.5 0.4C8 30.8 8.1 30.9 8.1 31z"/><path class="st0" d="M8.1 27.3c0.1 0 0.2-0.1 0.3-0.3 -0.1 0-0.2 0.1-0.4 0.3 -0.4 0.3-0.8 0.6-1.1 1 -0.1 0.1-0.3 0.3-0.5 0.4 0 0 0.1 0.1 0.1 0.1C7 28.3 7.5 27.8 8.1 27.3z"/><path class="st0" d="M9 32.6c0 0-0.1-0.1-0.1-0.1 0 0 0 0 0 0C8.9 32.5 8.9 32.5 9 32.6z"/><path class="st0" d="M8.7 33.3C8.7 33.3 8.7 33.3 8.7 33.3c0.1 0.3 0.3 0.6 0.5 0.8 0.2 0.2 0.4 0.4 0.7 0.6 0.1-0.1 0.2-0.2 0.3-0.2 0.1 0 0.2 0 0.2 0 0.1 0 0.1 0 0.2 0.1 0.2 0.2 0.3 0.3 0.5 0.5s0.3 0.4 0.5 0.7c0.1 0.2 0.2 0.4 0.4 0.5 0.3 0.2 0.6 0.4 0.8 0.7 0.2 0.3 0.5 0.6 0.6 0.9 0.1 0.2 0.3 0.4 0.5 0.5 0 0 0.1 0 0.2 0 -0.8-0.8-1.6-1.7-2.4-2.6 -0.8-0.9-1.6-1.8-2.4-2.7 0.1 0.1 0.1 0.2 0.1 0.3 0 0.1 0 0.2 0.1 0.3 -0.2 0.2-0.3 0.2-0.4 0L9 33.5C9 33.4 8.8 33.4 8.7 33.3z"/><path class="st0" d="M5 34.6c-0.1 0-0.1 0.1-0.1 0.3l0.3-0.3c0 0-0.1-0.1-0.1-0.1C5.1 34.6 5.1 34.6 5 34.6z"/><path class="st0" d="M8.8 31.7c0.1-0.1 0.1-0.1 0.2-0.2 -0.1 0-0.2 0.1-0.3 0.1C8.7 31.6 8.8 31.7 8.8 31.7z"/><path class="st0" d="M7.9 31.2c-0.1-0.1-0.1-0.2-0.2-0.3 0 0-0.1 0.1-0.1 0.1 0.1 0.1 0.1 0.2 0.2 0.2C7.8 31.2 7.9 31.2 7.9 31.2z"/><path class="st0" d="M9.5 31.1l0.2-0.2C9.7 30.9 9.6 31 9.5 31.1L9.5 31.1z"/><path class="st0" d="M4.1 33.9c0.1 0.1 0.2 0.2 0.2 0.3 0.1-0.1 0.2-0.2 0.3-0.3 -0.1-0.1-0.2-0.2-0.2-0.3C4.3 33.8 4.2 33.9 4.1 33.9z"/><path class="st0" d="M4.7 30c-0.1 0.1-0.1 0.1-0.2 0.2 0 0 0.1 0 0.1 0.1 0 0 0.1 0.1 0.1 0.1 0.1-0.1 0.1-0.1 0.2-0.2C4.8 30.2 4.7 30.1 4.7 30z"/><path class="st0" d="M7.6 32.6L7.6 32.6C7.6 32.5 7.6 32.6 7.6 32.6L7.6 32.6z"/><path class="st0" d="M5 34.4c-0.1 0.1-0.2 0.1-0.2 0.3L5 34.4C5 34.4 5 34.4 5 34.4z"/><path class="st0" d="M7.1 31.9l-0.2-0.2c0 0 0 0 0 0C6.9 31.8 7 31.8 7.1 31.9 7.1 31.9 7.1 31.9 7.1 31.9z"/><path class="st0" d="M5 33.6c0.1 0 0.1-0.1 0.2-0.1 0 0-0.1-0.1-0.1-0.1 0 0-0.1-0.1-0.2-0.1 0 0-0.1 0.1-0.1 0.1C4.9 33.4 4.9 33.5 5 33.6z"/><path class="st1" d="M35.6 62.6c-0.3-0.5-0.7-0.9-1.1-1.3 -0.4-0.4-0.8-0.8-1.1-1.2 -0.6-0.7-1.2-1.4-1.8-2.1 -0.6-0.7-1.2-1.4-1.7-2.1 -0.2-0.3-0.5-0.6-0.7-0.8 -0.3-0.2-0.5-0.5-0.7-0.8 -0.2-0.2-0.4-0.3-0.6-0.2 -0.2 0.1-0.4 0-0.5-0.2l-0.5-0.5c-0.1-0.2-0.2-0.3-0.4-0.5 -0.1-0.1-0.3-0.3-0.4-0.5 0.1-0.1 0.2-0.1 0.3 0 0.1 0.1 0.1 0.1 0.3-0.1 -0.1-0.2-0.3-0.4-0.5-0.6L25.2 51c-0.4-0.5-0.8-0.9-1.2-1.3 -0.4-0.4-0.8-0.8-1.2-1.3 -0.3-0.3-0.5-0.5-0.8-0.6 0 0.3 0.1 0.4 0.3 0.5 0.2 0.1 0.3 0.2 0.4 0.4 0 0-0.1 0-0.1 0 -0.3-0.2-0.6-0.5-0.9-0.8L20.8 47c0-0.1 0-0.1 0-0.1v-0.1l0-0.1c0.1 0 0.1 0.1 0.2 0.1 0 0 0.1 0 0.1 0 0 0.1 0.1 0 0.2 0 -0.2-0.2-0.4-0.4-0.6-0.7 -0.2-0.2-0.4-0.4-0.6-0.7 -0.2-0.3-0.4-0.5-0.6-0.7 -0.2-0.2-0.5-0.4-0.7-0.7 -0.3-0.3-0.6-0.6-0.8-0.9 -0.3-0.3-0.5-0.6-0.8-0.9 -0.5-0.6-1.1-1.2-1.7-1.7 -0.4-0.4-0.8-0.9-1.2-1.3 -0.4-0.5-0.8-0.9-1.3-1.3l-0.1-0.1c-0.2-0.3-0.5-0.6-0.7-0.8 -0.3-0.3-0.5-0.6-0.7-0.8 -0.1-0.1-0.1-0.2-0.2-0.4 0.1 0 0.2 0.1 0.4 0.3 0.2 0.2 0.3 0.3 0.4 0.4 0.4 0.5 0.8 1 1.2 1.4 0.4 0.4 0.9 0.9 1.3 1.4 0.1 0.1 0.2 0.2 0.3 0.2 0.1 0.1 0.1 0.1 0.2 0.1 0-0.1 0-0.2 0.1-0.2 0 0 0-0.1 0-0.1 0 0 0-0.1 0-0.1 0 0 0-0.1 0.1-0.1 0.4 0.5 0.9 1 1.4 1.5 0.5 0.5 0.9 1 1.3 1.6l0 0c-0.2-0.1-0.4-0.2-0.4-0.2 -0.1 0-0.1-0.1-0.1-0.2 -0.2-0.4-0.4-0.6-0.6-0.8 -0.2-0.2-0.5-0.3-0.8-0.5 0.3 0.4 0.7 0.8 1 1.1 0.3 0.4 0.7 0.7 1 1.1 0.2 0 0.3-0.1 0.5-0.1 0.1-0.1 0.2 0 0.3 0.2 0 0-0.2 0.1-0.4 0.2 0.1 0.1 0.2 0.3 0.3 0.4l1.7 1.7c0.3 0.3 0.6 0.6 0.9 1 0.1 0.1 0.2 0.2 0.3 0.3 0.1 0.1 0.2 0.2 0.4 0.2 0.2-0.1 0.4-0.1 0.4-0.1 0 0 0.1 0.1 0.2 0.2 0.4 0.4 0.8 0.7 1.1 1.1 0.3 0.4 0.6 0.8 1 1.1 -0.1 0.2-0.2 0.2-0.3 0.1 -0.1-0.1-0.2-0.2-0.2-0.4 -0.1-0.1-0.1-0.1-0.1-0.2 0-0.1 0-0.1-0.1-0.1 -0.3-0.2-0.6-0.4-0.7-0.7 -0.2-0.3-0.4-0.6-0.6-0.9 0 0.1-0.1 0.2-0.1 0.2 0 0-0.1 0.1-0.1 0.2 0.1 0.1 0.1 0.1 0.1 0.2 0 0 0.1 0.1 0.1 0.2 0.2 0.3 0.5 0.6 0.7 0.8 0.3 0.3 0.5 0.5 0.7 0.8l0.8 0.8c0.1 0.1 0.3 0.2 0.5 0.3 0.1 0 0.1 0 0.1 0 0-0.1 0-0.2 0-0.2 0 0 0-0.1 0-0.2 -0.2 0.1-0.3 0.1-0.3 0 -0.1-0.1-0.1-0.2-0.1-0.2 0.1-0.4-0.1-0.7-0.4-1.1l-0.3-0.3c-0.5-0.6-1-1.2-1.5-1.7 -0.5-0.5-1.1-1.1-1.6-1.6l-2.7-3c-0.2-0.2-0.4-0.4-0.6-0.5 -0.2-0.2-0.4-0.4-0.5-0.6 -0.4-0.5-0.8-0.9-1.2-1.4 -0.4-0.4-0.8-0.9-1.2-1.3 -0.5-0.6-1-1.1-1.5-1.6 -0.5-0.5-1-1.1-1.5-1.6 -0.2-0.3-0.5-0.6-0.7-0.8 -0.2-0.3-0.5-0.5-0.8-0.8 -0.2-0.3-0.4-0.5-0.5-0.7 0-0.1-0.1-0.2-0.2-0.2 0.1-0.1 0.1-0.2 0.1-0.4 -0.1 0-0.2 0.1-0.3 0.1 -0.1-0.1-0.1-0.2-0.2-0.2 0.7-0.6 1.5-1.2 2.2-1.8 0.8-0.6 1.6-1.3 2.4-2 0.5-0.4 1-0.8 1.5-1.2 0.5-0.4 1-0.8 1.5-1.1 0.3-0.2 0.5-0.4 0.7-0.6 0.2-0.2 0.5-0.5 0.7-0.7 0.1-0.1 0.1-0.1 0.1-0.1 0 0 0.1 0 0.1-0.1 0 0.2-0.1 0.3-0.2 0.4 -0.4 0.3-0.8 0.7-1.2 1 -0.4 0.4-0.8 0.7-1.2 1.1 -0.3 0.2-0.5 0.4-0.7 0.6 -0.2 0.2-0.4 0.4-0.7 0.6 -0.5 0.4-1 0.8-1.5 1.2 -0.5 0.4-1 0.8-1.5 1.2 -0.3 0.2-0.5 0.4-0.7 0.6 -0.2 0.2-0.4 0.4-0.7 0.6L10.1 32l0.1-0.1c0.2-0.2 0.4-0.3 0.6-0.5 0.2-0.1 0.4-0.3 0.6-0.5 0.6-0.5 1.2-1 1.8-1.4 0.6-0.5 1.2-0.9 1.8-1.4 0.8-0.6 1.5-1.3 2.2-1.9 0.7-0.6 1.4-1.2 2.2-1.8 0.3-0.3 0.6-0.5 0.9-0.8 0.3-0.3 0.6-0.6 0.9-0.8 0.4-0.3 0.9-0.7 1.2-1.1 0.4-0.4 0.8-0.8 1.2-1.1 1-1.1 2-2.1 2.9-3.1 1-1 1.9-2.1 2.9-3.2 0.8-0.9 1.6-2 2.4-3.2 0.3-0.4 0.6-0.9 1-1.3 0.3-0.4 0.7-0.9 1-1.3C34.3 8 34.7 7.5 35 7c0.2-0.3 0.3-0.6 0.3-0.9 0-0.1 0-0.2 0.1-0.3 0.1-0.1 0.2-0.2 0.3-0.3 0.1-0.1 0.2-0.2 0.3-0.3C36 5 36.1 4.9 36.2 4.8c0.1-0.1 0.2-0.2 0.2-0.3 0.1-0.1 0.1-0.2 0-0.4 0-0.2-0.1-0.2-0.2-0.2 -0.1 0-0.2 0-0.2-0.1 0-0.3 0-0.4 0-0.4 0 0-0.2-0.1-0.4-0.1 0.1-0.1 0.1-0.2 0.2-0.3 0.1-0.1 0.1-0.2 0.2-0.4C36.1 2.3 36.1 2.1 36 2c-0.1-0.2-0.1-0.5 0-0.8 0-0.4-0.2-0.6-0.5-0.7 -0.2-0.1-0.4-0.2-0.6-0.2 -0.2-0.1-0.4-0.1-0.6-0.2l-0.2 0.2 -2.3 2.3c-0.1 0.1-0.1 0.1-0.2 0.2 -0.1 0-0.2 0.1-0.2 0.2 -0.4 0.3-0.7 0.6-1 0.9 -0.3 0.3-0.6 0.6-1 1l-0.1 0.1 -0.7 0.7c-0.1 0.2-0.2 0.3-0.3 0.4C28.1 6 28 6.1 27.9 6.2c-0.3 0.3-0.5 0.5-0.7 0.8 -0.2 0.3-0.4 0.5-0.7 0.8 -0.2 0.3-0.4 0.5-0.6 0.7 -0.2 0.2-0.4 0.4-0.6 0.6l-1.5 1.5 -0.4 0.4c-0.1 0.1-0.3 0.3-0.4 0.4 -0.1 0.1-0.3 0.3-0.5 0.4 -0.5 0.4-1 0.9-1.4 1.4 -0.4 0.5-0.9 1-1.4 1.4 -0.1 0.1-0.2 0.2-0.2 0.3 -0.3 0.3-0.5 0.5-0.8 0.8 -0.3 0.3-0.5 0.5-0.9 0.7 -0.2 0.1-0.3 0.2-0.4 0.3 -0.1 0.1-0.2 0.3-0.4 0.5 -0.1 0.1-0.1 0.1-0.1 0.2 0 0.1-0.1 0.1-0.1 0.1 -0.3 0.2-0.6 0.4-0.8 0.6 -0.3 0.2-0.5 0.4-0.7 0.7L15.2 19c-0.2 0.2-0.4 0.4-0.6 0.6 -0.1 0.2-0.3 0.4-0.6 0.6 -0.2 0.1-0.3 0.2-0.5 0.3 -0.1 0.1-0.3 0.2-0.4 0.3 -0.3 0.2-0.5 0.5-0.7 0.7 -0.2 0.2-0.5 0.4-0.9 0.5 -0.1 0-0.2 0.1-0.3 0.2 -0.2 0.2-0.3 0.3-0.5 0.5 -0.2 0.2-0.3 0.4-0.4 0.6 -0.1 0.4-0.4 0.6-0.8 0.6 -0.2 0-0.4 0.1-0.6 0.4 0.1 0.1 0.1 0.1 0.2 0 0.1-0.1 0.2-0.1 0.3 0 -0.3 0.2-0.5 0.4-0.8 0.6 -0.2 0.2-0.5 0.4-0.7 0.7 -0.2 0.1-0.4 0.3-0.7 0.6 -0.4 0.3-0.8 0.6-1.2 1 -0.2 0.2-0.5 0.4-0.7 0.6 -0.1-0.1-0.1-0.2-0.2-0.3 -0.1 0.1-0.2 0.2-0.2 0.2 0 0 0.1 0.1 0.1 0.1 0 0.1 0.1 0.1 0.1 0.2 -0.1 0-0.1 0.1-0.2 0.1 -0.1-0.1-0.1-0.1-0.2-0.2 -0.4 0.4-0.7 0.7-1.1 1 0.1 0.1 0.1 0.2 0.2 0.2 -0.1 0-0.2 0.1-0.3 0.1 0 0-0.1-0.1-0.1-0.1 -0.6 0.5-1.2 1.1-1.8 1.6 0 0 0.1 0.1 0.1 0.2 0 0-0.1 0.1-0.1 0.1 0-0.1-0.1-0.1-0.1-0.1 -0.4 0.3-0.8 0.7-1.2 1 0 0 0.1 0.1 0.1 0.1C0.2 31.9 0.1 32 0 32.1c0.3 0.3 0.7 0.7 1 1 0.1-0.1 0.3-0.2 0.4-0.4v0c0 0.1 0.1 0.3 0.2 0.4 -0.1 0.1-0.2 0.2-0.3 0.2 0.1 0.1 0.2 0.2 0.3 0.3 0.1-0.1 0.2-0.1 0.3-0.2 0 0 0 0 0 0.1 0.1 0 0.1 0.1 0.2 0.1C2 33.9 1.9 34 1.9 34c0.3 0.3 0.7 0.7 1 1C2.9 35 3 34.9 3.1 34.8c0.1 0.1 0.1 0.2 0.2 0.3 -0.1 0.1-0.1 0.1-0.2 0.2 0.5 0.5 0.9 1 1.4 1.5 0 0 0.1 0 0.1-0.1 0.1 0.1 0.2 0.2 0.3 0.3l0.3 0.3c0.5 0.2 0.8 0.3 0.9 0.4 0.1 0.1 0.3 0.3 0.6 0.7 0.1 0.1 0.1 0.2 0.3 0.3C7 38.8 7.1 38.9 7.2 39c0.1 0.1 0.2 0.2 0.3 0.4 0.1 0.1 0.2 0.2 0.3 0.3 0.1 0.2 0.2 0.4 0.2 0.6 0.1 0.2 0.2 0.3 0.4 0.4 0.1 0 0.2 0.1 0.2 0.3 0 0.3 0.2 0.5 0.5 0.5 0.3 0.1 0.4 0.1 0.4 0.2 0.2 0.3 0.3 0.5 0.6 0.7s0.4 0.4 0.6 0.6c0.2 0.2 0.3 0.3 0.4 0.4 0.1 0.1 0.3 0.2 0.5 0.4 0.1 0.1 0.3 0.2 0.4 0.3 0.1 0.1 0.2 0.2 0.2 0.4 0.1 0.2 0.3 0.4 0.5 0.5 0.5 0.3 0.9 0.7 1.1 1.1 0 0.1 0.1 0.2 0.2 0.2 0.1 0 0.3 0.1 0.4 0.4 0 0.2 0.1 0.3 0.3 0.4 0.1 0.1 0.3 0.2 0.4 0.4 0.1 0.3 0.4 0.4 1 0.4l-0.1-0.1c0.3 0 0.4 0.1 0.5 0.1 0.2 0.2 0.3 0.3 0.5 0.5 0.1 0.2 0.3 0.3 0.5 0.5 0.1 0.1 0.2 0.2 0.3 0.3 0.1 0.1 0.2 0.2 0.3 0.3 0.4 0.4 0.8 0.7 1.2 1.1l1 1c0.1 0.1 0.3 0.2 0.6 0.2 -0.1-0.1-0.2-0.2-0.3-0.3 -0.1-0.1-0.1-0.2-0.2-0.3 -0.4-0.4-0.9-0.9-1.4-1.3 -0.5-0.4-0.9-0.9-1.3-1.4l0 0c-0.4-0.4-0.9-0.9-1.3-1.3 -0.4-0.4-0.8-0.9-1.3-1.3 -0.3-0.3-0.5-0.7-0.8-1 -0.3-0.3-0.6-0.7-0.9-1 -0.4-0.5-0.9-0.9-1.3-1.4 -0.5-0.5-0.9-0.9-1.4-1.4 -0.4-0.5-0.9-1-1.3-1.4 -0.4-0.4-0.9-0.9-1.2-1.5l-0.3-0.3c-0.5-0.4-0.9-0.8-1.2-1.2 -0.2-0.3-0.5-0.6-0.8-0.9 0.1-0.1 0.2-0.2 0.3-0.2 0.2 0.2 0.4 0.5 0.6 0.7C7 36.6 7.4 37 7.8 37.5 8 37.8 8.3 38 8.5 38.2c0.2 0.2 0.5 0.4 0.8 0.6 0.1 0 0.2 0.2 0.3 0.4 0.2 0.4 0.5 0.6 1 0.7 -0.2-0.4-0.5-0.6-0.8-0.9 -0.3-0.2-0.5-0.5-0.7-0.8 -0.2-0.3-0.5-0.6-0.8-0.9 -0.3-0.3-0.6-0.6-0.8-0.8 -0.2-0.3-0.5-0.6-0.7-0.8 -0.2-0.2-0.3-0.4-0.4-0.5 0 0 0.1-0.1 0.1-0.1 0 0 0.1-0.1 0.2-0.1 0.6 0.7 1.2 1.3 1.8 2 1 1.1 2 2.1 3 3.3 1.1 1.2 2.1 2.3 3.3 3.5 1.1 1.2 2.2 2.3 3.3 3.5 0.1 0.1 0.2 0.2 0.2 0.3 0.2 0.4 0.3 0.6 0.4 0.8 0.1 0.2 0.4 0.4 0.7 0.6 -0.2-0.3-0.4-0.5-0.5-0.7 0.4 0.5 0.9 0.9 1.4 1.4 0.5 0.4 1 0.8 1.5 1.2l0 0c0.3 0.3 0.5 0.5 0.7 0.7 0.2 0.2 0.4 0.5 0.6 0.7 0.6 0.6 1.3 1.3 2 2 0.7 0.7 1.3 1.3 1.9 2 0.9 1 1.8 1.9 2.6 2.8 0.8 0.9 1.7 1.8 2.6 2.8 0 0 0.1 0.1 0.1 0.1 0 0 0.1 0 0.1 0 0-0.1 0-0.2-0.1-0.3 -0.1-0.1-0.1-0.1-0.2-0.2 0-0.1-0.1-0.2-0.3-0.4 -0.2-0.2-0.3-0.3-0.3-0.4l-0.4-0.4c0-0.1-0.1-0.2-0.2-0.2 -0.1 0-0.1-0.1-0.1-0.3 0.3-0.1 0.5-0.1 0.6 0 0.1 0.1 0.3 0.2 0.5 0.4 0.2 0.3 0.5 0.6 0.7 0.8 0.2 0.3 0.5 0.5 0.7 0.8 0.2 0.3 0.4 0.5 0.6 0.7 0.2 0.2 0.5 0.4 0.9 0.5 -1-1.3-2.1-2.5-3.1-3.7 -1.1-1.2-2.1-2.4-3.1-3.6 0.8 0.9 1.6 1.7 2.3 2.6 0.7 0.8 1.5 1.7 2.4 2.5 -0.1-0.3-0.2-0.4-0.3-0.5 -0.1-0.1-0.2-0.3-0.4-0.5 -0.1-0.1-0.2-0.2-0.2-0.2 0 0 0-0.2-0.1-0.4 0.3 0.3 0.6 0.6 0.9 0.9 0.3 0.3 0.6 0.6 0.8 0.9 0.3 0.4 0.6 0.7 0.9 1.1 0.3 0.3 0.6 0.7 0.9 1l0.6 0.6c0.1 0.1 0.2 0.2 0.2 0.3 0.1 0.1 0.2 0.2 0.3 0.2C36.4 63.6 36 63.1 35.6 62.6zM19 43.4c0.3 0.4 0.6 0.7 1 1.1 0.3 0.3 0.6 0.7 0.9 1l-0.1 0.1c-0.3-0.4-0.6-0.7-0.9-1 -0.3-0.3-0.7-0.7-1-1L19 43.4zM23.7 18.4c0 0.2-0.1 0.3-0.1 0.3 0 0-0.1 0.1-0.3 0.1L23.7 18.4zM21.3 22C21.3 22 21.3 21.9 21.3 22c0.2-0.2 0.4-0.3 0.6-0.6l0.1 0.1c-0.1 0.1-0.2 0.2-0.4 0.3C21.6 21.9 21.5 21.9 21.3 22 21.4 22 21.3 22 21.3 22 21.3 22 21.4 22 21.3 22zM20.2 23c0.1-0.1 0.3-0.3 0.5-0.5l0 0c0 0-0.1 0.1-0.1 0.1 0 0.1-0.1 0.1-0.1 0.1C20.5 23 20.4 23 20.4 23c-0.1 0-0.1 0.1-0.2 0.1l-0.3 0.3 -0.1-0.1C19.9 23.3 20.1 23.2 20.2 23zM2.6 32.2c-0.1-0.1-0.2-0.2-0.3-0.3 0.1-0.1 0.1-0.1 0.2-0.2 0 0 0 0 0 0 0.1 0.1 0.2 0.2 0.2 0.3C2.8 32.1 2.7 32.2 2.6 32.2zM4.3 34.2c-0.1-0.1-0.2-0.2-0.2-0.3 0.1-0.1 0.2-0.2 0.3-0.2 0.1 0.1 0.2 0.2 0.2 0.3C4.5 34.1 4.4 34.1 4.3 34.2zM6.3 32.5c-0.1-0.1-0.1-0.2-0.2-0.2 0.1-0.1 0.2-0.1 0.3-0.2 0.1 0.1 0.1 0.1 0.2 0.2C6.5 32.4 6.4 32.4 6.3 32.5zM18 43.9c0.2 0.1 0.4 0.3 0.6 0.5 0.2 0.2 0.3 0.4 0.5 0.6 -0.2-0.2-0.4-0.4-0.6-0.5C18.2 44.3 18 44.1 18 43.9L18 43.9zM16.2 41.9c0.1 0.1 0.2 0.3 0.3 0.5 -0.2-0.1-0.4-0.2-0.5-0.4 -0.1-0.1-0.2-0.3-0.3-0.5C15.9 41.7 16.1 41.8 16.2 41.9zM9.2 33.7c0.1 0.1 0.3 0.1 0.4 0 0-0.1-0.1-0.2-0.1-0.3 0-0.1-0.1-0.2-0.1-0.3 0.9 0.9 1.7 1.8 2.4 2.7 0.8 0.9 1.5 1.8 2.4 2.6 -0.1 0.1-0.2 0.1-0.2 0 -0.2-0.1-0.4-0.3-0.5-0.5 -0.2-0.3-0.4-0.6-0.6-0.9 -0.2-0.3-0.5-0.5-0.8-0.7 -0.2-0.1-0.3-0.3-0.4-0.5 -0.1-0.3-0.3-0.5-0.5-0.7s-0.4-0.4-0.5-0.5c-0.1-0.1-0.1-0.1-0.2-0.1 -0.1-0.1-0.1-0.1-0.2 0 -0.1 0-0.2 0.1-0.3 0.2 -0.3-0.3-0.5-0.5-0.7-0.6 -0.2-0.2-0.4-0.4-0.5-0.7 0 0 0 0 0 0C8.8 33.4 9 33.4 9 33.5L9.2 33.7zM8.4 30.3c0.4-0.4 0.8-0.7 1.3-1 0.4-0.3 0.8-0.6 1.2-1 0.4-0.3 0.8-0.6 1.2-0.9l0.2-0.2 0 0.2c-0.8 0.7-1.6 1.4-2.3 2 -0.6 0.5-1.2 1.1-1.9 1.6 -0.1-0.1-0.1-0.2-0.2-0.3C8.1 30.6 8.2 30.4 8.4 30.3zM7.3 33.7c0.1-0.1 0.2-0.2 0.3-0.2 0.1 0.1 0.1 0.1 0.2 0.2 -0.1 0.1-0.2 0.1-0.3 0.2C7.4 33.8 7.4 33.7 7.3 33.7zM27.4 54.8c-0.1-0.1-0.1-0.1-0.2-0.2 -0.1-0.1-0.1-0.2-0.2-0.3 -0.6-0.7-1.3-1.4-2-2.1 -0.7-0.7-1.3-1.4-2-2.1l-3.9-3.9c-0.5-0.5-1.1-1.1-1.6-1.7 -0.5-0.6-1-1.1-1.6-1.6 -0.6-0.6-1.1-1.2-1.7-1.8 -0.5-0.6-1.1-1.2-1.6-1.7 -0.2-0.3-0.4-0.5-0.8-0.7 -0.4-0.3-0.8-0.7-1.1-1.2 -0.1-0.3-0.3-0.5-0.5-0.7 -0.2-0.2-0.4-0.4-0.5-0.7 -0.1-0.2-0.2-0.4-0.5-0.6 -0.2-0.2-0.4-0.3-0.6-0.5 -0.3-0.3-0.6-0.7-0.9-1C7.8 34.1 7.9 34 8 33.9c0.1 0.2 0.3 0.3 0.4 0.5C8.6 34.6 8.8 34.8 9 35c0.5 0.6 1 1.1 1.6 1.7 0.5 0.6 1 1.1 1.6 1.7 0.3 0.4 0.6 0.7 0.9 1 0.3 0.3 0.6 0.6 0.9 0.9 0.6 0.7 1.2 1.4 1.8 2 0.7 0.7 1.3 1.3 1.8 2l2.3 2.3 0.7 0.7c0.2 0.2 0.4 0.5 0.6 0.7 0.1 0.2 0.3 0.3 0.4 0.5 0.1 0.1 0.3 0.2 0.5 0.4 0.3 0.3 0.6 0.6 0.9 1 0.3 0.3 0.6 0.7 1 1 0.4 0.5 0.8 0.9 1.3 1.4 0.4 0.5 0.9 0.9 1.4 1.4 0.1 0.1 0.1 0.1 0.2 0.2 0.1 0 0.1 0.1 0.2 0.2 0.1 0.1 0.2 0.2 0.3 0.3C27.4 54.5 27.4 54.6 27.4 54.8zM29.7 58c0.4 0.4 0.6 0.8 0.7 1.1 0 0-0.1 0-0.2-0.1l-0.2-0.2c-0.2 0-0.3-0.1-0.4-0.4 -0.1-0.2-0.2-0.3-0.4-0.4l-0.2-0.2c-0.1-0.3-0.2-0.6-0.4-0.7 -0.2-0.2-0.4-0.4-0.5-0.6l-0.5-0.5C28.6 56.8 29.3 57.5 29.7 58zM31.3 58.5c-0.1-0.1-0.2-0.3-0.4-0.6 0.2 0.1 0.4 0.2 0.4 0.3 0.1 0.1 0.2 0.3 0.3 0.5C31.5 58.7 31.4 58.6 31.3 58.5z"/><path class="st1" d="M6.4 28.8C6.4 28.8 6.4 28.7 6.4 28.8c0.1-0.2 0.3-0.3 0.4-0.5 0.4-0.3 0.7-0.6 1.1-1 0.2-0.2 0.3-0.3 0.4-0.3 -0.1 0.2-0.2 0.3-0.3 0.3C7.5 27.8 7 28.3 6.4 28.8z"/><path class="st1" d="M21.3 46L21.3 46c0.1 0.1 0.1 0.1 0.1 0.1L21.3 46C21.3 46 21.3 46 21.3 46z"/><path class="st1" d="M16.1 25.5l0.1-0.1 0 0L16.1 25.5C16.1 25.6 16.1 25.6 16.1 25.5L16.1 25.5z"/><path class="st1" d="M13.1 27.9C13.1 28 13.1 28 13.1 27.9L13.1 27.9 13.1 27.9z"/><path class="st1" d="M3 32.7c0.1-0.1 0.2-0.1 0.2-0.2 0 0.1 0.1 0.1 0.1 0.1 0 0 0 0 0 0 -0.1 0.1-0.1 0.1-0.2 0.2C3.1 32.8 3 32.7 3 32.7z"/><rect x="25.3" y="51.4" transform="matrix(0.7054 -0.7088 0.7088 0.7054 -29.1601 33.1981)" class="st1" width="0.1" height="0.6"/><path class="st1" d="M23.7 49.9C23.7 49.8 23.7 49.8 23.7 49.9l0.2 0.1 0 0c0 0-0.1 0-0.2 0L23.7 49.9z"/><rect x="23" y="49.2" transform="matrix(0.7071 -0.7071 0.7071 0.7071 -28.1045 30.7635)" class="st1" width="0.1" height="0.3"/><path class="st1" d="M8.8 31.7c0 0-0.1-0.1-0.1-0.1 0.1 0 0.1 0 0.3-0.1C8.9 31.6 8.8 31.7 8.8 31.7z"/><path class="st1" d="M9 32.6c0 0-0.1-0.1-0.1-0.1 0 0 0 0 0 0C8.9 32.5 8.9 32.5 9 32.6z"/><path class="st1" d="M9.5 31.1L9.5 31.1c0-0.1 0.1-0.1 0.2-0.2L9.5 31.1z"/><path class="st1" d="M11.3 29.6L11.3 29.6c0-0.1 0-0.2 0-0.2l0.1 0 0 0L11.3 29.6z"/><path class="st1" d="M8.5 31.9C8.5 31.9 8.4 31.9 8.5 31.9c-0.1 0-0.1 0-0.1 0C8.4 31.9 8.4 31.9 8.5 31.9 8.4 31.9 8.4 31.9 8.5 31.9z"/><path class="st1" d="M7.6 31c0 0 0.1-0.1 0.1-0.1 0.1 0.1 0.1 0.2 0.2 0.3 0 0-0.1 0.1-0.1 0.1C7.7 31.2 7.7 31.1 7.6 31z"/><path class="st1" d="M7.6 32.6L7.6 32.6C7.6 32.6 7.6 32.5 7.6 32.6L7.6 32.6z"/><path class="st1" d="M6.9 31.7l0.2 0.2c0 0 0 0 0 0C7 31.8 6.9 31.8 6.9 31.7 6.8 31.7 6.9 31.7 6.9 31.7z"/><path class="st1" d="M5.1 33.4C5.1 33.4 5.2 33.4 5.1 33.4c0 0.1 0 0.2-0.1 0.2 -0.1-0.1-0.1-0.2-0.2-0.3 0 0 0.1-0.1 0.1-0.1C5 33.3 5.1 33.3 5.1 33.4z"/><path class="st1" d="M4.5 30.3C4.5 30.3 4.5 30.2 4.5 30.3c0-0.1 0.1-0.2 0.1-0.3 0.1 0.1 0.1 0.1 0.2 0.2 -0.1 0.1-0.1 0.1-0.2 0.2C4.6 30.4 4.5 30.3 4.5 30.3z"/><path class="st1" d="M4.8 34.6c0.1-0.1 0.1-0.2 0.2-0.3 0 0 0 0 0 0L4.8 34.6z"/><path class="st1" d="M5 34.9c-0.1-0.2 0-0.3 0.1-0.3 0 0 0.1 0 0.1 0 0 0 0.1 0.1 0.1 0.1L5 34.9z"/><path class="st1" d="M5.2 29.9c-0.1-0.1-0.1-0.1-0.2-0.2 0 0 0 0 0.1-0.1L5.2 29.9C5.2 29.9 5.2 29.9 5.2 29.9z"/><path class="st1" d="M5.4 29.4c0 0 0.1 0.1 0.1 0.1 0 0 0 0 0 0 -0.1 0-0.1 0.1-0.2 0.1 0-0.1-0.1-0.1-0.1-0.2C5.3 29.5 5.4 29.4 5.4 29.4z"/><path class="st1" d="M5.5 33.8C5.6 33.9 5.6 33.9 5.5 33.8l-0.1 0.3c0 0-0.1-0.1-0.1-0.1C5.4 33.9 5.5 33.9 5.5 33.8z"/><path class="st1" d="M5.5 35.5c0 0-0.1-0.1-0.1-0.1 0.1-0.1 0.2-0.2 0.3-0.3 0 0 0.1 0.1 0.1 0.1C5.7 35.4 5.6 35.4 5.5 35.5z"/><path class="st1" d="M6 29.2c0 0-0.1-0.1-0.1-0.1C5.9 29 6 29 6.1 28.9c0 0 0.1 0.1 0.1 0.1C6.1 29.1 6 29.2 6 29.2z"/><path class="st1" d="M6.2 35c0-0.1-0.1-0.1-0.1-0.2 0 0 0 0 0 0 0.1-0.1 0.1-0.1 0.2-0.2 0.1 0.1 0.1 0.1 0.2 0.2C6.3 34.8 6.2 34.9 6.2 35z"/><path class="st1" d="M6.6 32.9c0.1-0.1 0.2-0.2 0.3-0.2 0 0 0 0 0.1 0.1L6.6 32.9C6.7 32.9 6.6 32.9 6.6 32.9z"/><path class="st1" d="M7.2 33.1c-0.1 0-0.2 0.1-0.2 0.2 0-0.1-0.1-0.1-0.1-0.2C6.9 33.1 7 33 7.1 32.9L7.2 33.1C7.2 33.1 7.2 33.1 7.2 33.1z"/><path class="st1" d="M7.2 31.8c-0.1 0-0.1 0-0.1-0.1 0 0 0-0.1 0-0.1 0 0 0-0.1 0.1-0.1l0.2 0.2C7.3 31.7 7.2 31.7 7.2 31.8z"/><path class="st1" d="M28.4 54.8C28.3 54.8 28.3 54.8 28.4 54.8l-0.2-0.1 0 0 0.1-0.1L28.4 54.8C28.4 54.8 28.4 54.8 28.4 54.8z"/><polygon class="st1" points="29.4 56.1 29.4 56 29.5 56 "/></svg>