<svg xmlns="http://www.w3.org/2000/svg" xmlns:xlink="http://www.w3.org/1999/xlink" width="1440" height="763" viewBox="1106 1439 1440 763" version="1.1">

  <title>Page 1</title>

  <desc>Created with Sketch.</desc>

  <g id="Symbols" stroke="none" stroke-width="1" fill="none" fill-rule="evenodd">
    <g id="Page-1" fill="#E2001A">
      <polygon id="Fill-1" points="2256.7 1058.2 1058.2 2256.7 1100.6 2299.1 2299.1 1100.6"/>
      <polygon id="Fill-2" points="2338 1139.5 1139.5 2338 1181.9 2380.4 2380.4 1181.9"/>
      <polygon id="Fill-3" points="2419.3 1220.8 1220.8 2419.3 1263.2 2461.7 2461.7 1263.3"/>
      <polygon id="Fill-4" points="2500.6 1302.1 1302.1 2500.6 1344.6 2543.1 2543.1 1344.6"/>
      <polygon id="Fill-5" points="2581.9 1383.5 1383.5 2581.9 1425.9 2624.4 2624.4 1425.9"/>
      <polygon id="Fill-6" points="2663.3 1464.8 1464.8 2663.3 1507.2 2705.7 2705.7 1507.2"/>
      <polygon id="Fill-7" points="2744.6 1546.1 1546.1 2744.6 1588.5 2787 2787 1588.5"/>
      <polygon id="Fill-8" points="2825.9 1627.4 1627.4 2825.9 1669.8 2868.3 2868.3 1669.8"/>
      <polygon id="Fill-9" points="2907.2 1708.7 1708.7 2907.2 1751.1 2949.6 2949.6 1751.2"/>
      <polygon id="Fill-10" points="2988.5 1790 1790 2988.5 1832.5 3031 3031 1832.5"/>
      <polygon id="Fill-11" points="3069.8 1871.4 1871.4 3069.8 1913.8 3112.3 3112.3 1913.8"/>
      <polygon id="Fill-12" points="3151.2 1952.7 1952.7 3151.2 1995.1 3193.6 3193.6 1995.1"/>
      <polygon id="Fill-13" points="2034 3232.5 2076.4 3274.9 3274.9 2076.4 3232.5 2034"/>
      <polygon id="Fill-14" points="0 1198.5 42.4 1240.9 1240.9 42.4 1198.5 0"/>
      <polygon id="Fill-15" points="1279.8 81.3 81.3 1279.8 123.7 1322.2 1322.2 123.7"/>
      <polygon id="Fill-16" points="1361.1 162.6 162.6 1361.1 205.1 1403.6 1403.5 205.1"/>
      <polygon id="Fill-17" points="1442.4 244 244 1442.4 286.4 1484.9 1484.9 286.4"/>
      <polygon id="Fill-18" points="1523.8 325.3 325.3 1523.8 367.7 1566.2 1566.2 367.7"/>
      <polygon id="Fill-19" points="1605.1 406.6 406.6 1605.1 449 1647.5 1647.5 449"/>
      <polygon id="Fill-20" points="1686.4 487.9 487.9 1686.4 530.3 1728.8 1728.8 530.3"/>
      <polygon id="Fill-21" points="1767.7 569.2 569.2 1767.7 611.6 1810.1 1810.1 611.7"/>
      <polygon id="Fill-22" points="1849 650.5 650.5 1849 693 1891.5 1891.5 693"/>
      <polygon id="Fill-23" points="1930.3 731.9 731.9 1930.3 774.3 1972.8 1972.8 774.3"/>
      <polygon id="Fill-24" points="2011.7 813.2 813.2 2011.7 855.6 2054.1 2054.1 855.6"/>
      <polygon id="Fill-25" points="2093 894.5 894.5 2093 936.9 2135.4 2135.4 936.9"/>
      <polygon id="Fill-26" points="2174.3 975.8 975.8 2174.3 1018.2 2216.7 2216.7 1018.2"/>
    </g>
  </g>
</svg>
