<svg xmlns="http://www.w3.org/2000/svg" xmlns:xlink="http://www.w3.org/1999/xlink" width="65" height="65" viewBox="0 0 65 65" version="1.1"><title>Page 1</title><desc>Created with Sketch.</desc><defs><polygon id="path-1" points="64.3 64.3 64.3 0 0 0 0 64.3"/></defs><g id="Page-1" stroke="none" stroke-width="1" fill="none" fill-rule="evenodd"><g id="Desktop-HD" transform="translate(-1090.000000, -231.000000)"><g id="Page-1" transform="translate(1090.000000, 231.000000)"><mask id="mask-2" fill="white"><use xlink:href="#path-1"/></mask><g id="Clip-2"/><path d="M58.9 58.5C58.8 58.4 58.7 58.2 58.5 57.9 58.7 58 58.9 58.1 58.9 58.2 59 58.3 59.1 58.5 59.2 58.7 59 58.7 58.9 58.6 58.9 58.5L58.9 58.5ZM57 56.1L57 56 57 56 57 56.1ZM55.9 54.8C55.9 54.8 55.9 54.8 55.8 54.8L55.7 54.7 55.7 54.7 55.8 54.6 56 54.8C55.9 54.8 55.9 54.8 55.9 54.8L55.9 54.8ZM57.2 58C57.6 58.4 57.8 58.8 57.9 59 57.9 59 57.8 59 57.6 58.9L57.4 58.6C57.2 58.6 57.1 58.5 57 58.2 56.9 58 56.8 57.9 56.6 57.9L56.4 57.7C56.4 57.4 56.2 57.1 56 56.9 55.8 56.7 55.7 56.5 55.5 56.3L55.1 55.8C56.1 56.8 56.8 57.5 57.2 58L57.2 58ZM54.7 54.6C54.7 54.5 54.6 54.4 54.5 54.3 53.8 53.6 53.2 52.9 52.5 52.2 51.8 51.5 51.2 50.9 50.6 50.1L46.7 46.3C46.1 45.7 45.6 45.2 45.1 44.6 44.6 44 44.1 43.5 43.5 43 42.9 42.4 42.4 41.8 41.8 41.2 41.3 40.6 40.7 40 40.2 39.5 40 39.2 39.8 39 39.4 38.8 39 38.5 38.6 38.1 38.3 37.6 38.2 37.3 38 37.1 37.8 36.9 37.5 36.7 37.4 36.5 37.2 36.3 37.1 36 37 35.8 36.8 35.7 36.6 35.5 36.4 35.3 36.2 35.1 35.9 34.8 35.6 34.5 35.3 34.1 35.4 34.1 35.5 34 35.5 33.9 35.7 34.1 35.8 34.2 36 34.4 36.2 34.6 36.4 34.8 36.6 35 37.1 35.6 37.6 36.1 38.1 36.7 38.6 37.3 39.2 37.8 39.7 38.4 40 38.8 40.3 39.1 40.6 39.4 40.9 39.7 41.2 40 41.5 40.4 42.1 41.1 42.7 41.8 43.4 42.4 44 43.1 44.7 43.7 45.2 44.4L47.5 46.7C47.7 46.9 48 47.2 48.2 47.4 48.4 47.6 48.6 47.9 48.8 48.1 49 48.3 49.1 48.5 49.2 48.6 49.4 48.7 49.5 48.8 49.7 49 50 49.3 50.3 49.6 50.6 50 50.9 50.3 51.2 50.6 51.6 51 52 51.4 52.4 51.9 52.8 52.4 53.3 52.8 53.7 53.3 54.2 53.8 54.3 53.9 54.3 53.9 54.4 54 54.5 54 54.6 54.1 54.6 54.1 54.7 54.2 54.8 54.3 54.9 54.4 55 54.5 55 54.6 54.9 54.8 54.8 54.7 54.8 54.6 54.7 54.6L54.7 54.6ZM33.7 35C33.7 34.9 33.6 34.9 33.6 34.8 33.6 34.8 33.6 34.8 33.6 34.8 33.7 34.7 33.7 34.7 33.8 34.6 33.9 34.7 33.9 34.7 34 34.8 33.9 34.8 33.8 34.9 33.7 35L33.7 35ZM33 35.5C33 35.5 33 35.4 32.9 35.4 33 35.3 33.1 35.2 33.2 35.1 33.3 35.2 33.3 35.2 33.3 35.3 33.2 35.4 33.1 35.4 33 35.5L33 35.5ZM31.7 36.5C31.7 36.5 31.8 36.4 31.8 36.4 31.8 36.4 31.8 36.4 31.8 36.4 31.8 36.4 31.7 36.5 31.7 36.5L31.7 36.5ZM28.6 39.4C27.6 40.2 26.8 41 25.9 41.8 25.9 41.7 25.9 41.6 25.9 41.5 26 41.3 26.2 41.2 26.4 41.1 26.7 40.9 27 40.7 27.3 40.4 27.5 40.2 27.8 39.9 28 39.6 28.1 39.4 28.2 39.3 28.4 39.2 28.7 39.1 28.9 38.9 29.1 38.7 29.3 38.5 29.5 38.4 29.6 38.2 29.7 38.1 29.7 38.1 29.7 38 29.8 37.9 29.8 37.9 29.8 37.8 29.7 37.7 29.7 37.6 29.5 37.4 29.8 37.2 30 36.9 30.2 36.7 30.4 36.5 30.6 36.3 31 36.2 30.9 36.4 30.9 36.5 30.8 36.6L30.6 36.8C30.5 36.9 30.5 37 30.6 37.2 30.7 37.1 30.8 37.1 30.9 37.1 31 37.1 31.1 37.1 31.2 37 30.4 37.9 29.5 38.7 28.6 39.4L28.6 39.4ZM27.6 38.1C27 38.6 26.4 39.2 25.9 39.7 25.5 40 25.1 40.3 24.8 40.6 24.5 40.9 24.2 41.2 23.9 41.5 23.2 42.1 22.5 42.7 21.9 43.4 21.2 44 20.5 44.7 19.8 45.2L17.6 47.5C17.3 47.7 17.1 48 16.8 48.2 16.6 48.4 16.4 48.6 16.1 48.8 15.9 49 15.8 49.1 15.7 49.2 15.6 49.4 15.4 49.5 15.3 49.7 14.9 50 14.6 50.3 14.3 50.6 14 50.9 13.7 51.2 13.3 51.6 12.8 52 12.3 52.4 11.9 52.8 11.4 53.3 11 53.7 10.5 54.2 10.4 54.3 10.4 54.3 10.3 54.4 10.3 54.5 10.2 54.6 10.1 54.6 10 54.7 10 54.8 9.9 54.9 9.8 55 9.7 55 9.5 54.9 9.5 54.8 9.6 54.8 9.7 54.7 9.8 54.7 9.9 54.6 10 54.5 10.7 53.8 11.4 53.2 12.1 52.5 12.7 51.8 13.4 51.2 14.1 50.6L18 46.7C18.5 46.1 19.1 45.6 19.6 45.1 20.2 44.6 20.7 44.1 21.3 43.5 21.8 42.9 22.4 42.4 23 41.8 23.6 41.3 24.2 40.7 24.8 40.2 25.1 40 25.3 39.8 25.4 39.4 25.7 39 26.1 38.6 26.7 38.3 26.9 38.2 27.1 38 27.3 37.8 27.5 37.5 27.8 37.4 28 37.2 28.2 37.1 28.4 37 28.6 36.8 28.8 36.6 28.9 36.4 29.1 36.2 29.5 35.9 29.9 35.6 30.3 35.2 30.4 35 30.5 35 30.6 34.8 30.7 34.9 30.8 35 30.8 35.1 30.7 35.2 30.6 35.3 30.5 35.4 30.3 35.6 30.1 35.8 29.9 36 29.6 36.2 29.4 36.4 29.3 36.6 28.7 37.1 28.1 37.6 27.6 38.1L27.6 38.1ZM22.4 43.7C22.3 43.8 22.1 43.9 21.9 44 22 43.8 22.1 43.7 22.2 43.6 22.4 43.5 22.5 43.4 22.7 43.3 22.6 43.5 22.5 43.6 22.4 43.7L22.4 43.7ZM19.9 46.1C19.8 46.2 19.5 46.4 19.3 46.5 19.5 46.3 19.7 46.1 19.8 46 20 45.8 20.1 45.6 20.3 45.4L20.4 45.5C20.3 45.7 20.1 45.9 19.9 46.1L19.9 46.1ZM14.9 50.7L14.8 50.7 15 50.5 15.1 50.6 14.9 50.7ZM14.4 51.3L14.3 51.5 14.2 51.4C14.2 51.4 14.2 51.3 14.3 51.2L14.4 51.2C14.4 51.3 14.4 51.3 14.4 51.3L14.4 51.3ZM12.4 53.1L12.3 53.1 12.8 52.7 12.8 52.7 12.4 53.1ZM9.5 56C9.4 55.9 9.4 55.9 9.4 55.9 9.5 55.9 9.4 55.9 9.4 55.8L9.5 55.7 9.6 55.7 9.6 55.8 9.5 56ZM27 28.3C27.2 28.4 27.3 28.5 27.3 28.6 28 29.4 28.6 30.1 29.2 30.8 29.2 30.8 29.1 30.8 29.1 30.9 28.8 30.5 28.6 30.2 28.3 29.9 28 29.5 27.7 29.2 27.4 28.8 27.2 28.6 27.1 28.4 27 28.3L27 28.3ZM27.4 24.4C28 25.2 28.7 25.9 29.4 26.7 30.1 27.4 30.7 28.2 31.3 29 31.2 29 31.1 29.1 31 29.1 30.8 28.9 30.6 28.6 30.3 28.3 29.9 27.9 29.6 27.5 29.3 27 29 26.7 28.6 26.3 28.3 25.9 28 25.5 27.7 25.1 27.4 24.7L27.1 24.4 27.4 24.4ZM27.9 23.6C28 23.6 28 23.6 28 23.6L27.9 23.7 27.9 23.6ZM29.4 25.3L29.6 25.4 29.5 25.5C29.5 25.4 29.4 25.4 29.4 25.4L29.4 25.3 29.4 25.3ZM31 27.2L31 27.3C31 27.2 30.9 27 30.8 27L31 27.2ZM32 28.3C31.9 28.3 31.9 28.4 31.9 28.4 31.8 28.3 31.7 28.2 31.6 28.1 31.6 28 31.6 27.9 31.5 27.8 31.8 27.9 31.9 28.1 32 28.3L32 28.3ZM35.5 27.4C35.7 27.2 35.8 27.1 35.9 27 35.9 27.2 35.8 27.3 35.6 27.3 35.1 27.8 34.5 28.3 34 28.8 33.9 28.8 33.9 28.7 33.9 28.7 34.1 28.6 34.2 28.5 34.4 28.3 34.7 28 35.1 27.7 35.5 27.4L35.5 27.4ZM37.2 29.3C37.6 29 38 28.6 38.4 28.3 38.8 28 39.2 27.6 39.6 27.4L39.8 27.1 39.9 27.4C39.1 28 38.3 28.7 37.6 29.4 37 29.9 36.3 30.5 35.7 31 35.6 30.9 35.5 30.8 35.5 30.7 35.6 30.6 35.8 30.4 35.9 30.3 36.3 29.9 36.8 29.6 37.2 29.3L37.2 29.3ZM38.8 29.6L38.8 29.5C38.9 29.5 38.9 29.4 38.8 29.4L38.9 29.4 39 29.4 38.8 29.6ZM37.1 31.1L37 31C37.1 31 37.2 30.9 37.3 30.8L37.1 31.1ZM34.4 33.1C34.5 33.1 34.6 33 34.7 32.9L34.8 33.1C34.8 33.1 34.8 33.1 34.8 33.1 34.7 33.2 34.6 33.2 34.5 33.3 34.5 33.2 34.4 33.2 34.4 33.1L34.4 33.1ZM32.9 34C32.9 33.9 33 33.9 33.1 33.8 33.1 33.9 33.1 33.9 33.2 33.9L33 34.1C32.9 34.1 32.9 34 32.9 34L32.9 34ZM32.5 34.9C32.4 34.7 32.5 34.6 32.6 34.6 32.6 34.6 32.7 34.6 32.7 34.6 32.7 34.6 32.8 34.6 32.8 34.7L32.5 34.9ZM31.6 33.9C31.7 33.9 31.8 33.8 31.9 33.7 32 33.8 32.1 33.9 32.1 34 32.1 34.1 32 34.1 31.9 34.2 31.8 34.1 31.7 34 31.6 33.9L31.6 33.9ZM30.8 32.5C30.8 32.5 30.9 32.6 30.9 32.6 30.9 32.6 30.9 32.6 30.9 32.6 30.8 32.7 30.8 32.8 30.7 32.8 30.6 32.8 30.6 32.7 30.5 32.7 30.6 32.6 30.7 32.5 30.8 32.5L30.8 32.5ZM30.1 31.8C30.1 31.8 30.1 31.8 30.1 31.8 30.2 31.9 30.3 32 30.4 32.1 30.3 32.1 30.3 32.2 30.2 32.2 30.1 32.1 30 32 29.9 31.9 30 31.9 30.1 31.8 30.1 31.8L30.1 31.8ZM33.1 29.5C33.1 29.5 33.1 29.5 33.1 29.5 33.1 29.6 33 29.6 33 29.7 32.9 29.6 32.9 29.6 32.8 29.5 32.9 29.5 32.9 29.4 33 29.4 33 29.4 33.1 29.5 33.1 29.5L33.1 29.5ZM33.5 29.2C33.5 29.2 33.4 29.1 33.4 29.1 33.5 29 33.5 29 33.6 28.9 33.6 29 33.7 29 33.7 29 33.6 29.1 33.6 29.2 33.5 29.2L33.5 29.2ZM35.3 31.3C35.3 31.2 35.2 31.1 35.1 31 35.2 31 35.2 30.9 35.3 30.9 35.3 31 35.4 31.1 35.5 31.2 35.4 31.2 35.4 31.2 35.3 31.3L35.3 31.3ZM35.1 32.5L35.2 32.6 35.1 32.6C35.1 32.6 35.1 32.5 35.1 32.5L35.1 32.5ZM34.1 32.9C34.2 32.8 34.3 32.7 34.4 32.7 34.5 32.7 34.5 32.7 34.5 32.7L34.2 33C34.2 32.9 34.2 32.9 34.1 32.9L34.1 32.9ZM33.7 32.3C33.8 32.2 33.8 32.1 33.9 32.1 34 32.1 34.1 32.2 34.1 32.3 34 32.4 33.9 32.4 33.8 32.5 33.8 32.4 33.7 32.4 33.7 32.3L33.7 32.3ZM34.6 31.9C34.6 31.9 34.6 31.9 34.6 31.9 34.5 31.8 34.5 31.8 34.4 31.7 34.4 31.7 34.4 31.7 34.4 31.7L34.6 31.9ZM34.7 31.8C34.7 31.8 34.6 31.7 34.6 31.7 34.6 31.6 34.6 31.6 34.6 31.5 34.6 31.5 34.6 31.5 34.6 31.5L34.9 31.7C34.8 31.7 34.8 31.7 34.7 31.8L34.7 31.8ZM32.6 29.7L32.8 29.8C32.8 29.9 32.7 29.9 32.7 29.9 32.7 29.8 32.6 29.8 32.6 29.7 32.6 29.7 32.6 29.7 32.6 29.7L32.6 29.7ZM32.6 33.6C32.5 33.5 32.4 33.4 32.3 33.4 32.4 33.3 32.4 33.3 32.5 33.3 32.5 33.3 32.6 33.3 32.6 33.4 32.7 33.4 32.7 33.4 32.7 33.5 32.7 33.5 32.6 33.6 32.6 33.6L32.6 33.6ZM32.5 34.4C32.5 34.4 32.6 34.4 32.6 34.4L32.3 34.6C32.4 34.5 32.5 34.5 32.5 34.4L32.5 34.4ZM36 31.9C36 31.9 36 31.9 36 32 35.9 31.9 35.9 31.9 35.9 31.9 35.9 31.9 35.9 31.9 35.9 31.8 36 31.9 36 31.9 36 31.9L36 31.9ZM36.5 32.6C36.5 32.5 36.4 32.5 36.4 32.4 36.4 32.4 36.4 32.4 36.4 32.4 36.4 32.5 36.5 32.5 36.5 32.6L36.5 32.6ZM36.3 31.7C36.3 31.7 36.3 31.6 36.2 31.6 36.3 31.6 36.4 31.6 36.5 31.5 36.4 31.6 36.4 31.7 36.3 31.7L36.3 31.7ZM32.2 30C32.3 30.1 32.3 30.2 32.4 30.2 32.3 30.3 32.2 30.4 32.2 30.4 32.1 30.4 32.1 30.3 32.1 30.3 32 30.3 32 30.2 32 30.2 32.1 30.2 32.1 30.1 32.2 30L32.2 30ZM35.1 33.9C35 33.8 34.9 33.7 34.9 33.7 35 33.6 35 33.5 35.1 33.4 35.2 33.5 35.2 33.6 35.3 33.6 35.2 33.7 35.1 33.8 35.1 33.9L35.1 33.9ZM39.4 35.7C40.2 36.6 41 37.5 41.8 38.3 41.7 38.4 41.6 38.4 41.5 38.4 41.3 38.3 41.2 38.1 41.1 37.9 40.9 37.6 40.7 37.3 40.4 37 40.2 36.7 39.9 36.5 39.6 36.3 39.4 36.2 39.3 36 39.2 35.8 39.1 35.6 38.9 35.3 38.7 35.1 38.5 35 38.4 34.8 38.2 34.6 38.1 34.6 38.1 34.5 38 34.5 37.9 34.5 37.9 34.4 37.8 34.5 37.7 34.5 37.6 34.6 37.4 34.7 37.2 34.5 36.9 34.2 36.7 34.1 36.5 33.9 36.4 33.7 36.2 33.3 36.2 33.3 36.2 33.3 36.2 33.3 36.4 33.4 36.5 33.4 36.6 33.5L36.8 33.7C36.9 33.8 37 33.8 37.2 33.6 37.1 33.5 37.1 33.4 37.1 33.4 37.1 33.3 37.1 33.2 37 33 37.9 33.9 38.7 34.8 39.4 35.7L39.4 35.7ZM43.7 41.9C43.8 42 43.9 42.2 44 42.4 43.8 42.3 43.7 42.2 43.6 42 43.5 41.9 43.4 41.7 43.3 41.6 43.5 41.7 43.6 41.8 43.7 41.9L43.7 41.9ZM45.5 43.9C45.7 44 45.9 44.1 46.1 44.3 46.2 44.5 46.4 44.7 46.5 45 46.3 44.8 46.1 44.6 46 44.4 45.8 44.3 45.6 44.1 45.4 44L45.5 43.9ZM50.6 49.2L50.7 49.4 50.7 49.4 50.5 49.2 50.6 49.2ZM51.2 49.9C51.3 49.8 51.3 49.8 51.3 49.9L51.5 50 51.4 50C51.4 50.1 51.3 50.1 51.2 50L51.2 49.9ZM52.7 51.4L53.1 51.9 53.1 51.9 52.7 51.5 52.7 51.4ZM19.8 47.5C19.5 47.9 19.2 48.2 18.8 48.4L18.7 48.3C19.1 48.1 19.4 47.8 19.7 47.4 20 47.1 20.4 46.8 20.7 46.4L20.9 46.6C20.5 46.9 20.1 47.2 19.8 47.5L19.8 47.5ZM18.2 48.9C18.2 49 18.2 49 18.1 48.9L18.2 48.9C18.2 48.8 18.2 48.8 18.3 48.9L18.2 48.9ZM8.2 57L8.2 57 8.3 57 8.2 57ZM6.1 58.9C6 59 5.8 59.1 5.5 59.2 5.6 59 5.7 58.9 5.8 58.9 5.8 58.8 6 58.7 6.3 58.5 6.3 58.7 6.2 58.9 6.1 58.9L6.1 58.9ZM6.3 57.2C5.9 57.6 5.5 57.8 5.3 57.9 5.2 57.9 5.3 57.8 5.4 57.6L5.6 57.4C5.6 57.2 5.8 57.1 6 57 6.2 56.9 6.4 56.8 6.4 56.6L6.6 56.4C6.9 56.4 7.2 56.2 7.3 56 7.5 55.8 7.7 55.7 8 55.5L8.5 55.1C7.5 56.1 6.7 56.8 6.3 57.2L6.3 57.2ZM25.6 20.7L25.5 20.6 25.4 20.4 25.4 20.4 25.6 20.6C25.6 20.6 25.6 20.6 25.6 20.7L25.6 20.7ZM23.4 17C23.3 16.8 23.2 16.6 23 16.5 22.9 16.3 22.7 16.2 22.6 16L22.6 16C22.6 16 22.7 16 22.8 16.1 22.8 16.1 22.9 16.1 22.9 16.2 23 16.2 23 16.3 23 16.4 23.1 16.4 23.1 16.5 23.2 16.6L23.5 16.9 23.4 17ZM22 15.4C22 15.4 21.9 15.4 21.9 15.4 21.8 15.2 21.6 15 21.4 14.7L21.5 14.6C21.6 14.8 21.7 14.9 21.8 15 21.9 15.1 21.9 15.2 22 15.3 22 15.3 22 15.4 22 15.4 22 15.4 22 15.4 22 15.4L22 15.4ZM18.4 13C18.6 13 18.7 13.1 18.7 13.1 18.7 13.1 18.8 13.3 18.8 13.4L18.4 13ZM40.7 27.9C40.7 28 40.6 28 40.6 28L40.6 27.9 40.7 27.9ZM43.7 25.5L43.8 25.4 43.9 25.4 43.7 25.6C43.6 25.6 43.6 25.6 43.6 25.6L43.7 25.5ZM47.8 23C47.9 22.9 48.1 22.7 48.2 22.6L48.3 22.6C48.2 22.6 48.2 22.7 48.2 22.8 48.2 22.8 48.1 22.9 48.1 22.9 48 23 48 23 47.9 23 47.8 23.1 47.8 23.1 47.7 23.2L47.4 23.5 47.3 23.4C47.5 23.3 47.6 23.2 47.8 23L47.8 23ZM48.9 22C48.9 22 48.9 21.9 48.9 21.9 49.1 21.8 49.3 21.6 49.5 21.4L49.6 21.5C49.5 21.6 49.4 21.7 49.3 21.8 49.1 21.9 49 21.9 49 22 48.9 22 48.9 22 48.9 22 48.9 22 48.9 22 48.9 22L48.9 22ZM51.3 18.4C51.2 18.6 51.2 18.7 51.2 18.7 51.1 18.7 51 18.8 50.8 18.8L51.3 18.4ZM46.6 43.4C46.9 43.8 47.2 44.1 47.5 44.4 47.9 44.8 48.2 45.1 48.4 45.4L48.3 45.5C48.1 45.2 47.8 44.9 47.4 44.5 47.1 44.2 46.8 43.9 46.4 43.5L46.6 43.4ZM48.9 46L48.9 46C49 46.1 49 46.1 48.9 46.1L48.9 46.1C48.8 46 48.8 46 48.9 46L48.9 46ZM63.1 62.6C62.8 62.2 62.4 61.7 62 61.3 61.6 60.9 61.3 60.5 60.9 60.1 60.3 59.4 59.7 58.7 59.2 58 58.6 57.3 58 56.6 57.4 55.9 57.2 55.7 56.9 55.4 56.7 55.2 56.4 54.9 56.1 54.6 55.9 54.4 55.7 54.2 55.5 54.1 55.3 54.2 55.1 54.3 54.9 54.2 54.8 53.9L54.3 53.4C54.2 53.2 54.1 53.1 53.9 52.9 53.8 52.8 53.6 52.6 53.5 52.4 53.6 52.4 53.7 52.4 53.8 52.5 53.8 52.6 53.9 52.5 54 52.4 54 52.2 53.8 52 53.5 51.8L52.7 51C52.3 50.5 51.9 50 51.5 49.6 51.1 49.2 50.7 48.8 50.3 48.3 50 48 49.7 47.8 49.5 47.7 49.5 48 49.6 48.2 49.8 48.3 49.9 48.3 50.1 48.5 50.1 48.7 50.1 48.7 50.1 48.7 50 48.7 49.7 48.4 49.4 48.2 49.2 47.9L48.3 47C48.3 47 48.3 46.9 48.3 46.9L48.3 46.8 48.3 46.7C48.3 46.7 48.4 46.7 48.5 46.8 48.5 46.8 48.5 46.8 48.6 46.9 48.6 46.9 48.7 46.9 48.8 46.8 48.6 46.6 48.3 46.4 48.2 46.2 48 45.9 47.8 45.7 47.5 45.5 47.3 45.2 47.1 45 46.9 44.8 46.6 44.6 46.4 44.4 46.2 44.2 45.9 43.9 45.6 43.6 45.4 43.3 45.1 43 44.8 42.7 44.6 42.3 44.1 41.7 43.5 41.1 42.9 40.7 42.5 40.2 42.1 39.8 41.7 39.3 41.3 38.9 40.9 38.5 40.4 38.1L40.3 37.9C40 37.6 39.8 37.4 39.5 37.1 39.2 36.8 39 36.5 38.8 36.2 38.7 36.2 38.6 36.1 38.6 35.9 38.7 35.9 38.8 36 39 36.2 39.2 36.3 39.3 36.4 39.4 36.5 39.8 37 40.2 37.5 40.7 38 41.1 38.4 41.6 38.9 42 39.4 42.1 39.5 42.2 39.5 42.3 39.6 42.3 39.6 42.4 39.7 42.5 39.7 42.5 39.6 42.6 39.5 42.6 39.5 42.6 39.5 42.5 39.4 42.6 39.4 42.6 39.3 42.6 39.3 42.6 39.3 42.5 39.2 42.6 39.2 42.6 39.2 43.1 39.7 43.6 40.2 44 40.7 44.5 41.2 45 41.7 45.4 42.3L45.3 42.3C45.1 42.2 45 42.2 44.9 42.1 44.8 42.1 44.8 42 44.8 42 44.6 41.6 44.4 41.3 44.2 41.2 44 41 43.7 40.9 43.4 40.7 43.7 41 44 41.4 44.3 41.8 44.7 42.2 45 42.5 45.3 42.9 45.5 42.9 45.6 42.8 45.8 42.8 45.9 42.7 46 42.8 46.1 43 46.1 43 45.9 43.1 45.7 43.2 45.7 43.4 45.8 43.5 46 43.6L46.6 44.3C47 44.6 47.3 45 47.6 45.3 47.9 45.6 48.2 45.9 48.5 46.3 48.7 46.4 48.8 46.5 48.9 46.6 49 46.7 49.1 46.8 49.3 46.9 49.5 46.8 49.7 46.8 49.7 46.8 49.8 46.8 49.8 46.8 49.9 46.9 50.3 47.3 50.7 47.7 51 48 51.4 48.4 51.7 48.8 52 49.2 51.9 49.4 51.7 49.4 51.7 49.3 51.6 49.2 51.5 49.1 51.4 48.9 51.4 48.8 51.3 48.8 51.3 48.7 51.3 48.7 51.3 48.6 51.2 48.6 50.9 48.4 50.7 48.2 50.5 47.9 50.3 47.6 50.1 47.3 49.9 46.9 49.9 47 49.9 47.1 49.8 47.1 49.8 47.2 49.7 47.3 49.7 47.4 49.8 47.4 49.8 47.5 49.8 47.5 49.8 47.6 49.9 47.6 49.9 47.7 50.2 48 50.4 48.3 50.6 48.5 50.9 48.8 51.1 49 51.4 49.3L52.2 50.1C52.3 50.2 52.5 50.4 52.7 50.5 52.8 50.5 52.8 50.5 52.9 50.4 52.8 50.3 52.8 50.3 52.8 50.2 52.8 50.2 52.8 50.1 52.8 50 52.6 50.1 52.5 50.1 52.4 50.1 52.3 50 52.3 49.9 52.3 49.9 52.4 49.5 52.3 49.2 51.9 48.9L51.6 48.5C51.1 47.9 50.6 47.3 50.1 46.8 49.6 46.3 49 45.8 48.5 45.2L45.8 42.2C45.6 42 45.4 41.8 45.2 41.7 45 41.5 44.8 41.3 44.7 41.1 44.2 40.6 43.8 40.2 43.4 39.7 43 39.3 42.6 38.9 42.3 38.4 41.8 37.8 41.2 37.3 40.7 36.8 40.2 36.3 39.7 35.7 39.2 35.1 39 34.9 38.7 34.6 38.5 34.3 38.3 34 38 33.8 37.7 33.5 37.5 33.1 37.4 32.9 37.2 32.8 37.2 32.7 37.1 32.6 37 32.6 37.1 32.4 37.2 32.3 37.2 32.2 37 32.2 36.9 32.2 36.9 32.3L36.9 32.3C36.8 32.3 36.8 32.2 36.7 32.1 37.4 31.5 38.2 30.9 38.9 30.3 39.7 29.6 40.5 29 41.3 28.3 41.8 27.9 42.3 27.5 42.8 27.1 43.3 26.7 43.8 26.3 44.3 26 44.6 25.8 44.9 25.6 45.1 25.3 45.3 25.1 45.6 24.8 45.8 24.6 45.9 24.5 45.9 24.5 46 24.5 46 24.5 46.1 24.5 46.1 24.4 46.1 24.6 46 24.7 45.9 24.8 45.5 25.1 45.1 25.5 44.7 25.8 44.3 26.2 43.9 26.5 43.5 26.9 43.2 27.1 43 27.3 42.8 27.5 42.6 27.7 42.4 27.9 42.1 28.1 41.6 28.5 41.1 28.9 40.6 29.3 40.2 29.7 39.7 30.1 39.2 30.5 38.9 30.7 38.7 30.9 38.5 31.1 38.3 31.3 38 31.5 37.8 31.7L37.7 32 37.8 31.9C38.1 31.8 38.3 31.6 38.5 31.5 38.7 31.3 38.9 31.2 39 31 39.6 30.5 40.2 30.1 40.8 29.6 41.4 29.1 42 28.7 42.6 28.2 43.4 27.5 44.1 26.9 44.9 26.3 45.6 25.7 46.3 25 47 24.4 47.4 24.2 47.6 23.9 47.9 23.6 48.2 23.3 48.5 23 48.8 22.8 49.2 22.4 49.7 22.1 50 21.7 50.4 21.3 50.8 20.9 51.2 20.6 52.2 19.5 53.2 18.5 54.1 17.4 55.1 16.4 56 15.4 57 14.3 57.8 13.4 58.6 12.3 59.4 11.1 59.7 10.7 60 10.2 60.4 9.8 60.7 9.3 61 8.9 61.4 8.5 61.8 8 62.2 7.5 62.6 7 62.7 6.7 62.8 6.4 62.8 6.1 62.8 6 62.9 5.9 62.9 5.8 63 5.8 63.1 5.6 63.2 5.5 63.3 5.4 63.4 5.3 63.5 5.2 63.6 5 63.7 4.9 63.8 4.8 63.9 4.7 63.9 4.6 64 4.5 64.1 4.4 64.1 4.3 64 4.1 64 4 63.9 3.9 63.8 3.9 63.7 3.9 63.6 3.8 63.6 3.8 63.6 3.5 63.5 3.4 63.5 3.4 63.5 3.3 63.3 3.3 63.1 3.2 63.1 3.1 63.2 3 63.3 2.9 63.4 2.8 63.4 2.7 63.5 2.5 63.6 2.3 63.6 2.1 63.6 2 63.5 1.7 63.5 1.5 63.5 1.2 63.5 0.8 63.3 0.6 63 0.5 62.8 0.4 62.6 0.3 62.4 0.2 62.2 0.2 62 0.1 61.8 0L61.6 0.2 59.3 2.5C59.2 2.6 59.1 2.7 59 2.7 59 2.8 58.9 2.8 58.8 2.9 58.5 3.2 58.1 3.5 57.8 3.8 57.5 4.1 57.2 4.4 56.9 4.7L56.8 4.8 56.1 5.5C56 5.7 55.9 5.8 55.8 5.9 55.7 6 55.6 6.1 55.5 6.2 55.2 6.5 55 6.7 54.7 7 54.5 7.3 54.3 7.5 54.1 7.8 53.9 8.1 53.6 8.3 53.4 8.6 53.2 8.8 53 9 52.8 9.2L51.3 10.6 50.9 11.1C50.8 11.2 50.7 11.3 50.5 11.5 50.4 11.6 50.2 11.7 50.1 11.8 49.5 12.2 49.1 12.7 48.7 13.2 48.2 13.8 47.8 14.2 47.2 14.7 47.1 14.8 47 14.9 47 15 46.8 15.2 46.5 15.5 46.3 15.8 46 16.1 45.7 16.3 45.4 16.5 45.2 16.5 45.1 16.7 45 16.8 44.9 16.9 44.8 17.1 44.6 17.3 44.6 17.3 44.5 17.4 44.5 17.4 44.5 17.5 44.4 17.5 44.3 17.5 44.1 17.8 43.8 18 43.5 18.2 43.3 18.4 43 18.6 42.8 18.9L42.7 19C42.5 19.1 42.3 19.3 42.1 19.6 42 19.8 41.8 20 41.5 20.2 41.4 20.3 41.2 20.4 41.1 20.4 40.9 20.5 40.8 20.6 40.7 20.7 40.4 21 40.1 21.2 39.9 21.4 39.7 21.7 39.4 21.8 39 21.9 38.9 21.9 38.8 22 38.7 22.1 38.5 22.3 38.4 22.5 38.2 22.6 38.1 22.8 37.9 23 37.8 23.2 37.7 23.6 37.4 23.8 37 23.8 36.8 23.8 36.6 23.9 36.4 24.2 36.5 24.3 36.6 24.3 36.6 24.2 36.7 24.1 36.8 24.1 37 24.2 36.7 24.4 36.4 24.6 36.2 24.8 36 25 35.7 25.2 35.5 25.4 35.3 25.5 35.1 25.7 34.8 26 34.4 26.3 34 26.7 33.6 27 33.4 27.2 33.1 27.4 32.9 27.6 32.8 27.5 32.8 27.4 32.7 27.3 32.5 27.1 32.4 27.1 32.2 27.1 32.2 27.2 32.2 27.3 32.3 27.4 32.4 27.4 32.5 27.5 32.5 27.6 32.6 27.7 32.6 27.7 32.6 27.8 32.6 27.8 32.5 27.9 32.5 27.9 32.4 27.8 32.3 27.8 32.2 27.7 31.6 26.9 30.9 26.1 30.3 25.3 29.6 24.5 29 23.7 28.3 22.9 27.9 22.4 27.5 21.9 27.1 21.4 26.7 21 26.3 20.5 26 19.9 25.8 19.7 25.6 19.4 25.3 19.2 25.1 18.9 24.8 18.7 24.6 18.4 24.5 18.4 24.5 18.3 24.5 18.3 24.5 18.2 24.5 18.2 24.4 18.1 24.5 18.2 24.7 18.2 24.8 18.4 25.1 18.8 25.5 19.2 25.8 19.6 26.2 20 26.5 20.4 26.9 20.7 27.1 21 27.3 21.3 27.5 21.5 27.7 21.7 27.9 21.9 28.1 22.2 28.5 22.7 28.9 23.2 29.3 23.6 29.7 24.1 30.1 24.6 30.5 25.1 30.7 25.3 30.9 25.6 31.1 25.8 31.3 26 31.5 26.2 31.7 26.5L32 26.6 31.9 26.4C31.8 26.2 31.6 26 31.5 25.8 31.3 25.6 31.2 25.4 31 25.2 30.5 24.6 30 24 29.6 23.4 29.1 22.8 28.7 22.2 28.2 21.6 27.5 20.9 26.9 20.1 26.3 19.4 25.7 18.7 25 18 24.4 17.2 24.2 16.9 23.9 16.6 23.6 16.3 23.3 16.1 23 15.8 22.8 15.5 22.4 15 22.1 14.6 21.7 14.2 21.3 13.8 20.9 13.4 20.6 13.1 19.5 12.1 18.5 11.1 17.4 10.1 16.4 9.2 15.4 8.2 14.3 7.3 13.4 6.4 12.3 5.6 11.1 4.9 10.7 4.5 10.2 4.2 9.8 3.9 9.3 3.6 8.9 3.2 8.5 2.9 8 2.5 7.5 2.1 7 1.7 6.7 1.5 6.4 1.4 6.1 1.4 6 1.4 5.9 1.4 5.8 1.3 5.8 1.2 5.6 1.1 5.5 1 5.4 0.9 5.3 0.8 5.2 0.7 5 0.7 4.9 0.6 4.8 0.5 4.7 0.4 4.6 0.3 4.5 0.3 4.4 0.2 4.3 0.2 4.1 0.3 4 0.3 3.9 0.4 3.9 0.5 3.9 0.6 3.8 0.6 3.8 0.7 3.5 0.7 3.4 0.7 3.4 0.7 3.3 0.8 3.3 0.9 3.2 1.2 3.1 1.1 3 1 2.9 1 2.8 0.9 2.7 0.8 2.5 0.8 2.3 0.7 2.1 0.6 2 0.7 1.7 0.8 1.5 0.8 1.2 0.7 0.8 0.8 0.6 0.9 0.5 1.2 0.4 1.4 0.3 1.7 0.2 1.8 0.2 2 0.1 2.2 0 2.5L0.2 2.7 2.5 5C2.6 5.1 2.7 5.1 2.7 5.2 2.8 5.3 2.8 5.4 2.9 5.4 3.2 5.8 3.5 6.1 3.8 6.4 4.1 6.7 4.4 7.1 4.7 7.4L4.8 7.5 5.5 8.2C5.7 8.3 5.8 8.4 5.9 8.5 6 8.6 6.1 8.7 6.2 8.8 6.5 9 6.7 9.3 7 9.5 7.3 9.7 7.5 10 7.8 10.2 8.1 10.4 8.3 10.6 8.6 10.8L9.2 11.4 10.6 12.9 11.1 13.3C11.2 13.5 11.3 13.6 11.5 13.7 11.6 13.9 11.7 14 11.8 14.2 12.2 14.7 12.7 15.2 13.2 15.6 13.8 16 14.2 16.5 14.7 17 14.8 17.2 14.9 17.2 15 17.2 15.2 17.5 15.5 17.7 15.8 18 16.1 18.2 16.3 18.5 16.5 18.9 16.5 19 16.7 19.2 16.8 19.3 16.9 19.3 17.1 19.5 17.3 19.6 17.3 19.7 17.4 19.7 17.4 19.8 17.5 19.8 17.5 19.8 17.5 19.9 17.8 20.2 18 20.5 18.2 20.7 18.3 21 18.6 21.2 18.9 21.4L19 21.5C19.1 21.8 19.3 22 19.6 22.2 19.8 22.2 20 22.4 20.2 22.7 20.3 22.9 20.4 23 20.4 23.2 20.5 23.3 20.6 23.5 20.7 23.6 21 23.9 21.2 24.1 21.4 24.3 21.7 24.6 21.8 24.8 21.9 25.2 21.9 25.3 22 25.4 22.1 25.6L22.6 26C22.8 26.2 23 26.3 23.2 26.5 23.6 26.6 23.8 26.9 23.8 27.2 23.8 27.5 23.9 27.7 24.2 27.8 24.3 27.8 24.3 27.7 24.2 27.6 24.1 27.6 24.1 27.4 24.2 27.3 24.4 27.6 24.6 27.8 24.8 28.1 25 28.3 25.2 28.5 25.4 28.8 25.5 28.9 25.7 29.2 26 29.4 26.3 29.8 26.7 30.2 27 30.7 27.3 31.1 27.6 31.4 27.9 31.8 27.7 32 27.5 32.2 27.2 32.4L27 32.7C26.8 33.2 26.7 33.5 26.6 33.6 26.5 33.8 26.2 34 25.9 34.2 25.7 34.3 25.6 34.4 25.5 34.5 25.5 34.6 25.4 34.7 25.3 34.8 25.2 34.9 25 34.9 24.9 35.1 24.8 35.2 24.7 35.3 24.6 35.4 24.4 35.5 24.2 35.5 24 35.6 23.9 35.7 23.7 35.8 23.7 36 23.6 36.1 23.5 36.2 23.3 36.3 23 36.3 22.8 36.4 22.8 36.8 22.8 37 22.7 37.2 22.6 37.2 22.3 37.3 22.1 37.5 21.9 37.7 21.7 37.9 21.5 38.2 21.3 38.4 21.1 38.5 21 38.7 20.9 38.8 20.8 38.9 20.7 39.1 20.5 39.2 20.5 39.4 20.4 39.5 20.3 39.6 20.2 39.7 20 39.8 19.9 39.8 19.6 39.9 19.5 40.1 19.3 40.3 19 40.8 18.7 41.2 18.2 41.5 18.1 41.5 18 41.6 17.9 41.7 17.9 41.9 17.8 42 17.5 42.2 17.4 42.2 17.2 42.3 17.1 42.4 17 42.6 16.9 42.7 16.7 42.8 16.4 42.9 16.3 43.2 16.3 43.8L16.4 43.7C16.4 44 16.3 44.1 16.2 44.2 16.1 44.4 15.9 44.5 15.7 44.7 15.5 44.8 15.4 45 15.2 45.1 15.1 45.2 15 45.3 14.9 45.4 14.8 45.5 14.7 45.6 14.6 45.7 14.3 46.1 13.9 46.5 13.5 46.9L12.5 47.9C12.4 48 12.3 48.2 12.3 48.4 12.4 48.3 12.5 48.2 12.6 48.2 12.7 48.1 12.8 48 12.9 47.9 13.4 47.5 13.8 47 14.2 46.5 14.6 46 15.1 45.6 15.6 45.2L15.7 45.1C16.1 44.7 16.6 44.3 17 43.8 17.5 43.4 17.9 43 18.4 42.6 18.7 42.3 19 42 19.4 41.7 19.7 41.4 20 41.1 20.3 40.8 20.8 40.4 21.3 39.9 21.8 39.5 22.2 39 22.7 38.5 23.1 38.1 23.6 37.6 24.1 37.2 24.6 36.8 25 36.3 25.5 35.9 26 35.6L26.4 35.2C26.7 34.7 27.1 34.3 27.6 34 28.1 33.7 28.5 33.3 29 32.8L29 32.8C29 33 29.1 33.1 29.1 33.2 28.8 33.5 28.4 33.9 28.1 34.2 27.6 34.5 27.2 34.9 26.8 35.3 26.5 35.6 26.3 35.8 26 36 25.8 36.3 25.6 36.5 25.4 36.8 25.4 36.9 25.2 37.1 25 37.2 24.6 37.3 24.4 37.7 24.3 38.1 24.7 37.9 25 37.7 25.2 37.4 25.4 37.1 25.7 36.8 26 36.7 26.3 36.4 26.6 36.2 26.9 35.9 27.1 35.6 27.4 35.3 27.7 35.1 28 34.9 28.2 34.6 28.5 34.3 28.8 34.1 29.1 33.8 29.4 33.6 29.4 33.6 29.5 33.7 29.5 33.7 29.5 33.7 29.6 33.8 29.6 33.8 28.8 34.5 28 35.2 27.2 36 26.2 37 25.1 38 24 39 22.8 40 21.6 41.1 20.5 42.2 19.3 43.3 18.2 44.4 17 45.5 16.9 45.6 16.8 45.6 16.7 45.7 16.3 45.8 16.1 46 15.9 46.1 15.8 46.2 15.6 46.5 15.4 46.8 15.7 46.6 15.9 46.5 16 46.3 15.5 46.8 15.1 47.2 14.7 47.7 14.2 48.2 13.8 48.7 13.4 49.2L13.4 49.3C13.1 49.5 12.9 49.7 12.7 50 12.5 50.2 12.2 50.4 12 50.6 11.3 51.2 10.7 51.9 10 52.6 9.3 53.2 8.7 53.9 8 54.5 7 55.4 6.1 56.2 5.2 57.1 4.3 57.9 3.3 58.8 2.4 59.7 2.3 59.7 2.3 59.8 2.3 59.8 2.3 59.8 2.3 59.9 2.3 59.9 2.4 59.9 2.5 59.9 2.6 59.8 2.6 59.7 2.7 59.7 2.8 59.6 2.9 59.5 3 59.4 3.2 59.2 3.4 59.1 3.5 59 3.7 58.9L4.1 58.5C4.2 58.4 4.3 58.4 4.3 58.3 4.4 58.2 4.5 58.2 4.6 58.2 4.6 58.4 4.6 58.6 4.6 58.8 4.5 58.9 4.4 59.1 4.2 59.2 3.9 59.4 3.6 59.7 3.4 59.9 3.1 60.2 2.8 60.4 2.6 60.7 2.3 60.9 2.1 61.1 1.9 61.3 1.7 61.5 1.5 61.8 1.4 62.1 2.6 61.1 3.9 60.1 5.1 59 6.3 57.9 7.5 56.9 8.7 55.9 7.8 56.7 7 57.4 6.1 58.2 5.3 58.9 4.5 59.7 3.6 60.6 3.9 60.4 4.1 60.3 4.1 60.2 4.3 60.2 4.4 60 4.6 59.8 4.7 59.8 4.8 59.7 4.8 59.7 4.9 59.7 5 59.6 5.3 59.6 4.9 59.9 4.6 60.2 4.3 60.5 4 60.8 3.7 61.1 3.4 61.3 3 61.7 2.7 62 2.4 62.2 2.1 62.5 1.7 62.8 1.4 63.1L0.8 63.7C0.7 63.8 0.6 63.9 0.5 63.9 0.3 64 0.3 64.1 0.2 64.3 0.7 64 1.2 63.6 1.7 63.1 2.1 62.8 2.5 62.4 2.9 62 3.3 61.6 3.7 61.3 4.1 60.9 4.8 60.3 5.5 59.7 6.2 59.2 6.9 58.6 7.6 58 8.3 57.4 8.6 57.2 8.9 56.9 9.1 56.7 9.3 56.4 9.6 56.1 9.9 55.9 10.1 55.7 10.2 55.5 10.1 55.3 10 55.1 10.1 54.9 10.3 54.8L10.9 54.3C11 54.2 11.2 54.1 11.3 53.9 11.5 53.8 11.6 53.6 11.8 53.5 11.9 53.6 11.9 53.7 11.8 53.8 11.7 53.8 11.7 53.9 11.9 54 12 54 12.2 53.8 12.5 53.5L13.3 52.7C13.8 52.3 14.2 51.9 14.6 51.5 15.1 51.1 15.5 50.7 15.9 50.3 16.2 50 16.4 49.7 16.5 49.5 16.3 49.5 16.1 49.6 16 49.8 15.9 49.9 15.8 50.1 15.6 50.1 15.6 50.1 15.6 50.1 15.6 50 15.8 49.7 16.1 49.4 16.4 49.2L17.2 48.3C17.3 48.3 17.3 48.3 17.4 48.3L17.5 48.3 17.6 48.3C17.6 48.3 17.5 48.4 17.4 48.5 17.5 48.5 17.4 48.5 17.4 48.6 17.3 48.6 17.4 48.7 17.4 48.8 17.6 48.6 17.9 48.3 18.1 48.2 18.3 48 18.5 47.8 18.8 47.5 19 47.3 19.2 47.1 19.5 46.9 19.7 46.6 19.9 46.4 20.1 46.2 20.4 45.9 20.7 45.6 21 45.4 21.3 45.1 21.6 44.8 21.9 44.6 22.6 44.1 23.1 43.5 23.6 42.9 24 42.5 24.5 42.1 24.9 41.7 25.4 41.3 25.8 40.9 26.2 40.4L26.3 40.3C26.6 40 26.9 39.8 27.2 39.5 27.4 39.2 27.7 39 28 38.8 28.1 38.7 28.2 38.6 28.4 38.6 28.4 38.7 28.3 38.8 28.1 39 27.9 39.2 27.8 39.3 27.7 39.4 27.2 39.8 26.7 40.2 26.3 40.7 25.8 41.1 25.4 41.6 24.9 42 24.8 42.1 24.7 42.2 24.7 42.3 24.6 42.3 24.6 42.4 24.6 42.5 24.7 42.5 24.7 42.6 24.8 42.6 24.8 42.6 24.8 42.5 24.9 42.6 24.9 42.6 25 42.6 25 42.6 25 42.5 25.1 42.6 25.1 42.6 24.6 43.1 24.1 43.6 23.6 44 23 44.5 22.5 45 22 45.4L21.9 45.3C22 45.1 22.1 45 22.1 44.9 22.1 44.8 22.2 44.8 22.3 44.8 22.7 44.6 22.9 44.4 23.1 44.2 23.2 44 23.4 43.7 23.6 43.4 23.2 43.7 22.8 44 22.5 44.3 22.1 44.7 21.7 45 21.4 45.3 21.4 45.5 21.4 45.6 21.5 45.8 21.5 45.9 21.4 46 21.3 46.1 21.2 46.1 21.1 45.9 21 45.7 20.9 45.7 20.8 45.8 20.6 46L20 46.6C19.6 47 19.3 47.3 19 47.6 18.7 47.9 18.3 48.2 17.9 48.5 17.8 48.7 17.7 48.8 17.6 48.9 17.5 49 17.4 49.1 17.4 49.3 17.5 49.5 17.5 49.7 17.5 49.7 17.5 49.8 17.4 49.8 17.3 49.9 17 50.3 16.6 50.7 16.2 51 15.8 51.4 15.5 51.7 15.1 52 14.9 51.9 14.8 51.7 14.9 51.7 15 51.6 15.2 51.5 15.4 51.4 15.4 51.4 15.5 51.3 15.5 51.3 15.6 51.3 15.6 51.3 15.6 51.2 15.8 50.9 16.1 50.7 16.4 50.5 16.7 50.3 17 50.1 17.3 49.9 17.2 49.9 17.2 49.9 17.1 49.8 17.1 49.8 17 49.7 16.9 49.7 16.8 49.8 16.8 49.8 16.7 49.8 16.7 49.8 16.6 49.9 16.6 49.9 16.3 50.2 16 50.4 15.7 50.6 15.5 50.9 15.2 51.1 14.9 51.4L14.1 52.2C14 52.3 13.9 52.5 13.8 52.7 13.8 52.8 13.8 52.8 13.8 52.9 13.9 52.8 14 52.8 14 52.8 14.1 52.8 14.1 52.8 14.2 52.8 14.1 52.6 14.1 52.4 14.2 52.4 14.3 52.3 14.3 52.3 14.4 52.3 14.7 52.4 15.1 52.3 15.4 51.9L15.7 51.6C16.4 51.1 16.9 50.6 17.4 50.1L19 48.5 22.1 45.8C22.3 45.6 22.4 45.4 22.6 45.2 22.8 45 22.9 44.8 23.2 44.7 23.6 44.2 24.1 43.8 24.5 43.4 25 43 25.4 42.6 25.9 42.3 26.4 41.8 27 41.2 27.5 40.7 28 40.2 28.5 39.7 29.1 39.2 29.4 39 29.7 38.7 29.9 38.5 30.2 38.3 30.5 38 30.8 37.7 31.1 37.5 31.3 37.4 31.5 37.2 31.7 37.1 31.9 36.9 32.1 36.7 32.2 36.8 32.3 36.9 32.4 37L32.7 37.3C33.2 37.5 33.5 37.6 33.6 37.7 33.8 37.8 34 38 34.2 38.4 34.3 38.5 34.4 38.6 34.5 38.7 34.6 38.8 34.7 38.9 34.8 39 34.9 39.1 34.9 39.2 35.1 39.3 35.2 39.4 35.3 39.6 35.4 39.6 35.5 39.9 35.5 40.1 35.6 40.2 35.7 40.4 35.8 40.5 36 40.6 36.1 40.6 36.2 40.8 36.3 40.9 36.3 41.3 36.4 41.4 36.8 41.4 37 41.5 37.2 41.6 37.2 41.7 37.3 42 37.5 42.2 37.7 42.4 37.9 42.5 38.2 42.7 38.4 43 38.5 43.1 38.7 43.3 38.8 43.4 38.9 43.5 39.1 43.6 39.2 43.7 39.4 43.8 39.5 43.9 39.6 44 39.7 44.1 39.8 44.2 39.8 44.4 39.9 44.6 40.1 44.8 40.3 44.9 40.8 45.2 41.2 45.6 41.5 46.1 41.5 46.2 41.6 46.3 41.7 46.3 41.9 46.3 42 46.5 42.2 46.7 42.2 46.9 42.3 47 42.4 47.1 42.6 47.3 42.7 47.4 42.8 47.6 42.9 47.9 43.2 48 43.8 47.9L43.7 47.9C44 47.9 44.1 47.9 44.2 48 44.4 48.2 44.5 48.4 44.7 48.5 44.8 48.7 45 48.9 45.1 49 45.2 49.1 45.3 49.2 45.4 49.4 45.5 49.5 45.6 49.6 45.7 49.6 46.1 50 46.5 50.4 46.9 50.8L47.9 51.8C48 51.9 48.2 52 48.4 52 48.3 51.8 48.2 51.7 48.2 51.6 48.1 51.5 48 51.4 47.9 51.3 47.5 50.9 47 50.5 46.5 50 46 49.6 45.6 49.2 45.2 48.6L45.1 48.6C44.7 48.1 44.3 47.7 43.8 47.2 43.4 46.8 43 46.3 42.6 45.9 42.3 45.6 42 45.2 41.7 44.9 41.4 44.6 41.1 44.2 40.8 43.9 40.4 43.4 39.9 43 39.5 42.5 39 42 38.5 41.6 38.1 41.1 37.6 40.6 37.2 40.1 36.8 39.7 36.3 39.3 35.9 38.8 35.6 38.2L35.2 37.9C34.7 37.5 34.3 37.1 34 36.7 33.8 36.3 33.5 36 33.2 35.7 33.3 35.6 33.4 35.6 33.5 35.5 33.7 35.7 34 36 34.2 36.2 34.5 36.6 34.9 37 35.3 37.5 35.6 37.8 35.8 38 36 38.2 36.3 38.4 36.5 38.6 36.8 38.8 36.9 38.9 37.1 39 37.2 39.3 37.3 39.6 37.7 39.8 38.1 39.9 37.9 39.6 37.7 39.3 37.4 39.1 37.1 38.9 36.8 38.6 36.7 38.3 36.4 38 36.2 37.7 35.9 37.4 35.6 37.1 35.3 36.8 35.1 36.6 34.9 36.3 34.6 36 34.3 35.7 34.2 35.6 34.1 35.4 33.9 35.2 33.9 35.2 34 35.2 34 35.1 34.1 35.1 34.1 35.1 34.2 35 34.8 35.7 35.4 36.4 36 37 37 38.1 38 39.2 39 40.3 40 41.5 41.1 42.6 42.2 43.8 43.3 44.9 44.4 46.1 45.5 47.3 45.6 47.4 45.6 47.5 45.7 47.6 45.8 47.9 46 48.2 46.1 48.3 46.2 48.5 46.5 48.7 46.8 48.9 46.6 48.6 46.5 48.4 46.3 48.2 46.8 48.7 47.2 49.2 47.7 49.6 48.2 50 48.7 50.4 49.2 50.8L49.3 50.9C49.5 51.1 49.7 51.4 50 51.6 50.2 51.8 50.4 52 50.6 52.3 51.2 52.9 51.9 53.6 52.6 54.3 53.2 54.9 53.9 55.6 54.5 56.3 55.4 57.2 56.2 58.2 57.1 59.1 57.9 60 58.8 60.9 59.7 61.9 59.7 61.9 59.8 61.9 59.8 61.9 59.8 61.9 59.9 61.9 59.9 62 59.9 61.9 59.9 61.8 59.8 61.7 59.7 61.6 59.7 61.5 59.6 61.5 59.5 61.4 59.4 61.2 59.2 61 59.1 60.9 59 60.7 58.9 60.6L58.5 60.2C58.4 60.1 58.4 60 58.3 59.9 58.2 59.9 58.2 59.8 58.2 59.7 58.4 59.6 58.6 59.6 58.8 59.7 58.9 59.8 59.1 59.9 59.2 60.1 59.4 60.4 59.7 60.6 59.9 60.9 60.2 61.2 60.4 61.4 60.7 61.7 60.9 61.9 61.1 62.2 61.3 62.4 61.5 62.6 61.8 62.7 62.1 62.9 61.1 61.6 60.1 60.4 59 59.2 57.9 58 56.9 56.8 55.9 55.6 56.7 56.4 57.4 57.3 58.2 58.1 58.9 59 59.7 59.8 60.6 60.6 60.4 60.4 60.3 60.2 60.2 60.1 60.2 60 60 59.8 59.8 59.6 59.8 59.5 59.7 59.5 59.7 59.4 59.7 59.4 59.6 59.2 59.6 59 59.9 59.3 60.2 59.6 60.5 59.9 60.8 60.2 61.1 60.5 61.3 60.8 61.7 61.2 62 61.6 62.2 61.9 62.5 62.2 62.8 62.5 63.1 62.9L63.7 63.5C63.8 63.6 63.9 63.7 63.9 63.8 64 63.9 64.1 64 64.3 64 64 63.6 63.6 63.1 63.1 62.6L63.1 62.6Z" id="Fill-1" fill="#20ED28" mask="url(#mask-2)"/></g></g></g></svg>