<svg xmlns="http://www.w3.org/2000/svg" xmlns:xlink="http://www.w3.org/1999/xlink" width="941" height="548" viewBox="0 0 941 548" version="1.1"><title>event-map-02</title><desc>Created with Sketch.</desc><g id="Page-1" stroke="none" stroke-width="1" fill="none" fill-rule="evenodd"><g id="Desktop-HD-Copy" transform="translate(-250.000000, -24.000000)" fill-rule="nonzero"><g id="event-map-02" transform="translate(250.000000, 24.000000)"><path d="M40.03 85.71C18.34 85.71 0.63 68 0.63 46.31 0.63 24.62 18.34 6.92 40.03 6.92 61.72 6.92 79.43 24.62 79.43 46.31 79.43 68 61.83 85.71 40.03 85.71ZM40.03 18.34C24.63 18.34 12.05 30.91 12.05 46.31 12.05 61.72 24.63 74.29 40.03 74.29 55.43 74.29 68.01 61.72 68.01 46.31 68.11 30.91 55.54 18.34 40.03 18.34Z" id="Shape" fill="#FDCFF3"/><path d="M79.53 85.71C57.84 85.71 40.13 68 40.13 46.31 40.13 24.62 57.84 6.92 79.53 6.92 101.23 6.92 118.93 24.62 118.93 46.31 118.93 68 101.23 85.71 79.53 85.71ZM79.53 18.34C64.13 18.34 51.56 30.91 51.56 46.31 51.56 61.72 64.13 74.29 79.53 74.29 94.94 74.29 107.51 61.72 107.51 46.31 107.51 30.91 94.94 18.34 79.53 18.34Z" id="Shape" fill="#FDCFF3"/><path d="M202.24 321.67C200.57 321.67 198.99 320.84 198.15 319.37L122.6 188.6C121.34 186.3 122.08 183.47 124.28 182.21 126.58 180.96 129.41 181.69 130.67 183.89L206.33 314.65C207.59 316.96 206.85 319.79 204.65 321.05 203.92 321.47 203.08 321.67 202.24 321.67Z" id="Shape" fill="#F625C9"/><g id="Group" transform="translate(60.777283, 77.537285)" fill="#FDCFF3"><rect id="Rectangle-path" transform="translate(7.111477, 7.235989) rotate(-30.046921) translate(-7.111477, -7.235989) " x="2.4" y="2" width="9.43" height="10.48"/><path d="M53.65 96.92L42.96 78.59 51.14 73.87 61.83 92.21 53.65 96.92ZM37.62 69.36L26.93 50.92 35.1 46.21 45.79 64.65 37.62 69.36ZM21.69 41.7L11 23.26 19.18 18.55 29.86 36.99 21.69 41.7Z" id="Shape"/><rect id="Rectangle-path" transform="translate(65.706949, 108.336509) rotate(-30.046921) translate(-65.706949, -108.336509) " x="60.99" y="103.1" width="9.43" height="10.48"/></g><path d="M663.94 432.64C662.37 432.64 660.9 431.9 659.96 430.44L512.73 200.86C511.37 198.66 512 195.73 514.2 194.37 516.4 193 519.33 193.63 520.69 195.83L667.92 425.41C669.28 427.61 668.65 430.54 666.45 431.9 665.62 432.32 664.78 432.64 663.94 432.64Z" id="Shape" fill="#F625C9"/><path d="M281.67 334.67C280.41 334.67 279.05 334.14 278.11 333.1 276.43 331.11 276.54 328.17 278.53 326.39L437.39 186.3C439.38 184.62 442.31 184.73 444.09 186.72 445.87 188.71 445.67 191.64 443.67 193.42L284.81 333.52C283.98 334.25 282.82 334.67 281.67 334.67Z" id="Shape" fill="#F625C9"/><g id="Group" transform="translate(134.129176, 30.386233)" fill="#FDCFF3"><path d="M25.15 16.45C25.15 26.82 20.85 32.48 12.99 32.48 5.13 32.48 0.73 26.82 0.73 16.45 0.73 6.18 5.03 0.42 12.99 0.42 20.85 0.42 25.15 6.08 25.15 16.45ZM7.65 16.45C7.65 23.99 9.33 27.24 12.99 27.24 16.56 27.24 18.23 23.99 18.23 16.45 18.23 8.91 16.56 5.66 12.99 5.66 9.33 5.66 7.65 8.91 7.65 16.45Z" id="Shape"/><path d="M35.63 29.02C35.63 31.12 34.16 32.59 32.17 32.59 30.18 32.59 28.71 31.01 28.71 29.02 28.71 26.93 30.18 25.46 32.17 25.46 34.16 25.46 35.63 26.93 35.63 29.02Z" id="Shape"/></g><g id="Group" transform="translate(185.475501, 30.386233)" fill="#EACDF4"><polygon id="Shape" points="7.65 0.63 7.65 13.83 22.01 13.83 22.01 0.63 29.13 0.63 29.13 32.27 22.01 32.27 22.01 19.8 7.65 19.8 7.65 32.27 0.52 32.27 0.52 0.63"/><path d="M49.98 32.27L49.98 29.44C48.31 31.43 45.69 32.59 42.33 32.59 37.1 32.59 33.95 29.44 33.95 25.04 33.95 20.43 37.2 17.81 43.17 17.71L49.88 17.71 49.88 17.29C49.88 14.67 48.2 13.2 44.85 13.2 42.65 13.2 40.13 13.94 37.62 15.3L35.42 10.48C38.98 8.7 42.12 7.65 46.42 7.65 52.92 7.65 56.69 10.9 56.69 16.35L56.69 32.17 49.98 32.17 49.98 32.27ZM49.98 23.99L49.98 21.79 44.54 21.79C41.92 21.79 40.55 22.63 40.55 24.52 40.55 26.4 42.02 27.56 44.33 27.56 47.26 27.56 49.56 25.99 49.98 23.99Z" id="Shape"/><path d="M77.86 30.91C76.08 31.96 73.77 32.59 71.57 32.59 67.27 32.59 63.92 30.07 63.92 25.04L63.92 13.83 60.57 13.83 60.57 9.01 63.92 9.01 63.92 2.31 70.84 2.31 70.84 9.01 77.44 9.01 77.44 13.83 70.84 13.83 70.84 23.89C70.84 25.88 71.68 26.72 73.14 26.72 74.09 26.72 75.13 26.4 76.39 25.78L77.86 30.91Z" id="Shape"/><path d="M97.14 30.91C95.36 31.96 93.05 32.59 90.85 32.59 86.56 32.59 83.2 30.07 83.2 25.04L83.2 13.83 79.85 13.83 79.85 9.01 83.2 9.01 83.2 2.31 90.12 2.31 90.12 9.01 96.72 9.01 96.72 13.83 90.12 13.83 90.12 23.89C90.12 25.88 90.96 26.72 92.42 26.72 93.37 26.72 94.41 26.4 95.67 25.78L97.14 30.91Z" id="Shape"/><path d="M115.48 32.27L115.48 29.44C113.8 31.43 111.18 32.59 107.83 32.59 102.59 32.59 99.44 29.44 99.44 25.04 99.44 20.43 102.69 17.81 108.67 17.71L115.37 17.71 115.37 17.29C115.37 14.67 113.7 13.2 110.34 13.2 108.14 13.2 105.63 13.94 103.11 15.3L100.91 10.48C104.47 8.7 107.62 7.65 111.91 7.65 118.41 7.65 122.18 10.9 122.18 16.35L122.18 32.17 115.48 32.17 115.48 32.27ZM115.37 23.99L115.37 21.79 109.92 21.79C107.3 21.79 105.94 22.63 105.94 24.52 105.94 26.4 107.41 27.56 109.71 27.56 112.65 27.56 114.95 25.99 115.37 23.99Z" id="Shape"/></g><g id="Group" transform="translate(663.310690, 323.770554)" fill="#F625C9"><path d="M24.83 22.53C24.83 28.5 19.91 32.69 12.16 32.69 7.65 32.69 3.04 31.22 0 29.02L2.93 23.37C5.45 25.78 8.49 27.14 11.63 27.14 15.61 27.14 17.81 25.46 17.81 22.63 17.81 19.7 15.51 18.34 11.53 18.34L6.5 18.34 6.5 14.35 14.57 6.6 1.68 6.6 1.68 0.84 23.26 0.84 23.26 5.13 14.04 13.73 15.72 13.94C21.17 14.56 24.83 17.6 24.83 22.53Z" id="Shape"/><path d="M36.05 29.23C36.05 31.33 34.58 32.8 32.59 32.8 30.6 32.8 29.13 31.22 29.13 29.23 29.13 27.14 30.6 25.67 32.59 25.67 34.58 25.67 36.05 27.14 36.05 29.23Z" id="Shape"/></g><g id="Group" transform="translate(712.561247, 323.770554)" fill="#A11CCC"><path d="M8.17 29.23C8.17 30.28 7.86 31.22 7.23 32.06L4.19 36.67 0.84 36.67 2.72 32.06C1.78 31.43 1.36 30.39 1.36 29.23 1.36 27.14 2.83 25.67 4.82 25.67 6.6 25.67 8.17 26.93 8.17 29.23ZM16.03 29.23C16.03 30.28 15.72 31.22 15.09 32.06L12.05 36.67 8.7 36.67 10.58 32.06C9.64 31.43 9.22 30.39 9.22 29.23 9.22 27.14 10.69 25.67 12.68 25.67 14.46 25.67 16.03 26.93 16.03 29.23Z" id="Shape"/><polygon id="Shape" points="45.37 0.84 45.37 6.71 28.4 6.71 28.4 13.62 43.7 13.62 43.7 19.49 28.4 19.49 28.4 26.51 45.79 26.51 45.79 32.38 21.17 32.38 21.17 0.73 45.37 0.73"/><path d="M74.09 8.17L74.09 30.18C74.09 37.09 68.85 41.49 61.09 41.49 57 41.49 53.34 40.24 50.51 38.24L53.13 33.32C55.33 34.89 57.95 35.73 60.67 35.73 64.65 35.73 67.17 33.63 67.17 30.28L67.17 27.56C65.49 29.86 63.08 31.12 59.83 31.12 53.55 31.12 49.25 26.4 49.25 19.38 49.25 12.47 53.55 7.86 59.73 7.86 62.98 7.86 65.6 9.12 67.27 11.42L67.27 8.17 74.09 8.17 74.09 8.17ZM67.17 19.59C67.17 15.82 64.86 13.31 61.51 13.31 58.16 13.31 55.85 15.93 55.75 19.59 55.75 23.26 58.05 25.88 61.51 25.88 64.86 25.88 67.17 23.37 67.17 19.59Z" id="Shape"/><path d="M102.8 22.42L85.4 22.42C86.24 25.46 88.55 27.35 91.69 27.35 94 27.35 96.2 26.4 97.87 24.73L101.54 28.4C99.13 31.12 95.57 32.69 91.17 32.69 83.41 32.69 78.49 27.77 78.49 20.33 78.49 12.78 83.62 7.86 90.96 7.86 99.44 7.96 103.43 13.52 102.8 22.42ZM96.3 18.34C96.2 15.09 94.1 13.1 90.96 13.1 87.92 13.1 85.82 15.19 85.3 18.34L96.3 18.34Z" id="Shape"/><path d="M122.39 7.86L122.39 14.35C117.47 13.94 114.32 16.56 114.32 20.64L114.32 32.48 107.41 32.48 107.41 8.17 114.32 8.17 114.32 12.57C116.11 9.53 118.83 7.96 122.39 7.86Z" id="Shape"/><path d="M131.61 4.3C131.61 5.34 131.3 6.29 130.67 7.13L127.63 11.74 124.28 11.74 126.17 7.13C125.22 6.5 124.8 5.45 124.8 4.3 124.8 2.2 126.27 0.73 128.26 0.73 130.04 0.73 131.61 1.99 131.61 4.3ZM139.37 4.3C139.37 5.34 139.05 6.29 138.43 7.13L135.39 11.74 132.03 11.74 133.92 7.13C132.98 6.5 132.56 5.45 132.56 4.3 132.56 2.2 134.02 0.73 136.02 0.73 137.8 0.73 139.37 1.99 139.37 4.3Z" id="Shape"/></g><path d="M484.23 211.87C446.61 211.87 416.01 181.27 416.01 143.65 416.01 106.04 446.61 75.44 484.23 75.44 521.85 75.44 552.44 106.04 552.44 143.65 552.44 181.27 521.85 211.87 484.23 211.87ZM484.23 84.98C451.85 84.98 425.44 111.38 425.44 143.76 425.44 176.14 451.85 202.54 484.23 202.54 516.61 202.54 543.01 176.14 543.01 143.76 543.01 111.38 516.61 84.98 484.23 84.98Z" id="Shape" fill="#F625C9"/><path d="M234.1 440.18C196.48 440.18 165.88 409.59 165.88 371.97 165.88 334.35 196.48 303.76 234.1 303.76 271.72 303.76 302.31 334.35 302.31 371.97 302.31 409.59 271.72 440.18 234.1 440.18ZM234.1 313.19C201.72 313.19 175.31 339.59 175.31 371.97 175.31 404.35 201.72 430.75 234.1 430.75 266.48 430.75 292.88 404.35 292.88 371.97 292.88 339.59 266.48 313.19 234.1 313.19Z" id="Shape" fill="#F625C9"/><path d="M700.62 547.9C663 547.9 632.4 517.3 632.4 479.68 632.4 442.07 663 411.47 700.62 411.47 738.23 411.47 768.83 442.07 768.83 479.68 768.83 517.3 738.23 547.9 700.62 547.9ZM700.62 420.9C668.24 420.9 641.83 447.31 641.83 479.68 641.83 512.06 668.24 538.47 700.62 538.47 732.99 538.47 759.4 512.06 759.4 479.68 759.4 447.31 732.99 420.9 700.62 420.9Z" id="Shape" fill="#F625C9"/><g id="Group" transform="translate(564.809577, 120.497132)" fill="#F625C9"><path d="M16.56 10.27C16.56 8.28 14.98 7.02 12.26 7.02 9.54 7.02 6.29 8.59 3.46 11L0.63 5.66C4.51 2.72 8.8 0.94 13.31 0.94 19.6 0.94 24.1 4.19 24.1 9.12 24.1 12.47 21.48 16.03 18.02 19.59L10.69 26.82 25.25 26.82 25.25 32.8 1.47 32.8 1.47 27.87 13.2 15.82C15.19 14.04 16.56 11.84 16.56 10.27Z" id="Shape"/><path d="M35.94 29.86C35.94 31.96 34.48 33.42 32.48 33.42 30.49 33.42 29.03 31.85 29.03 29.86 29.03 27.77 30.49 26.3 32.48 26.3 34.48 26.2 35.94 27.66 35.94 29.86Z" id="Shape"/></g><g id="Group" transform="translate(616.155902, 119.449331)" fill="#A11CCC"><path d="M26.62 10.37C26.62 13.83 24.52 16.45 21.17 17.29 25.25 18.02 27.77 21.17 27.77 25.25 27.77 30.7 23.16 34.05 15.82 34.05L0.73 34.05 0.73 2.41 15.3 2.41C22.32 2.41 26.62 5.45 26.62 10.37ZM19.28 11.63C19.28 9.43 17.6 8.28 14.98 8.28L7.96 8.28 7.96 15.19 14.98 15.19C17.6 15.19 19.28 13.83 19.28 11.63ZM20.43 24.41C20.43 22.11 18.44 20.75 14.98 20.75L7.96 20.75 7.96 28.29 14.98 28.29C18.34 28.29 20.43 26.82 20.43 24.41Z" id="Shape"/><path d="M55.85 9.74L55.85 34.05 48.94 34.05 48.94 29.76C47.26 32.8 44.43 34.37 40.76 34.37 35.42 34.37 31.96 30.81 31.96 25.04L31.96 9.74 38.88 9.74 38.88 23.05C38.88 26.09 40.66 27.98 43.49 27.98 46.84 27.98 48.83 25.36 48.83 21.79L48.83 9.74 55.85 9.74 55.85 9.74Z" id="Shape"/><path d="M86.66 0.52L86.66 34.05 79.74 34.05 79.74 30.49C78.07 33.01 75.45 34.37 72.09 34.37 65.18 34.37 60.67 29.34 60.67 21.9 60.67 14.46 65.18 9.53 71.99 9.53 75.45 9.53 78.07 10.9 79.85 13.41L79.85 0.63 86.66 0.63 86.66 0.52ZM79.74 22C79.74 18.02 77.23 15.3 73.67 15.3 70.1 15.3 67.59 18.13 67.48 22 67.48 25.99 70 28.71 73.67 28.71 77.23 28.71 79.74 25.99 79.74 22Z" id="Shape"/><path d="M107.72 34.05L107.72 31.22C106.05 33.22 103.43 34.37 100.07 34.37 94.83 34.37 91.69 31.22 91.69 26.82 91.69 22.21 94.94 19.59 100.91 19.49L107.62 19.49 107.62 19.07C107.62 16.45 105.94 14.98 102.59 14.98 100.39 14.98 97.87 15.72 95.36 17.08L93.16 12.26C96.72 10.48 99.86 9.43 104.16 9.43 110.66 9.43 114.43 12.68 114.43 18.13L114.43 33.95 107.72 33.95 107.72 34.05ZM107.62 25.78L107.62 23.58 102.17 23.58C99.55 23.58 98.19 24.41 98.19 26.3 98.19 28.19 99.65 29.34 101.96 29.34 104.89 29.44 107.2 27.87 107.62 25.78Z" id="Shape"/><path d="M146.81 22C146.81 29.34 142.3 34.26 135.49 34.26 132.14 34.26 129.41 32.9 127.63 30.49L127.63 42.75 120.72 42.75 120.72 9.64 127.63 9.64 127.63 13.2C129.31 10.79 132.03 9.43 135.28 9.43 142.2 9.53 146.81 14.56 146.81 22ZM139.79 21.79C139.79 17.92 137.38 15.09 133.81 15.09 130.25 15.09 127.74 17.81 127.74 21.79 127.74 25.78 130.25 28.5 133.81 28.5 137.38 28.5 139.79 25.78 139.79 21.79Z" id="Shape"/><path d="M173.74 23.99L156.34 23.99C157.18 27.03 159.49 28.92 162.63 28.92 164.94 28.92 167.14 27.98 168.81 26.3L172.48 29.97C170.07 32.69 166.51 34.26 162.11 34.26 154.35 34.26 149.43 29.34 149.43 21.9 149.43 14.35 154.56 9.43 161.9 9.43 170.39 9.53 174.37 15.19 173.74 23.99ZM167.24 19.91C167.14 16.66 165.04 14.67 161.9 14.67 158.86 14.67 156.76 16.76 156.24 19.91L167.24 19.91Z" id="Shape"/><path d="M186.31 14.56C184.64 14.56 183.48 15.09 183.48 16.35 183.48 20.01 196.27 18.13 196.27 26.72 196.27 31.64 191.87 34.26 186.42 34.26 182.44 34.26 178.66 33.11 175.94 30.91L178.25 26.2C180.76 28.19 184.01 29.23 186.73 29.23 188.51 29.23 189.77 28.6 189.77 27.35 189.77 23.47 177.2 25.57 177.2 16.97 177.2 11.94 181.49 9.43 186.73 9.43 190.09 9.43 193.54 10.37 196.27 12.15L193.86 16.87C191.03 15.4 188.3 14.56 186.31 14.56Z" id="Shape"/><path d="M215.97 32.69C214.19 33.74 211.88 34.37 209.68 34.37 205.39 34.37 202.03 31.85 202.03 26.82L202.03 15.61 198.68 15.61 198.68 10.79 202.03 10.79 202.03 4.19 208.95 4.19 208.95 10.9 215.55 10.9 215.55 15.72 208.95 15.72 208.95 25.78C208.95 27.77 209.79 28.6 211.25 28.6 212.2 28.6 213.24 28.29 214.5 27.66L215.97 32.69Z" id="Shape"/></g><rect id="Rectangle-path" fill="#FFD331" x="364.03" y="357.72" width="195.74" height="9.43"/><rect id="Rectangle-path" fill="#FFD331" x="364.03" y="313.08" width="129.83" height="9.43"/><rect id="Rectangle-path" fill="#FFD331" x="364.03" y="388.42" width="158.23" height="9.43"/><g id="Group" transform="translate(315.413140, 324.818356)" fill="#F625C9"><polygon id="Shape" points="13.62 0.42 13.62 32.06 6.5 32.06 6.5 6.5 0.21 6.5 0.21 0.42"/><path d="M32.27 28.92C32.27 31.01 30.81 32.48 28.82 32.48 26.83 32.48 25.36 30.91 25.36 28.92 25.36 26.82 26.83 25.36 28.82 25.36 30.91 25.36 32.27 26.82 32.27 28.92Z" id="Shape"/></g><g id="Group" transform="translate(363.615813, 321.674952)" fill="#A11CCC"><path d="M26.2 11.53C26.2 14.98 24.1 17.6 20.75 18.44 24.83 19.17 27.35 22.32 27.35 26.4 27.35 31.85 22.74 35.21 15.4 35.21L0.31 35.21 0.31 3.56 14.88 3.56C21.8 3.67 26.2 6.71 26.2 11.53ZM18.86 12.89C18.86 10.69 17.19 9.53 14.57 9.53L7.54 9.53 7.54 16.45 14.57 16.45C17.19 16.35 18.86 15.09 18.86 12.89ZM19.91 25.57C19.91 23.26 17.92 21.9 14.46 21.9L7.44 21.9 7.44 29.44 14.46 29.44C17.92 29.44 19.91 28.08 19.91 25.57Z" id="Shape"/><path d="M47.36 10.69L47.36 17.18C42.44 16.76 39.3 19.38 39.3 23.47L39.3 35.21 32.38 35.21 32.38 10.9 39.3 10.9 39.3 15.3C40.97 12.36 43.7 10.69 47.36 10.69Z" id="Shape"/><path d="M58.37 3.98C58.37 6.29 56.8 7.86 54.59 7.86 52.39 7.86 50.82 6.18 50.82 3.98 50.82 1.78 52.39 0.1 54.59 0.1 56.8 0.1 58.37 1.78 58.37 3.98ZM58.05 11L58.05 35.31 51.14 35.31 51.14 11 58.05 11Z" id="Shape"/><path d="M87.5 11L87.5 33.01C87.5 39.92 82.26 44.32 74.5 44.32 70.42 44.32 66.75 43.06 63.92 41.07L66.54 36.15C68.74 37.72 71.36 38.56 74.09 38.56 78.07 38.56 80.58 36.46 80.58 33.11L80.58 30.39C78.91 32.69 76.5 33.95 73.25 33.95 66.96 33.95 62.66 29.23 62.66 22.21 62.66 15.3 66.96 10.69 73.14 10.69 76.39 10.69 79.01 11.94 80.69 14.25L80.69 11 87.5 11 87.5 11ZM80.69 22.42C80.69 18.65 78.38 16.14 75.03 16.14 71.68 16.14 69.37 18.76 69.27 22.42 69.27 26.09 71.57 28.71 75.03 28.71 78.38 28.71 80.69 26.09 80.69 22.42Z" id="Shape"/><path d="M118.41 20.01L118.41 35.31 111.49 35.31 111.49 22C111.49 18.97 109.71 17.08 106.67 17.08 103.22 17.08 101.12 19.7 101.12 23.26L101.12 35.21 94.2 35.21 94.2 1.68 101.12 1.68 101.12 15.19C102.8 12.15 105.73 10.69 109.5 10.58 114.95 10.69 118.41 14.35 118.41 20.01Z" id="Shape"/><path d="M139.47 33.95C137.69 35 135.39 35.63 133.19 35.63 128.89 35.63 125.54 33.11 125.54 28.08L125.54 16.87 122.18 16.87 122.18 12.05 125.54 12.05 125.54 5.34 132.45 5.34 132.45 12.05 139.05 12.05 139.05 16.87 132.45 16.87 132.45 26.93C132.45 28.92 133.29 29.76 134.76 29.76 135.7 29.76 136.75 29.44 138.01 28.81L139.47 33.95Z" id="Shape"/><path d="M167.45 23.16C167.45 30.6 162.21 35.63 154.46 35.63 146.6 35.63 141.36 30.6 141.36 23.16 141.36 15.72 146.6 10.79 154.46 10.79 162.21 10.69 167.45 15.61 167.45 23.16ZM148.38 23.16C148.38 27.14 150.79 29.86 154.46 29.86 158.02 29.86 160.54 27.14 160.54 23.16 160.54 19.17 158.02 16.45 154.46 16.45 150.79 16.56 148.38 19.28 148.38 23.16Z" id="Shape"/><path d="M196.37 20.01L196.37 35.31 189.46 35.31 189.46 22C189.46 18.97 187.68 17.08 184.64 17.08 181.18 17.08 179.08 19.7 179.08 23.26L179.08 35.21 172.17 35.21 172.17 10.9 179.08 10.9 179.08 15.19C180.76 12.15 183.69 10.69 187.47 10.69 192.81 10.69 196.37 14.35 196.37 20.01Z" id="Shape"/></g><g id="Group" transform="translate(363.615813, 296.527725)" fill="#A11CCC"><path d="M8.59 5.24C8.59 4.51 8.07 4.09 7.13 4.09 5.87 4.09 4.19 4.82 2.72 6.18L0.94 2.72C3.14 1.15 5.45 0.21 7.86 0.21 11.11 0.21 13.62 1.99 13.62 4.51 13.62 6.29 12.26 8.17 10.48 9.95L7.54 12.89 13.94 12.89 13.94 16.66 1.47 16.66 1.47 13.62 7.23 7.65C7.96 6.71 8.59 5.76 8.59 5.24Z" id="Shape"/><path d="M28.19 8.49C28.19 13.83 25.88 16.66 21.8 16.66 17.6 16.66 15.3 13.73 15.3 8.49 15.3 3.25 17.6 0.31 21.8 0.31 25.88 0.21 28.19 3.14 28.19 8.49ZM19.91 8.49C19.91 12.05 20.43 13.41 21.8 13.41 23.16 13.41 23.68 12.05 23.68 8.49 23.68 4.92 23.16 3.56 21.8 3.56 20.43 3.56 19.91 4.92 19.91 8.49Z" id="Shape"/><polygon id="Shape" points="38.67 0.42 38.67 16.56 33.85 16.56 33.85 4.19 30.91 4.19 30.91 0.31 38.67 0.31"/><polygon id="Shape" points="57 0.42 57 3.67 51.24 16.56 46.11 16.56 51.66 4.09 47.99 4.09 47.99 6.39 43.8 6.39 43.8 0.42 57 0.42"/><path d="M62.45 14.56C62.45 15.82 61.51 16.76 60.25 16.76 59 16.76 58.05 15.82 58.05 14.56 58.05 13.31 59 12.47 60.25 12.47 61.62 12.36 62.45 13.31 62.45 14.56Z" id="Shape"/><path d="M76.81 8.49C76.81 13.83 74.5 16.66 70.42 16.66 66.23 16.66 63.92 13.73 63.92 8.49 63.92 3.25 66.23 0.31 70.42 0.31 74.5 0.21 76.81 3.14 76.81 8.49ZM68.43 8.49C68.43 12.05 68.95 13.41 70.31 13.41 71.68 13.41 72.2 12.05 72.2 8.49 72.2 4.92 71.68 3.56 70.31 3.56 68.95 3.56 68.43 4.92 68.43 8.49Z" id="Shape"/><path d="M83.1 13.2C85.4 13.2 86.56 11.84 86.45 9.53 85.72 10.48 84.56 11.11 82.89 11.11 79.85 11.11 77.75 9.01 77.75 5.76 77.75 2.31 80.16 0.21 83.83 0.21 88.13 0.21 90.75 3.25 90.75 8.28 90.75 13.41 87.81 16.76 83.2 16.76 81.32 16.76 79.32 16.24 77.96 15.4L79.74 12.15C80.79 12.89 81.94 13.2 83.1 13.2ZM82.15 5.76C82.15 7.02 82.78 7.65 84.04 7.65 85.4 7.65 86.03 6.92 86.03 5.66 86.03 4.51 85.4 3.77 84.04 3.77 82.89 3.88 82.15 4.51 82.15 5.76Z" id="Shape"/><path d="M96.82 14.56C96.82 15.82 95.88 16.76 94.62 16.76 93.37 16.76 92.42 15.82 92.42 14.56 92.42 13.31 93.37 12.47 94.62 12.47 95.88 12.36 96.82 13.31 96.82 14.56Z" id="Shape"/><path d="M111.08 8.49C111.08 13.83 108.77 16.66 104.68 16.66 100.49 16.66 98.19 13.73 98.19 8.49 98.19 3.25 100.49 0.31 104.68 0.31 108.77 0.21 111.08 3.14 111.08 8.49ZM102.8 8.49C102.8 12.05 103.32 13.41 104.68 13.41 106.05 13.41 106.57 12.05 106.57 8.49 106.57 4.92 106.05 3.56 104.68 3.56 103.32 3.56 102.8 4.92 102.8 8.49Z" id="Shape"/><path d="M118.93 6.18C122.81 6.18 125.33 8.17 125.33 11.11 125.33 14.56 122.71 16.76 118.62 16.76 116.42 16.76 113.8 15.93 112.02 14.67L113.91 11C115.16 12.47 116.52 13.1 117.99 13.1 119.35 13.1 120.09 12.47 120.09 11.32 120.09 10.27 119.35 9.64 117.99 9.64L113.49 9.64 113.49 0.21 124.59 0.21 124.59 3.98 117.89 3.98 117.89 6.08 118.93 6.08 118.93 6.18Z" id="Shape"/><path d="M131.09 14.56C131.09 15.82 130.15 16.76 128.89 16.76 127.63 16.76 126.69 15.82 126.69 14.56 126.69 13.31 127.63 12.47 128.89 12.47 130.25 12.36 131.09 13.31 131.09 14.56Z" id="Shape"/></g><g id="Group" transform="translate(617.203786, 91.158700)" fill="#A11CCC"><path d="M8.59 5.24C8.59 4.51 8.07 4.09 7.13 4.09 5.87 4.09 4.19 4.82 2.72 6.18L0.94 2.72C3.14 1.15 5.45 0.21 7.86 0.21 11.11 0.21 13.62 1.99 13.62 4.51 13.62 6.29 12.26 8.17 10.48 9.95L7.54 12.89 13.94 12.89 13.94 16.66 1.47 16.66 1.47 13.62 7.23 7.65C7.96 6.71 8.59 5.76 8.59 5.24Z" id="Shape"/><path d="M28.19 8.49C28.19 13.83 25.88 16.66 21.8 16.66 17.6 16.66 15.3 13.73 15.3 8.49 15.3 3.25 17.6 0.31 21.8 0.31 25.88 0.21 28.19 3.14 28.19 8.49ZM19.91 8.49C19.91 12.05 20.43 13.41 21.8 13.41 23.16 13.41 23.68 12.05 23.68 8.49 23.68 4.92 23.16 3.56 21.8 3.56 20.43 3.56 19.91 4.92 19.91 8.49Z" id="Shape"/><polygon id="Shape" points="38.67 0.42 38.67 16.56 33.85 16.56 33.85 4.19 30.91 4.19 30.91 0.31 38.67 0.31"/><polygon id="Shape" points="57 0.42 57 3.67 51.24 16.56 46.11 16.56 51.66 4.09 47.99 4.09 47.99 6.39 43.8 6.39 43.8 0.42 57 0.42"/><path d="M62.45 14.56C62.45 15.82 61.51 16.76 60.25 16.76 59 16.76 58.05 15.82 58.05 14.56 58.05 13.31 59 12.47 60.25 12.47 61.62 12.36 62.45 13.31 62.45 14.56Z" id="Shape"/><path d="M76.81 8.49C76.81 13.83 74.5 16.66 70.42 16.66 66.23 16.66 63.92 13.73 63.92 8.49 63.92 3.25 66.23 0.31 70.42 0.31 74.5 0.21 76.81 3.14 76.81 8.49ZM68.43 8.49C68.43 12.05 68.95 13.41 70.31 13.41 71.68 13.41 72.2 12.05 72.2 8.49 72.2 4.92 71.68 3.56 70.31 3.56 68.95 3.56 68.43 4.92 68.43 8.49Z" id="Shape"/><path d="M83.1 13.2C85.4 13.2 86.56 11.84 86.45 9.53 85.72 10.48 84.56 11.11 82.89 11.11 79.85 11.11 77.75 9.01 77.75 5.76 77.75 2.31 80.16 0.21 83.83 0.21 88.13 0.21 90.75 3.25 90.75 8.28 90.75 13.41 87.81 16.76 83.2 16.76 81.32 16.76 79.32 16.24 77.96 15.4L79.74 12.15C80.79 12.89 81.94 13.2 83.1 13.2ZM82.15 5.76C82.15 7.02 82.78 7.65 84.04 7.65 85.4 7.65 86.03 6.92 86.03 5.66 86.03 4.51 85.4 3.77 84.04 3.77 82.89 3.88 82.15 4.51 82.15 5.76Z" id="Shape"/><path d="M96.82 14.56C96.82 15.82 95.88 16.76 94.62 16.76 93.37 16.76 92.42 15.82 92.42 14.56 92.42 13.31 93.37 12.47 94.62 12.47 95.88 12.36 96.82 13.31 96.82 14.56Z" id="Shape"/><path d="M105.73 5.24C105.73 4.51 105.21 4.09 104.26 4.09 103.01 4.09 101.33 4.82 99.86 6.18L98.08 2.72C100.28 1.15 102.59 0.21 105 0.21 108.25 0.21 110.76 1.99 110.76 4.51 110.76 6.29 109.4 8.17 107.62 9.95L104.68 12.89 111.08 12.89 111.08 16.66 98.5 16.66 98.5 13.62 104.26 7.65C105.1 6.71 105.73 5.76 105.73 5.24Z" id="Shape"/><path d="M124.7 4.61C124.7 5.87 123.96 7.13 122.92 7.86 124.49 8.59 125.54 10.16 125.54 11.94 125.54 14.88 122.92 16.76 118.83 16.76 114.85 16.76 112.23 14.88 112.23 12.05 112.23 10.27 113.38 8.7 115.06 7.86 113.8 7.02 113.07 5.76 113.07 4.4 113.07 1.78 115.37 0.1 118.83 0.1 122.39 0.21 124.7 1.89 124.7 4.61ZM116.73 11.53C116.73 12.68 117.47 13.31 118.83 13.31 120.19 13.31 121.03 12.68 121.03 11.53 121.03 10.37 120.3 9.74 118.83 9.74 117.47 9.74 116.73 10.37 116.73 11.53ZM117.05 4.82C117.05 5.76 117.68 6.29 118.83 6.29 119.98 6.29 120.61 5.76 120.61 4.82 120.61 3.77 119.98 3.25 118.83 3.25 117.68 3.25 117.05 3.88 117.05 4.82Z" id="Shape"/><path d="M131.09 14.56C131.09 15.82 130.15 16.76 128.89 16.76 127.63 16.76 126.69 15.82 126.69 14.56 126.69 13.31 127.63 12.47 128.89 12.47 130.25 12.36 131.09 13.31 131.09 14.56Z" id="Shape"/></g><g id="Group" transform="translate(136.224944, 0.000000)" fill="#EACDF4"><path d="M8.07 5.24C8.07 4.51 7.54 4.09 6.6 4.09 5.34 4.09 3.67 4.82 2.2 6.18L0.42 2.72C2.62 1.15 4.93 0.21 7.34 0.21 10.58 0.21 13.1 1.99 13.1 4.51 13.1 6.29 11.74 8.17 9.95 9.95L7.02 12.89 13.41 12.89 13.41 16.66 0.94 16.66 0.94 13.62 6.71 7.65C7.44 6.71 8.07 5.76 8.07 5.24Z" id="Shape"/><path d="M27.77 8.49C27.77 13.83 25.46 16.66 21.38 16.66 17.19 16.66 14.88 13.73 14.88 8.49 14.88 3.25 17.19 0.31 21.38 0.31 25.46 0.21 27.77 3.14 27.77 8.49ZM19.39 8.49C19.39 12.05 19.91 13.41 21.27 13.41 22.63 13.41 23.16 12.05 23.16 8.49 23.16 4.92 22.63 3.56 21.27 3.56 19.91 3.56 19.39 4.92 19.39 8.49Z" id="Shape"/><polygon id="Shape" points="38.14 0.42 38.14 16.56 33.32 16.56 33.32 4.19 30.39 4.19 30.39 0.31 38.14 0.31"/><path d="M51.14 3.67C48.83 3.67 47.68 5.03 47.78 7.33 48.52 6.39 49.67 5.76 51.35 5.76 54.49 5.76 56.48 7.86 56.48 11 56.48 14.46 54.07 16.66 50.4 16.66 46.11 16.66 43.38 13.52 43.38 8.59 43.38 3.46 46.32 0.1 50.93 0.1 52.81 0.1 54.8 0.63 56.17 1.47L54.39 4.72C53.55 4.09 52.39 3.67 51.14 3.67ZM48.2 11.21C48.2 12.36 48.83 13.1 50.19 13.1 51.45 13.1 52.08 12.36 52.08 11.11 52.08 9.95 51.45 9.22 50.19 9.22 48.94 9.22 48.2 9.95 48.2 11.21Z" id="Shape"/><path d="M61.93 14.56C61.93 15.82 60.99 16.76 59.73 16.76 58.47 16.76 57.53 15.82 57.53 14.56 57.53 13.31 58.47 12.47 59.73 12.47 61.09 12.36 61.93 13.31 61.93 14.56Z" id="Shape"/><path d="M76.29 8.49C76.29 13.83 73.98 16.66 69.89 16.66 65.7 16.66 63.4 13.73 63.4 8.49 63.4 3.25 65.7 0.31 69.89 0.31 73.98 0.21 76.29 3.14 76.29 8.49ZM68.01 8.49C68.01 12.05 68.53 13.41 69.89 13.41 71.26 13.41 71.78 12.05 71.78 8.49 71.78 4.92 71.26 3.56 69.89 3.56 68.43 3.56 68.01 4.92 68.01 8.49Z" id="Shape"/><path d="M82.68 13.2C84.98 13.2 86.14 11.84 86.03 9.53 85.3 10.48 84.15 11.11 82.47 11.11 79.43 11.11 77.33 9.01 77.33 5.76 77.33 2.31 79.74 0.21 83.41 0.21 87.71 0.21 90.33 3.25 90.33 8.28 90.33 13.41 87.39 16.76 82.78 16.76 80.9 16.76 78.91 16.24 77.54 15.4L79.32 12.15C80.27 12.89 81.42 13.2 82.68 13.2ZM81.73 5.76C81.73 7.02 82.36 7.65 83.62 7.65 84.98 7.65 85.61 6.92 85.61 5.66 85.61 4.51 84.98 3.77 83.62 3.77 82.36 3.88 81.73 4.51 81.73 5.76Z" id="Shape"/><path d="M96.3 14.56C96.3 15.82 95.36 16.76 94.1 16.76 92.84 16.76 91.9 15.82 91.9 14.56 91.9 13.31 92.84 12.47 94.1 12.47 95.36 12.36 96.3 13.31 96.3 14.56Z" id="Shape"/><path d="M105.21 5.24C105.21 4.51 104.68 4.09 103.74 4.09 102.48 4.09 100.81 4.82 99.34 6.18L97.56 2.72C99.76 1.15 102.06 0.21 104.47 0.21 107.72 0.21 110.24 1.99 110.24 4.51 110.24 6.29 108.88 8.17 107.09 9.95L104.16 12.89 110.55 12.89 110.55 16.66 98.08 16.66 98.08 13.62 103.85 7.65C104.58 6.71 105.21 5.76 105.21 5.24Z" id="Shape"/><path d="M124.17 4.61C124.17 5.87 123.44 7.13 122.39 7.86 123.96 8.59 125.01 10.16 125.01 11.94 125.01 14.88 122.39 16.76 118.31 16.76 114.32 16.76 111.7 14.88 111.7 12.05 111.7 10.27 112.86 8.7 114.53 7.86 113.28 7.02 112.54 5.76 112.54 4.4 112.54 1.78 114.85 0.1 118.31 0.1 121.87 0.21 124.17 1.89 124.17 4.61ZM116.21 11.53C116.21 12.68 116.94 13.31 118.31 13.31 119.67 13.31 120.51 12.68 120.51 11.53 120.51 10.37 119.77 9.74 118.31 9.74 117.05 9.74 116.21 10.37 116.21 11.53ZM116.63 4.82C116.63 5.76 117.26 6.29 118.41 6.29 119.56 6.29 120.19 5.76 120.19 4.82 120.19 3.77 119.56 3.25 118.41 3.25 117.15 3.25 116.63 3.88 116.63 4.82Z" id="Shape"/><path d="M130.67 14.56C130.67 15.82 129.73 16.76 128.47 16.76 127.21 16.76 126.27 15.82 126.27 14.56 126.27 13.31 127.21 12.47 128.47 12.47 129.73 12.36 130.67 13.31 130.67 14.56Z" id="Shape"/></g><g id="Group" transform="translate(733.518931, 295.479924)" fill="#A11CCC"><path d="M7.75 5.24C7.75 4.51 7.23 4.09 6.29 4.09 5.03 4.09 3.35 4.82 1.89 6.18L0.1 2.72C2.31 1.15 4.61 0.21 7.02 0.21 10.27 0.21 12.78 1.99 12.78 4.51 12.78 6.29 11.42 8.17 9.64 9.95L6.71 12.89 13.1 12.89 13.1 16.66 0.63 16.66 0.63 13.62 6.39 7.65C7.13 6.81 7.75 5.87 7.75 5.24Z" id="Shape"/><path d="M27.45 8.49C27.45 13.83 25.15 16.66 21.06 16.66 16.87 16.66 14.57 13.73 14.57 8.49 14.57 3.25 16.87 0.31 21.06 0.31 25.15 0.31 27.45 3.25 27.45 8.49ZM19.07 8.49C19.07 12.05 19.6 13.41 20.96 13.41 22.32 13.41 22.84 12.05 22.84 8.49 22.84 4.92 22.32 3.56 20.96 3.56 19.6 3.56 19.07 4.92 19.07 8.49Z" id="Shape"/><polygon id="Shape" points="37.83 0.42 37.83 16.56 33.01 16.56 33.01 4.19 30.07 4.19 30.07 0.31 37.83 0.31"/><polygon id="Shape" points="56.17 0.42 56.17 3.67 50.4 16.56 45.37 16.56 50.93 4.09 47.26 4.09 47.26 6.39 43.07 6.39 43.07 0.42 56.17 0.42"/><path d="M61.62 14.67C61.62 15.93 60.67 16.87 59.42 16.87 58.16 16.87 57.21 15.93 57.21 14.67 57.21 13.41 58.16 12.57 59.42 12.57 60.78 12.47 61.62 13.31 61.62 14.67Z" id="Shape"/><polygon id="Shape" points="72.2 0.42 72.2 16.56 67.38 16.56 67.38 4.19 64.44 4.19 64.44 0.31 72.2 0.31"/><path d="M90.22 8.49C90.22 13.83 87.92 16.66 83.83 16.66 79.64 16.66 77.33 13.73 77.33 8.49 77.33 3.25 79.64 0.31 83.83 0.31 87.92 0.31 90.22 3.25 90.22 8.49ZM81.84 8.49C81.84 12.05 82.36 13.41 83.73 13.41 85.09 13.41 85.61 12.05 85.61 8.49 85.61 4.92 85.09 3.56 83.73 3.56 82.36 3.56 81.84 4.92 81.84 8.49Z" id="Shape"/><path d="M95.99 14.67C95.99 15.93 95.04 16.87 93.79 16.87 92.53 16.87 91.59 15.93 91.59 14.67 91.59 13.41 92.53 12.57 93.79 12.57 95.04 12.47 95.99 13.31 95.99 14.67Z" id="Shape"/><polygon id="Shape" points="106.47 0.42 106.47 16.56 101.64 16.56 101.64 4.19 98.71 4.19 98.71 0.31 106.47 0.31"/><polygon id="Shape" points="120.61 0.42 116.42 9.74 118.73 9.74 118.73 6.5 123.13 6.5 123.13 9.74 125.12 9.74 125.12 13.2 123.13 13.2 123.13 16.56 118.73 16.56 118.73 13.2 111.6 13.2 111.6 10.06 116.11 0.31 120.61 0.31"/><path d="M130.36 14.67C130.36 15.93 129.41 16.87 128.16 16.87 126.9 16.87 125.96 15.93 125.96 14.67 125.96 13.41 126.9 12.57 128.16 12.57 129.41 12.47 130.36 13.31 130.36 14.67Z" id="Shape"/></g><g id="Group" transform="translate(363.615813, 374.065010)" fill="#A11CCC"><path d="M11 4.61L11 13.41C11 16.14 8.8 17.81 5.66 17.81 3.88 17.81 2.2 17.29 1.15 16.56L2.31 14.15C3.14 14.67 4.3 15.09 5.24 15.09 6.5 15.09 7.34 14.46 7.34 13.52L7.34 12.57C6.71 13.31 5.87 13.73 4.72 13.73 2.41 13.73 0.63 11.84 0.63 9.01 0.63 6.29 2.31 4.4 4.61 4.4 5.76 4.4 6.71 4.82 7.23 5.55L7.23 4.51 11 4.51 11 4.61ZM7.44 9.22C7.44 7.96 6.81 7.23 5.76 7.23 4.82 7.23 4.09 8.07 4.09 9.22 4.09 10.37 4.72 11.21 5.76 11.21 6.81 11.21 7.44 10.37 7.44 9.22Z" id="Shape"/><path d="M19.81 4.51L19.81 7.75C17.92 7.54 16.77 8.28 16.77 9.74L16.77 14.35 13.2 14.35 13.2 4.72 16.77 4.72 16.77 6.29C17.39 5.13 18.44 4.51 19.81 4.51Z" id="Shape"/><path d="M24.73 1.89C24.73 2.93 24 3.77 22.84 3.77 21.8 3.77 20.96 3.04 20.96 1.89 20.96 0.73 21.69 0 22.84 0 24 0 24.73 0.73 24.73 1.89ZM24.63 4.61L24.63 14.25 21.06 14.25 21.06 4.61 24.63 4.61Z" id="Shape"/><polygon id="Shape" points="30.49 1.15 30.49 14.35 26.93 14.35 26.93 1.15"/><polygon id="Shape" points="36.47 1.15 36.47 14.35 32.9 14.35 32.9 1.15"/><path d="M48.2 10.37L41.71 10.37C42.02 11.32 42.65 11.84 43.59 11.84 44.33 11.84 45.06 11.53 45.69 10.9L47.57 12.78C46.53 13.94 45.06 14.56 43.28 14.56 40.03 14.56 38.04 12.57 38.04 9.64 38.04 6.6 40.13 4.61 43.17 4.61 46.53 4.51 48.41 6.81 48.2 10.37ZM43.17 6.92C42.33 6.92 41.81 7.54 41.6 8.59L44.64 8.59C44.64 7.65 44.01 6.92 43.17 6.92Z" id="Shape"/><polygon id="Shape" points="49.04 14.35 49.04 12.26 53.34 7.44 49.15 7.44 49.15 4.72 57.84 4.72 57.84 6.81 53.55 11.63 58.05 11.63 58.05 14.35"/><path d="M68.95 10.37L62.45 10.37C62.77 11.32 63.4 11.84 64.34 11.84 65.07 11.84 65.81 11.53 66.44 10.9L68.32 12.78C67.27 13.94 65.81 14.56 64.03 14.56 60.78 14.56 58.79 12.57 58.79 9.64 58.79 6.6 60.88 4.61 63.92 4.61 67.27 4.51 69.16 6.81 68.95 10.37ZM64.76 3.77L62.14 3.77 64.03 0.52 67.17 1.57 64.76 3.77ZM63.92 6.92C63.08 6.92 62.56 7.54 62.35 8.59L65.39 8.59C65.39 7.65 64.86 6.92 63.92 6.92Z" id="Shape"/><path d="M74.09 6.92C73.67 6.92 73.35 7.13 73.35 7.33 73.35 8.38 78.38 7.96 78.38 11.21 78.38 13.2 76.71 14.46 74.09 14.46 72.41 14.46 70.84 14.04 69.47 13.1L70.63 10.79C71.88 11.53 73.04 11.94 74.09 11.94 74.61 11.94 74.92 11.84 74.92 11.53 74.92 10.37 70 11 70 7.65 70 5.66 71.68 4.4 74.09 4.4 75.55 4.4 77.02 4.82 78.38 5.55L77.23 7.86C75.87 7.23 74.82 6.92 74.09 6.92Z" id="Shape"/><path d="M92.74 8.07L92.74 14.35 89.17 14.35 89.17 13.31C88.55 14.04 87.6 14.56 86.35 14.56 84.25 14.56 83.1 13.31 83.1 11.53 83.1 9.64 84.35 8.59 86.87 8.59L89.28 8.59 89.28 8.59C89.28 7.75 88.76 7.33 87.6 7.33 86.87 7.33 85.72 7.54 84.67 8.07L83.73 5.66C85.3 5.03 86.87 4.61 88.44 4.61 91.17 4.51 92.74 5.76 92.74 8.07ZM89.17 11.11L89.17 10.27 87.5 10.27C86.76 10.27 86.45 10.58 86.45 11.21 86.45 11.84 86.87 12.15 87.5 12.15 88.34 12.15 88.97 11.74 89.17 11.11Z" id="Shape"/></g><g id="Group" transform="translate(462.116927, 376.160612)" fill="#F625C9"><path d="M10.9 7.44C10.9 10.37 9.22 12.36 6.5 12.36 5.34 12.36 4.4 11.94 3.77 11.11L3.77 15.72 0.21 15.72 0.21 2.62 3.77 2.62 3.77 3.77C4.4 2.93 5.34 2.51 6.39 2.51 9.12 2.41 10.9 4.4 10.9 7.44ZM7.23 7.33C7.23 6.08 6.5 5.13 5.45 5.13 4.4 5.13 3.67 5.97 3.67 7.33 3.67 8.59 4.4 9.53 5.45 9.53 6.6 9.53 7.23 8.59 7.23 7.33Z" id="Shape"/><path d="M21.27 5.97L21.27 12.26 17.71 12.26 17.71 11.21C17.08 11.94 16.14 12.47 14.88 12.47 12.78 12.47 11.63 11.21 11.63 9.43 11.63 7.54 12.89 6.5 15.4 6.5L17.81 6.5 17.81 6.5C17.81 5.66 17.29 5.24 16.14 5.24 15.4 5.24 14.25 5.45 13.2 5.97L12.37 3.56C13.94 2.93 15.51 2.51 17.08 2.51 19.6 2.41 21.27 3.67 21.27 5.97ZM17.71 9.01L17.71 8.17 16.03 8.17C15.3 8.17 14.98 8.49 14.98 9.12 14.98 9.74 15.4 10.06 16.03 10.06 16.77 10.06 17.39 9.64 17.71 9.01Z" id="Shape"/><path d="M29.76 2.41L29.76 5.66C27.87 5.45 26.72 6.18 26.72 7.65L26.72 12.26 23.16 12.26 23.16 2.62 26.72 2.62 26.72 4.19C27.45 3.04 28.5 2.41 29.76 2.41Z" id="Shape"/><path d="M37.72 11.74C37.1 12.15 36.05 12.36 35 12.36 32.9 12.36 31.54 11.21 31.54 9.22L31.54 5.34 30.18 5.34 30.18 3.04 31.54 3.04 31.54 0.31 35.1 0.31 35.1 3.04 37.51 3.04 37.51 5.34 35.1 5.34 35.1 8.7C35.1 9.33 35.42 9.64 35.94 9.64 36.26 9.64 36.57 9.53 37.1 9.33L37.72 11.74Z" id="Shape"/></g><g id="Group" transform="translate(499.840757, 378.256214)" fill="#A11CCC"><path d="M11.32 5.24C11.32 8.28 9.22 10.16 5.97 10.16 2.72 10.16 0.52 8.17 0.52 5.24 0.52 2.2 2.62 0.31 5.97 0.31 9.22 0.31 11.32 2.31 11.32 5.24ZM4.19 5.34C4.19 6.6 4.93 7.54 5.97 7.54 7.02 7.54 7.75 6.71 7.75 5.34 7.75 4.09 7.02 3.14 5.97 3.14 4.93 3.14 4.19 4.09 4.19 5.34Z" id="Shape"/><path d="M22.95 3.98L22.95 10.16 19.39 10.16 19.39 5.03C19.39 4.09 18.86 3.46 18.02 3.46 17.08 3.46 16.45 4.19 16.45 5.34L16.45 10.16 12.89 10.16 12.89 0.52 16.45 0.52 16.45 1.99C17.08 0.94 18.13 0.31 19.49 0.31 21.48 0.31 22.95 1.78 22.95 3.98Z" id="Shape"/></g><g id="Group" transform="translate(733.518931, 367.778203)" fill="#A11CCC"><path d="M11.53 9.85C11.53 12.78 9.85 14.77 7.13 14.77 5.97 14.77 5.03 14.35 4.4 13.52L4.4 14.67 0.84 14.67 0.84 1.47 4.4 1.47 4.4 6.08C5.03 5.24 5.97 4.82 7.02 4.82 9.75 4.82 11.53 6.81 11.53 9.85ZM7.96 9.74C7.96 8.49 7.23 7.54 6.18 7.54 5.13 7.54 4.4 8.38 4.4 9.74 4.4 11 5.13 11.94 6.18 11.94 7.23 11.84 7.96 11 7.96 9.74Z" id="Shape"/><path d="M22.74 4.92L22.74 14.56 19.18 14.56 19.18 13.1C18.55 14.15 17.5 14.67 16.24 14.67 14.25 14.67 12.78 13.2 12.78 11L12.78 4.82 16.35 4.82 16.35 9.95C16.35 10.9 16.87 11.53 17.6 11.53 18.55 11.53 19.07 10.79 19.07 9.64L19.07 4.82 22.74 4.82 22.74 4.92ZM14.46 2.2C14.46 1.36 15.09 0.63 16.03 0.63 16.98 0.63 17.6 1.26 17.6 2.2 17.6 3.14 16.98 3.77 16.03 3.77 15.09 3.77 14.46 3.04 14.46 2.2ZM18.02 2.2C18.02 1.36 18.65 0.63 19.6 0.63 20.54 0.63 21.17 1.26 21.17 2.2 21.17 3.14 20.54 3.77 19.6 3.77 18.65 3.77 18.02 3.04 18.02 2.2Z" id="Shape"/><polygon id="Shape" points="29.34 11.21 28.61 11.94 28.61 14.56 25.04 14.56 25.04 1.36 28.61 1.36 28.61 7.75 31.23 4.82 35.31 4.82 31.75 8.59 35.31 14.56 31.02 14.56"/><polygon id="Shape" points="40.87 11.21 40.13 11.94 40.13 14.56 36.57 14.56 36.57 1.36 40.13 1.36 40.13 7.75 42.75 4.82 46.84 4.82 43.28 8.59 46.84 14.56 42.54 14.56"/><path d="M57.53 9.74C57.53 12.78 55.43 14.67 52.18 14.67 48.94 14.67 46.74 12.68 46.74 9.74 46.74 6.71 48.83 4.82 52.18 4.82 55.33 4.82 57.53 6.71 57.53 9.74ZM51.87 2.2C51.87 3.14 51.24 3.77 50.3 3.77 49.36 3.77 48.73 3.14 48.73 2.2 48.73 1.36 49.36 0.63 50.3 0.63 51.24 0.63 51.87 1.26 51.87 2.2ZM50.3 9.74C50.3 11 51.03 11.94 52.08 11.94 53.13 11.94 53.86 11.11 53.86 9.74 53.86 8.49 53.13 7.54 52.08 7.54 51.03 7.65 50.3 8.49 50.3 9.74ZM55.43 2.2C55.43 3.14 54.8 3.77 53.86 3.77 52.92 3.77 52.29 3.14 52.29 2.2 52.29 1.36 52.92 0.63 53.86 0.63 54.8 0.63 55.43 1.26 55.43 2.2Z" id="Shape"/><polygon id="Shape" points="62.56 1.36 62.56 14.56 59 14.56 59 1.36"/><path d="M74.29 10.58L67.8 10.58C68.11 11.53 68.74 12.05 69.68 12.05 70.42 12.05 71.15 11.74 71.78 11.11L73.67 12.99C72.62 14.15 71.15 14.77 69.37 14.77 66.12 14.77 64.13 12.78 64.13 9.85 64.13 6.81 66.23 4.82 69.27 4.82 72.62 4.82 74.5 7.02 74.29 10.58ZM70.1 3.98L67.48 3.98 69.37 0.73 72.51 1.78 70.1 3.98ZM69.27 7.23C68.43 7.23 67.9 7.86 67.69 8.91L70.73 8.91C70.73 7.86 70.1 7.23 69.27 7.23Z" id="Shape"/><path d="M79.43 7.13C79.01 7.13 78.7 7.33 78.7 7.54 78.7 8.59 83.73 8.17 83.73 11.42 83.73 13.41 82.05 14.67 79.43 14.67 77.75 14.67 76.18 14.25 74.82 13.31L75.97 11C77.23 11.74 78.38 12.15 79.43 12.15 79.95 12.15 80.27 12.05 80.27 11.74 80.27 10.58 75.34 11.21 75.34 7.86 75.34 5.87 77.02 4.61 79.43 4.61 80.9 4.61 82.36 5.03 83.73 5.76L82.57 8.07C81.21 7.54 80.16 7.13 79.43 7.13Z" id="Shape"/></g><path d="M743.16 397.43L743.16 403.72 739.6 403.72 739.6 402.67C738.97 403.4 738.02 403.93 736.77 403.93 734.67 403.93 733.52 402.67 733.52 400.89 733.52 399 734.78 397.95 737.29 397.95L739.7 397.95 739.7 397.95C739.7 397.12 739.18 396.7 738.02 396.7 737.29 396.7 736.14 396.91 735.09 397.43L734.25 395.02C735.82 394.39 737.4 393.97 738.97 393.97 741.59 393.87 743.16 395.23 743.16 397.43ZM739.6 400.57L739.6 399.74 737.92 399.74C737.19 399.74 736.87 400.05 736.87 400.68 736.87 401.31 737.29 401.62 737.92 401.62 738.76 401.52 739.39 401.2 739.6 400.57Z" id="Shape" fill="#A11CCC"/><g id="Group" transform="translate(748.189310, 388.734226)" fill="#F625C9"><path d="M8.07 14.98L6.39 11.63 4.4 11.63 4.4 14.98 0.73 14.98 0.73 2.51 6.6 2.51C9.95 2.51 11.84 4.09 11.84 6.92 11.84 8.8 11.11 10.16 9.75 10.9L12.26 14.98 8.07 14.98ZM4.4 8.8L6.5 8.8C7.65 8.8 8.28 8.17 8.28 7.13 8.28 6.08 7.65 5.45 6.5 5.45L4.4 5.45 4.4 8.8Z" id="Shape"/><path d="M23.05 11L16.56 11C16.87 11.94 17.5 12.47 18.44 12.47 19.18 12.47 19.91 12.15 20.54 11.53L22.42 13.41C21.38 14.56 19.91 15.19 18.13 15.19 14.88 15.19 12.89 13.2 12.89 10.27 12.89 7.23 14.98 5.24 18.02 5.24 21.38 5.24 23.26 7.44 23.05 11ZM18.02 7.65C17.19 7.65 16.66 8.28 16.45 9.33L19.49 9.33C19.49 8.28 18.97 7.65 18.02 7.65Z" id="Shape"/><path d="M24.42 18.65C23.37 18.65 22.53 18.44 21.8 18.02L22.63 15.51C22.95 15.72 23.37 15.82 23.68 15.82 24.21 15.82 24.52 15.51 24.52 14.88L24.52 5.34 28.08 5.34 28.08 15.3C28.19 17.39 26.62 18.65 24.42 18.65ZM28.4 2.51C28.4 3.56 27.56 4.4 26.41 4.4 25.25 4.4 24.42 3.67 24.42 2.51 24.42 1.36 25.25 0.63 26.41 0.63 27.56 0.73 28.4 1.47 28.4 2.51Z" id="Shape"/><path d="M37.1 14.56C36.47 14.98 35.42 15.19 34.37 15.19 32.27 15.19 30.91 14.04 30.91 12.05L30.91 8.17 29.55 8.17 29.55 5.87 30.91 5.87 30.91 3.14 34.48 3.14 34.48 5.87 36.89 5.87 36.89 8.17 34.48 8.17 34.48 11.53C34.48 12.15 34.79 12.47 35.31 12.47 35.63 12.47 35.94 12.36 36.47 12.15L37.1 14.56Z" id="Shape"/><path d="M47.89 11L41.39 11C41.71 11.94 42.33 12.47 43.28 12.47 44.01 12.47 44.74 12.15 45.37 11.53L47.26 13.41C46.21 14.56 44.74 15.19 42.96 15.19 39.71 15.19 37.72 13.2 37.72 10.27 37.72 7.23 39.82 5.24 42.86 5.24 46.21 5.24 48.1 7.44 47.89 11ZM42.86 7.65C42.02 7.65 41.5 8.28 41.29 9.33L44.33 9.33C44.33 8.28 43.7 7.65 42.86 7.65Z" id="Shape"/><polygon id="Shape" points="53.76 11.63 53.02 12.36 53.02 14.98 49.46 14.98 49.46 1.78 53.02 1.78 53.02 8.17 55.64 5.24 59.73 5.24 56.17 9.01 59.73 14.98 55.43 14.98"/><polygon id="Shape" points="69.16 11.63 68.43 12.36 68.43 14.98 64.86 14.98 64.86 1.78 68.43 1.78 68.43 8.17 71.05 5.24 75.13 5.24 71.57 9.01 75.13 14.98 70.84 14.98"/><path d="M86.03 5.34L86.03 14.98 82.47 14.98 82.47 13.52C81.84 14.56 80.79 15.09 79.53 15.09 77.54 15.09 76.08 13.62 76.08 11.42L76.08 5.24 79.64 5.24 79.64 10.37C79.64 11.32 80.16 11.94 80.9 11.94 81.84 11.94 82.36 11.21 82.36 10.06L82.36 5.24 86.03 5.24 86.03 5.34Z" id="Shape"/><path d="M94.83 14.56C94.2 14.98 93.16 15.19 92.11 15.19 90.01 15.19 88.65 14.04 88.65 12.05L88.65 8.17 87.29 8.17 87.29 5.87 88.65 5.87 88.65 3.14 92.21 3.14 92.21 5.87 94.62 5.87 94.62 8.17 92.21 8.17 92.21 11.53C92.21 12.15 92.53 12.47 93.05 12.47 93.37 12.47 93.68 12.36 94.2 12.15L94.83 14.56Z" id="Shape"/><path d="M105.1 8.7L105.1 14.98 101.54 14.98 101.54 13.94C100.91 14.67 99.97 15.19 98.71 15.19 96.61 15.19 95.46 13.94 95.46 12.15 95.46 10.27 96.72 9.22 99.23 9.22L101.64 9.22 101.64 9.22C101.64 8.38 101.12 7.96 99.97 7.96 99.23 7.96 98.08 8.17 97.03 8.7L96.09 6.29C97.66 5.66 99.23 5.24 100.81 5.24 103.43 5.13 105.1 6.5 105.1 8.7ZM101.54 11.84L101.54 11 99.86 11C99.13 11 98.82 11.32 98.82 11.94 98.82 12.57 99.23 12.89 99.86 12.89 100.7 12.78 101.33 12.47 101.54 11.84Z" id="Shape"/><path d="M113.59 14.56C112.96 14.98 111.91 15.19 110.87 15.19 108.77 15.19 107.41 14.04 107.41 12.05L107.41 8.17 106.05 8.17 106.05 5.87 107.41 5.87 107.41 3.14 110.97 3.14 110.97 5.87 113.38 5.87 113.38 8.17 111.08 8.17 111.08 11.53C111.08 12.15 111.39 12.47 111.91 12.47 112.23 12.47 112.54 12.36 113.07 12.15L113.59 14.56Z" id="Shape"/><path d="M125.01 10.16C125.01 13.2 122.92 15.09 119.67 15.09 116.42 15.09 114.22 13.1 114.22 10.16 114.22 7.13 116.32 5.24 119.67 5.24 122.92 5.24 125.01 7.13 125.01 10.16ZM117.89 10.16C117.89 11.42 118.62 12.36 119.67 12.36 120.72 12.36 121.45 11.53 121.45 10.16 121.45 8.91 120.72 7.96 119.67 7.96 118.52 8.07 117.89 8.91 117.89 10.16ZM122.92 2.2L120.51 4.4 117.89 4.4 119.77 1.15 122.92 2.2Z" id="Shape"/><path d="M136.64 8.91L136.64 15.09 133.08 15.09 133.08 9.95C133.08 9.01 132.56 8.38 131.72 8.38 130.78 8.38 130.15 9.12 130.15 10.27L130.15 15.09 126.58 15.09 126.58 1.89 130.15 1.89 130.15 6.92C130.78 5.87 131.82 5.24 133.19 5.24 135.28 5.13 136.64 6.6 136.64 8.91Z" id="Shape"/><path d="M147.54 8.7L147.54 14.98 143.98 14.98 143.98 13.94C143.35 14.67 142.41 15.19 141.15 15.19 139.05 15.19 137.9 13.94 137.9 12.15 137.9 10.27 139.16 9.22 141.67 9.22L144.08 9.22 144.08 9.22C144.08 8.38 143.56 7.96 142.41 7.96 141.67 7.96 140.52 8.17 139.47 8.7L138.53 6.29C140.1 5.66 141.67 5.24 143.25 5.24 145.87 5.13 147.54 6.5 147.54 8.7ZM143.87 4.4L141.25 4.4 143.14 1.15 146.28 2.2 143.87 4.4ZM143.98 11.84L143.98 11 142.3 11C141.57 11 141.25 11.32 141.25 11.94 141.25 12.57 141.67 12.89 142.3 12.89 143.04 12.78 143.66 12.47 143.98 11.84Z" id="Shape"/><polygon id="Shape" points="148.8 14.98 148.8 12.89 153.1 8.07 148.9 8.07 148.9 5.34 157.6 5.34 157.6 7.44 153.31 12.26 157.81 12.26 157.81 14.98"/><path d="M170.18 10.27C170.18 13.2 168.5 15.19 165.78 15.19 164.62 15.19 163.68 14.77 163.05 13.94L163.05 15.09 159.49 15.09 159.49 1.89 163.05 1.89 163.05 6.5C163.68 5.66 164.62 5.24 165.67 5.24 168.39 5.24 170.18 7.23 170.18 10.27ZM166.61 10.16C166.61 8.91 165.88 7.96 164.83 7.96 163.78 7.96 163.05 8.8 163.05 10.16 163.05 11.42 163.78 12.36 164.83 12.36 165.88 12.26 166.61 11.42 166.61 10.16Z" id="Shape"/><path d="M180.55 8.7L180.55 14.98 176.99 14.98 176.99 13.94C176.36 14.67 175.42 15.19 174.16 15.19 172.06 15.19 170.91 13.94 170.91 12.15 170.91 10.27 172.17 9.22 174.68 9.22L177.09 9.22 177.09 9.22C177.09 8.38 176.57 7.96 175.42 7.96 174.68 7.96 173.53 8.17 172.48 8.7L171.54 6.29C173.11 5.66 174.68 5.24 176.25 5.24 178.87 5.13 180.55 6.5 180.55 8.7ZM176.99 11.84L176.99 11 175.31 11C174.58 11 174.26 11.32 174.26 11.94 174.26 12.57 174.68 12.89 175.31 12.89 176.04 12.78 176.78 12.47 176.99 11.84Z" id="Shape"/><path d="M192.6 8.91L192.6 15.09 189.04 15.09 189.04 9.95C189.04 9.01 188.51 8.38 187.68 8.38 186.73 8.38 186.1 9.12 186.1 10.27L186.1 15.09 182.54 15.09 182.54 5.45 186.1 5.45 186.1 6.92C186.73 5.87 187.78 5.24 189.14 5.24 191.13 5.13 192.6 6.6 192.6 8.91Z" id="Shape"/></g><g id="Group" transform="translate(616.155902, 167.648184)" fill="#A11CCC"><path d="M16.98 6.18L16.98 12.36 13.41 12.36 13.41 7.23C13.41 6.29 12.89 5.66 12.05 5.66 11.11 5.66 10.58 6.39 10.58 7.54L10.58 12.36 7.02 12.36 7.02 7.23C7.02 6.29 6.5 5.66 5.66 5.66 4.72 5.66 4.09 6.39 4.09 7.54L4.09 12.36 0.52 12.36 0.52 2.72 4.09 2.72 4.09 4.19C4.72 3.14 5.76 2.62 7.13 2.62 8.59 2.62 9.75 3.35 10.27 4.72 10.9 3.35 12.05 2.62 13.52 2.62 15.61 2.51 16.98 3.98 16.98 6.18Z" id="Shape"/><path d="M28.29 8.38L21.8 8.38C22.11 9.33 22.74 9.85 23.68 9.85 24.42 9.85 25.15 9.53 25.78 8.91L27.66 10.79C26.62 11.94 25.15 12.57 23.37 12.57 20.12 12.57 18.13 10.58 18.13 7.65 18.13 4.61 20.22 2.62 23.26 2.62 26.72 2.51 28.5 4.82 28.29 8.38ZM23.26 5.03C22.42 5.03 21.9 5.66 21.69 6.71L24.73 6.71C24.83 5.66 24.21 5.03 23.26 5.03Z" id="Shape"/><path d="M39.19 8.38L32.69 8.38C33.01 9.33 33.64 9.85 34.58 9.85 35.31 9.85 36.05 9.53 36.68 8.91L38.56 10.79C37.51 11.94 36.05 12.57 34.27 12.57 31.02 12.57 29.03 10.58 29.03 7.65 29.03 4.61 31.12 2.62 34.16 2.62 37.51 2.51 39.4 4.82 39.19 8.38ZM34.16 5.03C33.32 5.03 32.8 5.66 32.59 6.71L35.63 6.71C35.63 5.66 35 5.03 34.16 5.03Z" id="Shape"/><path d="M47.26 11.94C46.63 12.36 45.58 12.57 44.54 12.57 42.44 12.57 41.08 11.42 41.08 9.43L41.08 5.55 39.71 5.55 39.71 3.14 41.08 3.14 41.08 0.42 44.64 0.42 44.64 3.14 47.05 3.14 47.05 5.45 44.64 5.45 44.64 8.8C44.64 9.43 44.95 9.74 45.48 9.74 45.79 9.74 46.11 9.64 46.63 9.43L47.26 11.94Z" id="Shape"/><path d="M58.37 2.72L58.37 12.36 54.8 12.36 54.8 10.9C54.18 11.94 53.13 12.47 51.87 12.47 49.88 12.47 48.41 11 48.41 8.8L48.41 2.62 51.98 2.62 51.98 7.75C51.98 8.7 52.5 9.33 53.23 9.33 54.18 9.33 54.7 8.59 54.7 7.44L54.7 2.62 58.37 2.62 58.37 2.72Z" id="Shape"/><path d="M71.36 7.54C71.36 10.48 69.68 12.47 66.96 12.47 65.81 12.47 64.86 12.05 64.24 11.21L64.24 15.82 60.67 15.82 60.67 2.72 64.24 2.72 64.24 3.88C64.86 3.04 65.81 2.62 66.86 2.62 69.58 2.51 71.36 4.51 71.36 7.54ZM67.69 7.44C67.69 6.18 66.96 5.24 65.91 5.24 64.86 5.24 64.13 6.08 64.13 7.44 64.13 8.7 64.86 9.64 65.91 9.64 66.96 9.64 67.69 8.8 67.69 7.44Z" id="Shape"/><path d="M85.61 6.08L85.61 12.36 82.05 12.36 82.05 11.32C81.42 12.05 80.48 12.57 79.22 12.57 77.12 12.57 75.97 11.32 75.97 9.53 75.97 7.65 77.23 6.6 79.74 6.6L82.15 6.6 82.15 6.6C82.15 5.76 81.63 5.34 80.48 5.34 79.74 5.34 78.59 5.55 77.54 6.08L76.6 3.67C78.17 3.04 79.74 2.62 81.32 2.62 83.94 2.51 85.61 3.88 85.61 6.08ZM82.05 9.22L82.05 8.38 80.37 8.38C79.64 8.38 79.32 8.7 79.32 9.33 79.32 9.95 79.74 10.27 80.37 10.27 81.11 10.16 81.73 9.74 82.05 9.22Z" id="Shape"/></g><g id="Group" transform="translate(711.513363, 165.552581)" fill="#F625C9"><polygon id="Shape" points="7.96 14.46 5.03 9.85 3.67 11.42 3.67 14.46 0 14.46 0 1.99 3.67 1.99 3.67 6.81 7.86 1.99 12.16 1.99 7.65 7.02 12.47 14.46"/><path d="M23.26 4.82L23.26 14.46 19.7 14.46 19.7 12.99C19.07 14.04 18.02 14.56 16.77 14.56 14.78 14.56 13.31 13.1 13.31 10.9L13.31 4.72 16.87 4.72 16.87 9.85C16.87 10.79 17.39 11.42 18.13 11.42 19.07 11.42 19.6 10.69 19.6 9.53L19.6 4.72 23.26 4.72 23.26 4.82Z" id="Shape"/><polygon id="Shape" points="29.13 1.26 29.13 14.46 25.57 14.46 25.57 1.26"/><path d="M38.04 14.04C37.41 14.46 36.36 14.67 35.31 14.67 33.22 14.67 31.86 13.52 31.86 11.53L31.86 7.65 30.49 7.65 30.49 5.24 31.86 5.24 31.86 2.51 35.42 2.51 35.42 5.24 37.83 5.24 37.83 7.54 35.42 7.54 35.42 10.9C35.42 11.53 35.73 11.84 36.26 11.84 36.57 11.84 36.89 11.74 37.41 11.53L38.04 14.04Z" id="Shape"/><path d="M49.36 4.92C47.68 4.92 46.42 6.29 46.42 8.17 46.42 10.06 47.68 11.42 49.36 11.42 50.3 11.42 51.45 10.9 52.29 9.95L54.39 12.26C53.02 13.73 51.03 14.67 49.15 14.67 45.37 14.67 42.54 11.94 42.54 8.28 42.54 4.61 45.37 1.99 49.25 1.99 51.14 1.99 53.13 2.83 54.39 4.19L52.29 6.71C51.45 5.66 50.3 4.92 49.36 4.92Z" id="Shape"/><path d="M64.34 8.17L64.34 14.46 60.78 14.46 60.78 13.41C60.15 14.15 59.21 14.67 57.95 14.67 55.85 14.67 54.7 13.41 54.7 11.63 54.7 9.74 55.96 8.7 58.47 8.7L60.88 8.7 60.88 8.7C60.88 7.86 60.36 7.44 59.21 7.44 58.47 7.44 57.32 7.65 56.27 8.17L55.33 5.76C56.9 5.13 58.47 4.72 60.04 4.72 62.77 4.61 64.34 5.97 64.34 8.17ZM60.78 11.32L60.78 10.48 59.1 10.48C58.37 10.48 58.05 10.79 58.05 11.42 58.05 12.05 58.47 12.36 59.1 12.36 59.94 12.26 60.57 11.84 60.78 11.32Z" id="Shape"/><path d="M70.52 4.82L70.52 5.24 72.51 5.24 72.51 7.54 70.52 7.54 70.52 14.46 66.96 14.46 66.96 7.54 65.6 7.54 65.6 5.24 66.96 5.24 66.96 4.4C66.96 2.31 68.53 1.05 70.84 1.15 71.88 1.15 73.04 1.36 73.77 1.89L72.51 4.4C72.2 4.19 71.78 3.98 71.47 3.98 70.84 3.88 70.52 4.19 70.52 4.82Z" id="Shape"/><path d="M82.78 10.48L76.29 10.48C76.6 11.42 77.23 11.94 78.17 11.94 78.91 11.94 79.64 11.63 80.27 11L82.15 12.89C81.11 14.04 79.64 14.67 77.86 14.67 74.61 14.67 72.62 12.68 72.62 9.74 72.62 6.71 74.71 4.72 77.75 4.72 81.11 4.61 82.99 6.92 82.78 10.48ZM78.59 3.88L75.97 3.88 77.86 0.63 81 1.68 78.59 3.88ZM77.75 7.13C76.91 7.13 76.39 7.75 76.18 8.8L79.22 8.8C79.22 7.75 78.59 7.13 77.75 7.13Z" id="Shape"/></g><g id="Group" transform="translate(795.344098, 166.600382)" fill="#A11CCC"><path d="M11.53 8.59C11.53 11.53 9.85 13.52 7.13 13.52 5.97 13.52 5.03 13.1 4.4 12.26L4.4 13.41 0.84 13.41 0.84 0.21 4.4 0.21 4.4 4.82C5.03 3.98 5.97 3.56 7.02 3.56 9.75 3.56 11.53 5.55 11.53 8.59ZM7.86 8.49C7.86 7.23 7.13 6.29 6.08 6.29 5.03 6.29 4.3 7.13 4.3 8.49 4.3 9.74 5.03 10.69 6.08 10.69 7.23 10.69 7.86 9.85 7.86 8.49Z" id="Shape"/><path d="M21.9 7.13L21.9 13.41 18.34 13.41 18.34 12.36C17.71 13.1 16.77 13.62 15.51 13.62 13.41 13.62 12.26 12.36 12.26 10.58 12.26 8.7 13.52 7.65 16.03 7.65L18.44 7.65 18.44 7.65C18.44 6.81 17.92 6.39 16.77 6.39 16.03 6.39 14.88 6.6 13.83 7.13L12.99 4.72C14.57 4.09 16.14 3.67 17.71 3.67 20.22 3.56 21.9 4.92 21.9 7.13ZM18.34 10.27L18.34 9.43 16.66 9.43C15.93 9.43 15.61 9.74 15.61 10.37 15.61 11 16.03 11.32 16.66 11.32 17.39 11.21 18.02 10.79 18.34 10.27Z" id="Shape"/><path d="M33.95 7.23L33.95 13.41 30.39 13.41 30.39 8.28C30.39 7.33 29.86 6.71 29.03 6.71 28.08 6.71 27.45 7.44 27.45 8.59L27.45 13.41 23.89 13.41 23.89 3.77 27.45 3.77 27.45 5.24C28.08 4.19 29.13 3.56 30.49 3.56 32.48 3.56 33.95 5.03 33.95 7.23Z" id="Shape"/></g><g id="Group" transform="translate(137.272829, 75.441683)" fill="#EACDF4"><polygon id="Shape" points="3.67 1.26 3.67 14.46 0.1 14.46 0.1 1.26"/><path d="M14.88 8.17L14.88 14.46 11.32 14.46 11.32 13.41C10.69 14.15 9.75 14.67 8.49 14.67 6.39 14.67 5.24 13.41 5.24 11.63 5.24 9.74 6.5 8.7 9.01 8.7L11.42 8.7 11.42 8.7C11.42 7.86 10.9 7.44 9.75 7.44 9.01 7.44 7.86 7.65 6.81 8.17L5.97 5.76C7.54 5.13 9.12 4.72 10.69 4.72 13.2 4.61 14.88 5.97 14.88 8.17ZM11.21 3.88L8.59 3.88 10.48 0.63 13.62 1.68 11.21 3.88ZM11.32 11.32L11.32 10.48 9.64 10.48C8.91 10.48 8.59 10.79 8.59 11.42 8.59 12.05 9.01 12.36 9.64 12.36 10.48 12.26 11.11 11.94 11.32 11.32Z" id="Shape"/><path d="M26.93 8.38L26.93 14.56 23.37 14.56 23.37 9.43C23.37 8.49 22.84 7.86 22.01 7.86 21.06 7.86 20.43 8.59 20.43 9.74L20.43 14.56 16.77 14.56 16.77 4.92 20.33 4.92 20.33 6.39C20.96 5.34 22.01 4.72 23.37 4.72 25.57 4.61 26.93 6.08 26.93 8.38Z" id="Shape"/><path d="M30.6 18.13C29.45 18.13 28.4 17.81 27.45 17.08L28.92 14.67C29.34 15.09 29.76 15.19 30.18 15.19 30.6 15.19 31.02 14.98 31.23 14.56L31.44 14.25 27.45 4.82 31.12 4.82 33.22 10.79 35 4.82 38.56 4.82 34.48 15.3C33.85 17.18 32.48 18.13 30.6 18.13Z" id="Shape"/><polygon id="Shape" points="44.01 11.11 43.28 11.84 43.28 14.46 39.71 14.46 39.71 1.26 43.28 1.26 43.28 7.65 45.9 4.72 49.98 4.72 46.42 8.49 49.98 14.46 45.69 14.46"/><path d="M60.04 10.48L53.44 10.48C53.76 11.42 54.39 11.94 55.33 11.94 56.06 11.94 56.8 11.63 57.42 11L59.31 12.89C58.26 14.04 56.8 14.67 55.01 14.67 51.77 14.67 49.77 12.68 49.77 9.74 49.77 6.71 51.87 4.72 54.91 4.72 58.37 4.72 60.25 6.92 60.04 10.48ZM55.85 3.88L53.23 3.88 55.12 0.63 58.26 1.68 55.85 3.88ZM55.01 7.13C54.18 7.13 53.65 7.75 53.44 8.8L56.48 8.8C56.48 7.75 55.85 7.13 55.01 7.13Z" id="Shape"/><path d="M68.11 4.61L68.11 7.86C66.23 7.65 65.07 8.38 65.07 9.85L65.07 14.46 61.51 14.46 61.51 4.82 65.07 4.82 65.07 6.39C65.7 5.24 66.75 4.61 68.11 4.61Z" id="Shape"/><path d="M78.8 10.48L72.3 10.48C72.62 11.42 73.25 11.94 74.19 11.94 74.92 11.94 75.66 11.63 76.29 11L78.17 12.89C77.12 14.04 75.66 14.67 73.88 14.67 70.63 14.67 68.64 12.68 68.64 9.74 68.64 6.71 70.73 4.72 73.77 4.72 77.12 4.72 79.01 6.92 78.8 10.48ZM74.61 3.88L71.99 3.88 73.88 0.63 77.02 1.68 74.61 3.88ZM73.77 7.13C72.93 7.13 72.41 7.75 72.2 8.8L75.24 8.8C75.24 7.75 74.61 7.13 73.77 7.13Z" id="Shape"/><path d="M83.83 7.02C83.41 7.02 83.1 7.23 83.1 7.44 83.1 8.49 88.13 8.07 88.13 11.32 88.13 13.31 86.45 14.56 83.83 14.56 82.15 14.56 80.58 14.15 79.22 13.2L80.37 10.9C81.63 11.63 82.78 12.05 83.83 12.05 84.35 12.05 84.67 11.94 84.67 11.63 84.67 10.48 79.74 11.11 79.74 7.75 79.74 5.76 81.42 4.51 83.83 4.51 85.3 4.51 86.76 4.92 88.13 5.66L86.97 7.96C85.72 7.44 84.67 7.02 83.83 7.02Z" id="Shape"/><path d="M102.59 8.17L102.59 14.46 99.03 14.46 99.03 13.41C98.4 14.15 97.45 14.67 96.2 14.67 94.1 14.67 92.95 13.41 92.95 11.63 92.95 9.74 94.2 8.7 96.72 8.7L99.13 8.7 99.13 8.7C99.13 7.86 98.61 7.44 97.45 7.44 96.72 7.44 95.57 7.65 94.52 8.17L93.58 5.76C95.15 5.13 96.72 4.72 98.29 4.72 100.91 4.61 102.59 5.97 102.59 8.17ZM99.03 11.32L99.03 10.48 97.35 10.48C96.61 10.48 96.3 10.79 96.3 11.42 96.3 12.05 96.72 12.36 97.35 12.36 98.08 12.26 98.71 11.94 99.03 11.32Z" id="Shape"/></g><g id="Group" transform="translate(246.252784, 77.537285)" fill="#FDCFF3"><path d="M10.79 7.65C10.79 10.58 9.12 12.57 6.39 12.57 5.24 12.57 4.3 12.15 3.67 11.32L3.67 15.93 0.1 15.93 0.1 2.83 3.67 2.83 3.67 3.98C4.3 3.14 5.24 2.72 6.29 2.72 9.01 2.62 10.79 4.61 10.79 7.65ZM7.23 7.54C7.23 6.29 6.5 5.34 5.45 5.34 4.4 5.34 3.67 6.18 3.67 7.54 3.67 8.8 4.4 9.74 5.45 9.74 6.5 9.64 7.23 8.8 7.23 7.54Z" id="Shape"/><path d="M21.17 6.08L21.17 12.36 17.6 12.36 17.6 11.32C16.98 12.05 16.03 12.57 14.78 12.57 12.68 12.57 11.53 11.32 11.53 9.53 11.53 7.65 12.78 6.6 15.3 6.6L17.71 6.6 17.71 6.6C17.71 5.76 17.19 5.34 16.03 5.34 15.3 5.34 14.15 5.55 13.1 6.08L12.26 3.67C13.83 3.04 15.4 2.62 16.98 2.62 19.49 2.51 21.17 3.88 21.17 6.08ZM17.6 9.22L17.6 8.38 15.93 8.38C15.19 8.38 14.88 8.7 14.88 9.33 14.88 9.95 15.3 10.27 15.93 10.27 16.77 10.16 17.39 9.85 17.6 9.22Z" id="Shape"/><path d="M29.66 2.51L29.66 5.76C27.77 5.55 26.62 6.29 26.62 7.75L26.62 12.36 23.05 12.36 23.05 2.72 26.62 2.72 26.62 4.3C27.35 3.14 28.4 2.51 29.66 2.51Z" id="Shape"/><path d="M37.62 11.94C36.99 12.36 35.94 12.57 34.89 12.57 32.8 12.57 31.44 11.42 31.44 9.43L31.44 5.55 30.07 5.55 30.07 3.25 31.44 3.25 31.44 0.52 35 0.52 35 3.25 37.41 3.25 37.41 5.55 35 5.55 35 8.91C35 9.53 35.31 9.85 35.84 9.85 36.15 9.85 36.47 9.74 36.99 9.53L37.62 11.94Z" id="Shape"/></g><g id="Group" transform="translate(283.976615, 79.632887)" fill="#EACDF4"><path d="M11.21 5.45C11.21 8.49 9.12 10.37 5.87 10.37 2.62 10.37 0.42 8.38 0.42 5.45 0.42 2.41 2.51 0.52 5.87 0.52 9.01 0.52 11.21 2.41 11.21 5.45ZM3.98 5.45C3.98 6.71 4.72 7.65 5.76 7.65 6.81 7.65 7.54 6.81 7.54 5.45 7.54 4.19 6.81 3.25 5.76 3.25 4.72 3.35 3.98 4.19 3.98 5.45Z" id="Shape"/><path d="M22.74 4.19L22.74 10.37 19.18 10.37 19.18 5.24C19.18 4.3 18.65 3.67 17.81 3.67 16.87 3.67 16.24 4.4 16.24 5.55L16.24 10.37 12.57 10.37 12.57 0.73 16.14 0.73 16.14 2.2C16.77 1.15 17.81 0.52 19.18 0.52 21.38 0.42 22.74 1.89 22.74 4.19Z" id="Shape"/></g><g id="Group" transform="translate(770.194878, 440.076482)" fill="#FDCFF3"><g transform="translate(0.000000, 11.525813)"><rect id="Rectangle-path" transform="translate(6.111711, 20.034754) rotate(-6.090275) translate(-6.111711, -20.034754) " x="0.87" y="15.32" width="10.48" height="9.43"/><path d="M21.06 23.16L20.01 13.83 38.56 11.84 39.61 21.17 21.06 23.16ZM48.94 20.22L47.89 10.9 66.44 8.91 67.48 18.23 48.94 20.22ZM76.81 17.18L75.76 7.86 94.31 5.87 95.36 15.19 76.81 17.18ZM104.68 14.25L103.64 4.92 122.18 2.93 123.23 12.26 104.68 14.25Z" id="Shape"/><rect id="Rectangle-path" transform="translate(137.312103, 6.099167) rotate(-6.090275) translate(-137.312103, -6.099167) " x="132.07" y="1.38" width="10.48" height="9.43"/></g><polygon id="Shape" points="153.41 15.61 121.24 0.94 124.59 36.15"/></g></g></g></g></svg>