<svg id="Layer_1" data-name="Layer 1" xmlns="http://www.w3.org/2000/svg" viewBox="0 0 940 600">
  <defs>
    <style>
      .cls-1,.cls-18,.cls-23{fill:#ffcbe1;}.cls-10,.cls-14,.cls-15,.cls-16,.cls-17,.cls-2,.cls-3{fill:#f17;}.cls-18,.cls-3{font-size:43.11px;font-family:Montserrat-SemiBold, Montserrat;}.cls-18,.cls-20,.cls-21,.cls-3,.cls-6,.cls-7{font-weight:700;}.cls-11,.cls-4,.cls-5,.cls-6,.cls-7{fill:#517;}.cls-5{letter-spacing:0em;}.cls-20,.cls-6{font-size:22px;}.cls-20,.cls-21,.cls-6,.cls-7{font-family:Montserrat-ExtraBold, Montserrat;}.cls-21,.cls-7{font-size:17px;}.cls-10,.cls-8{letter-spacing:0em;}.cls-17,.cls-9{letter-spacing:0em;}.cls-11{letter-spacing:0em;}.cls-12{letter-spacing:-0.03em;}.cls-13{fill:#ffd331;}.cls-14{letter-spacing:0em;}.cls-15{letter-spacing:-0.01em;}.cls-16{letter-spacing:-0.01em;}.cls-19,.cls-20,.cls-21{fill:#dacbe1;}.cls-22{letter-spacing:0em;}.cls-23{letter-spacing:0em;}
    </style>
  </defs>
  <title>
    Artboard 1
  </title>
  <path class="cls-1" d="M67.24 121.82a37.62 37.62 0 1 1 37.62-37.62 37.66 37.66 0 0 1-37.62 37.62zm0-64.36A26.74 26.74 0 1 0 94 84.2a26.77 26.77 0 0 0-26.76-26.74z"/>
  <path class="cls-1" d="M104.86 121.82a37.62 37.62 0 1 1 37.63-37.62 37.66 37.66 0 0 1-37.63 37.62zm0-64.36a26.74 26.74 0 1 0 26.75 26.74 26.77 26.77 0 0 0-26.75-26.74z"/>
  <path class="cls-2" d="M222 347a4.5 4.5 0 0 1-3.9-2.25L146 220a4.5 4.5 0 1 1 7.79-4.51l72.18 124.78A4.5 4.5 0 0 1 222 347z"/>
  <path class="cls-1" d="M87.453 118.81l7.79-4.506 5.008 8.656-7.79 4.506zM138.19 206.53L128 189l7.79-4.51L146 202zm-15.24-26.35l-10.16-17.57 7.79-4.51 10.16 17.57zm-15.25-26.36l-10.16-17.56 7.79-4.51 10.16 17.57zM143.268 215.3l7.79-4.508 5.008 8.656-7.79 4.507z"/>
  <path class="cls-2" d="M662.56 452.86a4.5 4.5 0 0 1-3.79-2.07l-140.5-219.13a4.5 4.5 0 1 1 7.58-4.86l140.5 219.13a4.5 4.5 0 0 1-3.78 6.93zM297.85 359.4a4.5 4.5 0 0 1-3-7.88l151.67-133.67a4.5 4.5 0 0 1 6 6.75l-151.7 133.68a4.48 4.48 0 0 1-2.97 1.12z"/>
  <path class="cls-2" d="M491.07 242.25a65.09 65.09 0 1 1 65.09-65.09 65.17 65.17 0 0 1-65.09 65.09zm0-121.19a56.09 56.09 0 1 0 56.09 56.09 56.16 56.16 0 0 0-56.09-56.09zM252.39 460.06A65.09 65.09 0 1 1 317.48 395a65.17 65.17 0 0 1-65.09 65.06zm0-121.19A56.09 56.09 0 1 0 308.48 395a56.16 56.16 0 0 0-56.09-56.13zM697.58 562.91a65.09 65.09 0 1 1 65.09-65.09 65.17 65.17 0 0 1-65.09 65.09zm0-121.19a56.09 56.09 0 1 0 56.09 56.09 56.16 56.16 0 0 0-56.09-56.09z"/>
  <text class="cls-3" transform="translate(325.89 380.65)">
    1. <tspan class="cls-4" x="47.12" y="0">Brigh</tspan><tspan class="cls-5" x="165.67" y="0">t</tspan><tspan class="cls-4" x="183.86" y="0">on</tspan>
  </text>
  <text class="cls-6" transform="translate(376.43 338.42)">
    2017.09.05.
  </text>
  <text class="cls-7" transform="translate(376.43 405.01)">
    grill<tspan class="cls-8" x="35.51" y="0">ez</tspan><tspan class="cls-9" x="55.37" y="0">és a </tspan><tspan class="cls-2" x="92.58" y="0">par</tspan><tspan class="cls-10" x="122.14" y="0">t</tspan><tspan x="129.76" y="0">on</tspan>
  </text>
  <text class="cls-3" transform="translate(661.43 379.96)">
    3. <tspan class="cls-11" x="47.12" y="0">„Eger”</tspan>
  </text>
  <text class="cls-6" transform="translate(728.66 337.6)">
    2017.10.14.
  </text>
  <text class="cls-7" transform="translate(728.66 408.34)">
    bük<tspan class="cls-12" x="34.07" y="0">k</tspan><tspan x="44.59" y="0">ölés </tspan><tspan x="0" y="20.4">a </tspan><tspan class="cls-2" x="14.04" y="20.4">Rej</tspan><tspan class="cls-10" x="42.41" y="20.4">t</tspan><tspan class="cls-2" x="50.03" y="20.4">ek</tspan><tspan class="cls-9" x="71.4" y="20.4">ben</tspan>
  </text>
  <path class="cls-13" d="M617.43 182.76h206.72v9H617.43z"/>
  <text class="cls-3" transform="translate(567.34 186.52)">
    2. <tspan class="cls-4" x="47.12" y="0">Budapest</tspan>
  </text>
  <path class="cls-13" d="M617.43 142.03h127.14v9H617.43zM617.43 208.76h285.33v9H617.43z"/>
  <text class="cls-6" transform="translate(618.43 144.58)">
    2017.09.28.
  </text>
  <text class="cls-7" transform="translate(616.43 210.67)">
    meetup a <tspan class="cls-14" x="86.73" y="0">Premiere Kult </tspan><tspan class="cls-15" x="212.65" y="0">C</tspan><tspan class="cls-2" x="224.24" y="0">a</tspan><tspan class="cls-16" x="234.56" y="0">f</tspan><tspan class="cls-17" x="241.35" y="0">é</tspan><tspan x="251.7" y="0">ban</tspan>
  </text>
  <text class="cls-18" transform="translate(156.06 99.78)">
    0. <tspan class="cls-19" x="47.12" y="0">Hatta</tspan>
  </text>
  <text class="cls-20" transform="translate(158.96 57.11)">
    2016.09.28.
  </text>
  <text class="cls-21" transform="translate(158.96 123.99)">
    lá<tspan class="cls-22" x="16.01" y="0">n</tspan><tspan x="27.49" y="0">y</tspan><tspan class="cls-12" x="37.77" y="0">k</tspan><tspan x="48.3" y="0">érés a </tspan><tspan class="cls-1" x="103.41" y="0">par</tspan><tspan class="cls-23" x="132.97" y="0">t</tspan><tspan x="140.59" y="0">on</tspan>
  </text>
  <path class="cls-1" d="M764.334 486.202l9.943-1.06.955 8.95-9.944 1.06zM784.11 493.12l-1-8.95 17.74-1.89 1 8.95zm26.6-2.84l-1-8.95 17.74-1.89 1 8.95zm26.6-2.84l-1-8.95 17.74-1.89 1 8.95zm26.6-2.84l-1-8.95 17.74-1.89 1 8.95zM889.56 472.842l9.943-1.06.955 8.948-9.944 1.06z"/>
  <path class="cls-1" d="M910.38 474.93l-30.73-14 3.24 33.61 27.49-19.61z"/>
</svg>
