<?xml version="1.0" encoding="utf-8"?>
<!-- Generator: Adobe Illustrator 21.1.0, SVG Export Plug-In . SVG Version: 6.00 Build 0)  -->
<svg version="1.1" xmlns="http://www.w3.org/2000/svg" xmlns:xlink="http://www.w3.org/1999/xlink" x="0px" y="0px"
	 viewBox="0 0 940 600" style="enable-background:new 0 0 940 600;" xml:space="preserve">
<style type="text/css">
	.st0{fill:#FFD331;}
	.st1{fill:#FDCFF3;}
	.st2{fill:#F625C9;}
	.st3{fill:none;}
	.st4{font-family:'Montserrat-SemiBold';}
	.st5{font-size:43.1096px;}
	.st6{fill:#EACDF4;}
	.st7{fill:#A11CCC;}
	.st8{font-family:'Montserrat-ExtraBold';}
	.st9{font-size:22px;}
	.st10{font-size:17px;}
	.st11{fill:#FFFFFF;}
	.st12{fill:#F4B7D6;}
	.st13{fill:#F40F82;}
	.st14{fill:#FC673A;}
	.st15{fill:#FFF343;}
	.st16{fill:#45A3FF;}
	.st17{fill:#B5CF3E;}
	.st18{fill:#201600;}
	.st19{fill:none;stroke:#FFD331;stroke-width:3;stroke-miterlimit:10;}
	.st20{fill:#1D1D1B;}
</style>
<g id="Layer_1">
	<rect x="618.4" y="182.8" class="st0" width="204.8" height="9"/>
	<path class="st1" d="M67.2,121.8c-20.7,0-37.6-16.9-37.6-37.6s16.9-37.6,37.6-37.6s37.6,16.9,37.6,37.6S88,121.8,67.2,121.8z
		 M67.2,57.5c-14.7,0-26.7,12-26.7,26.7c0,14.7,12,26.7,26.7,26.7c14.7,0,26.7-12,26.7-26.7C94,69.5,82,57.5,67.2,57.5z"/>
	<path class="st1" d="M104.9,121.8c-20.7,0-37.6-16.9-37.6-37.6s16.9-37.6,37.6-37.6s37.6,16.9,37.6,37.6S125.6,121.8,104.9,121.8z
		 M104.9,57.5c-14.7,0-26.7,12-26.7,26.7c0,14.7,12,26.7,26.7,26.7c14.7,0,26.7-12,26.7-26.7C131.6,69.5,119.6,57.5,104.9,57.5z"/>
	<path class="st2" d="M222,347c-1.6,0-3.1-0.8-3.9-2.2L146,220c-1.2-2.2-0.5-4.9,1.6-6.1c2.2-1.2,4.9-0.5,6.1,1.6l72.2,124.8
		c1.2,2.2,0.5,4.9-1.6,6.1C223.6,346.8,222.8,347,222,347z"/>
	<g>
		<rect x="89.3" y="115.9" transform="matrix(0.8656 -0.5007 0.5007 0.8656 -47.9204 63.2384)" class="st1" width="9" height="10"/>
		<path class="st1" d="M138.2,206.5L128,189l7.8-4.5L146,202L138.2,206.5z M122.9,180.2l-10.2-17.6l7.8-4.5l10.2,17.6L122.9,180.2z
			 M107.7,153.8l-10.2-17.6l7.8-4.5l10.2,17.6L107.7,153.8z"/>
		
			<rect x="145.2" y="212.4" transform="matrix(0.8656 -0.5007 0.5007 0.8656 -88.7353 104.1553)" class="st1" width="9" height="10"/>
	</g>
	<path class="st2" d="M662.6,452.9c-1.5,0-2.9-0.7-3.8-2.1L518.3,231.7c-1.3-2.1-0.7-4.9,1.4-6.2c2.1-1.3,4.9-0.7,6.2,1.4
		l140.5,219.1c1.3,2.1,0.7,4.9-1.4,6.2C664.2,452.6,663.4,452.9,662.6,452.9z"/>
	<path class="st2" d="M297.8,359.4c-1.2,0-2.5-0.5-3.4-1.5c-1.6-1.9-1.5-4.7,0.4-6.4l151.6-133.7c1.9-1.6,4.7-1.5,6.4,0.4
		s1.5,4.7-0.4,6.4L300.8,358.3C300,359,298.9,359.4,297.8,359.4z"/>
	<text transform="matrix(1 0 0 1 156.0634 99.7833)"><tspan x="0" y="0" class="st1 st4 st5">0. </tspan><tspan x="47.1" y="0" class="st6 st4 st5">Hatta</tspan></text>
	<text transform="matrix(1 0 0 1 661.4301 379.9588)"><tspan x="0" y="0" class="st2 st4 st5">3. </tspan><tspan x="47.1" y="0" class="st7 st4 st5">„Eger”</tspan></text>
	<path class="st2" d="M491.1,242.2c-35.9,0-65.1-29.2-65.1-65.1s29.2-65.1,65.1-65.1s65.1,29.2,65.1,65.1S527,242.2,491.1,242.2z
		 M491.1,121.1c-30.9,0-56.1,25.2-56.1,56.1s25.2,56.1,56.1,56.1c30.9,0,56.1-25.2,56.1-56.1S522,121.1,491.1,121.1z"/>
	<path class="st2" d="M252.4,460.1c-35.9,0-65.1-29.2-65.1-65.1s29.2-65.1,65.1-65.1s65.1,29.2,65.1,65.1S288.3,460.1,252.4,460.1z
		 M252.4,338.9c-30.9,0-56.1,25.2-56.1,56.1s25.2,56.1,56.1,56.1c30.9,0,56.1-25.2,56.1-56.1S283.3,338.9,252.4,338.9z"/>
	<path class="st2" d="M697.6,562.9c-35.9,0-65.1-29.2-65.1-65.1s29.2-65.1,65.1-65.1s65.1,29.2,65.1,65.1S733.5,562.9,697.6,562.9z
		 M697.6,441.7c-30.9,0-56.1,25.2-56.1,56.1s25.2,56.1,56.1,56.1c30.9,0,56.1-25.2,56.1-56.1S728.5,441.7,697.6,441.7z"/>
	<text transform="matrix(1 0 0 1 567.3363 186.5156)"><tspan x="0" y="0" class="st2 st4 st5">2. </tspan><tspan x="47.1" y="0" class="st7 st4 st5">Budapest</tspan></text>
	<rect x="619.8" y="140.8" class="st0" width="122.5" height="9"/>
	<rect x="617.4" y="208.7" class="st0" width="202.4" height="9"/>
	<text transform="matrix(1 0 0 1 325.8866 380.6546)"><tspan x="0" y="0" class="st2 st4 st5">1. </tspan><tspan x="47.1" y="0" class="st7 st4 st5">Brighton</tspan></text>
	<text transform="matrix(1 0 0 1 376.4294 338.7988)" class="st7 st8 st9">2017.09.05.</text>
	<text transform="matrix(1 0 0 1 618.4296 142.799)" class="st7 st8 st9">2017.09.28.</text>
	<text transform="matrix(1 0 0 1 158.9582 55.799)" class="st6 st8 st9">2016.09.28.</text>
	<text transform="matrix(1 0 0 1 728.6643 337.8723)" class="st7 st8 st9">2017.09.28.</text>
	<text transform="matrix(1 0 0 1 376.4294 410.665)"><tspan x="0" y="0" class="st7 st8 st10">grillezés a </tspan><tspan x="92.6" y="0" class="st2 st8 st10">part</tspan><tspan x="129.8" y="0" class="st7 st8 st10">on</tspan></text>
	<text transform="matrix(1 0 0 1 728.6643 404.9265)"><tspan x="0" y="0" class="st7 st8 st10">kirándulás  </tspan><tspan x="0" y="20.4" class="st7 st8 st10">a </tspan><tspan x="14" y="20.4" class="st2 st8 st10">Szalajka-völgy</tspan><tspan x="142.6" y="20.4" class="st7 st8 st10">ben</tspan></text>
	<text transform="matrix(1 0 0 1 616.4297 211.8027)"><tspan x="0" y="0" class="st7 st8 st10">meetup a </tspan><tspan x="86.7" y="0" class="st0 st8 st10"> </tspan><tspan x="90.5" y="0" class="st2 st8 st10">Kult Café</tspan><tspan x="171.2" y="0" class="st7 st8 st10">ban</tspan></text>
	<text transform="matrix(1 0 0 1 158.9582 125.8237)"><tspan x="0" y="0" class="st6 st8 st10">lánykérés a </tspan><tspan x="104" y="0" class="st1 st8 st10">part</tspan><tspan x="141.1" y="0" class="st6 st8 st10">on</tspan></text>
	<g>
		<g>
			
				<rect x="764.8" y="485.6" transform="matrix(0.9944 -0.1061 0.1061 0.9944 -47.6643 84.4571)" class="st1" width="10" height="9"/>
			<path class="st1" d="M784.1,493.1l-1-8.9l17.7-1.9l1,8.9L784.1,493.1z M810.7,490.3l-1-8.9l17.7-1.9l1,8.9L810.7,490.3z
				 M837.3,487.4l-1-8.9l17.7-1.9l1,8.9L837.3,487.4z M863.9,484.6l-1-8.9l17.7-1.9l1,8.9L863.9,484.6z"/>
			<rect x="890" y="472.3" transform="matrix(0.9944 -0.1061 0.1061 0.9944 -45.5401 97.6705)" class="st1" width="10" height="9"/>
		</g>
		<polygon class="st1" points="910.4,474.9 879.7,460.9 882.9,494.5 		"/>
	</g>
</g>
<g id="Layer_2">
</g>
</svg>
