<svg id="Layer_1" data-name="Layer 1" xmlns="http://www.w3.org/2000/svg" viewBox="0 0 940 600">
  <defs>
    <style>
      .cls-1{fill:#ffd331;}.cls-2{fill:#e3e3e3;}.cls-3{fill:#ffcbe1;}.cls-4{fill:#f17;}.cls-5{fill:#517;}.cls-6{fill:#dacbe1;}
    </style>
  </defs>
  <title>
    Artboard 1 copy
  </title>
  <path class="cls-1" d="M497.24 149.16h13.09v13.09h-13.09zM507.49 170.56h13.09v13.09h-13.09zM494.61 206.54h15.48v6.98h-15.48zM457.99 184.28h13.09v13.09h-13.09z"/>
  <path class="cls-1" d="M528.87 132.37h-38.39a1.92 1.92 0 0 0-1.92 1.92v42.24l-18.31-18.15a1.92 1.92 0 0 0-2.69 0l-9.65 9.31v-9.83a1.92 1.92 0 1 0-3.85 0v12.23a1.91 1.91 0 0 0 .3 1l-9.05 8.74a1.92 1.92 0 0 0-.59 1.38v32.1a1.92 1.92 0 0 0 3.85 0V182l20.3-19.6 19.6 19.42.08.07v48.8a1.92 1.92 0 1 0 3.85 0v-94.47h34.54v82.08a1.92 1.92 0 1 0 3.85 0v-84a1.92 1.92 0 0 0-1.92-1.93z"/>
  <path class="cls-2" d="M745.54 470.56c-2-2.42-5.07-3.44-9.08-3-.71-3-2.56-8.72-6.68-10.81a7.61 7.61 0 0 0-6.1-.29c-1.38-1.86-4.13-4.81-7.71-4.89-2.65-.05-5.06 1.43-7.17 4.43-2.3.44-8.32 2-11.46 7-2.18 3.43-2.51 7.69-1 12.66-1.3 2.62-5.16 11.37-1.9 17.13 1.56 2.75 4.38 4.38 8.4 4.84a9.39 9.39 0 0 0 9.74 7.53 22.82 22.82 0 0 0 6.67 5v23.82a2.3 2.3 0 0 0 .06.5 17.55 17.55 0 0 1-2 .14c-5.82 0-13.63-2.27-23.53-5.15-3.39-1-6.89-2-10.68-3a29.47 29.47 0 0 0-8.41-1v-13.03a26.93 26.93 0 0 0 9.6 7.62 40.11 40.11 0 0 0 11.11 3.58h.27a1.92 1.92 0 0 0 .26-3.82c-.19 0-18.07-2.67-21.24-16.08v-8.61a25.15 25.15 0 0 0 14.7 10.09 1.92 1.92 0 0 0 .72-3.77c-.55-.11-13.52-2.81-15.3-17.05a1.91 1.91 0 0 0-.13-.47v-4.53a18.84 18.84 0 0 0 10.64 8.75 2 2 0 0 0 .47.06 1.92 1.92 0 0 0 .47-3.78c-.1 0-9.94-2.66-11.3-17a1.89 1.89 0 0 0-.28-.81v-.4c3.53 5.36 7.93 6.72 8.22 6.8a1.89 1.89 0 0 0 .53.08 1.92 1.92 0 0 0 .55-3.76c-.32-.1-7.26-2.39-9.3-13.77v-3.12a2.3 2.3 0 0 0-4.6 0v3.12c-2 11.36-8.95 13.66-9.3 13.77a1.92 1.92 0 0 0 1.08 3.68c.29-.08 4.69-1.44 8.22-6.8v.4a1.89 1.89 0 0 0-.28.81c-1.34 14.21-10.88 16.91-11.31 17a1.92 1.92 0 0 0 .48 3.78 2 2 0 0 0 .47-.06 18.84 18.84 0 0 0 10.64-8.75v4.54a1.91 1.91 0 0 0-.13.47c-1.78 14.25-14.75 16.95-15.3 17.05a1.92 1.92 0 0 0 .72 3.77 25.15 25.15 0 0 0 14.7-10.09v8.61c-3.16 13.37-21 16-21.24 16.08a1.92 1.92 0 0 0 .26 3.82h.27a40.11 40.11 0 0 0 11.11-3.58 26.93 26.93 0 0 0 9.6-7.62v13.29a43.38 43.38 0 0 0-17.75 7.45 1.92 1.92 0 0 0 2.32 3.05c.13-.1 13.43-10 27.42-6.2 3.76 1 7.25 2 10.63 3 10.19 3 18.24 5.31 24.6 5.31 8.41 0 25.72-7.23 26.45-7.54a1.92 1.92 0 0 0-1.49-3.54 147.36 147.36 0 0 1-18.39 6.25v-22.34h.27a9.35 9.35 0 0 0 7.06-3.61c2.68-.44 10.72-2.13 13.42-6.91a7.09 7.09 0 0 0 .44-6 61.11 61.11 0 0 0 2.35-8.66c1.36-7.16.73-12.34-1.86-15.44zM741.19 494a1.92 1.92 0 0 0 0 1.46 3.41 3.41 0 0 1 0 3.31c-1.8 3.19-9 4.8-11.35 5.11a1.92 1.92 0 0 0-1.28.74 5.9 5.9 0 0 1-4.58 2.72h-.2v-7l12.22-9.48a1.53 1.53 0 0 0-1.89-2.42l-10.3 8v-22.49a2.3 2.3 0 1 0-4.6 0v7l-10-9.5a1.53 1.53 0 1 0-2.11 2.22l12.11 11.5v20.58a20.52 20.52 0 0 1-4.36-3.77 1.92 1.92 0 0 0-1.47-.69h-.1a6.68 6.68 0 0 1-5-1.43 6.54 6.54 0 0 1-1.87-4.1 1.92 1.92 0 0 0-1.84-1.86c-3.45-.13-5.74-1.15-6.79-3-2.27-4 .9-11.58 2.31-14.15a1.92 1.92 0 0 0 .14-1.54c-1.4-4.15-1.28-7.56.35-10.15 2.86-4.53 9.52-5.38 9.58-5.38a1.92 1.92 0 0 0 1.4-.87c1.45-2.28 2.9-3.45 4.33-3.39 2.37 0 4.78 3.28 5.44 4.4a1.92 1.92 0 0 0 2.55.74c1.64-.86 3-1 4.18-.39 3.11 1.57 4.66 7.64 5 9.85a1.92 1.92 0 0 0 2.26 1.6c3.48-.67 5.93-.18 7.3 1.45 3.73 4.44.24 16.62-1.43 20.93zM307.69 399.65c-5.34 6.44-10.64 9.51-15.75 9.1-7.72-.61-12.78-9-12.83-9.08a1.78 1.78 0 0 0-2.89-.25c-5 5.9-10 8.73-15 8.4-7.82-.52-13.17-8.74-13.22-8.82a1.78 1.78 0 0 0-2.87-.18c-6 7.27-11.75 10.69-17.07 10.15-7.18-.72-11.47-8.58-11.51-8.66a1.78 1.78 0 0 0-2.8-.46 30.65 30.65 0 0 1-16.11 7.55 1.78 1.78 0 0 0 .35 3.54 34.07 34.07 0 0 0 16.6-7.08c2 2.85 6.44 8 13.09 8.65a14.47 14.47 0 0 0 1.47.08c5.64 0 11.43-3.28 17.24-9.78 2.35 2.89 7.51 8.09 14.57 8.56 5.61.38 11.13-2.29 16.42-7.93 2.26 3 7.23 8.29 14.24 8.85 6.34.51 12.66-3 18.79-10.37a1.78 1.78 0 0 0-2.74-2.27zM208.09 387.81c5.74 0 11.51-3.24 17.17-9.64.48.52 1 1.1 1.48 1.69 3 3.52 6.81 7.89 12.51 7.9 4.58 0 9.48-2.87 14.93-8.78 2.65 3.07 7.76 8.64 15 8.44 5.45-.15 11-3.55 16.56-10.12 1.89 3.19 5.75 8.39 11.34 9.39 4.4.79 8.86-1.14 13.25-5.72a1.78 1.78 0 1 0-2.57-2.46c-3.52 3.67-6.9 5.24-10.05 4.68-6.14-1.09-10-9.74-10-9.82a1.78 1.78 0 0 0-3-.37c-5.44 7.08-10.67 10.74-15.56 10.88-5.89.16-10.24-4.9-12.58-7.62-.4-.46-.74-.86-1-1.17a1.74 1.74 0 0 0-1.33-.56 1.78 1.78 0 0 0-1.31.61c-5.21 6-9.78 9.07-13.59 9.07-4.08 0-7.13-3.54-9.82-6.66a34.67 34.67 0 0 0-3.11-3.32 1.78 1.78 0 0 0-2.55.21c-5.51 6.7-10.91 10-16.11 9.82-6.41-.23-10.47-5.88-10.51-5.94a1.78 1.78 0 0 0-2.92 2c.2.29 5.07 7.13 13.26 7.46zM297.34 424.55c-5.13 4.89-10.55 7.27-16.1 7.06-9.09-.34-15.69-7.53-15.75-7.6a1.78 1.78 0 0 0-2.71.07c-5.08 6.26-10.13 9.44-15 9.47h-.05c-6.63 0-11.44-5.81-13.5-8.29-.36-.44-.62-.75-.85-1a1.78 1.78 0 0 0-2.68.17c-7.89 10.35-18 7.1-18.45 6.95a1.78 1.78 0 0 0-1.16 3.37 20.52 20.52 0 0 0 21-6.47c2.54 3 8 8.81 15.6 8.81h.07c5.55 0 11.09-3.15 16.48-9.29 2.66 2.41 8.79 7 16.79 7.36 6.56.25 12.86-2.45 18.72-8a1.78 1.78 0 0 0-2.46-2.58zM203.07 360.65c.13.05 12.14 4.92 21.69-8 2.63 3.79 8.21 10.94 16 10.94h.06c5.73 0 11.42-3.91 16.94-11.56 2.8 3.07 9.12 8.83 17.38 9.14 6.73.26 13.17-3.14 19.14-10.11a1.78 1.78 0 1 0-2.7-2.32c-5.22 6.09-10.7 9.07-16.28 8.87-9.33-.34-16.17-9.48-16.24-9.57a1.78 1.78 0 0 0-2.92.07c-5.24 7.88-10.4 11.89-15.34 11.92-6.72 0-11.67-7.31-13.79-10.43-.37-.54-.63-.93-.85-1.21a1.78 1.78 0 0 0-2.9.18c-8.09 13-18.34 9-18.79 8.78a1.78 1.78 0 0 0-1.38 3.28z"/>
  <path class="cls-3" d="M67.24 117.08a37.62 37.62 0 1 1 37.62-37.62 37.66 37.66 0 0 1-37.62 37.62zm0-64.36A26.74 26.74 0 1 0 94 79.46a26.77 26.77 0 0 0-26.76-26.75z"/>
  <path class="cls-3" d="M104.86 117.08a37.62 37.62 0 1 1 37.62-37.62 37.66 37.66 0 0 1-37.62 37.62zm0-64.36a26.74 26.74 0 1 0 26.74 26.74 26.77 26.77 0 0 0-26.74-26.75z"/>
  <path class="cls-4" d="M222 342.26a4.5 4.5 0 0 1-3.9-2.25L146 215.24a4.5 4.5 0 0 1 7.79-4.51l72.18 124.78a4.5 4.5 0 0 1-3.89 6.75z"/>
  <path class="cls-3" d="M87.454 114.06l7.79-4.508 5.008 8.656-7.79 4.507zM138.19 201.78L128 184.21l7.79-4.51L146 197.27zm-15.24-26.35l-10.16-17.57 7.79-4.51 10.16 17.57zm-15.25-26.35l-10.16-17.57 7.79-4.51 10.16 17.57zM143.274 210.556l7.79-4.507 5.008 8.655-7.79 4.507z"/>
  <path class="cls-4" d="M662.56 448.12a4.5 4.5 0 0 1-3.79-2.07l-140.5-219.13a4.5 4.5 0 1 1 7.58-4.86l140.5 219.13a4.5 4.5 0 0 1-3.78 6.93zM297.85 354.65a4.5 4.5 0 0 1-3-7.88L446.52 213.1a4.5 4.5 0 0 1 6 6.75l-151.7 133.68a4.48 4.48 0 0 1-2.97 1.12z"/>
  <path class="cls-4" d="M491.07 237.5a65.09 65.09 0 1 1 65.09-65.09 65.17 65.17 0 0 1-65.09 65.09zm0-121.19a56.09 56.09 0 1 0 56.09 56.09 56.16 56.16 0 0 0-56.09-56.08zM252.39 455.31a65.09 65.09 0 1 1 65.09-65.09 65.17 65.17 0 0 1-65.09 65.09zm0-121.19a56.09 56.09 0 1 0 56.09 56.09 56.16 56.16 0 0 0-56.09-56.08zM697.58 558.17a65.09 65.09 0 1 1 65.09-65.09 65.17 65.17 0 0 1-65.09 65.09zm0-121.19a56.09 56.09 0 1 0 56.09 56.09A56.16 56.16 0 0 0 697.58 437zM343 384.1v30.22h-6.81v-24.44h-6v-5.78zM360.85 411.26a3.32 3.32 0 1 1-6.64 0 3.32 3.32 0 1 1 6.64 0z"/>
  <path class="cls-5" d="M401 391.69a6.61 6.61 0 0 1-5.22 6.64 7.4 7.4 0 0 1 6.29 7.63c0 5.17-4.35 8.36-11.38 8.36h-14.37v-30.17h13.88c6.64 0 10.8 2.85 10.8 7.54zm-7 1.25c0-2.07-1.59-3.23-4.14-3.23h-6.72v6.6h6.72c2.54-.01 4.14-1.26 4.14-3.37zm1 12.16c0-2.2-1.94-3.54-5.17-3.54h-6.72v7.2h6.72c3.26 0 5.17-1.34 5.17-3.66zM421.2 390.87v6.25c-4.74-.43-7.67 2.11-7.67 6v11.17h-6.64v-23.16h6.64v4.18a8.44 8.44 0 0 1 7.67-4.44zM431.72 384.49a3.58 3.58 0 1 1-3.58-3.71 3.5 3.5 0 0 1 3.58 3.71zm-.26 6.64v23.19h-6.64v-23.19zM459.56 391.13v21c0 6.59-5 10.78-12.37 10.78a18 18 0 0 1-10.09-3.06l2.46-4.66a12.26 12.26 0 0 0 7.2 2.33c3.79 0 6.21-2 6.21-5.17v-2.63a8.19 8.19 0 0 1-7 3.36c-6 0-10.13-4.48-10.13-11.21 0-6.55 4.05-11 10-11a8.35 8.35 0 0 1 7.16 3.36v-3.15zM453 402.08c0-3.58-2.2-6-5.43-6s-5.43 2.5-5.47 6 2.2 6 5.47 6 5.43-2.47 5.43-6zM489.05 399.75v14.57h-6.64v-12.63c0-2.93-1.72-4.74-4.57-4.74-3.32 0-5.34 2.54-5.34 5.95v11.42h-6.64v-32h6.64v12.89c1.64-2.89 4.4-4.31 8-4.35 5.23.01 8.55 3.46 8.55 8.89zM509.1 413a12.35 12.35 0 0 1-6 1.59c-4.14 0-7.28-2.37-7.28-7.16v-10.7h-3.23v-4.57h3.23v-6.38h6.59v6.38h6.29v4.61h-6.29v9.57c0 1.94.82 2.72 2.24 2.67a7.72 7.72 0 0 0 3.1-.86zM535.82 402.73c0 7.07-5 11.85-12.42 11.85S511 409.8 511 402.73s5-11.81 12.46-11.81 12.36 4.69 12.36 11.81zm-18.19.09c0 3.79 2.33 6.38 5.78 6.38s5.78-2.59 5.78-6.38-2.37-6.38-5.78-6.38-5.78 2.56-5.78 6.37zM563.37 399.75v14.57h-6.64v-12.63c0-2.93-1.72-4.74-4.57-4.74-3.32 0-5.3 2.54-5.3 5.95v11.42h-6.64v-23.19h6.64v4.05c1.64-2.89 4.4-4.27 8-4.31 5.19 0 8.51 3.45 8.51 8.88zM384.2 361.24c0-.7-.51-1.08-1.41-1.08a7.35 7.35 0 0 0-4.22 2l-1.72-3.3a11.57 11.57 0 0 1 6.65-2.38c3.15 0 5.5 1.65 5.5 4.11 0 1.74-1.3 3.46-3 5.19l-2.77 2.77h6.12v3.56h-11.97v-2.93l5.48-5.68a4.15 4.15 0 0 0 1.34-2.26zM402.94 364.36c0 5.06-2.2 7.83-6.14 7.83s-6.16-2.77-6.16-7.83 2.18-7.83 6.16-7.83 6.14 2.79 6.14 7.83zm-7.94 0c0 3.39.48 4.73 1.8 4.73s1.78-1.34 1.78-4.73-.48-4.71-1.78-4.71-1.8 1.3-1.8 4.71zM412.88 356.66v15.42h-4.58v-11.77h-2.82v-3.65zM430.4 356.64v3.1l-5.54 12.34H420l5.35-11.88h-3.45v2.16h-4v-5.72zM435.61 370.17a2.08 2.08 0 1 1-4.16 0 2.08 2.08 0 0 1 4.16 0zM449.27 364.36c0 5.06-2.2 7.83-6.14 7.83s-6.16-2.77-6.16-7.83 2.18-7.83 6.16-7.83 6.14 2.79 6.14 7.83zm-7.94 0c0 3.39.48 4.73 1.8 4.73s1.78-1.34 1.78-4.73-.48-4.71-1.78-4.71-1.8 1.3-1.8 4.71zM455.34 368.89c2.18 0 3.26-1.28 3.23-3.5a4 4 0 0 1-3.37 1.47c-2.95 0-4.86-2-4.86-5.06 0-3.28 2.31-5.35 5.77-5.35 4.14 0 6.64 2.95 6.64 7.68 0 4.93-2.79 8.14-7.15 8.14a10.08 10.08 0 0 1-5-1.32l1.67-3.06a4.92 4.92 0 0 0 3.07 1zm-.9-7.06a1.63 1.63 0 0 0 1.78 1.83 1.73 1.73 0 0 0 1.91-1.87 1.7 1.7 0 0 0-1.87-1.85 1.68 1.68 0 0 0-1.82 1.89zM468.37 370.17a2.08 2.08 0 1 1-4.16 0 2.08 2.08 0 0 1 4.16 0zM482 364.36c0 5.06-2.2 7.83-6.14 7.83s-6.16-2.77-6.16-7.83 2.18-7.83 6.16-7.83 6.14 2.79 6.14 7.83zm-7.94 0c0 3.39.48 4.73 1.8 4.73s1.78-1.34 1.78-4.73-.48-4.71-1.78-4.71-1.77 1.3-1.77 4.71zM489.51 362.2c3.7 0 6.07 1.87 6.07 4.67 0 3.28-2.53 5.41-6.42 5.41a11.46 11.46 0 0 1-6.27-2l1.83-3.48a5.11 5.11 0 0 0 3.89 2c1.34 0 2-.59 2-1.67s-.7-1.56-2-1.56h-4.33v-9h10.61v3.56h-6.4v2zM501.12 370.17a2.08 2.08 0 1 1-4.16 0 2.08 2.08 0 0 1 4.16 0zM386.51 429.43v8.45c0 2.6-2.06 4.25-5.08 4.25a8 8 0 0 1-4.27-1.21l1.14-2.31a5.33 5.33 0 0 0 2.84.85c1.24 0 2-.58 2-1.48V437a3.09 3.09 0 0 1-2.48 1.11c-2.24 0-3.88-1.77-3.88-4.47s1.58-4.37 3.81-4.37a3.19 3.19 0 0 1 2.55 1.12v-1zm-3.4 4.35c0-1.17-.63-1.94-1.58-1.94s-1.56.78-1.56 1.94.63 1.9 1.56 1.9 1.58-.76 1.58-1.9zM394.87 429.29v3.09c-1.77-.22-2.91.53-2.91 1.87v4.42h-3.43v-9.25H392v1.46a3.31 3.31 0 0 1 2.87-1.59zM399.58 426.79a1.77 1.77 0 1 1-1.77-1.77 1.7 1.7 0 0 1 1.77 1.77zm-.07 2.63v9.25h-3.43v-9.25zM405.11 426.06v12.61h-3.43v-12.61zM410.8 426.06v12.61h-3.43v-12.61zM422 434.89h-6.22a1.8 1.8 0 0 0 1.8 1.38 3 3 0 0 0 2-.88l1.78 1.75a5.33 5.33 0 0 1-4.11 1.67c-3.09 0-5-1.87-5-4.71a4.55 4.55 0 0 1 4.88-4.78c3.26-.01 5.03 2.17 4.87 5.57zm-4.78-3.25c-.82 0-1.34.63-1.51 1.56h2.91a1.41 1.41 0 0 0-1.44-1.56zM422.77 438.68v-2l4.15-4.64h-4v-2.58h8.29v2l-4.15 4.64h4.32v2.57zM441.81 434.89h-6.22a1.8 1.8 0 0 0 1.8 1.38 3 3 0 0 0 2-.88l1.78 1.75a5.33 5.33 0 0 1-4.11 1.67c-3.09 0-5-1.87-5-4.71a4.55 4.55 0 0 1 4.88-4.78c3.31-.01 5.06 2.17 4.87 5.57zm-4-6.32h-2.52l1.82-3.06 3 1zm-.77 3.08c-.82 0-1.34.63-1.51 1.56h2.91a1.41 1.41 0 0 0-1.44-1.57zM446.67 431.59c-.42 0-.7.15-.7.44 0 1 4.83.58 4.83 3.74 0 1.9-1.65 3.06-4.06 3.06a7.4 7.4 0 0 1-4.35-1.31l1.05-2.16a6.36 6.36 0 0 0 3.35 1.14c.46 0 .76-.14.76-.42 0-1.05-4.73-.54-4.73-3.71 0-1.94 1.62-3.09 3.94-3.09a8.13 8.13 0 0 1 4.06 1.12l-1.14 2.16a7.3 7.3 0 0 0-3.01-.97zM464.5 432.68v6h-3.37v-1a3.21 3.21 0 0 1-2.7 1.17 2.81 2.81 0 0 1-3.13-2.91c0-1.78 1.24-2.77 3.57-2.8h2.26c0-.77-.54-1.22-1.6-1.22a7.54 7.54 0 0 0-2.79.66l-.85-2.28a11.92 11.92 0 0 1 4.45-1c2.66-.01 4.16 1.23 4.16 3.38zm-3.37 3v-.83h-1.56c-.68 0-1 .29-1 .87s.37.92 1 .92a1.68 1.68 0 0 0 1.57-1.01z"/>
  <path class="cls-4" d="M480.38 434.1c0 2.84-1.65 4.69-4.2 4.69a3.28 3.28 0 0 1-2.62-1.19v4.4h-3.43v-12.57h3.43v1.07a3.16 3.16 0 0 1 2.53-1.19c2.59 0 4.29 1.9 4.29 4.79zm-3.47-.08c0-1.22-.66-2.06-1.68-2.06s-1.67.83-1.67 2.06.68 2.06 1.67 2.06 1.68-.84 1.68-2.08zM490.24 432.68v6h-3.37v-1a3.21 3.21 0 0 1-2.7 1.17 2.81 2.81 0 0 1-3.13-2.91c0-1.78 1.24-2.77 3.57-2.8h2.26c0-.77-.54-1.22-1.6-1.22a7.55 7.55 0 0 0-2.79.66l-.85-2.28a11.92 11.92 0 0 1 4.45-1c2.62-.01 4.16 1.23 4.16 3.38zm-3.37 3v-.83h-1.56c-.68 0-1 .29-1 .87s.37.92 1 .92a1.68 1.68 0 0 0 1.57-1.01zM498.4 429.29v3.09c-1.77-.22-2.91.53-2.91 1.87v4.42h-3.43v-9.25h3.43v1.46a3.31 3.31 0 0 1 2.91-1.59zM505.93 438.23a5.45 5.45 0 0 1-2.57.59 3 3 0 0 1-3.3-3v-3.72h-1.27v-2.19h1.27v-2.57h3.42v2.57h2.28v2.19h-2.28v3.16c0 .59.31.88.78.88a3.43 3.43 0 0 0 1.05-.27z"/>
  <path class="cls-5" d="M516.79 434.05c0 2.86-2 4.74-5.13 4.74s-5.15-1.89-5.15-4.74 2-4.74 5.15-4.74 5.13 1.87 5.13 4.74zm-6.82 0c0 1.24.66 2.06 1.68 2.06s1.67-.82 1.67-2.06-.66-2.06-1.67-2.06-1.65.87-1.65 2.1zM527.86 432.81v5.86h-3.43v-4.87a1.33 1.33 0 0 0-1.33-1.5 1.59 1.59 0 0 0-1.51 1.8v4.57h-3.43v-9.25h3.43v1.43a3.3 3.3 0 0 1 2.94-1.56 3.24 3.24 0 0 1 3.33 3.52z"/>
  <path class="cls-4" d="M679 358.14c0 5.73-4.7 9.74-12.11 9.74a20.5 20.5 0 0 1-11.55-3.54l2.76-5.43a11.92 11.92 0 0 0 8.28 3.58c3.79 0 5.95-1.64 5.95-4.27s-2.16-4.14-6-4.14h-4.83v-3.75l7.72-7.41H656.9v-5.52h20.6v4.1l-8.75 8.19 1.64.22c5.09.6 8.61 3.53 8.61 8.23zM689.71 364.52a3.32 3.32 0 1 1-6.64 0 3.32 3.32 0 1 1 6.64 0z"/>
  <path class="cls-5" d="M729.84 345a6.61 6.61 0 0 1-5.22 6.64 7.4 7.4 0 0 1 6.29 7.63c0 5.17-4.35 8.36-11.38 8.36h-14.34v-30.22h13.88c6.64 0 10.77 2.88 10.77 7.59zm-7 1.25c0-2.07-1.59-3.23-4.14-3.23H712v6.6h6.72c2.54-.06 4.14-1.31 4.14-3.42zm1 12.16c0-2.2-1.94-3.54-5.17-3.54H712V362h6.72c3.28 0 5.17-1.32 5.17-3.64zM757.78 344.39v23.19h-6.6v-4.1a8.22 8.22 0 0 1-7.76 4.35c-5.13 0-8.36-3.41-8.36-8.88v-14.56h6.64v12.67c0 2.93 1.68 4.7 4.35 4.7 3.19 0 5.13-2.54 5.13-5.91v-11.46zm-18.36-6.77a3.11 3.11 0 1 1 3.1 3.23 3 3 0 0 1-3.11-3.23zm8.1 0a3.11 3.11 0 1 1 3.1 3.23 3 3 0 0 1-3.1-3.23zM774 358.14l-3 3.15v6.29h-6.64v-32H771v17.59l8.49-8.75h7.54l-8.49 8.92 8.88 14.23h-7.85zM800.71 358.14l-3 3.15v6.29h-6.61v-32h6.64v17.59l8.49-8.75h7.54l-8.49 8.92 8.88 14.23h-7.85zM712.92 314.38c0-.7-.51-1.08-1.41-1.08a7.35 7.35 0 0 0-4.22 2l-1.72-3.3a11.56 11.56 0 0 1 6.64-2.37c3.15 0 5.5 1.65 5.5 4.11 0 1.74-1.3 3.46-3 5.19l-2.77 2.77H718v3.56h-11.9v-2.96l5.48-5.68a4.15 4.15 0 0 0 1.34-2.24zM731.66 317.5c0 5.06-2.2 7.83-6.14 7.83s-6.16-2.77-6.16-7.83 2.18-7.83 6.16-7.83 6.14 2.79 6.14 7.83zm-7.94 0c0 3.39.48 4.73 1.8 4.73s1.78-1.34 1.78-4.73-.48-4.71-1.78-4.71-1.8 1.3-1.8 4.71zM741.6 309.8v15.42H737v-11.77h-2.82v-3.65zM759.12 309.78v3.1l-5.54 12.34h-4.84l5.35-11.88h-3.45v2.16h-4v-5.72zM764.33 323.31a2.08 2.08 0 1 1-4.16 0 2.08 2.08 0 0 1 4.16 0zM774.36 309.8v15.42h-4.58v-11.77H767v-3.65zM791.57 317.5c0 5.06-2.2 7.83-6.14 7.83s-6.16-2.77-6.16-7.83 2.18-7.83 6.16-7.83 6.14 2.79 6.14 7.83zm-7.94 0c0 3.39.48 4.73 1.8 4.73s1.78-1.34 1.78-4.73-.48-4.71-1.78-4.71-1.81 1.3-1.81 4.71zM797.09 323.31a2.08 2.08 0 1 1-4.16 0 2.08 2.08 0 0 1 4.16 0zM807.12 309.8v15.42h-4.58v-11.77h-2.82v-3.65zM820.54 309.78l-4 8.93h2.18v-3.12h4.18v3.13h1.87v3.34h-1.87v3.17h-4.18v-3.17H812v-3l4.27-9.29zM829.84 323.31a2.08 2.08 0 1 1-4.16 0 2.08 2.08 0 0 1 4.16 0zM716.52 391.39c0 2.84-1.65 4.69-4.2 4.69a3.27 3.27 0 0 1-2.62-1.19V396h-3.43v-12.65h3.43v4.44a3.15 3.15 0 0 1 2.53-1.19c2.59 0 4.29 1.9 4.29 4.79zm-3.47-.08c0-1.22-.66-2.06-1.68-2.06s-1.67.83-1.67 2.06.68 2.06 1.67 2.06 1.68-.84 1.68-2.06zM727.16 386.72V396h-3.43v-1.38a3.32 3.32 0 0 1-6.1-2v-5.86h3.43v4.9c0 .9.49 1.48 1.24 1.48s1.43-.75 1.43-1.8v-4.57zm-7.9-2.58a1.46 1.46 0 1 1 1.46 1.46 1.41 1.41 0 0 1-1.46-1.46zm3.43 0a1.46 1.46 0 1 1 1.46 1.46 1.41 1.41 0 0 1-1.46-1.46zM733.45 392.75l-.7.73V396h-3.43v-12.65h3.43v6.14l2.55-2.77h3.88l-3.38 3.57 3.4 5.68h-4.06zM744.47 392.75l-.7.73V396h-3.43v-12.65h3.43v6.14l2.55-2.77h3.88l-3.38 3.57 3.4 5.68h-4.06z"/>
  <path class="cls-5" d="M760.35 391.34c0 2.86-2 4.74-5.13 4.74s-5.15-1.89-5.15-4.74 2-4.74 5.15-4.74 5.13 1.87 5.13 4.74zm-5.35-7.2a1.46 1.46 0 1 1-1.46-1.46 1.41 1.41 0 0 1 1.46 1.46zm-1.43 7.24c0 1.24.66 2.06 1.68 2.06s1.67-.82 1.67-2.06-.66-2.06-1.67-2.06-1.72.83-1.72 2.06zm4.86-7.24a1.46 1.46 0 1 1-1.46-1.46 1.41 1.41 0 0 1 1.42 1.46zM765.23 383.35V396h-3.43v-12.65zM776.38 392.18h-6.22a1.8 1.8 0 0 0 1.8 1.38 3 3 0 0 0 2-.88l1.78 1.75a5.33 5.33 0 0 1-4.11 1.67c-3.09 0-5-1.87-5-4.71a4.55 4.55 0 0 1 4.88-4.78c3.3-.01 5.07 2.17 4.87 5.57zm-4-6.32h-2.52l1.82-3.06 3 1zm-.77 3.08c-.82 0-1.34.63-1.51 1.56h2.9a1.41 1.41 0 0 0-1.4-1.57zM781.24 388.88c-.42 0-.7.15-.7.44 0 1 4.83.58 4.83 3.74 0 1.9-1.65 3.06-4.06 3.06a7.4 7.4 0 0 1-4.35-1.31l1.05-2.16a6.36 6.36 0 0 0 3.35 1.14c.46 0 .76-.14.76-.42 0-1.05-4.73-.54-4.73-3.71 0-1.94 1.62-3.09 3.94-3.09a8.13 8.13 0 0 1 4.06 1.12l-1.14 2.16a7.3 7.3 0 0 0-3.01-.97zM714.69 410.37v6h-3.37v-1a3.21 3.21 0 0 1-2.7 1.17 2.81 2.81 0 0 1-3.13-2.91c0-1.79 1.24-2.77 3.57-2.8h2.26c0-.76-.54-1.22-1.6-1.22a7.53 7.53 0 0 0-2.79.66l-.85-2.28a11.94 11.94 0 0 1 4.45-1c2.61.01 4.16 1.23 4.16 3.38zm-3.37 3v-.83h-1.56c-.68 0-1 .29-1 .87s.37.92 1 .92a1.68 1.68 0 0 0 1.56-1.01z"/>
  <path class="cls-4" d="M727.18 416.37l-1.58-3.21h-1.87v3.21h-3.54v-11.92h5.56c3.2 0 5 1.53 5 4.23a4.07 4.07 0 0 1-2 3.79l2.41 3.89zm-3.45-5.93h2a1.63 1.63 0 1 0 0-3.26h-2zM741.53 412.58h-6.22a1.8 1.8 0 0 0 1.8 1.38 3 3 0 0 0 2-.88l1.78 1.75a5.33 5.33 0 0 1-4.11 1.67c-3.09 0-5-1.87-5-4.71a4.55 4.55 0 0 1 4.88-4.78c3.34-.01 5.07 2.17 4.87 5.57zm-4.78-3.25c-.82 0-1.34.63-1.51 1.56h2.91a1.41 1.41 0 0 0-1.4-1.56zM742.87 419.8a5.22 5.22 0 0 1-2.5-.58l.8-2.38a2 2 0 0 0 1 .29c.51 0 .82-.29.82-.88v-9.13h3.43v9.54c-.01 1.98-1.47 3.16-3.55 3.14zm3.72-15.32a1.91 1.91 0 1 1-1.9-1.77 1.76 1.76 0 0 1 1.9 1.78zM754.92 415.92a5.45 5.45 0 0 1-2.57.59 3 3 0 0 1-3.3-3v-3.69h-1.27v-2.22h1.27V405h3.42v2.57h2.28v2.19h-2.28V413c0 .59.31.88.78.88a3.45 3.45 0 0 0 1.05-.27zM765.19 412.58H759a1.8 1.8 0 0 0 1.8 1.38 3 3 0 0 0 2-.88l1.79 1.75a5.33 5.33 0 0 1-4.11 1.67c-3.09 0-5-1.87-5-4.71a4.55 4.55 0 0 1 4.88-4.78c3.27-.01 5.04 2.17 4.83 5.57zm-4.78-3.25c-.82 0-1.34.63-1.51 1.56h2.91a1.41 1.41 0 0 0-1.39-1.56zM770.79 413.15l-.7.73v2.48h-3.43v-12.61h3.43v6.14l2.55-2.77h3.88l-3.38 3.57 3.4 5.68h-4.06zM785.52 413.15l-.7.73v2.48h-3.43v-12.61h3.43v6.14l2.55-2.77h3.88l-3.38 3.57 3.4 5.68h-4.06zM801.61 407.12v9.25h-3.43V415a3.32 3.32 0 0 1-6.1-2v-5.86h3.43V412c0 .9.49 1.48 1.24 1.48s1.43-.75 1.43-1.8v-4.57zM810 415.92a5.45 5.45 0 0 1-2.57.59 3 3 0 0 1-3.3-3v-3.69h-1.28v-2.22h1.28V405h3.42v2.57h2.28v2.19h-2.28V413c0 .59.31.88.78.88a3.45 3.45 0 0 0 1.05-.27zM819.81 410.37v6h-3.37v-1a3.21 3.21 0 0 1-2.7 1.17 2.81 2.81 0 0 1-3.13-2.91c0-1.79 1.24-2.77 3.57-2.8h2.26c0-.76-.54-1.22-1.6-1.22a7.53 7.53 0 0 0-2.79.66l-.85-2.28a11.94 11.94 0 0 1 4.45-1c2.62.01 4.16 1.23 4.16 3.38zm-3.37 3v-.83h-1.56c-.68 0-1 .29-1 .87s.37.92 1 .92a1.68 1.68 0 0 0 1.57-1.01zM828 415.92a5.45 5.45 0 0 1-2.57.59 3 3 0 0 1-3.3-3v-3.69h-1.27v-2.22h1.27V405h3.42v2.57h2.28v2.19h-2.28V413c0 .59.31.88.78.88a3.45 3.45 0 0 0 1.05-.27zM838.82 411.74c0 2.86-2 4.74-5.13 4.74s-5.15-1.89-5.15-4.74 2-4.74 5.15-4.74 5.13 1.87 5.13 4.74zm-6.82 0c0 1.24.66 2.06 1.68 2.06s1.67-.82 1.67-2.06-.66-2.06-1.67-2.06-1.68.87-1.68 2.1zm4.83-7.6l-2.28 2.07H832l1.82-3.06zM850 410.5v5.86h-3.43v-4.88a1.32 1.32 0 0 0-1.33-1.5 1.59 1.59 0 0 0-1.51 1.8v4.57h-3.43v-12.6h3.43v4.79a3.3 3.3 0 0 1 2.94-1.56 3.23 3.23 0 0 1 3.33 3.52zM860.29 410.37v6h-3.37v-1a3.21 3.21 0 0 1-2.7 1.17 2.81 2.81 0 0 1-3.13-2.91c0-1.79 1.24-2.77 3.57-2.8h2.26c0-.76-.54-1.22-1.6-1.22a7.53 7.53 0 0 0-2.79.66l-.85-2.28a11.94 11.94 0 0 1 4.45-1c2.61.01 4.16 1.23 4.16 3.38zm-3.5-4.11h-2.52l1.82-3.06 3 1zm.14 7.07v-.83h-1.56c-.68 0-1 .29-1 .87s.37.92 1 .92a1.68 1.68 0 0 0 1.55-.97zM861.53 416.37v-2l4.15-4.64h-4v-2.58H870v2l-4.15 4.64h4.32v2.57z"/>
  <path class="cls-5" d="M881.95 411.79c0 2.84-1.65 4.69-4.2 4.69a3.28 3.28 0 0 1-2.62-1.19v1.07h-3.43v-12.61h3.43v4.44a3.15 3.15 0 0 1 2.53-1.19c2.59 0 4.29 1.9 4.29 4.79zm-3.47-.08c0-1.22-.66-2.06-1.68-2.06s-1.67.83-1.67 2.06.68 2.06 1.67 2.06 1.68-.84 1.68-2.06zM891.81 410.37v6h-3.37v-1a3.21 3.21 0 0 1-2.7 1.17 2.81 2.81 0 0 1-3.13-2.91c0-1.79 1.24-2.77 3.57-2.8h2.26c0-.76-.54-1.22-1.6-1.22a7.53 7.53 0 0 0-2.79.66l-.85-2.28a11.94 11.94 0 0 1 4.45-1c2.61.01 4.16 1.23 4.16 3.38zm-3.37 3v-.83h-1.56c-.68 0-1 .29-1 .87s.37.92 1 .92a1.68 1.68 0 0 0 1.56-1.01zM903.33 410.5v5.86h-3.43v-4.88a1.33 1.33 0 0 0-1.33-1.5 1.59 1.59 0 0 0-1.51 1.8v4.57h-3.43v-9.25h3.43v1.43A3.3 3.3 0 0 1 900 407a3.24 3.24 0 0 1 3.33 3.5z"/>
  <path class="cls-1" d="M617.43 178.01h206.72v9H617.43z"/>
  <path class="cls-4" d="M583.85 160.09c0-1.94-1.51-3.06-4.14-3.06s-5.69 1.47-8.41 3.79l-2.67-5.09a20.1 20.1 0 0 1 12.07-4.48c6 0 10.3 3.06 10.3 7.8 0 3.23-2.46 6.59-5.78 10l-7 6.94h13.88v5.73h-22.69v-4.7l11.16-11.51c1.94-1.89 3.28-3.96 3.28-5.42zM602.3 178.71a3.32 3.32 0 1 1-6.64 0 3.32 3.32 0 1 1 6.64 0z"/>
  <path class="cls-5" d="M642.43 159.14a6.61 6.61 0 0 1-5.22 6.64 7.4 7.4 0 0 1 6.29 7.63c0 5.17-4.35 8.36-11.38 8.36h-14.35v-30.18h13.88c6.64 0 10.78 2.89 10.78 7.55zm-7 1.25c0-2.07-1.59-3.23-4.14-3.23h-6.72v6.6h6.72c2.56-.01 4.16-1.26 4.16-3.37zm1 12.16c0-2.2-1.94-3.54-5.17-3.54h-6.72v7.2h6.72c3.28 0 5.22-1.34 5.22-3.67zM670.36 158.58v23.19h-6.6v-4.1A8.22 8.22 0 0 1 656 182c-5.13 0-8.36-3.41-8.36-8.88v-14.54h6.64v12.67c0 2.93 1.68 4.7 4.35 4.7 3.19 0 5.13-2.54 5.13-5.91v-11.46zM699.68 149.78v32h-6.6v-3.41a8.47 8.47 0 0 1-7.33 3.66c-6.59 0-10.95-4.79-10.95-11.94s4.31-11.77 10.78-11.77a8.73 8.73 0 0 1 7.5 3.66v-12.2zm-6.6 20.48c0-3.79-2.37-6.42-5.78-6.42s-5.82 2.67-5.86 6.42 2.37 6.42 5.86 6.42 5.78-2.63 5.78-6.42zM719.77 181.77v-2.72c-1.55 1.94-4.05 3-7.29 3-5 0-8-3-8-7.24s3.15-6.94 8.84-7h6.38v-.43c0-2.46-1.64-3.88-4.83-3.88a14.69 14.69 0 0 0-6.9 2l-2.04-4.5a21.74 21.74 0 0 1 10.48-2.67c6.21 0 9.78 3.1 9.83 8.32v15.13zm0-7.93v-2.07h-5.22c-2.54 0-3.79.78-3.79 2.63s1.38 2.93 3.62 2.93c2.76 0 4.96-1.51 5.34-3.49zM757.1 170.3c0 7-4.27 11.73-10.78 11.73a8.78 8.78 0 0 1-7.46-3.62v11.72h-6.64v-31.55h6.64V162a8.59 8.59 0 0 1 7.33-3.62c6.51-.02 10.91 4.77 10.91 11.92zm-6.72-.21c0-3.71-2.33-6.38-5.73-6.38s-5.78 2.63-5.78 6.38 2.37 6.42 5.78 6.42 5.73-2.63 5.73-6.42zM782.84 172.2H766.2a5.93 5.93 0 0 0 6 4.66 8.22 8.22 0 0 0 5.86-2.46l3.49 3.53a12.93 12.93 0 0 1-9.91 4.1c-7.41 0-12.11-4.74-12.11-11.77s4.87-11.9 11.94-11.9c8.13 0 11.93 5.39 11.37 13.84zm-6.21-3.92a4.84 4.84 0 0 0-5.13-5c-2.93 0-4.91 2-5.43 5zM794.78 163.15c-1.55 0-2.67.52-2.67 1.72 0 3.49 12.24 1.72 12.2 9.91 0 4.74-4.18 7.24-9.44 7.24a16.19 16.19 0 0 1-10-3.23l2.16-4.48a14 14 0 0 0 7.97 2.89c1.68 0 2.93-.56 2.93-1.81 0-3.71-12-1.72-12-9.87 0-4.79 4.1-7.24 9.14-7.24a17.29 17.29 0 0 1 9.05 2.59l-2.29 4.53a15.69 15.69 0 0 0-7.05-2.25zM823.1 180.48a12.35 12.35 0 0 1-6 1.59c-4.14 0-7.29-2.37-7.29-7.16v-10.73h-3.23v-4.57h3.23v-6.38h6.6v6.38h6.29v4.61h-6.29v9.57c0 1.94.82 2.72 2.24 2.67a7.72 7.72 0 0 0 3.1-.86z"/>
  <path class="cls-1" d="M617.43 137.29h127.14v9H617.43zM617.43 204.01h285.33v9H617.43z"/>
  <path class="cls-5" d="M626.2 129c0-.7-.51-1.08-1.41-1.08a7.34 7.34 0 0 0-4.22 2l-1.72-3.3a11.56 11.56 0 0 1 6.64-2.38c3.15 0 5.5 1.65 5.5 4.11 0 1.74-1.3 3.45-3 5.19l-2.77 2.77h6.12v3.56h-11.96v-2.97l5.48-5.68a4.14 4.14 0 0 0 1.34-2.22zM644.94 132.11c0 5.06-2.2 7.83-6.14 7.83s-6.16-2.77-6.16-7.83 2.18-7.83 6.16-7.83 6.14 2.79 6.14 7.83zm-7.94 0c0 3.39.48 4.73 1.8 4.73s1.78-1.34 1.78-4.73-.48-4.71-1.78-4.71-1.8 1.3-1.8 4.71zM654.88 124.41v15.42h-4.58v-11.77h-2.82v-3.65zM672.4 124.38v3.1l-5.54 12.34H662l5.35-11.88h-3.45v2.16h-4v-5.72zM677.61 137.92a2.08 2.08 0 1 1-4.16 0 2.08 2.08 0 0 1 4.16 0zM691.27 132.11c0 5.06-2.2 7.83-6.14 7.83s-6.16-2.77-6.16-7.83 2.18-7.83 6.16-7.83 6.14 2.79 6.14 7.83zm-7.94 0c0 3.39.48 4.73 1.8 4.73s1.78-1.34 1.78-4.73-.48-4.71-1.78-4.71-1.8 1.3-1.8 4.71zM697.34 136.64c2.18 0 3.26-1.28 3.23-3.5a4 4 0 0 1-3.37 1.47c-2.95 0-4.86-2-4.86-5.06 0-3.28 2.31-5.35 5.77-5.35 4.14 0 6.64 2.95 6.64 7.68 0 4.93-2.79 8.14-7.15 8.14a10.07 10.07 0 0 1-5-1.32l1.67-3.06a4.92 4.92 0 0 0 3.07 1zm-.9-7.06a1.63 1.63 0 0 0 1.78 1.83 1.72 1.72 0 0 0 1.91-1.87 1.85 1.85 0 1 0-3.7 0zM710.37 137.92a2.08 2.08 0 1 1-4.16 0 2.08 2.08 0 0 1 4.16 0zM718.86 129c0-.7-.51-1.08-1.41-1.08a7.34 7.34 0 0 0-4.22 2l-1.72-3.3a11.56 11.56 0 0 1 6.64-2.38c3.15 0 5.5 1.65 5.5 4.11 0 1.74-1.3 3.45-3 5.19l-2.77 2.77H724v3.56h-12v-2.97l5.48-5.68a4.14 4.14 0 0 0 1.38-2.22zM737 128.43a3.82 3.82 0 0 1-1.69 3.13 4.38 4.38 0 0 1 2.51 3.89c0 2.79-2.51 4.58-6.36 4.58s-6.32-1.76-6.32-4.49a4.43 4.43 0 0 1 2.71-4 4.07 4.07 0 0 1-1.91-3.26c0-2.51 2.18-4.11 5.5-4.11s5.56 1.69 5.56 4.26zm-7.59 6.65c0 1.08.73 1.67 2 1.67s2.09-.59 2.09-1.67-.75-1.72-2.07-1.72-2.03.64-2.03 1.72zm.33-6.4c0 .92.59 1.43 1.72 1.43s1.74-.51 1.74-1.43-.59-1.5-1.74-1.5-1.73.53-1.73 1.49zM743.12 137.92a2.08 2.08 0 1 1-4.16 0 2.08 2.08 0 0 1 4.16 0zM633.22 200.06v5.86h-3.43V201c0-.92-.51-1.5-1.28-1.5s-1.44.75-1.44 1.8v4.57h-3.43V201c0-.92-.51-1.5-1.27-1.5s-1.46.75-1.46 1.8v4.57h-3.43v-9.25h3.43v1.41a3.23 3.23 0 0 1 2.87-1.55 3.11 3.11 0 0 1 3 2 3.27 3.27 0 0 1 3.13-2 3.21 3.21 0 0 1 3.31 3.58zM644 202.13h-6.2a1.8 1.8 0 0 0 1.8 1.38 3 3 0 0 0 2-.88l1.78 1.75a5.33 5.33 0 0 1-4.11 1.67c-3.09 0-5-1.87-5-4.71a4.55 4.55 0 0 1 4.88-4.78c3.31 0 5.07 2.17 4.85 5.57zm-4.78-3.25c-.82 0-1.34.63-1.51 1.56h2.91a1.41 1.41 0 0 0-1.38-1.55zM654.37 202.13h-6.22a1.8 1.8 0 0 0 1.8 1.38 3 3 0 0 0 2-.88l1.78 1.75a5.33 5.33 0 0 1-4.11 1.67c-3.09 0-5-1.87-5-4.71a4.55 4.55 0 0 1 4.88-4.78c3.31 0 5.08 2.17 4.87 5.57zm-4.78-3.25c-.82 0-1.34.63-1.51 1.56H651a1.41 1.41 0 0 0-1.4-1.55zM662.07 205.48a5.45 5.45 0 0 1-2.57.59 3 3 0 0 1-3.3-3v-3.69h-1.27v-2.19h1.27v-2.57h3.42v2.57h2.28v2.19h-2.28v3.16c0 .59.31.88.78.88a3.45 3.45 0 0 0 1.05-.27zM672.66 196.68v9.25h-3.43v-1.38a3.32 3.32 0 0 1-6.1-2v-5.86h3.43v4.9c0 .9.49 1.48 1.24 1.48s1.43-.75 1.43-1.8v-4.57zM685.07 201.35c0 2.84-1.65 4.69-4.2 4.69a3.28 3.28 0 0 1-2.62-1.19v4.37h-3.43v-12.54h3.43v1.07a3.15 3.15 0 0 1 2.53-1.19c2.59 0 4.29 1.9 4.29 4.79zm-3.47-.08c0-1.22-.66-2.06-1.68-2.06s-1.67.83-1.67 2.06.68 2.06 1.67 2.06 1.69-.84 1.69-2.06zM698.66 199.92v6h-3.37v-1a3.21 3.21 0 0 1-2.7 1.17 2.81 2.81 0 0 1-3.13-2.91c0-1.79 1.24-2.77 3.57-2.8h2.26c0-.76-.54-1.22-1.6-1.22a7.52 7.52 0 0 0-2.79.66l-.85-2.28a11.94 11.94 0 0 1 4.45-1c2.61 0 4.16 1.24 4.16 3.38zm-3.37 3V202h-1.56c-.68 0-1 .29-1 .87s.37.92 1 .92a1.68 1.68 0 0 0 1.56-.91z"/>
  <path class="cls-4" d="M714.42 198.24c0 2.84-1.77 4.47-4.84 4.47h-1.88v3.21h-3.54V194h5.41c3.08 0 4.85 1.54 4.85 4.24zm-3.35.1a1.49 1.49 0 0 0-1.67-1.62h-1.7V200h1.7a1.5 1.5 0 0 0 1.67-1.66zM722.15 196.54v3.09c-1.77-.22-2.91.53-2.91 1.87v4.42h-3.43v-9.25h3.43v1.46a3.31 3.31 0 0 1 2.91-1.59zM732.33 202.13h-6.22a1.8 1.8 0 0 0 1.8 1.38 3 3 0 0 0 2-.88l1.78 1.75a5.33 5.33 0 0 1-4.11 1.67c-3.09 0-5-1.87-5-4.71a4.55 4.55 0 0 1 4.88-4.78c3.31 0 5.08 2.17 4.87 5.57zm-4.78-3.25c-.82 0-1.34.63-1.51 1.56H729a1.41 1.41 0 0 0-1.44-1.55zM749.47 200.06v5.86H746V201c0-.92-.51-1.5-1.27-1.5s-1.45.75-1.45 1.8v4.57h-3.43V201c0-.92-.51-1.5-1.27-1.5s-1.46.75-1.46 1.8v4.57h-3.43v-9.25h3.43v1.41a3.22 3.22 0 0 1 2.87-1.55 3.11 3.11 0 0 1 3 2 3.27 3.27 0 0 1 3.13-2 3.21 3.21 0 0 1 3.35 3.58zM754.79 194a1.77 1.77 0 1 1-1.77-1.77 1.7 1.7 0 0 1 1.77 1.77zm-.07 2.63v9.25h-3.43v-9.25zM765.77 202.13h-6.22a1.8 1.8 0 0 0 1.8 1.38 3 3 0 0 0 2-.88l1.79 1.75a5.34 5.34 0 0 1-4.11 1.67c-3.09 0-5-1.87-5-4.71a4.55 4.55 0 0 1 4.88-4.78c3.3 0 5.09 2.17 4.86 5.57zm-4.77-3.24c-.82 0-1.34.63-1.51 1.56h2.91a1.41 1.41 0 0 0-1.4-1.56zM773.49 196.54v3.09c-1.77-.22-2.91.53-2.91 1.87v4.42h-3.43v-9.25h3.43v1.46a3.31 3.31 0 0 1 2.91-1.59zM783.67 202.13h-6.22a1.8 1.8 0 0 0 1.8 1.38 3 3 0 0 0 2-.88l1.79 1.75A5.34 5.34 0 0 1 779 206c-3.09 0-5-1.87-5-4.71a4.55 4.55 0 0 1 4.88-4.78c3.23.05 5 2.22 4.79 5.62zm-4.78-3.25c-.82 0-1.34.63-1.51 1.56h2.91a1.41 1.41 0 0 0-1.39-1.55zM796.39 205.92l-2.77-4.35-1.34 1.5v2.86h-3.54V194h3.54v4.59l4-4.59h4.08l-4.36 4.85 4.59 7.07zM811 196.68v9.25h-3.43v-1.38a3.32 3.32 0 0 1-6.1-2v-5.86h3.43v4.9c0 .9.49 1.48 1.24 1.48s1.43-.75 1.43-1.8v-4.57zM816.58 193.31v12.61h-3.43v-12.61zM825.08 205.48a5.45 5.45 0 0 1-2.57.59 3 3 0 0 1-3.3-3v-3.69h-1.27v-2.19h1.27v-2.57h3.42v2.57h2.28v2.19h-2.28v3.16c0 .59.31.88.78.88a3.45 3.45 0 0 0 1.05-.27zM835.86 196.85a3.08 3.08 0 0 0 0 6.14 4.31 4.31 0 0 0 2.84-1.38l2 2.18a7.2 7.2 0 0 1-5 2.29 6 6 0 0 1-6.29-6.14c0-3.47 2.72-6 6.41-6a7 7 0 0 1 4.93 2.11l-2 2.41a3.88 3.88 0 0 0-2.89-1.61zM850.21 199.92v6h-3.37v-1a3.21 3.21 0 0 1-2.7 1.17 2.81 2.81 0 0 1-3.13-2.91c0-1.79 1.24-2.77 3.57-2.8h2.26c0-.76-.54-1.22-1.6-1.22a7.52 7.52 0 0 0-2.79.66l-.85-2.28a11.94 11.94 0 0 1 4.45-1c2.61 0 4.16 1.24 4.16 3.38zm-3.37 3V202h-1.56c-.68 0-1 .29-1 .87s.37.92 1 .92a1.68 1.68 0 0 0 1.56-.91zM856.06 196.71v.44H858v2.19h-1.92v6.58h-3.4v-6.58h-1.28v-2.19h1.26v-.85c0-2 1.51-3.16 3.69-3.14a6.14 6.14 0 0 1 2.84.66l-1.19 2.36a1.85 1.85 0 0 0-1-.36.86.86 0 0 0-.94.89zM867.79 202.13h-6.22a1.8 1.8 0 0 0 1.8 1.38 3 3 0 0 0 2-.88l1.79 1.75a5.34 5.34 0 0 1-4.11 1.67c-3.09 0-5-1.87-5-4.71a4.55 4.55 0 0 1 4.88-4.78c3.29 0 5.07 2.17 4.86 5.57zm-4-6.32h-2.52l1.82-3.06 3 1zm-.76 3.08c-.82 0-1.34.63-1.51 1.56h2.91a1.41 1.41 0 0 0-1.43-1.56z"/>
  <path class="cls-5" d="M879.5 201.35c0 2.84-1.65 4.69-4.2 4.69a3.28 3.28 0 0 1-2.62-1.19v1.07h-3.43v-12.61h3.43v4.44a3.15 3.15 0 0 1 2.53-1.19c2.59 0 4.29 1.9 4.29 4.79zm-3.47-.08c0-1.22-.66-2.06-1.68-2.06s-1.67.83-1.67 2.06.68 2.06 1.67 2.06 1.65-.84 1.65-2.06zM889.36 199.92v6H886v-1a3.21 3.21 0 0 1-2.7 1.17 2.81 2.81 0 0 1-3.13-2.91c0-1.79 1.24-2.77 3.57-2.8H886c0-.76-.54-1.22-1.6-1.22a7.52 7.52 0 0 0-2.79.66l-.85-2.28a12 12 0 0 1 4.45-1c2.6 0 4.15 1.24 4.15 3.38zm-3.37 3V202h-1.56c-.68 0-1 .29-1 .87s.37.92 1 .92a1.68 1.68 0 0 0 1.57-.91zM900.89 200.06v5.86h-3.43V201a1.33 1.33 0 0 0-1.33-1.5 1.59 1.59 0 0 0-1.51 1.8v4.57h-3.43v-9.25h3.43v1.43a3.29 3.29 0 0 1 2.94-1.56 3.24 3.24 0 0 1 3.33 3.57z"/>
  <path class="cls-3" d="M181 79.91c0 9.87-4.14 15.3-11.64 15.3s-11.68-5.43-11.68-15.3 4.14-15.3 11.68-15.3S181 70.08 181 79.91zm-16.73 0c0 7.16 1.59 10.3 5.09 10.3s5-3.15 5-10.3-1.6-10.3-5-10.3-5.06 3.1-5.06 10.3zM191 92a3.32 3.32 0 1 1-6.64 0 3.32 3.32 0 1 1 6.64 0z"/>
  <path class="cls-6" d="M213.31 64.86v12.59H227V64.86h6.81V95H227V83.14h-13.69V95h-6.81V64.86zM253.75 95v-2.68c-1.55 1.94-4.05 3-7.29 3-5 0-8-3-8-7.24s3.15-6.94 8.84-7h6.38v-.43c0-2.46-1.64-3.88-4.83-3.88a14.69 14.69 0 0 0-6.9 2l-2.07-4.57a21.74 21.74 0 0 1 10.48-2.67c6.21 0 9.78 3.1 9.83 8.32v15.13zm0-7.93V85h-5.22c-2.54 0-3.79.78-3.79 2.63s1.38 2.93 3.62 2.93c2.76.04 4.96-1.47 5.34-3.45zM280.34 93.74a12.35 12.35 0 0 1-6 1.59c-4.14 0-7.28-2.37-7.28-7.16V77.45h-3.23v-4.57H267V66.5h6.6v6.38h6.29v4.61h-6.29v9.57c0 1.94.82 2.72 2.24 2.67a7.72 7.72 0 0 0 3.1-.86zM298.71 93.74a12.35 12.35 0 0 1-6 1.59c-4.14 0-7.28-2.37-7.28-7.16V77.45h-3.23v-4.57h3.23V66.5H292v6.38h6.29v4.61H292v9.57c0 1.94.82 2.72 2.24 2.67a7.72 7.72 0 0 0 3.1-.86zM316.17 95v-2.68c-1.55 1.94-4.05 3-7.29 3-5 0-8-3-8-7.24s3.15-6.94 8.84-7h6.38v-.43c0-2.46-1.64-3.88-4.83-3.88a14.69 14.69 0 0 0-6.9 2l-2.07-4.57a21.74 21.74 0 0 1 10.48-2.67c6.21 0 9.78 3.1 9.83 8.32v15.13zm0-7.93V85h-5.22c-2.54 0-3.79.78-3.79 2.63s1.38 2.93 3.62 2.93c2.76.04 4.96-1.47 5.35-3.45zM166.73 41.51c0-.7-.51-1.08-1.41-1.08a7.35 7.35 0 0 0-4.22 2l-1.72-3.3a11.57 11.57 0 0 1 6.62-2.41c3.15 0 5.5 1.65 5.5 4.11 0 1.74-1.3 3.46-3 5.19l-2.77 2.77h6.12v3.56H159.9v-2.92l5.48-5.68a4.15 4.15 0 0 0 1.35-2.24zM185.47 44.64c0 5.06-2.2 7.83-6.14 7.83s-6.16-2.77-6.16-7.83 2.18-7.83 6.16-7.83 6.14 2.79 6.14 7.83zm-7.94 0c0 3.39.48 4.73 1.8 4.73s1.78-1.34 1.78-4.73-.48-4.71-1.78-4.71-1.8 1.3-1.8 4.71zM195.41 36.94v15.42h-4.58V40.59H188v-3.65zM207.82 40.11c-2.16 0-3.26 1.3-3.23 3.52a4 4 0 0 1 3.41-1.48 4.67 4.67 0 0 1 4.88 5c0 3.28-2.31 5.37-5.76 5.37-4.14 0-6.67-3-6.67-7.7 0-4.93 2.82-8.12 7.15-8.12a10.32 10.32 0 0 1 5 1.3l-1.67 3.08a5 5 0 0 0-3.11-.97zm-2.82 7.1a1.71 1.71 0 0 0 1.89 1.85 1.69 1.69 0 0 0 1.85-1.89 1.65 1.65 0 0 0-1.8-1.83 1.75 1.75 0 0 0-1.94 1.87zM218.14 50.45a2.08 2.08 0 1 1-4.16 0 2.08 2.08 0 0 1 4.16 0zM231.8 44.64c0 5.06-2.2 7.83-6.14 7.83s-6.16-2.77-6.16-7.83 2.18-7.83 6.16-7.83 6.14 2.79 6.14 7.83zm-7.94 0c0 3.39.48 4.73 1.8 4.73s1.78-1.34 1.78-4.73-.48-4.71-1.78-4.71-1.8 1.3-1.8 4.71zM237.87 49.17c2.18 0 3.26-1.28 3.23-3.5a4 4 0 0 1-3.37 1.47c-2.95 0-4.86-2-4.86-5.06 0-3.28 2.31-5.35 5.77-5.35 4.14 0 6.64 2.95 6.64 7.68 0 4.93-2.79 8.14-7.15 8.14a10.08 10.08 0 0 1-5-1.32l1.67-3.06a4.92 4.92 0 0 0 3.07 1zm-.9-7.06a1.63 1.63 0 0 0 1.78 1.83 1.73 1.73 0 0 0 1.91-1.87 1.7 1.7 0 0 0-1.87-1.85 1.68 1.68 0 0 0-1.79 1.89zM250.9 50.45a2.08 2.08 0 1 1-4.16 0 2.08 2.08 0 0 1 4.16 0zM259.39 41.51c0-.7-.51-1.08-1.41-1.08a7.35 7.35 0 0 0-4.22 2L252 39.09a11.57 11.57 0 0 1 6.65-2.38c3.15 0 5.5 1.65 5.5 4.11 0 1.74-1.3 3.46-3 5.19l-2.75 2.79h6.12v3.56h-11.95v-2.93l5.43-5.67a4.15 4.15 0 0 0 1.39-2.25zM277.52 41a3.81 3.81 0 0 1-1.69 3.12 4.38 4.38 0 0 1 2.5 3.88c0 2.79-2.51 4.58-6.36 4.58s-6.31-1.76-6.31-4.49a4.43 4.43 0 0 1 2.71-4 4.07 4.07 0 0 1-1.91-3.26c0-2.51 2.18-4.11 5.5-4.11s5.56 1.67 5.56 4.28zm-7.59 6.64c0 1.08.73 1.67 2 1.67s2.09-.59 2.09-1.67-.75-1.72-2.07-1.72-2.03.59-2.03 1.69zm.33-6.4c0 .92.59 1.43 1.72 1.43s1.74-.51 1.74-1.43-.59-1.5-1.74-1.5-1.73.5-1.73 1.47zM283.65 50.45a2.08 2.08 0 1 1-4.16 0 2.08 2.08 0 0 1 4.16 0zM163.51 106.63v12.61h-3.43v-12.61zM174.19 113.25v6h-3.37v-1a3.21 3.21 0 0 1-2.7 1.17 2.81 2.81 0 0 1-3.13-2.91c0-1.78 1.24-2.77 3.57-2.8h2.26c0-.77-.54-1.22-1.6-1.22a7.54 7.54 0 0 0-2.79.66l-.85-2.28a11.92 11.92 0 0 1 4.45-1c2.61-.01 4.16 1.24 4.16 3.38zm-3.5-4.11h-2.52l1.82-3.06 3 1zm.14 7.07v-.83h-1.56c-.68 0-1 .29-1 .87s.37.92 1 .92a1.68 1.68 0 0 0 1.55-.96zM185.71 113.38v5.86h-3.43v-4.88a1.33 1.33 0 0 0-1.33-1.5 1.59 1.59 0 0 0-1.51 1.8v4.57H176V110h3.43v1.43a3.3 3.3 0 0 1 2.94-1.56 3.24 3.24 0 0 1 3.34 3.51zM189.15 122.7a4.65 4.65 0 0 1-3-1l1.43-2.29a1.76 1.76 0 0 0 1.24.53 1 1 0 0 0 1-.59l.18-.35-3.82-9h3.52l2 5.66 1.72-5.66h3.42L193 120a3.82 3.82 0 0 1-3.85 2.7zM202 116l-.7.73v2.48h-3.43v-12.58h3.43v6.14l2.55-2.77h3.88l-3.38 3.57 3.4 5.68h-4.06z"/>
  <path class="cls-6" d="M217.27 115.46H211a1.8 1.8 0 0 0 1.8 1.38 3 3 0 0 0 2-.88l1.78 1.75a5.33 5.33 0 0 1-4.11 1.67c-3.09 0-5-1.87-5-4.71a4.55 4.55 0 0 1 4.88-4.78c3.35-.01 5.12 2.17 4.92 5.57zm-4-6.32h-2.52l1.82-3.06 3 1zm-.77 3.08c-.82 0-1.34.63-1.51 1.56h2.91a1.41 1.41 0 0 0-1.41-1.57zM225 109.86V113c-1.77-.22-2.91.53-2.91 1.87v4.42h-3.43V110h3.43v1.46a3.31 3.31 0 0 1 2.91-1.6zM235.17 115.46h-6.22a1.8 1.8 0 0 0 1.8 1.38 3 3 0 0 0 2-.88l1.78 1.75a5.33 5.33 0 0 1-4.11 1.67c-3.09 0-5-1.87-5-4.71a4.55 4.55 0 0 1 4.88-4.78c3.3-.01 5.07 2.17 4.87 5.57zm-4-6.32h-2.52l1.82-3.06 3 1zm-.77 3.08c-.82 0-1.34.63-1.51 1.56h2.91a1.41 1.41 0 0 0-1.41-1.57zM240 112.16c-.42 0-.7.15-.7.44 0 1 4.83.58 4.83 3.74 0 1.9-1.65 3.06-4.06 3.06a7.4 7.4 0 0 1-4.35-1.31l1.05-2.16a6.36 6.36 0 0 0 3.35 1.14c.46 0 .76-.14.76-.42 0-1.05-4.73-.54-4.73-3.71 0-1.94 1.61-3.09 3.94-3.09a8.13 8.13 0 0 1 4.06 1.12l-1.14 2.16a7.3 7.3 0 0 0-3.01-.97zM257.86 113.25v6h-3.36v-1a3.21 3.21 0 0 1-2.7 1.17 2.81 2.81 0 0 1-3.13-2.91c0-1.78 1.24-2.77 3.57-2.8h2.26c0-.77-.54-1.22-1.6-1.22a7.54 7.54 0 0 0-2.79.66l-.85-2.28a11.92 11.92 0 0 1 4.45-1c2.61-.01 4.15 1.24 4.15 3.38zm-3.37 3v-.83h-1.56c-.68 0-1 .29-1 .87s.37.92 1 .92a1.68 1.68 0 0 0 1.57-1z"/>
  <path class="cls-3" d="M273.74 114.67c0 2.84-1.65 4.69-4.2 4.69a3.27 3.27 0 0 1-2.62-1.19v4.37h-3.43V110h3.43v1.07a3.15 3.15 0 0 1 2.53-1.19c2.55 0 4.29 1.91 4.29 4.79zm-3.47-.08c0-1.22-.66-2.06-1.68-2.06s-1.67.83-1.67 2.06.68 2.06 1.67 2.06 1.68-.84 1.68-2.06zM283.6 113.25v6h-3.37v-1a3.21 3.21 0 0 1-2.7 1.17 2.81 2.81 0 0 1-3.13-2.91c0-1.78 1.24-2.77 3.57-2.8h2.26c0-.77-.54-1.22-1.6-1.22a7.54 7.54 0 0 0-2.79.66l-.85-2.28a11.92 11.92 0 0 1 4.45-1c2.61-.01 4.16 1.24 4.16 3.38zm-3.37 3v-.83h-1.56c-.68 0-1 .29-1 .87s.37.92 1 .92a1.68 1.68 0 0 0 1.56-1zM291.76 109.86V113c-1.77-.22-2.91.53-2.91 1.87v4.42h-3.43V110h3.43v1.46a3.31 3.31 0 0 1 2.91-1.6zM299.29 118.81a5.45 5.45 0 0 1-2.57.59 3 3 0 0 1-3.3-3v-3.69h-1.27v-2.19h1.27v-2.57h3.42v2.57h2.28v2.19h-2.28v3.16c0 .59.31.88.78.88a3.43 3.43 0 0 0 1.05-.27z"/>
  <path class="cls-6" d="M310.15 114.62c0 2.86-2 4.74-5.13 4.74s-5.15-1.89-5.15-4.74 2-4.74 5.15-4.74 5.13 1.87 5.13 4.74zm-6.82 0c0 1.24.66 2.06 1.68 2.06s1.67-.82 1.67-2.06-.68-2.02-1.68-2.02-1.66.83-1.66 2.06zM321.22 113.38v5.86h-3.43v-4.88a1.33 1.33 0 0 0-1.33-1.5 1.59 1.59 0 0 0-1.51 1.8v4.57h-3.43V110h3.43v1.43a3.3 3.3 0 0 1 2.94-1.56 3.24 3.24 0 0 1 3.33 3.51z"/>
  <path class="cls-3" d="M764.33 481.45l9.943-1.062.955 8.95-9.944 1.06zM784.11 488.37l-1-8.95 17.74-1.89 1 8.95zm26.6-2.84l-1-8.95 17.74-1.89 1 8.95zm26.6-2.84l-1-8.95 17.74-1.89 1 8.95zm26.6-2.84l-1-8.95 17.79-1.9 1 8.95zM889.557 468.1l9.943-1.062.955 8.95-9.944 1.06z"/>
  <path class="cls-3" d="M910.38 470.18l-30.73-14 3.24 33.61 27.49-19.61z"/>
</svg>
