<svg id="Layer_1" data-name="Layer 1" xmlns="http://www.w3.org/2000/svg" viewBox="0 0 128.86 112.78">
  <defs>
    <style>
      .cls-1{fill:#fff;}
    </style>
  </defs>
  <title>
    Artboard 1 copy 4
  </title>
  <path class="cls-1" d="M120.72 93.4a.24.24 0 0 0 .07.19h.16s.06-.16 0-.21-.18-.19-.23.02zM12.2 8.34l-.1-.13.1.14zM120.51 87.11l.02.01-.02-.01zM123.45 78c.09 1.58-.27 3.17.22 5.11a5.59 5.59 0 0 0 .27-1v-4zM121.35 20.86a3.44 3.44 0 0 0-.17-2.41c-.15.76-.32 1.51-.44 2.28a.42.42 0 0 0 .24.33.43.43 0 0 0 .37-.2zM5.32 31.26c-.38.12-.38.44-.4.74s0 .6 0 .9l.32.06c.1-.28.22-.55.31-.83.17-.55.05-.96-.23-.87zM7.34 43.1zM24.4 5.51c.27 0 .29-.25.3-.46s-.13-.45-.42-.32a.5.5 0 0 0-.25.34.38.38 0 0 0 .37.44zM94 3.83a.86.86 0 0 0 .89-.06V3.6a.87.87 0 0 0-.88-.1c-.23.07-.24.23-.01.33zM119.59 9a1.16 1.16 0 0 0 .23.33A1.51 1.51 0 0 0 120 9a5.24 5.24 0 0 0 0-.65 3.62 3.62 0 0 0 .56-1.85c.14 0 .29-.08.42-.13a.49.49 0 0 0 .3-.71c-.07-.14-.38-.21-.58-.21a.67.67 0 0 0-.65.51 1.52 1.52 0 0 0-.52.38c-.78.92-.78.92 0 2a4.16 4.16 0 0 0 .06.66zM99.72 3.8c.05 0 .12 0 .19-.07s0-.14 0-.16a.23.23 0 0 0-.2 0c-.22.07-.2.18.01.23zM107.35 4.31a2.31 2.31 0 0 0 .37-.14l-.14-.17-.38.16c.05.06.11.16.15.15zM120.64 25.6c0 .19 0 .3.18.26s.06-.12.08-.18l-.11-.18c-.05.03-.14.06-.15.1zM7.33 43.11zM7.11 43.31l.17-.18a.39.39 0 0 0-.13.05s-.03.09-.04.13z"/>
  <path class="cls-1" d="M121.44 79.86a9 9 0 0 0 0-3.36 6.12 6.12 0 0 0-.09-3 20.06 20.06 0 0 1-.34-2.31v-1s0-.81-.47-1c-.83-.82-.5-1.49.23-2.16.24-.23 0-.59-.43-.56a3 3 0 0 0-.67.19c.06-.4-.24-.82.39-1.16s.79-1.06.17-1.35-.58-.58-.2-1 .26-.82 0-1.22v-1-1.9a4.94 4.94 0 0 1-.46-2.89V52.8a1.84 1.84 0 0 0-.46-1.54c-.1-2.37-.53-4.71-.46-7.08a7.85 7.85 0 0 0-.52-3 1.56 1.56 0 0 0 .46-2 .34.34 0 0 0 .06-.37 1.57 1.57 0 0 0-.09-2l.46-2V28.6a2.83 2.83 0 0 0-.47-2v-1.94a7 7 0 0 0-.18-3 3.57 3.57 0 0 1 .14-2.27 8.43 8.43 0 0 1 .47-2.81A2 2 0 0 0 119 15a.46.46 0 0 0-.35-.22c-.13 0-.37.1-.38.19-.11.64-.19 1.3-.28 2-.48-.46-.18-1.2-.77-1.48l.08-.93a.48.48 0 0 1-.26.06v-.19l.26.14a8.57 8.57 0 0 0 .36-3.87c.79-1.22.46-2.57.47-3.89-.16-.83-1.18-.23-1.49-.91-.39-.87-1.16-.77-1.83-.45a4.63 4.63 0 0 1-3.45.45c-.25-.36-.56-.59-1-.36l-2.14 1.11a1 1 0 0 1-1.31-.24 3.35 3.35 0 0 0 .09-.71.9.9 0 0 0-.18-.62.63.63 0 0 0-.59.14 2.41 2.41 0 0 1-1.69.7l-.45-.1a1.8 1.8 0 0 0-1.8-.38 47.41 47.41 0 0 1-6 .41 12.39 12.39 0 0 1-5.11-.73 7.57 7.57 0 0 0-2.1-.27c-.32-.48-.83-.43-1.29-.43h-7.2c-3.12 0-6.25-.09-9.37 0-1 0-1.87-.47-2.85-.18A5.7 5.7 0 0 1 64.85 4l-.83-.09h-.2a21 21 0 0 0-5.45-.26c-2 0-4 .62-6.09.4-2-.74-4.12-.51-6.19-.37-2.48.17-5 .31-7.45.31a8.1 8.1 0 0 0-3.77.54 10.62 10.62 0 0 0-3.56.16c-2.28.71-4.45 1.8-6.9 1.9a4.23 4.23 0 0 0-1.14.38.75.75 0 0 0-.46-.07c-.56-.62-.22-1.56-.74-2.19a3 3 0 0 0-2 1.23c-.34.38-.64.42-1 .08-.57-.57-1.34-.4-2-.59a.79.79 0 0 0-.86.28 5.75 5.75 0 0 1-3.21 2 1.18 1.18 0 0 0-.92.49l.1.13-.1-.14a2.27 2.27 0 0 0-1.91 2 3.76 3.76 0 0 0-1.87 2.47 1 1 0 0 0 0 .4c0 .87-.75 1.63-.51 2.53a2.17 2.17 0 0 1-.46 1.94 2.07 2.07 0 0 0 0 2.82v.49l-.47.51a9.76 9.76 0 0 0-.37 1.8c0 .4.14 1 .84.59l.86-.43c.06.8.11 1.59.17 2.38a.53.53 0 0 0-.06.46c0 .48-.05 1-.08 1.44-.58.35-1 .77-.69 1.54.08.24-.13.59-.2.89v.46a.76.76 0 0 0-.39.66.54.54 0 0 1-.07.33 2.37 2.37 0 0 0-.29 2.65 3.67 3.67 0 0 1-.13 2.74l.43 1.37.48 1a.51.51 0 0 0-.43.53c-.13.35-.27.69-.4 1a.78.78 0 0 0 .22 1c.21.12.46.15.67.25l.37.11-.44.93c.62 0 1.25-.47 1.87 0a.35.35 0 0 1-.05.44c-2.11.52-2.4 1.13-1.37 2.94A8.69 8.69 0 0 1 8 50a17.77 17.77 0 0 0-.2 4.72 5.65 5.65 0 0 0-.28 1.16c-.14 4.9-.47 9.8-.3 14.71a157 157 0 0 0 1.61 18 59.27 59.27 0 0 0 1 8.7 11.29 11.29 0 0 0 .54 3.39c-.2 1 .53 1.86.44 2.85A3.33 3.33 0 0 0 12 106a.51.51 0 0 0 .43.1c.11 0 .18-.24.21-.38a3.74 3.74 0 0 0-.35-1.6 1.27 1.27 0 0 1 .38-1.5c.45.62.3 1.5.91 2 0 1.32.9 2.13 1.68 3a.47.47 0 0 0 .63.11c.4-.24.92-.31 1.13-.81.49-.14 1.11.3 1.49-.33l.44-.18h1a11 11 0 0 1 1.12.85c.24.23.46.47.79.29 1.08-.59 2.17.12 3.25-.08a2.23 2.23 0 0 0 .65.28c3 .24 6.06.49 9.09.68 1.27.08 2.55 0 3.83.05a56.84 56.84 0 0 0 7.41-.18 35.16 35.16 0 0 0 4.82 0 34.1 34.1 0 0 0 4-.25c1.42-.35 2.88.15 4.32.18 4 .1 8.06.19 12.09.11a42.85 42.85 0 0 1 5.73.06c3.66.42 7.37.3 11 .79a7.32 7.32 0 0 1 3 .66.93.93 0 0 0 .91-.14 33.24 33.24 0 0 1 5.28.18 4.14 4.14 0 0 0 2.11-.35 4.93 4.93 0 0 1 2-.5 1.23 1.23 0 0 0 1.2-.45c.37-.37 1.08-.43 1-1.18l.88-1c.36.09.71.19 1.07.26.62.13.65.09.8-.87a5.39 5.39 0 0 1 .62-.93c.58-.57 1-.54 1.92 0a4.8 4.8 0 0 0-.08.72c0 1 .18 1.1 1.11.83s1-.75.9-1.46a15.5 15.5 0 0 1 2.41-3.42.73.73 0 0 0 .51-.94 2.81 2.81 0 0 1 .61.36c1.93 1.93 2.29 1.55 3.92.14.12-.1.31-.12.42-.23.51-.53 1-1.1.59-1.88s.11-1.23.15-1.84a.79.79 0 0 0 .11-.42c.59-1.27.54-1.38-1-2.05a3.48 3.48 0 0 1 .16-1.79l1.34.26c.24-.94-.69-1.2-.92-1.82a5.92 5.92 0 0 1-.08-2.35c.21-.4.61-.38 1-.5.89-.28.91-.38.43-1.44a1.71 1.71 0 0 1 .38-1.57c.7-.66.1-1.73.78-2.4 0 0-.1-.27-.16-.4q.07-1.36.02-2.81zM87.75 26.71H79.3c-6.63 0-7.91 3.15-7.91 7.77v10.2h15.8l-2.06 16H71.38v41H54.9v-41H41.11v-16H54.9V32.91c0-13.66 8.34-21.11 20.53-21.11a112.16 112.16 0 0 1 12.32.63zm32.78 60.42z"/>
</svg>
