<svg xmlns="http://www.w3.org/2000/svg" xmlns:xlink="http://www.w3.org/1999/xlink" width="32" height="33" viewBox="0 0 32 33" version="1.1">

	<title>Shape</title>

	<desc>Created with Sketch.</desc>

	<g id="Page-1" stroke="none" stroke-width="1" fill="none" fill-rule="evenodd">
		<g id="Desktop-HD" transform="translate(-250.000000, -3985.000000)" fill="#F7F7F7"><path d="M257.8 3999.6C254.8 4001.5 253.8 4004.6 253.9 4007.9 254.1 4010.6 256.8 4013.4 259.4 4014.4 262.9 4015.4 266.4 4014.2 269 4011.9L258.4 3999.3C258.3 3999.1 258.1 3999.5 257.8 3999.6M259.9 3986.6C255.8 3988.7 258.3 3993.7 260.9 3996.5 262.4 3996.2 263.6 3994.5 264.1 3993.2 264.6 3991.2 264.7 3989 263.2 3987.4 262.4 3986.4 261.1 3986.2 259.9 3986.6M255.9 3999.5C256.6 3999 257.8 3998.3 257.8 3998.3 255.8 3996 254.3 3993 254.8 3989.7 255.4 3987.5 257.6 3985.4 260.4 3985.1 263.2 3984.7 265.9 3985.7 267.2 3988.2 268.2 3989.9 267.7 3992.4 266.9 3993.8 265.4 3995.7 263.7 3996.3 261.7 3997.3 264.7 4001.1 268.5 4005.4 271.9 4009.1 272.8 4008.1 273.5 4006.6 273 4004.8 272.5 4003.3 270.2 4003.1 268.9 4003.1L268.9 4002.6 280.1 4002.6 280.1 4003.1C276.3 4003.3 275.2 4007.8 272.7 4009.9 274.7 4012.2 278 4016.1 279.8 4015.1 280.5 4014.7 281.3 4013.6 281.3 4013.6 281.5 4014.1 281 4014.9 280.5 4015.6 278.8 4017.4 276.7 4017.4 274.8 4016.5 273 4015.7 271.4 4014.1 270 4012.4 266.7 4015.4 262.9 4017.7 258.1 4016.9 253.4 4016.1 251 4013.1 250.1 4009.4 249.5 4005.6 251.3 4002.5 255.9 3999.5" id="Shape"/>
		</g>
	</g>
</svg>
