<svg width="377" height="315" viewBox="0 0 377 315" xmlns="http://www.w3.org/2000/svg" xmlns:xlink="http://www.w3.org/1999/xlink">
  <title>
    Page 1
  </title>
  <defs>
    <path id="a" d="M38.364 44.13H0V.02h38.364v44.11z"/>
  </defs>
  <g fill="none" fill-rule="evenodd">
    <path fill="#FEFEFE" d="M.225 169.282h37.73V.002H.225M94.6 98.867c.64-10.03 7.888-17.713 20.89-17.713 11.085 0 18.972 6.19 20.678 17.713H94.6zm19.825-42.25c-33.04 0-60.11 26.03-60.11 58.04 0 31.792 27.07 57.827 60.11 57.827 24.3 0 44.337-7.898 56.702-28.595l-27.285-13.657c-9.167 9.815-14.496 12.163-26.646 12.163-9.592 0-23.66-5.762-23.66-22.62h79.296c.212-1.278.212-3.627.212-5.12 0-38.41-25.367-58.04-58.62-58.04zM250.6 140.26c-14.282 0-25.58-10.67-25.58-25.82 0-14.934 10.233-25.604 25.58-25.604 14.708 0 25.367 10.67 25.367 25.604 0 15.15-11.3 25.82-25.367 25.82zm24.94-80.446v12.38h-.427c-8.1-8.96-20.888-15.578-35.81-15.578-31.975 0-54.357 25.82-54.357 57.824 0 32.01 22.382 58.044 54.356 58.044 14.71 0 26.857-4.912 35.81-13.657v55.265h37.73V59.814H275.54zM376.747 148.158c0 13.44-10.872 24.326-24.514 24.326-13.43 0-24.3-10.885-24.3-24.326 0-13.656 10.87-24.542 24.3-24.542 13.642 0 24.514 10.886 24.514 24.542M38.364 214.643l-22.973 44.11H3.763l10.09-19.4L0 214.642h11.628l8.152 15.01 6.955-15.01M50.164 228.567c0 5.763 1.54 7.988 5.758 7.988 4.22 0 5.757-2.225 5.757-7.988v-13.924h10.09v16.378c0 9.815-4.904 13.753-15.848 13.753-10.945 0-15.847-3.938-15.847-13.752v-16.377h10.09v13.924zM77.47 214.643h10.09v3.082h.114c2.28-2.283 5.187-3.938 8.38-3.938 3.876 0 8.15 1.427 10.203 5.365 3.078-3.71 6.498-5.365 9.69-5.365 5.36 0 11.4 2.682 11.4 10.843v19.287H117.26V227.37c0-2.912-1.54-5.48-5.132-5.48-3.192 0-4.56 2.34-4.674 4.565v17.462h-10.09V227.37c0-2.912-1.54-5.48-5.13-5.48-3.363 0-4.674 2.568-4.674 4.908v17.12H77.47v-29.275zM133.62 214.643h10.09v3.082h.114c2.28-2.283 5.187-3.938 8.38-3.938 3.876 0 8.15 1.427 10.203 5.365 3.078-3.71 6.5-5.365 9.69-5.365 5.36 0 11.4 2.682 11.4 10.843v19.287H173.41V227.37c0-2.912-1.54-5.48-5.13-5.48-3.194 0-4.562 2.34-4.676 4.565v17.462h-10.09V227.37c0-2.912-1.538-5.48-5.13-5.48-3.363 0-4.674 2.568-4.674 4.908v17.12h-10.09v-29.275zM222.72 214.643l-22.974 44.11h-11.628l10.09-19.4-13.853-24.71h11.63l8.15 15.01 6.954-15.01"/>
    <g transform="translate(0 270.166)">
      <mask id="b" fill="#fff">
        <use xlink:href="#a"/>
      </mask>
      <path fill="#FEFEFE" mask="url(#b)" d="M38.364.02L15.39 44.13H3.763l10.09-19.4L0 .02h11.628l8.152 15.01L26.735.02"/>
    </g>
    <path d="M55.95 291.7c3.933 0 6.783-2.853 6.783-6.848 0-4.05-3.02-6.904-6.783-6.904-3.82 0-6.84 2.853-6.84 6.904 0 3.995 2.736 6.848 6.84 6.848m.057-22.37c9.69 0 17.444 6.392 17.444 15.522 0 9.016-7.353 15.464-17.443 15.464-10.546 0-17.614-6.448-17.614-15.464 0-9.13 7.752-15.52 17.614-15.52" fill="#FEFEFE"/>
  </g>
</svg>
