<?xml version="1.0" standalone="no"?>

<?xml-stylesheet type="text/css" href="../css/logo.css"?>

<!DOCTYPE svg PUBLIC "-//W3C//DTD SVG 1.1//EN"
	"http://www.w3.org/Graphics/SVG/1.1/DTD/svg11.dtd">

<svg xmlns="http://www.w3.org/2000/svg" xmlns:xlink="http://www.w3.org/1999/xlink" width="464" height="181" viewBox="0 0 464 181" version="1.1">

<title>Page 1</title>

<desc>Created with Sketch.</desc>

<defs>
	<polygon id="path-1" points="0.6 88 60.6 88 60.6 0.8 0.6 0.8 0.6 88"/>
</defs>

<g class="adlogo" id="Page-1" stroke="none" stroke-width="1" fill="none" fill-rule="evenodd">
	<g id="Desktop-HD" transform="translate(-251.000000, -49.000000)">
		<g id="Page-1" transform="translate(251.000000, 49.000000)">
			<path d="M126.4 169.3C126.1 169.1 126 169 126.1 168.9 126.2 168.7 126.2 168.6 125.9 168.6 125.2 168.8 124.5 169.2 123.8 169.8 123 170.4 122.4 170.9 121.8 171.2 121.6 171.6 121.4 172 121.2 172.4 121 172.8 120.8 173.2 120.5 173.7 120.4 173.9 120.1 174.3 119.7 174.7 119.6 174.8 119.4 174.8 119.2 174.8 118.9 174.7 118.8 174.6 118.7 174.5 118.4 173.7 118.1 173.1 117.8 172.5 117.5 171.9 117.3 171.2 117.3 170.5 117.1 169.8 117 169.1 116.7 168.5 116.5 167.9 116.3 167.2 116.1 166.5 115.9 165.9 115.7 164.9 115.5 163.7 115.4 162.4 115.3 161 115.2 159.6 115.2 158.1 115.1 156.8 115.1 155.5 115.1 154.2 115.2 153.2 115.2 152.5 115.3 151.9 115.4 151.1 115.4 150.1 115.4 149.1 115.5 148 115.5 146.9 115.6 145.8 115.7 144.7 115.7 143.7 115.7 142.6 115.7 141.8 115.7 141.2 116 138.2 116.4 135.1 117 131.8 117 131.6 117 131 117 130.2 117.1 129.5 117.1 128.7 117.1 127.8 117.2 127 117.2 126.1 117.2 125.4 117.3 124.6 117.3 124 117.4 123.7 117.5 123.1 117.6 122.4 117.7 121.8 117.8 121.2 118 120.6 118.1 120 118.1 119.9 118.1 119.7 118.1 119.5 118.2 119.4 118.2 119.2 118.2 119.1L118.2 117.9C117.9 118 117.6 118.1 117.4 118.1 117.2 118.1 117 118.2 116.8 118.4 116.4 118.6 116.1 118.8 115.7 119 115.3 119.2 114.9 119.4 114.5 119.6 113.5 120.2 112.5 120.7 111.4 121.2 110.4 121.7 109.3 122.1 108.1 122.3 107.3 122.5 106.7 122.7 106 123 105.4 123.2 104.7 123.5 103.9 123.9 103.1 124.1 102.4 124.1 101.9 124.1 101.3 123.9 101 123.6 100.8 123.2 100.9 123 101 122.9 101.1 122.7 101.2 122.4 101.3 122.2 101.5 122 101.2 121.8 100.9 121.6 100.7 121.4 100.5 121.1 100.2 120.9 99.8 120.7 99.8 120.2 99.9 119.6 100.1 119.1 100.3 118.6 100.4 118.1 100.7 117.7 101 116.7 101.1 115.9 101.1 115.1 101.1 114.8 101.1 114.5 101.2 114.2 101.3 113.9 101.4 113.6 101.5 113.4 101.8 112.4 102.3 111.6 102.9 110.9 103.5 110.2 104.1 109.5 104.7 108.8 106.3 107.2 107.9 105.7 109.5 104.2 111.1 102.8 112.8 101.4 114.5 100 115.5 99.3 116.5 98.6 117.6 98.1 118.7 97.6 119.8 97.2 121 96.7 121.3 96.5 121.6 96.4 122 96.4 122.4 96.4 122.8 96.3 123.2 96.3 123.8 96.2 124.3 96.3 124.6 96.6 124.8 97.1 124.9 97.5 125 97.9 125.2 98.3 125.3 98.7 125.4 99.1 125.5 99.6 125.8 100 126.4 100.1 126.6 100.2 126.9 100.2 127.1 100.3 127.3 100.3 127.5 100.3 127.8 100.3 128.5 100.4 128.8 100.8 128.8 101.2 128.8 102.1 129.2 102.8 129.9 103.4 130.1 103.5 130.1 103.7 130.1 103.8 130.1 104 130.2 104.2 130.3 104.3 130.8 103.7 131.1 103.3 131.2 103 131.2 102.7 131.2 102 131.2 101 131.6 101.2 131.9 101.4 132.1 101.8 132.3 102.2 132.5 102.5 132.9 102.8 133 102.8 133.1 103 133 103.2 133 103.5 133 103.7 133.1 103.9 133 104 132.8 104.1 132.7 104.1 132.6 104.1 132.5 104.1 132.4 104.2 132 104.3 131.8 104.5 131.9 104.7 132 105.2 131.9 105.7 131.6 106.2 131.2 106.6 131.1 107.1 131.2 107.8 131.2 108.2 131.1 108.7 131.1 109.2 131.1 109.7 131 110.3 130.9 110.8 130.9 112.8 130.8 114.8 130.8 116.8 130.8 118.8 131 120.8 131.3 122.8L131.3 123.9 131.3 125.9C131.3 126.6 131.2 127.2 131.2 127.8 131.2 128.4 131.2 128.8 131.2 129 131 130.3 131 131.7 131.3 133.1 131.5 134.4 131.5 135.8 131.3 137.1 131.1 137.8 131 138.7 130.9 139.8 130.8 140.9 130.7 142 130.6 143.2 130.5 144.3 130.4 145.4 130.2 146.5 130.1 147.6 129.9 148.5 129.7 149.1 129.5 149.9 129.3 151 129.2 152.5 129 153.9 128.8 155.5 128.7 157 128.6 158.6 128.4 160.1 128.3 161.6 128.2 163.1 128.2 164.3 128.1 165.1 128 165.6 128 166.2 127.9 166.7 127.8 167.3 127.7 167.8 127.6 168.3 127.6 168.5 127.4 168.6 127.1 168.8 126.7 168.9 126.5 169.1 126.4 169.3"/><path d="M196 129.1C196.5 129 196.8 128.9 196.9 128.7 197 128.6 197 128.4 197 128.2 197 128.2 196.9 128.1 196.9 128.1 196.9 128 196.8 127.9 196.8 127.9 196.7 128 196.6 128.2 196.5 128.4 196.4 128.6 196.2 128.8 196 129.1M169.6 141C169.6 140.7 169.6 140.5 169.7 140.4 169.7 140.3 169.8 140 169.9 139.6 170 139.4 170 139.3 169.9 139.2 169.7 139.1 169.5 139.1 169.4 139.2 169.1 139.2 168.9 139.4 168.8 139.8 168.7 140.4 168.7 141 168.6 141.6 168.6 142.2 168.6 142.8 168.6 143.5 168.5 145.6 168.5 147.7 168.4 149.7 168.4 151.8 168.2 153.9 167.8 155.9L167.8 156.3C167.8 156.6 167.9 156.8 168.2 156.8 168.2 156.8 168.3 156.8 168.4 156.9 168.4 156.9 168.5 156.9 168.6 156.9 169.7 157 170.9 157 172 157.1 173 157.1 174.2 157.1 175.3 157.1L176.6 157.1C177 157.1 177.5 157.1 177.9 157 178.6 156.9 179.4 156.8 180.1 156.8 180.9 156.7 181.6 156.7 182.4 156.6 183 156.5 183.6 156.4 184.2 156.3 184.8 156.2 185.4 156.1 186 155.9 187.7 155.4 189.2 154.8 190.8 154.1 192.3 153.5 193.8 152.7 195.2 151.7 196.2 151 197 150.4 197.7 149.8 198.4 149 199.1 148.2 199.9 147.2 200.1 147.1 200.3 146.9 200.4 146.7 200.5 146.5 200.7 146.3 200.8 146.1 201.5 145.4 201.5 144.5 200.8 143.7 199.9 142.1 198.6 141 197 140.3 195.4 139.5 193.7 139 191.9 138.7 190.1 138.5 188.3 138.4 186.4 138.6 186 138.6 185.6 138.7 185.2 138.7 184.8 138.8 184.4 138.8 184.1 138.8 183.7 138.8 183.5 138.9 183.2 139 183 139 182.7 139.1 182.4 139.3 181.9 139.5 181.4 139.7 180.9 139.8 180.4 139.9 179.8 139.9 179.3 139.8 179 139.7 178.7 139.6 178.4 139.7 178.2 139.8 177.9 139.8 177.6 139.9 177.4 139.9 177.3 139.9 177.2 139.9 177.1 140 177 140 176.8 140 176.3 139.9 175.8 139.9 175.4 140 174.9 140.1 174.4 140.3 173.9 140.5 173.6 140.6 173.4 140.7 173.1 140.8 172.9 140.9 172.6 140.8 172.3 140.5 172.1 140.4 171.9 140.4 171.5 140.5 171.2 140.6 170.9 140.7 170.6 140.8 170.3 140.8 169.9 140.9 169.6 141M167.9 128.8C168.3 128.9 168.7 128.9 169 128.8 169.3 128.7 169.5 128.6 169.8 128.5 170.1 128.3 170.5 128.2 170.8 128.1 171.1 127.9 171.4 127.8 171.7 127.6 172.4 127.4 173 127.1 173.6 126.8 174.2 126.6 174.8 126.3 175.4 126.1 176.2 125.8 176.9 125.6 177.5 125.3 178.2 125 178.8 124.8 179.5 124.6 180.9 124.2 182.2 123.9 183.5 123.6 184.8 123.2 186.1 122.9 187.5 122.4 189.1 122 190.5 121.5 191.7 120.8 192.4 120.5 192.5 120.1 192 119.6 191.4 118.7 190.5 117.9 189.4 117.1 187.2 115.9 184.9 114.8 182.4 113.9 181.5 113.5 180.6 113.3 179.7 113 178.7 112.8 177.8 112.5 176.9 112.2 176.2 112 175.4 111.7 174.6 111.5 173.8 111.2 173 111 172.3 110.6 171.2 110.1 170.1 109.6 168.9 109.3 167.8 109 166.7 108.7 165.5 108.4 165.2 108.2 164.8 108.1 164.5 108.1 164.2 108 163.8 108 163.5 108.2 163.6 108.4 163.6 108.6 163.6 109 163.9 109.5 164.1 110 164.2 110.3 164.5 111.1 164.7 111.9 165 112.7 165.2 113.5 165.4 114.3 165.6 115.2 165.8 115.7 165.9 116.1 165.9 116.6 166 117 166.1 117.5 166.1 118 166.3 118.5 166.4 119 166.5 119.5 166.6 120 166.7 120.5 166.8 121 167.4 122.4 167.7 123.8 167.7 125.1 167.7 125.4 167.7 125.6 167.7 125.9 167.8 126.1 167.9 126.3 168.1 126.5 168.5 126.9 168.5 127.4 168.1 128.1 168 128.1 168 128.2 168 128.4 168 128.5 167.9 128.6 167.9 128.8M139.6 153.8C140 153.3 140.5 153 141 152.8 141.6 152.7 142.1 152.7 142.7 152.7 143 152.8 143.4 152.8 143.7 152.8 144 152.8 144.4 152.9 144.7 152.9 145.2 153 145.7 153.1 146.1 153.2 146.6 153.3 147.1 153.3 147.7 153 147.9 153 148 153.1 148.2 153.3 149.5 153.6 150.9 153.9 152.2 154.2 153.5 154.5 154.8 154.8 156.1 155 156.3 155.1 156.7 155.1 157.2 155.1 157.4 155.1 157.5 155.1 157.7 155 157.7 154.8 157.7 154.6 157.8 154.4 157.8 154.3 157.9 154.1 157.9 153.9 157.8 152.6 157.8 151.4 157.8 150.3 157.9 149.1 157.8 148 157.7 146.8 157.6 146.5 157.6 146.1 157.6 145.7 157.7 145.3 157.7 144.9 157.7 144.5 157.7 142.5 157.8 140.5 157.8 138.5 157.9 136.4 157.9 134.4 157.9 132.4 157.9 130.9 157.9 129.4 157.8 128 157.8 126.5 157.7 125 157.6 123.5 157.5 122.9 157.5 122.4 157.5 122 157.6 121.6 157.6 121.2 157.6 120.6 157.5 120.3 157.5 120 157.5 119.7 157.5 119.4 157.4 119.1 157.4 118.8 157.4 118.6 157.3 118.5 157.3 118.4 157.3 118.2 157.3 118.1 157.3 118 157.1 117 157.1 116.1 157.1 115.3 157.1 114.4 157 113.5 156.9 112.7 156.8 112.2 156.8 111.9 156.9 111.5 156.9 111.2 157 110.9 157.1 110.5 157.1 110.2 157.2 110 157.2 109.7 157.2 109.4 157.3 109.2 157.4 108.9 157.4 108.3 157.1 108.1 156.5 108.3L155 108.6C155.2 108.2 155.4 108 155.7 108 156.1 107.9 156.3 107.7 156.4 107.5L156.3 107.4C154.7 107.4 153 107.7 151.3 108.5 150.7 108.7 150.3 109.1 150 109.5 149.8 109.8 149.5 109.9 149 109.8 148.5 109.1 147.9 108.4 147.3 107.8 147.3 107.2 147.2 106.8 147.2 106.5 147.1 106.2 146.9 105.8 146.6 105.2 146.7 104.9 146.9 104.5 147.1 104.1 147.3 103.7 147.5 103.3 147.7 102.9 147.3 102.7 147 102.6 146.8 102.5 146.4 101.8 146.5 101.2 147 100.7 147.4 100.3 147.8 99.9 148.2 99.4 148.6 99 149 98.6 149.5 98.2 150.2 97.5 150.8 97.1 151.3 97 151.6 97 152 96.8 152.4 96.5 152.8 96.3 153.3 96.2 153.7 96 154.2 95.9 154.7 95.8 155.2 95.8 155.6 95.8 156 95.8 156.5 95.6 157.5 95.3 158.4 95.2 159.4 95.2 160.3 95.2 161.2 95.3 162.2 95.4 164.3 95.7 166.4 96.1 168.5 96.5 170.5 97 172.5 97.6 174.5 98.4 175.4 98.7 176.2 99.1 177 99.4 177.9 99.7 178.7 100.1 179.5 100.4 180.3 100.8 181.1 101.2 181.9 101.6 182.7 102 183.4 102.5 184.2 102.9 184.5 103 184.8 103.2 185.1 103.3 185.4 103.5 185.7 103.6 186 103.8 186.8 104.1 187.5 104.5 188.2 104.9 188.8 105.3 189.5 105.8 190.2 106.3 191 106.9 191.6 107.5 192.1 108.2 192.6 108.8 193.1 109.5 193.7 110.2 194.6 111.4 195.2 112.7 195.6 114.1 196 115.4 196.4 116.8 196.6 118.2 196.7 118.7 196.8 119.2 196.9 119.6 197 120 197.1 120.4 197.2 120.9 197.4 121.3 197.5 121.6 197.6 122 197.7 122.4 197.8 122.9 197.9 123.3 198 123.5 198.1 123.7 198.1 123.9 198.1 124.1 198.3 124.2 198.7 124.4 198.7 124.5 198.8 124.6 199 124.9 199 125.2 199.1 125.4 199.1 125.7 199.1 126 199.1 126.3 199.2 126.5 199 126.7 198.8 126.8 198.7 126.8 198.5 126.9 198.4 127 198.3 127 198 127.7 197.7 128.4 197.4 129 197.1 129.6 196.8 130.3 196.4 131 196.7 131 196.9 131.1 197.1 131.3 197.3 131.4 197.6 131.4 197.9 131.4 200.2 132.1 202.3 133.1 204.2 134.3 205.1 134.8 205.9 135.4 206.6 136.1 207.4 136.9 208 137.6 208.6 138.4 209.2 139.1 209.8 139.9 210.3 140.8 210.6 141.6 210.8 142.3 210.9 142.9 211.3 144.4 211.5 145.8 211.5 147.3 211.5 147.9 211.5 148.4 211.5 149 211.4 149.5 211.3 150.1 211 150.6 210.9 150.9 210.7 151.3 210.6 151.7 210.5 152 210.4 152.4 210.5 152.7L210.5 153C210.2 153.5 210 154 209.7 154.5 209.5 155 209.2 155.4 208.9 155.7 208.9 155.4 208.9 155.1 209.1 154.8 209.2 154.5 209.3 154.2 209.3 153.9 209 153.8 208.8 153.9 208.7 154.3 208.4 154.8 208.1 155.3 207.9 155.8 207.6 156.3 207.2 156.7 206.7 157.1 206.3 157.4 206.1 157.6 205.9 157.8 205.8 158 205.6 158.1 205.5 158.2 205.3 158.4 205.1 158.6 205 158.8 204.8 159.3 204.5 159.7 204.1 160 203.7 160.3 203.3 160.7 202.9 161 202.5 161.2 202.2 161.4 201.9 161.6 201.6 161.7 201.3 162 201.1 162.3 200.8 162.6 200.4 162.8 200 162.9 199.6 163.1 199.2 163.3 198.9 163.7 198.2 163.8 197.6 164 197.1 164.4 196.6 164.8 196 165.1 195.2 165.4 195.3 165.5 195.4 165.6 195.4 165.6 195.4 165.7 195.4 165.7 195.5 165.8 195.3 166 195.2 166.1 195.3 166.1 194.8 166.2 194.4 166.4 193.9 166.5 193.5 166.6 193 166.8 192.6 166.9 191.9 167.1 191.4 167.2 190.9 167.3 190.4 167.5 189.8 167.7 189.3 168.1 188.3 169 187.3 169.2 186.2 169 186 168.8 185.9 168.8 185.7 169 185.5 169.3 185.3 169.4 185 169.4 184.6 169.3 184.3 169.3 184 169.4 183.6 169.4 183.4 169.4 183.3 169.6 183 169.8 182.7 169.9 182.5 169.9 182.3 169.9 182 169.9 181.6 170.1 181 170.3 180.4 170.4 179.8 170.3 179.2 170.2 178.6 170.3 178 170.4 177.6 170.5 177.3 170.5 176.9 170.4 176.6 170.3 176.3 170.3 175.9 170.2 174.8 170.2 173.8 170 172.8 169.8 171.7 169.5 170.7 169.3 169.6 169.2 169.1 169.1 168.7 169.1 168.6 169.2 168.4 169.2 168.2 169.5 167.9 169.9 167.7 169.5 167.7 169.2 167.7 169.1 167.7 169 167.6 169 167.4 169L167.2 169C167.1 169 167.1 169.1 167.1 169.3 167.1 169.7 166.9 170.2 166.6 170.6 166.4 171 166.2 171.5 166.1 172 165.7 171.7 165.5 171.3 165.7 170.8 165.9 170.3 165.9 169.9 165.5 169.7 165 169.7 164.8 169.8 164.8 170.2 164.1 171.7 163.5 173.4 163.2 175.2 163.1 175.5 163.1 175.8 163 176 163 176.3 162.8 176.5 162.5 176.7 161.5 176.7 160.9 176.2 160.7 175.3 160.7 175.1 160.6 174.9 160.6 174.7 160.6 174.5 160.6 174.3 160.4 174.2 160.4 174.1 160.3 173.9 160 173.7 159.9 174 159.7 174.3 159.5 174.5 158.7 174.3 158.2 173.7 158.2 172.8 158 171.7 157.9 170.5 157.8 169.4 157.6 168.3 157.6 167.2 157.6 166 157.5 165.3 157.3 164.7 157.1 164.5 156.9 164.2 156.4 164 155.6 163.9 155.5 163.9 155.3 163.9 155.2 163.9 155 163.9 154.8 164 154.6 164 154.6 163.8 154.7 163.6 154.9 163.2 154.6 163 154.2 162.9 153.8 162.8 153.5 162.7 153.1 162.6 152.8 162.4 152.5 162.4 152.2 162.6 152 162.8 151.3 163 150.8 163.1 150.3 162.9 150.4 162.9 150.4 162.8 150.4 162.8 150.4 162.8 150.5 162.7 150.5 162.6 150.6 162.5 150.8 162.4 151 162.4 151.2 162.3 151.3 162.2 151.2 161.9 151.2 161.6 151 161.5 150.8 161.5 150.5 161.4 150.4 161.3 150.2 161.2 150 161.1 149.8 161.1 149.7 161.1 149.5 161 149.3 161 149.1 160.9 148.6 160.8 148.3 160.5 148.2 160.2 148.1 160.1 147.9 159.9 147.7 159.8 146.9 159.6 146.1 159.4 145.3 159.1 144.5 158.9 143.7 158.7 142.9 158.5 142.5 158.3 142.2 158.2 141.8 158.2L140.7 158.2C140.2 158.3 139.9 158.3 139.7 158.1 139.6 158 139.4 157.7 139.2 157.1 139.1 157.1 139.1 157 139.1 156.9 139.1 156.9 139.1 156.8 139 156.7 138.7 156.2 138.7 155.7 139 155.2 139.1 154.9 139.3 154.4 139.6 153.8"/><path d="M257.3 98.9C257.7 99.1 258 99.2 258.4 99.2 258.8 99.3 259.1 99 259.4 98.5 258.9 98.3 258.5 98.3 258.2 98.5 258 98.6 257.7 98.7 257.3 98.9L257.3 98.9ZM255.4 98.9C255.1 98.6 254.9 98.5 254.6 98.5 254.4 98.6 254.2 98.6 254 98.8 252.8 99.2 251.6 99.5 250.4 99.8 249.2 100 248 100.3 246.8 100.6 246.7 100.6 246.5 100.7 246.4 100.7 246.3 100.8 246.1 100.8 246 100.8 246 101.4 246.2 101.6 246.6 101.4 247.8 101.2 249.1 100.9 250.4 100.7 251.7 100.4 253 100.2 254.3 99.9 254.5 99.8 254.8 99.7 254.9 99.5 255.1 99.4 255.2 99.2 255.4 98.9L255.4 98.9ZM238.2 134.5C238.4 134.4 238.5 134.3 238.7 134.2L238.5 134.2C238.5 134.3 238.4 134.4 238.3 134.5 238.2 134.5 238.1 134.5 238.1 134.4 238.1 134.4 238 134.4 237.9 134.4 238 134.4 238.1 134.4 238.1 134.4 238.1 134.5 238.2 134.5 238.2 134.5L238.2 134.5ZM235.4 135.7L236.1 135 236 134.9 235.8 134.7C235.3 134.6 235.1 134.7 235.2 135.1L235.4 135.7ZM239.5 104.5C240.6 104.2 241.6 104 242.6 103.7 243.7 103.4 244.7 103.1 245.9 102.8 245.6 102.4 245.4 102.1 245.2 101.9 245 101.7 244.7 101.4 244.5 101.1 242.5 101.6 240.6 102.1 238.7 102.5 236.8 102.9 234.9 103.4 232.9 104 232.7 104 232.3 104.1 231.9 104.3 232.3 104.4 232.7 104.5 233 104.6 233.4 104.7 233.7 104.7 234.1 104.8 233.9 105.1 233.6 105.4 233.1 105.8 233.5 105.8 233.7 105.8 233.9 105.8 234.1 105.7 234.3 105.7 234.5 105.6 235.1 105.5 235.7 105.3 236.4 105.2 237.1 105 237.6 104.6 238 103.9 238.1 103.7 238.3 103.6 238.8 103.5 239.2 103.3 239.6 103.2 240 103.1 240.5 103 240.9 103 241.4 103 241.3 103.3 241.1 103.5 240.9 103.5 240.7 103.6 240.5 103.6 240.3 103.7 240 103.7 239.8 103.8 239.8 104 239.7 104.1 239.6 104.3 239.5 104.5L239.3 104.5 239.5 104.5ZM228.5 105.7C228.3 105.6 228.2 105.5 228.1 105.4 228 105.3 227.9 105.1 227.8 105L227.6 105.2C227.6 105.3 227.5 105.3 227.4 105.3 227.4 105.8 227.6 106.1 227.9 106.1 228 106.1 228.2 106 228.5 105.7L228.5 105.7ZM224.2 137.6L224.2 137.5 223.6 137.5 223.5 137.6 224.2 137.6ZM221.5 143.9C222.1 144.3 222.5 144.3 222.8 144.1 222.3 143.7 221.9 143.6 221.5 143.9L221.5 143.9ZM221.1 109.9L221 109.8 220.8 109.9 220.9 110C221 109.9 221 109.9 221.1 109.9L221.1 109.9ZM220.6 107.1C220.8 108 221.2 108.4 221.7 108.2 222 108 222.2 107.9 222.4 107.8 222.6 107.6 222.7 107.5 222.9 107.4L222.9 106.6C222.5 106.8 222.1 106.9 221.8 106.9 221.4 106.9 221 107 220.6 107.1L220.6 107.1ZM213.2 110.6C213 110.6 212.9 110.6 212.9 110.5 212.9 110.4 212.8 110.4 212.7 110.4L212.6 110.5C212.6 110.5 212.5 110.5 212.5 110.6 212.5 110.7 212.5 110.7 212.5 110.8 212.6 110.8 212.6 110.9 212.6 111 212.7 110.9 212.9 110.8 213.2 110.6L213.2 110.6ZM217.2 104.1C217.4 104.2 217.7 104.3 217.9 104.2 218.1 104.2 218.3 104.3 218.5 104.6 218.5 105.1 218.9 105.3 219.6 105 220.1 104.8 220.7 104.7 221.2 104.6 221.7 104.5 222.2 104.6 222.6 104.9 222.8 105 223.1 105 223.4 104.9 223.7 104.8 223.9 104.6 224.1 104.4 224.1 104.3 224.1 104.1 224 103.9 224 103.7 224 103.5 224 103.3 224.1 103.3 224.2 103.4 224.2 103.3 224.2 103.3 224.2 103.3 224.4 103.3 224.7 103.3 225 103.4 225.2 103.6 225.4 103.9 225.6 104.1 225.8 104.3 226.6 104 227.3 103.8 227.9 103.7 228.6 103.5 229.3 103.4 230.1 103.2 230.2 103 230.4 102.9 230.6 102.9 230.8 102.9 231 102.8 231.1 102.7 232.3 102.3 233.4 101.8 234.6 101.4 235.7 100.9 236.9 100.5 238 100 238.8 99.7 239.6 99.4 240.3 99.3 241.1 99.2 241.9 99 242.6 98.9 243.6 98.6 244.6 98.4 245.5 98.2 246.5 98 247.5 97.7 248.4 97.5 249.2 97.2 250 97 250.8 96.8 251.6 96.7 252.4 96.5 253.2 96.3 253.6 96.3 254.1 96.3 254.8 96.1 256.2 95.8 257.7 95.6 259.2 95.4 260.7 95.3 262.1 95.1 263.6 95L264.1 95C264.6 95.1 265.2 95.3 265.7 95.5 266.3 95.6 266.9 95.8 267.5 95.9 267.2 96.3 267 96.6 266.7 96.8 266.4 97 266.1 97.1 265.8 97.3 265.4 97.4 265.1 97.4 264.7 97.4 264.3 97.3 263.8 97.4 263.4 97.8 264.7 98.1 265.8 98.4 266.9 98.5 268 98.7 269.1 98.8 270.3 98.8 270.7 98.7 271.1 98.7 271.4 98.7L272.5 98.7C272.7 98.7 272.9 98.9 273.1 99.2 273.1 99.3 273 99.3 273 99.4L272.9 99.6C272.8 99.7 272.7 99.9 272.5 100 272.4 100.1 272.3 100.2 272.2 100.3 271.5 101.5 270.6 102.3 269.5 102.7 268.5 103.2 267.4 103.6 266.2 104 266.1 104.1 266.1 104.1 266 104.1 266 104.1 266 104.1 265.9 104.2 266 104.5 266.3 104.6 266.6 104.5 266.9 104.4 267.2 104.6 267.4 104.9 267.3 105 267.1 105.1 267 105.2 266.8 105.3 266.6 105.4 266.4 105.5 264.6 106.1 263.1 106.7 261.8 107.6 261.3 107.9 260.8 108.1 260.3 108.2 259.7 108.3 259.2 108.5 258.6 108.7 256.7 109.4 254.6 110.1 252.5 110.8 252 111 251.5 111.1 251.1 111.1 250.5 111.3 249.9 111.4 249.3 111.5 248.7 111.6 248.1 111.7 247.5 111.8 245.2 112.4 242.9 112.9 240.6 113.4 238.4 113.9 236 114.5 233.7 115 232.5 115.2 231.4 115.5 230.2 115.8 229.1 116.1 228 116.5 227 116.9 226.1 117.3 225.3 117.8 224.4 118.2 223.5 118.7 222.5 119 221.5 119.2 221 119.5 220.8 119.9 220.9 120.4L220.9 120.9C221.2 122.1 221.4 123.2 221.4 124.4 221.3 125.5 221.3 126.7 221.3 127.9 221.2 128.6 221.2 129.4 221.3 130.2 221.3 131 221.4 131.8 221.6 132.5 221.9 132.5 222.1 132.6 222.3 132.6 222.5 132.6 222.7 132.6 222.8 132.6 223.6 132.5 224.3 132.4 225.1 132.3 225.8 132.3 226.6 132.2 227.4 132 227.8 132 228.3 132 228.7 132 229.1 132 229.5 132.2 229.9 132.4 230.2 132.6 230.6 132.7 230.9 132.8 231.2 132.9 231.6 133 231.9 133.2 232.2 133.3 232.5 133.3 232.8 133.3 233.1 133.3 233.4 133.1 233.7 132.6 233.9 132.4 234.2 132.2 234.6 132 235.4 131.8 236.2 131.7 237 131.6 237.8 131.6 238.7 131.5 239.5 131.3L240 131.5 239.7 131.8C239.6 131.9 239.5 131.9 239.4 131.9 239 132.1 238.7 132.2 238.4 132.2 238.1 132.2 237.8 132.3 237.4 132.3 237.1 132.4 236.7 132.5 236.3 132.5 235.9 132.5 235.5 132.6 235.2 132.7 235.3 132.7 235.5 132.8 235.7 132.8 235.9 132.8 236.1 132.8 236.2 132.7 237.2 132.7 238.1 132.6 238.9 132.6 239.8 132.6 240.7 132.7 241.6 132.9 243 133 244.2 132.6 245.2 131.7 245 131.6 244.9 131.5 244.7 131.4 244.6 131.3 244.4 131.2 244.2 131 244.2 130.5 244.4 130.2 245 130.1 245.4 130 245.8 129.9 246.2 129.8 246.6 129.8 247.1 129.7 247.5 129.6 248.5 129.5 249.5 129.2 250.4 129 251.4 128.7 252.3 128.2 253.1 127.4 253.5 127.2 253.8 127 254.2 126.8 254.5 126.6 254.8 126.5 255.2 126.3 255.9 126.7 256.4 126.9 256.6 127.1 256.8 127.3 257.1 127.6 257.4 128.2 257.7 128 258.2 127.9 258.9 127.8 259 128.1 259 128.4 258.9 128.7 258.7 128.9 258.7 129.2 258.9 129.5 259 129.6 259 129.8 259 130.1 258.9 130.4 258.8 130.6 258.6 130.8 258.6 130.9 258.5 131.1 258.4 131.3 258.3 131.4 258.2 131.6 258 131.8 257.7 132.4 257.3 133.1 257 133.7 256.6 134.4 256.3 135.1 256.2 135.8 256 137.1 255.4 138 254.5 138.6 253.4 139.6 252.6 140.5 252 141.4 251.7 142 251.3 142.3 250.7 142.5 250.2 142.7 249.7 142.8 249.1 142.9 247.8 143.2 246.6 143.5 245.4 143.7 244.2 143.9 242.9 144.1 241.7 144.3 238.8 144.6 235.9 144.8 232.9 144.8 229.9 144.9 226.9 144.9 223.9 144.9 223.4 144.9 222.8 144.8 222.1 144.5 221.2 144.5 220.8 144.9 220.8 145.7 220.8 146.1 220.8 146.5 220.7 147 220.6 147.4 220.6 147.9 220.6 148.4 220.5 150.1 220.4 151.9 220.3 153.6 220.3 155.3 220.2 157.1 220.1 158.9 220.1 159.3 220.1 159.8 220.1 160.3 220.2 160.8 220.2 161.2 220.1 161.6 220.8 162.1 221.5 162.4 222.2 162.5 222.9 162.6 223.6 162.6 224.4 162.4 225.5 162.2 226.7 162 227.9 161.9 229.1 161.7 230.3 161.5 231.5 161.4 232.5 161.3 233.4 161.1 234.3 161 235.2 160.9 236 160.8 236.9 160.7 237.1 160.6 237.3 160.6 237.6 160.6 237.8 160.7 238.1 160.7 238.3 160.6 239 160.6 239.4 160.5 239.7 160.4 241.8 160 243.9 159.7 245.9 159.5 248 159.4 250.1 159.2 252.3 159.2L255.3 159.2C256.9 159 258.5 159 260.2 159 261.8 159 263.4 158.9 265.1 158.8 266 158.7 266.9 158.6 267.8 158.5 268.6 158.4 269.5 158.3 270.4 158.1 271 158 271.6 157.9 272.2 157.7 272.8 157.6 273.5 157.5 274.2 157.5 274.6 157.5 275.1 157.4 275.5 157.4 275.9 157.4 276.3 157.4 276.8 157.3 277.3 157.3 277.5 157.6 277.5 158 277.6 158.2 277.6 158.6 277.6 159.2 277.8 159.4 278 159.5 278.2 159.6 278.3 159.7 278.5 159.8 278.6 160L278.6 160.4C278.4 160.8 278.1 161.2 277.8 161.7 277.6 162.1 277.2 162.6 276.9 163 276.6 163.6 276.3 164.1 276 164.7 275.7 165.3 275.5 166 275.5 166.7 275.2 167.8 274.7 168.7 273.8 169.4 273.3 169.8 272.7 170.1 272.1 170.4 271.4 170.7 270.7 171 270 171.1 268.9 171.2 267.8 171.4 266.7 171.5 265.6 171.6 264.5 171.7 263.4 171.8 260.5 172.1 257.6 172.3 254.8 172.6 251.9 172.8 249.1 173.1 246.2 173.3 244.2 173.5 242.3 173.7 240.4 173.9 238.5 174.1 236.5 174.4 234.6 174.8 232.4 175.1 230.3 175.4 228.1 175.7 226 176 223.9 176.2 221.7 176.3L218.8 176.3C217.5 176.3 216.3 175.9 215.2 175.1 214.7 174.7 213.9 174.3 212.8 173.9 212.2 173.4 212 172.9 212.1 172.4 212.3 172.1 212.3 171.7 212.2 171.4 212.2 171.1 212.1 170.7 211.9 170.3 211.9 169.9 211.9 169.6 211.9 169.3 211.8 169 211.8 168.7 211.8 168.3 211.8 167.7 211.7 167.1 211.8 166.5 211.8 166 211.8 165.4 211.6 164.8 211.5 164.4 211.4 164.1 211.5 163.8 211.5 163.5 211.6 163.2 211.6 162.8 212.1 160.7 212.5 158.6 212.7 156.5 212.9 154.4 213.1 152.3 213.3 150.1 213.4 148.3 213.5 146.6 213.6 144.9 213.7 143.3 213.8 141.6 213.8 139.9 213.7 138.9 213.7 137.8 213.7 136.8 213.8 135.7 213.7 134.7 213.6 133.7 213.6 131.8 213.5 130 213.5 128.2 213.5 126.4 213.4 124.6 213.4 122.7 213.4 122.6 213.3 122.3 213.2 121.7 212.6 121.7 212.2 121.8 212 121.8 211.8 121.9 211.6 122 211.5 122.1 211.3 122.2 211.1 122.3 210.9 122.3 210.2 122.7 209.6 122.4 209.2 121.6 209.1 121.6 209.1 121.5 209.1 121.3L209.1 121.2C208.5 120.4 208.3 119.6 208.4 118.9 208.5 118.2 208.7 117.5 209.1 116.8 209.3 116.2 209.4 115.5 209.5 114.9 209.6 114.4 209.5 113.7 209.1 113.1 208.9 112.7 208.8 112.3 208.9 111.9 208.9 111.5 209.1 111.2 209.3 110.8 209.4 110.5 209.6 110.3 209.7 110.2 209.9 110.1 210.1 109.9 210.2 109.7 210.3 109.6 210.4 109.4 210.5 109.2 210.6 109.1 210.6 108.9 210.7 108.8 210.8 108.2 211 107.8 211.1 107.7 211.2 107.6 211.5 107.6 212 107.6L212.8 107.6C212.9 107.6 213 107.5 213 107.5 213 107.5 213 107.5 213.2 107.5 213.2 107.4 213.2 107.4 213.2 107.4 213.2 107.4 213.3 107.3 213.3 107.1 213.7 106.5 214.1 105.9 214.5 105.2 215 104.5 215.4 103.8 215.7 103.2 216 102.8 216.3 102.7 216.5 102.8 217 102.8 217.2 103.1 217.2 103.7L217.2 104.1Z"/><path d="M329.4 173.1L329.3 173.1 329.3 173.2 329.4 173.1ZM321.1 148.7C321.2 148.9 321.3 149.2 321.5 149.4 322 150.1 322.5 150.9 323 151.6 323.6 152.4 324.1 153.1 324.5 154 324.9 154.5 325.2 155 325.4 155.5 325.6 156.1 325.8 156.6 326 157.1 326.1 157.5 326.2 157.8 326.2 158.1 326.3 158.4 326.2 158.7 326.1 159.1 326 159.1 325.9 159.1 325.9 159.1 325.8 159.2 325.7 159.2 325.7 159.2 324.9 157.9 324 156.6 323 155.3 322.1 154.2 321.4 153.1 320.7 152 320.1 150.9 319.4 149.7 318.6 148.6 318.6 148.5 318.5 148.4 318.5 148.4 317.8 147.7 317.5 147.1 317.5 146.3 317.5 145.6 317.6 144.8 317.7 143.9 318.2 144.1 318.5 144.3 318.7 144.6 318.8 144.9 319 145.1 319.1 145.4 319.5 145.9 319.8 146.5 320.1 147 320.4 147.6 320.7 148.1 321.1 148.7L321.1 148.7ZM293 135.9C293 135.6 292.9 135.3 292.9 135 292.8 134.7 292.7 134.4 292.6 134 292.6 134.6 292.6 135.1 292.5 135.7 292.4 136.2 292.4 136.7 292.4 137.1 292.4 137.7 292.4 138.2 292.5 138.7 292.6 139.2 292.6 139.8 292.6 140.4 292.7 139.6 292.8 138.9 292.9 138.2 292.9 137.6 293 136.9 293 136.3L293 135.9ZM292 114.7C292.1 115 292.3 115.3 292.6 115.7L292.6 116.1 292.6 115.7C292.6 115.5 292.6 115.3 292.6 115.2 292.5 115 292.3 114.8 292 114.7L292 114.7ZM331.5 173.5C331.3 173.7 331.1 173.8 330.9 173.9 330.7 173.9 330.4 174 330.1 174.2L330.1 174.7C330.1 175 330.2 175.3 330.3 175.6 330.3 175.9 330.2 176.3 329.8 176.7 329.7 176.6 329.6 176.6 329.5 176.6 329.4 176.5 329.3 176.4 329.1 176.3 327.4 175.3 325.8 174.1 324.3 172.6 323.4 171.6 322.4 170.6 321.4 169.6 320.4 168.6 319.3 167.6 318.3 166.5 317.2 165.3 316.2 164 315.1 162.8 314 161.5 313 160.3 311.9 159 311.8 158.8 311.7 158.7 311.6 158.6 311.6 158.4 311.5 158.3 311.4 158.1 311.7 158 311.8 158 311.9 158.2 312 158.4 312.1 158.5 312.2 158.7 312.3 158.7 312.5 158.8 312.6 158.9 312.7 159 312.8 159.1 312.9 159.3 313.1 159.1 313.1 159 313 159L305.7 147.9C305.4 147.6 305.1 147.3 304.9 146.9 304.7 146.6 304.3 146.3 303.8 146.1 303.6 146 303.5 145.9 303.3 145.8 303.2 145.6 303.1 145.4 302.9 145.3 302.8 145.1 302.6 144.9 302.5 144.7 302.4 144.5 302.2 144.3 302.1 144.1 301.8 144.1 301.6 144.1 301.5 144.2 300.3 145.3 299.2 146.4 298.1 147.5 296.9 148.5 295.8 149.6 294.7 150.7 294 151.4 293.6 152.2 293.6 153 293.7 153.6 293.7 154.1 293.6 154.6 293.5 155.1 293.3 155.6 292.9 156.1 292.6 156.4 292.6 156.7 292.8 157 293.2 157.6 293.3 158.2 293.1 158.8 293 159.3 292.7 159.8 292.4 160.4 292.1 160.8 291.9 161.2 291.8 161.6 291.7 162 291.7 162.5 291.7 162.9 291.7 164.4 291.7 165.8 291.7 167.2 291.8 168.7 291.7 170 291.4 171.4 291.3 171.7 291.3 172.1 291.3 172.4 291.4 172.8 291.4 173.1 291.5 173.4 291.6 173.9 291.6 174.4 291.6 174.8 291.7 175.2 291.7 175.7 291.8 176.2 290.5 176.6 289.7 177.3 289.5 178.3 288.6 178.7 287.8 178.7 287.2 178.4 286.6 178.1 286.1 177.7 285.6 177.1 285 176.6 284.6 176 284.4 175.3 284.1 174.7 283.8 174 283.6 173.2 283.1 170.5 282.8 168 282.8 165.6 282.8 162.7 282.7 159.8 282.7 156.9 282.7 154 282.8 151.1 282.9 148.2 283.1 145.2 283.1 142.3 283.2 139.4 283.2 136.5 283.3 133.5 283.4 130.6 283.6 127.2 283.7 123.8 283.9 120.5 284.1 117.2 284.2 113.8 284.4 110.4 284.4 108.5 284.5 106.6 284.6 104.8 284.7 103 284.8 101.1 284.9 99.2 284.9 98.8 285 98.4 285 98 285 97.6 285.1 97.1 285.2 96.6 285.2 96.1 285.4 95.7 285.8 95.3 286.2 94.8 286.6 94.7 287.1 95 287.9 95.3 288.8 95.7 289.8 96.1 290.4 96.6 290.8 97.2 291 97.8 291.2 98.7 291.4 99.6 291.7 100.5 292.1 101.4 292.3 102.3 292.4 103.3 292.4 103.6 292.5 104 292.6 104.3 292.7 104.7 292.9 105.1 292.9 105.4 293 105.8 293 106.2 293 106.6 293 107 293.1 107.5 293.1 107.9 293.1 108.3 293.2 108.7 293.2 109 293.6 109.9 293.8 110.9 293.8 111.9 293.8 113 294 113.9 294.2 114.9L294.2 115.3C294.3 115.6 294.3 115.9 294.2 115.9 294.1 116 293.8 116.1 293.3 116.3 293.4 116.6 293.6 116.9 293.8 117.3 293.7 117.7 293.6 118.1 293.4 118.5 293.3 118.9 293.2 119.3 293 119.6 293.5 120.4 293.8 121 293.9 121.3 294 121.6 294 122.2 294 123.1L294 124.8 294 126.2C294.5 125.9 294.8 126 295 126.3 295.2 127.2 295.4 128.1 295.4 128.9 295.5 129.7 295.4 130.5 295.3 131.4L294.2 131.4C294.2 131.8 294.2 132 294.4 132.2 294.7 132.4 294.8 132.6 295 132.9 295.4 133.2 295.4 133.6 295 134.1 294.8 133.9 294.7 133.8 294.6 133.8 294.5 133.7 294.4 133.6 294.2 133.5 294.2 134.3 294.2 135.1 294.2 136 294.2 136.8 294.2 137.7 294 138.8 294.4 138.4 294.7 138.2 294.9 138 295.1 137.8 295.3 137.7 295.5 137.5L298.5 133.9C298.5 133.8 298.5 133.7 298.6 133.7 298.6 133.6 298.6 133.5 298.6 133.5 298.6 133.2 298.6 133 298.5 133 298.4 132.8 298.2 132.8 298 132.9 297.6 133 297.3 133.1 297 133.3 297.1 132.6 297.3 132.2 297.6 131.8 298 131.4 298.4 131.1 298.8 130.8 299 130.7 299.1 130.6 299.1 130.6 300.3 130.3 301.2 129.8 302 129.1 302.7 128.4 303.5 127.6 304.2 126.6 305.3 125.3 306.3 124.1 307.4 122.8 308.5 121.5 309.5 120.3 310.6 119 311.7 117.6 313.1 116.8 314.6 116.6 315.1 116.5 315.4 116.4 315.8 116.3 316.2 116.2 316.5 116 316.9 115.8 318.7 114.9 320.6 114.8 322.4 115.5 322.7 115.6 323 115.7 323.3 115.8 323.6 115.9 323.9 116 324.1 116.1 324.6 116.3 324.7 116.7 324.3 117.1 324.2 117.2 324.1 117.3 324.1 117.3 324 117.4 324 117.5 323.8 117.7 323.3 118.1 323.2 118.6 323.4 119.2 323.5 119.4 323.5 119.6 323.6 119.7 323.6 119.9 323.6 120.1 323.6 120.3 323.8 121.5 323.5 122.4 322.5 123.1 322.2 123.2 322 123.4 321.8 123.6 321.6 123.8 321.4 124 321.2 124.2L319.9 125.7C319.9 125.4 319.9 125.2 319.9 124.9 319.9 124.6 319.8 124.3 319.8 124 319.7 124 319.6 124.1 319.4 124.1 319.2 124.1 319.1 124.1 319 124.3 318.8 124.4 318.7 124.5 318.6 124.7 317.7 126.1 316.8 127.3 315.7 128.5 314.7 129.7 313.6 130.9 312.6 132.2 312.5 132.4 312.3 132.6 312.2 132.8 312.1 133 311.9 133.2 311.8 133.4 312 133.8 312.3 134.3 312.7 134.6 313 135 313.2 135.6 313.2 136.3 312.9 136.1 312.7 135.9 312.6 135.8 312.4 135.6 312.2 135.4 312 135.3 311.4 134.8 310.9 134.9 310.5 135.4 310.2 135.7 310 136 310 136.4 310 136.7 310.1 137 310.5 137.1 311.1 137.5 311.6 138.3 311.8 139.4 312.2 139.1 312.4 138.9 312.5 138.9 313 139.1 313.3 139.4 313.1 139.9 313 140.4 313 140.8 313.3 141.1 313.6 141.3 313.9 141.6 314.2 141.8L314.3 141.8C314.1 142 314 142.3 314.2 142.6 314.3 142.8 314.4 142.9 314.4 143 314.4 143.1 314.5 143.2 314.5 143.4 314.6 144 314.8 144.5 315.2 145.1 315.7 145.8 316.2 146.6 316.7 147.3 317.2 148 317.6 148.7 318.1 149.5 319.3 151.4 320.4 153.3 321.5 155.2 322.7 157.1 323.8 159 324.9 160.8 325.5 161.6 326 162.4 326.4 163.2 326.8 164.1 327.2 164.9 327.5 165.7 328 166.7 328.5 167.7 329.1 168.7 329.7 169.6 330.3 170.6 330.9 171.5 331 171.8 331.2 172.2 331.4 172.4 331.6 172.7 331.6 173.1 331.5 173.5L331.5 173.5Z"/><path d="M381.4 98.9C381.7 99.1 382 99.2 382.4 99.2 382.8 99.3 383.1 99 383.4 98.5 382.9 98.3 382.5 98.3 382.3 98.5 382 98.6 381.7 98.7 381.4 98.9L381.4 98.9ZM379.4 98.9C379.1 98.6 378.9 98.5 378.6 98.5 378.4 98.6 378.2 98.6 378 98.8 376.8 99.2 375.6 99.5 374.4 99.8 373.2 100 372 100.3 370.8 100.6 370.7 100.6 370.6 100.7 370.4 100.7 370.3 100.8 370.2 100.8 370 100.8 370 101.4 370.2 101.6 370.6 101.4 371.9 101.2 373.1 100.9 374.4 100.7 375.7 100.4 377 100.2 378.3 99.9 378.6 99.8 378.8 99.7 379 99.5 379.1 99.4 379.3 99.2 379.4 98.9L379.4 98.9ZM362.3 134.5C362.4 134.4 362.5 134.3 362.7 134.2L362.5 134.2C362.5 134.3 362.4 134.4 362.4 134.5 362.2 134.5 362.2 134.5 362.1 134.4 362.1 134.4 362 134.4 362 134.4 362 134.4 362.1 134.4 362.1 134.4 362.2 134.5 362.2 134.5 362.3 134.5L362.3 134.5ZM359.4 135.7L360.1 135 360 134.9 359.8 134.7C359.3 134.6 359.1 134.7 359.2 135.1L359.4 135.7ZM363.5 104.5C364.6 104.2 365.6 104 366.7 103.7 367.7 103.4 368.8 103.1 369.9 102.8 369.7 102.4 369.4 102.1 369.2 101.9 369 101.7 368.8 101.4 368.5 101.1 366.5 101.6 364.6 102.1 362.7 102.5 360.9 102.9 358.9 103.4 357 104 356.7 104 356.4 104.1 356 104.3 356.4 104.4 356.7 104.5 357.1 104.6 357.4 104.7 357.8 104.7 358.1 104.8 357.9 105.1 357.6 105.4 357.2 105.8 357.5 105.8 357.8 105.8 357.9 105.8 358.1 105.7 358.3 105.7 358.5 105.6 359.1 105.5 359.8 105.3 360.4 105.2 361.1 105 361.7 104.6 362.1 103.9 362.1 103.7 362.4 103.6 362.8 103.5 363.2 103.3 363.6 103.2 364.1 103.1 364.5 103 365 103 365.4 103 365.3 103.3 365.1 103.5 364.9 103.5 364.7 103.6 364.5 103.6 364.3 103.7 364 103.7 363.9 103.8 363.8 104 363.7 104.1 363.6 104.3 363.5 104.5L363.3 104.5 363.5 104.5ZM352.5 105.7C352.3 105.6 352.2 105.5 352.1 105.4 352 105.3 351.9 105.1 351.9 105L351.7 105.2C351.6 105.3 351.5 105.3 351.5 105.3 351.5 105.8 351.6 106.1 352 106.1 352 106.1 352.2 106 352.5 105.7L352.5 105.7ZM348.2 137.6L348.2 137.5 347.6 137.5 347.5 137.6 348.2 137.6ZM345.5 143.9C346.1 144.3 346.5 144.3 346.9 144.1 346.3 143.7 345.9 143.6 345.5 143.9L345.5 143.9ZM345.1 109.9L345 109.8 344.8 109.9 344.9 110C345 109.9 345.1 109.9 345.1 109.9L345.1 109.9ZM344.6 107.1C344.8 108 345.2 108.4 345.8 108.2 346 108 346.2 107.9 346.4 107.8 346.6 107.6 346.8 107.5 347 107.4L347 106.6C346.6 106.8 346.2 106.9 345.8 106.9 345.4 106.9 345 107 344.6 107.1L344.6 107.1ZM337.2 110.6C337 110.6 337 110.6 336.9 110.5 336.9 110.4 336.8 110.4 336.8 110.4L336.7 110.5C336.6 110.5 336.6 110.5 336.6 110.6 336.5 110.7 336.5 110.7 336.6 110.8 336.6 110.8 336.7 110.9 336.7 111 336.7 110.9 336.9 110.8 337.2 110.6L337.2 110.6ZM341.3 104.1C341.5 104.2 341.7 104.3 341.9 104.2 342.2 104.2 342.4 104.3 342.5 104.6 342.6 105.1 342.9 105.3 343.6 105 344.2 104.8 344.7 104.7 345.2 104.6 345.7 104.5 346.2 104.6 346.7 104.9 346.9 105 347.1 105 347.4 104.9 347.7 104.8 348 104.6 348.1 104.4 348.1 104.3 348.1 104.1 348 103.9 348 103.7 348 103.5 348 103.3 348.1 103.3 348.2 103.4 348.2 103.3 348.2 103.3 348.3 103.3 348.4 103.3 348.7 103.3 349 103.4 349.2 103.6 349.4 103.9 349.6 104.1 349.8 104.3 350.6 104 351.3 103.8 352 103.7 352.7 103.5 353.4 103.4 354.1 103.2 354.3 103 354.4 102.9 354.6 102.9 354.8 102.9 355 102.8 355.1 102.7 356.3 102.3 357.4 101.8 358.6 101.4 359.8 100.9 360.9 100.5 362.1 100 362.8 99.7 363.6 99.4 364.4 99.3 365.2 99.2 365.9 99 366.7 98.9 367.6 98.6 368.6 98.4 369.6 98.2 370.6 98 371.5 97.7 372.5 97.5 373.2 97.2 374 97 374.8 96.8 375.6 96.7 376.5 96.5 377.3 96.3 377.6 96.3 378.1 96.3 378.8 96.1 380.2 95.8 381.7 95.6 383.2 95.4 384.7 95.3 386.2 95.1 387.7 95L388.1 95C388.6 95.1 389.2 95.3 389.8 95.5 390.3 95.6 390.9 95.8 391.6 95.9 391.3 96.3 391 96.6 390.7 96.8 390.5 97 390.2 97.1 389.8 97.3 389.5 97.4 389.1 97.4 388.7 97.4 388.3 97.3 387.9 97.4 387.5 97.8 388.7 98.1 389.9 98.4 390.9 98.5 392 98.7 393.1 98.8 394.3 98.8 394.7 98.7 395.1 98.7 395.5 98.7L396.5 98.7C396.8 98.7 397 98.9 397.2 99.2 397.1 99.3 397.1 99.3 397.1 99.4L397 99.6C396.8 99.7 396.7 99.9 396.5 100 396.4 100.1 396.3 100.2 396.2 100.3 395.5 101.5 394.6 102.3 393.5 102.7 392.5 103.2 391.4 103.6 390.2 104 390.2 104.1 390.1 104.1 390.1 104.1 390 104.1 390 104.1 389.9 104.2 390.1 104.5 390.3 104.6 390.6 104.5 391 104.4 391.2 104.6 391.5 104.9 391.3 105 391.2 105.1 391 105.2 390.8 105.3 390.6 105.4 390.4 105.5 388.7 106.1 387.1 106.7 385.8 107.6 385.4 107.9 384.9 108.1 384.3 108.2 383.8 108.3 383.2 108.5 382.7 108.7 380.7 109.4 378.7 110.1 376.6 110.8 376 111 375.5 111.1 375.1 111.1 374.5 111.3 373.9 111.4 373.3 111.5 372.7 111.6 372.1 111.7 371.6 111.8 369.2 112.4 367 112.9 364.7 113.4 362.4 113.9 360.1 114.5 357.7 115 356.5 115.2 355.4 115.5 354.3 115.8 353.1 116.1 352.1 116.5 351.1 116.9 350.2 117.3 349.3 117.8 348.4 118.2 347.5 118.7 346.6 119 345.5 119.2 345 119.5 344.8 119.9 344.9 120.4L344.9 120.9C345.3 122.1 345.4 123.2 345.4 124.4 345.4 125.5 345.3 126.7 345.3 127.9 345.3 128.6 345.3 129.4 345.3 130.2 345.3 131 345.4 131.8 345.7 132.5 345.9 132.5 346.2 132.6 346.4 132.6 346.6 132.6 346.7 132.6 346.9 132.6 347.6 132.5 348.4 132.4 349.1 132.3 349.9 132.3 350.7 132.2 351.5 132 351.9 132 352.3 132 352.7 132 353.1 132 353.5 132.2 353.9 132.4 354.3 132.6 354.6 132.7 354.9 132.8 355.3 132.9 355.6 133 356 133.2 356.2 133.3 356.5 133.3 356.8 133.3 357.1 133.3 357.4 133.1 357.7 132.6 357.9 132.4 358.2 132.2 358.6 132 359.4 131.8 360.2 131.7 361.1 131.6 361.9 131.6 362.7 131.5 363.5 131.3L364 131.5 363.7 131.8C363.6 131.9 363.5 131.9 363.4 131.9 363.1 132.1 362.7 132.2 362.4 132.2 362.1 132.2 361.8 132.3 361.5 132.3 361.1 132.4 360.7 132.5 360.3 132.5 359.9 132.5 359.6 132.6 359.2 132.7 359.4 132.7 359.5 132.8 359.7 132.8 359.9 132.8 360.1 132.8 360.2 132.7 361.2 132.7 362.1 132.6 362.9 132.6 363.8 132.6 364.7 132.7 365.6 132.9 367 133 368.2 132.6 369.2 131.7 369.1 131.6 368.9 131.5 368.8 131.4 368.6 131.3 368.4 131.2 368.2 131 368.2 130.5 368.5 130.2 369 130.1 369.4 130 369.8 129.9 370.2 129.8 370.6 129.8 371.1 129.7 371.6 129.6 372.5 129.5 373.5 129.2 374.5 129 375.5 128.7 376.4 128.2 377.2 127.4 377.5 127.2 377.8 127 378.2 126.8 378.5 126.6 378.9 126.5 379.2 126.3 380 126.7 380.4 126.9 380.6 127.1 380.8 127.3 381.1 127.6 381.5 128.2 381.7 128 382.2 127.9 382.9 127.8 383 128.1 383 128.4 382.9 128.7 382.7 128.9 382.7 129.2 382.9 129.5 383 129.6 383.1 129.8 383 130.1 382.9 130.4 382.8 130.6 382.7 130.8 382.6 130.9 382.5 131.1 382.4 131.3 382.3 131.4 382.2 131.6 382.1 131.8 381.7 132.4 381.4 133.1 381 133.7 380.6 134.4 380.4 135.1 380.2 135.8 380 137.1 379.4 138 378.5 138.6 377.5 139.6 376.7 140.5 376 141.4 375.7 142 375.3 142.3 374.8 142.5 374.3 142.7 373.7 142.8 373.1 142.9 371.9 143.2 370.6 143.5 369.4 143.7 368.2 143.9 367 144.1 365.7 144.3 362.8 144.6 359.9 144.8 356.9 144.8 354 144.9 351 144.9 347.9 144.9 347.4 144.9 346.8 144.8 346.2 144.5 345.3 144.5 344.8 144.9 344.8 145.7 344.8 146.1 344.8 146.5 344.7 147 344.7 147.4 344.6 147.9 344.6 148.4 344.5 150.1 344.4 151.9 344.4 153.6 344.3 155.3 344.3 157.1 344.1 158.9 344.1 159.3 344.1 159.8 344.2 160.3 344.2 160.8 344.2 161.2 344.1 161.6 344.8 162.1 345.5 162.4 346.2 162.5 346.9 162.6 347.7 162.6 348.4 162.4 349.6 162.2 350.7 162 351.9 161.9 353.1 161.7 354.3 161.5 355.5 161.4 356.5 161.3 357.4 161.1 358.3 161 359.2 160.9 360.1 160.8 361 160.7 361.2 160.6 361.4 160.6 361.6 160.6 361.9 160.7 362.1 160.7 362.4 160.6 363 160.6 363.4 160.5 363.7 160.4 365.8 160 367.9 159.7 370 159.5 372.1 159.4 374.2 159.2 376.4 159.2L379.3 159.2C380.9 159 382.6 159 384.2 159 385.8 159 387.5 158.9 389.1 158.8 390.1 158.7 391 158.6 391.8 158.5 392.7 158.4 393.5 158.3 394.4 158.1 395 158 395.6 157.9 396.2 157.7 396.9 157.6 397.5 157.5 398.2 157.5 398.7 157.5 399.1 157.4 399.5 157.4 399.9 157.4 400.4 157.4 400.8 157.3 401.3 157.3 401.5 157.6 401.5 158 401.6 158.2 401.7 158.6 401.7 159.2 401.9 159.4 402 159.5 402.2 159.6 402.4 159.7 402.5 159.8 402.7 160L402.7 160.4C402.4 160.8 402.1 161.2 401.9 161.7 401.6 162.1 401.3 162.6 400.9 163 400.6 163.6 400.3 164.1 400 164.7 399.7 165.3 399.6 166 399.5 166.7 399.2 167.8 398.7 168.7 397.9 169.4 397.3 169.8 396.7 170.1 396.1 170.4 395.4 170.7 394.7 171 394 171.1 392.9 171.2 391.8 171.4 390.7 171.5 389.6 171.6 388.6 171.7 387.5 171.8 384.5 172.1 381.7 172.3 378.8 172.6 375.9 172.8 373.1 173.1 370.2 173.3 368.3 173.5 366.3 173.7 364.4 173.9 362.5 174.1 360.6 174.4 358.6 174.8 356.4 175.1 354.3 175.4 352.2 175.7 350.1 176 347.9 176.2 345.8 176.3L342.8 176.3C341.5 176.3 340.3 175.9 339.2 175.1 338.7 174.7 337.9 174.3 336.9 173.9 336.3 173.4 336 172.9 336.2 172.4 336.3 172.1 336.3 171.7 336.3 171.4 336.2 171.1 336.1 170.7 336 170.3 336 169.9 335.9 169.6 335.9 169.3 335.9 169 335.9 168.7 335.9 168.3 335.8 167.7 335.8 167.1 335.8 166.5 335.8 166 335.8 165.4 335.7 164.8 335.5 164.4 335.5 164.1 335.5 163.8 335.5 163.5 335.6 163.2 335.7 162.8 336.1 160.7 336.5 158.6 336.7 156.5 337 154.4 337.2 152.3 337.3 150.1 337.4 148.3 337.5 146.6 337.6 144.9 337.7 143.3 337.8 141.6 337.8 139.9 337.7 138.9 337.7 137.8 337.7 136.8 337.8 135.7 337.7 134.7 337.6 133.7 337.6 131.8 337.6 130 337.5 128.2 337.5 126.4 337.5 124.6 337.4 122.7 337.4 122.6 337.3 122.3 337.2 121.7 336.6 121.7 336.3 121.8 336.1 121.8 335.9 121.9 335.7 122 335.5 122.1 335.3 122.2 335.1 122.3 334.9 122.3 334.2 122.7 333.6 122.4 333.2 121.6 333.1 121.6 333.1 121.5 333.1 121.3L333.1 121.2C332.6 120.4 332.3 119.6 332.4 118.9 332.5 118.2 332.8 117.5 333.1 116.8 333.3 116.2 333.5 115.5 333.6 114.9 333.7 114.4 333.5 113.7 333.1 113.1 332.9 112.7 332.8 112.3 332.9 111.9 333 111.5 333.1 111.2 333.3 110.8 333.4 110.5 333.6 110.3 333.8 110.2 333.9 110.1 334.1 109.9 334.2 109.7 334.3 109.6 334.4 109.4 334.5 109.2 334.6 109.1 334.7 108.9 334.7 108.8 334.9 108.2 335 107.8 335.1 107.7 335.2 107.6 335.5 107.6 336.1 107.6L336.9 107.6C336.9 107.6 337 107.5 337 107.5 337 107.5 337 107.5 337.2 107.5 337.2 107.4 337.2 107.4 337.2 107.4 337.3 107.4 337.3 107.3 337.3 107.1 337.7 106.5 338.1 105.9 338.6 105.2 339 104.5 339.4 103.8 339.7 103.2 340.1 102.8 340.3 102.7 340.6 102.8 341 102.8 341.3 103.1 341.3 103.7L341.3 104.1Z"/><g id="Group-13" transform="translate(403.000000, 92.383000)"><mask id="mask-2" fill="white"><use xlink:href="#path-1"/></mask><g id="Clip-12"/><path d="M52.9 67.2C52.9 67.4 52.9 67.5 52.8 67.6L53 67.6C53.1 67.5 53.1 67.4 53.1 67.2L52.9 67.2ZM24.3 45.3L24.3 44.3C24.3 43 24.4 41.6 24.5 40.1 24.5 38.6 24.6 37.2 24.6 35.9 24.7 35.8 24.8 35.8 24.9 35.9 25 36 25.1 36.2 25.1 36.3 25.1 37.1 25.1 37.9 25.2 38.6 25.2 39.4 25.1 40.2 24.9 41 24.8 41.5 24.8 41.9 24.8 42.3 24.8 42.6 24.7 43.1 24.7 43.6L24.7 45.3 24.3 45.3ZM24.3 47C24.5 47.9 24.6 48.7 24.6 49.1 24.6 49.6 24.5 50.4 24.4 51.5 23.8 50 23.8 48.5 24.3 47L24.3 47ZM21.9 64.7L21.8 64.7 21.8 65.3 21.8 65.6C21.8 65.5 21.8 65.5 21.9 65.5 21.9 65.5 21.9 65.4 21.9 65.4L21.9 64.7ZM20.6 11C20.4 14.2 20.4 16.5 20.5 17.9 20.6 19.4 20.7 20.4 20.9 21.1 21.1 19.5 21.1 17.8 21 16.1 20.8 14.5 20.7 12.8 20.6 11L20.6 11ZM14.4 43.1C14.1 44.3 13.9 45.3 13.7 46.3 13.5 47.2 13.4 48.2 13.4 49.1 13.4 49.6 13.4 50.1 13.2 50.7 13.2 51.6 13 52.5 12.9 53.4 12.7 54.3 12.7 55.2 12.8 56.2 12.8 56.7 12.7 57.1 12.5 57.5 12 59.1 11.8 60.6 11.7 62.1 11.6 63.7 11.4 65.2 11.2 66.8 11.1 67.2 11.2 67.4 11.6 67.5 11.7 67.4 11.7 67.2 11.8 67 11.9 66.9 11.9 66.7 12 66.5 12.3 64.4 12.5 62.4 12.7 60.4 12.9 58.3 13.2 56.3 13.4 54.2 13.8 52.1 14.1 49.9 14.3 47.8 14.5 45.6 14.8 43.5 15.1 41.3 15.4 39.7 15.6 38.1 15.8 36.4 15.9 34.8 16 33.1 16.1 31.5 16.2 30.5 16.2 29.4 16.3 28.3 16.4 27.2 16.4 26 16.2 24.9 16.1 25.6 16 26.3 16 26.9 16 27.4 15.6 27.9 14.9 28.2 14.7 28.3 14.7 28.5 14.7 28.7 14.7 29 14.6 29.2 14.6 29.5 14.5 30 14.5 30.6 14.6 31.2 14.7 31.8 14.7 32.4 14.5 32.9 14.3 33.7 14.2 34.3 14.4 35 14.5 35.6 14.5 36.3 14.3 37L14.6 37.3C14.9 37.6 15.1 37.8 15 38 15 38.2 14.9 38.4 14.8 38.5 14.2 39.1 13.9 39.7 13.8 40.3 13.7 41 13.6 41.6 13.5 42.3 13.7 42.4 13.8 42.6 13.9 42.7 14.1 42.8 14.2 43 14.4 43.1L14.4 43.1ZM56.3 70.4C56.5 70.1 56.8 70.2 57.2 70.5 56.9 70.9 56.7 71.3 56.5 71.9 56.6 72 56.7 72.2 56.8 72.3 56.9 72.5 57.1 72.7 57.3 72.9 57.2 73.2 57 73.4 56.9 73.6 56.8 73.8 56.6 74.1 56.5 74.4 56.8 74.7 57 74.8 57.3 74.8 57.7 74.8 58 74.8 58.3 74.6 58.7 74.6 59 74.5 59.4 74.4 59.8 74.4 60.2 74.3 60.6 74.1 60.4 74.5 60.2 74.8 60.1 74.9 59.7 75.1 59.4 75.2 59 75.4 58.7 75.6 58.4 75.7 58 75.8 57.5 75.8 57 75.9 56.6 75.9 56.2 75.9 55.8 75.9 55.4 76 55.2 76.1 55.1 76.3 55 76.6 54.9 76.8 54.8 77.1 54.6 77.4 55.1 77.4 55.6 77.5 56.2 77.7 55.6 78.3 55.2 78.8 55.1 79.1 54.9 79.7 54.7 80 54.3 80.1 54 80.3 53.7 80.5 53.4 80.7 53.1 80.9 52.8 81 52.6 81.1 52.3 81.2 52.1 81.3 51.8 81.5 51 81.8 50.4 82.3 50.1 82.8 49.9 83.1 49.7 83.4 49.4 83.5 49.1 83.6 48.8 83.7 48.4 83.8 46.8 84 45.2 84.1 43.5 84.3 41.9 84.5 40.3 84.5 38.6 84.3 38.1 84.3 37.5 84.3 37 84.4 36.5 84.5 35.9 84.6 35.3 84.6 34.7 84.6 34.2 84.6 33.7 84.7 33.2 84.7 32.7 84.8 32.2 84.8 30.3 84.8 28.4 84.7 26.5 84.7 24.7 84.6 22.8 84.5 21 84.2 20.8 84.2 20.5 84.1 20.2 84.2 19.8 84.2 19.6 84.4 19.4 84.7 19.1 85.1 18.7 85.2 18.1 84.9 17.8 84.6 17.4 84.4 17.1 84.4 16.8 84.3 16.4 84.3 16.1 84.3 15.7 84.3 15.4 84.3 15.2 84.4 14.9 84.4 14.6 84.5 14.4 84.7 13.4 84.7 12.7 85 12.2 85.6 12 86 11.6 86.3 10.9 86.6 10.8 86.3 10.6 86.1 10.4 85.9 10.2 86.1 10 86.2 9.8 86.4 9.6 86.5 9.4 86.6 9.2 86.8 9 86.5 8.8 86.2 8.6 86 8.4 85.8 8.2 85.5 7.9 85.2 7.6 85.6 7.2 85.9 6.9 86.3 6.5 86.7 6.2 87.1 5.9 87.5 5.5 87.2 5.1 87.2 4.9 87.4 4.6 87.7 4.3 87.9 4 88 4 87.7 3.9 87.4 3.9 87.2 3.9 87 3.8 86.8 3.8 86.7 4 86.3 4 86 3.9 85.8 3.8 85.5 3.7 85.2 3.5 84.8 3.3 84.2 3.2 83.7 3.2 83.5 3.2 83.2 3.5 82.8 4.1 82.1 4.1 81.7 3.9 81.5 3.5 81.5 3.2 81.4 3.1 81.2 3.1 81 3.1 80.6 2.9 80.2 2.4 79.8 2.1 80.7 1.9 81.4 1.9 82.1 1.8 82.8 1.6 83.6 1.2 84.3 0.7 84.3 0.6 84 0.7 83.3 1 82.2 1.2 81.1 1.2 80.1 1.3 79 1.3 78 1.2 77 1.2 76.4 1.2 76.1 1.3 75.9 1.7 73.9 1.9 71.9 2 69.8 2.1 67.8 2.2 65.8 2.3 63.8 2.5 62.2 2.6 60.6 2.9 58.9 3.1 57.3 3.3 55.6 3.4 53.9 3.6 52.4 3.8 50.8 4.1 49.3 4.3 47.8 4.5 46.3 4.7 44.8 4.8 44.1 4.9 43.4 5 42.9 5.1 42.3 5.2 41.7 5.4 41.1 5.6 39.8 5.8 38.6 5.9 37.5 6.1 36.3 6.3 35.2 6.4 34.1 6.5 33.5 6.6 32.8 6.7 32.1 6.8 31.3 6.9 30.7 7 30.1 7.1 28.6 7.2 27.2 7.4 25.8 7.5 24.4 7.7 23 7.8 21.6 7.9 21.1 7.9 20.6 8 20.1 8 19.5 8 19 8 18.4L8 18.1C8.4 16.6 8.6 15.1 8.6 13.6 8.7 12.1 8.7 10.7 8.6 9.4 8.6 8.1 9.1 7.1 10 6.3L10.5 6.3C10.5 6.5 10.6 6.9 10.8 7.5 11.2 7.1 11.6 6.7 12 6.3 12.3 6 12.7 5.5 12.9 5L13.7 5C13.8 4.8 13.9 4.8 13.9 4.7 14 4.7 14.1 4.6 14.1 4.6 14.2 4.4 14.3 4.3 14.3 4.1 14.3 3.8 14.3 3.6 14.4 3.4 14.5 2.5 15 2 15.9 1.9 16.8 1.8 17.4 1.4 17.9 0.9 18.1 0.8 18.3 0.7 18.5 0.8 18.8 0.9 19 1.1 19 1.4 19.2 1.7 19.3 1.9 19.3 2.1 19.3 2.3 19.3 2.6 19.4 2.8 19.6 2.5 19.7 2.4 19.8 2.5 19.9 2.7 20.1 2.8 20.3 2.9 20.4 2.5 20.5 1.9 20.7 1.4 20.7 1.4 20.8 1.4 20.8 1.3 20.9 1.2 20.9 1.2 21 1.2 21.4 1.3 21.8 1.3 22.2 1.4 22.5 1.4 23 1.4 23.4 1.4 23.6 1.9 23.8 2.4 24.3 2.6 24.9 3.2 25.2 3.8 25.4 4.5 25.5 5.2 25.5 6.1 25.4 7 25.2 6.7 25.1 6.4 25.1 6.1 25 5.9 24.9 5.6 24.8 5.2 24.7 6 24.6 6.7 24.6 7.3 24.5 7.9 24.5 8.6 24.5 9.3 24.5 11.4 24.6 13.6 24.6 15.8 24.6 18 24.7 20.1 24.7 22.3L24.7 26.8C24.3 26.5 24.1 26.2 24 25.9 23.9 25.7 23.8 25 23.6 23.8 23.4 24.3 23.3 24.8 23.4 25.4 23.6 25.9 23.4 26.4 22.9 26.8 22.7 26.5 22.5 26.3 22.4 26.2L22.4 24.1C22.3 22.5 22.3 20.9 22.3 19.3 22.3 17.6 22.3 16 22.2 14.3 22.2 14 22.2 13.9 22.3 13.7 22.3 13.5 22.3 13.3 22.3 13 22.6 13.2 22.8 13.3 23 13.3 23 13.1 23.1 12.9 23.1 12.6 23.2 12.4 23.1 12.2 22.7 12.1 22.3 11.8 22.1 11.6 22 11.2 21.9 10.9 21.8 10.6 21.8 10.3 21.7 9.5 21.7 8.7 21.6 7.9 21.6 7.1 21.5 6.3 21.2 5.6 21.3 7.2 21.4 8.8 21.4 10.5 21.5 12.1 21.5 13.8 21.6 15.5 21.6 16.6 21.6 17.8 21.6 19 21.7 20.2 21.6 21.4 21.4 22.5L21.4 23.7C21.4 24.7 21.4 25.7 21.3 26.6 21.2 27.6 21.2 28.6 21.3 29.6 21.3 29.7 21.3 29.9 21.2 30.1 21.1 30.3 21.1 30.4 21.1 30.6 21.2 33.7 21.2 36.8 21 39.8 20.9 42.7 20.7 45.9 20.6 49.1 20.6 50.2 20.5 51.2 20.5 52.4 20.4 53.5 20.3 54.5 20.2 55.6 20 56.3 19.9 57 19.8 57.7 19.6 58.4 19.5 59.1 19.5 59.8 19.4 60.1 19.4 60.3 19.4 60.6 19.4 60.8 19.5 61.1 19.5 61.5 19.5 62 19.6 62.6 19.6 63.2 19.6 63.8 19.4 64.4 18.9 64.9 18.8 65.1 18.8 65.2 18.8 65.4 18.8 65.5 18.8 65.6 18.8 65.8 18.8 65.9 18.9 66.1 18.9 66.3 19 66.5 19.2 66.6 19.6 66.6 20.2 66.7 20.6 66.5 20.6 66 20.7 65.6 20.8 65.1 20.8 64.7 20.8 64.3 20.8 63.8 21 63.3 21.1 63 21.1 62.7 21.1 62.4 21.2 62.2 21.2 62 21.3 61.7 21.6 61.5 21.8 61.6 21.9 61.7 21.9 61.9 22 62.1 22.1 62.2 22.2 62 22.4 61.8 22.5 61.5 22.6 61.2 22.7 61 22.8 60.8L23.1 61.1C23.1 61.8 23 62.6 22.9 63.3 22.9 64.1 22.8 64.8 22.8 65.6 22.8 65.8 22.8 66 22.9 66.2 22.9 66.4 22.9 66.6 22.9 66.8 23.6 66.7 24.2 66.7 24.8 66.7 25.3 66.8 25.9 66.8 26.6 66.9 27.9 66.8 29.2 66.8 30.6 66.8 31.9 66.8 33.3 66.7 34.7 66.6 35.3 66.6 35.8 66.5 36.4 66.4 36.9 66.3 37.5 66.2 38.2 66.1 38.9 65.9 39.6 65.7 40.2 65.6 40.9 65.4 41.6 65.3 42.3 65.2 43.3 65 44.3 64.9 45.3 64.7 46.3 64.6 47.3 64.5 48.3 64.3 49.3 64.1 50.4 64.1 51.4 64.3 52.5 64.5 53.5 64.8 54.5 65.2 55.2 65.3 55.5 65.5 55.6 65.8 55.6 66 55.5 66.5 55.1 67.2 55.2 67.3 55.4 67.4 55.6 67.4 55.9 67.5 56 67.6 56.2 67.7 56.4 67.9 56.4 68.1 56.4 68.4 56.4 68.5 56.4 68.6 56.4 68.7 56.3 68.8 56.2 68.8 56.1 68.8 56 68.9 55.7 68.9 55.3 68.9 55.1 68.9 55 69 54.8 69 54.7 69.1 54.6 69.1 54.4 69.1 54.5 69.4 54.6 69.5 54.8 69.4 55 69.3 55.1 69.2 55.3 69.2 55.7 69.3 55.9 69.4 56 69.6 56.1 69.8 56.2 70.1 56.3 70.4L56.1 70.4 56.3 70.4Z" mask="url(#mask-2)"/></g><path d="M46.5 62.8C46.6 63.7 46.5 64.4 46.3 64.9 46.1 65.4 45.6 65.8 44.8 66.1 44.5 66.2 44.4 66.3 44.4 66.5 44.4 66.6 44.2 66.8 43.9 67 43.9 67.3 44 67.4 44.1 67.4 44.1 67.3 44.2 67.5 44.3 67.8 44.1 67.9 43.9 68.2 43.8 68.5 43.7 68.9 43.6 69.3 43.4 69.7 43.3 70.1 43.2 70.5 43.1 70.9 42.9 71.3 42.8 71.5 42.6 71.6 42.4 71.7 42.2 71.9 42 72.3 41.6 73.2 41 74.1 40.3 74.8 39.6 75.4 38.7 75.8 37.8 75.9 37.4 76 37.1 76 36.9 76.2 36.7 76.3 36.3 76.4 35.9 76.5 36.1 76.1 36.2 75.8 36.4 75.6 36.5 75.3 36.7 75.1 37 74.9 37.3 74.7 37.6 74.5 38.1 74.3 38.5 74.2 39.2 74 40 73.8 40 73.6 39.9 73.5 39.9 73.4 39.5 73.5 39.1 73.6 38.8 73.7 38.4 73.8 38 73.9 37.6 73.9 37.3 74 37 74.1 36.6 74.2 36.3 74.2 36 74.2 35.9 74 35 73.4 34.2 73.2 33.3 73.4 32.5 73.5 31.7 73.7 30.9 73.8 30.5 73.8 30.2 74 30 74.2 29.8 74.4 29.5 74.5 29.1 74.5 28.3 74.5 27.4 74.7 26.5 75 25.7 75.3 24.8 75.4 24 75.3 23.3 75.3 22.6 75.3 21.9 75.4 21.2 75.5 20.5 75.6 19.8 75.6 19 75.5 18.3 75.5 17.7 75.4 17.1 75.4 16.6 74.9 16.3 74.1 16.1 73.3 15.9 72.4 15.7 71.5 15.6 70.5 15.5 69.6 15.3 68.6 15.3 68.6 15.3 68.5 15.5 68.4 15.7 68.4 15.8 68.3 16 68.1 16.3 67.9 16.6 67.7 16.9 67.6 17.2 67.5 17.4 67.5 17.7 67.4 18 67.4 18.3 67.4 18.6 67.4 18.9 67.4 19.4 67.4 19.9 67.3 21 67.2 22.3 66.9 23.7 66.5 25 66 26.4 65.5 27.8 65 29.3 64.5 30.6 64 32 63.4 33.4 62.9 34.6 62.5 35.8 62.2 36 62.1 36.2 61.7 36.4 60.9 36.5 60.2 36.6 59.3 36.7 58.3 36.7 57.3 36.7 56.4 36.7 55.5 36.6 54.6 36.5 54 36.4 53.8 35.3 52.1 34.1 50.4 32.9 48.6 31.6 46.9 30.3 45.3 29.1 43.8 28.2 42.8 27.4 41.8 26.5 40.6 25.5 39.5 24.6 38.4 23.7 37.3 22.7 36.1 21.7 35 20.8 33.9 19.8 32.9 18.8 31.9 17.9 31 17.5 30.7 17 30.5 16.5 30.3 16 30.2 15.5 30.1 14.9 30.1 14.3 30 13.7 30 13.2 29.9 12.6 29.8 12.1 29.7 11.7 29.4 11.2 29.2 10.8 29.2 10.5 29.5 10.1 29.8 10 30.2 10 30.6 10 31.2 10 31.7 9.9 32.2 9.8 32.7 9.7 33.2 9.6 33.7 9.5 34.2 9.4 34.8 9.3 35.3 9.2 35.8 9.2 36.3 9.2 36.9 9.3 37.3 9.3 37.6 9.5 38 9.6 38.4 9.6 38.8 9.5 39.2 9.2 41.9 9.1 44.7 9.3 47.4 9.5 50.1 9.5 52.8 9.3 55.5 9.2 56.2 9.3 56.9 9.4 57.5 9.6 58.2 9.8 58.8 9.9 59.5 9.9 59.7 9.8 59.9 9.7 60.2 9.6 60.4 9.5 60.6 9.5 60.9 9.6 63.7 10 66.3 10.7 68.7 11.4 71.2 12.2 73.7 13.3 76.2 13.6 76.9 13.8 77.4 13.8 77.8 13.8 78.3 13.6 78.8 13.2 79.2 12.5 79 12.1 78.9 11.8 78.8 11.6 78.7 11.1 78.6 10.4 78.5 10.3 78.8 10.4 79.1 10.6 79.4 10.7 79.8 10.9 80.1 11 80.4 11.1 80.7 11.2 81.1 11.2 81.4 11.2 81.7 10.9 82.1 10.5 82.5 9.8 82.2 9.3 81.8 8.9 81.6 8.5 81.3 8 80.9 7.4 80.6 7.2 80.5 7.2 80.5 7.2 80.5 7.3 80.6 7.3 80.5 7.2 80.4 7.2 79.9 7.1 79.6 6.9 79.3 6.7 79 6.4 78.8 6.2 78.6 5.9 78.4 5.7 78.2 5.4 78.1 5.1 78 4.8 77.8 4.5 77.6 4.2 77.5 4 77.4 3.8 77.2 3.6 77 3.5 76.8 3.4 76.6 2 70.4 1 64.3 0.5 58.3 0 52.3-0.1 46 0.1 39.6 0.1 37.9 0.3 36.3 0.4 34.6 0.6 33 0.9 31.4 1.5 29.8 2.2 27.9 3.1 26.3 4.1 25.1 5.1 23.8 6.6 23 8.7 22.6 9 22.6 9.4 22.5 9.9 22.3 11.8 21.1 13.6 20.6 15.4 20.9 17.2 21.1 18.9 21.8 20.6 22.9 21 23.1 21.4 23.3 21.8 23.4 22.2 23.5 22.6 23.7 23 23.9 25.3 25.3 27.5 27 29.4 29 31.3 31 33.2 33 35 35.1 36.3 36.6 37.4 38.1 38.2 39.8 39.1 41.4 40.1 43 41.3 44.6 42.2 45.9 42.9 47.3 43.2 48.7 43.6 50.1 44 51.5 44.4 53.1 44.6 53.8 44.8 54.6 45 55.4 45.2 56.3 45.4 57.1 45.6 57.9 45.8 58.8 46 59.6 46.2 60.5 46.3 61.3 46.5 62.1 46.5 62.8"/><path d="M69.8 44.8C69.4 45.3 69 45.6 68.7 45.9 68.4 46.2 68.1 46.5 67.9 46.8 67.6 47 67.3 47.3 67 47.6 66.7 47.9 66.3 48.2 65.9 48.7 63.8 51 62.2 53.5 60.9 56 60.4 57 60.2 58 60.1 59 60.1 59.7 60 60.3 59.8 60.9 59.7 61.5 59.7 62.2 59.9 62.8 60 63.1 59.9 63.4 59.7 63.7 59.4 64.3 59.3 64.9 59.4 65.5 59.4 66 59.6 66.6 59.9 67.1 60.1 67.6 60.5 68.1 60.8 68.5 61.2 69 61.7 69.2 62.4 69.3 63.4 69.4 64.3 69.3 65.1 69.1 66.4 68.6 67.7 68 68.9 67.3 70.1 66.7 71.3 66 72.5 65.2 73.2 64.7 73.5 64 73.2 63.2 73.2 63 73.1 62.8 73.1 62.6 72.9 61.6 72.7 60.6 72.5 59.6 72.4 58.6 72.2 57.6 72.1 56.7 72 55.6 71.9 54.6 71.7 53.7 71.6 52.8 71.5 51.9 71.4 51 71.2 50.2 71.2 49.3 71.1 48.4 71.1 47.4 71.1 46.5 71.2 45.4 71.2 45.3 71.2 45.2 71.1 45 71.1 44.8 71 44.6 71 44.5 70.9 44.3 70.7 44.3 70.5 44.3 70.4 44.3 70.1 44.5 69.8 44.8M93.9 60.8C93.9 61.1 94 61.3 94.1 61.4 94.1 61.5 94.1 61.7 94.1 61.8 94.2 62.3 94.3 62.7 94.6 62.9 94.9 63.1 95 63.3 95.1 63.5 95.2 63.8 95.2 64.1 95.2 64.4 95.3 64.7 95.3 65 95.4 65.3 95.4 65.6 95.4 66 95.5 66.4 95.5 66.5 95.5 66.7 95.4 66.9 95.1 67.5 95 68.1 95.4 68.9 95.2 69.1 95 69.2 94.9 69.4 94.7 69.5 94.5 69.7 94.3 69.8 94.4 70.2 94.5 70.5 94.6 70.7 94.1 71 93.8 71.1 93.8 71.1 93.1 71.1 92.5 71.4 92.1 72 91.6 72.7 91 73.1 90.3 73.3 89.6 73.6 88.9 73.6 88.1 73.6 87.7 73.5 87.3 73.4 87 73.3 86.6 73.2 86.2 73 85.8 72.9 85.1 72.7 84.3 72.4 83.6 72.2 82.8 71.9 82.1 71.6 81.3 71.3 80.5 71 79.7 71.1 79.1 71.7 78.5 72.3 77.9 72.7 77.2 73 76.6 73.4 75.9 73.7 75.2 74.1 75.1 74.2 74.8 74.3 74.5 74.4 73.3 74.7 72.1 75 70.9 75.3 69.7 75.6 68.5 75.7 67.2 75.7 66.8 75.7 66.3 75.6 65.8 75.5 65.3 75.4 64.9 75.3 64.6 75.3 64.3 75.3 64.1 75.2 63.9 75.1 63.6 75 63.4 75 63.2 74.9 62.4 74.7 61.7 74.4 61.1 74.1 60.4 73.7 59.7 73.5 58.9 73.4 58.2 73.4 57.6 73.2 57 72.9 56.4 72.7 55.8 72.4 55.2 72.2 55.1 72.2 55 72.1 54.9 72 54.4 71.4 53.8 70.8 53.2 70.4 52.5 69.9 52 69.3 51.5 68.6 51.4 68.4 51.2 68.1 51.1 67.8 50.9 67.5 50.8 67.2 50.7 66.9 50.1 65.7 49.7 64.4 49.4 63 49.2 61.6 49.2 60.2 49.4 58.8 49.5 57.8 49.7 56.9 50.1 56 50.4 55.2 50.7 54.3 51.1 53.5 51.6 52.4 52.1 51.3 52.8 50.3 53.4 49.2 54.1 48.2 54.9 47.2 55.5 46.4 56.2 45.6 56.8 44.8 57.4 44.1 58.1 43.3 58.8 42.6 59.3 42 59.9 41.5 60.5 40.9 61 40.3 61.6 39.8 62.1 39.2 63 38.4 63.8 37.6 64.8 37 65.7 36.4 66.7 35.8 67.6 35.3 67.9 35.4 68.1 35.4 68.3 35.5 68.5 35.5 68.8 35.6 69 35.7 69.6 35.9 70 36.2 70.4 36.6 70.8 36.9 71 37.5 71.2 38.1 71.2 38.4 71.3 38.7 71.6 39 71.9 39.1 72.1 39 72.2 38.7 72.3 38.4 72.4 38.1 72.5 37.8 72.6 37.5 72.7 37.2 72.8 37 73.2 35.7 73.9 34.7 75 33.7 75.1 33.8 75.3 33.9 75.4 34 75.5 34 75.6 34.1 75.7 34.2 76.4 34.8 77 35.5 77.6 36.2 78.2 36.8 78.7 37.6 79.3 38.4 79.5 38.6 79.6 38.9 79.7 39.2 79.8 39.5 80 39.9 80.1 40.2 80.2 40.6 80.4 40.9 80.5 41.2 80.7 41.5 80.8 41.9 80.9 42.2 81 42.4 81.1 42.6 81.1 42.8 81.1 43.1 81.1 43.3 81.1 43.5 81.2 44.2 81.3 45 81.3 45.7 81.4 46.4 81.5 47.1 81.6 47.8 81.8 48.8 81.8 49.7 81.9 50.6 81.9 51.5 81.9 52.5 82 53.4 82 54.6 82.1 55.8 82.3 56.9 82.4 58.1 82.6 59.2 82.8 60.4 82.8 60.7 82.9 60.9 82.9 61.2 82.9 61.5 82.9 61.7 83.1 62 83.2 62.7 83.6 63.1 84.2 63.2 84.5 63.2 84.8 63.3 85.1 63.3 85.5 63.3 85.8 63.3 86.1 63.2 86.6 63.1 87.1 63 87.6 62.9 88.1 62.8 88.6 62.7 89.1 62.6 89.4 62.5 89.8 62.4 90.2 62.3 90.6 62.2 91 62.1 91.3 62 91.5 61.9 91.6 61.8 91.8 61.8 92 61.7 92.1 61.6 92.3 61.6 92.5 61.4 92.7 61.3 93 61.2 93.3 61.1 93.5 60.9 93.9 60.8"/><path d="M114.3 34.8C114.2 34.7 114.2 34.6 114.1 34.6 114 34.6 114 34.7 114 34.7 114 34.7 113.9 34.7 113.8 34.8L114.2 34.8 114.3 34.8ZM134.5 59.6C134.9 60 135.2 60.5 135.5 61 135.7 61.5 135.8 62.1 135.6 62.7 135.4 63.3 135.3 63.8 135.3 64.4 135.3 64.9 135.3 65.5 135.3 66.1 135.3 66.7 135.2 67.3 135 67.9 134.8 68.4 134.5 68.9 134.1 69.3 134.2 69.5 134.2 69.8 134.2 70.2 133.4 71.3 132.2 71.9 130.7 71.8 128.7 71.7 127.2 71.3 126.1 70.6 125 69.8 124.1 68.6 123.4 66.9 123.1 66.1 122.8 65.3 122.6 64.5 122.4 63.7 122.3 62.8 122.1 62 121.8 60 121.4 58 121.1 56.1 120.8 54.1 120.4 52.1 119.9 50.1 119.7 48.7 119.3 47.4 118.9 46.1 118.5 44.7 118 43.5 117.4 42.2 117.3 41.9 117.2 41.6 117 41.3 116.8 41.1 116.6 40.8 116.4 40.5 115.9 39.8 115.3 39.7 114.7 40.2 114 40.6 113.4 41 112.9 41.5 112.3 42 111.9 42.6 111.5 43.4 111.3 44 111 44.6 110.8 45.2 110.5 45.7 110.3 46.3 110.2 46.9 110 47.9 109.9 48.9 109.8 50.1 109.8 51.2 109.7 52.3 109.6 53.4 109.6 54.5 109.6 55.5 109.7 56.6 109.8 57.6 109.8 58.5 109.7 59.4 109.6 60.4 109.7 61.3 110 62.2 110 62.3 110 62.5 110 62.6 109.9 62.7 109.9 62.9 109.9 63 109.9 63.2 109.9 63.3 109.9 63.5 110 63.7 110 63.8 110.1 63.9 110.4 64.2 110.5 64.4 110.6 64.7 110.6 65 110.6 65.4 110.6 65.7 110.5 68.6 109.5 71 107.7 73 107.4 73.3 107.1 73.4 106.7 73.4 106.4 73.5 106.2 73.5 105.9 73.5 105.7 73.4 105.4 73.4 105.2 73.4 104.6 73.2 103.9 73.1 103.4 73.3 102.3 73.7 101.5 73.3 100.9 72.2 100.6 71.6 100.3 70.9 100 70.2 99.8 69.5 99.7 68.7 99.6 68 99.4 66.4 99.4 64.9 99.5 63.4 99.5 61.9 99.6 60.4 99.6 58.9 99.7 56.8 99.7 54.6 99.7 52.5 99.7 50.4 99.7 48.3 99.6 46.1 99.6 45.1 99.5 44.3 99.5 43.8 99.5 43.3 99.5 42.8 99.6 42.4 99.6 42 99.6 41.5 99.7 41 99.7 40.5 99.8 39.7 99.7 38.7L99.7 37.5C99.5 36.7 99.5 36 99.8 35.4 100.1 34.8 100.6 34.3 101.2 33.9 101.5 33.7 101.8 33.4 102.1 33.2 102.3 32.9 102.6 32.7 102.9 32.5 103.1 32.4 103.3 32.3 103.5 32.1 103.7 32 103.9 31.9 104.2 31.8 104.6 32.4 104.9 32.9 105.2 33.4 105.6 33.8 105.9 34.3 106.2 34.8 106.3 35.2 106.4 35.5 106.4 35.8 106.3 36.3 106.3 36.6 106.3 36.9 106.3 37.1 106.3 37.4 106.2 37.6 106.2 37.8 106.2 38 106.1 38.3 106.1 38.5 106.1 38.9 106 39.3 105.9 39.7 105.8 39.9 105.8 40.1 105.8 40.2 105.7 40.3 105.7 40.3 105.7 40.4 105.7 40.4 105.6 40.5 105.6 40.6 105.6 40.9 105.6 41.3L105.6 41.3 105.8 41.5C105.9 41.4 106 41.3 106 41.3 106.1 41.3 106.2 41.2 106.2 41.1 106.9 40.2 107.5 39.4 108 38.6 108.6 37.6 109.3 36.7 110.1 36 110.9 35.2 111.8 34.5 112.8 34.1 113.3 33.8 113.8 33.7 114.2 33.5 114.6 33.4 115.1 33.3 115.6 33.3 115.9 33.3 116.1 33.3 116.3 33.3 116.6 33.2 116.9 33.2 117.3 33.2 117.2 33 117.1 32.8 117 32.7 116.9 32.6 116.8 32.4 116.6 32.2 117 32.1 117.2 32.1 117.3 32.1 117.5 32.2 117.8 32.3 118 32.4 118.1 32.5 118.4 32.6 118.6 32.7 118.9 32.9 119.1 33 119.3 33.2 119.4 33.4 119.6 33.6 119.9 33.7 120.1 33.9 120.4 34.1 120.5 34.2 120.7 34.4 120.8 34.7 120.8 35.1 120.8 35.7 121.1 36.2 121.7 36.5 122.1 36.8 122.5 37.3 122.6 38 123.2 39.5 123.8 41 124.4 42.5 125 44.1 125.6 45.6 126.2 47.1 126.4 47.7 126.6 48.2 126.7 48.6 127 49.7 127.2 50.8 127.3 51.8 127.5 52.9 127.7 54 128 55.1 128.2 56.1 128.4 57.1 128.7 58.1 128.9 59.1 129.2 60.1 129.4 61.2 129.5 61.4 129.5 61.7 129.5 61.9 129.6 62.1 129.6 62.4 129.7 62.6 129.9 63 130.1 63.5 130.3 63.9 130.4 64.3 130.8 64.6 131.4 64.8 131.6 64.4 131.8 64 132 63.7 132.1 63.3 132.3 62.9 132.5 62.5 132.6 62.2 132.8 61.9 132.9 61.5 133 61.2 133.2 60.8 133.4 60.4 133.4 60.3 133.5 60.1 133.5 60 133.6 59.9 133.7 59.8 133.8 59.7 134 59.4 134.2 59.4 134.5 59.6L134.5 59.6Z"/><path d="M149.2 67.5C149.3 68.1 149.4 68.6 149.7 69 150 69.4 150 69.8 149.7 70.2 148.9 71.4 147.9 72.2 146.6 72.6 146.3 72.7 146.1 72.7 145.8 72.5L143.6 70.5C143.1 70.1 142.8 69.4 142.6 68.6 142.5 67.6 142.3 66.7 142.1 65.8 141.9 64.8 141.8 63.9 141.6 62.9 141.6 62.6 141.5 62.3 141.5 62.2 141.5 62 141.4 61.9 141.4 61.8 141.4 61.7 141.3 61.6 141.3 61.4 141.3 61.3 141.2 61 141.2 60.6 141.1 59.9 141 59.4 141 58.9 140.9 58.5 140.9 58.1 140.9 57.6 140.8 57.2 140.8 56.7 140.8 56.2 140.8 55.6 140.8 54.9 140.9 54L140.7 49.5C140.7 49.3 140.7 49 140.8 48.6 140.8 47.9 140.9 47.2 140.9 46.6 141 45.9 141.1 45.3 141.1 44.6 141.1 44.4 141.1 44.3 141.2 44.4 141.3 44.5 141.3 44.6 141.3 44.7 141.4 44.8 141.4 44.9 141.4 45 141.4 45 141.3 45 141.3 44.7 141.2 44.3 141.2 43.9 141.3 43.6 141.4 43.1 141.5 42.8 141.5 42.7 141.6 42.5 141.6 42.4 141.7 42.3 141.7 42.2 141.7 42 141.8 41.9 141.8 41.7 141.8 41.5 141.9 41.1 142 40.4 142.1 39.7 142.3 39.1 142.4 38.7 142.5 38.3 142.6 37.9 142.7 37.4 142.8 37 142.8 36.6 142.9 36.2 143 35.9 143 35.6 143 35.3 143.1 35 143.3 34.7 143.4 34.5 143.5 34.3 143.5 34.1 143.6 34 143.7 33.7 143.7 33.5 143.8 33.3 143.9 33.2 144 33.2 144.2 33.2 144.3 33.2 144.4 33.4 144.8 33.9 145.1 34.4 145.3 35 145.6 35.5 145.8 36.1 146 36.6 146.2 37.2 146.4 37.6 146.5 38 146.7 38.3 146.8 38.6 146.9 38.9 147.1 39.2 147.2 39.5 147.2 39.8 147.3 40.1 147.4 40.6 147.5 41.2 147.6 42.2 147.6 43.1 147.7 43.8 147.8 44.5 147.9 45.2 147.9 45.9 147.9 46.6 148 47.3 148 48 148.1 48.7 148.1 49.6 148.1 50.6 148.2 51.3 148.2 52 148.3 52.5 148.3 53 148.4 53.5 148.4 53.9 148.5 54.4 148.5 54.9 148.5 55.4 148.6 55.9 148.6 56.6 148.6 57.3L148.9 63.5C149 64.2 149 64.8 149.1 65.5 149.1 66.2 149.2 66.9 149.2 67.5M147.6 23.3C148.2 23.8 148.2 24.3 147.6 24.8 147 25.4 146.3 25.9 145.6 26.3 144.9 26.7 143.9 26.9 142.8 26.8 142.6 26.8 142.4 26.7 142 26.7 141.6 26.6 141.2 26.5 140.8 26.4 139.6 26.3 139 25.7 139 24.5 138.8 23.9 138.8 23.5 138.9 23.3 139 23 139.4 22.8 139.9 22.7 140.3 22.5 140.7 22.3 141.1 22.2 141.6 22 142 21.9 142.5 21.9 143.1 21.8 143.7 21.8 144.2 21.9 144.8 21.9 145.3 22.1 145.8 22.4 145.9 22.5 146.1 22.6 146.3 22.6 146.4 22.7 146.6 22.7 146.7 22.8 146.8 22.9 147 23 147.1 23 147.3 23.1 147.4 23.2 147.6 23.3"/><path d="M217 68L217 68 217.1 68 217 68ZM215.9 66.9C215.9 67.2 216 67.4 216.2 67.4 216.2 67.4 216.3 67.3 216.3 67.2 216.4 67.2 216.5 67.1 216.6 67.1 216.4 66.9 216.3 66.7 216.2 66.6 216 66.6 215.9 66.7 215.9 66.9L215.9 66.9ZM196.7 32.7C197 32.2 197.2 31.7 197.5 31.3 197.8 30.8 198.1 30.3 198.3 29.6 198.4 29.4 198.5 29.2 198.6 29 198.8 28.8 198.9 28.5 199 28.3 199.4 27.7 199.7 27.1 199.8 26.5 199.9 25.8 199.9 25.1 199.9 24.3 199.9 23.8 199.8 23.4 199.7 23 199.6 22.7 199.4 22.3 199 22 198.1 21 197.1 20.3 196.1 19.8 195.1 19.2 194 18.9 192.8 18.9 192.1 18.8 191.4 18.8 190.7 18.8 189.9 18.9 189.2 18.9 188.6 19 188 19 187.4 19.1 186.9 19.4 186.4 19.7 185.9 20 185.4 20.4 185.3 20.5 185.1 20.6 184.8 20.9 184.5 21.6 184.3 22.3 184 23 183.7 23.8 183.5 24.5 183.3 25.1 183.1 25.9 183 26.6 183.1 27.2 183.3 27.7 183.5 28.3 183.9 28.9 184.9 30.3 186 31.8 187 33.2 188.1 34.6 189.2 36 190.4 37.3 190.5 37.5 190.6 37.7 190.8 37.8 190.9 37.9 191.1 38.1 191.4 38.4 192.3 37.5 193.2 36.5 194.1 35.6 195 34.8 195.9 33.8 196.7 32.7L196.7 32.7ZM192.6 57.8C193.8 57.3 195.2 56.7 196.8 56.1 196.1 55.1 195.3 54.2 194.5 53.5 193.7 52.8 192.7 52 191.5 51.2 191.1 51 190.8 50.9 190.4 50.8 190.1 50.7 189.8 50.5 189.6 50.4 188.8 51.1 188 51.8 187.3 52.4 186.6 53 185.9 53.5 185.2 54.2 184.6 54.8 183.9 55.5 183.2 56.2 182.6 56.9 182 57.8 181.6 58.9 182.3 58.9 183 59 183.7 59.1 184.4 59.1 185.1 59.2 185.8 59.3 186.1 59.2 186.4 59.2 186.7 59.2 187 59.3 187.3 59.2 187.7 59.2 188.5 58.9 189.3 58.7 190.1 58.5 190.9 58.3 191.8 58 192.6 57.8L192.6 57.8ZM226.5 46.1C226 46.4 226 46.7 226.4 47.1 226.5 47.2 226.5 47.3 226.6 47.3 226.6 47.4 226.7 47.5 226.7 47.6 226.4 47.9 226.1 48 225.7 47.9 225.3 47.8 225.1 47.9 224.9 48.3 224.8 48.4 224.9 48.5 225 48.5 225.1 48.6 225.1 48.6 225.2 48.7 225.3 48.8 225.4 48.9 225.4 48.9 225.5 48.9 225.5 49 225.6 49.1 225.6 49.3 225.5 49.4 225.3 49.5L224 49.5C224.1 49.8 224.1 50 224.1 50.2 224.2 50.3 224.3 50.3 224.4 50.3 224.4 50.4 224.5 50.4 224.6 50.4 224.7 50.6 224.8 50.8 224.8 51 224.8 51.2 224.7 51.4 224.5 51.4 224.3 51.5 224.1 51.5 223.9 51.5 223.6 51.6 223.4 51.6 223.2 51.6 222.1 51.4 221.1 51.5 220.2 51.8 219.3 52.1 218.5 52.4 217.6 52.9 217.1 53.1 216.5 53.3 215.9 53.6 215.4 53.9 214.8 54.1 214.3 54.4 214.1 54.6 213.8 54.8 213.5 55 213.2 55.2 212.9 55.4 212.6 55.7 212.4 55.8 212.3 56 212.2 56.3 212.1 56.6 212 56.8 211.8 56.9 211.6 57 211.4 57.1 211.2 57.3 211 57.4 210.9 57.5 210.7 57.7 210.7 57.7 210.7 57.8 210.7 57.8 210.7 57.9 210.6 58 210.5 58.1 210.6 58.2 210.7 58.3 210.7 58.4 210.8 58.6 210.8 58.7 210.9 58.8 211.7 59.8 212.4 60.9 213.1 61.9 213.8 62.9 214.6 63.8 215.3 64.7 215.5 64.9 215.6 65 215.7 65.2 215.8 65.3 215.9 65.4 216 65.5 216.8 66 217.1 66.9 217 68 216.6 67.8 216.3 67.9 216.1 68.1 215.9 68.3 215.7 68.6 215.5 69 215.5 69.1 215.6 69.3 215.6 69.5 215.6 69.7 215.6 69.8 215.6 70 215.4 70.1 215.2 70.2 215.1 70.4 215.1 70.5 215.2 70.7 215.2 70.8 215.3 70.9 215.3 71.1 215.5 71.3 215.3 71.4 215.1 71.6 214.9 71.8 214.7 72 214.5 72.2 214.3 72.4 214.1 72.2 214 72.1 213.8 72 213.7 71.9 213.5 71.8 213.4 71.5 212.8 72.4 212.2 72.6 211.4 72.1 211.3 72 211.2 72 211.1 72 211 72.1 210.9 72.1 210.8 72 210.6 71.8 210.3 71.7 210.1 71.5 209.8 71.4 209.6 71.2 209.3 71 208.9 70.5 208.4 70 207.9 69.6 207.5 69.2 207 68.7 206.6 68.2 205.8 67.5 205 66.8 204.3 66 203.5 65.3 202.7 64.5 201.9 63.7 201.7 63.5 201.4 63.3 201.2 63.3 201 63.3 200.7 63.4 200.4 63.6 198.8 64.6 197.1 65.5 195.5 66.2 193.8 66.9 192.1 67.6 190.4 68.2 190 68.3 189.6 68.5 189.3 68.6 188.9 68.6 188.5 68.8 188.2 69.1 188.1 69.1 188 69.2 187.9 69.2 187.8 69.2 187.7 69.2 187.6 69.3 186.8 69.4 186.1 69.5 185.3 69.7 184.6 69.8 183.9 69.9 183.1 70.1 182.8 70.1 182.5 70.2 182.2 70.3 181.9 70.4 181.6 70.5 181.2 70.5 181 70.4 180.7 70.4 180.4 70.3 180.1 70.2 179.8 70.2 179.4 70.1 179.1 70 178.7 69.9 178.3 69.9 177.8 69.8 177.4 69.7 177 69.6 176.6 69.6 176.3 69.4 176.1 69.2 175.8 68.9 175.4 68.5 175.1 68.1 174.7 67.7 174.4 67.4 174.1 67 173.9 66.7 173.7 66.4 173.6 66.1 173.4 65.8 173.3 65.5 173.2 65.2 173.2 64.8 173.1 64.4 173 64.2 172.9 63.9 172.9 63.6 172.8 63.3 172.5 62.4 172.4 61.5 172.6 60.6 172.7 59.8 173 59 173.5 58.2 173.7 57.7 174 57.2 174.3 56.8 174.7 56.3 174.9 55.9 175.2 55.4 175.7 54.5 176.2 53.8 176.8 53 177.3 52.3 177.9 51.6 178.6 50.8 179.2 50.1 179.8 49.4 180.4 48.7 181 48.1 181.6 47.4 182 46.7 182.1 46.5 182.2 46.4 182.3 46.2 182.4 46 182.6 45.8 182.8 45.6 182.7 45.3 182.5 45.1 182.4 44.9 182.2 44.8 182.1 44.6 181.9 44.5 180.8 43 179.6 41.6 178.5 40.1 177.4 38.7 176.3 37.1 175.2 35.5 174.5 34.3 173.9 33.2 173.5 32 172.5 29.1 172.6 26.2 173.7 23.3 174 22.5 174.4 21.8 174.8 21.1 175.3 20.4 175.8 19.7 176.3 19.1 176.8 18.6 177.3 18 177.7 17.4 178.2 16.8 178.6 16.2 179.1 15.7 179.4 15.2 179.7 14.8 180 14.6 180.4 14 181 13.8 181.6 14 181.8 14 182 14 182.1 14 182.3 14 182.4 13.9 182.7 13.9 183.1 13.7 183.5 13.7 183.8 13.9 184.2 13.8 184.5 13.8 184.5 13.7 185.5 13.2 186.4 12.9 187.4 12.7 188.3 12.6 189.2 12.3 190.2 12.1 191.8 11.9 193.5 11.8 195.3 12 196.2 12 197.1 12.2 198 12.5 198.9 12.7 199.8 13 200.6 13.4 201.3 13.6 202.1 13.9 202.8 14.3 203.4 14.8 204.1 15.3 204.8 15.8 205.8 16.6 206.7 17.8 207.4 19.4 207.7 20 208 20.7 208.2 21.3 208.5 21.9 208.8 22.5 209 23.1 209.3 23.6 209.3 24.1 209.3 24.8 209.2 25.3 209.1 25.8 209 26.2 208.9 26.6 208.7 27.1 208.5 27.5 208.2 27.8 208.1 28.1 208.1 28.3 208 29 207.8 29.6 207.4 30.1 207.1 30.6 206.8 31.1 206.6 31.6L206.4 32C205.6 32.6 204.9 33.3 204.4 34.2 203.9 35 203.3 35.8 202.7 36.7 202.6 36.8 202.6 36.9 202.5 37 202.4 37 202.4 37.1 202.3 37.3 202 38.5 201.4 39.3 200.4 39.5 200.3 40 200.2 40.3 200.2 40.5 200.2 40.7 200.1 40.9 200 41 199.9 41.2 199.8 41.4 199.5 41.6 199.3 41.8 198.9 42.1 198.3 42.5 198.4 42.7 198.4 42.8 198.4 42.9 198.4 42.9 198.5 43 198.5 43 199.2 44 199.9 45 200.6 46 201.4 47 202.2 48 202.9 49.1 203 49.1 203.1 49.1 203.1 49.2 203.6 50 204.1 50.1 204.7 49.8 206.1 49 207.5 48.4 209 48 210.4 47.6 211.8 47.1 213.3 46.7 213.8 46.5 214.4 46.4 215 46.3 215.5 46.2 216.1 46.1 216.7 45.9 217.8 45.8 218.9 45.6 220 45.3 221.2 45.1 222.3 44.9 223.4 44.9 223.8 44.8 224.2 44.8 224.6 44.8 225.1 44.8 225.5 44.8 225.9 44.8 226.1 44.8 226.3 44.9 226.6 45 226.8 45.1 226.9 45.3 227.1 45.6 227.1 45.9 227 46 226.9 46 226.7 45.9 226.6 46 226.5 46.1L226.5 46.1Z"/><path d="M261.4 17.4C261.4 17.5 261.3 17.6 261.3 17.7 261.2 17.9 261.2 18 261.1 18.1L260 22.5C260 22.8 259.9 23.1 259.7 23.5 259.6 23.8 259.5 24.2 259.4 24.6 259.3 25.2 259.2 25.7 259.3 26.2 259.4 26.8 259.4 27.3 259.3 27.6 259.2 27.9 259 28.3 258.6 28.8 258.5 28.4 258.5 28.1 258.4 27.9 258.4 28 258.3 28 258.2 28 258.2 28.4 258.1 28.8 258 29.2 257.9 29.6 257.8 30 257.7 30.4 257.6 30.7 257.6 31 257.5 31.3 257.5 31.6 257.5 31.9 257.5 32.2 257.6 32.8 257.7 33.2 257.7 33.5 257.8 33.7 257.8 34 257.7 34.2 257.7 34.4 257.6 34.7 257.4 34.9 257.2 35.1 257 35.4 256.8 35.8 256.9 36.1 257 36.3 257.1 36.4 257.2 36.6 257.3 36.8 257.3 37.1 257.4 37.4 257.5 37.6 257.5 37.9 257.5 38.2 257.5 38.5 257.6 38.8 257.7 38.8 257.8 38.9 257.9 39 258 39 258.1 39.1 258.1 39.1 259.4 39.1 260.7 39.2 261.9 39.3 263.2 39.4 264.4 39.5 265.7 39.5L266.1 39.4C266.1 39.3 266.1 39.1 266.1 39 266.2 38.8 266.2 38.7 266.1 38.5 265.5 35 264.8 31.5 264 28.1 263.3 24.6 262.6 21.1 261.8 17.7 261.8 17.6 261.6 17.5 261.4 17.4L261.4 17.4ZM256.5 37.9L256.4 38 256.4 38.2C256.4 38.2 256.5 38.1 256.5 38.1 256.5 38.1 256.5 38 256.5 38L256.5 37.9ZM253.8 52.7C254 52.6 254.2 52.5 254.2 52.4 254.3 52.2 254.4 52.1 254.5 51.9 254.6 51.5 254.7 51.1 254.8 50.6 254.9 50.2 255 49.8 255.1 49.4 255.2 49.2 255.2 49.1 255.2 48.9 255.2 48.8 255.1 48.6 254.9 48.5 254.8 48.7 254.7 48.9 254.6 49.2 254.5 49.4 254.5 49.6 254.4 49.8 254.3 50.3 254.1 50.8 254 51.3 254 51.7 253.9 52.2 253.8 52.8L253.8 53.5C253.9 53.5 254 53.5 254 53.4 254 53.3 253.9 53.1 253.8 52.7L253.8 52.7ZM250.4 67.4C249.7 67.5 249.4 67.9 249.2 68.5 248.9 69.3 248.4 70.1 247.7 70.7 247.1 71.4 246.5 72.1 246 72.8 245.9 73 245.8 73.1 245.8 73.1 244.8 73.5 243.9 74.1 243.2 74.7 243.2 74.7 243.1 74.7 242.9 74.7 242.8 74.6 242.7 74.5 242.6 74.5 242.5 74.3 242.4 74.2 242.3 74 242.2 73.8 242.1 73.6 242 73.3 241.2 73.1 240.6 72.8 240.3 72.4 239.9 72.1 239.8 71.4 239.9 70.6 239.9 69.1 240.1 67.7 240.5 66.3 240.8 65.1 241.1 63.8 241.4 62.5 241.7 61.2 242.1 59.9 242.6 58.7 243.8 54.9 245 51 246 47.2 247 43.4 248 39.5 249 35.6 249.8 32.3 250.6 29.1 251.6 25.9 252.6 22.7 253.7 19.5 255 16.4 255.2 16.2 255.2 16 255.2 15.8 255.5 15.3 255.7 14.7 255.9 14 256.1 13.4 256.1 12.8 255.9 12.1 256.6 11.9 257.2 11.6 257.7 11.2 258.2 10.8 258.6 10.3 258.9 9.6 258.9 9.6 259 9.5 259 9.4 259.1 9.3 259.1 9.3 259.2 9.2 259.7 9.1 260 8.9 260.2 8.6 260.4 8.3 260.6 8 260.9 7.8 262 6.8 263.3 6.5 264.8 6.9 265.5 7.1 266 7.5 266.2 8.2 266.3 8.4 266.4 8.6 266.4 8.7 267.1 10.7 267.8 12.7 268.5 14.6 269.2 16.5 269.9 18.5 270.6 20.5 271.1 21.7 271.5 22.8 271.8 24 272.1 25.1 272.5 26.3 272.8 27.5 273 27.9 273.2 28.3 273.3 28.6 273.5 29 273.6 29.4 273.8 29.8 274.2 31.3 274.6 32.8 275 34.2 275.3 35.7 275.6 37.2 275.9 38.7 276 38.9 276 39.1 276 39.4 276.1 41 276.9 41.9 278.4 42.1 279.1 42.2 279.5 42.7 279.5 43.5 279.5 43.6 279.5 43.8 279.8 43.9 280 44.1 280.2 44.3 280.3 44.5 280.2 44.6 279.9 44.8 279.5 45.1 279.4 45.2 279.2 45.3 279.1 45.4 278.9 45.5 278.8 45.5 278.7 45.5 277.8 45.7 277.4 46.3 277.5 47.2 277.6 48.4 277.7 49.7 277.9 51 278.1 51.8 278.2 52.7 278.3 53.5 278.4 54.4 278.4 55.3 278.2 56.2 278.1 56.6 278.1 57.1 278.2 57.5 278.2 58 278.2 58.5 278.3 59 278.3 59.2 278.3 59.4 278.3 59.6 278.3 59.8 278.3 60.1 278.3 60.3 278.3 61 278 61.4 277.2 61.4 276.6 61.5 276 61.7 275.5 62 275 62.2 274.4 62.5 273.8 62.7 273.7 62.5 273.6 62.2 273.4 62 273.3 61.8 273.2 61.6 273.1 61.4 272.4 59.1 271.7 56.9 270.8 54.6 269.9 52.4 269.2 50.1 268.6 47.8 268.5 47.4 268.4 47.1 268.2 46.8 268 46.5 267.8 46.2 267.6 45.9 265.8 45.9 264.1 45.7 262.4 45.3 260.7 44.9 258.9 44.5 257.2 44.2 257.1 44.4 257 44.6 256.9 44.7 256.8 44.8 256.7 45 256.7 45.1 256.4 46.3 256.2 47.5 255.9 48.6 255.6 49.8 255.5 51 255.4 52.2 255.4 52.7 255.3 53.1 255.3 53.6 255.2 54.1 255 54.6 254.9 55.1 254.6 56.3 254.3 57.5 254 58.7 253.6 59.8 253.2 61 252.8 62.1 252.5 62.9 252.2 63.8 251.9 64.6 251.6 65.4 251.4 66.3 251.1 67.1 251 67.2 250.9 67.3 250.9 67.4 250.9 67.5 250.9 67.6 250.8 67.7 250.8 67.7 250.7 67.8 250.6 67.8 250.6 67.8 250.5 67.8 250.4 67.9L250.4 67.3 250.3 65.7C250.8 65.7 251.1 65.4 251.4 64.9 251.8 63.9 251.9 62.9 251.9 61.9 252.3 61.1 252.5 60.6 252.6 60.3 252.6 60.1 252.6 59.7 252.5 59.2 252.3 59.7 252.1 60.1 251.9 60.5 251.8 60.9 251.8 61.3 251.9 61.9 251.7 62 251.5 62.2 251.4 62.5 251.3 62.8 251.2 63 251.1 63.3 251 63.7 250.8 64.1 250.7 64.5 250.5 64.9 250.4 65.3 250.3 65.7L250.4 67.4Z"/><path d="M305.7 7.6C305.6 7.4 305.5 7.3 305.5 7.2 305.5 7 305.4 6.9 305.3 6.7L305.3 6.5C305.4 6.4 305.5 6.4 305.6 6.4 305.7 6.4 305.8 6.4 305.9 6.3 306 6.2 306.1 6.2 306.1 6.1 306.1 6 306.1 5.9 306.1 5.8 306.1 5.7 306.1 5.6 306.2 5.5 306.3 5 306.2 4.7 306 4.4 305.9 4.3 305.8 4.2 305.8 4.1 305.7 3.9 305.7 3.7 305.8 3.5 305.9 3.4 306.1 3.3 306.4 3.3 306.5 3.3 306.6 3.3 306.7 3.3 306.7 3.3 306.9 3.3 307 3.3 307.1 3.4 307.2 3.4 307.5 3.4 307.6 3.2 307.7 3 307.9 2.8 308 2.6 308.2 2.5 308.3 2.4 308.6 2.2 308.9 2 309 1.8 309.1 1.7 309.1 1.4 309 1 308.9 0.9 308.9 0.7 308.9 0.4 309.5 0.2 309.9 0.1 310.2 0.2 310.5 0.2 311 0.6 311.9 1.1 312 1 312 0.8 311.9 0.7 311.7 0.6 311.7 0.4 311.8 0.1 311.8 0 312 0 312.3 0L312.9 0.7 313.5 0.6C313.8 0.5 314.1 0.6 314.2 0.8 314.4 1 314.5 1.1 314.7 1 315.2 0.9 315.5 1.2 315.7 1.7 316.1 2.5 316.4 3.2 316.3 3.9L316.5 7.3C316.5 7.5 316.5 7.7 316.5 7.9 316.6 8.1 316.6 8.3 316.7 8.4 316.8 8.8 316.9 9.3 317 9.7 317.1 10.1 317.1 10.5 317.2 11 317.2 11.3 317.3 11.5 317.3 11.8 317.4 12.1 317.6 12.2 317.9 12.4 318 12.4 318.1 12.5 318.1 12.6 318.2 12.8 318.2 12.9 318.2 13 318.4 13.5 318.5 14 318.5 14.4 318.5 14.9 318.6 15.4 318.7 15.9 318.8 16.3 318.9 16.8 318.9 17.3 319 17.8 319.1 18.2 319.3 18.6 319.3 18.8 319.4 19.1 319.4 19.4 319.4 20.4 319.5 21.4 319.7 22.4 319.8 23.4 319.9 24.4 320 25.4 320.2 26.5 320.3 27.6 320.4 28.6 320.5 29.7 320.6 30.7 320.7 31.8 320.8 32 320.8 32.1 320.8 32.3 320.8 32.4 320.9 32.6 320.9 32.7 321.1 33.3 321.3 33.8 321.5 34.4 321.6 35 321.8 35.6 321.9 36.2 321.9 36.5 322 36.7 322 36.8 322 37 322 37.1 322 37.3 322 37.4 322 37.5 322 37.7 321.9 37.8 321.9 38 322 38.1 322.2 38.7 322.3 39.3 322.4 39.8 322.4 40.4 322.5 41 322.7 41.6 322.7 41.7 322.8 41.8 322.8 41.8 322.8 41.9 322.9 41.9 323 42 323.2 41.8 323.3 41.5 323.1 41.3 323 41.1 323 40.9 323.1 40.7 323.3 40.6 323.4 40.7 323.4 40.9 323.6 41.5 323.8 42.1 324.1 42.6 324.3 42.8 324.4 43 324.5 43.3 324.6 43.6 324.6 43.9 324.5 44.3 324.4 44.5 324.4 44.6 324.6 44.8 324.7 44.9 324.7 45.1 324.7 45.3 324.8 45.4 324.8 45.6 324.8 45.7 324.8 45.9 324.9 46 325.1 46.1 325.2 46.2 325.4 46.6 325.4 47 325.3 47.4 325.3 47.8 325.4 48.2 325.5 48.6 325.6 49 325.7 49.4 325.8 49.6 325.8 49.9 325.8 50.1 325.8 50.4 325.9 50.7 326 50.9 326.1 51.1 326.2 51.3 326.4 51.5 326.5 51.7 326.6 51.9 326.7 52.1 326.8 52.3 326.9 52.6 327 52.8 327 53 327 53.3 326.9 53.5 326.7 53.7 326.7 54 326.9 54.3 327 54.5 327 54.7 327.1 54.9 327.1 55.1 327.1 55.4 327 55.6 326.6 56.1 326.1 56.5 325.5 56.9 324.9 57.3 324.3 57.7 323.8 58.2 323.7 58.8 323.4 59.4 322.9 60L322.1 60C322 60.2 321.9 60.4 321.9 60.6 321.8 60.8 321.7 61 321.6 61.2 321.5 61.4 321.5 61.5 321.4 61.6 321.3 61.7 321.2 61.9 321.1 62 321 62.2 320.9 62.4 320.9 62.7 320.9 63 320.9 63.2 320.7 63.3 320.5 63.5 320.2 63.5 319.9 63.4 319.5 63.3 319.3 63.1 319.1 62.8 318.6 62.3 318.1 61.7 317.6 61.1 317.1 60.5 316.7 59.8 316.4 59.1L315.4 57.2C314.9 56.3 314.4 55.3 313.9 54.3 313.4 53.3 313 52.2 312.6 51.2 312.5 51 312.4 50.8 312.3 50.5 312.3 50.3 312.2 50.1 312 49.9 311.8 49.9 311.6 49.9 311.5 50 311.2 50.3 310.9 50.7 310.6 51 310.3 51.3 310.1 51.7 309.8 52.1 309.8 52.2 309.8 52.2 309.7 52.3 309.7 52.3 309.7 52.4 309.7 52.5 309.7 52.9 309.5 53.2 309 53.6 308.3 54.1 307.5 54.7 306.8 55.3 306 55.9 305.3 56.5 304.6 57.2 304.3 57.5 303.9 57.8 303.4 58.1 303 58.4 302.5 58.7 302.1 59 302 59.2 301.8 59.3 301.7 59.4 301.5 59.6 301.4 59.7 301.2 59.9 300.9 60.4 300.5 60.8 299.9 61.1 297.1 62.6 294.2 63.3 291.2 63.1 290.8 63.1 290.4 63 289.9 62.9 289.4 62.7 289 62.6 288.6 62.4 288.2 62.2 287.8 62 287.4 61.9 287 61.7 286.6 61.5 286.2 61.3 286.1 61.2 286 61.1 285.8 61 285.7 61 285.6 60.9 285.4 60.9 285 60.8 284.7 60.7 284.5 60.4 284.3 60.2 284.1 59.9 283.9 59.7 283.3 59.1 282.8 58.4 282.5 57.8 282.1 57.1 281.9 56.3 281.8 55.5 281.7 55 281.7 54.6 281.7 54.1 281.7 53.6 281.7 53.1 281.7 52.6 281.7 51.6 281.8 50.5 282 49.5 282.2 48.4 282.3 47.4 282.5 46.3 282.7 45 283 43.8 283.5 42.6 283.9 41.4 284.4 40.3 285 39.1 285.1 38.8 285.3 38.6 285.4 38.4 285.7 37.9 286 37.5 286.2 37 286.4 36.6 286.7 36 286.9 35.5 287.1 35 287.4 34.5 287.7 34 288 33.5 288.3 33.1 288.6 32.6 288.7 32.4 289 32.2 289.4 32.1 289.8 32 290.3 31.8 290.7 31.3 290.9 31 291.2 30.8 291.5 30.6 291.7 30.4 292 30.3 292.4 30.2 293.2 29.9 294 29.6 294.7 29.4 295.5 29.2 296.3 29.1 297.1 29.1 297.9 29.1 298.7 29 299.6 28.9 300.5 28.8 301.3 28.7 302.1 28.5 302.3 28.5 302.5 28.5 302.7 28.5 302.9 28.5 303.1 28.5 303.3 28.5 303.6 28.6 303.8 28.8 303.9 29.2 303.5 29.3 303.1 29.3 302.8 29 302.6 28.9 302.5 28.8 302.3 28.8 302.1 28.8 302 28.9 302 29 301.9 29.3 301.8 29.5 301.5 29.6 301.3 29.6 301.1 29.7 300.9 29.7 300.8 29.7 300.7 29.7 300.6 29.7 300.5 29.8 300.4 29.8 300.2 29.9 300.3 30.1 300.4 30.3 300.6 30.5 300.7 30.7 300.8 30.9 300.9 31.1 300.8 31.2 300.7 31.3 300.7 31.4 300.6 31.5 300.5 31.5 300.4 31.6 300.4 31.7 300.4 31.8 300.4 31.9 300.5 32 300.5 32.1 300.6 32.3 300.4 32.3 300.2 32.3 300 32.3 299.8 32.3 299.7 32.3 299.6 32.3 299.3 32.4 299.1 32.5 298.9 32.6 298.8 32.7 298.6 32.8 298.4 32.9 298.2 33.2 298.1 33.4 298 33.7 297.8 34 297.5 34.1 297 33.9 297.1 34.1 297.1 34.3 297.2 34.4 297.3 34.5 297.3 34.6 297.2 34.7 297.2 34.7 297.2 34.8 297.1 34.9 297 35 296.9 35 296.8 35 295.6 35.3 294.6 35.9 293.9 37 293.8 37.2 293.7 37.3 293.6 37.5 293.5 37.7 293.4 37.9 293.4 38.1L292.6 40.5C292.5 40.7 292.5 40.9 292.4 41.1 292.4 41.3 292.4 41.5 292.5 41.8 292.9 42.5 292.9 43.2 292.6 43.9 292.5 44.4 292.5 44.9 292.9 45.2 293 45.5 293.1 45.7 293.1 46 293.1 46.2 293.1 46.5 293.1 46.8 293.1 47.5 293 48.1 293 48.8 293 49.4 293 50.1 293 50.8 293 51.3 293.1 51.9 293.5 52.5 294 53.2 294.7 53.4 295.6 53.3 295.9 53.2 296.3 53.1 296.7 53 297 53 297.4 52.9 297.8 52.8 298.3 52.8 298.7 52.6 299.1 52.3 299.4 52.1 299.7 52 300 51.8 300.2 51.7 300.5 51.5 300.8 51.3 301 51.2 301.2 51.1 301.4 50.9 301.6 50.8 301.8 50.6 302.1 50.4 302.7 49.9 303.3 49.3 303.8 48.7 304.3 48.2 304.8 47.5 305.3 46.8 305.8 46.1 306.3 45.3 306.7 44.5 307.1 43.7 307.5 42.8 307.8 41.9 308.2 41 308.4 40.1 308.6 39.1 308.8 38.2 308.9 37.2 309 36.3 309.2 34.8 309.1 33.3 308.8 31.9 308.6 31 308.5 30.1 308.4 29.2 308.3 28.4 308.2 27.5 308.1 26.6 307.9 26.1 307.8 25.6 307.8 25.2 307.8 24.7 307.7 24.3 307.6 23.9 307.5 23.4 307.4 23 307.3 22.6 307.3 22.3 307.2 21.9 307.2 21.5 307 20 306.9 18.5 306.7 17 306.5 15.6 306.2 14.1 306 12.6 305.8 12 305.7 11.3 305.6 10.7 305.5 10 305.5 9.4 305.6 8.7L305.7 7.6Z"/><path d="M339.8 31.7C340.3 31.6 340.6 31.3 340.8 31 340.6 31.1 340.4 31.2 340.2 31.2 340 31.3 339.9 31.5 339.8 31.7L339.8 31.7ZM339.2 32.6C339.1 33 339.1 33.3 339 33.6 339.1 33.6 339.1 33.7 339.2 33.7 339.2 33.8 339.3 33.8 339.3 33.8 339.5 34 339.7 33.9 339.9 33.7 340 33.6 340.1 33.5 340.2 33.4 340.3 33.3 340.5 33.2 340.6 33.1 340.6 33.6 340.5 34.1 340.4 34.6 340.2 35 340 35.4 339.7 35.6 339.5 35.8 339.4 35.9 339.4 36.1 339.4 36.2 339.4 36.4 339.4 36.6 339.6 37.4 339.8 38.5 340 39.8 340.2 41.1 340.3 42.2 340.5 43 340.7 44.5 340.9 46 341.1 47.5 341.3 49 341.4 50.5 341.4 52.1 341.4 53.4 341.3 54.6 341.2 55.8 341.1 57 341 58.3 340.8 59.5 340.7 59.9 340.6 60.2 340.6 60.4 340.5 60.7 340.4 61 340.3 61.3 340 61.3 339.8 61.3 339.7 61.4 339.6 61.4 339.7 61.5 339.9 61.6 340.2 61.7 340.5 61.7 340.8 61.8 341.2 61.9 341.5 62 341.8 62.1 342 62.1 342.1 62.2 342 62.3 341.8 62.2 341.7 62.2 341.7 62.1 341.7 62.1 341.7 62 341.7 61.9 341.6 61.6 341.5 61.3 341.5 61.1 341.5 60.8 341.5 60.5 341.5 60.2 341.5 60 341.4 59.8 341.2 59.6 341.2 59.5 341.1 59.4 340.9 59.3 340.8 59.3 340.8 59.4 340.7 59.4 340.6 59.4 340.6 59.5 340.5 59.6 340.4 59.8 340.4 60 340.3 60.1 340.2 60.3 340.2 60.5 340.1 60.8 339.7 60.9 339.4 61.2 339.2 61.6 338.9 62.2 338.3 62.4 337.3 62.1 337.1 62.5 336.9 62.8 336.8 62.8 336.6 62.9 336.4 63 336.1 63.4 335.9 63.3 335.7 63.3 335.5 63.3 335.3 63.4 335.1 63.4 334.9 63.5 334.7 63.5 334.5 63.6 334.3 63.6 334.1 63.6 333.9 63.5 333.7 63.3 333.4 62.6 333.2 61.8 333 61 332.8 60.2 332.7 59.3 332.6 58.5 332.6 57.7 332.6 56.8 332.4 56 332.3 55.2 332.3 54.3 332.3 53.5 332.3 52.4 332.2 51.2 332.2 50.1 332.2 49 332.2 47.9 332.2 46.8 332.2 45.4 332.3 44.1 332.2 42.8 332.2 41.5 332.1 40.2 332 38.8L331.8 34.9 331.8 33.7C331.7 32.7 331.6 31.7 331.5 30.8 331.5 29.8 331.6 28.9 331.8 27.9 331.8 27.7 331.8 27.5 331.8 27.3 331.8 27.1 331.9 27 332.1 26.9 332.2 26.8 332.3 26.7 332.3 26.6 332.5 26.1 332.5 25.6 332.4 25.1 332.3 24.6 332.3 24.2 332.5 23.7 332.6 23.2 332.8 22.8 333.1 22.6 333.5 22.2 333.8 21.7 334 21.1 334.1 20.7 334.2 20.5 334.3 20.4 334.4 20.3 334.7 20.3 335.2 20.4 335.2 20.3 335.3 20.1 335.3 20 335.2 19.9 335.3 19.7 335.3 19.6 335.4 19.5 335.5 19.4 335.6 19.5 335.7 19.5 335.8 19.5 335.8 19.6L335.8 20.1C335.8 20.4 335.7 20.6 335.8 20.6 336 20.9 336.2 21.3 336.3 21.7 336.4 22.1 336.5 22.4 336.7 22.8 336.8 23 336.9 23.3 337 23.5 337.1 23.7 337.3 24 337.6 24.1 337.8 24.4 337.9 24.5 338.1 24.5 338.3 24.5 338.5 24.4 338.7 24.3 338.9 24.2 339 24.1 339.2 23.9 339.3 23.8 339.5 23.7 339.6 23.6 341.2 22.4 343.1 21.8 345.3 21.8 346.3 21.7 347.2 21.8 348 22 348.9 22.2 349.8 22.4 350.8 22.5 351 22.6 351.1 22.7 351.3 22.8 351.4 22.8 351.6 22.9 351.7 23.1 352.1 23.3 352.5 23.5 352.8 23.8 353.1 24 353.4 24.2 353.8 24.5 353.9 24.6 354 24.6 354.1 24.7 354.3 24.8 354.4 24.9 354.5 25 354.8 25.1 355 25.1 355 25.2 355.1 25.5 355.3 25.7 355.5 25.8 355.7 25.9 355.9 26.1 356.2 26.3 356.2 26.4 356.3 26.5 356.4 26.6 356.3 26.8 356.2 26.9 356.1 27.1 356 27.2 355.9 27.3 355.7 27.4 355.4 27.4 355.1 27.5 354.7 27.6 354.3 27.7 353.9 27.8 353.5 28 353 28.1 352.7 28.3 352.3 28.5 352 28.7 351.8 28.9 351.8 29.1 351.8 29.2 351.9 29.2 352 29.1 352 29.1 352.1 29 352.2 28.9 352.3 28.8 352.4 28.7 352.5 28.6 352.6 28.5 352.7 28.4 352.8 28.5 353 28.6 353.1 28.6 353.2 28.6 353.4 28.7 353.5 28.7 353.6 28.7 353.9 28.9 354 29.1 353.8 29.5 353.7 29.6 353.6 29.6 353.5 29.6 353.4 29.5 353.3 29.4 353.2 29.3 352.5 28.9 351.9 28.9 351.2 29.4 351.3 29.8 351.4 30.2 351.6 30.6 351.7 30.9 351.8 31.4 351.8 31.9 351.7 31.9 351.6 31.9 351.5 32 351.4 32 351.3 32 351.2 32 350.8 32.1 350.5 32.2 350.2 32.2 349.9 32.3 349.6 32.5 349.4 32.8 349.1 33.1 348.8 33.2 348.5 32.9 347.9 32.4 347.3 32 346.7 31.9 346 31.7 345.4 31.6 344.7 31.6 344.1 31.5 343.5 31.5 342.9 31.5 342.3 31.5 341.7 31.6 341.2 31.8 340.8 31.9 340.5 32 340.1 32.1 339.8 32.3 339.5 32.4 339.2 32.6 339.2 32.6 339.2 32.5 339.1 32.5L339.1 32.3C339.1 32.3 339 32.4 339 32.4 339 32.5 339 32.5 339.1 32.5L339.2 32.6Z"/><path d="M368.3 56.4C368.3 56.9 368.4 57.4 368.8 57.9 369 58.2 369 58.7 368.7 59.1 368 60.2 366.9 61 365.6 61.5 365.3 61.6 365.1 61.5 364.8 61.3L362.6 59.3C362.1 58.9 361.8 58.3 361.7 57.4 361.5 56.5 361.3 55.5 361.1 54.6 361 53.7 360.8 52.8 360.7 51.8 360.6 51.4 360.5 51.2 360.5 51 360.5 50.9 360.5 50.7 360.4 50.7 360.4 50.6 360.4 50.4 360.3 50.3 360.3 50.2 360.3 49.9 360.2 49.4 360.1 48.8 360 48.2 360 47.8 359.9 47.4 359.9 46.9 359.9 46.5 359.9 46.1 359.9 45.6 359.9 45 359.8 44.5 359.9 43.7 359.9 42.8L359.7 38.4C359.7 38.1 359.7 37.8 359.8 37.4 359.8 36.7 359.9 36.1 360 35.4 360 34.8 360.1 34.1 360.2 33.4 360.2 33.2 360.2 33.2 360.2 33.3 360.3 33.3 360.3 33.4 360.3 33.5 360.4 33.7 360.4 33.7 360.4 33.8 360.4 33.9 360.4 33.8 360.3 33.6 360.2 33.1 360.2 32.8 360.3 32.4 360.4 32 360.5 31.7 360.6 31.5 360.6 31.4 360.7 31.3 360.7 31.1 360.7 31 360.8 30.9 360.8 30.7 360.8 30.6 360.8 30.3 360.9 29.9 361 29.2 361.2 28.6 361.3 28 361.5 27.6 361.6 27.2 361.7 26.7 361.8 26.3 361.8 25.9 361.8 25.4 361.9 25.1 362 24.8 362 24.5 362 24.2 362.2 23.9 362.3 23.6 362.4 23.4 362.5 23.2 362.6 23 362.6 22.8 362.7 22.6 362.8 22.3 362.8 22.2 362.9 22.1 363 22 363.2 22 363.3 22.1 363.4 22.2 363.8 22.8 364.1 23.3 364.4 23.8 364.6 24.4 364.8 24.9 365 25.5 365.2 26 365.4 26.5 365.6 26.8 365.7 27.1 365.8 27.5 366 27.7 366.1 28 366.2 28.3 366.3 28.7 366.3 29 366.4 29.5 366.5 30.1 366.6 31.1 366.7 32 366.8 32.7 366.8 33.4 366.9 34.1 366.9 34.8 367 35.4 367 36.1 367 36.8 367.1 37.6 367.1 38.4 367.2 39.4 367.2 40.2 367.3 40.8 367.3 41.3 367.4 41.8 367.4 42.3 367.5 42.8 367.5 43.3 367.5 43.8 367.6 44.3 367.6 44.8 367.6 45.4 367.7 46.2L368 52.4C368 53 368.1 53.7 368.1 54.4 368.2 55 368.2 55.7 368.3 56.4M366.6 12.2C367.2 12.7 367.2 13.1 366.7 13.6 366 14.3 365.3 14.8 364.6 15.2 363.9 15.5 363 15.7 361.9 15.7 361.7 15.7 361.4 15.6 361 15.5 360.7 15.4 360.3 15.4 359.8 15.3 358.7 15.2 358.1 14.6 358.1 13.4 357.8 12.8 357.8 12.4 357.9 12.1 358.1 11.9 358.4 11.7 358.9 11.5 359.3 11.3 359.8 11.2 360.2 11 360.6 10.9 361.1 10.8 361.5 10.7 362.1 10.7 362.7 10.7 363.3 10.7 363.8 10.7 364.4 10.9 364.9 11.3 365 11.4 365.1 11.4 365.3 11.5 365.5 11.5 365.6 11.6 365.7 11.7 365.8 11.8 366 11.8 366.1 11.9 366.3 12 366.4 12.1 366.6 12.2"/>
			</g>
		</g>
	</g>
</svg>
