<svg width="467" height="171" viewBox="0 0 467 171" xmlns="http://www.w3.org/2000/svg" xmlns:xlink="http://www.w3.org/1999/xlink">
  <title>
    Page 1
  </title>
  <defs>
    <path id="a" d="M.117 88h59.92V.775H.116V88z"/>
    <path id="c" d="M0 .727v68h40.5v-68z"/>
    <path id="e" d="M.51.297h46.557v61.71H.51z"/>
  </defs>
  <g fill="none" fill-rule="evenodd">
    <path d="M129.83 159.585c-.272-.136-.356-.27-.255-.408.104-.136.053-.238-.15-.306-.75.205-1.482.612-2.196 1.225-.714.612-1.377 1.09-1.99 1.427-.203.41-.39.817-.56 1.225-.17.408-.393.816-.663 1.224-.136.272-.408.613-.816 1.02-.136.136-.323.17-.56.103-.24-.07-.392-.17-.46-.306-.272-.748-.56-1.41-.867-1.99-.305-.576-.493-1.24-.56-1.988-.138-.68-.323-1.343-.56-1.99-.24-.645-.46-1.308-.665-1.99-.204-.61-.374-1.562-.51-2.855-.136-1.29-.24-2.652-.305-4.08-.07-1.428-.102-2.788-.102-4.08 0-1.292.034-2.278.103-2.96.067-.61.118-1.426.153-2.446.034-1.02.085-2.093.153-3.214.067-1.122.118-2.193.153-3.214.032-1.02.05-1.835.05-2.447.27-2.992.678-6.12 1.224-9.385 0-.27.016-.797.05-1.58.034-.78.067-1.597.103-2.448.034-.85.067-1.666.102-2.448.034-.78.085-1.342.153-1.683.135-.61.254-1.223.358-1.835.1-.612.22-1.224.356-1.837 0-.134.015-.288.05-.46.033-.168.05-.32.05-.458v-1.223c-.34.137-.61.22-.816.255-.204.035-.407.12-.61.255-.343.204-.698.408-1.072.612-.374.203-.766.407-1.173.61-1.022.612-2.058 1.157-3.112 1.633-1.056.477-2.16.85-3.316 1.122-.75.137-1.445.34-2.09.61-.647.275-1.344.58-2.09.92-.817.203-1.498.273-2.04.203-.546-.134-.92-.44-1.124-.917.137-.134.256-.305.36-.51.1-.203.22-.407.355-.612-.272-.203-.528-.423-.764-.662-.242-.238-.53-.46-.87-.663 0-.544.084-1.07.255-1.58.17-.512.36-1.004.563-1.48.338-.95.474-1.8.406-2.55 0-.34.052-.646.153-.918.103-.272.188-.544.255-.816.34-.953.818-1.787 1.43-2.5.61-.714 1.224-1.41 1.835-2.09 1.563-1.565 3.145-3.078 4.743-4.54 1.597-1.46 3.28-2.872 5.05-4.233.95-.748 1.97-1.377 3.06-1.888 1.085-.51 2.21-.97 3.365-1.377.34-.205.697-.322 1.07-.357.373-.034.766-.05 1.174-.05.61-.136 1.087-.035 1.427.305.135.478.27.903.41 1.275.133.375.268.766.405 1.174.067.544.374.883.918 1.02.27.067.51.118.715.152.204.035.442.05.715.05.678.138 1.02.444 1.02.92 0 .884.37 1.597 1.12 2.14.136.138.204.29.204.46 0 .17.07.324.206.458.474-.543.746-.968.815-1.274.066-.306.066-.97 0-1.99.407.137.714.393.918.765.203.376.475.7.815.97.136.07.188.223.154.46-.036.24-.018.46.05.663-.136.137-.254.204-.357.204-.102 0-.22.034-.356.102-.41.136-.58.304-.51.51.135.544.032 1.037-.308 1.478-.34.442-.476.97-.407 1.58 0 .478-.018.97-.052 1.48-.035.51-.085 1.038-.15 1.58-.072 1.974-.105 3.963-.105 5.968 0 2.006.136 3.996.408 5.967V116.184c0 .713-.017 1.36-.05 1.938-.034.578-.05.97-.05 1.173-.138 1.36-.103 2.72.1 4.08.206 1.36.206 2.72 0 4.08-.136.68-.254 1.565-.357 2.65-.102 1.09-.203 2.212-.306 3.368-.1 1.157-.22 2.28-.357 3.366-.137 1.088-.306 1.936-.51 2.55-.204.815-.392 1.955-.56 3.416-.172 1.463-.326 2.975-.46 4.54-.137 1.564-.254 3.093-.357 4.59-.1 1.496-.188 2.65-.255 3.466-.07.546-.136 1.09-.204 1.633-.068.545-.17 1.088-.305 1.632 0 .137-.17.272-.51.408-.34.137-.578.306-.714.51M199.496 119.396c.475-.066.766-.187.867-.356.102-.17.154-.358.154-.562-.07 0-.102-.033-.102-.102-.07-.067-.103-.135-.103-.204-.137.137-.255.306-.357.51-.103.204-.256.443-.46.714M173.08 131.33c0-.34.034-.543.102-.612 0-.135.067-.408.204-.816.136-.135.12-.255-.05-.357-.172-.102-.325-.118-.46-.05-.34 0-.546.204-.612.61-.07.613-.12 1.226-.154 1.837-.035.612-.05 1.225-.05 1.836-.07 2.11-.12 4.2-.153 6.273-.036 2.076-.256 4.132-.663 6.172v.408c0 .273.136.444.407.51.067 0 .136.018.203.05.07.036.136.053.206.053 1.154.068 2.275.12 3.364.152 1.088.035 2.21.052 3.367.052h1.326c.407 0 .816-.034 1.224-.103.748-.136 1.495-.22 2.244-.255.748-.034 1.494-.086 2.244-.154.612-.135 1.225-.237 1.837-.306.61-.067 1.224-.204 1.835-.408 1.632-.543 3.214-1.138 4.743-1.785 1.53-.645 3.01-1.443 4.438-2.396 1.02-.678 1.837-1.326 2.448-1.938.748-.747 1.496-1.597 2.245-2.55.203-.135.37-.305.51-.51.135-.204.27-.408.407-.612.68-.747.68-1.563 0-2.448-.952-1.564-2.21-2.686-3.773-3.365-1.632-.817-3.35-1.343-5.153-1.58-1.802-.24-3.62-.29-5.457-.155-.407.07-.815.12-1.224.154-.407.035-.78.05-1.12.05-.34.07-.63.137-.868.205-.238.07-.528.17-.867.306-.477.204-.97.375-1.478.51-.51.138-1.038.138-1.582 0-.34-.135-.63-.17-.868-.102-.24.07-.526.137-.867.205-.136 0-.254.016-.355.05-.103.034-.222.05-.358.05-.546-.135-1.037-.135-1.478 0-.445.138-.937.307-1.48.51-.273.138-.528.24-.764.306-.24.07-.53-.033-.87-.305-.135-.135-.373-.135-.712 0-.34.138-.663.222-.968.256-.308.035-.63.12-.97.255m-1.733-12.24c.474.137.85.154 1.12.05.272-.1.544-.22.816-.355.34-.136.665-.272.97-.41.308-.134.63-.27.97-.407.613-.27 1.224-.543 1.837-.816.612-.27 1.223-.51 1.836-.714.746-.27 1.444-.543 2.09-.815.645-.272 1.31-.51 1.99-.714 1.358-.34 2.684-.68 3.976-1.022 1.29-.34 2.617-.714 3.98-1.122 1.63-.408 3.058-.95 4.282-1.632.68-.34.78-.747.306-1.223-.68-.882-1.566-1.7-2.653-2.448-2.177-1.29-4.522-2.38-7.037-3.263-.885-.34-1.785-.63-2.703-.868-.917-.238-1.82-.494-2.702-.766-.75-.27-1.53-.525-2.347-.765-.815-.236-1.6-.525-2.346-.866-1.087-.543-2.192-.97-3.314-1.274-1.123-.307-2.262-.628-3.417-.97-.344-.135-.683-.237-1.023-.306-.34-.067-.68-.033-1.02.102.067.204.103.476.103.816.272.545.475.987.613 1.326.27.816.524 1.617.763 2.397.238.783.46 1.616.665 2.5.136.475.238.934.305 1.376.07.444.137.903.204 1.378.135.546.254 1.055.357 1.53.1.477.22.986.356 1.53.544 1.428.817 2.79.817 4.08 0 .273.016.528.05.765.035.24.155.46.358.663.41.408.41.918 0 1.53-.07.07-.102.17-.102.306 0 .138-.035.273-.1.408m-28.256 24.99c.41-.475.886-.78 1.428-.917.544-.136 1.09-.17 1.63-.103.34.068.68.103 1.023.103.34 0 .68.035 1.02.1.476.07.953.154 1.428.256.476.102.984.05 1.53-.153.203 0 .373.068.51.204 1.36.342 2.686.663 3.98.97 1.29.305 2.615.56 3.975.764.204.07.544.103 1.022.103.204 0 .373-.034.508-.103 0-.204.035-.39.103-.56.066-.17.102-.358.102-.562-.07-1.224-.086-2.413-.05-3.57.032-1.155-.018-2.31-.155-3.468-.067-.34-.084-.714-.05-1.122.034-.407.05-.815.05-1.224.07-1.97.12-3.977.155-6.017.032-2.04.05-4.044.05-6.018 0-1.563-.018-3.06-.05-4.488-.036-1.428-.12-2.923-.256-4.487-.07-.544-.085-1.02-.052-1.43.034-.406.052-.882.052-1.427-.07-.34-.102-.645-.102-.918 0-.27-.035-.577-.1-.918 0-.136-.02-.27-.053-.408-.035-.135-.052-.27-.052-.408-.136-.95-.204-1.852-.204-2.702 0-.85-.066-1.717-.202-2.602-.07-.408-.07-.78 0-1.122.066-.34.136-.68.203-1.02.07-.27.12-.543.155-.816.034-.27.084-.543.154-.815 0-.543-.275-.747-.82-.612l-1.53.306c.137-.34.374-.543.716-.61.34-.07.577-.24.715-.512l-.102-.102c-1.633 0-3.3.374-5 1.122-.61.273-1.053.613-1.325 1.02-.202.342-.544.443-1.018.307-.546-.68-1.124-1.36-1.736-2.04 0-.545-.036-.954-.102-1.226-.07-.34-.273-.78-.613-1.326.136-.34.308-.714.51-1.12l.613-1.226c-.41-.136-.714-.27-.918-.408-.34-.68-.272-1.257.204-1.733.41-.408.816-.83 1.224-1.275.407-.44.85-.867 1.326-1.274.678-.68 1.29-1.053 1.835-1.12.272-.07.613-.24 1.02-.512.475-.203.934-.372 1.377-.51.44-.136.933-.204 1.478-.204.34 0 .78-.066 1.327-.204.952-.27 1.887-.407 2.805-.407.918 0 1.852.068 2.805.203 2.175.273 4.285.647 6.325 1.122 2.04.476 4.044 1.09 6.018 1.836.882.342 1.733.68 2.55 1.02l2.447 1.02c.816.408 1.614.816 2.397 1.225.78.407 1.546.814 2.294 1.222.34.138.646.29.92.46.268.17.575.323.916.458.748.34 1.462.714 2.143 1.122.678.408 1.358.885 2.04 1.428.746.546 1.377 1.157 1.886 1.836.51.68 1.035 1.36 1.58 2.04.882 1.224 1.53 2.516 1.94 3.876.406 1.36.745 2.72 1.017 4.08.07.546.155 1.02.256 1.43.102.406.22.85.357 1.324.136.342.256.715.357 1.122.102.408.186.816.256 1.225.135.204.22.408.255.61.032.205.22.376.56.512.067.068.168.24.306.51.066.272.102.544.102.816 0 .273.033.546.1.816-.202.137-.373.24-.508.306-.136.07-.273.138-.41.204-.27.68-.56 1.326-.864 1.938-.308.613-.63 1.292-.97 2.04.272 0 .51.102.714.306.203.07.442.103.715.103 2.38.68 4.487 1.632 6.322 2.855.885.545 1.7 1.157 2.448 1.836.748.75 1.41 1.497 1.99 2.244.578.75 1.138 1.566 1.683 2.448.272.75.475 1.463.612 2.142.34 1.43.543 2.892.612 4.387 0 .545-.018 1.088-.052 1.632-.034.545-.186 1.088-.46 1.63-.136.342-.27.7-.405 1.073-.138.374-.172.73-.103 1.07v.307c-.272.476-.528.953-.764 1.427-.24.477-.53.885-.868 1.224 0-.34.067-.645.204-.918.136-.27.204-.577.204-.918-.273-.066-.476.068-.613.408-.272.545-.543 1.055-.815 1.53-.273.477-.647.92-1.12 1.327-.41.272-.683.51-.817.714-.136.137-.29.273-.458.408-.17.138-.325.307-.46.51-.204.546-.51.97-.918 1.275-.41.307-.816.63-1.224.97-.342.203-.663.39-.97.56-.305.17-.56.426-.764.765-.34.272-.714.477-1.12.612-.41.137-.785.375-1.125.714-.678.138-1.273.393-1.784.766-.508.374-1.138.697-1.886.97.135.135.204.22.204.253 0 .036.034.086.102.154-.204.204-.272.305-.204.305-.477.137-.936.273-1.377.41-.442.135-.9.27-1.377.407-.61.135-1.173.27-1.683.406-.51.138-1.037.408-1.58.816-.954.816-1.973 1.09-3.06.816-.205-.135-.376-.135-.512 0-.204.342-.46.476-.764.408-.306-.066-.63-.066-.97 0-.34 0-.58.068-.714.204-.273.204-.528.307-.766.307s-.526.068-.867.203c-.61.204-1.222.272-1.835.204-.61-.066-1.224-.033-1.837.103-.34.068-.678.068-1.017 0l-1.022-.205c-1.087 0-2.14-.135-3.16-.408-1.02-.27-2.075-.474-3.162-.612-.546-.066-.885-.066-1.02 0-.136.07-.373.307-.713.715-.137-.408-.204-.68-.204-.817 0-.067-.1-.102-.305-.102h-.204c-.07.07-.102.17-.102.306 0 .477-.136.918-.407 1.327-.273.408-.442.884-.51 1.428-.477-.34-.612-.747-.41-1.223.206-.476.138-.85-.2-1.122-.478 0-.716.17-.716.51-.75 1.564-1.292 3.23-1.632 4.997-.07.34-.12.628-.152.868-.036.237-.222.46-.563.663-.953 0-1.53-.476-1.733-1.428-.07-.204-.103-.408-.103-.61 0-.205-.066-.376-.202-.512 0-.068-.136-.238-.41-.51-.136.34-.304.613-.508.817-.815-.204-1.258-.748-1.326-1.632-.136-1.156-.273-2.296-.407-3.417-.14-1.122-.205-2.26-.205-3.417-.07-.747-.22-1.257-.46-1.53-.237-.27-.73-.475-1.478-.612-.137 0-.29.018-.46.05-.17.036-.356.053-.56.053 0-.135.1-.372.306-.714-.34-.203-.698-.357-1.07-.46-.375-.1-.732-.22-1.07-.356-.274 0-.548.137-.817.41-.613.203-1.16.237-1.632.1.066-.066.1-.118.1-.153 0-.033.035-.084.105-.152.066-.136.22-.22.46-.255.236-.034.32-.187.254-.46-.07-.27-.224-.424-.46-.458-.24-.034-.427-.118-.563-.256-.203-.067-.39-.117-.56-.152-.17-.034-.357-.085-.56-.154-.477-.136-.784-.373-.92-.714-.068-.135-.238-.27-.51-.408-.814-.204-1.615-.424-2.395-.663-.784-.237-1.582-.46-2.4-.663-.34-.135-.697-.204-1.07-.204h-1.07c-.543.07-.882.035-1.02-.102-.135-.135-.305-.474-.51-1.02-.067-.067-.1-.135-.1-.203s-.035-.136-.105-.204c-.34-.477-.34-.987 0-1.532.137-.27.34-.747.613-1.427" fill="#FFF"/>
    <path d="M260.796 89.205c.34.204.697.323 1.07.356.374.037.698-.218.97-.763-.477-.136-.85-.136-1.122 0-.272.137-.578.272-.918.408zm-1.937 0c-.274-.27-.53-.39-.766-.357-.24.035-.46.12-.663.254-1.156.41-2.346.732-3.57.97-1.223.238-2.415.528-3.57.866-.137 0-.272.036-.408.103-.137.07-.273.102-.407.102 0 .545.204.75.61.613 1.226-.272 2.482-.527 3.775-.765 1.29-.238 2.583-.493 3.876-.765.27-.136.493-.255.664-.357.168-.102.322-.322.46-.663zm-17.137 35.598c.135-.067.27-.17.407-.306h-.203c0 .137-.035.24-.103.306-.136 0-.22-.016-.255-.05-.036-.034-.087-.052-.154-.052.067 0 .118.02.153.052.033.035.083.05.153.05zm-2.857 1.223l.714-.714-.1-.1-.205-.205c-.545-.136-.75 0-.613.408l.204.61zm4.08-31.212c1.087-.27 2.142-.543 3.162-.815 1.02-.273 2.107-.578 3.264-.92-.272-.34-.51-.627-.714-.866-.204-.238-.443-.492-.714-.765-1.972.476-3.893.935-5.762 1.376-1.87.442-3.792.936-5.764 1.48-.272 0-.61.1-1.02.304.41.138.782.24 1.123.307l1.02.204c-.204.273-.51.612-.918 1.02.34 0 .595-.015.766-.05.17-.033.356-.085.56-.154.613-.134 1.258-.288 1.94-.46.678-.167 1.222-.592 1.63-1.273.067-.136.306-.27.715-.408.408-.136.832-.255 1.274-.358.442-.1.9-.152 1.378-.152-.138.34-.307.527-.51.56-.205.036-.408.087-.612.154-.273.067-.444.17-.51.305-.07.136-.17.305-.307.51h-.204.204zM231.93 96.04l-.357-.358c-.1-.102-.188-.22-.255-.357l-.204.203c-.068.07-.136.103-.204.103 0 .477.17.75.51.817.067 0 .238-.136.51-.408zm-4.283 31.925v-.102h-.613l-.1.102h.713zm-2.653 6.22c.544.41.986.478 1.326.206-.545-.408-.986-.474-1.326-.204zm-.408-33.964l-.102-.1-.204.1.102.103c.067-.067.136-.102.204-.102zm-.51-2.753c.204.884.577 1.223 1.122 1.02.272-.136.493-.27.663-.408.17-.137.36-.272.562-.41v-.713c-.407.137-.8.222-1.173.255-.375.035-.766.12-1.174.255zm-7.446 3.467c-.137 0-.22-.033-.255-.1-.035-.068-.086-.104-.152-.104l-.103.103c-.068 0-.1.035-.1.1-.07.07-.07.122 0 .155.065.035.1.12.1.255.068-.136.238-.27.51-.41zm4.08-6.527c.204.137.424.188.663.152.237-.034.424.085.562.357.066.545.44.68 1.122.408.543-.204 1.07-.34 1.58-.408.51-.067 1.003.035 1.48.306.203.137.458.137.764 0 .308-.136.527-.306.664-.51 0-.136-.018-.306-.05-.51-.036-.204-.052-.408-.052-.612.136.07.205.087.205.052 0-.034.066-.05.204-.05.34 0 .612.118.816.356.204.238.408.46.612.662.747-.27 1.462-.474 2.142-.61.68-.137 1.394-.308 2.143-.51.135-.137.305-.222.51-.257.203-.033.372-.117.51-.255 1.154-.407 2.31-.832 3.468-1.274 1.156-.44 2.31-.9 3.47-1.377.746-.34 1.51-.577 2.294-.714.78-.136 1.545-.27 2.294-.408.952-.27 1.92-.51 2.908-.714.984-.203 1.954-.44 2.906-.714.748-.27 1.53-.474 2.347-.61.814-.137 1.63-.308 2.447-.51.34 0 .85-.068 1.53-.205 1.427-.34 2.89-.576 4.385-.714 1.495-.135 2.992-.27 4.488-.407h.408c.544.136 1.105.29 1.683.458.578.17 1.175.323 1.786.46-.272.407-.545.697-.815.866-.272.17-.578.323-.917.46-.342.136-.715.17-1.122.1-.407-.067-.816.07-1.224.41 1.225.34 2.38.595 3.47.764 1.086.17 2.207.254 3.364.254.408-.066.8-.1 1.173-.1h1.07c.205 0 .41.17.614.51-.07.067-.103.135-.103.203l-.102.204c-.136.136-.272.254-.408.355-.136.103-.24.222-.305.358-.75 1.157-1.65 1.955-2.705 2.397-1.054.443-2.16.866-3.315 1.275-.068.068-.12.102-.152.102-.035 0-.086.034-.154.102.136.34.373.458.714.356.34-.102.613.018.817.357-.138.137-.29.24-.46.305-.17.07-.357.17-.56.307-1.77.545-3.3 1.224-4.59 2.04-.477.34-.987.56-1.53.663-.546.102-1.09.255-1.633.46-1.972.748-4.013 1.462-6.12 2.14-.545.205-1.02.306-1.428.306-.612.138-1.223.256-1.836.358-.612.1-1.19.22-1.734.357-2.313.544-4.607 1.07-6.885 1.58-2.28.51-4.608 1.037-6.988 1.58-1.156.204-2.295.46-3.417.766-1.12.306-2.192.698-3.213 1.173-.884.407-1.77.833-2.65 1.274-.886.442-1.837.765-2.858.97-.545.27-.75.68-.612 1.222v.51c.34 1.157.493 2.314.46 3.47-.035 1.156-.052 2.31-.052 3.467-.068.75-.086 1.53-.05 2.345.033.817.153 1.6.357 2.347.27 0 .51.018.714.05.205.036.374.052.51.052.747-.136 1.496-.238 2.245-.306.747-.066 1.53-.168 2.345-.306.408-.066.817-.084 1.225-.05.407.035.815.188 1.223.46.34.135.68.254 1.02.356.34.102.68.222 1.02.356.27.138.56.19.868.154.305-.033.593-.255.866-.663.204-.27.51-.475.92-.613.814-.204 1.63-.338 2.446-.407.817-.067 1.632-.17 2.448-.306l.51.205-.306.305c-.068.07-.17.103-.305.103-.342.137-.663.222-.97.255-.306.035-.63.086-.97.153-.34.07-.713.12-1.12.153-.41.036-.783.12-1.123.255.136 0 .307.018.51.052.204.035.373.018.51-.052.952-.066 1.852-.1 2.704-.1.848 0 1.75.067 2.702.203 1.36.138 2.55-.236 3.57-1.12-.136-.137-.29-.256-.46-.36-.17-.1-.355-.218-.56-.355 0-.475.27-.78.816-.918.408-.136.817-.22 1.225-.255.406-.034.847-.118 1.324-.255.952-.136 1.92-.34 2.907-.612.987-.272 1.888-.78 2.704-1.53.34-.27.68-.493 1.02-.664.34-.167.68-.32 1.02-.458.747.34 1.224.597 1.428.766.204.17.476.527.817 1.07.27-.134.746-.27 1.426-.407.136.342.136.648 0 .92s-.136.544 0 .815c.136.136.17.34.103.612-.07.272-.172.51-.308.714-.068.138-.152.29-.255.46-.1.17-.22.357-.356.56-.34.613-.697 1.243-1.07 1.888-.375.646-.63 1.343-.766 2.09-.203 1.293-.782 2.21-1.733 2.755-1.02 1.02-1.835 1.972-2.448 2.856-.34.544-.764.9-1.274 1.07-.51.17-1.07.324-1.684.458-1.223.273-2.448.51-3.672.714-1.223.204-2.448.41-3.67.613-2.926.34-5.867.527-8.825.56-2.958.035-5.967.052-9.027.052-.476 0-1.055-.136-1.733-.408-.885 0-1.327.407-1.327 1.222 0 .41-.035.834-.1 1.276-.07.443-.104.902-.104 1.377-.136 1.77-.22 3.518-.255 5.253-.034 1.734-.118 3.485-.254 5.253 0 .477.016.954.05 1.428.034.477.017.918-.05 1.326.68.477 1.377.766 2.09.868.715.1 1.446.086 2.195-.05 1.156-.205 2.33-.392 3.52-.563 1.19-.17 2.397-.322 3.62-.46.95-.134 1.87-.27 2.754-.407.883-.136 1.768-.238 2.653-.306.204-.067.423-.084.663-.05.237.034.492.016.764-.052.613 0 1.054-.067 1.326-.204 2.107-.407 4.2-.695 6.273-.866 2.074-.17 4.198-.288 6.375-.358h2.958c1.633-.135 3.265-.203 4.896-.203 1.632 0 3.264-.067 4.896-.204.952-.068 1.852-.154 2.703-.256.85-.102 1.718-.22 2.603-.357.61-.136 1.223-.27 1.836-.408.61-.137 1.255-.206 1.936-.206.476-.066.918-.1 1.326-.1.408 0 .85-.034 1.326-.104.475 0 .714.24.714.715.068.203.103.578.103 1.12.203.205.39.36.56.46.17.103.323.222.46.358v.408c-.273.41-.546.834-.817 1.275-.273.444-.578.903-.918 1.378-.34.545-.647 1.106-.918 1.683-.272.578-.442 1.24-.51 1.99-.272 1.087-.815 1.972-1.632 2.65-.545.41-1.14.766-1.785 1.072-.646.305-1.343.527-2.09.663-1.09.138-2.177.273-3.264.41-1.088.136-2.177.237-3.264.305-2.924.272-5.813.527-8.67.764-2.855.24-5.712.493-8.567.765-1.975.137-3.912.323-5.816.56-1.904.238-3.842.527-5.813.868-2.177.34-4.318.645-6.426.918-2.108.272-4.25.475-6.426.613h-2.958c-1.292 0-2.483-.408-3.57-1.225-.545-.34-1.325-.75-2.346-1.223-.612-.475-.85-.95-.714-1.428.136-.34.17-.68.102-1.02-.068-.34-.17-.714-.306-1.123 0-.338-.017-.663-.05-.968-.036-.306-.05-.628-.05-.97-.07-.678-.088-1.29-.053-1.835.034-.543-.018-1.12-.152-1.733-.137-.34-.188-.663-.153-.97.034-.305.085-.627.154-.968.475-2.108.833-4.217 1.07-6.325.24-2.108.426-4.25.563-6.426.135-1.768.254-3.485.356-5.152.1-1.665.152-3.35.152-5.05-.068-1.02-.086-2.055-.05-3.11.033-1.054-.018-2.09-.154-3.112 0-1.836-.017-3.654-.05-5.456-.036-1.802-.087-3.655-.154-5.56 0-.066-.068-.372-.204-.917-.545 0-.918.035-1.12.102-.205.07-.394.153-.563.255-.17.102-.357.188-.56.255-.75.34-1.326.102-1.735-.714-.067-.066-.1-.168-.1-.306v-.1c-.545-.818-.767-1.582-.664-2.296.1-.714.323-1.41.663-2.09.204-.68.357-1.31.46-1.89.1-.576-.052-1.205-.46-1.885-.203-.34-.27-.714-.203-1.122.068-.408.204-.78.407-1.12.138-.272.29-.476.46-.614.17-.134.323-.305.458-.51.067-.135.153-.288.256-.458.1-.17.186-.322.255-.46.134-.612.255-.968.356-1.07.102-.102.423-.153.97-.153h.814c.068 0 .103-.017.103-.05 0-.035.066-.053.203-.053 0-.066.017-.1.052-.1.033 0 .05-.07.05-.205.41-.613.833-1.258 1.275-1.94.442-.677.832-1.358 1.174-2.038.34-.34.612-.476.816-.41.476.07.714.375.714.92v.407zM332.91 163.46h-.102v.103l.102-.102zm-8.364-24.48c.135.273.27.51.408.714.475.75.985 1.497 1.53 2.245.543.748 1.053 1.53 1.53 2.345.34.545.612 1.07.816 1.58.204.51.408 1.038.612 1.582.135.34.22.662.255.97.033.305-.017.628-.153.968-.07 0-.137.017-.204.05-.07.036-.137.05-.204.05-.75-1.29-1.632-2.582-2.652-3.875-.885-1.086-1.65-2.192-2.295-3.314-.648-1.122-1.344-2.26-2.093-3.417-.068-.068-.1-.137-.1-.205-.682-.612-1.02-1.29-1.02-2.04 0-.747.066-1.564.203-2.448.475.204.798.443.97.713.168.273.32.546.458.817.34.545.663 1.09.97 1.632.305.544.627 1.088.968 1.63zm-28.05-12.75c-.068-.27-.12-.56-.153-.866-.036-.306-.12-.663-.255-1.07 0 .61-.035 1.172-.102 1.682-.068.51-.102 1.004-.102 1.48 0 .544.034 1.07.102 1.58.067.51.102 1.07.102 1.683.135-.818.22-1.547.255-2.195.034-.645.085-1.274.153-1.886v-.41zm-1.02-21.215c.135.272.34.612.612 1.02v.407-.407c0-.204-.018-.39-.05-.56-.036-.17-.223-.323-.562-.46zm39.474 58.854c-.204.136-.408.237-.612.305-.204.067-.443.17-.714.306v.51c0 .34.033.663.102.97.067.306-.07.663-.408 1.07-.137-.068-.255-.12-.357-.152-.1-.035-.22-.12-.356-.255-1.7-.953-3.3-2.178-4.794-3.672-.953-1.02-1.938-2.02-2.958-3.01-1.02-.983-2.04-2.02-3.06-3.11-1.09-1.223-2.16-2.463-3.213-3.723l-3.214-3.824c-.137-.135-.222-.27-.255-.408-.034-.136-.12-.27-.254-.408.27-.136.442-.118.51.05.066.172.17.325.306.46.135.068.255.153.357.255.1.102.22.22.356.357.204-.205.238-.307.102-.307l-7.344-11.016c-.272-.34-.528-.68-.765-1.02-.24-.34-.597-.612-1.072-.816-.204-.066-.375-.186-.51-.356-.137-.17-.273-.322-.41-.46l-.406-.61-.408-.613c-.34 0-.545.036-.612.103-1.157 1.156-2.295 2.26-3.417 3.315l-3.417 3.213c-.68.68-1.02 1.463-1.02 2.347.067.545.05 1.07-.052 1.58-.1.51-.323 1.005-.662 1.48-.272.272-.306.578-.102.918.34.612.44 1.19.305 1.734-.136.544-.374 1.087-.713 1.63-.34.41-.545.816-.612 1.225-.07.408-.102.85-.102 1.326 0 1.43.016 2.857.05 4.285.035 1.428-.085 2.822-.356 4.182-.068.34-.086.68-.05 1.02.033.34.083.68.152 1.02.067.475.118.918.153 1.326.032.408.083.883.152 1.428-1.293.41-2.075 1.123-2.346 2.143-.884.34-1.632.357-2.245.05-.61-.305-1.155-.73-1.63-1.274-.545-.546-.953-1.14-1.224-1.787-.272-.646-.51-1.342-.714-2.09-.545-2.72-.816-5.27-.816-7.65-.07-2.923-.102-5.83-.102-8.722 0-2.887.067-5.794.204-8.72.135-2.922.22-5.847.255-8.77.033-2.925.118-5.848.255-8.773.136-3.4.288-6.766.46-10.098.168-3.332.32-6.698.458-10.1.066-1.902.153-3.773.255-5.61.103-1.835.187-3.705.256-5.61.067-.407.118-.816.153-1.223.032-.408.083-.85.152-1.326 0-.543.204-.984.612-1.325.408-.475.85-.577 1.326-.306.816.272 1.7.646 2.652 1.12.612.478 1.02 1.02 1.224 1.633.204.953.46 1.87.765 2.754.307.885.527 1.803.664 2.754 0 .342.067.7.204 1.072.135.374.237.732.306 1.07.067.41.102.817.102 1.225 0 .408.033.816.1 1.224 0 .477.036.852.104 1.123.34.953.525 1.938.56 2.958.035 1.02.187 2.008.46 2.96v.407c.067.34.05.545-.05.612-.103.068-.393.202-.868.407.067.272.238.612.51 1.02-.137.34-.272.714-.408 1.122-.138.407-.272.78-.408 1.12.475.817.765 1.378.867 1.684.102.305.153.902.153 1.785v3.161c.475-.27.78-.236.918.103.27.884.424 1.734.46 2.55.033.816-.018 1.667-.154 2.55h-1.02c-.07.34 0 .612.204.816.204.203.373.407.51.61.408.342.408.75 0 1.225-.137-.135-.255-.238-.357-.306-.102-.068-.222-.17-.357-.307-.07.816-.086 1.65-.05 2.5.032.85-.02 1.783-.154 2.804.34-.34.628-.595.867-.765.237-.17.423-.322.56-.46l3.06-3.672c0-.066.017-.134.052-.204.034-.066.05-.134.05-.203 0-.27-.034-.44-.1-.51-.138-.135-.307-.17-.51-.102-.41.138-.75.273-1.02.41.066-.613.27-1.105.61-1.48.34-.373.75-.697 1.225-.97.135-.135.238-.203.306-.203 1.155-.34 2.107-.85 2.856-1.53.748-.68 1.495-1.495 2.244-2.448 1.02-1.292 2.074-2.567 3.162-3.826 1.087-1.258 2.142-2.532 3.162-3.825 1.155-1.36 2.515-2.143 4.08-2.347.408-.136.8-.255 1.173-.357.373-.102.73-.255 1.07-.46 1.837-.882 3.673-.984 5.51-.305.34.07.644.153.917.256.27.102.544.222.816.356.475.205.543.546.204 1.02-.137.07-.22.138-.255.205-.035.068-.12.17-.255.306-.477.408-.612.918-.408 1.53.067.204.118.392.153.56.033.17.05.358.05.562.205 1.224-.17 2.142-1.12 2.754-.274.136-.51.305-.715.51l-.612.61-1.224 1.53c0-.27-.018-.543-.05-.815-.036-.27-.052-.577-.052-.918-.137.068-.29.1-.46.1-.17 0-.29.07-.356.206-.204.068-.34.204-.41.408-.882 1.362-1.852 2.637-2.905 3.826-1.054 1.19-2.09 2.432-3.11 3.723-.137.203-.273.39-.408.56-.137.17-.273.357-.408.56.204.477.493.903.867 1.276.374.374.562.936.562 1.683-.272-.205-.494-.392-.663-.562-.172-.17-.358-.322-.562-.46-.612-.474-1.122-.44-1.53.103-.272.273-.425.596-.46.97-.034.375.12.63.46.765.68.408 1.122 1.157 1.326 2.244.408-.272.645-.442.714-.51.543.203.747.543.612 1.02-.137.544-.07.935.204 1.172.27.24.577.494.918.765h.102c-.272.204-.306.476-.102.816.067.137.118.255.153.356.033.102.084.22.153.357.067.612.27 1.19.612 1.734.544.75 1.053 1.48 1.53 2.194.475.713.95 1.446 1.428 2.193 1.155 1.904 2.295 3.81 3.417 5.712 1.122 1.903 2.26 3.773 3.417 5.61.544.815 1.02 1.63 1.428 2.446.408.817.78 1.633 1.122 2.45.475 1.02 1.002 2.006 1.58 2.957.578.953 1.174 1.904 1.786 2.856.135.34.306.646.51.917.204.273.238.647.102 1.122zM384.826 89.205c.34.204.697.323 1.07.356.374.037.698-.218.97-.763-.477-.136-.85-.136-1.122 0-.272.137-.578.272-.918.408zm-1.937 0c-.274-.27-.53-.39-.766-.357-.24.035-.46.12-.663.254-1.156.41-2.346.732-3.57.97-1.223.238-2.415.528-3.57.866-.137 0-.272.036-.408.103-.137.07-.273.102-.407.102 0 .545.204.75.61.613 1.226-.272 2.482-.527 3.775-.765 1.29-.238 2.583-.493 3.876-.765.27-.136.493-.255.664-.357.168-.102.322-.322.46-.663zm-17.137 35.598c.135-.067.27-.17.407-.306h-.203c0 .137-.035.24-.103.306-.136 0-.22-.016-.255-.05-.036-.034-.086-.052-.154-.052.068 0 .118.02.153.052.033.035.083.05.153.05zm-2.857 1.223l.714-.714-.1-.1-.205-.205c-.545-.136-.75 0-.613.408l.204.61zm4.08-31.212c1.087-.27 2.142-.543 3.162-.815 1.02-.273 2.107-.578 3.264-.92-.272-.34-.51-.627-.714-.866-.204-.238-.443-.492-.714-.765-1.972.476-3.893.935-5.762 1.376-1.87.442-3.792.936-5.764 1.48-.272 0-.61.1-1.02.304.41.138.782.24 1.123.307l1.02.204c-.204.273-.51.612-.918 1.02.34 0 .595-.015.766-.05.17-.033.356-.085.56-.154.613-.134 1.258-.288 1.94-.46.678-.167 1.222-.592 1.63-1.273.067-.136.306-.27.715-.408.408-.136.832-.255 1.274-.358.442-.1.9-.152 1.378-.152-.138.34-.307.527-.51.56-.205.036-.408.087-.612.154-.273.067-.444.17-.51.305-.07.136-.17.305-.307.51h-.204.204zM355.96 96.04l-.357-.358c-.1-.102-.188-.22-.255-.357l-.204.203c-.068.07-.136.103-.204.103 0 .477.17.75.51.817.067 0 .238-.136.51-.408zm-4.283 31.925v-.102h-.613l-.1.102h.713zm-2.653 6.22c.544.41.986.478 1.326.206-.545-.408-.986-.474-1.326-.204zm-.408-33.964l-.102-.1-.204.1.102.103c.067-.067.136-.102.204-.102zm-.51-2.753c.204.884.577 1.223 1.122 1.02.272-.136.493-.27.663-.408.17-.137.36-.272.562-.41v-.713c-.407.137-.8.222-1.173.255-.375.035-.766.12-1.174.255zm-7.446 3.467c-.137 0-.22-.033-.255-.1-.035-.068-.086-.104-.152-.104l-.103.103c-.068 0-.1.035-.1.1-.07.07-.07.122 0 .155.065.035.1.12.1.255.068-.136.238-.27.51-.41zm4.08-6.527c.204.137.424.188.663.152.237-.034.424.085.562.357.066.545.44.68 1.122.408.543-.204 1.07-.34 1.58-.408.51-.067 1.003.035 1.48.306.203.137.458.137.764 0 .308-.136.527-.306.664-.51 0-.136-.018-.306-.05-.51-.036-.204-.052-.408-.052-.612.136.07.205.087.205.052 0-.034.066-.05.204-.05.34 0 .612.118.816.356.204.238.408.46.612.662.747-.27 1.462-.474 2.142-.61.68-.137 1.394-.308 2.143-.51.135-.137.305-.222.51-.257.203-.033.372-.117.51-.255 1.154-.407 2.31-.832 3.468-1.274 1.156-.44 2.31-.9 3.47-1.377.746-.34 1.51-.577 2.294-.714.78-.136 1.545-.27 2.294-.408.952-.27 1.92-.51 2.908-.714.984-.203 1.954-.44 2.906-.714.748-.27 1.53-.474 2.347-.61.814-.137 1.63-.308 2.447-.51.34 0 .85-.068 1.53-.205 1.427-.34 2.89-.576 4.385-.714 1.495-.135 2.992-.27 4.488-.407h.408c.544.136 1.105.29 1.683.458.578.17 1.175.323 1.786.46-.272.407-.545.697-.815.866-.272.17-.578.323-.917.46-.342.136-.715.17-1.122.1-.407-.067-.816.07-1.224.41 1.225.34 2.38.595 3.47.764 1.086.17 2.207.254 3.364.254.408-.066.8-.1 1.173-.1h1.07c.205 0 .41.17.614.51-.07.067-.103.135-.103.203l-.102.204c-.136.136-.272.254-.408.355-.136.103-.24.222-.305.358-.75 1.157-1.65 1.955-2.705 2.397-1.054.443-2.16.866-3.315 1.275-.068.068-.12.102-.152.102-.035 0-.086.034-.154.102.136.34.373.458.714.356.34-.102.613.018.817.357-.138.137-.29.24-.46.305-.17.07-.357.17-.56.307-1.77.545-3.3 1.224-4.59 2.04-.477.34-.987.56-1.53.663-.546.102-1.09.255-1.633.46-1.972.748-4.013 1.462-6.12 2.14-.545.205-1.02.306-1.428.306-.612.138-1.223.256-1.836.358-.612.1-1.19.22-1.734.357-2.312.544-4.607 1.07-6.885 1.58-2.28.51-4.608 1.037-6.988 1.58-1.156.204-2.295.46-3.417.766-1.12.306-2.192.698-3.213 1.173-.884.407-1.77.833-2.65 1.274-.886.442-1.837.765-2.858.97-.545.27-.75.68-.612 1.222v.51c.34 1.157.493 2.314.46 3.47-.035 1.156-.052 2.31-.052 3.467-.068.75-.086 1.53-.05 2.345.033.817.153 1.6.357 2.347.27 0 .51.018.714.05.205.036.374.052.51.052.747-.136 1.496-.238 2.245-.306.747-.066 1.53-.168 2.345-.306.408-.066.817-.084 1.225-.05.407.035.815.188 1.224.46.338.135.677.254 1.018.356.34.102.68.222 1.02.356.27.138.56.19.868.154.305-.033.593-.255.866-.663.204-.27.51-.475.92-.613.814-.204 1.63-.338 2.446-.407.817-.067 1.632-.17 2.448-.306l.51.205-.306.305c-.068.07-.17.103-.305.103-.342.137-.663.222-.97.255-.306.035-.63.086-.97.153-.34.07-.713.12-1.12.153-.41.036-.783.12-1.123.255.136 0 .307.018.51.052.204.035.373.018.51-.052.952-.066 1.852-.1 2.704-.1.848 0 1.75.067 2.702.203 1.36.138 2.55-.236 3.57-1.12-.136-.137-.29-.256-.46-.36-.17-.1-.355-.218-.56-.355 0-.475.27-.78.816-.918.408-.136.817-.22 1.225-.255.406-.034.847-.118 1.324-.255.952-.136 1.92-.34 2.907-.612.987-.272 1.888-.78 2.704-1.53.34-.27.68-.493 1.02-.664.34-.167.68-.32 1.02-.458.747.34 1.224.597 1.428.766.204.17.476.527.817 1.07.27-.134.746-.27 1.426-.407.136.342.136.648 0 .92s-.136.544 0 .815c.136.136.17.34.103.612-.07.272-.172.51-.308.714-.068.138-.152.29-.255.46-.1.17-.22.357-.356.56-.34.613-.697 1.243-1.07 1.888-.375.646-.63 1.343-.766 2.09-.203 1.293-.782 2.21-1.733 2.755-1.02 1.02-1.835 1.972-2.448 2.856-.34.544-.764.9-1.274 1.07-.51.17-1.07.324-1.684.458-1.223.273-2.448.51-3.672.714-1.223.204-2.448.41-3.67.613-2.926.34-5.867.527-8.825.56-2.958.035-5.967.052-9.027.052-.476 0-1.055-.136-1.733-.408-.885 0-1.327.407-1.327 1.222 0 .41-.035.834-.1 1.276-.07.443-.104.902-.104 1.377-.136 1.77-.22 3.518-.255 5.253-.034 1.734-.118 3.485-.253 5.253 0 .477.015.954.05 1.428.033.477.016.918-.05 1.326.678.477 1.376.766 2.09.868.714.1 1.445.086 2.194-.05 1.156-.205 2.33-.392 3.52-.563 1.19-.17 2.397-.322 3.62-.46.952-.134 1.87-.27 2.754-.407.883-.136 1.768-.238 2.653-.306.204-.067.423-.084.663-.05.237.034.492.016.764-.052.613 0 1.054-.067 1.326-.204 2.107-.407 4.2-.695 6.273-.866 2.074-.17 4.198-.288 6.375-.358h2.958c1.633-.135 3.265-.203 4.896-.203 1.632 0 3.264-.067 4.896-.204.952-.068 1.852-.154 2.703-.256.85-.102 1.718-.22 2.603-.357.61-.136 1.223-.27 1.836-.408.61-.137 1.255-.206 1.936-.206.476-.066.918-.1 1.326-.1.408 0 .85-.034 1.326-.104.475 0 .714.24.714.715.068.203.103.578.103 1.12.203.205.39.36.56.46.17.103.323.222.46.358v.408c-.273.41-.546.834-.817 1.275-.273.444-.578.903-.918 1.378-.34.545-.647 1.106-.918 1.683-.272.578-.442 1.24-.51 1.99-.272 1.087-.815 1.972-1.632 2.65-.545.41-1.14.766-1.785 1.072-.646.305-1.343.527-2.09.663-1.09.138-2.177.273-3.264.41-1.088.136-2.177.237-3.264.305-2.924.272-5.813.527-8.67.764-2.855.24-5.712.493-8.567.765-1.975.137-3.912.323-5.816.56-1.904.238-3.842.527-5.813.868-2.177.34-4.318.645-6.426.918-2.108.272-4.25.475-6.426.613h-2.958c-1.292 0-2.483-.408-3.57-1.225-.545-.34-1.325-.75-2.346-1.223-.612-.475-.85-.95-.714-1.428.136-.34.17-.68.102-1.02-.068-.34-.17-.714-.306-1.123 0-.338-.017-.663-.05-.968-.036-.306-.05-.628-.05-.97-.07-.678-.088-1.29-.053-1.835.034-.543-.018-1.12-.152-1.733-.137-.34-.188-.663-.153-.97.034-.305.085-.627.154-.968.475-2.108.833-4.217 1.07-6.325.24-2.108.426-4.25.563-6.426.135-1.768.254-3.485.356-5.152.102-1.665.152-3.35.152-5.05-.068-1.02-.086-2.055-.05-3.11.033-1.054-.018-2.09-.154-3.112 0-1.836-.017-3.654-.05-5.456-.036-1.802-.087-3.655-.154-5.56 0-.066-.068-.372-.204-.917-.545 0-.918.035-1.12.102-.205.07-.394.153-.563.255-.17.102-.357.188-.56.255-.75.34-1.326.102-1.735-.714-.067-.066-.1-.168-.1-.306v-.1c-.545-.818-.767-1.582-.664-2.296.1-.714.323-1.41.663-2.09.204-.68.357-1.31.46-1.89.1-.576-.052-1.205-.46-1.885-.203-.34-.27-.714-.203-1.122.068-.408.204-.78.407-1.12.138-.272.29-.476.46-.614.17-.134.323-.305.458-.51.067-.135.153-.288.256-.458.1-.17.186-.322.255-.46.134-.612.255-.968.356-1.07.102-.102.423-.153.97-.153h.814c.068 0 .103-.017.103-.05 0-.035.066-.053.203-.053 0-.066.017-.1.052-.1.033 0 .05-.07.05-.205.41-.613.833-1.258 1.275-1.94.442-.677.832-1.358 1.174-2.038.34-.34.612-.476.816-.41.476.07.714.375.714.92v.407z" fill="#FFF"/>
    <g transform="translate(407 82.703)">
      <mask id="b" fill="#fff">
        <use xlink:href="#a"/>
      </mask>
      <path d="M52.387 67.19c0 .205-.035.343-.103.41h.205c.066-.067.1-.205.1-.41h-.203zM23.725 45.26v-.917c.066-1.36.136-2.77.204-4.233.065-1.46.1-2.872.1-4.232.136-.068.255-.05.358.05.102.102.152.222.152.358 0 .815.035 1.597.103 2.345.066.75-.035 1.532-.306 2.347-.07.477-.102.902-.102 1.276s-.035.833-.102 1.376v1.63h-.408zm0 1.736c.204.953.306 1.667.306 2.14 0 .478-.068 1.26-.204 2.347-.544-1.495-.578-2.99-.1-4.487zM21.38 64.744h-.103v.815c0-.067.015-.102.05-.102s.052-.035.052-.103v-.61zM20.052 10.99c-.138 3.196-.153 5.508-.052 6.935.104 1.428.222 2.484.36 3.162.203-1.63.236-3.28.1-4.947-.136-1.665-.272-3.382-.407-5.15zM13.83 43.12c-.272 1.156-.494 2.21-.663 3.16-.17.954-.255 1.906-.255 2.857 0 .477-.068.987-.204 1.53-.068.954-.187 1.872-.356 2.754-.17.886-.19 1.804-.05 2.755 0 .477-.103.918-.308 1.327-.476 1.564-.764 3.11-.866 4.64-.102 1.53-.256 3.077-.46 4.64-.136.41 0 .648.408.716.068-.136.136-.29.205-.46.068-.168.136-.357.205-.56.27-2.04.51-4.08.714-6.12.203-2.04.44-4.08.712-6.12.34-2.176.628-4.336.868-6.478.237-2.14.492-4.3.765-6.477.34-1.564.576-3.178.714-4.845.134-1.665.236-3.314.305-4.947.067-1.02.153-2.09.255-3.212.102-1.122.05-2.26-.154-3.417-.136.75-.203 1.413-.203 1.99 0 .58-.375 1.038-1.122 1.377-.137.068-.203.24-.203.51 0 .272-.035.51-.103.715-.068.545-.05 1.12.05 1.733.104.612.053 1.19-.15 1.735-.205.75-.24 1.427-.104 2.04.136.61.103 1.292-.1 2.04l.304.305c.34.273.494.51.46.714-.036.203-.12.374-.255.51-.546.545-.87 1.14-.97 1.784-.103.648-.19 1.31-.255 1.99.136.136.27.272.408.408l.407.408zm41.923 27.233c.203-.204.51-.17.918.103-.272.407-.51.883-.714 1.427.136.137.256.29.358.46.1.17.255.356.46.56-.138.272-.274.51-.41.715-.136.203-.272.475-.408.815.272.273.562.408.868.408.306 0 .627-.066.968-.203.34-.067.698-.135 1.072-.204.373-.066.765-.17 1.172-.305-.204.408-.374.68-.51.815-.34.138-.68.29-1.02.46-.34.17-.68.29-1.02.356-.544.068-1.02.1-1.427.1-.41 0-.818.036-1.226.103-.136.137-.255.34-.356.612-.103.273-.222.546-.358.816.41 0 .918.104 1.53.307-.612.612-.986 1.09-1.12 1.43-.138.543-.375.882-.715 1.018-.34.138-.648.307-.918.51-.34.204-.63.357-.867.46-.24.1-.495.22-.765.356-.816.34-1.395.783-1.734 1.327-.136.34-.356.578-.663.714-.305.137-.628.24-.968.307-1.633.136-3.265.307-4.897.51-1.633.204-3.264.204-4.896 0-.545-.07-1.09-.05-1.632.05-.545.103-1.122.188-1.734.256-.544 0-1.07.016-1.58.05s-1.004.086-1.48.154c-1.903-.068-3.79-.12-5.66-.153-1.87-.035-3.723-.187-5.56-.46-.203-.067-.475-.085-.815-.05-.34.034-.612.22-.817.56-.272.41-.68.477-1.223.205-.34-.342-.68-.528-1.02-.562-.342-.035-.68-.05-1.02-.05-.34 0-.648.015-.918.05-.273.034-.545.153-.817.357-.953 0-1.667.27-2.14.816-.205.41-.65.748-1.327 1.02-.137-.272-.306-.51-.51-.713-.204.204-.408.373-.612.51-.204.136-.408.27-.61.408-.205-.272-.393-.527-.562-.765-.17-.24-.392-.494-.663-.764-.34.34-.7.696-1.072 1.07-.374.373-.697.766-.968 1.173-.41-.274-.75-.29-1.02-.052-.272.237-.58.424-.918.562 0-.342-.018-.613-.052-.817-.034-.204-.05-.374-.05-.51.135-.34.153-.647.05-.918-.1-.272-.22-.58-.356-.918-.274-.68-.394-1.14-.36-1.376.036-.24.324-.698.87-1.376 0-.342-.17-.545-.51-.613-.342-.066-.478-.236-.41-.508 0-.41-.24-.782-.713-1.123-.34.815-.528 1.58-.562 2.294-.034.714-.255 1.445-.662 2.194-.476 0-.647-.342-.51-1.02.34-1.09.526-2.16.56-3.214.034-1.053.017-2.09-.05-3.11 0-.544.033-.92.102-1.123.408-1.97.645-3.977.714-6.017.066-2.04.168-4.045.305-6.018.135-1.632.32-3.264.56-4.896.238-1.633.425-3.3.56-5 .137-1.562.34-3.093.614-4.59.27-1.494.473-3.024.61-4.588.137-.68.256-1.31.357-1.888.103-.576.22-1.173.358-1.784.204-1.29.39-2.5.56-3.62.17-1.123.323-2.228.46-3.317.135-.68.238-1.377.306-2.09.067-.715.17-1.378.307-1.99.067-1.428.186-2.855.357-4.284.17-1.43.32-2.82.46-4.183.065-.474.116-.985.15-1.53.036-.543.053-1.087.053-1.632v-.306c.34-1.564.543-3.077.61-4.54.07-1.462.07-2.872 0-4.233 0-1.224.443-2.244 1.328-3.06h.51c.067.205.168.613.306 1.224.408-.407.8-.797 1.174-1.172.373-.373.696-.832.97-1.377h.815c.065-.134.134-.218.203-.254.067-.033.102-.085.102-.153.135-.136.204-.306.204-.51 0-.204.032-.408.1-.612.136-.95.646-1.46 1.53-1.528.883-.136 1.564-.476 2.04-1.02.136-.137.34-.154.613-.052.27.102.44.29.51.56.135.273.204.512.204.715 0 .204.033.443.1.715.206-.34.36-.442.46-.307.103.138.255.272.46.408.135-.473.27-.984.408-1.53.067 0 .118-.032.153-.1.033-.068.084-.103.152-.103.408.07.8.12 1.174.153.373.035.798.05 1.274.05.136.546.41.954.817 1.226.612.544.984 1.172 1.122 1.886.135.714.135 1.548 0 2.5-.138-.34-.24-.63-.307-.868-.068-.237-.17-.56-.305-.97-.07.817-.137 1.532-.204 2.143-.068.612-.1 1.26-.1 1.938.065 2.177.116 4.353.15 6.528.036 2.178.053 4.352.053 6.528v4.49c-.342-.34-.56-.63-.663-.868-.103-.237-.222-.933-.357-2.09-.273.476-.34.986-.205 1.53.136.545-.035 1.02-.51 1.427-.272-.272-.443-.475-.51-.613v-2.04c-.067-1.632-.102-3.264-.102-4.895 0-1.632-.035-3.298-.1-5 0-.203.014-.39.05-.56.033-.17.05-.39.05-.663.272.203.51.306.714.306 0-.205.034-.442.103-.714.066-.272-.07-.442-.408-.51-.41-.272-.663-.562-.765-.867-.103-.307-.153-.628-.153-.97-.07-.815-.12-1.614-.154-2.397-.034-.78-.187-1.545-.46-2.294.137 1.63.222 3.263.257 4.895.033 1.63.084 3.298.153 4.997 0 1.157.016 2.33.05 3.52.035 1.19-.05 2.363-.255 3.518v1.224c0 .952-.035 1.922-.1 2.906-.07.986-.07 1.956 0 2.907 0 .137-.036.306-.104.51-.068.204-.1.375-.1.51.135 3.13.117 6.19-.052 9.18-.17 2.994-.324 6.12-.46 9.384 0 1.02-.034 2.09-.102 3.213-.068 1.122-.17 2.194-.305 3.213-.137.75-.273 1.463-.408 2.143-.137.68-.24 1.394-.306 2.14-.067.205-.085.445-.05.715.033.274.05.58.05.92.067.544.103 1.12.103 1.733 0 .612-.205 1.19-.612 1.734-.137.138-.187.272-.152.408.033.138.05.273.05.408 0 .137.034.306.103.51.068.204.272.307.613.307.678.136 1.02-.068 1.02-.613.135-.408.204-.832.204-1.275 0-.44.067-.9.203-1.377.068-.34.118-.628.154-.867.033-.237.085-.492.153-.765.34-.136.525-.118.56.05.035.172.12.325.255.46.136-.204.256-.44.358-.714.1-.27.22-.51.357-.715l.306.306c-.07.75-.137 1.498-.204 2.245-.07.75-.103 1.497-.103 2.244 0 .203.016.407.05.61.034.206.052.41.052.613.677-.067 1.29-.084 1.835-.05.544.034 1.155.085 1.836.152 1.292-.067 2.618-.102 3.98-.102 1.358 0 2.718-.067 4.08-.203.61 0 1.188-.052 1.733-.154.544-.102 1.155-.22 1.836-.357.677-.205 1.34-.374 1.988-.51.645-.137 1.342-.27 2.09-.41 1.02-.134 2.023-.27 3.01-.406.985-.136 1.99-.272 3.01-.408 1.02-.205 2.055-.205 3.11 0 1.053.204 2.09.476 3.11.815.613.14.952.343 1.02.613.068.273-.1.75-.51 1.428.136.14.323.223.562.256.237.035.424.12.56.256.205.203.27.442.205.714.066.068.066.152 0 .254-.07.102-.17.153-.306.153-.07.07-.343.102-.817.102-.137 0-.273.036-.41.102-.135.07-.27.102-.407.102.068.272.187.356.358.254.17-.102.322-.153.46-.153.407.07.662.205.763.41.103.203.187.443.256.713h-.204.203z" fill="#FFF" mask="url(#b)"/>
    </g>
    <g transform="translate(0 8.703)">
      <mask id="d" fill="#fff">
        <use xlink:href="#c"/>
      </mask>
      <path d="M21.602 11.424c-.044.1-.098.21-.164.333-.065.124-.12.235-.163.332L20.2 16.47c-.08.34-.18.683-.31 1.024-.124.344-.225.71-.302 1.097-.163.586-.208 1.143-.132 1.666.125.57.135 1.016.032 1.332-.106.32-.336.728-.695 1.226-.117-.378-.178-.664-.188-.856-.046.05-.115.077-.21.082-.078.39-.167.78-.267 1.167-.1.392-.188.803-.26 1.238-.083.293-.14.585-.173.875-.033.29-.042.604-.025.94.075.524.144.93.207 1.214.062.285.064.538.002.756-.062.22-.172.443-.328.667-.157.223-.368.536-.637.932.108.236.214.447.32.633.106.187.19.398.25.636.11.28.16.567.15.856-.01.288.018.576.08.86.147.042.258.096.333.164.076.068.16.1.258.095l3.76.24 3.763.244.42-.168c-.003-.096.014-.23.054-.4s.03-.325-.024-.467c-.66-3.522-1.355-7.006-2.082-10.455-.73-3.447-1.47-6.907-2.223-10.376-.05-.046-.175-.136-.373-.27zm-4.94 20.51l-.068.075.01.214c0-.047.008-.083.03-.11.024-.024.033-.06.03-.108l-.002-.072zm-2.71 14.77c.238-.057.39-.16.455-.31.062-.147.14-.295.228-.444.122-.438.232-.877.33-1.314.097-.438.184-.85.26-1.24.09-.148.142-.294.16-.44.015-.144-.1-.306-.35-.486-.084.246-.167.476-.252.697-.086.222-.17.453-.254.698-.12.487-.23.96-.324 1.423-.098.462-.18.958-.25 1.49l.037.718c.095-.005.143-.03.14-.078-.005-.095-.065-.333-.18-.713zM10.52 61.373c-.616.175-1.006.556-1.168 1.14-.343.835-.832 1.58-1.473 2.238-.64.657-1.204 1.36-1.694 2.105-.087.196-.178.298-.273.302-.99.386-1.83.91-2.516 1.57-.048.003-.145-.017-.29-.058-.148-.04-.247-.108-.3-.202-.15-.135-.266-.3-.348-.486-.083-.19-.177-.4-.286-.634-.827-.2-1.406-.494-1.74-.886-.33-.392-.47-1.02-.42-1.888.07-1.445.288-2.85.652-4.215.32-1.266.627-2.543.92-3.832.297-1.29.677-2.57 1.14-3.843 1.248-3.813 2.387-7.63 3.418-11.457 1.03-3.825 2.024-7.71 2.976-11.65.795-3.26 1.676-6.49 2.643-9.687.966-3.195 2.114-6.366 3.445-9.51.133-.2.197-.37.19-.515.258-.59.48-1.19.665-1.8.186-.61.188-1.245.012-1.91.66-.226 1.258-.534 1.79-.92.533-.39.927-.924 1.18-1.61.045-.05.09-.114.134-.188.044-.075.113-.138.208-.192.427-.117.74-.325.942-.624.2-.3.438-.573.714-.83C22.19.82 23.498.515 24.958.87c.684.208 1.162.663 1.44 1.37.105.188.162.353.17.497.724 1.98 1.436 3.94 2.136 5.874.698 1.937 1.388 3.895 2.066 5.88.443 1.18.84 2.35 1.187 3.508.348 1.16.696 2.333 1.044 3.516.165.377.33.752.492 1.128.164.377.3.755.418 1.133.462 1.515.86 3.008 1.2 4.48.34 1.473.668 2.97.986 4.492.055.14.092.38.11.715.077 1.535.867 2.432 2.37 2.69.727.108 1.086.547 1.077 1.316-.04.147.052.3.275.454.225.158.414.354.57.584-.186.106-.464.313-.833.62-.14.104-.28.194-.418.274-.14.08-.283.123-.427.13-.904.19-1.284.738-1.14 1.644.063 1.246.198 2.513.407 3.8.14.858.268 1.717.384 2.576.117.858.077 1.75-.115 2.673-.075.436-.09.883-.04 1.335.047.456.083.945.11 1.472.01.193.008.397-.005.614-.013.218-.012.445 0 .685.036.718-.304 1.096-1.023 1.132-.622.08-1.19.254-1.705.52-.515.267-1.103.513-1.764.74-.11-.236-.217-.46-.323-.67-.107-.21-.215-.434-.322-.668-.693-2.272-1.468-4.515-2.325-6.73-.86-2.215-1.588-4.51-2.19-6.883-.113-.33-.248-.646-.407-.95-.16-.304-.367-.595-.62-.872-1.783-.05-3.524-.276-5.226-.67s-3.426-.738-5.17-1.035c-.088.198-.188.36-.3.485-.115.126-.168.26-.16.403l-.832 3.504c-.277 1.168-.432 2.354-.468 3.557-.023.483-.084.967-.178 1.45-.096.487-.202.973-.322 1.46-.324 1.22-.646 2.412-.97 3.582-.327 1.17-.726 2.32-1.196 3.45-.294.832-.577 1.662-.846 2.494-.27.83-.553 1.66-.847 2.493-.092.1-.134.198-.13.294.006.096-.038.194-.128.295-.046.05-.104.077-.177.08-.072.004-.154.032-.247.086l-.03-.576-.08-1.582c.48-.024.85-.308 1.11-.85.386-.93.55-1.925.497-2.98.394-.79.62-1.306.68-1.55.058-.242.05-.627-.024-1.15-.263.493-.47.936-.617 1.327-.15.393-.164.85-.04 1.372-.232.155-.4.37-.508.64-.107.268-.2.526-.285.77-.124.392-.26.796-.407 1.21-.147.416-.282.82-.407 1.21l.085 1.655z" fill="#FFF" mask="url(#d)"/>
    </g>
    <path d="M65.873 10.304c-.105-.138-.172-.278-.203-.42-.032-.143-.1-.285-.2-.423l-.016-.287c.096-.005.203-.022.322-.053.118-.03.224-.047.32-.052.09-.1.136-.175.133-.223.04-.1.063-.207.055-.327-.005-.12.013-.23.056-.328.075-.436.008-.793-.198-1.07-.102-.09-.154-.184-.16-.28-.108-.236-.105-.428.008-.578.112-.15.288-.23.53-.244.094-.005.19.003.288.02.096.022.217.027.362.02.05.046.22.06.507.046.037-.194.148-.392.33-.593.18-.2.32-.328.413-.382.373-.21.617-.402.727-.576.11-.174.11-.45-.005-.83-.056-.14-.09-.33-.102-.57.612-.224 1.054-.307 1.32-.248.27.058.825.38 1.672.96.138-.15.13-.294-.022-.432-.15-.136-.186-.326-.102-.57.04-.148.21-.18.5-.098l.68.613.577-.03c.328-.11.548-.05.656.184.206.23.38.295.517.19.475-.07.825.152 1.043.67.425.795.632 1.553.62 2.273l.172 3.38.03.575c.01.193.066.36.17.498.117.426.21.853.28 1.283l.21 1.285c.016.288.053.563.115.823.06.263.263.456.605.582.1.044.164.137.196.28.03.142.073.26.124.353.12.476.204.95.254 1.43.048.478.11.956.18 1.432.12.475.206.95.255 1.43.048.477.156.928.322 1.352.056.19.093.453.11.788.05 1.005.15 2 .296 2.977.148.98.27 1.968.368 2.973.152 1.098.267 2.174.344 3.226.078 1.055.195 2.13.346 3.228.053.142.085.284.093.428.007.144.037.286.093.427.22.566.407 1.146.558 1.74.15.592.288 1.198.416 1.815.06.24.096.43.102.572l.025.503c.005.097-.013.218-.053.365-.04.145-.01.288.094.426.174.57.286 1.14.34 1.714.053.573.142 1.17.27 1.788.054.094.092.165.12.21.026.048.088.116.19.207.228-.252.288-.495.18-.73-.11-.234-.12-.45-.034-.647.19-.056.29.034.303.273.176.615.42 1.156.733 1.62.154.233.276.49.362.774.086.284.09.597.012.937-.087.197-.08.365.025.505.103.138.16.304.17.495.055.14.088.297.096.465.008.17.088.295.237.382.197.135.31.443.335.92-.078.39-.07.786.022 1.19.095.405.198.795.314 1.174.058.24.097.49.11.753.013.263.073.512.183.747.108.236.227.445.356.63.13.187.248.374.355.56.108.234.192.47.252.707.06.238.024.48-.107.727-.18.202-.17.466.04.79.058.19.115.392.175.605.06.212.047.442-.037.686-.457.504-.975.938-1.556 1.304-.584.367-1.148.804-1.7 1.312-.112.63-.42 1.224-.92 1.776l-.79.04c-.087.2-.16.395-.22.59-.064.195-.138.392-.224.588-.09.15-.178.285-.268.41-.09.124-.178.262-.267.41-.137.15-.197.37-.183.66.014.286-.05.48-.186.584-.28.206-.566.246-.86.116-.344-.126-.594-.307-.75-.538-.558-.598-1.07-1.196-1.53-1.797-.466-.6-.86-1.253-1.183-1.957l-.962-1.9c-.577-.93-1.095-1.9-1.553-2.91-.46-1.01-.887-2.035-1.276-3.072-.106-.233-.2-.458-.284-.67-.085-.21-.18-.435-.288-.67-.286.015-.477.05-.57.1-.322.354-.615.694-.888 1.02-.27.326-.54.69-.808 1.086.004.097-.017.17-.062.22-.047.05-.066.123-.062.22.07.38-.153.727-.666 1.042-.742.568-1.48 1.146-2.218 1.734-.74.592-1.454 1.217-2.14 1.877-.37.306-.775.613-1.215.925-.44.31-.87.62-1.286.93-.14.153-.288.29-.448.42-.163.13-.31.293-.444.492-.314.448-.776.833-1.383 1.15-2.806 1.538-5.68 2.212-8.62 2.025-.434-.026-.884-.11-1.348-.255-.463-.145-.893-.303-1.284-.476-.395-.17-.8-.342-1.218-.514-.416-.17-.823-.365-1.218-.586-.1-.09-.215-.17-.337-.235-.123-.066-.258-.12-.404-.16-.39-.076-.697-.228-.925-.458-.226-.23-.443-.482-.65-.76-.56-.596-1.012-1.233-1.358-1.913-.35-.678-.592-1.423-.727-2.234-.072-.477-.11-.955-.11-1.436-.002-.48.01-.962.035-1.443.042-1.06.145-2.11.308-3.152.163-1.04.337-2.12.52-3.234.177-1.26.488-2.477.93-3.65.448-1.18.953-2.332 1.52-3.468.13-.295.285-.543.466-.745.267-.445.52-.902.76-1.37.24-.47.467-.973.68-1.513.212-.54.476-1.046.788-1.52.313-.47.624-.93.94-1.38.132-.247.385-.428.764-.544.476-.072.92-.31 1.333-.716.224-.3.477-.54.757-.724.28-.182.583-.33.914-.443.8-.328 1.58-.596 2.338-.804.76-.205 1.547-.306 2.364-.3.816.008 1.657-.048 2.516-.164.858-.116 1.693-.242 2.504-.38.188-.056.38-.08.572-.065.194.015.388.04.582.08.39.076.592.28.608.616-.376.164-.715.108-1.017-.165-.2-.134-.385-.195-.55-.187-.17.01-.274.086-.314.232-.082.293-.23.47-.442.528-.212.06-.44.095-.677.107-.097.005-.192.022-.286.05-.096.03-.213.07-.354.126.105.236.226.446.355.63.128.187.248.397.358.632-.093.102-.184.19-.276.266-.093.077-.184.167-.276.267.005.097.023.193.052.287.028.094.07.212.127.353-.194.01-.373.008-.54-.01-.172-.013-.326.007-.468.06-.236.062-.436.144-.6.248-.164.105-.337.21-.524.314-.18.25-.334.522-.462.816-.13.296-.44.36-.928.192.058.19.114.344.168.46.053.117.06.226.017.323.002.05-.044.112-.136.19-.095.076-.188.117-.284.122-1.236.256-2.213.905-2.928 1.95-.087.197-.172.382-.26.555-.087.173-.174.357-.26.554l-.742 2.418c-.084.245-.145.464-.183.657-.038.195-.003.41.105.644.325.703.36 1.4.106 2.084-.164.54-.093.99.214 1.36.155.232.24.48.253.744.015.263.005.54-.03.83-.012.675-.026 1.336-.042 1.984l-.044 1.986c-.018.577.156 1.146.52 1.703.47.7 1.154.977 2.063.834.377-.116.745-.206 1.103-.273l1.105-.2c.48-.024.927-.214 1.34-.572.282-.158.565-.305.845-.44.282-.132.562-.304.84-.51.233-.108.443-.24.627-.394.184-.153.39-.33.622-.535.645-.514 1.218-1.06 1.72-1.64.497-.576.994-1.215 1.488-1.913.585-.75 1.073-1.532 1.466-2.346.39-.81.757-1.66 1.096-2.542.337-.93.59-1.87.757-2.813.17-.947.3-1.902.397-2.868.212-1.5.136-2.963-.225-4.387-.142-.905-.26-1.79-.35-2.65-.094-.86-.21-1.742-.353-2.65-.12-.472-.203-.938-.25-1.392-.048-.453-.13-.895-.248-1.32-.072-.43-.14-.835-.206-1.217-.07-.38-.11-.76-.13-1.145-.176-1.53-.36-3.02-.553-4.477-.194-1.456-.426-2.922-.69-4.4-.133-.665-.25-1.32-.355-1.965-.104-.643-.128-1.3-.065-1.978l.163-1.09zM99.974 34.45c.47-.168.795-.423.97-.77-.236.11-.434.204-.598.284-.166.08-.29.243-.372.487zm-.604.897c-.077.39-.157.706-.24.95.098.044.173.088.223.133.05.045.1.067.148.064.203.182.395.172.577-.03.09-.1.193-.2.308-.304.115-.102.242-.204.38-.308-.023.483-.106.955-.25 1.418-.146.466-.356.8-.635 1.006-.182.202-.282.376-.298.52-.017.145-.02.315-.01.507.235.852.433 1.922.595 3.212.16 1.29.312 2.363.453 3.22.222 1.53.43 3.032.626 4.512.196 1.48.285 2.99.267 4.528.018 1.297-.026 2.55-.134 3.756-.11 1.21-.25 2.44-.426 3.7-.08.34-.16.646-.242.912-.084.27-.164.55-.245.842-.287.015-.478.048-.57.1-.143.055-.08.125.19.208.268.082.572.163.913.24.34.08.644.16.913.244.268.082.333.175.195.28-.15-.09-.225-.16-.227-.207l-.01-.216c-.112-.283-.173-.568-.188-.856l-.044-.862c-.01-.192-.093-.403-.248-.637-.005-.096-.13-.185-.374-.27-.047.05-.105.09-.175.117-.07.03-.127.092-.17.19-.087.196-.16.38-.223.55-.063.172-.138.38-.22.625-.38.115-.655.394-.823.835-.355.595-.997.746-1.923.458-.22.443-.397.692-.54.748-.14.054-.372.235-.693.54-.196-.087-.39-.1-.58-.043-.188.058-.39.116-.602.176-.214.057-.417.094-.607.103-.192.01-.39-.078-.59-.26-.28-.755-.51-1.537-.697-2.343-.184-.808-.323-1.643-.414-2.503.006-.817-.048-1.643-.162-2.478-.115-.835-.17-1.686-.166-2.55-.01-1.106-.028-2.21-.06-3.315-.033-1.1-.032-2.232.006-3.387.028-1.346.034-2.67.015-3.966-.02-1.297-.086-2.615-.202-3.955l-.2-3.955-.063-1.223c-.097-.956-.17-1.912-.218-2.872-.048-.96.022-1.922.213-2.895-.01-.19-.008-.384.007-.576.014-.192.138-.343.373-.45.092-.102.136-.177.133-.226.214-.538.26-1.045.14-1.52-.12-.474-.097-.954.07-1.445.12-.487.316-.858.592-1.112.46-.408.77-.904.934-1.49.076-.34.174-.56.29-.662.114-.102.413-.117.9-.046.04-.1.06-.22.052-.364-.006-.145.01-.265.052-.365.138-.148.23-.2.28-.156.146-.007.22.037.224.132l.027.504c-.083.292-.098.462-.046.508.254.323.428.675.52 1.054.092.38.22.758.383 1.134.107.237.216.47.323.704.11.237.286.444.537.62.204.233.39.343.558.334.168-.007.37-.066.603-.174.14-.104.29-.22.453-.348.16-.128.31-.243.45-.347 1.573-1.186 3.466-1.787 5.676-1.803.96-.05 1.876.026 2.75.22.876.197 1.796.366 2.765.51.15.09.298.163.446.228.146.064.296.166.447.302.396.222.756.454 1.082.7.323.25.66.485 1.01.708.098.092.21.182.336.27.124.092.238.18.34.272.338.08.51.143.513.19.11.282.28.49.5.623.225.134.46.29.71.47.008.143.085.236.23.275-.086.198-.186.37-.298.52-.112.15-.263.255-.453.312-.242.012-.56.077-.963.193-.403.118-.817.246-1.243.387-.424.143-.8.32-1.126.528-.327.208-.51.41-.546.603.05.094.114.103.18.026.07-.075.15-.164.24-.265l.273-.302c.09-.1.21-.13.356-.09.15.09.285.142.405.16.122.018.23.048.33.09.343.128.427.39.256.78-.138.105-.257.123-.357.055-.1-.066-.2-.145-.3-.236-.646-.4-1.318-.39-2.018.03.118.427.26.827.423 1.204.164.376.233.83.214 1.36-.098.003-.192.02-.287.05-.095.03-.19.045-.286.05-.383.068-.726.145-1.034.234-.31.087-.576.28-.8.58-.322.305-.633.32-.935.047-.553-.5-1.148-.83-1.78-.99-.633-.16-1.287-.27-1.962-.333-.628-.063-1.244-.092-1.844-.087-.6.007-1.16.12-1.678.338-.378.116-.733.23-1.062.343-.332.114-.635.273-.914.48-.002-.048-.03-.095-.08-.14l-.006-.145c-.048.002-.096.03-.14.078.005.098.03.122.075.07l.15.137zM128.407 59.102c.027.528.197 1.023.51 1.488.26.372.23.782-.083 1.23-.71 1.14-1.728 1.938-3.05 2.39-.283.11-.55.05-.803-.175l-2.19-1.98c-.5-.406-.822-1.04-.96-1.897-.193-.952-.374-1.892-.54-2.82-.168-.93-.324-1.87-.47-2.825-.067-.38-.116-.642-.148-.785-.032-.142-.06-.26-.09-.356-.03-.093-.06-.213-.09-.356s-.082-.43-.15-.857c-.083-.67-.148-1.22-.193-1.65-.05-.43-.08-.86-.103-1.293-.022-.43-.036-.922-.038-1.475-.006-.552.016-1.286.066-2.203l-.227-4.46c-.012-.238.018-.552.095-.94.06-.677.123-1.34.187-1.993.063-.652.125-1.316.187-1.992-.01-.19.01-.253.062-.183.05.07.09.164.123.28.03.12.047.215.05.288.004.072-.026-.01-.085-.25-.118-.424-.114-.81.014-1.153.12-.437.202-.73.243-.877.04-.146.082-.28.124-.402.042-.122.072-.257.09-.402.016-.145.062-.41.138-.8.107-.727.242-1.382.405-1.966.123-.392.235-.806.333-1.244.098-.437.16-.873.187-1.307.078-.34.134-.656.17-.946.03-.29.135-.584.313-.882.086-.195.16-.393.223-.588.06-.194.133-.414.217-.66.038-.193.13-.295.273-.302.145-.008.268.06.37.197.41.508.727 1.033.945 1.574.22.542.442 1.095.663 1.66.218.565.4 1.013.537 1.343.135.33.27.634.406.917.135.28.235.588.3.92.065.334.137.812.217 1.432.098 1.004.19 1.864.276 2.58.084.717.143 1.41.178 2.082l.107 2.086.132 2.59c.038.766.082 1.4.132 1.902s.097.993.147 1.47c.047.48.085.97.11 1.474l.097 1.905.315 6.185c.034.67.08 1.34.136 2.01.06.67.105 1.342.14 2.012m-1.67-44.18c.6.45.623.93.072 1.438-.642.61-1.325 1.113-2.05 1.51-.725.397-1.64.577-2.748.537-.195-.037-.474-.096-.838-.174-.365-.078-.765-.153-1.202-.228-1.157-.085-1.743-.727-1.756-1.928-.222-.566-.266-.97-.133-1.22.13-.246.456-.456.977-.626.423-.165.85-.33 1.272-.497.424-.165.876-.26 1.355-.285.575-.03 1.153-.034 1.73-.016.577.02 1.116.208 1.614.567.103.09.237.156.408.194.17.04.305.106.407.197.15.09.295.166.444.23.146.065.296.165.447.3M196.2 59.618l-.003-.07.072-.004-.07.074zm-1.068-1.17c-.078.34.002.504.242.492.048-.003.094-.04.14-.115.04-.074.135-.14.278-.195-.202-.183-.332-.344-.387-.485-.19.058-.28.16-.273.302zm-19.26-34.202c.265-.494.54-.965.83-1.413.29-.446.54-.987.748-1.624.083-.244.203-.467.362-.668.158-.2.28-.422.363-.667.405-.55.662-1.15.772-1.806.112-.655.17-1.39.177-2.21-.025-.477-.094-.894-.207-1.25-.115-.353-.35-.714-.704-1.08-.91-.916-1.887-1.646-2.924-2.195-1.037-.548-2.134-.84-3.29-.878-.676-.062-1.386-.074-2.13-.036l-2.12.108c-.575.03-1.12.178-1.636.444-.516.267-1.026.605-1.534 1.016-.094.053-.276.23-.55.532-.3.69-.59 1.39-.866 2.098-.276.712-.518 1.41-.723 2.092-.2.78-.238 1.455-.112 2.025.125.57.37 1.134.735 1.693 1.036 1.485 2.084 2.933 3.14 4.346 1.058 1.413 2.174 2.785 3.347 4.118.105.188.234.35.385.486.15.136.353.343.608.617.962-.96 1.887-1.885 2.778-2.772.895-.885 1.744-1.88 2.553-2.977zm-4.128 25.082l4.24-1.658c-.725-1.02-1.49-1.882-2.295-2.586-.804-.704-1.805-1.483-3.003-2.334-.394-.172-.75-.31-1.066-.415-.317-.104-.6-.222-.847-.354-.78.715-1.54 1.367-2.28 1.955-.738.592-1.43 1.19-2.07 1.8-.688.66-1.364 1.33-2.024 2.014-.664.68-1.207 1.586-1.63 2.713.724.06 1.436.12 2.136.18.7.062 1.388.12 2.065.183.335-.017.635-.02.9-.01.266.012.588-.017.97-.085.805-.23 1.622-.454 2.454-.665.83-.21 1.645-.456 2.45-.737zm33.937-11.676c-.463.313-.495.65-.09 1.015.05.094.104.174.155.244.052.07.103.152.157.245-.273.303-.604.403-.993.304-.392-.1-.674.02-.85.366-.04.146-.01.24.088.283.098.043.174.112.228.204.1.092.175.148.224.168.048.023.1.08.152.173.012.24-.077.365-.27.375l-1.293.066c.06.237.094.453.104.643.1.092.187.146.26.166.074.02.135.054.186.098.154.185.224.386.212.602-.015.217-.09.354-.232.41-.24.06-.464.094-.68.106l-.683.034c-1.068-.185-2.05-.123-2.946.187-.896.31-1.768.678-2.61 1.105-.567.22-1.13.467-1.693.735-.563.27-1.103.538-1.617.803-.23.204-.498.4-.8.58-.304.187-.617.407-.94.662-.187.107-.308.318-.364.632-.056.316-.203.528-.437.635-.188.105-.374.224-.56.352-.186.13-.347.27-.482.422-.047.05-.067.1-.065.146.003.05-.042.122-.133.223.1.09.167.207.198.35.03.142.097.26.197.35.728 1.07 1.453 2.1 2.178 3.097.723.998 1.47 1.957 2.236 2.878.15.138.266.276.345.415.08.14.168.256.27.347.843.534 1.198 1.356 1.062 2.47-.39-.124-.7-.085-.93.12-.23.202-.432.5-.604.894.056.143.088.31.098.5.01.193.02.36.026.504-.236.11-.396.237-.484.386.007.143.038.286.094.428.054.14.134.304.24.49-.186.106-.372.26-.553.463-.183.202-.388.405-.618.61-.15-.137-.3-.25-.45-.338-.147-.09-.3-.25-.457-.482-.533.844-1.198 1.022-1.99.534-.102-.092-.2-.11-.293-.057-.094.052-.19.034-.29-.057-.248-.133-.495-.276-.744-.432-.247-.155-.497-.347-.75-.574-.456-.507-.912-.962-1.366-1.373-.453-.407-.91-.866-1.367-1.37-.76-.732-1.53-1.46-2.31-2.19-.783-.728-1.555-1.507-2.318-2.334-.253-.226-.5-.358-.742-.394-.244-.035-.526.075-.848.332-1.584.994-3.212 1.845-4.882 2.555-1.67.71-3.378 1.373-5.125 1.99-.376.163-.742.29-1.098.38-.356.09-.72.263-1.09.524-.046.05-.13.08-.248.085-.12.005-.227.034-.32.087-.763.135-1.513.27-2.25.403l-2.25.403c-.335.064-.63.15-.89.26-.26.11-.58.175-.962.195-.245-.084-.513-.155-.804-.212-.29-.058-.63-.124-1.018-.2-.293-.082-.67-.16-1.13-.23-.46-.074-.885-.15-1.273-.225-.437-.074-.758-.226-.962-.455-.304-.32-.635-.676-.99-1.067-.358-.39-.665-.77-.923-1.142-.258-.324-.453-.625-.588-.908-.134-.282-.257-.587-.37-.918-.02-.383-.073-.706-.158-.966-.086-.258-.16-.556-.227-.888-.288-.947-.356-1.833-.208-2.658.152-.825.447-1.632.887-2.424.26-.54.55-1.025.863-1.45.314-.423.605-.884.867-1.378.487-.84 1.01-1.624 1.575-2.35.563-.726 1.162-1.466 1.798-2.22.637-.704 1.25-1.395 1.84-2.076.59-.678 1.132-1.365 1.626-2.064.09-.15.176-.31.264-.483.088-.172.246-.36.477-.565-.113-.33-.245-.564-.396-.7-.15-.136-.303-.296-.457-.482-1.18-1.43-2.32-2.874-3.43-4.33-1.106-1.458-2.205-3-3.298-4.628-.733-1.163-1.295-2.313-1.69-3.445-1.014-2.93-.945-5.84.204-8.735.296-.783.667-1.523 1.113-2.22.445-.695.942-1.344 1.487-1.948.5-.555.975-1.132 1.426-1.732.45-.6.9-1.175 1.354-1.727.31-.495.605-.87.88-1.124.45-.6.992-.795 1.628-.59.193.04.363.044.506.01.14-.03.333-.05.573-.064.423-.212.782-.23 1.08-.055.432-.02.69-.082.782-.183.94-.432 1.874-.744 2.8-.935.93-.193 1.866-.408 2.816-.65 1.622-.227 3.35-.266 5.184-.12.868.053 1.753.214 2.655.478.904.268 1.772.57 2.608.913.73.204 1.443.53 2.14.974.695.446 1.37.94 2.02 1.483 1.052.81 1.93 2.017 2.636 3.615.272.612.545 1.234.817 1.87.273.633.543 1.233.814 1.795.215.47.293 1.044.23 1.72-.07.484-.167.945-.288 1.384-.123.44-.294.857-.513 1.253-.225.348-.33.642-.318.88-.11.68-.344 1.27-.703 1.767-.36.5-.648.995-.863 1.485l-.193.443c-.79.57-1.45 1.275-1.983 2.12-.534.844-1.115 1.69-1.744 2.54-.043.098-.1.185-.167.26-.07.075-.125.187-.165.332-.323 1.22-.957 1.973-1.904 2.26-.12.44-.2.757-.24.95-.037.195-.1.378-.187.55-.087.173-.246.362-.476.565-.23.204-.622.512-1.178.924.01.192.038.31.09.356.002.048.027.07.075.07.676 1.02 1.39 2.03 2.137 3.026.746.995 1.508 2.027 2.283 3.092.096-.005.147.04.15.136.473.745 1.01.934 1.617.566 1.404-.744 2.827-1.333 4.27-1.766 1.445-.434 2.876-.88 4.295-1.336.567-.174 1.138-.31 1.71-.412.57-.1 1.142-.213 1.712-.34 1.097-.15 2.217-.352 3.357-.603 1.14-.25 2.262-.403 3.366-.46l1.22-.062c.433-.022.84-.018 1.227.01.243.036.474.095.695.18.22.086.386.294.5.623.012.242-.055.354-.2.336-.145-.015-.263.027-.354.126z" fill="#FFF"/>
    <g transform="translate(222 -.297)">
      <mask id="f" fill="#fff">
        <use xlink:href="#e"/>
      </mask>
      <path d="M47.054 42.295c.044.863-.03 1.564-.218 2.102-.19.538-.686.924-1.49 1.158-.332.113-.48.252-.448.418.032.168-.14.332-.515.496.06.284.128.413.198.385.073-.028.163.125.278.454-.236.107-.414.344-.54.713-.126.365-.25.757-.374 1.17-.122.416-.246.82-.37 1.21-.125.39-.284.616-.47.673-.237.108-.442.335-.615.68-.383.98-.944 1.812-1.676 2.5-.735.685-1.58 1.078-2.537 1.174-.384.02-.68.094-.89.225-.208.13-.526.255-.952.373.17-.394.322-.712.455-.96.13-.247.336-.473.613-.68.28-.205.64-.394 1.09-.56.447-.167 1.074-.343 1.884-.528-.01-.192-.043-.335-.095-.43-.38.117-.745.232-1.1.346-.354.115-.747.183-1.178.205-.282.112-.604.188-.962.23-.36.042-.613-.005-.764-.14-.85-.63-1.69-.854-2.52-.666-.833.186-1.656.325-2.468.414-.38.066-.674.202-.88.404-.206.203-.5.315-.884.334-.863.044-1.72.207-2.57.49-.852.286-1.71.402-2.58.35-.675-.062-1.37-.04-2.086.068-.715.11-1.41.157-2.083.143-.817-.006-1.528-.042-2.132-.108-.605-.066-1.048-.5-1.328-1.303-.284-.852-.485-1.74-.605-2.673-.12-.93-.25-1.873-.396-2.828-.054-.093.002-.167.17-.224.164-.056.315-.16.45-.31.327-.21.632-.37.914-.48.283-.11.556-.173.82-.186.263-.014.564-.016.9-.01.336.008.767-.027 1.293-.102 1.148-.105 2.407-.387 3.778-.84 1.37-.455 2.764-.946 4.18-1.476 1.415-.527 2.806-1.056 4.173-1.582 1.367-.525 2.62-.938 3.758-1.237.24-.06.432-.478.586-1.255.153-.777.25-1.66.297-2.647.046-.987.047-1.925.002-2.812-.046-.887-.146-1.446-.3-1.68-1.048-1.676-2.206-3.395-3.472-5.156-1.268-1.762-2.54-3.38-3.816-4.854-.818-.968-1.688-2.015-2.61-3.147-.923-1.132-1.86-2.26-2.806-3.39-.946-1.13-1.902-2.235-2.87-3.314-.968-1.08-1.93-2.052-2.888-2.918-.4-.316-.856-.544-1.37-.688-.51-.14-1.055-.234-1.635-.277-.58-.042-1.147-.097-1.702-.165-.557-.068-1.058-.235-1.503-.5-.445-.218-.84-.185-1.186.094-.345.284-.507.665-.482 1.143.026.528-.008 1.046-.102 1.556s-.2 1.02-.317 1.53c-.12.512-.226 1.034-.318 1.567-.093.534-.102 1.063-.027 1.588.02.384.086.765.202 1.143.115.38.135.762.06 1.15-.342 2.757-.42 5.49-.234 8.195.186 2.706.18 5.434-.016 8.182-.062.677-.003 1.334.173 1.975.176.64.33 1.294.46 1.96.012.24-.047.47-.18.693-.134.224-.194.454-.182.694.048 2.834.422 5.46 1.12 7.873.702 2.416 1.597 4.92 2.69 7.505.27.612.42 1.144.442 1.6.024.455-.17.91-.58 1.363-.68-.158-1.144-.29-1.39-.398-.246-.108-.707-.217-1.386-.325-.08.34-.038.662.12.966.16.305.308.623.445.952.137.33.202.662.196 1-.007.336-.24.708-.7 1.116-.69-.35-1.223-.67-1.597-.964-.376-.294-.887-.615-1.53-.968-.147-.09-.197-.11-.145-.063.05.044.047-.003-.008-.145-.02-.43-.137-.786-.343-1.063-.207-.28-.434-.52-.685-.723-.252-.203-.524-.37-.82-.498-.295-.13-.59-.283-.888-.46-.246-.132-.47-.275-.67-.434-.2-.16-.33-.356-.39-.593-1.42-6.176-2.38-12.28-2.88-18.31-.498-6.03-.648-12.27-.447-18.72.06-1.638.17-3.29.325-4.957.154-1.667.507-3.257 1.055-4.776.72-1.91 1.588-3.504 2.604-4.782C5.6 3.274 7.155 2.462 9.25 2.115c.29-.014.667-.13 1.136-.345C12.296.567 14.136.1 15.903.37c1.768.273 3.52.94 5.256 2.004.396.222.79.394 1.18.518.39.124.783.297 1.18.516 2.33 1.42 4.46 3.125 6.388 5.12 1.927 1.992 3.783 4 5.57 6.024 1.326 1.518 2.415 3.085 3.266 4.7.85 1.614 1.87 3.233 3.058 4.855.932 1.297 1.578 2.648 1.937 4.046.36 1.4.746 2.882 1.163 4.447l.585 2.313c.21.83.42 1.674.633 2.527.212.854.4 1.7.563 2.53.162.834.286 1.61.37 2.325" fill="#FFF" mask="url(#f)"/>
    </g>
    <path d="M292.29 24.017c-.41.456-.763.822-1.062 1.1-.298.28-.584.56-.857.837-.273.28-.56.558-.858.837-.3.28-.652.648-1.063 1.1-2.094 2.317-3.77 4.76-5.035 7.322-.48.987-.74 1.983-.784 2.995-.062.676-.16 1.32-.298 1.925-.138.61-.095 1.22.13 1.832.06.285-.02.604-.24.95-.308.593-.422 1.175-.345 1.748.077.574.25 1.117.517 1.63.265.518.58.994.937 1.43.36.44.876.69 1.553.752 1.014.093 1.924.023 2.73-.21 1.32-.5 2.586-1.08 3.804-1.745 1.215-.663 2.405-1.36 3.57-2.093.742-.517.995-1.205.76-2.056-.055-.14-.088-.33-.1-.572l-.586-2.998c-.195-.998-.34-1.975-.436-2.933-.103-1.05-.226-2.042-.367-2.973-.146-.93-.275-1.825-.39-2.683-.116-.86-.197-1.745-.243-2.655-.047-.91-.024-1.895.065-2.96-.005-.095-.026-.237-.06-.43-.032-.188-.09-.354-.168-.496-.08-.14-.215-.206-.406-.196-.193.01-.448.192-.766.543m24.1 16.005c.06.24.118.428.174.57.054.14.085.258.09.355.028.526.19.903.49 1.128.25.178.405.4.466.66.06.26.1.537.115.825.063.332.116.654.157.965.04.31.068.657.088 1.04.052.095.04.288-.04.58-.36.546-.374 1.197-.047 1.948-.186.153-.358.306-.52.458-.158.155-.355.31-.587.464.116.38.226.686.336.92-.47.218-.753.328-.848.333-.672.033-1.234.35-1.684.95-.495.65-1.086 1.09-1.77 1.316-.686.227-1.415.31-2.185.255-.39-.077-.768-.177-1.134-.302-.366-.125-.745-.25-1.136-.375-.782-.248-1.54-.498-2.273-.75-.733-.25-1.492-.524-2.275-.822-.834-.34-1.573-.207-2.215.403-.55.51-1.167.937-1.844 1.284-.68.35-1.347.706-2 1.075-.14.103-.4.212-.777.328-1.188.298-2.375.587-3.562.865-1.187.276-2.407.398-3.658.366-.48.023-.963-.023-1.45-.143-.49-.17-.902-.243-1.236-.227-.244-.035-.473-.096-.694-.18-.22-.086-.453-.147-.694-.18-.734-.253-1.434-.54-2.1-.867-.665-.326-1.386-.542-2.16-.648-.675-.06-1.308-.22-1.897-.48l-1.77-.774c-.098.005-.196-.038-.297-.13-.513-.645-1.095-1.204-1.743-1.676-.65-.473-1.207-1.058-1.674-1.754-.157-.23-.304-.5-.438-.806-.137-.306-.26-.6-.37-.883-.638-1.215-1.065-2.527-1.282-3.935-.216-1.406-.24-2.81-.07-4.213.143-.97.373-1.882.69-2.74.317-.855.67-1.703 1.06-2.54.472-1.13 1.03-2.203 1.675-3.222.645-1.018 1.35-2.026 2.118-3.027.63-.85 1.26-1.65 1.896-2.402.634-.754 1.294-1.485 1.98-2.192.545-.605 1.103-1.184 1.678-1.744.57-.556 1.13-1.114 1.68-1.672.822-.858 1.697-1.588 2.63-2.187.93-.6 1.884-1.19 2.863-1.768.246.085.478.155.697.216.22.062.452.135.696.217.54.214 1 .502 1.378.867.38.366.634.883.765 1.547.012.24.17.546.478.915.242.035.43-.072.56-.32.13-.294.234-.587.317-.88l.242-.88c.42-1.22 1.158-2.29 2.216-3.21.15.088.286.165.41.23.122.068.235.146.336.236.656.64 1.278 1.293 1.864 1.96.586.668 1.14 1.396 1.662 2.186.206.28.366.57.477.877.11.306.223.625.338.954.164.378.314.72.448 1.024.135.306.26.647.377 1.026.106.188.164.387.175.604.01.215.022.418.03.61.088.765.16 1.508.223 2.224.06.718.156 1.433.29 2.148.144.954.227 1.89.25 2.8.02.912.058 1.847.106 2.806.06 1.2.156 2.37.286 3.518.13 1.147.32 2.29.572 3.43l.042.83c.014.26.074.535.185.817.13.67.51 1.058 1.14 1.17.292.033.605.066.943.096.337.032.65.015.935-.047.523-.123 1.033-.235 1.533-.33.5-.1.986-.207 1.462-.328.378-.116.758-.22 1.138-.31.38-.093.758-.194 1.137-.312.142-.053.293-.12.458-.203.166-.08.32-.148.46-.205.234-.105.48-.227.738-.36.257-.134.553-.257.883-.37M336.765 13.97c-.005-.096-.057-.142-.152-.137-.097.005-.143.02-.142.043.002.025-.045.063-.138.115l.36-.016.073-.004zm20.22 24.78c.408.46.744.936 1.01 1.427.265.49.294 1.078.09 1.762-.214.538-.318 1.085-.313 1.637.003.553.02 1.116.05 1.69.034.673-.07 1.266-.307 1.783-.237.518-.538 1-.898 1.452.057.19.095.476.115.86-.855 1.147-2.03 1.688-3.523 1.62-1.973-.043-3.508-.446-4.604-1.208-1.096-.76-2-1.99-2.71-3.683-.33-.8-.587-1.602-.77-2.41-.187-.808-.35-1.64-.49-2.5-.342-2-.683-3.977-1.02-5.93-.343-1.954-.732-3.928-1.168-5.925-.264-1.38-.608-2.733-1.037-4.057-.425-1.322-.914-2.62-1.457-3.89-.112-.283-.258-.564-.44-.844-.183-.28-.378-.556-.583-.835-.516-.696-1.1-.81-1.748-.345-.652.42-1.254.87-1.806 1.354-.55.485-1 1.12-1.343 1.906-.26.59-.508 1.168-.742 1.732-.236.565-.434 1.163-.593 1.796-.194.924-.308 1.987-.343 3.19-.04 1.11-.104 2.193-.193 3.253-.09 1.064-.06 2.143.093 3.24.095.958.083 1.895-.037 2.813-.123.92-.04 1.83.246 2.727.055.142.063.286.022.432-.04.146-.058.29-.05.435l.023.467c.01.17.064.297.165.388.254.276.4.556.44.842.038.287.066.623.086 1.006-.14 2.89-1.125 5.296-2.948 7.215-.274.302-.602.463-.985.482-.286.063-.55.076-.79.04-.245-.035-.485-.072-.728-.106-.635-.21-1.237-.227-1.805-.054-1.04.342-1.852-.026-2.435-1.102-.37-.653-.67-1.335-.896-2.045-.23-.71-.387-1.446-.474-2.212-.125-1.53-.166-3.042-.122-4.535.044-1.492.102-2.986.168-4.48.035-2.163.06-4.302.07-6.42.013-2.113-.01-4.25-.073-6.41-.054-1.055-.082-1.834-.083-2.34-.003-.505.01-.96.036-1.37.028-.41.065-.87.112-1.377.047-.506.066-1.288.06-2.346l-.057-1.15c-.186-.807-.138-1.507.145-2.1.28-.59.75-1.094 1.4-1.513.277-.252.55-.506.828-.762.275-.253.552-.485.83-.69.186-.106.386-.212.597-.32.21-.105.457-.214.74-.325.364.558.703 1.07 1.014 1.534.314.465.627.954.942 1.466.115.38.18.712.195 1-.026.433-.045.783-.055 1.048-.01.265-.035.506-.072.724-.037.22-.074.45-.108.69-.036.243-.09.582-.164 1.018-.077.39-.137.645-.178.766-.042.124-.074.21-.095.258-.022.05-.043.122-.06.217-.02.1-.043.366-.07.8l.073-.005.152.137c.09-.1.172-.165.242-.192.07-.03.128-.09.17-.19.678-.85 1.26-1.674 1.75-2.467.62-.993 1.333-1.88 2.135-2.668.8-.787 1.718-1.42 2.75-1.907.47-.215.917-.394 1.344-.537.425-.14.902-.2 1.432-.18.24-.012.48-.036.718-.073.237-.035.55-.063.933-.083-.106-.185-.21-.35-.313-.488-.104-.14-.21-.302-.314-.488.33-.114.545-.148.644-.106.244.085.465.18.663.29.198.11.42.232.668.364.246.13.46.29.637.472.178.184.39.34.637.472.25.18.462.362.64.544.177.182.252.468.224.853.032.625.345 1.09.936 1.396.45.36.765.85.94 1.466.605 1.507 1.2 3.037 1.784 4.592.584 1.557 1.178 3.09 1.784 4.597.217.518.387 1.013.508 1.486.247 1.094.458 2.165.632 3.213.173 1.048.384 2.118.633 3.21.197 1.048.428 2.07.696 3.066.268.995.523 2.017.77 3.06.058.24.095.477.107.716.013.24.072.477.182.712.164.424.34.847.53 1.27.19.422.554.717 1.092.882.27-.35.48-.71.63-1.078.15-.368.31-.748.482-1.142.174-.344.326-.69.452-1.032.128-.342.276-.71.448-1.104.04-.147.095-.28.16-.404.067-.123.145-.236.235-.337.226-.25.466-.288.716-.11zM371.737 46.722c.027.53.196 1.024.51 1.49.258.37.23.78-.084 1.228-.71 1.142-1.727 1.94-3.05 2.39-.283.11-.55.053-.803-.174l-2.19-1.98c-.502-.407-.823-1.04-.962-1.897-.192-.953-.373-1.894-.54-2.822-.167-.927-.323-1.87-.468-2.825-.068-.38-.117-.64-.15-.785-.03-.142-.06-.26-.087-.355-.03-.093-.06-.214-.09-.357-.033-.142-.084-.428-.153-.857-.082-.67-.147-1.218-.192-1.648-.048-.43-.08-.86-.102-1.293-.022-.433-.036-.925-.038-1.477-.005-.553.017-1.286.067-2.203l-.227-4.458c-.01-.24.02-.553.096-.942.06-.676.123-1.34.187-1.992.064-.652.126-1.316.188-1.992-.01-.19.012-.253.064-.183.05.07.09.165.123.28.028.12.046.215.05.287.003.073-.027-.01-.085-.248-.12-.425-.114-.81.013-1.153.12-.44.202-.733.243-.88.04-.145.082-.28.124-.4.04-.122.07-.258.09-.404.015-.145.062-.41.138-.8.106-.726.24-1.38.404-1.965.124-.39.235-.804.333-1.243.098-.438.16-.872.187-1.308.078-.34.134-.655.17-.945.03-.29.135-.585.313-.883.086-.194.16-.392.223-.588.062-.194.134-.413.22-.66.036-.192.127-.294.27-.3.146-.01.27.057.372.195.41.508.726 1.034.945 1.575.22.542.44 1.095.663 1.66.218.565.398 1.013.536 1.342.135.33.27.636.406.918.135.28.234.588.3.92.064.334.136.81.216 1.432.098 1.003.19 1.864.276 2.58.084.717.144 1.41.178 2.08l.106 2.087.132 2.59c.04.767.083 1.4.133 1.903.05.502.098.992.148 1.47.048.48.086.97.112 1.474l.096 1.906.315 6.184c.035.67.08 1.34.138 2.01.06.672.105 1.343.14 2.012m-1.672-44.18c.6.452.624.93.073 1.44-.643.608-1.326 1.11-2.05 1.51-.725.396-1.64.575-2.75.535-.193-.037-.473-.096-.837-.173-.365-.077-.765-.154-1.202-.228-1.156-.085-1.742-.727-1.755-1.93-.222-.565-.266-.97-.133-1.218.13-.247.457-.456.977-.627.422-.163.848-.33 1.27-.496.426-.166.877-.26 1.356-.284.576-.03 1.153-.036 1.73-.016.577.018 1.115.206 1.614.565.1.09.236.157.408.196.17.04.304.105.406.195.15.092.296.167.444.233.147.063.297.163.448.3" fill="#FFF"/>
  </g>
</svg>
