<?xml version="1.0" encoding="utf-8"?>
<!-- Generator: Adobe Illustrator 21.1.0, SVG Export Plug-In . SVG Version: 6.00 Build 0)  -->
<svg version="1.1" id="Layer_1" xmlns="http://www.w3.org/2000/svg" xmlns:xlink="http://www.w3.org/1999/xlink" x="0px" y="0px"
	 viewBox="0 0 42 42" style="enable-background:new 0 0 42 42;" xml:space="preserve">
<style type="text/css">
	.st0{fill:#FFFFFF;}
</style>
<g id="Clip-2">
</g>
<g id="Clip-2_1_">
</g>
<path class="st0" d="M38.9,37.5l-1.2-1.3c-0.1-0.1-0.1-0.1-0.1-0.1C37.5,36,37.5,36,37.4,36c-0.2-0.2-0.3-0.4-0.5-0.6
	c-0.2-0.2-0.3-0.4-0.5-0.6l-0.1-0.1l-0.4-0.4c-0.1-0.1-0.2-0.1-0.2-0.2c-0.1-0.1-0.1-0.1-0.2-0.2c-0.2-0.1-0.3-0.3-0.4-0.4
	c-0.2-0.1-0.3-0.3-0.4-0.4c-0.2-0.1-0.3-0.2-0.4-0.3l-0.3-0.3l-0.7-0.8l-0.3-0.2c-0.1-0.1-0.1-0.2-0.2-0.2c-0.1-0.1-0.1-0.2-0.2-0.3
	c-0.2-0.3-0.5-0.6-0.7-0.8c-0.3-0.2-0.5-0.5-0.8-0.8c-0.1-0.1-0.1-0.1-0.2-0.1c-0.1-0.2-0.3-0.3-0.4-0.4c-0.2-0.1-0.3-0.3-0.4-0.5
	c0-0.1-0.1-0.2-0.2-0.2c-0.1,0-0.2-0.1-0.3-0.2c0-0.1-0.1-0.1-0.1-0.1c-0.1,0-0.1,0-0.1-0.1c-0.2-0.2-0.3-0.3-0.4-0.4
	c-0.1-0.2-0.2-0.3-0.4-0.4L28.8,27c-0.1-0.2-0.2-0.3-0.3-0.4c-0.1,0-0.2-0.1-0.3-0.3c-0.1-0.1-0.1-0.2-0.1-0.3
	C28,26,28,25.8,27.9,25.8c-0.2-0.2-0.3-0.3-0.4-0.4c-0.2-0.2-0.2-0.3-0.3-0.5c0-0.1-0.1-0.1-0.1-0.2l-0.3-0.2
	c-0.1-0.1-0.2-0.2-0.3-0.3c-0.2-0.1-0.3-0.2-0.3-0.4s-0.1-0.3-0.2-0.3c-0.1,0-0.1,0.1,0,0.1c0.1,0,0.1,0.1,0,0.2
	c-0.1-0.2-0.2-0.3-0.3-0.4c-0.1-0.1-0.2-0.2-0.3-0.4c-0.1-0.1-0.2-0.2-0.3-0.3c-0.2-0.2-0.4-0.4-0.5-0.7c-0.2-0.2-0.3-0.4-0.5-0.6
	c0.1-0.1,0.2-0.2,0.4-0.3l0.1-0.2c0.1-0.3,0.2-0.4,0.2-0.5c0.1-0.1,0.2-0.2,0.4-0.3c0.1-0.1,0.2-0.1,0.2-0.2c0-0.1,0.1-0.1,0.1-0.2
	c0.1-0.1,0.2-0.1,0.2-0.2c0.1-0.1,0.1-0.1,0.2-0.2c0.1-0.1,0.2-0.1,0.3-0.1c0.1-0.1,0.2-0.1,0.2-0.2c0.1-0.1,0.1-0.1,0.2-0.2
	c0.2,0,0.3-0.1,0.3-0.3c0-0.1,0.1-0.2,0.1-0.2c0.2-0.1,0.3-0.2,0.4-0.3c0.1-0.1,0.2-0.3,0.3-0.4c0.1-0.1,0.2-0.2,0.2-0.2
	c0.1-0.1,0.1-0.2,0.2-0.2c0-0.1,0.1-0.2,0.1-0.2s0.2-0.1,0.2-0.1c0.2-0.1,0.2-0.2,0.3-0.3c0.2-0.3,0.3-0.5,0.6-0.7
	c0.1,0,0.1-0.1,0.2-0.1c0-0.1,0.1-0.2,0.2-0.3c0.1,0,0.2-0.1,0.2-0.1c0.1-0.1,0.1-0.2,0.2-0.2c0.1,0,0.2-0.2,0.2-0.4
	c0,0,0.1-0.1,0.1-0.1c0.5-0.6,1.1-1.2,1.6-1.8c0.5-0.6,1-1.1,1.6-1.7c0.4-0.5,0.9-1.1,1.3-1.8C35,9,35.1,8.7,35.3,8.5
	c0.2-0.3,0.3-0.5,0.5-0.7c0.2-0.3,0.4-0.6,0.6-0.8c0-0.1,0-0.2,0.1-0.2C37,6.3,37.4,6,37.7,5.6c0.1,0,0.1-0.1,0.1-0.1V5.5
	c-0.1,0-0.1,0-0.2,0.1c0,0.1-0.1,0.1-0.1,0.1c-0.1,0.1-0.1,0.1-0.2,0.2C37.2,5.9,37.1,6,37,6l-0.2,0.2c-0.1,0.1-0.1,0.1-0.1,0.1
	c0,0,0,0-0.1,0c0-0.1,0.1-0.1,0.1-0.2c0.1,0,0.1-0.1,0.2-0.2C36.9,6,36.9,6,37,5.9c0.1-0.1,0.1-0.2,0.2-0.2s0.1-0.1,0.1-0.2
	c0,0,0-0.1,0-0.2c0.1-0.1,0.2-0.2,0.3-0.3c0.2-0.1,0.3-0.2,0.4-0.3c0.1-0.1,0.2-0.3,0.3-0.4c-0.4,0.3-0.7,0.6-1.1,0.9
	c0,0-0.1-0.1-0.1-0.1c0,0,0,0,0,0c0,0,0,0,0,0c0,0,0,0,0,0c0-0.1,0-0.2,0-0.2c0,0,0,0,0,0c0.1-0.1,0.2-0.1,0.2-0.2
	c0.2-0.2,0.4-0.4,0.5-0.5c0.2-0.2,0.4-0.3,0.5-0.5l0.3-0.3c0.1-0.1,0.1-0.1,0.2-0.1c0.1-0.1,0.1-0.1,0.2-0.2
	c-0.3,0.2-0.5,0.4-0.8,0.7c-0.2,0.2-0.4,0.4-0.6,0.6c-0.2,0.2-0.4,0.4-0.6,0.5c0,0-0.1,0-0.1,0c0-0.1,0.1-0.1,0.1-0.2
	c0.1-0.1,0.1-0.1,0.1-0.2C37,4.3,37,4.2,37,4.1C37,4,37,3.8,37,3.7c0-0.2-0.1-0.3-0.3-0.4c-0.1-0.1-0.2-0.1-0.3-0.2
	c-0.1,0-0.2-0.1-0.3-0.1L36,3.1l-1.2,1.3c-0.1,0.1-0.1,0.1-0.2,0.1c0,0.1-0.1,0.1-0.1,0.1c-0.2,0.2-0.4,0.3-0.5,0.5
	s-0.3,0.3-0.5,0.5l-0.1,0.1L33,6.1c-0.1,0.1-0.1,0.2-0.2,0.2c-0.1,0.1-0.1,0.1-0.2,0.2c-0.2,0.2-0.3,0.3-0.4,0.4
	c-0.1,0.2-0.2,0.3-0.3,0.4s-0.3,0.3-0.4,0.4c-0.1,0.1-0.2,0.2-0.3,0.3l-0.8,0.8l-0.2,0.3c-0.1,0.1-0.1,0.1-0.2,0.2
	c-0.1,0.1-0.2,0.1-0.2,0.2c-0.3,0.2-0.5,0.5-0.7,0.8c-0.3,0.3-0.5,0.6-0.8,0.8c-0.1,0.1-0.1,0.1-0.1,0.2c-0.1,0.1-0.3,0.3-0.4,0.4
	c-0.2,0.2-0.3,0.3-0.5,0.4c-0.1,0-0.2,0.1-0.2,0.2s-0.1,0.2-0.2,0.3l-0.1,0.1c0,0.1-0.1,0.1-0.1,0.1c-0.1,0.2-0.3,0.3-0.4,0.4
	c-0.1,0.1-0.3,0.2-0.4,0.4l-0.1,0.1c-0.1,0.1-0.2,0.2-0.3,0.3c-0.1,0.1-0.2,0.2-0.3,0.3c-0.1,0.1-0.2,0.1-0.2,0.1
	c-0.1,0.1-0.2,0.1-0.2,0.2c-0.2,0.2-0.3,0.3-0.4,0.4c-0.1,0.2-0.3,0.2-0.5,0.3c-0.1,0-0.1,0.1-0.2,0.1c-0.1,0.1-0.2,0.2-0.3,0.3
	c-0.1,0.1-0.2,0.2-0.2,0.3c-0.1,0.2-0.2,0.3-0.4,0.3c-0.1,0-0.2,0.1-0.3,0.2c0.1,0.1,0.1,0.1,0.1,0c0.1-0.1,0.1-0.1,0.2,0
	c-0.2,0.1-0.3,0.2-0.4,0.3c-0.1,0.1-0.3,0.2-0.4,0.3c-0.1,0.1-0.2,0.2-0.4,0.3c-0.2,0.1-0.3,0.3-0.5,0.4c-0.1,0-0.1-0.1-0.1-0.1
	c-0.1-0.1-0.2-0.2-0.3-0.4c-0.1-0.1-0.1-0.1-0.2-0.2c-0.1-0.1-0.1-0.1-0.2-0.2c-0.1-0.1-0.1-0.1-0.2-0.2c-0.1-0.1-0.1-0.2-0.2-0.2
	c-0.1-0.2-0.1-0.3-0.1-0.3c-0.1-0.1-0.1-0.2-0.2-0.2c-0.1,0-0.1-0.1-0.2-0.2c0-0.2-0.1-0.3-0.3-0.3c-0.1-0.1-0.2-0.1-0.2-0.2
	c-0.1-0.2-0.2-0.3-0.3-0.4c-0.1-0.1-0.3-0.2-0.4-0.3c-0.1-0.1-0.2-0.2-0.2-0.2c-0.1-0.1-0.2-0.1-0.2-0.2c-0.1-0.1-0.2-0.1-0.2-0.2
	c-0.1-0.1-0.1-0.1-0.1-0.2c-0.1-0.1-0.2-0.2-0.3-0.3c-0.3-0.2-0.5-0.4-0.6-0.7c0-0.1-0.1-0.1-0.1-0.1c-0.1,0-0.2-0.1-0.3-0.2
	c0-0.1-0.1-0.2-0.1-0.2c-0.1-0.1-0.2-0.2-0.2-0.3c0-0.1-0.2-0.2-0.4-0.2c0,0,0,0,0,0c-0.2-0.1-0.3-0.3-0.4-0.4
	c-0.2-0.3-0.4-0.5-0.6-0.7c-0.2-0.2-0.4-0.4-0.6-0.6c-0.6-0.6-1.1-1.1-1.7-1.7c-0.5-0.5-1.1-1.1-1.7-1.6c-0.5-0.5-1.1-1-1.7-1.3
	C8.7,5.5,8.5,5.4,8.2,5.2C8,5,7.8,4.8,7.6,4.6C7.3,4.4,7,4.2,6.7,4C6.6,3.8,6.4,3.8,6.3,3.8c-0.1,0-0.1,0-0.2-0.1
	c0-0.1-0.1-0.1-0.2-0.2C5.9,3.5,5.8,3.4,5.8,3.4c-0.1,0-0.2-0.1-0.2-0.1C5.5,3.2,5.5,3.2,5.4,3.2c-0.1-0.1-0.1-0.1-0.2,0
	c-0.1,0-0.1,0.1-0.1,0.1C5.1,3.3,5,3.3,5,3.4c-0.1,0-0.2,0-0.2,0c0,0-0.1-0.1-0.1-0.1C4.7,3.2,4.7,3.2,4.6,3.2
	c0.1,0.1,0.1,0.2,0.2,0.3c0,0,0,0.1-0.1,0.2C4.7,3.6,4.6,3.6,4.6,3.6C4.5,3.5,4.4,3.4,4.3,3.4C4.2,3.4,4.1,3.3,4.1,3.4
	c-0.2,0.1-0.3,0.1-0.4,0C3.4,3.4,3.3,3.5,3.3,3.7C3.2,3.8,3.2,4,3.1,4c0,0.1-0.1,0.2-0.1,0.4l0.1,0.1l1.2,1.3
	c0.1,0.1,0.1,0.1,0.1,0.1C4.5,6,4.5,6,4.6,6C4.7,6.2,4.9,6.4,5,6.6C5.2,6.8,5.4,7,5.5,7.1l0.1,0.1l0.4,0.4c0.1,0.1,0.2,0.1,0.2,0.2
	c0.1,0.1,0.1,0.1,0.2,0.2C6.5,8,6.6,8.2,6.7,8.3C6.9,8.4,7,8.6,7.2,8.7C7.3,8.8,7.4,8.9,7.6,9l0.3,0.3l0.7,0.8l0.3,0.2
	C9,10.6,9,10.6,9.2,10.7c0.1,0.1,0.1,0.2,0.2,0.3c0.2,0.3,0.5,0.6,0.7,0.8c0.3,0.2,0.5,0.5,0.8,0.8c0.1,0.1,0.1,0.1,0.2,0.1
	c0.1,0.2,0.3,0.3,0.4,0.4c0.2,0.1,0.3,0.3,0.4,0.5c0,0.1,0.1,0.2,0.2,0.2c0.1,0,0.2,0.1,0.3,0.2c0,0.1,0.1,0.1,0.1,0.1
	c0.1,0,0.1,0,0.1,0.1c0.2,0.2,0.3,0.3,0.4,0.4c0.1,0.2,0.2,0.3,0.4,0.4l0.1,0.1c0.1,0.2,0.2,0.3,0.3,0.4c0.1,0,0.2,0.1,0.3,0.3
	c0.1,0.1,0.1,0.2,0.1,0.3c0.1,0.1,0.1,0.2,0.2,0.2c0.2,0.2,0.3,0.3,0.4,0.4c0.2,0.2,0.2,0.3,0.3,0.5c0,0.1,0.1,0.1,0.1,0.2l0.3,0.2
	c0.1,0.1,0.2,0.2,0.3,0.3c0.2,0.1,0.3,0.2,0.3,0.4s0.1,0.3,0.2,0.3c0.1,0,0.1-0.1,0-0.1c-0.1,0-0.1-0.1,0-0.2
	c0.1,0.2,0.2,0.3,0.3,0.4c0.1,0.1,0.2,0.2,0.3,0.4c0.1,0.1,0.2,0.2,0.3,0.3c0.2,0.2,0.4,0.4,0.5,0.7c0.2,0.2,0.3,0.4,0.5,0.6
	c-0.1,0.1-0.2,0.2-0.4,0.3l-0.1,0.2c-0.1,0.3-0.2,0.4-0.2,0.5c-0.1,0.1-0.2,0.2-0.4,0.3c-0.1,0.1-0.2,0.1-0.2,0.2
	c0,0.1-0.1,0.1-0.1,0.2c-0.1,0.1-0.2,0.1-0.2,0.2c-0.1,0.1-0.1,0.1-0.2,0.2c-0.1,0.1-0.2,0.1-0.3,0.1c-0.1,0.1-0.2,0.1-0.2,0.2
	c-0.1,0.1-0.1,0.1-0.2,0.2c-0.2,0-0.3,0.1-0.3,0.3c0,0.1-0.1,0.2-0.1,0.2c-0.2,0.1-0.3,0.2-0.4,0.3s-0.2,0.3-0.3,0.4
	c-0.1,0.1-0.2,0.2-0.2,0.2c-0.1,0.1-0.1,0.2-0.2,0.2c0,0.1-0.1,0.2-0.1,0.2c-0.1,0.1-0.2,0.1-0.2,0.1c-0.2,0.1-0.2,0.2-0.3,0.3
	c-0.2,0.3-0.3,0.5-0.6,0.7c-0.1,0-0.1,0.1-0.2,0.1c0,0.1-0.1,0.2-0.2,0.3c-0.1,0-0.2,0.1-0.2,0.1c-0.1,0.1-0.1,0.2-0.2,0.2
	c-0.1,0-0.2,0.2-0.2,0.4c0,0-0.1,0.1-0.1,0.1c-0.5,0.6-1.1,1.2-1.6,1.8c-0.5,0.6-1,1.1-1.6,1.7c-0.4,0.5-0.9,1.1-1.3,1.8
	C7,33,6.9,33.3,6.7,33.5c-0.2,0.3-0.3,0.5-0.5,0.7c-0.2,0.3-0.4,0.6-0.6,0.8c0,0.1,0,0.2-0.1,0.2C5,35.7,4.6,36,4.3,36.4
	c-0.1,0-0.1,0.1-0.1,0.1v0.1c0.1,0,0.1,0,0.2-0.1c0-0.1,0.1-0.1,0.1-0.1c0.1-0.1,0.1-0.1,0.2-0.2C4.8,36.1,4.9,36,5,36l0.2-0.2
	c0.1-0.1,0.1-0.1,0.1-0.1c0,0,0,0,0.1,0c0,0.1-0.1,0.1-0.1,0.2c-0.1,0-0.1,0.1-0.2,0.2C5.1,36,5.1,36,5,36.1
	c-0.1,0.1-0.1,0.2-0.2,0.2c-0.1,0.1-0.1,0.1-0.1,0.2c0,0,0,0.1,0,0.2c-0.1,0.1-0.2,0.2-0.3,0.3c-0.2,0.1-0.3,0.2-0.4,0.3
	c-0.1,0.1-0.2,0.3-0.3,0.4c0.4-0.3,0.7-0.6,1.1-0.9c0.1,0,0.1,0.1,0.1,0.1c0,0,0,0,0,0c0,0,0,0,0,0c0,0,0,0,0,0c0,0.1,0,0.2,0,0.2
	c0,0,0,0,0,0c-0.1,0.1-0.2,0.1-0.2,0.2c-0.2,0.2-0.4,0.4-0.5,0.5c-0.2,0.2-0.4,0.3-0.5,0.5l-0.3,0.3c-0.1,0.1-0.1,0.1-0.2,0.1
	c-0.1,0.1-0.1,0.1-0.2,0.2c0.3-0.2,0.5-0.4,0.8-0.7c0.2-0.2,0.4-0.4,0.6-0.6c0.2-0.2,0.4-0.4,0.6-0.5c0,0,0.1,0,0.1,0
	c0,0.1-0.1,0.1-0.1,0.2c-0.1,0.1-0.1,0.1-0.1,0.2C5,37.7,5,37.8,5,37.9C5,38,5,38.2,5,38.3c0,0.2,0.1,0.3,0.3,0.4
	c0.1,0.1,0.2,0.1,0.3,0.2c0.1,0,0.2,0.1,0.3,0.1L6,38.9l1.2-1.3c0.1-0.1,0.1-0.1,0.2-0.1c0-0.1,0.1-0.1,0.1-0.1
	c0.2-0.2,0.4-0.3,0.5-0.5c0.2-0.2,0.3-0.3,0.5-0.5l0.1-0.1L9,35.9c0.1-0.1,0.1-0.2,0.2-0.2c0.1-0.1,0.1-0.1,0.2-0.2
	c0.2-0.2,0.3-0.3,0.4-0.4c0.1-0.2,0.2-0.3,0.3-0.4s0.3-0.3,0.4-0.4c0.1-0.1,0.2-0.2,0.3-0.3l0.8-0.8l0.2-0.3
	c0.1-0.1,0.1-0.1,0.2-0.2c0.1-0.1,0.2-0.1,0.2-0.2c0.3-0.2,0.5-0.5,0.7-0.8c0.3-0.3,0.5-0.6,0.8-0.8c0.1-0.1,0.1-0.1,0.1-0.2
	c0.1-0.1,0.3-0.3,0.4-0.4c0.2-0.2,0.3-0.3,0.5-0.4c0.1,0,0.2-0.1,0.2-0.2c0.1-0.1,0.1-0.2,0.2-0.3l0.1-0.1c0-0.1,0.1-0.1,0.1-0.1
	c0.1-0.2,0.3-0.3,0.4-0.4c0.1-0.1,0.3-0.2,0.4-0.4l0.1-0.1c0.1-0.1,0.2-0.2,0.3-0.3c0.1-0.1,0.2-0.2,0.3-0.3
	c0.1-0.1,0.2-0.1,0.2-0.1c0.1-0.1,0.2-0.1,0.2-0.2c0.2-0.2,0.3-0.3,0.4-0.4c0.1-0.2,0.3-0.2,0.5-0.3c0.1,0,0.1-0.1,0.2-0.1
	c0.1-0.1,0.2-0.2,0.3-0.3c0.1-0.1,0.2-0.2,0.2-0.3c0.1-0.2,0.2-0.3,0.4-0.3c0.1,0,0.2-0.1,0.3-0.2c-0.1-0.1-0.1-0.1-0.1,0
	c-0.1,0.1-0.1,0.1-0.2,0c0.2-0.1,0.3-0.2,0.4-0.3c0.1-0.1,0.3-0.2,0.4-0.3c0.1-0.1,0.2-0.2,0.4-0.3c0.2-0.1,0.3-0.3,0.5-0.4
	c0.1,0,0.1,0.1,0.1,0.1c0.1,0.1,0.2,0.2,0.3,0.4c0.1,0.1,0.1,0.1,0.2,0.2s0.1,0.1,0.2,0.2s0.1,0.1,0.2,0.2c0.1,0.1,0.1,0.2,0.2,0.2
	c0.1,0.2,0.1,0.3,0.1,0.3c0.1,0.1,0.1,0.2,0.2,0.2c0.1,0,0.1,0.1,0.2,0.2c0,0.2,0.1,0.3,0.3,0.3c0.1,0.1,0.2,0.1,0.2,0.2
	c0.1,0.2,0.2,0.3,0.3,0.4c0.1,0.1,0.3,0.2,0.4,0.3c0.1,0.1,0.2,0.2,0.2,0.2c0.1,0.1,0.2,0.1,0.2,0.2c0.1,0.1,0.2,0.1,0.2,0.2
	c0.1,0.1,0.1,0.1,0.1,0.2c0.1,0.1,0.2,0.2,0.3,0.3c0.3,0.2,0.5,0.4,0.6,0.7c0,0.1,0.1,0.1,0.1,0.1c0.1,0,0.2,0.1,0.3,0.2
	c0,0.1,0.1,0.2,0.1,0.2c0.1,0.1,0.2,0.2,0.2,0.3c0,0.1,0.2,0.2,0.4,0.2c0,0,0,0,0,0c0.2,0.1,0.3,0.3,0.4,0.4
	c0.2,0.3,0.4,0.5,0.6,0.7c0.2,0.2,0.4,0.4,0.6,0.6c0.6,0.6,1.1,1.1,1.7,1.7c0.5,0.5,1.1,1.1,1.7,1.6c0.5,0.5,1.1,1,1.7,1.3
	c0.2,0.2,0.5,0.4,0.7,0.6c0.3,0.2,0.5,0.4,0.7,0.6c0.3,0.2,0.5,0.4,0.8,0.7c0.2,0.1,0.3,0.2,0.5,0.2c0.1,0,0.1,0,0.2,0.1
	c0,0.1,0.1,0.1,0.2,0.2c0.1,0.1,0.1,0.1,0.2,0.2c0.1,0,0.2,0.1,0.2,0.1c0.1,0.1,0.1,0.1,0.2,0.1c0.1,0.1,0.1,0.1,0.2,0
	c0.1,0,0.1-0.1,0.1-0.1c0-0.1,0.1-0.1,0.1-0.1c0.1,0,0.2,0,0.2,0c0,0,0.1,0.1,0.1,0.1c0.1,0.1,0.1,0.1,0.2,0.1
	c-0.1-0.1-0.1-0.2-0.2-0.3c0,0,0-0.1,0.1-0.2c0.1,0.1,0.1,0.1,0.2,0.1c0.1,0.1,0.1,0.1,0.2,0.1c0.1,0.1,0.2,0.1,0.3,0.1
	c0.2-0.1,0.3-0.1,0.4,0c0.2-0.1,0.3-0.1,0.4-0.3c0.1-0.1,0.1-0.3,0.2-0.3c0-0.1,0.1-0.2,0.1-0.4L38.9,37.5z M25.8,28.7
	c-0.2-0.2-0.3-0.4-0.5-0.6c0,0,0,0-0.1-0.1c0.1,0.1,0.1,0.1,0.2,0.2C25.6,28.4,25.7,28.5,25.8,28.7C25.9,28.7,25.9,28.8,25.8,28.7
	C25.9,28.8,25.9,28.8,25.8,28.7C25.9,28.8,25.8,28.7,25.8,28.7z M16.2,13.3c0.2,0.2,0.3,0.4,0.5,0.6c0,0,0,0,0.1,0.1
	c-0.1-0.1-0.1-0.1-0.2-0.2C16.4,13.6,16.3,13.5,16.2,13.3C16.1,13.3,16.1,13.2,16.2,13.3C16.1,13.2,16.1,13.2,16.2,13.3
	C16.1,13.2,16.2,13.3,16.2,13.3z M11.5,28.7c0.1-0.1,0.1-0.2,0.1-0.2c0.1,0,0.1-0.1,0.2-0.1L11.5,28.7z M15.5,24.8l0.1-0.1
	c0.1,0,0.1,0,0.1,0l-0.1,0.1L15.5,24.8L15.5,24.8z M30.5,13.3c-0.1,0.1-0.1,0.2-0.1,0.2c-0.1,0-0.1,0.1-0.2,0.1L30.5,13.3z
	 M26.5,17.2l-0.1,0.1c-0.1,0-0.1,0-0.1,0l0.1-0.1L26.5,17.2L26.5,17.2z M17.3,23.3L17.3,23.3L17.3,23.3
	C17.2,23.3,17.3,23.3,17.3,23.3z M18.2,22.5L18.2,22.5l0.1-0.1L18.2,22.5C18.2,22.5,18.2,22.5,18.2,22.5
	C18.2,22.5,18.2,22.5,18.2,22.5L18.2,22.5z M19.5,21.3C19.5,21.3,19.5,21.3,19.5,21.3C19.5,21.3,19.5,21.3,19.5,21.3z M18.9,18.5
	c0.1,0.1,0.1,0.1,0.2,0.2c0,0,0,0,0,0C19,18.6,19,18.6,18.9,18.5z M18.2,17.5c0.1,0.1,0.1,0.1,0.2,0.2
	C18.3,17.7,18.2,17.6,18.2,17.5z M19.1,20.8C19.1,20.8,19.1,20.8,19.1,20.8c0,0.1,0,0.1,0,0.1c0,0-0.1-0.1-0.1-0.1
	C19.1,20.9,19.1,20.8,19.1,20.8z M19.2,20.9C19.2,20.9,19.3,21,19.2,20.9C19.2,21,19.2,21,19.2,20.9c-0.1,0.1-0.1,0.1-0.1,0
	C19.2,21,19.2,21,19.2,20.9z M24.7,18.7L24.7,18.7L24.7,18.7C24.8,18.7,24.7,18.7,24.7,18.7z M23.8,19.5L23.8,19.5l-0.1,0.1
	L23.8,19.5C23.8,19.5,23.8,19.5,23.8,19.5C23.8,19.5,23.8,19.5,23.8,19.5L23.8,19.5z M22.5,20.7C22.5,20.7,22.5,20.7,22.5,20.7
	C22.5,20.7,22.5,20.7,22.5,20.7z M22.9,21.2C22.9,21.2,22.9,21.2,22.9,21.2c0-0.1,0-0.1,0-0.1c0,0,0.1,0.1,0.1,0.1
	C22.9,21.1,22.9,21.2,22.9,21.2z M22.8,21.1C22.8,21.1,22.7,21,22.8,21.1C22.8,21,22.8,21,22.8,21.1c0.1-0.1,0.1-0.1,0.1,0
	C22.8,21,22.8,21,22.8,21.1z M23.1,23.5c-0.1-0.1-0.1-0.1-0.2-0.2c0,0,0,0,0,0C23,23.4,23,23.4,23.1,23.5z M23.8,24.5
	c-0.1-0.1-0.1-0.1-0.2-0.2C23.7,24.3,23.8,24.4,23.8,24.5z M24.7,19.4c-0.2,0.2-0.5,0.4-0.7,0.7c-0.2,0.1-0.3,0.2-0.4,0.3
	c0,0-0.1,0.1-0.2,0.1c0-0.1,0-0.1,0-0.1c0.2-0.2,0.4-0.4,0.5-0.6c0.2-0.2,0.4-0.4,0.6-0.6c0.2-0.1,0.3-0.3,0.5-0.4
	c0.3-0.2,0.5-0.4,0.8-0.7c0.3-0.2,0.5-0.4,0.8-0.6c0,0,0,0,0.1-0.1c-0.1,0.1-0.1,0.1-0.2,0.2c-0.3,0.3-0.5,0.5-0.8,0.7
	c-0.2,0.3-0.5,0.5-0.7,0.7l-0.2,0.2c0,0,0,0,0,0C24.8,19.3,24.8,19.4,24.7,19.4z M18.8,17.2L18.8,17.2
	C18.8,17.2,18.8,17.2,18.8,17.2L18.8,17.2z M18,16.2C18,16.2,17.9,16.2,18,16.2L18,16.2C18,16.2,18,16.2,18,16.2L18,16.2z
	 M16.7,14.6L16.7,14.6l-0.1-0.2L16.7,14.6C16.7,14.5,16.7,14.5,16.7,14.6z M17.3,22.6c0.2-0.2,0.5-0.4,0.7-0.7
	c0.2-0.1,0.3-0.2,0.4-0.3c0,0,0.1-0.1,0.2-0.1c0,0.1,0,0.1,0,0.1c-0.2,0.2-0.4,0.4-0.5,0.6c-0.2,0.2-0.4,0.4-0.6,0.6
	c-0.2,0.1-0.3,0.3-0.5,0.4c-0.3,0.2-0.5,0.4-0.8,0.7c-0.3,0.2-0.5,0.4-0.8,0.6c0,0,0,0-0.1,0.1c0.1-0.1,0.1-0.1,0.2-0.2
	c0.3-0.3,0.5-0.5,0.8-0.7c0.2-0.3,0.5-0.5,0.7-0.7l0.2-0.2c0,0,0,0,0,0C17.2,22.7,17.2,22.6,17.3,22.6z M23.2,24.8L23.2,24.8
	C23.2,24.8,23.2,24.8,23.2,24.8L23.2,24.8z M24,25.8C24,25.8,24.1,25.8,24,25.8L24,25.8C24,25.8,24,25.8,24,25.8L24,25.8z
	 M25.3,27.4L25.3,27.4l0.1,0.2L25.3,27.4C25.3,27.5,25.3,27.5,25.3,27.4z M24.3,22.9c0.1,0.1,0.2,0.2,0.2,0.3
	c-0.1-0.1-0.2-0.1-0.2-0.2c-0.4-0.4-0.7-0.8-1-1.2c0,0,0.1,0,0.1-0.1c0.2,0.2,0.3,0.4,0.4,0.6C24,22.5,24.2,22.7,24.3,22.9z
	 M20.2,17.8c0.2,0.2,0.4,0.4,0.6,0.6c0,0-0.1,0.1-0.1,0.1c-0.1-0.1-0.1-0.1-0.1-0.2c-0.1-0.1-0.2-0.1-0.3-0.1c0-0.1-0.1-0.1-0.1-0.2
	c-0.2-0.2-0.3-0.3-0.4-0.4c-0.2-0.1-0.3-0.2-0.4-0.3c0,0-0.1-0.1-0.1-0.1c-0.1-0.1-0.1-0.1-0.1-0.2c0-0.1-0.1-0.1-0.1-0.2
	c-0.3-0.3-0.5-0.7-0.8-1c-0.2-0.3-0.4-0.6-0.6-0.8c-0.2-0.2-0.4-0.5-0.6-0.8c0.1,0.1,0.2,0.2,0.2,0.3c0.2,0.3,0.5,0.5,0.7,0.8
	c0,0,0.1,0.1,0.1,0.1c0,0,0.1,0.1,0.1,0.1c0.2,0.3,0.4,0.6,0.6,0.8c0.2,0.3,0.4,0.6,0.6,0.8c0.1,0.1,0.2,0.3,0.3,0.4
	c0.1,0.1,0.2,0.2,0.3,0.4l0.2,0.1L20.2,17.8c-0.1,0-0.1-0.1-0.2-0.1L20.2,17.8z M19.8,17.3c0-0.1-0.1-0.1-0.2-0.2
	c0,0-0.1-0.1-0.1-0.1C19.6,17.1,19.7,17.2,19.8,17.3z M14.5,11.2C14.5,11.2,14.5,11.2,14.5,11.2C14.5,11.2,14.5,11.2,14.5,11.2
	L14.5,11.2C14.5,11.2,14.5,11.2,14.5,11.2z M13,10.3c0,0,0.1,0.1,0.1,0.2l-0.2-0.2C13,10.3,13,10.3,13,10.3z M17.7,19.1
	c-0.1-0.1-0.2-0.2-0.2-0.3c0.1,0.1,0.2,0.1,0.2,0.2c0.4,0.4,0.7,0.8,1,1.2c0,0-0.1,0-0.1,0.1c-0.2-0.2-0.3-0.4-0.4-0.6
	C18,19.5,17.8,19.3,17.7,19.1z M21.8,24.2c-0.2-0.2-0.4-0.4-0.6-0.6c0,0,0.1-0.1,0.1-0.1c0.1,0.1,0.1,0.1,0.1,0.2
	c0.1,0.1,0.2,0.1,0.3,0.1c0,0.1,0.1,0.1,0.1,0.2c0.2,0.2,0.3,0.3,0.4,0.4c0.2,0.1,0.3,0.2,0.4,0.3c0,0,0.1,0.1,0.1,0.1
	c0.1,0.1,0.1,0.1,0.1,0.2c0,0.1,0.1,0.1,0.1,0.2c0.3,0.3,0.5,0.7,0.8,1c0.2,0.3,0.4,0.6,0.6,0.8c0.2,0.2,0.4,0.5,0.6,0.8
	c-0.1-0.1-0.2-0.2-0.2-0.3c-0.2-0.3-0.5-0.5-0.7-0.8c0,0-0.1-0.1-0.1-0.1c0,0-0.1-0.1-0.1-0.1c-0.2-0.3-0.4-0.6-0.6-0.8
	c-0.2-0.3-0.4-0.6-0.6-0.8c-0.1-0.1-0.2-0.3-0.3-0.4c-0.1-0.1-0.2-0.2-0.3-0.4l-0.2-0.1L21.8,24.2c0.1,0,0.1,0.1,0.2,0.1L21.8,24.2z
	 M22.2,24.7c0,0.1,0.1,0.1,0.2,0.2c0,0,0.1,0.1,0.1,0.1C22.4,24.9,22.3,24.8,22.2,24.7z M27.5,30.8C27.5,30.8,27.5,30.8,27.5,30.8
	C27.5,30.8,27.5,30.8,27.5,30.8L27.5,30.8C27.5,30.8,27.5,30.8,27.5,30.8z M29,31.7c0,0-0.1-0.1-0.1-0.2l0.2,0.2
	C29,31.7,29,31.7,29,31.7z"/>
</svg>
