<?xml version="1.0" encoding="utf-8"?>
<!-- Generator: Adobe Illustrator 21.1.0, SVG Export Plug-In . SVG Version: 6.00 Build 0)  -->
<svg version="1.1" id="Layer_1" xmlns="http://www.w3.org/2000/svg" xmlns:xlink="http://www.w3.org/1999/xlink" x="0px" y="0px"
	 viewBox="0 0 42 42" style="enable-background:new 0 0 42 42;" xml:space="preserve">
<style type="text/css">
	.st0{fill:#FFFFFF;}
	.st1{fill:#FFFFFF;stroke:#FFFFFF;stroke-width:0;stroke-linecap:round;stroke-linejoin:round;}
</style>
<g>
	<path class="st0" d="M13.8,7.6L13.8,7.6c0.1,0,0.2,0,0.3,0h-0.4c-0.1,0-0.2,0-0.4,0h-1c0.2,0,0.4,0,0.6,0L13.8,7.6z"/>
	<path class="st0" d="M11.8,8c-0.1,0-0.1,0-0.2,0c-0.2,0-0.3,0-0.4,0c0,0,0,0,0,0h0c-0.1,0-0.2,0-0.2,0c0,0-0.1,0.1,0,0.2H11h0.2
		h0.3C11.6,8.2,11.8,8.2,11.8,8z"/>
	<path class="st0" d="M19.4,8.1c0-0.1,0.1-0.1,0.1-0.1h0.1c0,0,0.1,0,0.2-0.1c-0.1-0.1-0.2-0.1-0.4-0.1c-0.1,0-0.2,0-0.4,0
		c0,0.1,0,0.2,0,0.2c0,0,0,0-0.1,0c0,0,0,0-0.1,0c-0.1,0-0.2,0-0.3,0c-0.1,0-0.2,0-0.3,0c-0.1,0-0.2,0-0.2,0c-0.2,0-0.3,0-0.4,0
		c-0.2,0-0.3,0-0.4,0c-0.1,0-0.2,0-0.2,0l-0.1,0.1c0.2,0,0.5,0,0.7,0l0.1,0c0.3,0,0.6,0,0.9,0c0.2,0,0.3,0,0.4,0
		C19.1,8.1,19.3,8.1,19.4,8.1c0.1,0,0.1,0.1,0.1,0.1c0,0,0,0,0,0C19.5,8.1,19.5,8.1,19.4,8.1z"/>
	<path class="st0" d="M12.9,8.1L12.9,8.1c0.2,0.1,0.3,0.1,0.5,0c0.2,0,0.4,0,0.6,0V8c-0.2,0-0.4,0-0.6,0C13.3,8.1,13.1,8.1,12.9,8.1
		z"/>
	<path class="st0" d="M21,8.1C21,8.2,21,8.2,21,8.1c0,0,0.1,0,0.1,0v0H21z"/>
	<path class="st0" d="M13.8,7.6l-0.3,0C13.7,7.6,13.8,7.7,13.8,7.6c0.1,0.1,0.2,0,0.2,0C14,7.6,14,7.6,13.8,7.6L13.8,7.6z"/>
	<path class="st0" d="M35.8,4.2c0,0,0.1,0,0.2,0C35.8,4.2,35.7,4.1,35.8,4.2c-0.1-0.1-0.2,0-0.2,0C35.6,4.2,35.7,4.3,35.8,4.2z"/>
	<path class="st0" d="M6.2,7.6c0,0-0.1,0-0.2,0C6.2,7.6,6.3,7.7,6.2,7.6c0.1,0.1,0.2,0,0.2,0C6.4,7.6,6.3,7.6,6.2,7.6z"/>
	<path class="st0" d="M21.8,8.1c-0.1,0-0.1,0-0.2,0v0.1c0,0,0.1,0,0.1,0C21.8,8.2,21.8,8.1,21.8,8.1z"/>
	<path class="st0" d="M7.9,7.1c-0.2,0-0.2,0-0.4,0c-0.1,0-0.2,0-0.3-0.1H7.1C7,7,6.9,7,6.8,7c-0.1,0-0.2,0-0.2,0H6.5
		C6.4,7,6.3,7,6.4,7.1c0.1,0,0.2,0.1,0.5,0.1h0c0.2,0,0.6,0,1.3,0H7.9z"/>
	<path class="st0" d="M29.1,3.8L29.1,3.8c-0.2-0.1-0.3-0.1-0.5,0c-0.2,0-0.4,0-0.6,0v0.1c0.2,0,0.4,0,0.6,0
		C28.7,3.7,28.9,3.7,29.1,3.8z"/>
	<path class="st0" d="M15.2,7.6c0,0-0.1,0-0.1,0C15.2,7.6,15.2,7.6,15.2,7.6C15.2,7.6,15.2,7.6,15.2,7.6z"/>
	<path class="st0" d="M34.1,4.7c0.2,0,0.2,0,0.4,0c0.1,0,0.2,0,0.3,0.1h0.1c0.1,0,0.2,0,0.2,0c0.1,0,0.2,0,0.2,0h0.1
		c0.1,0,0.2,0,0.1-0.1c-0.1,0-0.2-0.1-0.5-0.1c-0.2,0-0.6,0-1.3,0H34.1z"/>
	<path class="st0" d="M14.1,7.6C14.1,7.6,14.1,7.6,14.1,7.6c0,0.1-0.1,0.2,0,0.2c0.1,0,0.1,0,0.2,0c0-0.1,0.1-0.1,0.1-0.2h0.6
		c0.2,0,0.4,0,0.6,0c-0.1,0-0.3,0-0.4,0.1c-0.1,0-0.2,0-0.4,0c0,0,0-0.1-0.1,0c0,0-0.1,0-0.2,0.1v0c0.2,0,0.5,0,0.8,0
		c0.3,0,0.6,0,0.8,0c0,0,0-0.1,0,0l0,0c0-0.1,0,0,0,0c0,0,0,0,0-0.1c0,0,0-0.1,0.1,0c0,0,0.1,0,0.2,0H17c0.2,0,0.5,0,0.8,0H18
		c0.1,0,0.2,0,0.2,0c0,0-0.1,0-0.2,0c-0.2,0-0.3,0-0.4,0h-0.5c-0.2,0-0.7,0-0.7,0h-0.7c-0.1,0-0.3,0-0.4,0.1c0.1,0,0.1,0,0.2,0
		c-0.1,0-0.2,0-0.2,0c0,0-0.2,0-0.2,0c0,0,0.1,0,0.1,0c-0.1,0-0.3,0-0.4,0L14.1,7.6L14.1,7.6C14.2,7.6,14.1,7.6,14.1,7.6z"/>
	<path class="st0" d="M27.9,4.2C27.9,4.2,27.9,4.2,27.9,4.2c0-0.1,0.1-0.2,0-0.2c-0.1,0-0.1,0-0.2,0c0,0.1-0.1,0.1-0.1,0.2h-0.6
		c-0.2,0-0.4,0-0.6,0c0.1,0,0.3,0,0.4-0.1c0.1,0,0.2,0,0.4,0c0,0,0,0.1,0.1,0c0,0,0.1,0,0.2-0.1v0c-0.2,0-0.5,0-0.8,0
		c-0.3,0-0.6,0-0.8,0c0,0,0,0.1,0,0l0,0c0,0.1,0,0,0,0c0,0,0,0,0,0.1c0,0,0,0.1-0.1,0c0,0-0.1,0-0.2,0H25c-0.2,0-0.5,0-0.8,0H24
		c-0.1,0-0.2,0-0.2,0c0,0,0.1,0,0.2,0c0.2,0,0.3,0,0.4,0h0.5c0.2,0,0.7,0,0.7,0h0.7c0.1,0,0.3,0,0.4-0.1c-0.1,0-0.1,0-0.2,0
		c0.1,0,0.2,0,0.2,0c0,0,0.2,0,0.2,0c0,0-0.1,0-0.1,0c0.1,0,0.3,0,0.4,0L27.9,4.2L27.9,4.2C27.8,4.2,27.9,4.2,27.9,4.2z"/>
	<path class="st0" d="M28.2,4.2l0.3,0C28.3,4.2,28.2,4.1,28.2,4.2c-0.1-0.1-0.2,0-0.2,0C28,4.2,28,4.2,28.2,4.2L28.2,4.2z"/>
	<path class="st0" d="M33.2,4.4h-0.1l-0.8,0h1c0.1,0,0.1,0,0.2,0c0.1,0,0.1,0,0.1,0c0-0.1-0.1-0.1-0.1-0.1c0,0,0,0-0.1,0
		c0,0-0.1,0-0.1,0C33.3,4.3,33.3,4.3,33.2,4.4z"/>
	<path class="st0" d="M26.8,4.3c0,0,0.1,0,0.1,0C26.8,4.3,26.8,4.3,26.8,4.3C26.8,4.3,26.8,4.3,26.8,4.3z"/>
	<path class="st0" d="M31,4.4c0,0-0.1,0-0.1,0L31,4.4c0.4,0,0.8,0,1.2,0h0.1c-0.2,0-0.5,0-0.7,0C31.3,4.4,31.2,4.4,31,4.4z"/>
	<path class="st0" d="M20.2,3.7c0.1,0,0.1,0,0.2,0V3.6c0,0-0.1,0-0.1,0C20.2,3.7,20.2,3.7,20.2,3.7z"/>
	<path class="st0" d="M21,3.7C21,3.7,21,3.7,21,3.7c0,0-0.1,0-0.1,0v0H21z"/>
	<path class="st0" d="M8.8,7.5h0.1l0.8,0h-1c-0.1,0-0.1,0-0.2,0c-0.1,0-0.1,0-0.1,0c0,0.1,0.1,0.1,0.1,0.1c0,0,0,0,0.1,0
		c0,0,0.1,0,0.1,0C8.7,7.5,8.7,7.5,8.8,7.5z"/>
	<path class="st0" d="M28.2,4.2L28.2,4.2c-0.1,0-0.2,0-0.3,0h0.4c0.1,0,0.2,0,0.4,0h1c-0.2,0-0.4,0-0.6,0L28.2,4.2z"/>
	<path class="st0" d="M11,7.4c0,0,0.1,0,0.1,0L11,7.4c-0.4,0-0.8,0-1.2,0H9.7c0.2,0,0.5,0,0.7,0C10.7,7.4,10.8,7.4,11,7.4z"/>
	<path class="st0" d="M22.6,3.8c0,0.1-0.1,0.1-0.1,0.1h-0.1c0,0-0.1,0-0.2,0.1c0.1,0.1,0.2,0.1,0.4,0.1s0.2,0,0.4,0
		c0-0.1,0-0.2,0-0.2c0,0,0,0,0.1,0c0,0,0,0,0.1,0c0.1,0,0.2,0,0.3,0c0.1,0,0.2,0,0.3,0c0.1,0,0.2,0,0.2,0c0.2,0,0.3,0,0.4,0
		c0.2,0,0.3,0,0.4,0c0.1,0,0.2,0,0.2,0l0.1-0.1c-0.2,0-0.5,0-0.7,0l-0.1,0c-0.3,0-0.6,0-0.9,0c-0.2,0-0.3,0-0.4,0
		C22.9,3.7,22.7,3.7,22.6,3.8c-0.1,0-0.1-0.1-0.1-0.1c0,0,0,0,0,0C22.5,3.7,22.5,3.8,22.6,3.8z"/>
	<path class="st0" d="M30.2,3.8c0.1,0,0.1,0,0.2,0c0.2,0,0.3,0,0.4,0c0,0,0,0,0,0h0c0.1,0,0.2,0,0.2,0s0.1-0.1,0-0.2H31h-0.2h-0.3
		C30.4,3.7,30.2,3.7,30.2,3.8z"/>
	<path class="st0" d="M22.9,6.3C22.9,6.3,22.9,6.3,22.9,6.3c0,0-0.1,0-0.1,0c0,0,0,0-0.1,0c0,0,0,0,0,0C22.8,6.3,22.8,6.3,22.9,6.3z
		"/>
	<path class="st0" d="M11.4,7.4c0,0,0.1,0,0.1,0c0.1,0,0.1,0,0.2,0L11.4,7.4z"/>
	<path class="st0" d="M17.9,6.3h-0.2C17.8,6.3,17.9,6.3,17.9,6.3C17.9,6.3,17.9,6.3,17.9,6.3z"/>
	<path class="st0" d="M12,7.4h0.3c0.2,0,0.3,0,0.4,0l1.3-0.1c-0.3,0-0.6,0-0.9,0L12,7.4z"/>
	<path class="st0" d="M13,3.3L13,3.3L13,3.3c0-0.1-0.1-0.1-0.2-0.1c0,0-0.1,0-0.2,0.1v0C12.8,3.3,13,3.3,13,3.3z"/>
	<path class="st0" d="M11.5,3.6C11.5,3.6,11.4,3.6,11.5,3.6l0.2,0.1C11.6,3.7,11.5,3.7,11.5,3.6z"/>
	<path class="st0" d="M13.6,3.3c0.1,0,0.2,0,0.2,0v0L13.6,3.3c-0.1-0.1-0.1-0.1-0.1-0.1h0c0,0-0.1,0-0.1,0l0,0H13.6z"/>
	<path class="st0" d="M19.3,7.2c-0.1,0-0.2,0-0.3,0c-0.1,0-0.2,0-0.3,0c-0.1,0-0.2,0-0.4,0c-0.1,0-0.2,0-0.3,0
		c-0.2-0.1-0.5-0.1-0.7,0c-0.2,0.1-0.2,0.1-0.4,0.1c-0.3,0-0.6,0-1,0c-0.3,0-0.6,0-1,0h-0.9c0.4,0,0.8,0,1.1,0c0.4,0,0.8,0,1.1,0
		h0.5c0.2,0,0.4,0,0.6,0h0.9c0.3,0,0.6,0,1,0c0.1,0,0.2,0,0.3,0h0.5c0,0,0-0.1,0-0.2c-0.1,0-0.1,0-0.2,0C19.7,7.3,19.5,7.3,19.3,7.2
		z"/>
	<path class="st0" d="M21.9,6.2C21.9,6.2,21.8,6.2,21.9,6.2c-0.1,0-0.1,0-0.1,0c0,0,0,0,0,0c0,0,0,0,0,0c0,0,0,0,0,0
		c0,0,0.1,0,0.1,0C21.8,6.3,21.9,6.2,21.9,6.2z"/>
	<path class="st0" d="M30.5,8.2C30.5,8.2,30.6,8.2,30.5,8.2l-0.2-0.1C30.4,8.1,30.5,8.1,30.5,8.2z"/>
	<path class="st0" d="M19.1,5.5C19.1,5.5,19.1,5.5,19.1,5.5c0,0,0.1,0,0.1,0c0,0,0,0,0.1,0c0,0,0,0,0,0C19.2,5.5,19.2,5.5,19.1,5.5z
		"/>
	<path class="st0" d="M28.4,8.5c-0.1,0-0.2,0-0.2,0v0L28.4,8.5c0.1,0.1,0.1,0.1,0.1,0.1h0c0,0,0.1,0,0.1,0l0,0H28.4z"/>
	<path class="st0" d="M24.2,7.5c-0.2,0-0.4,0-0.6,0s-0.4-0.1-0.6-0.1h-0.2c0,0,0,0.1,0,0.2c0.3,0,0.7,0,1,0c0.4,0,0.8,0,1.3,0.1
		l0-0.1l-0.2,0C24.6,7.5,24.4,7.5,24.2,7.5z"/>
	<path class="st0" d="M21.7,7.3C21.7,7.4,21.7,7.4,21.7,7.3c0,0.1,0,0.1,0.1,0.1c0,0,0-0.1,0-0.1C21.8,7.3,21.8,7.3,21.7,7.3z"/>
	<path class="st0" d="M17.8,4.4c0.2,0,0.4,0,0.6,0c0.2,0,0.4,0.1,0.6,0.1h0.2c0,0,0-0.1,0-0.2c-0.3,0-0.7,0-1,0
		c-0.4,0-0.8,0-1.3-0.1l0,0.1l0.2,0C17.4,4.4,17.6,4.3,17.8,4.4z"/>
	<path class="st0" d="M29,8.5L29,8.5L29,8.5c0,0.1,0.1,0.1,0.2,0.1c0,0,0.1,0,0.2-0.1v0C29.2,8.5,29,8.5,29,8.5z"/>
	<path class="st0" d="M30,4.4h-0.3c-0.2,0-0.3,0-0.4,0l-1.3,0.1c0.3,0,0.6,0,0.9,0L30,4.4z"/>
	<path class="st0" d="M30.6,4.4c0,0-0.1,0-0.1,0c-0.1,0-0.1,0-0.2,0L30.6,4.4z"/>
	<path class="st0" d="M24.1,5.5h0.2C24.2,5.5,24.1,5.5,24.1,5.5C24.1,5.5,24.1,5.5,24.1,5.5z"/>
	<path class="st0" d="M21.2,5.6L21.2,5.6C21.3,5.6,21.3,5.6,21.2,5.6L21.2,5.6C21.3,5.6,21.3,5.6,21.2,5.6z"/>
	<path class="st0" d="M20.7,6.2C20.7,6.3,20.7,6.2,20.7,6.2L20.7,6.2C20.7,6.2,20.7,6.2,20.7,6.2L20.7,6.2z"/>
	<path class="st0" d="M21.4,4.4c-0.1,0-0.1,0-0.1,0c0,0,0,0.1,0,0.2c0.1,0,0.1,0,0.2,0V4.4z"/>
	<path class="st0" d="M20.3,4.5C20.3,4.4,20.3,4.4,20.3,4.5c0-0.1,0-0.1-0.1-0.1c0,0,0,0.1,0,0.1C20.2,4.5,20.2,4.5,20.3,4.5z"/>
	<path class="st0" d="M20.8,7.3c-0.1,0-0.1,0-0.2,0v0.2c0.1,0,0.1,0,0.1,0C20.8,7.4,20.8,7.3,20.8,7.3z"/>
	<path class="st0" d="M20.1,5.6C20.1,5.6,20.2,5.6,20.1,5.6c0.1,0,0.1,0,0.1,0c0,0,0,0,0,0c0,0,0,0,0,0c0,0,0,0,0,0c0,0-0.1,0-0.1,0
		C20.2,5.6,20.1,5.6,20.1,5.6z"/>
	<path class="st0" d="M22.7,4.6c0.1,0,0.2,0,0.3,0c0.1,0,0.2,0,0.3,0c0.1,0,0.2,0,0.4,0c0.1,0,0.2,0,0.3,0c0.2,0.1,0.5,0.1,0.7,0
		c0.2-0.1,0.2-0.1,0.4-0.1c0.3,0,0.6,0,1,0c0.3,0,0.6,0,1,0h0.9c-0.4,0-0.8,0-1.1,0c-0.4,0-0.8,0-1.1,0h-0.5c-0.2,0-0.4,0-0.6,0
		h-0.9c-0.3,0-0.6,0-1,0c-0.1,0-0.2,0-0.3,0h-0.5c0,0,0,0.1,0,0.2c0.1,0,0.1,0,0.2,0C22.3,4.5,22.5,4.5,22.7,4.6z"/>
	<line class="st1" x1="31" y1="3.7" x2="30.8" y2="3.7"/>
	<path class="st0" d="M33.5,4.3C33.5,4.3,33.5,4.3,33.5,4.3C33.5,4.3,33.5,4.3,33.5,4.3C33.5,4.3,33.5,4.3,33.5,4.3z"/>
	<path class="st0" d="M23,3.7c0.1,0,0.3,0,0.4,0c0.3,0,0.6,0,0.9,0l0.1,0c-0.2,0-0.5,0-0.7,0c-0.4,0-0.9,0-1.4,0c0.1,0,0.1,0,0.1,0
		c0,0,0.1,0,0.1,0C22.7,3.7,22.9,3.7,23,3.7z"/>
	<path class="st0" d="M26.7,4.2c0,0-0.1,0-0.2,0C26.6,4.3,26.7,4.2,26.7,4.2c0.1,0.1,0.1,0.1,0.1,0.1c0,0,0.1,0,0.1,0
		C26.9,4.2,26.8,4.2,26.7,4.2z"/>
	<path class="st0" d="M28.2,4.2L28.2,4.2c-0.2,0-0.2,0-0.2,0c0,0-0.1,0-0.1,0v0C27.9,4.3,28,4.2,28.2,4.2L28.2,4.2z"/>
	<path class="st0" d="M20.3,3.6c0,0-0.1,0-0.2,0c0,0,0,0,0,0C20.2,3.6,20.3,3.6,20.3,3.6L20.3,3.6z"/>
	<path class="st0" d="M21,3.6c0,0-0.1,0-0.2,0v0.1C20.9,3.6,21,3.6,21,3.6C21,3.6,21,3.6,21,3.6z"/>
	<line class="st1" x1="34.6" y1="4.1" x2="34.5" y2="4.1"/>
	<path class="st1" d="M15.4,3.6L15.4,3.6c0.1,0,0.1,0,0.1,0"/>
	<path class="st1" d="M19.5,3.9C19.5,3.9,19.6,3.9,19.5,3.9"/>
	<line class="st1" x1="19.9" y1="4.5" x2="19.9" y2="4.4"/>
	<path class="st1" d="M29.4,3.8C29.4,3.8,29.4,3.8,29.4,3.8C29.4,3.7,29.4,3.7,29.4,3.8"/>
	<line class="st1" x1="11" y1="8.1" x2="11.2" y2="8.1"/>
	<path class="st0" d="M21.7,8.3c0,0,0.1,0,0.2,0c0,0,0,0,0,0C21.8,8.2,21.7,8.2,21.7,8.3L21.7,8.3z"/>
	<path class="st0" d="M21,8.2c0,0,0.1,0,0.2,0V8.2C21.1,8.2,21,8.2,21,8.2C21,8.2,21,8.2,21,8.2z"/>
	<path class="st0" d="M38.9,5.5c0,0-0.1-0.1-0.1-0.3l-1.4,0.1c0,0-0.1,0-0.2,0c0,0,0,0-0.1,0h-1.5c-0.1,0-0.2,0-0.2,0h-0.6
		c-0.2,0-0.2,0-0.4,0.1c-0.2,0-0.3,0-0.4,0h-1.2l-0.2,0h-0.2c0,0-0.2,0-0.2,0c-0.3,0-0.5,0-0.8,0c-0.3,0-0.5,0-0.8,0
		c0,0-0.1,0-0.2,0c-0.1,0-0.3,0-0.4,0c-0.2,0-0.3,0-0.4,0c0,0-0.2,0-0.2,0c0,0-0.2,0-0.2,0h0c0,0,0,0-0.1,0c-0.2,0-0.3,0-0.4,0H28
		c-0.1,0-0.2,0-0.3,0c-0.1,0-0.2,0-0.3,0c0,0-0.2,0-0.2,0c-0.1,0-0.2,0-0.2,0h-0.4c-0.2,0-0.2,0-0.4-0.1c0,0-0.1,0-0.2,0
		c-0.1,0-0.2,0-0.3,0c-0.1,0-0.2,0-0.3,0.1c-0.1,0.1-0.3,0.1-0.4,0c0,0-0.2-0.1-0.3,0c0,0,0,0.1,0,0c0,0,0.1,0,0.1,0.1
		c-0.1,0-0.2,0-0.3,0c0,0,0.1-0.1,0.1-0.1c-0.2,0-0.3-0.1-0.4,0c-0.2,0-0.3,0-0.4,0h-0.5c-0.2,0-0.3,0-0.4,0c-0.2,0-0.3,0-0.4,0
		c-0.2,0-0.3,0-0.4,0V5.3c0.4,0,0.8,0,1.3,0c0.6,0,1.2,0,1.8,0c0.6,0,1.3,0,1.9,0h1.9c0,0,0.1,0,0.2,0c0.2,0.1,0.2,0.1,0.4,0.1
		c0,0,0.2,0,0.3-0.1c0,0-0.1,0-0.2,0c0.2,0,0.4,0,0.6,0c0.3,0,0.5,0,0.8-0.1l0,0c0.2,0,0.2,0,0.4,0h0.4c0.4,0,0.7,0,1.1,0
		c0.4,0,0.7,0,1.1,0h3c0,0,0,0,0,0l0,0c0,0,0,0-0.1,0c0,0,0,0-0.1,0h-0.2c-0.1,0-0.2,0-0.2,0h-0.2c0,0-0.1,0-0.1,0c0,0-0.1,0-0.1,0
		l0.2-0.2c0,0,0.2,0,0.2,0c0.2,0,0.3,0,0.4,0h0.4c0.2,0,0.2,0,0.4,0c0.1,0,0.2,0,0.4-0.1c-0.6,0-1.3-0.1-1.9-0.1
		c-0.6,0-1.3,0-1.9-0.1c0.5,0,0.9,0,1.4,0c0.4,0,0.9,0,1.4,0c-0.2,0-0.2,0-0.2,0c0,0-0.2,0-0.2,0c0,0-0.1,0-0.1,0c0,0-0.1,0-0.2-0.1
		c0.2,0,0.4,0,0.5,0h1.8c0,0,0.1,0,0.2,0c0.1,0,0.1,0,0.2,0c-0.2,0-0.5-0.1-0.8,0c-0.2,0-0.4,0-0.6,0H37c-0.4,0-0.7,0-1.1-0.1
		c-0.4,0-0.7,0-1.1,0c-0.2,0-0.3,0-0.4,0c-0.2,0-0.3,0-0.4,0h-0.1l0,0c-0.1,0-0.1,0.1-0.1,0.1c0,0.1-0.1,0.1-0.1,0.1
		c0,0,0.1,0,0.1,0.1c0,0,0,0-0.1,0c0,0-0.1,0-0.2,0h-1h-0.1c-0.4,0-0.7,0-1.1,0l-0.2,0c0,0,0.1,0,0.1,0c0.2,0,0.3,0,0.6,0
		c0.2,0,0.5,0,0.7,0l0.8,0h0.1c0,0,0.1,0,0.1,0c0,0,0.1,0,0.1,0c0,0,0,0,0,0h-0.3c0,0-0.2,0-0.2,0c-0.1,0-0.2,0-0.2,0
		c0,0,0-0.1,0.1-0.1c0,0,0,0,0-0.1c0,0-0.2,0-0.3,0h-0.2H32h-0.8v0l-0.1,0h-0.6c-0.2,0-0.3,0-0.4,0.1c0,0,0.2,0.1,0.2,0
		c0,0,0.2,0,0.2,0l0,0c-0.2,0-0.3,0-0.4,0l-0.5,0l0,0l0,0h0.1c0,0,0,0,0,0c0,0,0,0,0,0h-0.2h-1c-0.2,0-0.2,0-0.4,0h-0.4h-0.5
		c-0.1,0-0.3,0-0.4,0c0,0-0.1,0-0.1,0c0,0,0,0,0,0c-0.1,0-0.3,0-0.4,0.1h-0.7c0,0-0.5,0-0.7,0h-0.5c-0.2,0-0.3,0-0.4,0
		c0,0-0.1,0-0.2,0c0,0,0.1,0,0.2,0h0.2c0.2,0,0.5,0,0.8,0h0.8c0,0,0.1,0,0.2,0c0,0,0,0,0.1,0c0,0,0,0,0-0.1c0,0,0,0,0,0l0,0
		c0,0,0,0,0,0c0.3,0,0.6,0,0.8,0c0.3,0,0.6,0,0.8,0v0c-0.1,0-0.2,0-0.2,0.1c0,0,0,0-0.1,0c-0.2,0-0.3,0-0.4,0
		c-0.1,0-0.2,0.1-0.4,0.1c0.2,0,0.4,0,0.6,0h0.6c0,0,0.1-0.1,0.1-0.2c0,0,0.1,0,0.2,0c0,0,0,0.1,0,0.2c0,0,0,0,0,0
		c0.1,0,0.1,0,0.2-0.1c0,0,0.2,0,0.3,0l-0.3,0l0.9,0c0.2,0,0.4,0,0.6,0c0.1,0,0.2,0,0.2,0c0,0,0.1,0,0.2-0.1L30,3.9c0,0,0,0,0,0h0
		c0.2,0,0.3,0,0.4,0c0.2,0,0.3,0,0.4,0h0.4c0,0,0.2,0,0.2-0.1l0,0c0,0-0.1,0-0.1,0l0,0c0,0.1-0.1,0.2-0.1,0.1c0,0,0,0-0.1,0
		c-0.1-0.1-0.2-0.2-0.4-0.2h0.2c0,0.1,0,0.2,0,0.2s-0.2,0-0.2,0h0c0,0,0,0,0,0c-0.2,0-0.3,0-0.4,0c-0.1,0-0.1,0-0.2,0
		c0.1-0.1,0.2-0.1,0.4-0.1h0.3c-0.4,0-0.6,0-0.9,0l-0.9,0l-1.6,0c-0.1,0-0.2,0-0.3,0c-0.1,0-0.2,0-0.3,0c-0.2,0-0.5,0-0.7,0
		c-0.2,0-0.5,0-0.7,0l-0.8,0c0.2,0,0.5,0,0.7,0l-0.1,0.1c-0.1,0-0.2,0-0.2,0c-0.1,0-0.3,0-0.4,0c-0.1,0-0.3,0-0.4,0
		c-0.1,0-0.2,0-0.2,0c-0.1,0-0.2,0-0.3,0c-0.1,0-0.2,0-0.3,0c0,0,0,0-0.1,0c0,0,0,0-0.1,0c0,0,0,0.1,0,0.2c-0.2,0-0.3,0-0.4,0
		s-0.2,0-0.4-0.1c0.1,0,0.1-0.1,0.2-0.1h0.1c0,0,0.1,0,0.1-0.1c0,0-0.1,0-0.1,0c0,0,0,0,0,0c0,0-0.1,0-0.1,0c-0.1,0-0.3,0-0.4,0
		h-0.6c-0.1,0-0.1,0-0.2,0c0,0,0,0,0,0h-0.1v0c-0.2,0-0.4,0-0.6,0v0.1c0,0-0.1,0-0.2,0c0,0,0-0.1,0-0.1c-0.3,0-0.6,0-0.9-0.1
		c0,0,0,0,0,0c0,0,0.1,0.1,0.1,0c0,0,0,0,0,0.1c-0.4,0-0.8,0-1.1-0.1c-0.4,0-0.8,0-1.2-0.1c-0.2,0-0.5,0-0.8,0c-0.2,0-0.5,0-0.7-0.1
		c-0.2,0-0.3,0-0.4,0h-0.4c0,0,0,0-0.1,0c0,0,0,0,0,0c0,0,0.1-0.1,0.1-0.1c0.2,0,0.4,0,0.6,0H16c0.2,0,0.2,0,0.4,0h0.4
		c0.2,0,0.5,0,0.8,0c0.2,0,0.5,0,0.7,0c0.2,0,0.2,0,0.4,0h0.4l0.1,0h0c-0.1-0.1-0.2-0.1-0.3-0.1c-0.1,0-0.2,0-0.3,0
		c-0.3,0-0.6-0.1-0.9-0.1c-0.3,0-0.6-0.1-0.9-0.1c-0.4,0-0.8,0-1.2-0.1h-1.1c-0.2,0-0.3,0-0.5,0h-0.5c-0.2,0-0.4,0-0.6,0H12
		c-0.6,0-1.2,0.1-1.7,0.2L8.6,3.3c-0.5,0-1,0.1-1.6,0.3c-0.2,0-0.4,0.1-0.6,0.1C6.1,3.8,5.9,3.9,5.7,3.9C5.5,3.9,5.2,4,4.9,4
		C4.8,4.1,4.7,4.1,4.6,4.2c0,0-0.1,0-0.1,0.1c0,0-0.1,0-0.2,0H4.2c-0.1,0-0.2,0-0.2,0c0,0-0.1,0-0.2,0c0,0-0.1,0-0.1,0.1h0
		c0,0,0,0.1,0,0.1c0,0,0,0.1,0,0.1C3.7,4.8,3.7,4.9,3.7,4.9c0,0,0,0.1,0.1,0.2c0,0-0.1,0-0.2,0c0,0-0.1,0-0.2,0.1
		c-0.1,0-0.2,0.1-0.2,0.1c0,0.1-0.1,0.2-0.2,0.3C3,5.8,3,5.9,3.1,6.1c0,0.1,0.1,0.2,0.1,0.3c0,0,0.1,0.1,0.1,0.3l1.4-0.1
		c0,0,0.1,0,0.2,0c0,0,0,0,0.1,0h1.5c0.1,0,0.2,0,0.2,0h0.6c0.2,0,0.2,0,0.4-0.1c0.2,0,0.3,0,0.4,0h1.2l0.2,0h0.2c0,0,0.2,0,0.2,0
		c0.3,0,0.5,0,0.8,0c0.3,0,0.5,0,0.8,0c0,0,0.1,0,0.2,0c0.1,0,0.3,0,0.4,0c0.2,0,0.3,0,0.4,0c0,0,0.2,0,0.2,0c0,0,0.2,0,0.2,0h0
		c0,0,0,0,0.1,0c0.2,0,0.3,0,0.4,0H14c0.1,0,0.2,0,0.3,0c0.1,0,0.2,0,0.3,0c0,0,0.2,0,0.2,0c0.1,0,0.2,0,0.2,0h0.4
		c0.2,0,0.2,0,0.4,0.1c0,0,0.1,0,0.2,0c0.1,0,0.2,0,0.3,0c0.1,0,0.2,0,0.3-0.1c0.1-0.1,0.3-0.1,0.4,0c0,0,0.2,0.1,0.3,0
		c0,0,0-0.1,0,0c0,0-0.1,0-0.1-0.1c0.1,0,0.2,0,0.3,0c0,0-0.1,0.1-0.1,0.1c0.2,0,0.3,0.1,0.4,0c0.2,0,0.3,0,0.4,0h0.5
		c0.2,0,0.3,0,0.4,0c0.2,0,0.3,0,0.4,0c0.2,0,0.3,0,0.4,0v0.1c-0.4,0-0.8,0-1.3,0c-0.6,0-1.2,0-1.8,0c-0.6,0-1.3,0-1.9,0h-1.9
		c0,0-0.1,0-0.2,0c-0.2-0.1-0.2-0.1-0.4-0.1c0,0-0.2,0-0.3,0.1c0,0,0.1,0,0.2,0c-0.2,0-0.4,0-0.6,0c-0.3,0-0.5,0-0.8,0.1l0,0
		c-0.2,0-0.2,0-0.4,0h-0.4c-0.4,0-0.7,0-1.1,0c-0.4,0-0.7,0-1.1,0h-3c0,0,0,0,0,0l0,0c0,0,0,0,0.1,0c0,0,0,0,0.1,0h0.2
		c0.1,0,0.2,0,0.2,0h0.2c0,0,0.1,0,0.1,0c0,0,0.1,0,0.1,0L5.8,7.1c0,0-0.2,0-0.2,0c-0.2,0-0.3,0-0.4,0H4.7c-0.2,0-0.2,0-0.4,0
		c-0.1,0-0.2,0-0.4,0.1c0.6,0,1.3,0.1,1.9,0.1c0.6,0,1.3,0,1.9,0.1c-0.5,0-0.9,0-1.4,0c-0.4,0-0.9,0-1.4,0c0.2,0,0.2,0,0.2,0
		c0,0,0.2,0,0.2,0c0,0,0.1,0,0.1,0c0,0,0.1,0,0.2,0.1c-0.2,0-0.4,0-0.5,0H3.4c0,0-0.1,0-0.2,0c-0.1,0-0.1,0-0.2,0
		c0.2,0,0.5,0.1,0.8,0c0.2,0,0.4,0,0.6,0H5c0.4,0,0.7,0,1.1,0.1c0.4,0,0.7,0,1.1,0c0.2,0,0.3,0,0.4,0c0.2,0,0.3,0,0.4,0h0.1l0,0
		c0.1,0,0.1-0.1,0.1-0.1c0-0.1,0.1-0.1,0.1-0.1c0,0-0.1,0-0.1-0.1c0,0,0,0,0.1,0c0,0,0.1,0,0.2,0h1h0.1c0.4,0,0.7,0,1.1,0l0.2,0
		c0,0-0.1,0-0.1,0c-0.2,0-0.3,0-0.6,0c-0.2,0-0.5,0-0.7,0l-0.8,0H8.8c0,0-0.1,0-0.1,0c0,0-0.1,0-0.1,0c0,0,0,0,0,0h0.3
		c0,0,0.2,0,0.2,0c0.1,0,0.2,0,0.2,0c0,0,0,0.1-0.1,0.1c0,0,0,0,0,0.1c0,0,0.2,0,0.3,0h0.2H10h0.8v0l0.1,0h0.6c0.2,0,0.3,0,0.4-0.1
		c0,0-0.2-0.1-0.2,0c0,0-0.2,0-0.2,0l0,0c0.2,0,0.3,0,0.4,0l0.5,0l0,0l0,0h-0.1c0,0,0,0,0,0c0,0,0,0,0,0h0.2h1c0.2,0,0.2,0,0.4,0
		h0.4h0.5c0.1,0,0.3,0,0.4,0c0,0,0.1,0,0.1,0c0,0,0,0,0,0c0.1,0,0.3,0,0.4-0.1h0.7c0,0,0.5,0,0.7,0h0.5c0.2,0,0.3,0,0.4,0
		c0,0,0.1,0,0.2,0c0,0-0.1,0-0.2,0h-0.2c-0.2,0-0.5,0-0.8,0h-0.8c0,0-0.1,0-0.2,0c0,0,0,0-0.1,0c0,0,0,0,0,0.1c0,0,0,0,0,0l0,0
		c0,0,0,0,0,0c-0.3,0-0.6,0-0.8,0c-0.3,0-0.6,0-0.8,0v0c0.1,0,0.2,0,0.2-0.1c0,0,0,0,0.1,0c0.2,0,0.3,0,0.4,0c0.1,0,0.2-0.1,0.4-0.1
		c-0.2,0-0.4,0-0.6,0h-0.6c0,0-0.1,0.1-0.1,0.2c0,0-0.1,0-0.2,0c0,0,0-0.1,0-0.2c0,0,0,0,0,0c-0.1,0-0.1,0-0.2,0.1c0,0-0.2,0-0.3,0
		l0.3,0l-0.9,0c-0.2,0-0.4,0-0.6,0c-0.1,0-0.2,0-0.2,0c0,0-0.1,0-0.2,0.1L12,7.9c0,0,0,0,0,0h0c-0.2,0-0.3,0-0.4,0
		c-0.2,0-0.3,0-0.4,0h-0.4c0,0-0.2,0-0.2,0.1l0,0c0,0,0.1,0,0.1,0l0,0c0-0.1,0.1-0.2,0.1-0.1c0,0,0,0,0.1,0c0.1,0.1,0.2,0.2,0.4,0.2
		h-0.2c0-0.1,0-0.2,0-0.2c0,0,0.2,0,0.2,0h0c0,0,0,0,0,0c0.2,0,0.3,0,0.4,0c0.1,0,0.1,0,0.2,0c-0.1,0.1-0.2,0.1-0.4,0.1h-0.3
		c0.4,0,0.6,0,0.9,0l0.9,0l1.6,0c0.1,0,0.2,0,0.3,0c0.1,0,0.2,0,0.3,0c0.2,0,0.5,0,0.7,0c0.2,0,0.5,0,0.7,0l0.8,0
		c-0.2,0-0.5,0-0.7,0L16.9,8c0.1,0,0.2,0,0.2,0c0.1,0,0.3,0,0.4,0c0.1,0,0.3,0,0.4,0c0.1,0,0.2,0,0.2,0c0.1,0,0.2,0,0.3,0
		c0.1,0,0.2,0,0.3,0c0,0,0,0,0.1,0c0,0,0,0,0.1,0c0,0,0-0.1,0-0.2c0.2,0,0.3,0,0.4,0c0.1,0,0.2,0,0.4,0.1c-0.1,0-0.1,0.1-0.2,0.1
		h-0.1c0,0-0.1,0-0.1,0.1c0,0,0.1,0,0.1,0c0,0,0,0,0,0c0,0,0.1,0,0.1,0c0.1,0,0.3,0,0.4,0h0.6c0.1,0,0.1,0,0.2,0c0,0,0,0,0,0h0.1v0
		c0.2,0,0.4,0,0.6,0V8.1c0,0,0.1,0,0.2,0c0,0,0,0.1,0,0.1c0.3,0,0.6,0,0.9,0.1c0,0,0,0,0,0c0,0-0.1-0.1-0.1,0c0,0,0,0,0-0.1
		c0.4,0,0.8,0,1.1,0.1c0.4,0,0.8,0,1.2,0.1c0.2,0,0.5,0,0.8,0c0.2,0,0.5,0,0.7,0.1c0.2,0,0.3,0,0.4,0h0.4c0,0,0,0,0.1,0c0,0,0,0,0,0
		c0,0-0.1,0.1-0.1,0.1c-0.2,0-0.4,0-0.6,0H26c-0.2,0-0.2,0-0.4,0h-0.4c-0.2,0-0.5,0-0.8,0c-0.2,0-0.5,0-0.7,0c-0.2,0-0.2,0-0.4,0
		h-0.4l-0.1,0h0c0.1,0.1,0.2,0.1,0.3,0.1c0.1,0,0.2,0,0.3,0c0.3,0,0.6,0.1,0.9,0.1c0.3,0,0.6,0.1,0.9,0.1c0.4,0,0.8,0,1.2,0.1h1.1
		c0.2,0,0.3,0,0.5,0h0.5c0.2,0,0.4,0,0.6,0H30c0.6,0,1.2-0.1,1.7-0.2l1.7-0.1c0.5,0,1-0.1,1.6-0.3c0.2,0,0.4-0.1,0.6-0.1
		C35.9,8,36.1,8,36.3,8c0.2,0,0.5-0.1,0.8-0.1c0.1-0.1,0.2-0.1,0.3-0.2c0,0,0.1,0,0.1-0.1c0,0,0.1,0,0.2,0h0.2c0.1,0,0.2,0,0.2,0
		c0,0,0.1,0,0.2,0c0,0,0.1,0,0.1-0.1c0,0,0-0.1,0-0.1c0,0,0-0.1,0-0.1c0.1-0.1,0.1-0.1,0.1-0.1c0,0,0-0.1-0.1-0.2c0,0,0.1,0,0.2,0
		c0,0,0.1,0,0.2-0.1c0.1,0,0.2-0.1,0.2-0.1c0-0.1,0.1-0.2,0.2-0.3C39,6,39,5.9,38.9,5.8C38.9,5.7,38.9,5.6,38.9,5.5z M35.7,4.1
		c0,0,0.2,0,0.2,0.1C35.8,4.3,35.8,4.3,35.7,4.1c0,0.1,0,0.1-0.2,0.1C35.6,4.2,35.6,4.1,35.7,4.1z M34.6,4.1L34.6,4.1L34.6,4.1z
		 M35.2,4.7c0.2,0,0.4,0,0.5,0.1c0,0,0,0-0.1,0.1h-0.1c0,0-0.2,0-0.2,0c-0.1,0-0.2,0-0.2,0h-0.1c-0.1-0.1-0.2-0.1-0.3-0.1
		c-0.1,0-0.2,0-0.4,0h-0.2C34.5,4.6,34.9,4.7,35.2,4.7z M29.4,3.7C29.4,3.7,29.4,3.7,29.4,3.7C29.4,3.7,29.4,3.7,29.4,3.7
		C29.4,3.8,29.4,3.8,29.4,3.7C29.4,3.8,29.4,3.8,29.4,3.7z M28,3.7c0.2,0,0.4,0,0.6,0c0.2,0,0.4,0,0.5,0v0c-0.2,0-0.4,0-0.5,0
		c-0.2,0-0.4,0-0.6,0V3.7z M6.3,7.7c0,0-0.2,0-0.2-0.1C6.2,7.6,6.2,7.6,6.3,7.7c0-0.1,0-0.1,0.2-0.1C6.4,7.6,6.4,7.7,6.3,7.7z
		 M7.4,7.7L7.4,7.7L7.4,7.7z M6.8,7.2L6.8,7.2c-0.2,0-0.4,0-0.5-0.1c0,0,0,0,0.1-0.1h0.1c0,0,0.2,0,0.2,0C6.9,7,7,7,7.1,7h0.1
		c0.1,0.1,0.2,0.1,0.3,0.1c0.1,0,0.2,0,0.4,0h0.2C7.5,7.2,7.1,7.2,6.8,7.2z M12.6,8.1C12.6,8.1,12.6,8.1,12.6,8.1
		C12.6,8.1,12.6,8.1,12.6,8.1C12.6,8.1,12.6,8.1,12.6,8.1C12.6,8.1,12.6,8.1,12.6,8.1z M14,8.1c-0.2,0-0.4,0-0.6,0
		c-0.2,0-0.4,0-0.5,0v0c0.2,0,0.4,0,0.5,0c0.2,0,0.4,0,0.6,0V8.1z M19.3,5.6C19.3,5.6,19.3,5.6,19.3,5.6c-0.1,0-0.1,0-0.2,0
		c0,0,0,0,0,0C19.2,5.5,19.2,5.5,19.3,5.6C19.3,5.5,19.3,5.6,19.3,5.6z M20.6,7.4V7.2c0,0,0.1,0,0.2,0c0,0,0,0.1,0,0.2
		C20.7,7.5,20.7,7.4,20.6,7.4z M20.8,6.3C20.7,6.2,20.7,6.3,20.8,6.3L20.8,6.3C20.7,6.2,20.7,6.2,20.8,6.3L20.8,6.3z M21.2,4.5
		c0,0,0-0.1,0-0.2c0,0,0,0,0.1,0v0.2C21.3,4.5,21.3,4.5,21.2,4.5z M21.2,5.6L21.2,5.6C21.3,5.6,21.3,5.6,21.2,5.6L21.2,5.6
		C21.3,5.6,21.3,5.6,21.2,5.6z M22.7,6.3C22.7,6.3,22.7,6.3,22.7,6.3c0.1,0,0.1,0,0.2,0c0,0,0,0,0,0C22.8,6.3,22.8,6.3,22.7,6.3
		C22.7,6.3,22.7,6.3,22.7,6.3z M24.3,5.5h-0.2c0,0,0,0,0,0C24.1,5.5,24.2,5.5,24.3,5.5z M30.5,4.4c0,0,0.1,0,0.1,0l-0.3,0
		C30.4,4.4,30.4,4.4,30.5,4.4z M21.9,4.4h0.5c0.2,0,0.2,0,0.3,0c0.4,0,0.7,0,1,0h0.9c0.2,0,0.4,0,0.6,0h0.5c0.4,0,0.7,0,1.1,0
		c0.4,0,0.8,0,1.1,0l1.3-0.1c0.2,0,0.3,0,0.4,0H30l-1.1,0c-0.3,0-0.6,0-0.9,0H27c-0.3,0-0.6,0-1,0c-0.3,0-0.6,0-1,0
		c-0.2,0-0.2,0-0.4,0.1c-0.2,0-0.4,0-0.7,0c-0.1,0-0.2,0-0.3,0c-0.2,0-0.2,0-0.4,0c-0.1,0-0.2,0-0.3,0c-0.1,0-0.2,0-0.3,0
		c-0.2,0-0.4,0-0.6,0c-0.1,0-0.1,0-0.2,0C21.9,4.5,21.9,4.4,21.9,4.4z M20.2,4.4c0.1,0,0.1,0,0.2,0c0,0,0,0,0,0.1c0,0-0.1,0-0.1,0
		C20.1,4.4,20.1,4.4,20.2,4.4z M20.2,5.6C20.3,5.6,20.2,5.6,20.2,5.6C20.3,5.6,20.3,5.6,20.2,5.6C20.3,5.6,20.2,5.6,20.2,5.6
		C20.2,5.6,20.2,5.6,20.2,5.6c-0.1,0.1-0.1,0.1-0.1,0.1c0,0,0-0.1,0-0.1C20.2,5.6,20.2,5.6,20.2,5.6z M19.9,4.4v0.1V4.4z M19.6,3.9
		C19.6,3.9,19.5,3.9,19.6,3.9C19.5,3.9,19.6,3.9,19.6,3.9z M17.1,4.2c0.5,0.1,0.9,0.1,1.3,0.1c0.3,0,0.7,0,1,0c0,0,0,0.1,0,0.2h-0.2
		c-0.2,0-0.4,0-0.6-0.1c-0.2,0-0.4,0-0.6,0c-0.2,0-0.4,0-0.6-0.1l-0.2,0L17.1,4.2z M15.5,3.7C15.5,3.7,15.5,3.7,15.5,3.7
		C15.5,3.7,15.5,3.7,15.5,3.7L15.5,3.7L15.5,3.7z M13.5,3.2L13.5,3.2c0.1,0,0.1,0,0.1,0h0.3v0c-0.1,0-0.2,0-0.2,0L13.5,3.2l-0.1,0
		C13.4,3.2,13.4,3.2,13.5,3.2z M12.7,3.3c0-0.1,0.1-0.1,0.2-0.1c0.1,0,0.1,0,0.2,0l0,0l0,0C13,3.3,12.8,3.3,12.7,3.3L12.7,3.3z
		 M11.5,3.6c0,0,0.1,0,0.2,0.1L11.5,3.6C11.4,3.6,11.5,3.6,11.5,3.6z M17.7,6.3h0.2c0,0,0,0,0,0C17.9,6.3,17.8,6.3,17.7,6.3z
		 M11.5,7.4c0,0-0.1,0-0.1,0l0.3,0C11.6,7.4,11.6,7.4,11.5,7.4z M20.1,7.4h-0.5c-0.2,0-0.2,0-0.3,0c-0.4,0-0.7,0-1,0h-0.9
		c-0.2,0-0.4,0-0.6,0h-0.5c-0.4,0-0.7,0-1.1,0c-0.4,0-0.8,0-1.1,0l-1.3,0.1c-0.2,0-0.3,0-0.4,0H12l1.1,0c0.3,0,0.6,0,0.9,0H15
		c0.3,0,0.6,0,1,0c0.3,0,0.6,0,1,0c0.2,0,0.2,0,0.4-0.1c0.2,0,0.4,0,0.7,0c0.1,0,0.2,0,0.3,0c0.2,0,0.2,0,0.4,0c0.1,0,0.2,0,0.3,0
		c0.1,0,0.2,0,0.3,0c0.2,0,0.4,0,0.6,0c0.1,0,0.1,0,0.2,0C20.1,7.3,20.1,7.4,20.1,7.4z M21.8,7.5c-0.1,0-0.1,0-0.2,0c0,0,0,0,0-0.1
		c0,0,0.1,0,0.1,0C21.9,7.4,21.9,7.4,21.8,7.5z M21.8,6.3C21.7,6.2,21.8,6.2,21.8,6.3C21.7,6.2,21.7,6.2,21.8,6.3
		C21.7,6.2,21.8,6.2,21.8,6.3C21.8,6.2,21.8,6.2,21.8,6.3c0.1-0.1,0.1-0.1,0.1-0.1c0,0,0,0.1,0,0.1C21.8,6.3,21.8,6.3,21.8,6.3z
		 M22.1,7.5V7.3V7.5z M22.4,7.9C22.4,7.9,22.5,7.9,22.4,7.9C22.5,7.9,22.4,7.9,22.4,7.9z M24.9,7.6c-0.5-0.1-0.9-0.1-1.3-0.1
		c-0.3,0-0.7,0-1,0c0,0,0-0.1,0-0.2h0.2c0.2,0,0.4,0,0.6,0.1s0.4,0,0.6,0c0.2,0,0.4,0,0.6,0.1l0.2,0L24.9,7.6z M26.5,8.1
		C26.5,8.1,26.5,8.1,26.5,8.1C26.5,8.1,26.5,8.1,26.5,8.1L26.5,8.1L26.5,8.1z M28.5,8.6L28.5,8.6c-0.1,0-0.1,0-0.1,0h-0.3v0
		c0.1,0,0.2,0,0.2,0L28.5,8.6l0.1,0C28.6,8.6,28.6,8.6,28.5,8.6z M29.3,8.5c0,0.1-0.1,0.1-0.2,0.1c-0.1,0-0.1,0-0.2,0l0,0l0,0
		C29,8.5,29.2,8.5,29.3,8.5L29.3,8.5z M30.5,8.2c0,0-0.1,0-0.2-0.1L30.5,8.2C30.6,8.2,30.5,8.2,30.5,8.2z"/>
	<path class="st0" d="M13.8,7.6L13.8,7.6c0.2,0,0.2,0,0.2,0c0,0,0.1,0,0.1,0v0C14.1,7.6,14,7.6,13.8,7.6L13.8,7.6z"/>
	<path class="st0" d="M8.5,7.5C8.5,7.5,8.5,7.5,8.5,7.5C8.5,7.5,8.5,7.5,8.5,7.5C8.5,7.5,8.5,7.5,8.5,7.5z"/>
	<path class="st0" d="M15.3,7.6c0,0,0.1,0,0.2,0C15.4,7.6,15.3,7.6,15.3,7.6c-0.1-0.1-0.1-0.1-0.1-0.1c0,0-0.1,0-0.1,0
		C15.1,7.6,15.2,7.6,15.3,7.6z"/>
	<path class="st0" d="M19,8.1c-0.1,0-0.3,0-0.4,0c-0.3,0-0.6,0-0.9,0l-0.1,0c0.2,0,0.5,0,0.7,0c0.4,0,0.9,0,1.4,0
		c-0.1,0-0.1,0-0.1,0c0,0-0.1,0-0.1,0C19.3,8.1,19.1,8.1,19,8.1z"/>
	<path class="st1" d="M26.6,8.2L26.6,8.2c-0.1,0-0.1,0-0.1,0"/>
	<line class="st1" x1="7.4" y1="7.7" x2="7.5" y2="7.7"/>
	<path class="st1" d="M22.5,7.9C22.5,7.9,22.4,7.9,22.5,7.9"/>
	<path class="st1" d="M12.6,8.1C12.6,8.1,12.6,8.1,12.6,8.1C12.6,8.1,12.6,8.1,12.6,8.1"/>
	<line class="st1" x1="22.1" y1="7.3" x2="22.1" y2="7.5"/>
</g>
<g>
	<path class="st0" d="M13.8,22.7L13.8,22.7c0.1,0,0.2,0,0.3,0h-0.4c-0.1,0-0.2,0-0.4,0h-1c0.2,0,0.4,0,0.6,0L13.8,22.7z"/>
	<path class="st0" d="M11.8,23.1c-0.1,0-0.1,0-0.2,0c-0.2,0-0.3,0-0.4,0c0,0,0,0,0,0h0c-0.1,0-0.2,0-0.2,0c0,0-0.1,0.1,0,0.2H11h0.2
		h0.3C11.6,23.3,11.8,23.3,11.8,23.1z"/>
	<path class="st0" d="M19.4,23.1c0-0.1,0.1-0.1,0.1-0.1h0.1c0,0,0.1,0,0.2-0.1c-0.1-0.1-0.2-0.1-0.4-0.1c-0.1,0-0.2,0-0.4,0
		c0,0.1,0,0.2,0,0.2c0,0,0,0-0.1,0c0,0,0,0-0.1,0c-0.1,0-0.2,0-0.3,0c-0.1,0-0.2,0-0.3,0c-0.1,0-0.2,0-0.2,0c-0.2,0-0.3,0-0.4,0
		c-0.2,0-0.3,0-0.4,0c-0.1,0-0.2,0-0.2,0l-0.1,0.1c0.2,0,0.5,0,0.7,0l0.1,0c0.3,0,0.6,0,0.9,0c0.2,0,0.3,0,0.4,0
		C19.1,23.2,19.3,23.2,19.4,23.1c0.1,0,0.1,0.1,0.1,0.1c0,0,0,0,0,0C19.5,23.2,19.5,23.1,19.4,23.1z"/>
	<path class="st0" d="M12.9,23.1L12.9,23.1c0.2,0.1,0.3,0.1,0.5,0c0.2,0,0.4,0,0.6,0v-0.1c-0.2,0-0.4,0-0.6,0
		C13.3,23.2,13.1,23.2,12.9,23.1z"/>
	<path class="st0" d="M21,23.2C21,23.2,21,23.3,21,23.2c0,0,0.1,0,0.1,0v0H21z"/>
	<path class="st0" d="M13.8,22.7l-0.3,0C13.7,22.7,13.8,22.8,13.8,22.7c0.1,0.1,0.2,0,0.2,0C14,22.7,14,22.7,13.8,22.7L13.8,22.7z"
		/>
	<path class="st0" d="M35.8,19.3c0,0,0.1,0,0.2,0C35.8,19.3,35.7,19.2,35.8,19.3c-0.1-0.1-0.2,0-0.2,0
		C35.6,19.3,35.7,19.4,35.8,19.3z"/>
	<path class="st0" d="M6.2,22.7c0,0-0.1,0-0.2,0C6.2,22.7,6.3,22.8,6.2,22.7c0.1,0.1,0.2,0,0.2,0C6.4,22.7,6.3,22.6,6.2,22.7z"/>
	<path class="st0" d="M21.8,23.2c-0.1,0-0.1,0-0.2,0v0.1c0,0,0.1,0,0.1,0C21.8,23.2,21.8,23.2,21.8,23.2z"/>
	<path class="st0" d="M7.9,22.2c-0.2,0-0.2,0-0.4,0c-0.1,0-0.2,0-0.3-0.1H7.1c-0.1,0-0.2,0-0.2,0c-0.1,0-0.2,0-0.2,0H6.5
		c-0.1,0-0.2,0-0.1,0.1c0.1,0,0.2,0.1,0.5,0.1h0c0.2,0,0.6,0,1.3,0H7.9z"/>
	<path class="st0" d="M29.1,18.9L29.1,18.9c-0.2-0.1-0.3-0.1-0.5,0c-0.2,0-0.4,0-0.6,0v0.1c0.2,0,0.4,0,0.6,0
		C28.7,18.8,28.9,18.8,29.1,18.9z"/>
	<path class="st0" d="M15.2,22.6c0,0-0.1,0-0.1,0C15.2,22.7,15.2,22.7,15.2,22.6C15.2,22.6,15.2,22.6,15.2,22.6z"/>
	<path class="st0" d="M34.1,19.8c0.2,0,0.2,0,0.4,0c0.1,0,0.2,0,0.3,0.1h0.1c0.1,0,0.2,0,0.2,0c0.1,0,0.2,0,0.2,0h0.1
		c0.1,0,0.2,0,0.1-0.1c-0.1,0-0.2-0.1-0.5-0.1c-0.2,0-0.6,0-1.3,0H34.1z"/>
	<path class="st0" d="M14.1,22.7C14.1,22.7,14.1,22.7,14.1,22.7c0,0.1-0.1,0.2,0,0.2c0.1,0,0.1,0,0.2,0c0-0.1,0.1-0.1,0.1-0.2h0.6
		c0.2,0,0.4,0,0.6,0c-0.1,0-0.3,0-0.4,0.1c-0.1,0-0.2,0-0.4,0c0,0,0-0.1-0.1,0c0,0-0.1,0-0.2,0.1v0c0.2,0,0.5,0,0.8,0
		c0.3,0,0.6,0,0.8,0c0,0,0-0.1,0,0l0,0c0-0.1,0,0,0,0c0,0,0,0,0-0.1c0,0,0-0.1,0.1,0c0,0,0.1,0,0.2,0H17c0.2,0,0.5,0,0.8,0H18
		c0.1,0,0.2,0,0.2,0c0,0-0.1,0-0.2,0c-0.2,0-0.3,0-0.4,0h-0.5c-0.2,0-0.7,0-0.7,0h-0.7c-0.1,0-0.3,0-0.4,0.1c0.1,0,0.1,0,0.2,0
		c-0.1,0-0.2,0-0.2,0c0,0-0.2,0-0.2,0c0,0,0.1,0,0.1,0c-0.1,0-0.3,0-0.4,0L14.1,22.7L14.1,22.7C14.2,22.7,14.1,22.7,14.1,22.7z"/>
	<path class="st0" d="M27.9,19.3C27.9,19.3,27.9,19.3,27.9,19.3c0-0.1,0.1-0.2,0-0.2c-0.1,0-0.1,0-0.2,0c0,0.1-0.1,0.1-0.1,0.2h-0.6
		c-0.2,0-0.4,0-0.6,0c0.1,0,0.3,0,0.4-0.1c0.1,0,0.2,0,0.4,0c0,0,0,0.1,0.1,0c0,0,0.1,0,0.2-0.1v0c-0.2,0-0.5,0-0.8,0
		c-0.3,0-0.6,0-0.8,0c0,0,0,0.1,0,0l0,0c0,0.1,0,0,0,0c0,0,0,0,0,0.1c0,0,0,0.1-0.1,0c0,0-0.1,0-0.2,0H25c-0.2,0-0.5,0-0.8,0H24
		c-0.1,0-0.2,0-0.2,0c0,0,0.1,0,0.2,0c0.2,0,0.3,0,0.4,0h0.5c0.2,0,0.7,0,0.7,0h0.7c0.1,0,0.3,0,0.4-0.1c-0.1,0-0.1,0-0.2,0
		c0.1,0,0.2,0,0.2,0c0,0,0.2,0,0.2,0c0,0-0.1,0-0.1,0c0.1,0,0.3,0,0.4,0L27.9,19.3L27.9,19.3C27.8,19.3,27.9,19.3,27.9,19.3z"/>
	<path class="st0" d="M28.2,19.3l0.3,0C28.3,19.3,28.2,19.2,28.2,19.3c-0.1-0.1-0.2,0-0.2,0C28,19.3,28,19.3,28.2,19.3L28.2,19.3z"
		/>
	<path class="st0" d="M33.2,19.4h-0.1l-0.8,0h1c0.1,0,0.1,0,0.2,0c0.1,0,0.1,0,0.1,0c0-0.1-0.1-0.1-0.1-0.1c0,0,0,0-0.1,0
		c0,0-0.1,0-0.1,0C33.3,19.4,33.3,19.4,33.2,19.4z"/>
	<path class="st0" d="M26.8,19.4c0,0,0.1,0,0.1,0C26.8,19.3,26.8,19.3,26.8,19.4C26.8,19.4,26.8,19.4,26.8,19.4z"/>
	<path class="st0" d="M31,19.5c0,0-0.1,0-0.1,0L31,19.5c0.4,0,0.8,0,1.2,0h0.1c-0.2,0-0.5,0-0.7,0C31.3,19.5,31.2,19.5,31,19.5z"/>
	<path class="st0" d="M20.2,18.8c0.1,0,0.1,0,0.2,0v-0.1c0,0-0.1,0-0.1,0C20.2,18.8,20.2,18.8,20.2,18.8z"/>
	<path class="st0" d="M21,18.8C21,18.8,21,18.7,21,18.8c0,0-0.1,0-0.1,0v0H21z"/>
	<path class="st0" d="M8.8,22.6h0.1l0.8,0h-1c-0.1,0-0.1,0-0.2,0c-0.1,0-0.1,0-0.1,0c0,0.1,0.1,0.1,0.1,0.1c0,0,0,0,0.1,0
		c0,0,0.1,0,0.1,0C8.7,22.6,8.7,22.6,8.8,22.6z"/>
	<path class="st0" d="M28.2,19.3L28.2,19.3c-0.1,0-0.2,0-0.3,0h0.4c0.1,0,0.2,0,0.4,0h1c-0.2,0-0.4,0-0.6,0L28.2,19.3z"/>
	<path class="st0" d="M11,22.5c0,0,0.1,0,0.1,0L11,22.5c-0.4,0-0.8,0-1.2,0H9.7c0.2,0,0.5,0,0.7,0C10.7,22.5,10.8,22.5,11,22.5z"/>
	<path class="st0" d="M22.6,18.9c0,0.1-0.1,0.1-0.1,0.1h-0.1c0,0-0.1,0-0.2,0.1c0.1,0.1,0.2,0.1,0.4,0.1s0.2,0,0.4,0
		c0-0.1,0-0.2,0-0.2c0,0,0,0,0.1,0c0,0,0,0,0.1,0c0.1,0,0.2,0,0.3,0c0.1,0,0.2,0,0.3,0c0.1,0,0.2,0,0.2,0c0.2,0,0.3,0,0.4,0
		c0.2,0,0.3,0,0.4,0c0.1,0,0.2,0,0.2,0l0.1-0.1c-0.2,0-0.5,0-0.7,0l-0.1,0c-0.3,0-0.6,0-0.9,0c-0.2,0-0.3,0-0.4,0
		C22.9,18.8,22.7,18.8,22.6,18.9c-0.1,0-0.1-0.1-0.1-0.1c0,0,0,0,0,0C22.5,18.8,22.5,18.9,22.6,18.9z"/>
	<path class="st0" d="M30.2,18.9c0.1,0,0.1,0,0.2,0c0.2,0,0.3,0,0.4,0c0,0,0,0,0,0h0c0.1,0,0.2,0,0.2,0s0.1-0.1,0-0.2H31h-0.2h-0.3
		C30.4,18.7,30.2,18.7,30.2,18.9z"/>
	<path class="st0" d="M22.9,21.4C22.9,21.4,22.9,21.4,22.9,21.4c0,0-0.1,0-0.1,0c0,0,0,0-0.1,0c0,0,0,0,0,0
		C22.8,21.4,22.8,21.4,22.9,21.4z"/>
	<path class="st0" d="M11.4,22.5c0,0,0.1,0,0.1,0c0.1,0,0.1,0,0.2,0L11.4,22.5z"/>
	<path class="st0" d="M17.9,21.4h-0.2C17.8,21.4,17.9,21.4,17.9,21.4C17.9,21.4,17.9,21.4,17.9,21.4z"/>
	<path class="st0" d="M12,22.5h0.3c0.2,0,0.3,0,0.4,0l1.3-0.1c-0.3,0-0.6,0-0.9,0L12,22.5z"/>
	<path class="st0" d="M13,18.4L13,18.4L13,18.4c0-0.1-0.1-0.1-0.2-0.1c0,0-0.1,0-0.2,0.1v0C12.8,18.4,13,18.4,13,18.4z"/>
	<path class="st0" d="M11.5,18.7C11.5,18.7,11.4,18.7,11.5,18.7l0.2,0.1C11.6,18.8,11.5,18.8,11.5,18.7z"/>
	<path class="st0" d="M13.6,18.4c0.1,0,0.2,0,0.2,0v0L13.6,18.4c-0.1-0.1-0.1-0.1-0.1-0.1h0c0,0-0.1,0-0.1,0l0,0H13.6z"/>
	<path class="st0" d="M19.3,22.3c-0.1,0-0.2,0-0.3,0c-0.1,0-0.2,0-0.3,0c-0.1,0-0.2,0-0.4,0c-0.1,0-0.2,0-0.3,0
		c-0.2-0.1-0.5-0.1-0.7,0c-0.2,0.1-0.2,0.1-0.4,0.1c-0.3,0-0.6,0-1,0c-0.3,0-0.6,0-1,0h-0.9c0.4,0,0.8,0,1.1,0c0.4,0,0.8,0,1.1,0
		h0.5c0.2,0,0.4,0,0.6,0h0.9c0.3,0,0.6,0,1,0c0.1,0,0.2,0,0.3,0h0.5c0,0,0-0.1,0-0.2c-0.1,0-0.1,0-0.2,0
		C19.7,22.4,19.5,22.4,19.3,22.3z"/>
	<path class="st0" d="M21.9,21.3C21.9,21.3,21.8,21.3,21.9,21.3c-0.1,0-0.1,0-0.1,0c0,0,0,0,0,0c0,0,0,0,0,0c0,0,0,0,0,0
		c0,0,0.1,0,0.1,0C21.8,21.4,21.9,21.3,21.9,21.3z"/>
	<path class="st0" d="M30.5,23.3C30.5,23.3,30.6,23.3,30.5,23.3l-0.2-0.1C30.4,23.2,30.5,23.2,30.5,23.3z"/>
	<path class="st0" d="M19.1,20.6C19.1,20.6,19.1,20.6,19.1,20.6c0,0,0.1,0,0.1,0c0,0,0,0,0.1,0c0,0,0,0,0,0
		C19.2,20.6,19.2,20.6,19.1,20.6z"/>
	<path class="st0" d="M28.4,23.6c-0.1,0-0.2,0-0.2,0v0L28.4,23.6c0.1,0.1,0.1,0.1,0.1,0.1h0c0,0,0.1,0,0.1,0l0,0H28.4z"/>
	<path class="st0" d="M24.2,22.6c-0.2,0-0.4,0-0.6,0c-0.2,0-0.4-0.1-0.6-0.1h-0.2c0,0,0,0.1,0,0.2c0.3,0,0.7,0,1,0
		c0.4,0,0.8,0,1.3,0.1l0-0.1l-0.2,0C24.6,22.6,24.4,22.6,24.2,22.6z"/>
	<path class="st0" d="M21.7,22.4C21.7,22.5,21.7,22.5,21.7,22.4c0,0.1,0,0.1,0.1,0.1c0,0,0-0.1,0-0.1C21.8,22.4,21.8,22.4,21.7,22.4
		z"/>
	<path class="st0" d="M17.8,19.4c0.2,0,0.4,0,0.6,0c0.2,0,0.4,0.1,0.6,0.1h0.2c0,0,0-0.1,0-0.2c-0.3,0-0.7,0-1,0
		c-0.4,0-0.8,0-1.3-0.1l0,0.1l0.2,0C17.4,19.4,17.6,19.4,17.8,19.4z"/>
	<path class="st0" d="M29,23.6L29,23.6L29,23.6c0,0.1,0.1,0.1,0.2,0.1c0,0,0.1,0,0.2-0.1v0C29.2,23.6,29,23.6,29,23.6z"/>
	<path class="st0" d="M30,19.5h-0.3c-0.2,0-0.3,0-0.4,0l-1.3,0.1c0.3,0,0.6,0,0.9,0L30,19.5z"/>
	<path class="st0" d="M30.6,19.5c0,0-0.1,0-0.1,0c-0.1,0-0.1,0-0.2,0L30.6,19.5z"/>
	<path class="st0" d="M24.1,20.6h0.2C24.2,20.6,24.1,20.6,24.1,20.6C24.1,20.6,24.1,20.6,24.1,20.6z"/>
	<path class="st0" d="M21.2,20.6L21.2,20.6C21.3,20.7,21.3,20.7,21.2,20.6L21.2,20.6C21.3,20.6,21.3,20.7,21.2,20.6z"/>
	<path class="st0" d="M20.7,21.3C20.7,21.4,20.7,21.3,20.7,21.3L20.7,21.3C20.7,21.3,20.7,21.3,20.7,21.3L20.7,21.3z"/>
	<path class="st0" d="M21.4,19.5c-0.1,0-0.1,0-0.1,0c0,0,0,0.1,0,0.2c0.1,0,0.1,0,0.2,0V19.5z"/>
	<path class="st0" d="M20.3,19.6C20.3,19.5,20.3,19.5,20.3,19.6c0-0.1,0-0.1-0.1-0.1c0,0,0,0.1,0,0.1C20.2,19.6,20.2,19.6,20.3,19.6
		z"/>
	<path class="st0" d="M20.8,22.4c-0.1,0-0.1,0-0.2,0v0.2c0.1,0,0.1,0,0.1,0C20.8,22.5,20.8,22.4,20.8,22.4z"/>
	<path class="st0" d="M20.1,20.7C20.1,20.7,20.2,20.7,20.1,20.7c0.1,0,0.1,0,0.1,0c0,0,0,0,0,0c0,0,0,0,0,0c0,0,0,0,0,0
		c0,0-0.1,0-0.1,0C20.2,20.6,20.1,20.7,20.1,20.7z"/>
	<path class="st0" d="M22.7,19.7c0.1,0,0.2,0,0.3,0c0.1,0,0.2,0,0.3,0c0.1,0,0.2,0,0.4,0c0.1,0,0.2,0,0.3,0c0.2,0.1,0.5,0.1,0.7,0
		c0.2-0.1,0.2-0.1,0.4-0.1c0.3,0,0.6,0,1,0c0.3,0,0.6,0,1,0h0.9c-0.4,0-0.8,0-1.1,0c-0.4,0-0.8,0-1.1,0h-0.5c-0.2,0-0.4,0-0.6,0
		h-0.9c-0.3,0-0.6,0-1,0c-0.1,0-0.2,0-0.3,0h-0.5c0,0,0,0.1,0,0.2c0.1,0,0.1,0,0.2,0C22.3,19.6,22.5,19.6,22.7,19.7z"/>
	<line class="st1" x1="31" y1="18.8" x2="30.8" y2="18.8"/>
	<path class="st0" d="M33.5,19.4C33.5,19.4,33.5,19.4,33.5,19.4C33.5,19.4,33.5,19.4,33.5,19.4C33.5,19.4,33.5,19.4,33.5,19.4z"/>
	<path class="st0" d="M23,18.8c0.1,0,0.3,0,0.4,0c0.3,0,0.6,0,0.9,0l0.1,0c-0.2,0-0.5,0-0.7,0c-0.4,0-0.9,0-1.4,0c0.1,0,0.1,0,0.1,0
		c0,0,0.1,0,0.1,0C22.7,18.8,22.9,18.8,23,18.8z"/>
	<path class="st0" d="M26.7,19.3c0,0-0.1,0-0.2,0C26.6,19.4,26.7,19.3,26.7,19.3c0.1,0.1,0.1,0.1,0.1,0.1c0,0,0.1,0,0.1,0
		C26.9,19.3,26.8,19.3,26.7,19.3z"/>
	<path class="st0" d="M28.2,19.3L28.2,19.3c-0.2,0-0.2,0-0.2,0c0,0-0.1,0-0.1,0v0C27.9,19.4,28,19.3,28.2,19.3L28.2,19.3z"/>
	<path class="st0" d="M20.3,18.6c0,0-0.1,0-0.2,0c0,0,0,0,0,0C20.2,18.7,20.3,18.7,20.3,18.6L20.3,18.6z"/>
	<path class="st0" d="M21,18.7c0,0-0.1,0-0.2,0v0.1C20.9,18.7,21,18.7,21,18.7C21,18.7,21,18.7,21,18.7z"/>
	<line class="st1" x1="34.6" y1="19.2" x2="34.5" y2="19.2"/>
	<path class="st1" d="M15.4,18.7L15.4,18.7c0.1,0,0.1,0,0.1,0"/>
	<path class="st1" d="M19.5,19C19.5,19,19.6,19,19.5,19"/>
	<line class="st1" x1="19.9" y1="19.6" x2="19.9" y2="19.4"/>
	<path class="st1" d="M29.4,18.9C29.4,18.9,29.4,18.8,29.4,18.9C29.4,18.8,29.4,18.8,29.4,18.9"/>
	<line class="st1" x1="11" y1="23.2" x2="11.2" y2="23.2"/>
	<path class="st0" d="M21.7,23.4c0,0,0.1,0,0.2,0c0,0,0,0,0,0C21.8,23.3,21.7,23.3,21.7,23.4L21.7,23.4z"/>
	<path class="st0" d="M21,23.3c0,0,0.1,0,0.2,0v-0.1C21.1,23.3,21,23.3,21,23.3C21,23.3,21,23.3,21,23.3z"/>
	<path class="st0" d="M38.9,20.6c0,0-0.1-0.1-0.1-0.3l-1.4,0.1c0,0-0.1,0-0.2,0c0,0,0,0-0.1,0h-1.5c-0.1,0-0.2,0-0.2,0h-0.6
		c-0.2,0-0.2,0-0.4,0.1c-0.2,0-0.3,0-0.4,0h-1.2l-0.2,0h-0.2c0,0-0.2,0-0.2,0c-0.3,0-0.5,0-0.8,0c-0.3,0-0.5,0-0.8,0
		c0,0-0.1,0-0.2,0c-0.1,0-0.3,0-0.4,0c-0.2,0-0.3,0-0.4,0c0,0-0.2,0-0.2,0c0,0-0.2,0-0.2,0h0c0,0,0,0-0.1,0c-0.2,0-0.3,0-0.4,0H28
		c-0.1,0-0.2,0-0.3,0c-0.1,0-0.2,0-0.3,0c0,0-0.2,0-0.2,0c-0.1,0-0.2,0-0.2,0h-0.4c-0.2,0-0.2,0-0.4-0.1c0,0-0.1,0-0.2,0
		c-0.1,0-0.2,0-0.3,0c-0.1,0-0.2,0-0.3,0.1c-0.1,0.1-0.3,0.1-0.4,0c0,0-0.2-0.1-0.3,0c0,0,0,0.1,0,0c0,0,0.1,0,0.1,0.1
		c-0.1,0-0.2,0-0.3,0c0,0,0.1-0.1,0.1-0.1c-0.2,0-0.3-0.1-0.4,0c-0.2,0-0.3,0-0.4,0h-0.5c-0.2,0-0.3,0-0.4,0c-0.2,0-0.3,0-0.4,0
		c-0.2,0-0.3,0-0.4,0v-0.1c0.4,0,0.8,0,1.3,0c0.6,0,1.2,0,1.8,0c0.6,0,1.3,0,1.9,0h1.9c0,0,0.1,0,0.2,0c0.2,0.1,0.2,0.1,0.4,0.1
		c0,0,0.2,0,0.3-0.1c0,0-0.1,0-0.2,0c0.2,0,0.4,0,0.6,0c0.3,0,0.5,0,0.8-0.1l0,0c0.2,0,0.2,0,0.4,0h0.4c0.4,0,0.7,0,1.1,0
		c0.4,0,0.7,0,1.1,0h3c0,0,0,0,0,0l0,0c0,0,0,0-0.1,0c0,0,0,0-0.1,0h-0.2c-0.1,0-0.2,0-0.2,0h-0.2c0,0-0.1,0-0.1,0c0,0-0.1,0-0.1,0
		l0.2-0.2c0,0,0.2,0,0.2,0c0.2,0,0.3,0,0.4,0h0.4c0.2,0,0.2,0,0.4,0c0.1,0,0.2,0,0.4-0.1c-0.6,0-1.3-0.1-1.9-0.1
		c-0.6,0-1.3,0-1.9-0.1c0.5,0,0.9,0,1.4,0c0.4,0,0.9,0,1.4,0c-0.2,0-0.2,0-0.2,0c0,0-0.2,0-0.2,0c0,0-0.1,0-0.1,0c0,0-0.1,0-0.2-0.1
		c0.2,0,0.4,0,0.5,0h1.8c0,0,0.1,0,0.2,0c0.1,0,0.1,0,0.2,0c-0.2,0-0.5-0.1-0.8,0c-0.2,0-0.4,0-0.6,0H37c-0.4,0-0.7,0-1.1-0.1
		c-0.4,0-0.7,0-1.1,0c-0.2,0-0.3,0-0.4,0c-0.2,0-0.3,0-0.4,0h-0.1l0,0c-0.1,0-0.1,0.1-0.1,0.1c0,0.1-0.1,0.1-0.1,0.1
		c0,0,0.1,0,0.1,0.1c0,0,0,0-0.1,0c0,0-0.1,0-0.2,0h-1h-0.1c-0.4,0-0.7,0-1.1,0l-0.2,0c0,0,0.1,0,0.1,0c0.2,0,0.3,0,0.6,0
		c0.2,0,0.5,0,0.7,0l0.8,0h0.1c0,0,0.1,0,0.1,0c0,0,0.1,0,0.1,0c0,0,0,0,0,0h-0.3c0,0-0.2,0-0.2,0c-0.1,0-0.2,0-0.2,0
		c0,0,0-0.1,0.1-0.1c0,0,0,0,0-0.1c0,0-0.2,0-0.3,0h-0.2H32h-0.8v0l-0.1,0h-0.6c-0.2,0-0.3,0-0.4,0.1c0,0,0.2,0.1,0.2,0
		c0,0,0.2,0,0.2,0l0,0c-0.2,0-0.3,0-0.4,0l-0.5,0l0,0l0,0h0.1c0,0,0,0,0,0c0,0,0,0,0,0h-0.2h-1c-0.2,0-0.2,0-0.4,0h-0.4h-0.5
		c-0.1,0-0.3,0-0.4,0c0,0-0.1,0-0.1,0c0,0,0,0,0,0c-0.1,0-0.3,0-0.4,0.1h-0.7c0,0-0.5,0-0.7,0h-0.5c-0.2,0-0.3,0-0.4,0
		c0,0-0.1,0-0.2,0c0,0,0.1,0,0.2,0h0.2c0.2,0,0.5,0,0.8,0h0.8c0,0,0.1,0,0.2,0c0,0,0,0,0.1,0c0,0,0,0,0-0.1c0,0,0,0,0,0l0,0
		c0,0,0,0,0,0c0.3,0,0.6,0,0.8,0c0.3,0,0.6,0,0.8,0v0c-0.1,0-0.2,0-0.2,0.1c0,0,0,0-0.1,0c-0.2,0-0.3,0-0.4,0
		c-0.1,0-0.2,0.1-0.4,0.1c0.2,0,0.4,0,0.6,0h0.6c0,0,0.1-0.1,0.1-0.2c0,0,0.1,0,0.2,0c0,0,0,0.1,0,0.2c0,0,0,0,0,0
		c0.1,0,0.1,0,0.2-0.1c0,0,0.2,0,0.3,0l-0.3,0l0.9,0c0.2,0,0.4,0,0.6,0c0.1,0,0.2,0,0.2,0c0,0,0.1,0,0.2-0.1L30,19c0,0,0,0,0,0h0
		c0.2,0,0.3,0,0.4,0c0.2,0,0.3,0,0.4,0h0.4c0,0,0.2,0,0.2-0.1l0,0c0,0-0.1,0-0.1,0l0,0c0,0.1-0.1,0.2-0.1,0.1c0,0,0,0-0.1,0
		c-0.1-0.1-0.2-0.2-0.4-0.2h0.2c0,0.1,0,0.2,0,0.2s-0.2,0-0.2,0h0c0,0,0,0,0,0c-0.2,0-0.3,0-0.4,0c-0.1,0-0.1,0-0.2,0
		c0.1-0.1,0.2-0.1,0.4-0.1h0.3c-0.4,0-0.6,0-0.9,0l-0.9,0l-1.6,0c-0.1,0-0.2,0-0.3,0c-0.1,0-0.2,0-0.3,0c-0.2,0-0.5,0-0.7,0
		c-0.2,0-0.5,0-0.7,0l-0.8,0c0.2,0,0.5,0,0.7,0l-0.1,0.1c-0.1,0-0.2,0-0.2,0c-0.1,0-0.3,0-0.4,0c-0.1,0-0.3,0-0.4,0
		c-0.1,0-0.2,0-0.2,0c-0.1,0-0.2,0-0.3,0c-0.1,0-0.2,0-0.3,0c0,0,0,0-0.1,0c0,0,0,0-0.1,0c0,0,0,0.1,0,0.2c-0.2,0-0.3,0-0.4,0
		s-0.2,0-0.4-0.1c0.1,0,0.1-0.1,0.2-0.1h0.1c0,0,0.1,0,0.1-0.1c0,0-0.1,0-0.1,0c0,0,0,0,0,0c0,0-0.1,0-0.1,0c-0.1,0-0.3,0-0.4,0
		h-0.6c-0.1,0-0.1,0-0.2,0c0,0,0,0,0,0h-0.1v0c-0.2,0-0.4,0-0.6,0v0.1c0,0-0.1,0-0.2,0c0,0,0-0.1,0-0.1c-0.3,0-0.6,0-0.9-0.1
		c0,0,0,0,0,0c0,0,0.1,0.1,0.1,0c0,0,0,0,0,0.1c-0.4,0-0.8,0-1.1-0.1c-0.4,0-0.8,0-1.2-0.1c-0.2,0-0.5,0-0.8,0c-0.2,0-0.5,0-0.7-0.1
		c-0.2,0-0.3,0-0.4,0h-0.4c0,0,0,0-0.1,0c0,0,0,0,0,0c0,0,0.1-0.1,0.1-0.1c0.2,0,0.4,0,0.6,0H16c0.2,0,0.2,0,0.4,0h0.4
		c0.2,0,0.5,0,0.8,0c0.2,0,0.5,0,0.7,0c0.2,0,0.2,0,0.4,0h0.4l0.1,0h0c-0.1-0.1-0.2-0.1-0.3-0.1c-0.1,0-0.2,0-0.3,0
		c-0.3,0-0.6-0.1-0.9-0.1c-0.3,0-0.6-0.1-0.9-0.1c-0.4,0-0.8,0-1.2-0.1h-1.1c-0.2,0-0.3,0-0.5,0h-0.5c-0.2,0-0.4,0-0.6,0H12
		c-0.6,0-1.2,0.1-1.7,0.2l-1.7,0.1c-0.5,0-1,0.1-1.6,0.3c-0.2,0-0.4,0.1-0.6,0.1C6.1,18.9,5.9,19,5.7,19c-0.2,0-0.5,0.1-0.8,0.1
		c-0.1,0.1-0.2,0.1-0.3,0.2c0,0-0.1,0-0.1,0.1c0,0-0.1,0-0.2,0H4.2c-0.1,0-0.2,0-0.2,0c0,0-0.1,0-0.2,0c0,0-0.1,0-0.1,0.1h0
		c0,0,0,0.1,0,0.1c0,0,0,0.1,0,0.1C3.7,19.9,3.7,20,3.7,20c0,0,0,0.1,0.1,0.2c0,0-0.1,0-0.2,0c0,0-0.1,0-0.2,0.1
		c-0.1,0-0.2,0.1-0.2,0.1c0,0.1-0.1,0.2-0.2,0.3C3,20.9,3,21,3.1,21.1c0,0.1,0.1,0.2,0.1,0.3c0,0,0.1,0.1,0.1,0.3l1.4-0.1
		c0,0,0.1,0,0.2,0c0,0,0,0,0.1,0h1.5c0.1,0,0.2,0,0.2,0h0.6c0.2,0,0.2,0,0.4-0.1c0.2,0,0.3,0,0.4,0h1.2l0.2,0h0.2c0,0,0.2,0,0.2,0
		c0.3,0,0.5,0,0.8,0c0.3,0,0.5,0,0.8,0c0,0,0.1,0,0.2,0c0.1,0,0.3,0,0.4,0c0.2,0,0.3,0,0.4,0c0,0,0.2,0,0.2,0c0,0,0.2,0,0.2,0h0
		c0,0,0,0,0.1,0c0.2,0,0.3,0,0.4,0H14c0.1,0,0.2,0,0.3,0c0.1,0,0.2,0,0.3,0c0,0,0.2,0,0.2,0c0.1,0,0.2,0,0.2,0h0.4
		c0.2,0,0.2,0,0.4,0.1c0,0,0.1,0,0.2,0c0.1,0,0.2,0,0.3,0c0.1,0,0.2,0,0.3-0.1c0.1-0.1,0.3-0.1,0.4,0c0,0,0.2,0.1,0.3,0
		c0,0,0-0.1,0,0c0,0-0.1,0-0.1-0.1c0.1,0,0.2,0,0.3,0c0,0-0.1,0.1-0.1,0.1c0.2,0,0.3,0.1,0.4,0c0.2,0,0.3,0,0.4,0h0.5
		c0.2,0,0.3,0,0.4,0c0.2,0,0.3,0,0.4,0c0.2,0,0.3,0,0.4,0v0.1c-0.4,0-0.8,0-1.3,0c-0.6,0-1.2,0-1.8,0c-0.6,0-1.3,0-1.9,0h-1.9
		c0,0-0.1,0-0.2,0c-0.2-0.1-0.2-0.1-0.4-0.1c0,0-0.2,0-0.3,0.1c0,0,0.1,0,0.2,0c-0.2,0-0.4,0-0.6,0c-0.3,0-0.5,0-0.8,0.1l0,0
		c-0.2,0-0.2,0-0.4,0h-0.4c-0.4,0-0.7,0-1.1,0c-0.4,0-0.7,0-1.1,0h-3c0,0,0,0,0,0l0,0c0,0,0,0,0.1,0c0,0,0,0,0.1,0h0.2
		c0.1,0,0.2,0,0.2,0h0.2c0,0,0.1,0,0.1,0c0,0,0.1,0,0.1,0l-0.2,0.2c0,0-0.2,0-0.2,0c-0.2,0-0.3,0-0.4,0H4.7c-0.2,0-0.2,0-0.4,0
		c-0.1,0-0.2,0-0.4,0.1c0.6,0,1.3,0.1,1.9,0.1c0.6,0,1.3,0,1.9,0.1c-0.5,0-0.9,0-1.4,0c-0.4,0-0.9,0-1.4,0c0.2,0,0.2,0,0.2,0
		c0,0,0.2,0,0.2,0c0,0,0.1,0,0.1,0c0,0,0.1,0,0.2,0.1c-0.2,0-0.4,0-0.5,0H3.4c0,0-0.1,0-0.2,0c-0.1,0-0.1,0-0.2,0
		c0.2,0,0.5,0.1,0.8,0c0.2,0,0.4,0,0.6,0H5c0.4,0,0.7,0,1.1,0.1c0.4,0,0.7,0,1.1,0c0.2,0,0.3,0,0.4,0c0.2,0,0.3,0,0.4,0h0.1l0,0
		c0.1,0,0.1-0.1,0.1-0.1c0-0.1,0.1-0.1,0.1-0.1c0,0-0.1,0-0.1-0.1c0,0,0,0,0.1,0c0,0,0.1,0,0.2,0h1h0.1c0.4,0,0.7,0,1.1,0l0.2,0
		c0,0-0.1,0-0.1,0c-0.2,0-0.3,0-0.6,0c-0.2,0-0.5,0-0.7,0l-0.8,0H8.8c0,0-0.1,0-0.1,0c0,0-0.1,0-0.1,0c0,0,0,0,0,0h0.3
		c0,0,0.2,0,0.2,0c0.1,0,0.2,0,0.2,0c0,0,0,0.1-0.1,0.1c0,0,0,0,0,0.1c0,0,0.2,0,0.3,0h0.2H10h0.8v0l0.1,0h0.6c0.2,0,0.3,0,0.4-0.1
		c0,0-0.2-0.1-0.2,0c0,0-0.2,0-0.2,0l0,0c0.2,0,0.3,0,0.4,0l0.5,0l0,0l0,0h-0.1c0,0,0,0,0,0c0,0,0,0,0,0h0.2h1c0.2,0,0.2,0,0.4,0
		h0.4h0.5c0.1,0,0.3,0,0.4,0c0,0,0.1,0,0.1,0c0,0,0,0,0,0c0.1,0,0.3,0,0.4-0.1h0.7c0,0,0.5,0,0.7,0h0.5c0.2,0,0.3,0,0.4,0
		c0,0,0.1,0,0.2,0c0,0-0.1,0-0.2,0h-0.2c-0.2,0-0.5,0-0.8,0h-0.8c0,0-0.1,0-0.2,0c0,0,0,0-0.1,0c0,0,0,0,0,0.1c0,0,0,0,0,0l0,0
		c0,0,0,0,0,0c-0.3,0-0.6,0-0.8,0c-0.3,0-0.6,0-0.8,0v0c0.1,0,0.2,0,0.2-0.1c0,0,0,0,0.1,0c0.2,0,0.3,0,0.4,0c0.1,0,0.2-0.1,0.4-0.1
		c-0.2,0-0.4,0-0.6,0h-0.6c0,0-0.1,0.1-0.1,0.2c0,0-0.1,0-0.2,0c0,0,0-0.1,0-0.2c0,0,0,0,0,0c-0.1,0-0.1,0-0.2,0.1c0,0-0.2,0-0.3,0
		l0.3,0l-0.9,0c-0.2,0-0.4,0-0.6,0c-0.1,0-0.2,0-0.2,0c0,0-0.1,0-0.2,0.1L12,23c0,0,0,0,0,0h0c-0.2,0-0.3,0-0.4,0
		c-0.2,0-0.3,0-0.4,0h-0.4c0,0-0.2,0-0.2,0.1l0,0c0,0,0.1,0,0.1,0l0,0c0-0.1,0.1-0.2,0.1-0.1c0,0,0,0,0.1,0c0.1,0.1,0.2,0.2,0.4,0.2
		h-0.2c0-0.1,0-0.2,0-0.2c0,0,0.2,0,0.2,0h0c0,0,0,0,0,0c0.2,0,0.3,0,0.4,0c0.1,0,0.1,0,0.2,0c-0.1,0.1-0.2,0.1-0.4,0.1h-0.3
		c0.4,0,0.6,0,0.9,0l0.9,0l1.6,0c0.1,0,0.2,0,0.3,0c0.1,0,0.2,0,0.3,0c0.2,0,0.5,0,0.7,0c0.2,0,0.5,0,0.7,0l0.8,0
		c-0.2,0-0.5,0-0.7,0l0.1-0.1c0.1,0,0.2,0,0.2,0c0.1,0,0.3,0,0.4,0c0.1,0,0.3,0,0.4,0c0.1,0,0.2,0,0.2,0c0.1,0,0.2,0,0.3,0
		c0.1,0,0.2,0,0.3,0c0,0,0,0,0.1,0c0,0,0,0,0.1,0c0,0,0-0.1,0-0.2c0.2,0,0.3,0,0.4,0c0.1,0,0.2,0,0.4,0.1c-0.1,0-0.1,0.1-0.2,0.1
		h-0.1c0,0-0.1,0-0.1,0.1c0,0,0.1,0,0.1,0c0,0,0,0,0,0c0,0,0.1,0,0.1,0c0.1,0,0.3,0,0.4,0h0.6c0.1,0,0.1,0,0.2,0c0,0,0,0,0,0h0.1v0
		c0.2,0,0.4,0,0.6,0v-0.1c0,0,0.1,0,0.2,0c0,0,0,0.1,0,0.1c0.3,0,0.6,0,0.9,0.1c0,0,0,0,0,0c0,0-0.1-0.1-0.1,0c0,0,0,0,0-0.1
		c0.4,0,0.8,0,1.1,0.1c0.4,0,0.8,0,1.2,0.1c0.2,0,0.5,0,0.8,0c0.2,0,0.5,0,0.7,0.1c0.2,0,0.3,0,0.4,0h0.4c0,0,0,0,0.1,0c0,0,0,0,0,0
		c0,0-0.1,0.1-0.1,0.1c-0.2,0-0.4,0-0.6,0H26c-0.2,0-0.2,0-0.4,0h-0.4c-0.2,0-0.5,0-0.8,0c-0.2,0-0.5,0-0.7,0c-0.2,0-0.2,0-0.4,0
		h-0.4l-0.1,0h0c0.1,0.1,0.2,0.1,0.3,0.1c0.1,0,0.2,0,0.3,0c0.3,0,0.6,0.1,0.9,0.1c0.3,0,0.6,0.1,0.9,0.1c0.4,0,0.8,0,1.2,0.1h1.1
		c0.2,0,0.3,0,0.5,0h0.5c0.2,0,0.4,0,0.6,0H30c0.6,0,1.2-0.1,1.7-0.2l1.7-0.1c0.5,0,1-0.1,1.6-0.3c0.2,0,0.4-0.1,0.6-0.1
		c0.2-0.1,0.4-0.1,0.6-0.1c0.2,0,0.5-0.1,0.8-0.1c0.1-0.1,0.2-0.1,0.3-0.2c0,0,0.1,0,0.1-0.1c0,0,0.1,0,0.2,0h0.2c0.1,0,0.2,0,0.2,0
		c0,0,0.1,0,0.2,0c0,0,0.1,0,0.1-0.1c0,0,0-0.1,0-0.1c0,0,0-0.1,0-0.1c0.1-0.1,0.1-0.1,0.1-0.1c0,0,0-0.1-0.1-0.2c0,0,0.1,0,0.2,0
		c0,0,0.1,0,0.2-0.1c0.1,0,0.2-0.1,0.2-0.1c0-0.1,0.1-0.2,0.2-0.3c0.1-0.1,0.1-0.3,0-0.4C38.9,20.8,38.9,20.7,38.9,20.6z M35.7,19.2
		c0,0,0.2,0,0.2,0.1C35.8,19.4,35.8,19.4,35.7,19.2c0,0.1,0,0.1-0.2,0.1C35.6,19.3,35.6,19.2,35.7,19.2z M34.6,19.2L34.6,19.2
		L34.6,19.2z M35.2,19.8c0.2,0,0.4,0,0.5,0.1c0,0,0,0-0.1,0.1h-0.1c0,0-0.2,0-0.2,0c-0.1,0-0.2,0-0.2,0h-0.1
		c-0.1-0.1-0.2-0.1-0.3-0.1c-0.1,0-0.2,0-0.4,0h-0.2C34.5,19.7,34.9,19.8,35.2,19.8z M29.4,18.8C29.4,18.8,29.4,18.8,29.4,18.8
		C29.4,18.8,29.4,18.8,29.4,18.8C29.4,18.8,29.4,18.9,29.4,18.8C29.4,18.9,29.4,18.8,29.4,18.8z M28,18.8c0.2,0,0.4,0,0.6,0
		c0.2,0,0.4,0,0.5,0v0c-0.2,0-0.4,0-0.5,0c-0.2,0-0.4,0-0.6,0V18.8z M6.3,22.8c0,0-0.2,0-0.2-0.1C6.2,22.6,6.2,22.6,6.3,22.8
		c0-0.1,0-0.1,0.2-0.1C6.4,22.7,6.4,22.8,6.3,22.8z M7.4,22.8L7.4,22.8L7.4,22.8z M6.8,22.2L6.8,22.2c-0.2,0-0.4,0-0.5-0.1
		c0,0,0,0,0.1-0.1h0.1c0,0,0.2,0,0.2,0c0.1,0,0.2,0,0.2,0h0.1c0.1,0.1,0.2,0.1,0.3,0.1c0.1,0,0.2,0,0.4,0h0.2
		C7.5,22.3,7.1,22.2,6.8,22.2z M12.6,23.2C12.6,23.2,12.6,23.2,12.6,23.2C12.6,23.2,12.6,23.2,12.6,23.2
		C12.6,23.2,12.6,23.1,12.6,23.2C12.6,23.1,12.6,23.2,12.6,23.2z M14,23.2c-0.2,0-0.4,0-0.6,0c-0.2,0-0.4,0-0.5,0v0
		c0.2,0,0.4,0,0.5,0c0.2,0,0.4,0,0.6,0V23.2z M19.3,20.6C19.3,20.6,19.3,20.6,19.3,20.6c-0.1,0-0.1,0-0.2,0c0,0,0,0,0,0
		C19.2,20.6,19.2,20.6,19.3,20.6C19.3,20.6,19.3,20.6,19.3,20.6z M20.6,22.5v-0.2c0,0,0.1,0,0.2,0c0,0,0,0.1,0,0.2
		C20.7,22.6,20.7,22.5,20.6,22.5z M20.8,21.4C20.7,21.3,20.7,21.4,20.8,21.4L20.8,21.4C20.7,21.3,20.7,21.3,20.8,21.4L20.8,21.4z
		 M21.2,19.6c0,0,0-0.1,0-0.2c0,0,0,0,0.1,0v0.2C21.3,19.6,21.3,19.6,21.2,19.6z M21.2,20.7L21.2,20.7
		C21.3,20.7,21.3,20.6,21.2,20.7L21.2,20.7C21.3,20.7,21.3,20.7,21.2,20.7z M22.7,21.4C22.7,21.4,22.7,21.4,22.7,21.4
		c0.1,0,0.1,0,0.2,0c0,0,0,0,0,0C22.8,21.4,22.8,21.4,22.7,21.4C22.7,21.4,22.7,21.4,22.7,21.4z M24.3,20.6h-0.2c0,0,0,0,0,0
		C24.1,20.6,24.2,20.6,24.3,20.6z M30.5,19.5c0,0,0.1,0,0.1,0l-0.3,0C30.4,19.5,30.4,19.5,30.5,19.5z M21.9,19.5h0.5
		c0.2,0,0.2,0,0.3,0c0.4,0,0.7,0,1,0h0.9c0.2,0,0.4,0,0.6,0h0.5c0.4,0,0.7,0,1.1,0c0.4,0,0.8,0,1.1,0l1.3-0.1c0.2,0,0.3,0,0.4,0H30
		l-1.1,0c-0.3,0-0.6,0-0.9,0H27c-0.3,0-0.6,0-1,0c-0.3,0-0.6,0-1,0c-0.2,0-0.2,0-0.4,0.1c-0.2,0-0.4,0-0.7,0c-0.1,0-0.2,0-0.3,0
		c-0.2,0-0.2,0-0.4,0c-0.1,0-0.2,0-0.3,0c-0.1,0-0.2,0-0.3,0c-0.2,0-0.4,0-0.6,0c-0.1,0-0.1,0-0.2,0C21.9,19.6,21.9,19.5,21.9,19.5z
		 M20.2,19.4c0.1,0,0.1,0,0.2,0c0,0,0,0,0,0.1c0,0-0.1,0-0.1,0C20.1,19.5,20.1,19.5,20.2,19.4z M20.2,20.6
		C20.3,20.7,20.2,20.7,20.2,20.6C20.3,20.7,20.3,20.7,20.2,20.6C20.3,20.7,20.2,20.7,20.2,20.6C20.2,20.7,20.2,20.7,20.2,20.6
		c-0.1,0.1-0.1,0.1-0.1,0.1c0,0,0-0.1,0-0.1C20.2,20.6,20.2,20.6,20.2,20.6z M19.9,19.4v0.1V19.4z M19.6,19C19.6,19,19.5,19,19.6,19
		C19.5,19,19.6,19,19.6,19z M17.1,19.3c0.5,0.1,0.9,0.1,1.3,0.1c0.3,0,0.7,0,1,0c0,0,0,0.1,0,0.2h-0.2c-0.2,0-0.4,0-0.6-0.1
		c-0.2,0-0.4,0-0.6,0c-0.2,0-0.4,0-0.6-0.1l-0.2,0L17.1,19.3z M15.5,18.8C15.5,18.8,15.5,18.8,15.5,18.8
		C15.5,18.8,15.5,18.8,15.5,18.8L15.5,18.8L15.5,18.8z M13.5,18.3L13.5,18.3c0.1,0,0.1,0,0.1,0h0.3v0c-0.1,0-0.2,0-0.2,0L13.5,18.3
		l-0.1,0C13.4,18.3,13.4,18.3,13.5,18.3z M12.7,18.4c0-0.1,0.1-0.1,0.2-0.1c0.1,0,0.1,0,0.2,0l0,0l0,0C13,18.4,12.8,18.4,12.7,18.4
		L12.7,18.4z M11.5,18.7c0,0,0.1,0,0.2,0.1L11.5,18.7C11.4,18.7,11.5,18.7,11.5,18.7z M17.7,21.4h0.2c0,0,0,0,0,0
		C17.9,21.4,17.8,21.4,17.7,21.4z M11.5,22.5c0,0-0.1,0-0.1,0l0.3,0C11.6,22.5,11.6,22.5,11.5,22.5z M20.1,22.5h-0.5
		c-0.2,0-0.2,0-0.3,0c-0.4,0-0.7,0-1,0h-0.9c-0.2,0-0.4,0-0.6,0h-0.5c-0.4,0-0.7,0-1.1,0c-0.4,0-0.8,0-1.1,0l-1.3,0.1
		c-0.2,0-0.3,0-0.4,0H12l1.1,0c0.3,0,0.6,0,0.9,0H15c0.3,0,0.6,0,1,0c0.3,0,0.6,0,1,0c0.2,0,0.2,0,0.4-0.1c0.2,0,0.4,0,0.7,0
		c0.1,0,0.2,0,0.3,0c0.2,0,0.2,0,0.4,0c0.1,0,0.2,0,0.3,0c0.1,0,0.2,0,0.3,0c0.2,0,0.4,0,0.6,0c0.1,0,0.1,0,0.2,0
		C20.1,22.4,20.1,22.5,20.1,22.5z M21.8,22.6c-0.1,0-0.1,0-0.2,0c0,0,0,0,0-0.1c0,0,0.1,0,0.1,0C21.9,22.5,21.9,22.5,21.8,22.6z
		 M21.8,21.4C21.7,21.3,21.8,21.3,21.8,21.4C21.7,21.3,21.7,21.3,21.8,21.4C21.7,21.3,21.8,21.3,21.8,21.4
		C21.8,21.3,21.8,21.3,21.8,21.4c0.1-0.1,0.1-0.1,0.1-0.1c0,0,0,0.1,0,0.1C21.8,21.4,21.8,21.4,21.8,21.4z M22.1,22.6v-0.1V22.6z
		 M22.4,23C22.4,23,22.5,23,22.4,23C22.5,23,22.4,23,22.4,23z M24.9,22.7c-0.5-0.1-0.9-0.1-1.3-0.1c-0.3,0-0.7,0-1,0
		c0,0,0-0.1,0-0.2h0.2c0.2,0,0.4,0,0.6,0.1c0.2,0,0.4,0,0.6,0c0.2,0,0.4,0,0.6,0.1l0.2,0L24.9,22.7z M26.5,23.2
		C26.5,23.2,26.5,23.2,26.5,23.2C26.5,23.2,26.5,23.2,26.5,23.2L26.5,23.2L26.5,23.2z M28.5,23.7L28.5,23.7c-0.1,0-0.1,0-0.1,0h-0.3
		v0c0.1,0,0.2,0,0.2,0L28.5,23.7l0.1,0C28.6,23.7,28.6,23.7,28.5,23.7z M29.3,23.6c0,0.1-0.1,0.1-0.2,0.1c-0.1,0-0.1,0-0.2,0l0,0
		l0,0C29,23.6,29.2,23.6,29.3,23.6L29.3,23.6z M30.5,23.3c0,0-0.1,0-0.2-0.1L30.5,23.3C30.6,23.3,30.5,23.3,30.5,23.3z"/>
	<path class="st0" d="M13.8,22.7L13.8,22.7c0.2,0,0.2,0,0.2,0c0,0,0.1,0,0.1,0v0C14.1,22.6,14,22.7,13.8,22.7L13.8,22.7z"/>
	<path class="st0" d="M8.5,22.6C8.5,22.6,8.5,22.6,8.5,22.6C8.5,22.6,8.5,22.6,8.5,22.6C8.5,22.6,8.5,22.6,8.5,22.6z"/>
	<path class="st0" d="M15.3,22.7c0,0,0.1,0,0.2,0C15.4,22.6,15.3,22.7,15.3,22.7c-0.1-0.1-0.1-0.1-0.1-0.1c0,0-0.1,0-0.1,0
		C15.1,22.7,15.2,22.7,15.3,22.7z"/>
	<path class="st0" d="M19,23.2c-0.1,0-0.3,0-0.4,0c-0.3,0-0.6,0-0.9,0l-0.1,0c0.2,0,0.5,0,0.7,0c0.4,0,0.9,0,1.4,0
		c-0.1,0-0.1,0-0.1,0c0,0-0.1,0-0.1,0C19.3,23.2,19.1,23.2,19,23.2z"/>
	<path class="st1" d="M26.6,23.3L26.6,23.3c-0.1,0-0.1,0-0.1,0"/>
	<line class="st1" x1="7.4" y1="22.8" x2="7.5" y2="22.8"/>
	<path class="st1" d="M22.5,23C22.5,23,22.4,23,22.5,23"/>
	<path class="st1" d="M12.6,23.1C12.6,23.1,12.6,23.2,12.6,23.1C12.6,23.2,12.6,23.2,12.6,23.1"/>
	<line class="st1" x1="22.1" y1="22.4" x2="22.1" y2="22.6"/>
</g>
<g>
	<path class="st0" d="M13.8,37.8L13.8,37.8c0.1,0,0.2,0,0.3,0h-0.4c-0.1,0-0.2,0-0.4,0h-1c0.2,0,0.4,0,0.6,0L13.8,37.8z"/>
	<path class="st0" d="M11.8,38.2c-0.1,0-0.1,0-0.2,0c-0.2,0-0.3,0-0.4,0c0,0,0,0,0,0h0c-0.1,0-0.2,0-0.2,0c0,0-0.1,0.1,0,0.2H11h0.2
		h0.3C11.6,38.3,11.8,38.3,11.8,38.2z"/>
	<path class="st0" d="M19.4,38.2c0-0.1,0.1-0.1,0.1-0.1h0.1c0,0,0.1,0,0.2-0.1c-0.1-0.1-0.2-0.1-0.4-0.1c-0.1,0-0.2,0-0.4,0
		c0,0.1,0,0.2,0,0.2c0,0,0,0-0.1,0c0,0,0,0-0.1,0c-0.1,0-0.2,0-0.3,0c-0.1,0-0.2,0-0.3,0c-0.1,0-0.2,0-0.2,0c-0.2,0-0.3,0-0.4,0
		c-0.2,0-0.3,0-0.4,0c-0.1,0-0.2,0-0.2,0l-0.1,0.1c0.2,0,0.5,0,0.7,0l0.1,0c0.3,0,0.6,0,0.9,0c0.2,0,0.3,0,0.4,0
		C19.1,38.3,19.3,38.3,19.4,38.2c0.1,0,0.1,0.1,0.1,0.1c0,0,0,0,0,0C19.5,38.3,19.5,38.2,19.4,38.2z"/>
	<path class="st0" d="M12.9,38.2L12.9,38.2c0.2,0.1,0.3,0.1,0.5,0c0.2,0,0.4,0,0.6,0v-0.1c-0.2,0-0.4,0-0.6,0
		C13.3,38.3,13.1,38.3,12.9,38.2z"/>
	<path class="st0" d="M21,38.3C21,38.3,21,38.3,21,38.3c0,0,0.1,0,0.1,0v0H21z"/>
	<path class="st0" d="M13.8,37.8l-0.3,0C13.7,37.8,13.8,37.9,13.8,37.8c0.1,0.1,0.2,0,0.2,0C14,37.8,14,37.8,13.8,37.8L13.8,37.8z"
		/>
	<path class="st0" d="M35.8,34.4c0,0,0.1,0,0.2,0C35.8,34.4,35.7,34.3,35.8,34.4c-0.1-0.1-0.2,0-0.2,0
		C35.6,34.4,35.7,34.4,35.8,34.4z"/>
	<path class="st0" d="M6.2,37.8c0,0-0.1,0-0.2,0C6.2,37.8,6.3,37.9,6.2,37.8c0.1,0.1,0.2,0,0.2,0C6.4,37.8,6.3,37.7,6.2,37.8z"/>
	<path class="st0" d="M21.8,38.3c-0.1,0-0.1,0-0.2,0v0.1c0,0,0.1,0,0.1,0C21.8,38.3,21.8,38.3,21.8,38.3z"/>
	<path class="st0" d="M7.9,37.3c-0.2,0-0.2,0-0.4,0c-0.1,0-0.2,0-0.3-0.1H7.1c-0.1,0-0.2,0-0.2,0c-0.1,0-0.2,0-0.2,0H6.5
		c-0.1,0-0.2,0-0.1,0.1c0.1,0,0.2,0.1,0.5,0.1h0c0.2,0,0.6,0,1.3,0H7.9z"/>
	<path class="st0" d="M29.1,33.9L29.1,33.9c-0.2-0.1-0.3-0.1-0.5,0c-0.2,0-0.4,0-0.6,0V34c0.2,0,0.4,0,0.6,0
		C28.7,33.9,28.9,33.9,29.1,33.9z"/>
	<path class="st0" d="M15.2,37.7c0,0-0.1,0-0.1,0C15.2,37.7,15.2,37.7,15.2,37.7C15.2,37.7,15.2,37.7,15.2,37.7z"/>
	<path class="st0" d="M34.1,34.9c0.2,0,0.2,0,0.4,0c0.1,0,0.2,0,0.3,0.1h0.1c0.1,0,0.2,0,0.2,0c0.1,0,0.2,0,0.2,0h0.1
		c0.1,0,0.2,0,0.1-0.1c-0.1,0-0.2-0.1-0.5-0.1c-0.2,0-0.6,0-1.3,0H34.1z"/>
	<path class="st0" d="M14.1,37.8C14.1,37.8,14.1,37.8,14.1,37.8c0,0.1-0.1,0.2,0,0.2c0.1,0,0.1,0,0.2,0c0-0.1,0.1-0.1,0.1-0.2h0.6
		c0.2,0,0.4,0,0.6,0c-0.1,0-0.3,0-0.4,0.1c-0.1,0-0.2,0-0.4,0c0,0,0-0.1-0.1,0c0,0-0.1,0-0.2,0.1v0c0.2,0,0.5,0,0.8,0
		c0.3,0,0.6,0,0.8,0c0,0,0-0.1,0,0l0,0c0-0.1,0,0,0,0c0,0,0,0,0-0.1c0,0,0-0.1,0.1,0c0,0,0.1,0,0.2,0H17c0.2,0,0.5,0,0.8,0H18
		c0.1,0,0.2,0,0.2,0c0,0-0.1,0-0.2,0c-0.2,0-0.3,0-0.4,0h-0.5c-0.2,0-0.7,0-0.7,0h-0.7c-0.1,0-0.3,0-0.4,0.1c0.1,0,0.1,0,0.2,0
		c-0.1,0-0.2,0-0.2,0c0,0-0.2,0-0.2,0c0,0,0.1,0,0.1,0c-0.1,0-0.3,0-0.4,0L14.1,37.8L14.1,37.8C14.2,37.8,14.1,37.8,14.1,37.8z"/>
	<path class="st0" d="M27.9,34.4C27.9,34.4,27.9,34.4,27.9,34.4c0-0.1,0.1-0.2,0-0.2c-0.1,0-0.1,0-0.2,0c0,0.1-0.1,0.1-0.1,0.2h-0.6
		c-0.2,0-0.4,0-0.6,0c0.1,0,0.3,0,0.4-0.1c0.1,0,0.2,0,0.4,0c0,0,0,0.1,0.1,0c0,0,0.1,0,0.2-0.1v0c-0.2,0-0.5,0-0.8,0
		c-0.3,0-0.6,0-0.8,0c0,0,0,0.1,0,0l0,0c0,0.1,0,0,0,0c0,0,0,0,0,0.1c0,0,0,0.1-0.1,0c0,0-0.1,0-0.2,0H25c-0.2,0-0.5,0-0.8,0H24
		c-0.1,0-0.2,0-0.2,0c0,0,0.1,0,0.2,0c0.2,0,0.3,0,0.4,0h0.5c0.2,0,0.7,0,0.7,0h0.7c0.1,0,0.3,0,0.4-0.1c-0.1,0-0.1,0-0.2,0
		c0.1,0,0.2,0,0.2,0c0,0,0.2,0,0.2,0c0,0-0.1,0-0.1,0c0.1,0,0.3,0,0.4,0L27.9,34.4L27.9,34.4C27.8,34.4,27.9,34.4,27.9,34.4z"/>
	<path class="st0" d="M28.2,34.4l0.3,0C28.3,34.4,28.2,34.3,28.2,34.4c-0.1-0.1-0.2,0-0.2,0C28,34.4,28,34.4,28.2,34.4L28.2,34.4z"
		/>
	<path class="st0" d="M33.2,34.5h-0.1l-0.8,0h1c0.1,0,0.1,0,0.2,0c0.1,0,0.1,0,0.1,0c0-0.1-0.1-0.1-0.1-0.1c0,0,0,0-0.1,0
		c0,0-0.1,0-0.1,0C33.3,34.5,33.3,34.5,33.2,34.5z"/>
	<path class="st0" d="M26.8,34.4c0,0,0.1,0,0.1,0C26.8,34.4,26.8,34.4,26.8,34.4C26.8,34.4,26.8,34.4,26.8,34.4z"/>
	<path class="st0" d="M31,34.6c0,0-0.1,0-0.1,0L31,34.6c0.4,0,0.8,0,1.2,0h0.1c-0.2,0-0.5,0-0.7,0C31.3,34.6,31.2,34.6,31,34.6z"/>
	<path class="st0" d="M20.2,33.9c0.1,0,0.1,0,0.2,0v-0.1c0,0-0.1,0-0.1,0C20.2,33.8,20.2,33.9,20.2,33.9z"/>
	<path class="st0" d="M21,33.9C21,33.8,21,33.8,21,33.9c0,0-0.1,0-0.1,0v0H21z"/>
	<path class="st0" d="M8.8,37.6h0.1l0.8,0h-1c-0.1,0-0.1,0-0.2,0c-0.1,0-0.1,0-0.1,0c0,0.1,0.1,0.1,0.1,0.1c0,0,0,0,0.1,0
		c0,0,0.1,0,0.1,0C8.7,37.7,8.7,37.7,8.8,37.6z"/>
	<path class="st0" d="M28.2,34.4L28.2,34.4c-0.1,0-0.2,0-0.3,0h0.4c0.1,0,0.2,0,0.4,0h1c-0.2,0-0.4,0-0.6,0L28.2,34.4z"/>
	<path class="st0" d="M11,37.6c0,0,0.1,0,0.1,0L11,37.6c-0.4,0-0.8,0-1.2,0H9.7c0.2,0,0.5,0,0.7,0C10.7,37.6,10.8,37.6,11,37.6z"/>
	<path class="st0" d="M22.6,33.9c0,0.1-0.1,0.1-0.1,0.1h-0.1c0,0-0.1,0-0.2,0.1c0.1,0.1,0.2,0.1,0.4,0.1s0.2,0,0.4,0
		c0-0.1,0-0.2,0-0.2c0,0,0,0,0.1,0c0,0,0,0,0.1,0c0.1,0,0.2,0,0.3,0c0.1,0,0.2,0,0.3,0c0.1,0,0.2,0,0.2,0c0.2,0,0.3,0,0.4,0
		c0.2,0,0.3,0,0.4,0c0.1,0,0.2,0,0.2,0l0.1-0.1c-0.2,0-0.5,0-0.7,0l-0.1,0c-0.3,0-0.6,0-0.9,0c-0.2,0-0.3,0-0.4,0
		C22.9,33.9,22.7,33.9,22.6,33.9c-0.1,0-0.1-0.1-0.1-0.1c0,0,0,0,0,0C22.5,33.9,22.5,33.9,22.6,33.9z"/>
	<path class="st0" d="M30.2,34c0.1,0,0.1,0,0.2,0c0.2,0,0.3,0,0.4,0c0,0,0,0,0,0h0c0.1,0,0.2,0,0.2,0s0.1-0.1,0-0.2H31h-0.2h-0.3
		C30.4,33.8,30.2,33.8,30.2,34z"/>
	<path class="st0" d="M22.9,36.5C22.9,36.5,22.9,36.5,22.9,36.5c0,0-0.1,0-0.1,0c0,0,0,0-0.1,0c0,0,0,0,0,0
		C22.8,36.5,22.8,36.5,22.9,36.5z"/>
	<path class="st0" d="M11.4,37.6c0,0,0.1,0,0.1,0c0.1,0,0.1,0,0.2,0L11.4,37.6z"/>
	<path class="st0" d="M17.9,36.5h-0.2C17.8,36.5,17.9,36.5,17.9,36.5C17.9,36.5,17.9,36.5,17.9,36.5z"/>
	<path class="st0" d="M12,37.6h0.3c0.2,0,0.3,0,0.4,0l1.3-0.1c-0.3,0-0.6,0-0.9,0L12,37.6z"/>
	<path class="st0" d="M13,33.5L13,33.5L13,33.5c0-0.1-0.1-0.1-0.2-0.1c0,0-0.1,0-0.2,0.1v0C12.8,33.5,13,33.5,13,33.5z"/>
	<path class="st0" d="M11.5,33.8C11.5,33.8,11.4,33.8,11.5,33.8l0.2,0.1C11.6,33.9,11.5,33.9,11.5,33.8z"/>
	<path class="st0" d="M13.6,33.5c0.1,0,0.2,0,0.2,0v0L13.6,33.5c-0.1-0.1-0.1-0.1-0.1-0.1h0c0,0-0.1,0-0.1,0l0,0H13.6z"/>
	<path class="st0" d="M19.3,37.4c-0.1,0-0.2,0-0.3,0c-0.1,0-0.2,0-0.3,0c-0.1,0-0.2,0-0.4,0c-0.1,0-0.2,0-0.3,0
		c-0.2-0.1-0.5-0.1-0.7,0c-0.2,0.1-0.2,0.1-0.4,0.1c-0.3,0-0.6,0-1,0c-0.3,0-0.6,0-1,0h-0.9c0.4,0,0.8,0,1.1,0c0.4,0,0.8,0,1.1,0
		h0.5c0.2,0,0.4,0,0.6,0h0.9c0.3,0,0.6,0,1,0c0.1,0,0.2,0,0.3,0h0.5c0,0,0-0.1,0-0.2c-0.1,0-0.1,0-0.2,0
		C19.7,37.5,19.5,37.5,19.3,37.4z"/>
	<path class="st0" d="M21.9,36.4C21.9,36.4,21.8,36.4,21.9,36.4c-0.1,0-0.1,0-0.1,0c0,0,0,0,0,0c0,0,0,0,0,0c0,0,0,0,0,0
		c0,0,0.1,0,0.1,0C21.8,36.4,21.9,36.4,21.9,36.4z"/>
	<path class="st0" d="M30.5,38.4C30.5,38.4,30.6,38.4,30.5,38.4l-0.2-0.1C30.4,38.3,30.5,38.3,30.5,38.4z"/>
	<path class="st0" d="M19.1,35.7C19.1,35.7,19.1,35.7,19.1,35.7c0,0,0.1,0,0.1,0c0,0,0,0,0.1,0c0,0,0,0,0,0
		C19.2,35.7,19.2,35.7,19.1,35.7z"/>
	<path class="st0" d="M28.4,38.7c-0.1,0-0.2,0-0.2,0v0L28.4,38.7c0.1,0.1,0.1,0.1,0.1,0.1h0c0,0,0.1,0,0.1,0l0,0H28.4z"/>
	<path class="st0" d="M24.2,37.6c-0.2,0-0.4,0-0.6,0s-0.4-0.1-0.6-0.1h-0.2c0,0,0,0.1,0,0.2c0.3,0,0.7,0,1,0c0.4,0,0.8,0,1.3,0.1
		l0-0.1l-0.2,0C24.6,37.6,24.4,37.7,24.2,37.6z"/>
	<path class="st0" d="M21.7,37.5C21.7,37.6,21.7,37.6,21.7,37.5c0,0.1,0,0.1,0.1,0.1c0,0,0-0.1,0-0.1C21.8,37.5,21.8,37.5,21.7,37.5
		z"/>
	<path class="st0" d="M17.8,34.5c0.2,0,0.4,0,0.6,0c0.2,0,0.4,0.1,0.6,0.1h0.2c0,0,0-0.1,0-0.2c-0.3,0-0.7,0-1,0
		c-0.4,0-0.8,0-1.3-0.1l0,0.1l0.2,0C17.4,34.5,17.6,34.5,17.8,34.5z"/>
	<path class="st0" d="M29,38.7L29,38.7L29,38.7c0,0.1,0.1,0.1,0.2,0.1c0,0,0.1,0,0.2-0.1v0C29.2,38.7,29,38.7,29,38.7z"/>
	<path class="st0" d="M30,34.6h-0.3c-0.2,0-0.3,0-0.4,0l-1.3,0.1c0.3,0,0.6,0,0.9,0L30,34.6z"/>
	<path class="st0" d="M30.6,34.6c0,0-0.1,0-0.1,0c-0.1,0-0.1,0-0.2,0L30.6,34.6z"/>
	<path class="st0" d="M24.1,35.7h0.2C24.2,35.7,24.1,35.7,24.1,35.7C24.1,35.7,24.1,35.7,24.1,35.7z"/>
	<path class="st0" d="M21.2,35.7L21.2,35.7C21.3,35.8,21.3,35.8,21.2,35.7L21.2,35.7C21.3,35.7,21.3,35.8,21.2,35.7z"/>
	<path class="st0" d="M20.7,36.4C20.7,36.4,20.7,36.4,20.7,36.4L20.7,36.4C20.7,36.4,20.7,36.4,20.7,36.4L20.7,36.4z"/>
	<path class="st0" d="M21.4,34.6c-0.1,0-0.1,0-0.1,0c0,0,0,0.1,0,0.2c0.1,0,0.1,0,0.2,0V34.6z"/>
	<path class="st0" d="M20.3,34.7C20.3,34.6,20.3,34.6,20.3,34.7c0-0.1,0-0.1-0.1-0.1c0,0,0,0.1,0,0.1C20.2,34.7,20.2,34.7,20.3,34.7
		z"/>
	<path class="st0" d="M20.8,37.5c-0.1,0-0.1,0-0.2,0v0.2c0.1,0,0.1,0,0.1,0C20.8,37.6,20.8,37.5,20.8,37.5z"/>
	<path class="st0" d="M20.1,35.8C20.1,35.8,20.2,35.8,20.1,35.8c0.1,0,0.1,0,0.1,0c0,0,0,0,0,0c0,0,0,0,0,0c0,0,0,0,0,0
		c0,0-0.1,0-0.1,0C20.2,35.7,20.1,35.8,20.1,35.8z"/>
	<path class="st0" d="M22.7,34.8c0.1,0,0.2,0,0.3,0c0.1,0,0.2,0,0.3,0c0.1,0,0.2,0,0.4,0c0.1,0,0.2,0,0.3,0c0.2,0.1,0.5,0.1,0.7,0
		c0.2-0.1,0.2-0.1,0.4-0.1c0.3,0,0.6,0,1,0c0.3,0,0.6,0,1,0h0.9c-0.4,0-0.8,0-1.1,0c-0.4,0-0.8,0-1.1,0h-0.5c-0.2,0-0.4,0-0.6,0
		h-0.9c-0.3,0-0.6,0-1,0c-0.1,0-0.2,0-0.3,0h-0.5c0,0,0,0.1,0,0.2c0.1,0,0.1,0,0.2,0C22.3,34.7,22.5,34.7,22.7,34.8z"/>
	<line class="st1" x1="31" y1="33.9" x2="30.8" y2="33.9"/>
	<path class="st0" d="M33.5,34.5C33.5,34.5,33.5,34.5,33.5,34.5C33.5,34.5,33.5,34.5,33.5,34.5C33.5,34.5,33.5,34.5,33.5,34.5z"/>
	<path class="st0" d="M23,33.9c0.1,0,0.3,0,0.4,0c0.3,0,0.6,0,0.9,0l0.1,0c-0.2,0-0.5,0-0.7,0c-0.4,0-0.9,0-1.4,0c0.1,0,0.1,0,0.1,0
		c0,0,0.1,0,0.1,0C22.7,33.9,22.9,33.9,23,33.9z"/>
	<path class="st0" d="M26.7,34.4c0,0-0.1,0-0.2,0C26.6,34.4,26.7,34.4,26.7,34.4c0.1,0.1,0.1,0.1,0.1,0.1c0,0,0.1,0,0.1,0
		C26.9,34.4,26.8,34.4,26.7,34.4z"/>
	<path class="st0" d="M28.2,34.4L28.2,34.4c-0.2,0-0.2,0-0.2,0c0,0-0.1,0-0.1,0v0C27.9,34.4,28,34.4,28.2,34.4L28.2,34.4z"/>
	<path class="st0" d="M20.3,33.7c0,0-0.1,0-0.2,0c0,0,0,0,0,0C20.2,33.8,20.3,33.8,20.3,33.7L20.3,33.7z"/>
	<path class="st0" d="M21,33.8c0,0-0.1,0-0.2,0v0.1C20.9,33.8,21,33.8,21,33.8C21,33.8,21,33.8,21,33.8z"/>
	<line class="st1" x1="34.6" y1="34.3" x2="34.5" y2="34.3"/>
	<path class="st1" d="M15.4,33.8L15.4,33.8c0.1,0,0.1,0,0.1,0"/>
	<path class="st1" d="M19.5,34.1C19.5,34.1,19.6,34.1,19.5,34.1"/>
	<line class="st1" x1="19.9" y1="34.7" x2="19.9" y2="34.5"/>
	<path class="st1" d="M29.4,33.9C29.4,33.9,29.4,33.9,29.4,33.9C29.4,33.9,29.4,33.9,29.4,33.9"/>
	<line class="st1" x1="11" y1="38.3" x2="11.2" y2="38.3"/>
	<path class="st0" d="M21.7,38.4c0,0,0.1,0,0.2,0c0,0,0,0,0,0C21.8,38.4,21.7,38.4,21.7,38.4L21.7,38.4z"/>
	<path class="st0" d="M21,38.4c0,0,0.1,0,0.2,0v-0.1C21.1,38.4,21,38.4,21,38.4C21,38.4,21,38.4,21,38.4z"/>
	<path class="st0" d="M38.9,35.7c0,0-0.1-0.1-0.1-0.3l-1.4,0.1c0,0-0.1,0-0.2,0c0,0,0,0-0.1,0h-1.5c-0.1,0-0.2,0-0.2,0h-0.6
		c-0.2,0-0.2,0-0.4,0.1c-0.2,0-0.3,0-0.4,0h-1.2l-0.2,0h-0.2c0,0-0.2,0-0.2,0c-0.3,0-0.5,0-0.8,0c-0.3,0-0.5,0-0.8,0
		c0,0-0.1,0-0.2,0c-0.1,0-0.3,0-0.4,0c-0.2,0-0.3,0-0.4,0c0,0-0.2,0-0.2,0c0,0-0.2,0-0.2,0h0c0,0,0,0-0.1,0c-0.2,0-0.3,0-0.4,0H28
		c-0.1,0-0.2,0-0.3,0c-0.1,0-0.2,0-0.3,0c0,0-0.2,0-0.2,0c-0.1,0-0.2,0-0.2,0h-0.4c-0.2,0-0.2,0-0.4-0.1c0,0-0.1,0-0.2,0
		c-0.1,0-0.2,0-0.3,0c-0.1,0-0.2,0-0.3,0.1c-0.1,0.1-0.3,0.1-0.4,0c0,0-0.2-0.1-0.3,0c0,0,0,0.1,0,0c0,0,0.1,0,0.1,0.1
		c-0.1,0-0.2,0-0.3,0c0,0,0.1-0.1,0.1-0.1c-0.2,0-0.3-0.1-0.4,0c-0.2,0-0.3,0-0.4,0h-0.5c-0.2,0-0.3,0-0.4,0c-0.2,0-0.3,0-0.4,0
		c-0.2,0-0.3,0-0.4,0v-0.1c0.4,0,0.8,0,1.3,0c0.6,0,1.2,0,1.8,0c0.6,0,1.3,0,1.9,0h1.9c0,0,0.1,0,0.2,0c0.2,0.1,0.2,0.1,0.4,0.1
		c0,0,0.2,0,0.3-0.1c0,0-0.1,0-0.2,0c0.2,0,0.4,0,0.6,0c0.3,0,0.5,0,0.8-0.1l0,0c0.2,0,0.2,0,0.4,0h0.4c0.4,0,0.7,0,1.1,0
		c0.4,0,0.7,0,1.1,0h3c0,0,0,0,0,0l0,0c0,0,0,0-0.1,0c0,0,0,0-0.1,0h-0.2c-0.1,0-0.2,0-0.2,0h-0.2c0,0-0.1,0-0.1,0c0,0-0.1,0-0.1,0
		l0.2-0.2c0,0,0.2,0,0.2,0c0.2,0,0.3,0,0.4,0h0.4c0.2,0,0.2,0,0.4,0c0.1,0,0.2,0,0.4-0.1c-0.6,0-1.3-0.1-1.9-0.1
		c-0.6,0-1.3,0-1.9-0.1c0.5,0,0.9,0,1.4,0c0.4,0,0.9,0,1.4,0c-0.2,0-0.2,0-0.2,0c0,0-0.2,0-0.2,0c0,0-0.1,0-0.1,0c0,0-0.1,0-0.2-0.1
		c0.2,0,0.4,0,0.5,0h1.8c0,0,0.1,0,0.2,0c0.1,0,0.1,0,0.2,0c-0.2,0-0.5-0.1-0.8,0c-0.2,0-0.4,0-0.6,0H37c-0.4,0-0.7,0-1.1-0.1
		c-0.4,0-0.7,0-1.1,0c-0.2,0-0.3,0-0.4,0c-0.2,0-0.3,0-0.4,0h-0.1l0,0c-0.1,0-0.1,0.1-0.1,0.1c0,0.1-0.1,0.1-0.1,0.1
		c0,0,0.1,0,0.1,0.1c0,0,0,0-0.1,0c0,0-0.1,0-0.2,0h-1h-0.1c-0.4,0-0.7,0-1.1,0l-0.2,0c0,0,0.1,0,0.1,0c0.2,0,0.3,0,0.6,0
		c0.2,0,0.5,0,0.7,0l0.8,0h0.1c0,0,0.1,0,0.1,0c0,0,0.1,0,0.1,0c0,0,0,0,0,0h-0.3c0,0-0.2,0-0.2,0c-0.1,0-0.2,0-0.2,0
		c0,0,0-0.1,0.1-0.1c0,0,0,0,0-0.1c0,0-0.2,0-0.3,0h-0.2H32h-0.8v0l-0.1,0h-0.6c-0.2,0-0.3,0-0.4,0.1c0,0,0.2,0.1,0.2,0
		c0,0,0.2,0,0.2,0l0,0c-0.2,0-0.3,0-0.4,0l-0.5,0l0,0l0,0h0.1c0,0,0,0,0,0c0,0,0,0,0,0h-0.2h-1c-0.2,0-0.2,0-0.4,0h-0.4h-0.5
		c-0.1,0-0.3,0-0.4,0c0,0-0.1,0-0.1,0c0,0,0,0,0,0c-0.1,0-0.3,0-0.4,0.1h-0.7c0,0-0.5,0-0.7,0h-0.5c-0.2,0-0.3,0-0.4,0
		c0,0-0.1,0-0.2,0c0,0,0.1,0,0.2,0h0.2c0.2,0,0.5,0,0.8,0h0.8c0,0,0.1,0,0.2,0c0,0,0,0,0.1,0c0,0,0,0,0-0.1c0,0,0,0,0,0l0,0
		c0,0,0,0,0,0c0.3,0,0.6,0,0.8,0c0.3,0,0.6,0,0.8,0v0c-0.1,0-0.2,0-0.2,0.1c0,0,0,0-0.1,0c-0.2,0-0.3,0-0.4,0
		c-0.1,0-0.2,0.1-0.4,0.1c0.2,0,0.4,0,0.6,0h0.6c0,0,0.1-0.1,0.1-0.2c0,0,0.1,0,0.2,0c0,0,0,0.1,0,0.2c0,0,0,0,0,0
		c0.1,0,0.1,0,0.2-0.1c0,0,0.2,0,0.3,0l-0.3,0l0.9,0c0.2,0,0.4,0,0.6,0c0.1,0,0.2,0,0.2,0c0,0,0.1,0,0.2-0.1l0.1-0.2c0,0,0,0,0,0h0
		c0.2,0,0.3,0,0.4,0c0.2,0,0.3,0,0.4,0h0.4c0,0,0.2,0,0.2-0.1l0,0c0,0-0.1,0-0.1,0l0,0c0,0.1-0.1,0.2-0.1,0.1c0,0,0,0-0.1,0
		c-0.1-0.1-0.2-0.2-0.4-0.2h0.2c0,0.1,0,0.2,0,0.2s-0.2,0-0.2,0h0c0,0,0,0,0,0c-0.2,0-0.3,0-0.4,0c-0.1,0-0.1,0-0.2,0
		c0.1-0.1,0.2-0.1,0.4-0.1h0.3c-0.4,0-0.6,0-0.9,0l-0.9,0l-1.6,0c-0.1,0-0.2,0-0.3,0c-0.1,0-0.2,0-0.3,0c-0.2,0-0.5,0-0.7,0
		c-0.2,0-0.5,0-0.7,0l-0.8,0c0.2,0,0.5,0,0.7,0L25.1,34c-0.1,0-0.2,0-0.2,0c-0.1,0-0.3,0-0.4,0c-0.1,0-0.3,0-0.4,0
		c-0.1,0-0.2,0-0.2,0c-0.1,0-0.2,0-0.3,0c-0.1,0-0.2,0-0.3,0c0,0,0,0-0.1,0c0,0,0,0-0.1,0c0,0,0,0.1,0,0.2c-0.2,0-0.3,0-0.4,0
		s-0.2,0-0.4-0.1c0.1,0,0.1-0.1,0.2-0.1h0.1c0,0,0.1,0,0.1-0.1c0,0-0.1,0-0.1,0c0,0,0,0,0,0c0,0-0.1,0-0.1,0c-0.1,0-0.3,0-0.4,0
		h-0.6c-0.1,0-0.1,0-0.2,0c0,0,0,0,0,0h-0.1v0c-0.2,0-0.4,0-0.6,0v0.1c0,0-0.1,0-0.2,0c0,0,0-0.1,0-0.1c-0.3,0-0.6,0-0.9-0.1
		c0,0,0,0,0,0c0,0,0.1,0.1,0.1,0c0,0,0,0,0,0.1c-0.4,0-0.8,0-1.1-0.1c-0.4,0-0.8,0-1.2-0.1c-0.2,0-0.5,0-0.8,0c-0.2,0-0.5,0-0.7-0.1
		c-0.2,0-0.3,0-0.4,0h-0.4c0,0,0,0-0.1,0c0,0,0,0,0,0c0,0,0.1-0.1,0.1-0.1c0.2,0,0.4,0,0.6,0H16c0.2,0,0.2,0,0.4,0h0.4
		c0.2,0,0.5,0,0.8,0c0.2,0,0.5,0,0.7,0c0.2,0,0.2,0,0.4,0h0.4l0.1,0h0c-0.1-0.1-0.2-0.1-0.3-0.1c-0.1,0-0.2,0-0.3,0
		c-0.3,0-0.6-0.1-0.9-0.1c-0.3,0-0.6-0.1-0.9-0.1c-0.4,0-0.8,0-1.2-0.1h-1.1c-0.2,0-0.3,0-0.5,0h-0.5c-0.2,0-0.4,0-0.6,0H12
		c-0.6,0-1.2,0.1-1.7,0.2l-1.7,0.1c-0.5,0-1,0.1-1.6,0.3c-0.2,0-0.4,0.1-0.6,0.1C6.1,34,5.9,34,5.7,34c-0.2,0-0.5,0.1-0.8,0.1
		c-0.1,0.1-0.2,0.1-0.3,0.2c0,0-0.1,0-0.1,0.1c0,0-0.1,0-0.2,0H4.2c-0.1,0-0.2,0-0.2,0c0,0-0.1,0-0.2,0c0,0-0.1,0-0.1,0.1h0
		c0,0,0,0.1,0,0.1c0,0,0,0.1,0,0.1c-0.1,0.1-0.1,0.1-0.1,0.1c0,0,0,0.1,0.1,0.2c0,0-0.1,0-0.2,0c0,0-0.1,0-0.2,0.1
		c-0.1,0-0.2,0.1-0.2,0.1c0,0.1-0.1,0.2-0.2,0.3C3,36,3,36.1,3.1,36.2c0,0.1,0.1,0.2,0.1,0.3c0,0,0.1,0.1,0.1,0.3l1.4-0.1
		c0,0,0.1,0,0.2,0c0,0,0,0,0.1,0h1.5c0.1,0,0.2,0,0.2,0h0.6c0.2,0,0.2,0,0.4-0.1c0.2,0,0.3,0,0.4,0h1.2l0.2,0h0.2c0,0,0.2,0,0.2,0
		c0.3,0,0.5,0,0.8,0c0.3,0,0.5,0,0.8,0c0,0,0.1,0,0.2,0c0.1,0,0.3,0,0.4,0c0.2,0,0.3,0,0.4,0c0,0,0.2,0,0.2,0c0,0,0.2,0,0.2,0h0
		c0,0,0,0,0.1,0c0.2,0,0.3,0,0.4,0H14c0.1,0,0.2,0,0.3,0c0.1,0,0.2,0,0.3,0c0,0,0.2,0,0.2,0c0.1,0,0.2,0,0.2,0h0.4
		c0.2,0,0.2,0,0.4,0.1c0,0,0.1,0,0.2,0c0.1,0,0.2,0,0.3,0c0.1,0,0.2,0,0.3-0.1c0.1-0.1,0.3-0.1,0.4,0c0,0,0.2,0.1,0.3,0
		c0,0,0-0.1,0,0c0,0-0.1,0-0.1-0.1c0.1,0,0.2,0,0.3,0c0,0-0.1,0.1-0.1,0.1c0.2,0,0.3,0.1,0.4,0c0.2,0,0.3,0,0.4,0h0.5
		c0.2,0,0.3,0,0.4,0c0.2,0,0.3,0,0.4,0c0.2,0,0.3,0,0.4,0v0.1c-0.4,0-0.8,0-1.3,0c-0.6,0-1.2,0-1.8,0c-0.6,0-1.3,0-1.9,0h-1.9
		c0,0-0.1,0-0.2,0c-0.2-0.1-0.2-0.1-0.4-0.1c0,0-0.2,0-0.3,0.1c0,0,0.1,0,0.2,0c-0.2,0-0.4,0-0.6,0c-0.3,0-0.5,0-0.8,0.1l0,0
		c-0.2,0-0.2,0-0.4,0h-0.4c-0.4,0-0.7,0-1.1,0c-0.4,0-0.7,0-1.1,0h-3c0,0,0,0,0,0l0,0c0,0,0,0,0.1,0c0,0,0,0,0.1,0h0.2
		c0.1,0,0.2,0,0.2,0h0.2c0,0,0.1,0,0.1,0c0,0,0.1,0,0.1,0l-0.2,0.2c0,0-0.2,0-0.2,0c-0.2,0-0.3,0-0.4,0H4.7c-0.2,0-0.2,0-0.4,0
		c-0.1,0-0.2,0-0.4,0.1c0.6,0,1.3,0.1,1.9,0.1c0.6,0,1.3,0,1.9,0.1c-0.5,0-0.9,0-1.4,0c-0.4,0-0.9,0-1.4,0c0.2,0,0.2,0,0.2,0
		c0,0,0.2,0,0.2,0c0,0,0.1,0,0.1,0c0,0,0.1,0,0.2,0.1c-0.2,0-0.4,0-0.5,0H3.4c0,0-0.1,0-0.2,0c-0.1,0-0.1,0-0.2,0
		c0.2,0,0.5,0.1,0.8,0c0.2,0,0.4,0,0.6,0H5c0.4,0,0.7,0,1.1,0.1c0.4,0,0.7,0,1.1,0c0.2,0,0.3,0,0.4,0c0.2,0,0.3,0,0.4,0h0.1l0,0
		c0.1,0,0.1-0.1,0.1-0.1c0-0.1,0.1-0.1,0.1-0.1c0,0-0.1,0-0.1-0.1c0,0,0,0,0.1,0c0,0,0.1,0,0.2,0h1h0.1c0.4,0,0.7,0,1.1,0l0.2,0
		c0,0-0.1,0-0.1,0c-0.2,0-0.3,0-0.6,0c-0.2,0-0.5,0-0.7,0l-0.8,0H8.8c0,0-0.1,0-0.1,0c0,0-0.1,0-0.1,0c0,0,0,0,0,0h0.3
		c0,0,0.2,0,0.2,0c0.1,0,0.2,0,0.2,0c0,0,0,0.1-0.1,0.1c0,0,0,0,0,0.1c0,0,0.2,0,0.3,0h0.2H10h0.8v0l0.1,0h0.6c0.2,0,0.3,0,0.4-0.1
		c0,0-0.2-0.1-0.2,0c0,0-0.2,0-0.2,0l0,0c0.2,0,0.3,0,0.4,0l0.5,0l0,0l0,0h-0.1c0,0,0,0,0,0c0,0,0,0,0,0h0.2h1c0.2,0,0.2,0,0.4,0
		h0.4h0.5c0.1,0,0.3,0,0.4,0c0,0,0.1,0,0.1,0c0,0,0,0,0,0c0.1,0,0.3,0,0.4-0.1h0.7c0,0,0.5,0,0.7,0h0.5c0.2,0,0.3,0,0.4,0
		c0,0,0.1,0,0.2,0c0,0-0.1,0-0.2,0h-0.2c-0.2,0-0.5,0-0.8,0h-0.8c0,0-0.1,0-0.2,0c0,0,0,0-0.1,0c0,0,0,0,0,0.1c0,0,0,0,0,0l0,0
		c0,0,0,0,0,0c-0.3,0-0.6,0-0.8,0c-0.3,0-0.6,0-0.8,0v0c0.1,0,0.2,0,0.2-0.1c0,0,0,0,0.1,0c0.2,0,0.3,0,0.4,0c0.1,0,0.2-0.1,0.4-0.1
		c-0.2,0-0.4,0-0.6,0h-0.6c0,0-0.1,0.1-0.1,0.2c0,0-0.1,0-0.2,0c0,0,0-0.1,0-0.2c0,0,0,0,0,0c-0.1,0-0.1,0-0.2,0.1c0,0-0.2,0-0.3,0
		l0.3,0l-0.9,0c-0.2,0-0.4,0-0.6,0c-0.1,0-0.2,0-0.2,0c0,0-0.1,0-0.2,0.1L12,38.1c0,0,0,0,0,0h0c-0.2,0-0.3,0-0.4,0
		c-0.2,0-0.3,0-0.4,0h-0.4c0,0-0.2,0-0.2,0.1l0,0c0,0,0.1,0,0.1,0l0,0c0-0.1,0.1-0.2,0.1-0.1c0,0,0,0,0.1,0c0.1,0.1,0.2,0.2,0.4,0.2
		h-0.2c0-0.1,0-0.2,0-0.2c0,0,0.2,0,0.2,0h0c0,0,0,0,0,0c0.2,0,0.3,0,0.4,0c0.1,0,0.1,0,0.2,0c-0.1,0.1-0.2,0.1-0.4,0.1h-0.3
		c0.4,0,0.6,0,0.9,0l0.9,0l1.6,0c0.1,0,0.2,0,0.3,0c0.1,0,0.2,0,0.3,0c0.2,0,0.5,0,0.7,0c0.2,0,0.5,0,0.7,0l0.8,0
		c-0.2,0-0.5,0-0.7,0l0.1-0.1c0.1,0,0.2,0,0.2,0c0.1,0,0.3,0,0.4,0c0.1,0,0.3,0,0.4,0c0.1,0,0.2,0,0.2,0c0.1,0,0.2,0,0.3,0
		c0.1,0,0.2,0,0.3,0c0,0,0,0,0.1,0c0,0,0,0,0.1,0c0,0,0-0.1,0-0.2c0.2,0,0.3,0,0.4,0c0.1,0,0.2,0,0.4,0.1c-0.1,0-0.1,0.1-0.2,0.1
		h-0.1c0,0-0.1,0-0.1,0.1c0,0,0.1,0,0.1,0c0,0,0,0,0,0c0,0,0.1,0,0.1,0c0.1,0,0.3,0,0.4,0h0.6c0.1,0,0.1,0,0.2,0c0,0,0,0,0,0h0.1v0
		c0.2,0,0.4,0,0.6,0v-0.1c0,0,0.1,0,0.2,0c0,0,0,0.1,0,0.1c0.3,0,0.6,0,0.9,0.1c0,0,0,0,0,0c0,0-0.1-0.1-0.1,0c0,0,0,0,0-0.1
		c0.4,0,0.8,0,1.1,0.1c0.4,0,0.8,0,1.2,0.1c0.2,0,0.5,0,0.8,0c0.2,0,0.5,0,0.7,0.1c0.2,0,0.3,0,0.4,0h0.4c0,0,0,0,0.1,0c0,0,0,0,0,0
		c0,0-0.1,0.1-0.1,0.1c-0.2,0-0.4,0-0.6,0H26c-0.2,0-0.2,0-0.4,0h-0.4c-0.2,0-0.5,0-0.8,0c-0.2,0-0.5,0-0.7,0c-0.2,0-0.2,0-0.4,0
		h-0.4l-0.1,0h0c0.1,0.1,0.2,0.1,0.3,0.1c0.1,0,0.2,0,0.3,0c0.3,0,0.6,0.1,0.9,0.1c0.3,0,0.6,0.1,0.9,0.1c0.4,0,0.8,0,1.2,0.1h1.1
		c0.2,0,0.3,0,0.5,0h0.5c0.2,0,0.4,0,0.6,0H30c0.6,0,1.2-0.1,1.7-0.2l1.7-0.1c0.5,0,1-0.1,1.6-0.3c0.2,0,0.4-0.1,0.6-0.1
		c0.2-0.1,0.4-0.1,0.6-0.1c0.2,0,0.5-0.1,0.8-0.1c0.1-0.1,0.2-0.1,0.3-0.2c0,0,0.1,0,0.1-0.1c0,0,0.1,0,0.2,0h0.2c0.1,0,0.2,0,0.2,0
		c0,0,0.1,0,0.2,0c0,0,0.1,0,0.1-0.1c0,0,0-0.1,0-0.1c0,0,0-0.1,0-0.1c0.1-0.1,0.1-0.1,0.1-0.1c0,0,0-0.1-0.1-0.2c0,0,0.1,0,0.2,0
		c0,0,0.1,0,0.2-0.1c0.1,0,0.2-0.1,0.2-0.1c0-0.1,0.1-0.2,0.2-0.3c0.1-0.1,0.1-0.3,0-0.4C38.9,35.9,38.9,35.8,38.9,35.7z M35.7,34.3
		c0,0,0.2,0,0.2,0.1C35.8,34.4,35.8,34.4,35.7,34.3c0,0.1,0,0.1-0.2,0.1C35.6,34.4,35.6,34.3,35.7,34.3z M34.6,34.3L34.6,34.3
		L34.6,34.3z M35.2,34.8c0.2,0,0.4,0,0.5,0.1c0,0,0,0-0.1,0.1h-0.1c0,0-0.2,0-0.2,0c-0.1,0-0.2,0-0.2,0h-0.1
		c-0.1-0.1-0.2-0.1-0.3-0.1c-0.1,0-0.2,0-0.4,0h-0.2C34.5,34.8,34.9,34.8,35.2,34.8z M29.4,33.9C29.4,33.9,29.4,33.9,29.4,33.9
		C29.4,33.9,29.4,33.9,29.4,33.9C29.4,33.9,29.4,33.9,29.4,33.9C29.4,33.9,29.4,33.9,29.4,33.9z M28,33.9c0.2,0,0.4,0,0.6,0
		c0.2,0,0.4,0,0.5,0v0c-0.2,0-0.4,0-0.5,0c-0.2,0-0.4,0-0.6,0V33.9z M6.3,37.9c0,0-0.2,0-0.2-0.1C6.2,37.7,6.2,37.7,6.3,37.9
		c0-0.1,0-0.1,0.2-0.1C6.4,37.8,6.4,37.9,6.3,37.9z M7.4,37.9L7.4,37.9L7.4,37.9z M6.8,37.3L6.8,37.3c-0.2,0-0.4,0-0.5-0.1
		c0,0,0,0,0.1-0.1h0.1c0,0,0.2,0,0.2,0c0.1,0,0.2,0,0.2,0h0.1c0.1,0.1,0.2,0.1,0.3,0.1c0.1,0,0.2,0,0.4,0h0.2
		C7.5,37.4,7.1,37.3,6.8,37.3z M12.6,38.3C12.6,38.3,12.6,38.3,12.6,38.3C12.6,38.3,12.6,38.3,12.6,38.3
		C12.6,38.2,12.6,38.2,12.6,38.3C12.6,38.2,12.6,38.2,12.6,38.3z M14,38.3c-0.2,0-0.4,0-0.6,0c-0.2,0-0.4,0-0.5,0v0
		c0.2,0,0.4,0,0.5,0c0.2,0,0.4,0,0.6,0V38.3z M19.3,35.7C19.3,35.7,19.3,35.7,19.3,35.7c-0.1,0-0.1,0-0.2,0c0,0,0,0,0,0
		C19.2,35.7,19.2,35.7,19.3,35.7C19.3,35.7,19.3,35.7,19.3,35.7z M20.6,37.6v-0.2c0,0,0.1,0,0.2,0c0,0,0,0.1,0,0.2
		C20.7,37.6,20.7,37.6,20.6,37.6z M20.8,36.4C20.7,36.4,20.7,36.4,20.8,36.4L20.8,36.4C20.7,36.4,20.7,36.4,20.8,36.4L20.8,36.4z
		 M21.2,34.7c0,0,0-0.1,0-0.2c0,0,0,0,0.1,0v0.2C21.3,34.7,21.3,34.7,21.2,34.7z M21.2,35.8L21.2,35.8
		C21.3,35.8,21.3,35.7,21.2,35.8L21.2,35.8C21.3,35.8,21.3,35.8,21.2,35.8z M22.7,36.4C22.7,36.4,22.7,36.4,22.7,36.4
		c0.1,0,0.1,0,0.2,0c0,0,0,0,0,0C22.8,36.5,22.8,36.5,22.7,36.4C22.7,36.5,22.7,36.4,22.7,36.4z M24.3,35.7h-0.2c0,0,0,0,0,0
		C24.1,35.7,24.2,35.7,24.3,35.7z M30.5,34.6c0,0,0.1,0,0.1,0l-0.3,0C30.4,34.6,30.4,34.6,30.5,34.6z M21.9,34.6h0.5
		c0.2,0,0.2,0,0.3,0c0.4,0,0.7,0,1,0h0.9c0.2,0,0.4,0,0.6,0h0.5c0.4,0,0.7,0,1.1,0c0.4,0,0.8,0,1.1,0l1.3-0.1c0.2,0,0.3,0,0.4,0H30
		l-1.1,0c-0.3,0-0.6,0-0.9,0H27c-0.3,0-0.6,0-1,0c-0.3,0-0.6,0-1,0c-0.2,0-0.2,0-0.4,0.1c-0.2,0-0.4,0-0.7,0c-0.1,0-0.2,0-0.3,0
		c-0.2,0-0.2,0-0.4,0c-0.1,0-0.2,0-0.3,0c-0.1,0-0.2,0-0.3,0c-0.2,0-0.4,0-0.6,0c-0.1,0-0.1,0-0.2,0C21.9,34.7,21.9,34.6,21.9,34.6z
		 M20.2,34.5c0.1,0,0.1,0,0.2,0c0,0,0,0,0,0.1c0,0-0.1,0-0.1,0C20.1,34.6,20.1,34.6,20.2,34.5z M20.2,35.7
		C20.3,35.8,20.2,35.8,20.2,35.7C20.3,35.8,20.3,35.8,20.2,35.7C20.3,35.8,20.2,35.8,20.2,35.7C20.2,35.8,20.2,35.8,20.2,35.7
		c-0.1,0.1-0.1,0.1-0.1,0.1c0,0,0-0.1,0-0.1C20.2,35.7,20.2,35.7,20.2,35.7z M19.9,34.5v0.1V34.5z M19.6,34.1
		C19.6,34.1,19.5,34.1,19.6,34.1C19.5,34.1,19.6,34.1,19.6,34.1z M17.1,34.4c0.5,0.1,0.9,0.1,1.3,0.1c0.3,0,0.7,0,1,0
		c0,0,0,0.1,0,0.2h-0.2c-0.2,0-0.4,0-0.6-0.1c-0.2,0-0.4,0-0.6,0c-0.2,0-0.4,0-0.6-0.1l-0.2,0L17.1,34.4z M15.5,33.9
		C15.5,33.9,15.5,33.9,15.5,33.9C15.5,33.9,15.5,33.9,15.5,33.9L15.5,33.9L15.5,33.9z M13.5,33.4L13.5,33.4c0.1,0,0.1,0,0.1,0h0.3v0
		c-0.1,0-0.2,0-0.2,0L13.5,33.4l-0.1,0C13.4,33.4,13.4,33.4,13.5,33.4z M12.7,33.5c0-0.1,0.1-0.1,0.2-0.1c0.1,0,0.1,0,0.2,0l0,0l0,0
		C13,33.5,12.8,33.5,12.7,33.5L12.7,33.5z M11.5,33.8c0,0,0.1,0,0.2,0.1L11.5,33.8C11.4,33.8,11.5,33.8,11.5,33.8z M17.7,36.5h0.2
		c0,0,0,0,0,0C17.9,36.5,17.8,36.5,17.7,36.5z M11.5,37.6c0,0-0.1,0-0.1,0l0.3,0C11.6,37.6,11.6,37.6,11.5,37.6z M20.1,37.6h-0.5
		c-0.2,0-0.2,0-0.3,0c-0.4,0-0.7,0-1,0h-0.9c-0.2,0-0.4,0-0.6,0h-0.5c-0.4,0-0.7,0-1.1,0c-0.4,0-0.8,0-1.1,0l-1.3,0.1
		c-0.2,0-0.3,0-0.4,0H12l1.1,0c0.3,0,0.6,0,0.9,0H15c0.3,0,0.6,0,1,0c0.3,0,0.6,0,1,0c0.2,0,0.2,0,0.4-0.1c0.2,0,0.4,0,0.7,0
		c0.1,0,0.2,0,0.3,0c0.2,0,0.2,0,0.4,0c0.1,0,0.2,0,0.3,0c0.1,0,0.2,0,0.3,0c0.2,0,0.4,0,0.6,0c0.1,0,0.1,0,0.2,0
		C20.1,37.5,20.1,37.6,20.1,37.6z M21.8,37.6c-0.1,0-0.1,0-0.2,0c0,0,0,0,0-0.1c0,0,0.1,0,0.1,0C21.9,37.6,21.9,37.6,21.8,37.6z
		 M21.8,36.4C21.7,36.4,21.8,36.4,21.8,36.4C21.7,36.4,21.7,36.4,21.8,36.4C21.7,36.4,21.8,36.4,21.8,36.4
		C21.8,36.4,21.8,36.4,21.8,36.4c0.1-0.1,0.1-0.1,0.1-0.1c0,0,0,0.1,0,0.1C21.8,36.4,21.8,36.4,21.8,36.4z M22.1,37.6v-0.1V37.6z
		 M22.4,38.1C22.4,38.1,22.5,38.1,22.4,38.1C22.5,38.1,22.4,38.1,22.4,38.1z M24.9,37.8c-0.5-0.1-0.9-0.1-1.3-0.1c-0.3,0-0.7,0-1,0
		c0,0,0-0.1,0-0.2h0.2c0.2,0,0.4,0,0.6,0.1s0.4,0,0.6,0c0.2,0,0.4,0,0.6,0.1l0.2,0L24.9,37.8z M26.5,38.3
		C26.5,38.3,26.5,38.3,26.5,38.3C26.5,38.3,26.5,38.3,26.5,38.3L26.5,38.3L26.5,38.3z M28.5,38.8L28.5,38.8c-0.1,0-0.1,0-0.1,0h-0.3
		v0c0.1,0,0.2,0,0.2,0L28.5,38.8l0.1,0C28.6,38.8,28.6,38.8,28.5,38.8z M29.3,38.7c0,0.1-0.1,0.1-0.2,0.1c-0.1,0-0.1,0-0.2,0l0,0
		l0,0C29,38.7,29.2,38.7,29.3,38.7L29.3,38.7z M30.5,38.4c0,0-0.1,0-0.2-0.1L30.5,38.4C30.6,38.4,30.5,38.4,30.5,38.4z"/>
	<path class="st0" d="M13.8,37.8L13.8,37.8c0.2,0,0.2,0,0.2,0c0,0,0.1,0,0.1,0v0C14.1,37.7,14,37.8,13.8,37.8L13.8,37.8z"/>
	<path class="st0" d="M8.5,37.7C8.5,37.7,8.5,37.7,8.5,37.7C8.5,37.7,8.5,37.7,8.5,37.7C8.5,37.7,8.5,37.7,8.5,37.7z"/>
	<path class="st0" d="M15.3,37.8c0,0,0.1,0,0.2,0C15.4,37.7,15.3,37.8,15.3,37.8c-0.1-0.1-0.1-0.1-0.1-0.1c0,0-0.1,0-0.1,0
		C15.1,37.8,15.2,37.8,15.3,37.8z"/>
	<path class="st0" d="M19,38.3c-0.1,0-0.3,0-0.4,0c-0.3,0-0.6,0-0.9,0l-0.1,0c0.2,0,0.5,0,0.7,0c0.4,0,0.9,0,1.4,0
		c-0.1,0-0.1,0-0.1,0c0,0-0.1,0-0.1,0C19.3,38.3,19.1,38.3,19,38.3z"/>
	<path class="st1" d="M26.6,38.4L26.6,38.4c-0.1,0-0.1,0-0.1,0"/>
	<line class="st1" x1="7.4" y1="37.9" x2="7.5" y2="37.9"/>
	<path class="st1" d="M22.5,38.1C22.5,38.1,22.4,38.1,22.5,38.1"/>
	<path class="st1" d="M12.6,38.2C12.6,38.2,12.6,38.2,12.6,38.2C12.6,38.3,12.6,38.3,12.6,38.2"/>
	<line class="st1" x1="22.1" y1="37.5" x2="22.1" y2="37.6"/>
</g>
<title>Page 1</title>
</svg>
