<svg xmlns="http://www.w3.org/2000/svg" xmlns:xlink="http://www.w3.org/1999/xlink" version="1.1" id="Layer_1" x="0" y="0" viewBox="0 0 37.5 65" xml:space="preserve" enable-background="new 0 0 37.5 65"><style type="text/css">
	.st0{fill:none;}
	.st1{fill:#20ED28;}
</style><title>Page 1</title><desc>Created with Sketch.</desc><g id="Clip-2"/><rect x="11.5" y="12.3" transform="matrix(0.7054 -0.7088 0.7088 0.7054 -5.5339 11.887)" class="st0" width="0.1" height="0.6"/><path class="st0" d="M13 14.3L13 14.3l0.1 0.2h0.1l0.1-0.2C13.1 14.2 13.1 14.2 13 14.3z"/><path class="st0" d="M17.9 19.3c0.1 0.3 0.3 0.5 0.5 0.6 0.2 0.2 0.4 0.3 0.6 0.5v-0.1c-0.2-0.2-0.3-0.3-0.5-0.5C18.3 19.7 18.1 19.5 17.9 19.3z"/><path class="st0" d="M34.3 32.5L34.3 32.5c0.1 0 0.1-0.1 0.2-0.1 -0.1-0.1-0.2-0.2-0.3-0.3 -0.1 0.1-0.1 0.1-0.2 0.2C34.1 32.3 34.2 32.4 34.3 32.5z"/><path class="st0" d="M33.6 31.7L33.6 31.7c0 0.1 0.1 0.1 0.1 0.2 0.1-0.1 0.2-0.1 0.2-0.2 -0.1-0.1-0.1-0.1-0.2-0.2C33.7 31.5 33.6 31.6 33.6 31.7z"/><rect x="13.8" y="14.8" transform="matrix(0.7071 -0.7071 0.7071 0.7071 -6.519 14.1412)" class="st0" width="0.1" height="0.3"/><path class="st0" d="M13.2 45.9l0.4-0.4c-0.2 0.1-0.3 0.1-0.3 0.1C13.3 45.6 13.2 45.7 13.2 45.9z"/><path class="st0" d="M16.7 41.1c-0.1 0.1-0.1 0.1-0.2 0.1s-0.1 0.1-0.2 0.1l-0.1 0.1c0 0.1-0.1 0.1-0.1 0.1l0 0c0.2-0.2 0.3-0.3 0.5-0.5 0.1-0.1 0.3-0.3 0.5-0.4L17 40.5 16.7 41.1z"/><path class="st0" d="M15.2 42.5c-0.1 0.1-0.2 0.2-0.4 0.3l0.1 0.1c0.3-0.3 0.5-0.4 0.6-0.5v-0.1c0 0 0 0 0-0.1h-0.1C15.4 42.4 15.3 42.4 15.2 42.5z"/><path class="st0" d="M20.6 38.9L20.6 38.9l0.2-0.1 0.1-0.1h-0.1L20.6 38.9z"/><path class="st0" d="M23.8 36.4L23.8 36.4 23.8 36.4C23.8 36.3 23.8 36.3 23.8 36.4z"/><path class="st0" d="M15.5 18.3L15.5 18.3C15.6 18.3 15.6 18.3 15.5 18.3L15.5 18.3C15.5 18.2 15.5 18.2 15.5 18.3z"/><path class="st0" d="M16.1 18.8L16.1 18.8c0.2 0.4 0.5 0.8 0.8 1.1s0.6 0.7 1 1.1l0.1-0.1c-0.4-0.4-0.7-0.7-1-1C16.7 19.4 16.4 19.1 16.1 18.8z"/><path class="st0" d="M13.2 15.7l-0.1-0.1c0 0-0.1-0.1-0.1-0.2 -0.1-0.2-0.1-0.3-0.2-0.4 -0.1-0.1-0.2 0-0.3 0.1 0.3 0.4 0.6 0.8 1 1.1 0.3 0.4 0.7 0.8 1.1 1.1 -0.2-0.3-0.4-0.6-0.6-0.9C13.8 16.1 13.5 15.9 13.2 15.7z"/><path class="st0" d="M30.8 32c-0.1-0.1-0.1-0.1-0.2-0.2 -0.1 0.1-0.2 0.2-0.3 0.2 0.1 0.1 0.1 0.1 0.2 0.2C30.6 32.2 30.7 32.1 30.8 32z"/><path class="st0" d="M30 31.6c0.1-0.1 0.2-0.1 0.3-0.2l-0.1-0.1L30 31.6 30 31.6z"/><path class="st0" d="M30.1 31.2c0-0.1-0.1-0.1-0.1-0.2 -0.1 0.1-0.2 0.1-0.2 0.2l0 0 0.1 0.2C29.9 31.3 30 31.2 30.1 31.2z"/><path class="st0" d="M30.9 29.5L30.9 29.5c0-0.1-0.1-0.1-0.1-0.2 -0.1 0.1-0.2 0.1-0.2 0.2 0.1 0.1 0.1 0.1 0.2 0.2C30.7 29.6 30.8 29.6 30.9 29.5z"/><path class="st0" d="M31.3 30.4L31.3 30.4c0.1 0 0.2 0 0.3-0.1 0 0 0-0.1-0.1-0.1L31.3 30.4z"/><path class="st0" d="M29.9 32.8L29.9 32.8c0-0.2-0.1-0.2-0.1-0.2l-0.1 0.1L29.9 32.8C29.8 32.8 29.8 32.8 29.9 32.8z"/><path class="st0" d="M30.8 35.4c0.1-0.1 0.2-0.1 0.2-0.2l-0.1-0.1c0 0-0.1 0.1-0.2 0.2C30.8 35.3 30.8 35.3 30.8 35.4z"/><path class="st0" d="M31.3 34.8L31.3 34.8c0.1 0.1 0.1 0.1 0.1 0.1 0.1 0 0.1-0.1 0.2-0.1 0-0.1-0.1-0.1-0.1-0.2C31.4 34.7 31.4 34.7 31.3 34.8z"/><path class="st0" d="M31.5 28.9l-0.1-0.1c-0.1 0.1-0.2 0.2-0.3 0.2l0.1 0.1C31.3 29.1 31.4 29 31.5 28.9z"/><path class="st0" d="M9.8 10.2c0.1 0 0.2 0.1 0.2 0.1 0.1 0.1 0.2 0.1 0.2 0.2 0.5 0.5 0.9 0.9 1.4 1.4 0.4 0.5 0.9 0.9 1.3 1.4 0.4 0.4 0.7 0.7 1 1s0.6 0.6 0.9 1c0.2 0.2 0.3 0.3 0.5 0.4 0.1 0.1 0.3 0.3 0.4 0.5 0.2 0.3 0.4 0.5 0.6 0.7s0.5 0.5 0.7 0.7l2.3 2.3c0.6 0.7 1.2 1.4 1.8 2 0.7 0.7 1.3 1.3 1.8 2 0.3 0.3 0.6 0.6 0.9 0.9 0.3 0.3 0.6 0.6 0.9 1 0.5 0.6 1 1.1 1.6 1.7 0.5 0.6 1 1.1 1.6 1.7 0.2 0.2 0.4 0.4 0.6 0.6 0.2 0.2 0.3 0.3 0.4 0.5 0.1-0.1 0.2-0.1 0.3-0.2 -0.3-0.3-0.7-0.7-0.9-1 -0.2-0.2-0.3-0.3-0.6-0.5 -0.2-0.2-0.4-0.4-0.5-0.6 -0.1-0.3-0.3-0.5-0.5-0.7 -0.2-0.2-0.4-0.4-0.5-0.7 -0.4-0.5-0.7-1-1.1-1.2 -0.3-0.1-0.6-0.4-0.8-0.7 -0.5-0.5-1.1-1.1-1.6-1.7 -0.5-0.6-1.1-1.2-1.7-1.8 -0.6-0.5-1.1-1-1.6-1.6s-1-1.1-1.6-1.7L13.9 14c-0.6-0.7-1.3-1.4-2-2.1 -0.7-0.7-1.3-1.4-2-2.1C9.8 9.7 9.7 9.6 9.7 9.5 9.6 9.4 9.6 9.3 9.5 9.3c-0.1 0.2-0.1 0.3 0 0.4C9.6 10 9.7 10.1 9.8 10.2z"/><path class="st0" d="M5.9 6.4C5.7 6.1 5.6 5.9 5.5 5.8c0-0.1-0.2-0.2-0.4-0.2C5.2 5.9 5.3 6 5.4 6.1 5.6 6.2 5.7 6.3 5.9 6.4z"/><path class="st0" d="M20.4 21.9c0.1 0.2 0.2 0.4 0.3 0.5 0.1 0.1 0.2 0.2 0.4 0.3 -0.1-0.2-0.2-0.3-0.3-0.5C20.8 22.1 20.6 22 20.4 21.9z"/><path class="st0" d="M29.3 30.9c0.1-0.1 0.2-0.2 0.3-0.2 -0.1-0.1-0.1-0.1-0.2-0.2 -0.1 0.1-0.2 0.2-0.3 0.2C29.2 30.7 29.3 30.8 29.3 30.9z"/><polygon class="st0" points="7.5 8.2 7.4 8.3 7.5 8.3 "/><path class="st0" d="M8.8 9.6L8.8 9.6 8.7 9.5H8.6c0 0 0 0-0.1 0l0.1 0.1H8.8z"/><path class="st0" d="M31.9 34.6c0-0.1-0.1-0.1-0.2-0.2 0 0 0 0-0.1 0.1L31.9 34.6C31.8 34.6 31.8 34.6 31.9 34.6z"/><path class="st0" d="M8.9 8C8.8 7.7 8.6 7.5 8.4 7.4 8.2 7.2 8.1 7 8 6.7L7.8 6.5c-0.2 0-0.3-0.2-0.4-0.4C7.3 5.8 7.2 5.7 7 5.7L6.8 5.5C6.7 5.4 6.6 5.3 6.6 5.4 6.7 5.7 6.9 6 7.3 6.5c0.4 0.4 1.1 1.2 2.2 2.2L8.9 8z"/><path class="st0" d="M28.5 32.3C28.5 32.4 28.4 32.4 28.5 32.3v0.1C28.5 32.4 28.5 32.4 28.5 32.3 28.5 32.4 28.5 32.4 28.5 32.3z"/><path class="st0" d="M25.6 34.9v-0.1l0 0 -0.1 0.1H25.6L25.6 34.9z"/><path class="st0" d="M28.8 33.3c-0.7 0.5-1.3 1-1.9 1.6 -0.8 0.7-1.5 1.4-2.3 2v0.2l0.2-0.2c0.4-0.3 0.8-0.6 1.2-0.9 0.4-0.3 0.8-0.7 1.2-1s0.9-0.7 1.3-1c0.2-0.1 0.3-0.3 0.5-0.4C28.9 33.5 28.8 33.4 28.8 33.3z"/><path class="st0" d="M28.8 37c-0.1 0-0.2 0.1-0.3 0.3 0.1 0 0.2-0.1 0.4-0.3 0.4-0.3 0.8-0.6 1.1-1 0.1-0.1 0.3-0.3 0.5-0.4l-0.1-0.1C29.9 36 29.4 36.5 28.8 37z"/><path class="st0" d="M27.9 31.7l0.1 0.1 0 0C28 31.8 28 31.8 27.9 31.7z"/><path class="st0" d="M28.2 31L28.2 31c-0.1-0.3-0.3-0.6-0.5-0.8 -0.2-0.2-0.4-0.4-0.7-0.6 -0.1 0.1-0.2 0.2-0.3 0.2 -0.1 0-0.2 0-0.2 0 -0.1 0-0.1 0-0.2-0.1 -0.2-0.2-0.3-0.3-0.5-0.5 -0.2-0.2-0.3-0.4-0.5-0.7 -0.1-0.2-0.2-0.4-0.4-0.5 -0.3-0.2-0.6-0.4-0.8-0.7s-0.5-0.6-0.6-0.9c-0.1-0.2-0.3-0.4-0.5-0.5 0 0-0.1 0-0.2 0 0.8 0.8 1.6 1.7 2.4 2.6 0.8 0.9 1.6 1.8 2.4 2.7 -0.1-0.1-0.1-0.2-0.1-0.3s0-0.2-0.1-0.3c0.2-0.2 0.3-0.2 0.4 0l0.1 0.2C27.9 30.9 28.1 30.9 28.2 31z"/><path class="st0" d="M31.9 29.7c0.1 0 0.1-0.1 0.1-0.3l-0.3 0.3 0.1 0.1C31.8 29.7 31.8 29.7 31.9 29.7z"/><path class="st0" d="M28.1 32.6c-0.1 0.1-0.1 0.1-0.2 0.2 0.1 0 0.2-0.1 0.3-0.1L28.1 32.6z"/><path class="st0" d="M29 33.1c0.1 0.1 0.1 0.2 0.2 0.3l0.1-0.1c-0.1-0.1-0.1-0.2-0.2-0.2C29.1 33.1 29 33.1 29 33.1z"/><path class="st0" d="M27.4 33.2l-0.2 0.2C27.2 33.4 27.3 33.3 27.4 33.2L27.4 33.2z"/><path class="st0" d="M32.8 30.4c-0.1-0.1-0.2-0.2-0.2-0.3 -0.1 0.1-0.2 0.2-0.3 0.3 0.1 0.1 0.2 0.2 0.2 0.3C32.6 30.5 32.7 30.4 32.8 30.4z"/><path class="st0" d="M32.2 34.3c0.1-0.1 0.1-0.1 0.2-0.2 0 0-0.1 0-0.1-0.1l-0.1-0.1C32.1 34 32.1 34 32 34.1 32.1 34.1 32.2 34.2 32.2 34.3z"/><path class="st0" d="M29.3 31.7L29.3 31.7C29.3 31.8 29.3 31.7 29.3 31.7L29.3 31.7z"/><path class="st0" d="M31.9 29.9c0.1-0.1 0.2-0.1 0.2-0.3L31.9 29.9 31.9 29.9z"/><path class="st0" d="M29.8 32.4l0.2 0.2 0 0C30 32.5 29.9 32.5 29.8 32.4L29.8 32.4z"/><path class="st0" d="M31.9 30.7c-0.1 0-0.1 0.1-0.2 0.1l0.1 0.1c0 0 0.1 0.1 0.2 0.1l0.1-0.1C32 30.9 32 30.8 31.9 30.7z"/><path class="st1" d="M1.3 1.7C1.6 2.2 2 2.6 2.4 3c0.4 0.4 0.8 0.8 1.1 1.2 0.6 0.7 1.2 1.4 1.8 2.1C5.9 7 6.5 7.7 7 8.4 7.2 8.7 7.5 9 7.7 9.2 8 9.4 8.2 9.7 8.4 10c0.2 0.2 0.4 0.3 0.6 0.2s0.4 0 0.5 0.2l0.5 0.5c0.1 0.2 0.2 0.3 0.4 0.5 0.1 0.1 0.3 0.3 0.4 0.5 -0.1 0.1-0.2 0.1-0.3 0 -0.1-0.1-0.1-0.1-0.3 0.1 0.1 0.2 0.3 0.4 0.5 0.6l1 0.7c0.4 0.5 0.8 0.9 1.2 1.3 0.4 0.4 0.8 0.8 1.2 1.3 0.3 0.3 0.5 0.5 0.8 0.6 0-0.3-0.1-0.4-0.3-0.5 -0.2-0.1-0.3-0.2-0.4-0.4h0.1c0.3 0.2 0.6 0.5 0.9 0.8l0.9 0.9c0 0.1 0 0.1 0 0.1v0.1 0.1c-0.1 0-0.1-0.1-0.2-0.1h-0.1c0-0.1-0.1 0-0.2 0 0.2 0.2 0.4 0.4 0.6 0.7 0.2 0.2 0.4 0.4 0.6 0.7s0.4 0.5 0.6 0.7 0.5 0.4 0.7 0.7c0.3 0.3 0.6 0.6 0.8 0.9 0.3 0.3 0.5 0.6 0.8 0.9 0.5 0.6 1.1 1.2 1.7 1.7 0.4 0.4 0.8 0.9 1.2 1.3 0.4 0.5 0.8 0.9 1.3 1.3l0.1 0.1c0.2 0.3 0.5 0.6 0.7 0.8 0.3 0.3 0.5 0.6 0.7 0.8 0.1 0.1 0.1 0.2 0.2 0.4 -0.1 0-0.2-0.1-0.4-0.3s-0.3-0.3-0.4-0.4c-0.4-0.5-0.8-1-1.2-1.4 -0.4-0.4-0.9-0.9-1.3-1.4 -0.1-0.1-0.2-0.2-0.3-0.2 -0.1-0.1-0.1-0.1-0.2-0.1 0 0.1 0 0.2-0.1 0.2V25v0.1c0 0 0 0.1-0.1 0.1 -0.4-0.5-0.9-1-1.4-1.5s-0.9-1-1.3-1.6l0 0c0.2 0.1 0.4 0.2 0.4 0.2 0.1 0 0.1 0.1 0.1 0.2 0.2 0.4 0.4 0.6 0.6 0.8s0.5 0.3 0.8 0.5c-0.3-0.4-0.7-0.8-1-1.1 -0.3-0.4-0.7-0.7-1-1.1 -0.2 0-0.3 0.1-0.5 0.1 -0.1 0.1-0.2 0-0.3-0.2 0 0 0.2-0.1 0.4-0.2 -0.1-0.1-0.2-0.3-0.3-0.4l-1.7-1.7c-0.3-0.3-0.6-0.6-0.9-1 -0.1-0.1-0.2-0.2-0.3-0.3 -0.1-0.1-0.2-0.2-0.4-0.2 -0.2 0.1-0.4 0.1-0.4 0.1s-0.1-0.1-0.2-0.2c-0.4-0.4-0.8-0.7-1.1-1.1 -0.3-0.4-0.6-0.8-1-1.1 0.1-0.2 0.2-0.2 0.3-0.1 0.1 0.1 0.2 0.2 0.2 0.4 0.1 0.1 0.1 0.1 0.1 0.2 0 0.1 0 0.1 0.1 0.1 0.3 0.2 0.6 0.4 0.7 0.7 0.2 0.3 0.4 0.6 0.6 0.9 0-0.1 0.1-0.2 0.1-0.2s0.1-0.1 0.1-0.2c-0.1-0.1-0.1-0.1-0.1-0.2 0 0-0.1-0.1-0.1-0.2 -0.2-0.3-0.5-0.6-0.7-0.8 -0.3-0.3-0.5-0.5-0.7-0.8l-0.8-0.8c-0.1-0.1-0.3-0.2-0.5-0.3 -0.1 0-0.1 0-0.1 0 0 0.1 0 0.2 0 0.2s0 0.1 0 0.2c0.2-0.1 0.3-0.1 0.3 0 0.1 0.1 0.1 0.2 0.1 0.2 -0.1 0.4 0.1 0.7 0.4 1.1l0.3 0.3c0.5 0.6 1 1.2 1.5 1.7s1.1 1.1 1.6 1.6l2.7 3c0.2 0.2 0.4 0.4 0.6 0.5 0.2 0.2 0.4 0.4 0.5 0.6 0.4 0.5 0.8 0.9 1.2 1.4 0.4 0.4 0.8 0.9 1.2 1.3 0.5 0.6 1 1.1 1.5 1.6s1 1.1 1.5 1.6c0.2 0.3 0.5 0.6 0.7 0.8 0.2 0.3 0.5 0.5 0.8 0.8 0.2 0.3 0.4 0.5 0.5 0.7 0 0.1 0.1 0.2 0.2 0.2 -0.1 0.1-0.1 0.2-0.1 0.4 0.1 0 0.2-0.1 0.3-0.1 0.1 0.1 0.1 0.2 0.2 0.2 -0.7 0.6-1.5 1.2-2.2 1.8 -0.8 0.6-1.6 1.3-2.4 2 -0.5 0.4-1 0.8-1.5 1.2s-1 0.8-1.5 1.1c-0.3 0.2-0.5 0.4-0.7 0.6s-0.5 0.5-0.7 0.7c-0.1 0.1-0.1 0.1-0.1 0.1s-0.1 0-0.1 0.1c0-0.2 0.1-0.3 0.2-0.4 0.4-0.3 0.8-0.7 1.2-1 0.4-0.4 0.8-0.7 1.2-1.1 0.3-0.2 0.5-0.4 0.7-0.6 0.2-0.2 0.4-0.4 0.7-0.6 0.5-0.4 1-0.8 1.5-1.2 0.5-0.4 1-0.8 1.5-1.2 0.3-0.2 0.5-0.4 0.7-0.6 0.2-0.2 0.4-0.4 0.7-0.6l0.3-0.4 -0.1 0.1c-0.2 0.2-0.4 0.3-0.6 0.5 -0.2 0.1-0.4 0.3-0.6 0.5 -0.6 0.5-1.2 1-1.8 1.4 -0.6 0.5-1.2 0.9-1.8 1.4 -0.8 0.6-1.5 1.3-2.2 1.9 -0.7 0.6-1.4 1.2-2.2 1.8 -0.3 0.3-0.6 0.5-0.9 0.8s-0.6 0.6-0.9 0.8c-0.4 0.3-0.9 0.7-1.2 1.1 -0.4 0.4-0.8 0.8-1.2 1.1 -1 1.1-2 2.1-2.9 3.1 -1 1-1.9 2.1-2.9 3.2 -0.8 0.9-1.6 2-2.4 3.2 -0.3 0.4-0.6 0.9-1 1.3 -0.3 0.4-0.7 0.9-1 1.3 -0.5 0.5-0.9 1-1.2 1.5 -0.2 0.3-0.3 0.6-0.3 0.9 0 0.1 0 0.2-0.1 0.3 -0.1 0.1-0.2 0.2-0.3 0.3C1.1 58.9 1 59 0.9 59.1c0 0.2-0.1 0.3-0.2 0.4 -0.1 0.1-0.2 0.2-0.2 0.3 -0.1 0.1-0.1 0.2 0 0.4 0 0.2 0.1 0.2 0.2 0.2 0.1 0 0.2 0 0.2 0.1 0 0.3 0 0.4 0 0.4S1.1 61 1.3 61c-0.1 0.1-0.1 0.2-0.2 0.3C1 61.4 1 61.5 0.9 61.7c-0.1 0.3-0.1 0.5 0 0.6 0.1 0.2 0.1 0.5 0 0.8 0 0.4 0.2 0.6 0.5 0.7C1.6 63.9 1.8 64 2 64c0.2 0.1 0.4 0.1 0.6 0.2L2.8 64l2.3-2.3c0.1-0.1 0.1-0.1 0.2-0.2 0.1 0 0.2-0.1 0.2-0.2 0.4-0.3 0.7-0.6 1-0.9s0.6-0.6 1-1l0.1-0.1 0.7-0.7c0.1-0.2 0.2-0.3 0.3-0.4 0.2 0.1 0.3 0 0.4-0.1 0.3-0.3 0.5-0.5 0.7-0.8 0.2-0.3 0.4-0.5 0.7-0.8 0.2-0.3 0.4-0.5 0.6-0.7 0.2-0.2 0.4-0.4 0.6-0.6l1.5-1.5 0.4-0.4c0.1-0.1 0.3-0.3 0.4-0.4 0.1-0.1 0.3-0.3 0.5-0.4 0.5-0.4 1-0.9 1.4-1.4s0.9-1 1.4-1.4c0.1-0.1 0.2-0.2 0.2-0.3 0.3-0.3 0.5-0.5 0.8-0.8s0.5-0.5 0.9-0.7c0.2-0.1 0.3-0.2 0.4-0.3 0.1-0.1 0.2-0.3 0.4-0.5C20 47 20 47 20 46.9c0-0.1 0.1-0.1 0.1-0.1 0.3-0.2 0.6-0.4 0.8-0.6 0.3-0.2 0.5-0.4 0.7-0.7l0.1-0.2c0.2-0.2 0.4-0.4 0.6-0.6 0.1-0.2 0.3-0.4 0.6-0.6 0.2-0.1 0.3-0.2 0.5-0.3 0.1-0.1 0.3-0.2 0.4-0.3 0.3-0.2 0.5-0.5 0.7-0.7s0.5-0.4 0.9-0.5c0.1 0 0.2-0.1 0.3-0.2 0.2-0.2 0.3-0.3 0.5-0.5 0.2-0.2 0.3-0.4 0.4-0.6 0.1-0.4 0.4-0.6 0.8-0.6 0.2 0 0.4-0.1 0.6-0.4 -0.1-0.1-0.1-0.1-0.2 0 -0.1 0.1-0.2 0.1-0.3 0 0.3-0.2 0.5-0.4 0.8-0.6 0.2-0.2 0.5-0.4 0.7-0.7 0.2-0.1 0.4-0.3 0.7-0.6 0.4-0.3 0.8-0.6 1.2-1 0.2-0.2 0.5-0.4 0.7-0.6 0.1 0.1 0.1 0.2 0.2 0.3 0.1-0.1 0.2-0.2 0.2-0.2l-0.1-0.1c0-0.1-0.1-0.1-0.1-0.2 0.1 0 0.1-0.1 0.2-0.1 0.1 0.1 0.1 0.1 0.2 0.2 0.4-0.4 0.7-0.7 1.1-1 -0.1-0.1-0.1-0.2-0.2-0.2 0.1 0 0.2-0.1 0.3-0.1l0.1 0.1c0.6-0.5 1.2-1.1 1.8-1.6 0 0-0.1-0.1-0.1-0.2l0.1-0.1c0 0.1 0.1 0.1 0.1 0.1 0.4-0.3 0.8-0.7 1.2-1l-0.1-0.1c0.2 0.1 0.3 0 0.4-0.1 -0.3-0.3-0.7-0.7-1-1 -0.1 0.1-0.3 0.2-0.4 0.4l0 0c0-0.1-0.1-0.3-0.2-0.4 0.1-0.1 0.2-0.2 0.3-0.2 -0.1-0.1-0.2-0.2-0.3-0.3 -0.1 0.1-0.2 0.1-0.3 0.2 0 0 0 0 0-0.1 -0.1 0-0.1-0.1-0.2-0.1 0.1-0.3 0.2-0.4 0.2-0.4 -0.3-0.3-0.7-0.7-1-1 0 0-0.1 0.1-0.2 0.2 -0.1-0.1-0.1-0.2-0.2-0.3 0.1-0.1 0.1-0.1 0.2-0.2 -0.5-0.5-0.9-1-1.4-1.5 0 0-0.1 0-0.1 0.1 -0.1-0.1-0.2-0.2-0.3-0.3L31.7 27c-0.5-0.2-0.8-0.3-0.9-0.4 -0.1-0.1-0.3-0.3-0.6-0.7 -0.1-0.1-0.1-0.2-0.3-0.3 0-0.1-0.1-0.2-0.2-0.3 -0.1-0.1-0.2-0.2-0.3-0.4 -0.1-0.1-0.2-0.2-0.3-0.3 -0.1-0.2-0.2-0.4-0.2-0.6 -0.1-0.2-0.2-0.3-0.4-0.4 -0.1 0-0.2-0.1-0.2-0.3 0-0.3-0.2-0.5-0.5-0.5 -0.3-0.1-0.4-0.1-0.4-0.2 -0.2-0.3-0.3-0.5-0.6-0.7 -0.3-0.2-0.4-0.4-0.6-0.6 -0.2-0.2-0.3-0.3-0.4-0.4 -0.1-0.1-0.3-0.2-0.5-0.4 -0.1-0.1-0.3-0.2-0.4-0.3 -0.1-0.1-0.2-0.2-0.2-0.4 -0.1-0.2-0.3-0.4-0.5-0.5 -0.5-0.3-0.9-0.7-1.1-1.1 0-0.1-0.1-0.2-0.2-0.2 -0.1 0-0.3-0.1-0.4-0.4 0-0.2-0.1-0.3-0.3-0.4 -0.1-0.1-0.3-0.2-0.4-0.4 -0.1-0.3-0.4-0.4-1-0.4l0.1 0.1c-0.3 0-0.4-0.1-0.5-0.1 -0.2-0.2-0.3-0.3-0.5-0.5 -0.1-0.2-0.3-0.3-0.5-0.5 -0.1-0.1-0.2-0.2-0.3-0.3 -0.1-0.1-0.2-0.2-0.3-0.3 -0.4-0.4-0.8-0.7-1.2-1.1l-1-1c-0.1-0.1-0.3-0.2-0.6-0.2 0.1 0.1 0.2 0.2 0.3 0.3 0.1 0.1 0.1 0.2 0.2 0.3 0.4 0.4 0.9 0.9 1.4 1.3 0.5 0.4 0.9 0.9 1.3 1.4l0 0c0.4 0.4 0.9 0.9 1.3 1.3 0.4 0.4 0.8 0.9 1.3 1.3 0.3 0.3 0.5 0.7 0.8 1s0.6 0.7 0.9 1c0.4 0.5 0.9 0.9 1.3 1.4 0.5 0.5 0.9 0.9 1.4 1.4 0.4 0.5 0.9 1 1.3 1.4s0.9 0.9 1.2 1.5l0.3 0.3c0.5 0.4 0.9 0.8 1.2 1.2 0.2 0.3 0.5 0.6 0.8 0.9 -0.1 0.1-0.2 0.2-0.3 0.2 -0.2-0.2-0.4-0.5-0.6-0.7 -0.2-0.3-0.6-0.7-1-1.2 -0.2-0.3-0.5-0.5-0.7-0.7s-0.5-0.4-0.8-0.6c-0.1 0-0.2-0.2-0.3-0.4 -0.2-0.4-0.5-0.6-1-0.7 0.2 0.4 0.5 0.6 0.8 0.9 0.3 0.2 0.5 0.5 0.7 0.8s0.5 0.6 0.8 0.9c0.3 0.3 0.6 0.6 0.8 0.8 0.2 0.3 0.5 0.6 0.7 0.8 0.2 0.2 0.3 0.4 0.4 0.5l-0.1 0.1c0 0-0.1 0.1-0.2 0.1 -0.6-0.7-1.2-1.3-1.8-2 -1-1.1-2-2.1-3-3.3 -1.1-1.2-2.1-2.3-3.3-3.5 -1.1-1.2-2.2-2.3-3.3-3.5 -0.1-0.1-0.2-0.2-0.2-0.3 -0.2-0.4-0.3-0.6-0.4-0.8s-0.4-0.4-0.7-0.6c0.2 0.3 0.4 0.5 0.5 0.7 -0.4-0.5-0.9-0.9-1.4-1.4 -0.5-0.4-1-0.8-1.5-1.2l0 0c-0.3-0.3-0.5-0.5-0.7-0.7S14 12.2 13.8 12c-0.6-0.6-1.3-1.3-2-2s-1.3-1.3-1.9-2C9 7 8.1 6.1 7.3 5.2 6.5 4.3 5.6 3.4 4.7 2.4L4.6 2.3H4.5c0 0.1 0 0.2 0.1 0.3s0.1 0.1 0.2 0.2c0 0.1 0.1 0.2 0.3 0.4 0.2 0.2 0.3 0.3 0.3 0.4L5.8 4c0 0.1 0.1 0.2 0.2 0.2s0.1 0.1 0.1 0.3c-0.3 0.1-0.5 0.1-0.6 0S5.2 4.3 5 4.1C4.8 3.8 4.5 3.5 4.3 3.3 4.1 3 3.8 2.8 3.6 2.5S3.2 2 3 1.8C2.8 1.6 2.5 1.4 2.1 1.3c1 1.3 2.1 2.5 3.1 3.7 1.1 1.2 2.1 2.4 3.1 3.6C7.5 7.7 6.7 6.9 6 6 5.3 5.2 4.5 4.3 3.6 3.5 3.7 3.8 3.8 3.9 3.9 4 4 4.1 4.1 4.3 4.3 4.5c0.1 0.1 0.2 0.2 0.2 0.2s0 0.2 0.1 0.4C4.3 4.8 4 4.5 3.7 4.2 3.4 3.9 3.1 3.6 2.9 3.3 2.6 2.9 2.3 2.6 2 2.2c-0.3-0.3-0.6-0.7-0.9-1L0.5 0.6C0.4 0.5 0.3 0.4 0.3 0.3 0.2 0.2 0.1 0.1 0 0.1 0.5 0.7 0.9 1.2 1.3 1.7zM17.9 20.9c-0.3-0.4-0.6-0.7-1-1.1 -0.3-0.3-0.6-0.7-0.9-1l0.1-0.1c0.3 0.4 0.6 0.7 0.9 1s0.7 0.7 1 1L17.9 20.9zM13.2 45.9c0-0.2 0.1-0.3 0.1-0.3s0.1-0.1 0.3-0.1L13.2 45.9zM15.6 42.3C15.6 42.3 15.6 42.4 15.6 42.3c-0.2 0.2-0.4 0.3-0.6 0.6l-0.1-0.1c0.1-0.1 0.2-0.2 0.4-0.3C15.3 42.4 15.4 42.4 15.6 42.3 15.5 42.3 15.6 42.3 15.6 42.3S15.5 42.3 15.6 42.3zM16.7 41.3c-0.1 0.1-0.3 0.3-0.5 0.5l0 0 0.1-0.1c0-0.1 0.1-0.1 0.1-0.1 0-0.3 0.1-0.3 0.1-0.3C16.6 41.3 16.6 41.2 16.7 41.3l0.3-0.4 0.1 0.1C17 41 16.8 41.1 16.7 41.3zM34.3 32.1c0.1 0.1 0.2 0.2 0.3 0.3 -0.1 0.1-0.1 0.1-0.2 0.2l0 0c-0.1-0.1-0.2-0.2-0.2-0.3C34.1 32.2 34.2 32.1 34.3 32.1zM32.6 30.1c0.1 0.1 0.2 0.2 0.2 0.3 -0.1 0.1-0.2 0.2-0.3 0.2 -0.1-0.1-0.2-0.2-0.2-0.3C32.4 30.2 32.5 30.2 32.6 30.1zM30.6 31.8c0.1 0.1 0.1 0.2 0.2 0.2 -0.1 0.1-0.2 0.1-0.3 0.2 -0.1-0.1-0.1-0.1-0.2-0.2C30.4 31.9 30.5 31.9 30.6 31.8zM18.9 20.4c-0.2-0.1-0.4-0.3-0.6-0.5s-0.3-0.4-0.5-0.6c0.2 0.2 0.4 0.4 0.6 0.5C18.7 20 18.9 20.2 18.9 20.4L18.9 20.4zM20.7 22.4c-0.1-0.1-0.2-0.3-0.3-0.5 0.2 0.1 0.4 0.2 0.5 0.4 0.1 0.1 0.2 0.3 0.3 0.5C21 22.6 20.8 22.5 20.7 22.4zM27.7 30.6c-0.1-0.1-0.3-0.1-0.4 0 0 0.1 0.1 0.2 0.1 0.3s0.1 0.2 0.1 0.3c-0.9-0.9-1.7-1.8-2.4-2.7 -0.8-0.9-1.5-1.8-2.4-2.6 0.1-0.1 0.2-0.1 0.2 0 0.2 0.1 0.4 0.3 0.5 0.5 0.2 0.3 0.4 0.6 0.6 0.9 0.2 0.3 0.5 0.5 0.8 0.7 0.2 0.1 0.3 0.3 0.4 0.5 0.1 0.3 0.3 0.5 0.5 0.7s0.4 0.4 0.5 0.5 0.1 0.1 0.2 0.1c0.1 0.1 0.1 0.1 0.2 0 0.1 0 0.2-0.1 0.3-0.2 0.3 0.3 0.5 0.5 0.7 0.6 0.2 0.2 0.4 0.4 0.5 0.7l0 0c0 0-0.2 0-0.2-0.1L27.7 30.6zM28.5 34c-0.4 0.4-0.8 0.7-1.3 1 -0.4 0.3-0.8 0.6-1.2 1 -0.4 0.3-0.8 0.6-1.2 0.9l-0.2 0.2v-0.2c0.8-0.7 1.6-1.4 2.3-2 0.6-0.5 1.2-1.1 1.9-1.6 0.1 0.1 0.1 0.2 0.2 0.3C28.8 33.7 28.7 33.9 28.5 34zM29.6 30.6c-0.1 0.1-0.2 0.2-0.3 0.2 -0.1-0.1-0.1-0.1-0.2-0.2 0.1-0.1 0.2-0.1 0.3-0.2C29.5 30.5 29.5 30.6 29.6 30.6zM9.5 9.5c0.1 0.1 0.1 0.1 0.2 0.2C9.8 9.8 9.8 9.9 9.9 10c0.6 0.7 1.3 1.4 2 2.1 0.7 0.7 1.3 1.4 2 2.1l3.9 3.9c0.5 0.5 1.1 1.1 1.6 1.7 0.5 0.6 1 1.1 1.6 1.6 0.6 0.6 1.1 1.2 1.7 1.8 0.5 0.6 1.1 1.2 1.6 1.7 0.2 0.3 0.4 0.5 0.8 0.7 0.4 0.3 0.8 0.7 1.1 1.2 0.1 0.3 0.3 0.5 0.5 0.7s0.4 0.4 0.5 0.7c0.1 0.2 0.2 0.4 0.5 0.6 0.2 0.2 0.4 0.3 0.6 0.5 0.3 0.3 0.6 0.7 0.9 1 -0.1-0.1-0.2 0-0.3 0.1 -0.1-0.2-0.3-0.3-0.4-0.5 -0.2-0.2-0.4-0.4-0.6-0.6 -0.5-0.6-1-1.1-1.6-1.7 -0.5-0.6-1-1.1-1.6-1.7 -0.3-0.4-0.6-0.7-0.9-1 -0.3-0.3-0.6-0.6-0.9-0.9 -0.6-0.7-1.2-1.4-1.8-2 -0.7-0.7-1.3-1.3-1.8-2L17 17.7 16.3 17c-0.2-0.2-0.4-0.5-0.6-0.7 -0.1-0.2-0.3-0.3-0.4-0.5 -0.1-0.1-0.3-0.2-0.5-0.4 -0.3-0.3-0.6-0.6-0.9-1 -0.3-0.3-0.6-0.7-1-1 -0.4-0.5-0.8-0.9-1.3-1.4 -0.4-0.5-0.9-0.9-1.4-1.4 -0.1-0.1-0.1-0.1-0.2-0.2 -0.1 0-0.1-0.1-0.2-0.2C9.7 10.1 9.6 10 9.5 9.9 9.5 9.8 9.5 9.7 9.5 9.5zM7.2 6.3C6.8 5.9 6.6 5.5 6.5 5.2c0 0 0.1 0 0.2 0.1l0.2 0.2c0.2 0 0.3 0.1 0.4 0.4 0.1 0.2 0.2 0.3 0.4 0.4l0.2 0.2C8 6.8 8.1 7.1 8.3 7.2c0.2 0.2 0.4 0.4 0.5 0.6l0.5 0.5C8.3 7.5 7.6 6.8 7.2 6.3zM5.6 5.8C5.7 5.9 5.8 6.1 6 6.4 5.8 6.3 5.6 6.2 5.6 6.1 5.5 6 5.4 5.8 5.3 5.6 5.4 5.6 5.5 5.7 5.6 5.8z"/><path class="st1" d="M30.5 35.5C30.5 35.5 30.5 35.6 30.5 35.5c-0.1 0.2-0.3 0.3-0.4 0.5 -0.4 0.3-0.7 0.6-1.1 1 -0.2 0.2-0.3 0.3-0.4 0.3 0.1-0.2 0.2-0.3 0.3-0.3C29.4 36.5 29.9 36 30.5 35.5z"/><path class="st1" d="M15.6 18.3L15.6 18.3c-0.1-0.1-0.1-0.1-0.1-0.1L15.6 18.3 15.6 18.3z"/><path class="st1" d="M20.8 38.8l-0.1 0.1 0 0L20.8 38.8C20.8 38.7 20.8 38.7 20.8 38.8L20.8 38.8z"/><path class="st1" d="M23.8 36.4C23.8 36.3 23.8 36.3 23.8 36.4L23.8 36.4 23.8 36.4z"/><path class="st1" d="M33.9 31.6c-0.1 0.1-0.2 0.1-0.2 0.2 0-0.1-0.1-0.1-0.1-0.1l0 0C33.7 31.6 33.7 31.6 33.9 31.6L33.9 31.6z"/><rect x="11.5" y="12.3" transform="matrix(0.7054 -0.7088 0.7088 0.7054 -5.5339 11.887)" class="st1" width="0.1" height="0.6"/><path class="st1" d="M13.2 14.4C13.2 14.5 13.2 14.5 13.2 14.4L13 14.3l0 0C13 14.3 13.1 14.3 13.2 14.4L13.2 14.4z"/><rect x="13.8" y="14.8" transform="matrix(0.7071 -0.7071 0.7071 0.7071 -6.519 14.1412)" class="st1" width="0.1" height="0.3"/><path class="st1" d="M28.1 32.6l0.1 0.1c-0.1 0-0.1 0-0.3 0.1C28 32.7 28.1 32.6 28.1 32.6z"/><path class="st1" d="M27.9 31.7l0.1 0.1 0 0C28 31.8 28 31.8 27.9 31.7z"/><path class="st1" d="M27.4 33.2L27.4 33.2c0 0.1-0.1 0.1-0.2 0.2L27.4 33.2z"/><path class="st1" d="M25.6 34.7L25.6 34.7c0 0.1 0 0.2 0 0.2h-0.1l0 0L25.6 34.7z"/><path class="st1" d="M28.4 32.4C28.4 32.4 28.5 32.4 28.4 32.4c0.1 0 0.1 0 0.1 0S28.5 32.4 28.4 32.4C28.5 32.4 28.5 32.4 28.4 32.4z"/><path class="st1" d="M29.3 33.3l-0.1 0.1c-0.1-0.1-0.1-0.2-0.2-0.3l0.1-0.1C29.2 33.1 29.2 33.2 29.3 33.3z"/><path class="st1" d="M29.3 31.7L29.3 31.7C29.3 31.7 29.3 31.8 29.3 31.7L29.3 31.7z"/><path class="st1" d="M30 32.6l-0.2-0.2 0 0C29.9 32.5 30 32.5 30 32.6 30.1 32.6 30 32.6 30 32.6z"/><path class="st1" d="M31.8 30.9C31.8 30.9 31.7 30.9 31.8 30.9c0-0.1 0-0.2 0.1-0.2 0.1 0.1 0.1 0.2 0.2 0.3L32 31.1C31.9 31 31.8 31 31.8 30.9z"/><path class="st1" d="M32.4 34C32.4 34 32.4 34.1 32.4 34c0 0.1-0.1 0.2-0.1 0.3 -0.1-0.1-0.1-0.1-0.2-0.2 0.1-0.1 0.1-0.1 0.2-0.2C32.3 33.9 32.4 34 32.4 34z"/><path class="st1" d="M32.1 29.7C32 29.8 32 29.9 31.9 30l0 0L32.1 29.7z"/><path class="st1" d="M31.9 29.4c0.1 0.2 0 0.3-0.1 0.3h-0.1l-0.1-0.1L31.9 29.4z"/><path class="st1" d="M31.7 34.4c0.1 0.1 0.1 0.1 0.2 0.2 0 0 0 0-0.1 0.1L31.7 34.4 31.7 34.4z"/><path class="st1" d="M31.5 34.9l-0.1-0.1 0 0c0.1 0 0.1-0.1 0.2-0.1 0 0.1 0.1 0.1 0.1 0.2C31.6 34.8 31.5 34.9 31.5 34.9z"/><path class="st1" d="M31.4 30.5C31.3 30.4 31.3 30.4 31.4 30.5l0.1-0.3 0.1 0.1C31.5 30.4 31.4 30.4 31.4 30.5z"/><path class="st1" d="M31.4 28.8l0.1 0.1c-0.1 0.1-0.2 0.2-0.3 0.3l-0.1-0.1C31.2 28.9 31.3 28.9 31.4 28.8z"/><path class="st1" d="M30.9 35.1l0.1 0.1c0 0.1-0.1 0.1-0.2 0.2l-0.1-0.1C30.8 35.2 30.9 35.1 30.9 35.1z"/><path class="st1" d="M30.7 29.3c0 0.1 0.1 0.1 0.1 0.2l0 0c-0.1 0.1-0.1 0.1-0.2 0.2 -0.1-0.1-0.1-0.1-0.2-0.2C30.6 29.5 30.7 29.4 30.7 29.3z"/><path class="st1" d="M30.3 31.4c-0.1 0.1-0.2 0.2-0.3 0.2 0 0 0 0-0.1-0.1L30.3 31.4C30.2 31.4 30.3 31.4 30.3 31.4z"/><path class="st1" d="M29.7 31.2c0.1 0 0.2-0.1 0.2-0.2 0 0.1 0.1 0.1 0.1 0.2 0 0-0.1 0.1-0.2 0.2L29.7 31.2 29.7 31.2z"/><path class="st1" d="M29.7 32.5c0.1 0 0.1 0 0.1 0.1v0.1c0 0 0 0.1-0.1 0.1l-0.2-0.2C29.6 32.6 29.7 32.6 29.7 32.5z"/><path class="st1" d="M8.5 9.5C8.6 9.5 8.6 9.5 8.5 9.5l0.2 0.1 0 0L8.6 9.7 8.5 9.5 8.5 9.5z"/><polygon class="st1" points="7.5 8.2 7.5 8.3 7.4 8.3 "/></svg>