<?xml version="1.0" encoding="UTF-8" standalone="no"?>
<svg width="1440px" height="762px" viewBox="0 0 1440 762" version="1.1" xmlns="http://www.w3.org/2000/svg" xmlns:xlink="http://www.w3.org/1999/xlink">
    <!-- Generator: Sketch 43.2 (39069) - http://www.bohemiancoding.com/sketch -->
    <title>Page 1</title>
    <desc>Created with Sketch.</desc>
    <defs>
        <rect id="path-1" x="0" y="0" width="1440" height="763"></rect>
    </defs>
    <g id="Page-1" stroke="none" stroke-width="1" fill="none" fill-rule="evenodd">
        <g id="Desktop-HD">
            <g id="Page-1" transform="translate(0.000000, -1.000000)">
                <mask id="mask-2" fill="white">
                    <use xlink:href="#path-1"></use>
                </mask>
                <g id="Mask"></g>
                <g mask="url(#mask-2)" fill="#E2001A">
                    <g transform="translate(-1106.000000, -1438.000000)">
                        <polygon id="Fill-1" points="2256.6714 1058.19 1058.1854 2256.676 1100.6114 2299.102 2299.0984 1100.617"></polygon>
                        <polygon id="Fill-2" points="2337.9888 1139.5074 1139.5028 2337.9934 1181.9288 2380.4204 2380.4158 1181.9344"></polygon>
                        <polygon id="Fill-3" points="2419.3062 1220.8248 1220.8202 2419.3108 1263.2462 2461.7368 2461.7322 1263.2508"></polygon>
                        <polygon id="Fill-4" points="2500.6235 1302.1422 1302.1375 2500.6282 1344.5635 2543.0542 2543.0505 1344.5682"></polygon>
                        <polygon id="Fill-5" points="2581.9409 1383.4596 1383.4549 2581.9456 1425.8809 2624.3716 2624.3669 1425.8856"></polygon>
                        <polygon id="Fill-6" points="2663.2573 1464.7765 1464.7723 2663.2625 1507.1983 2705.6895 2705.6843 1507.2035"></polygon>
                        <polygon id="Fill-7" points="2744.5757 1546.0938 1546.0897 2744.5798 1588.5157 2787.0068 2787.0017 1588.5198"></polygon>
                        <polygon id="Fill-8" points="2825.8921 1627.4107 1627.4061 2825.8967 1669.8321 2868.3237 2868.3191 1669.8377"></polygon>
                        <polygon id="Fill-9" points="2907.2095 1708.7281 1708.7245 2907.2141 1751.1495 2949.6411 2949.6365 1751.1551"></polygon>
                        <polygon id="Fill-10" points="2988.5269 1790.0455 1790.0409 2988.5315 1832.4669 3030.9585 3030.9539 1832.4725"></polygon>
                        <polygon id="Fill-11" points="3069.8442 1871.3629 1871.3582 3069.8489 1913.7842 3112.2759 3112.2712 1913.7899"></polygon>
                        <polygon id="Fill-12" points="3151.1616 1952.6803 1952.6756 3151.1663 1995.1016 3193.5923 3193.5876 1995.1073"></polygon>
                        <polygon id="Fill-13" points="2033.9928 3232.484 2076.4198 3274.91 3274.9058 2076.424 3232.4788 2033.998"></polygon>
                        <polygon id="Fill-17" points="1442.438 243.9566 243.952 1442.4426 286.378 1484.8696 1484.864 286.3826"></polygon>
                        <polygon id="Fill-18" points="1523.7554 325.274 325.2694 1523.76 367.6954 1566.187 1566.1814 367.7"></polygon>
                        <polygon id="Fill-19" points="1605.0728 406.5914 406.5868 1605.0774 449.0128 1647.5034 1647.4988 449.0174"></polygon>
                        <polygon id="Fill-20" points="1686.3901 487.9088 487.9041 1686.3938 530.3301 1728.8208 1728.8161 530.3348"></polygon>
                        <polygon id="Fill-21" points="1767.7065 569.2257 569.2215 1767.7117 611.6475 1810.1387 1810.1335 611.6517"></polygon>
                        <polygon id="Fill-22" points="1849.0239 650.5431 650.5379 1849.0291 692.9649 1891.4561 1891.4509 692.9691"></polygon>
                        <polygon id="Fill-23" points="1930.3413 731.8604 731.8553 1930.3464 774.2813 1972.7734 1972.7683 774.2864"></polygon>
                        <polygon id="Fill-24" points="2011.6587 813.1778 813.1727 2011.6638 855.5987 2054.0908 2054.0857 855.6038"></polygon>
                        <polygon id="Fill-25" points="2092.9761 894.4947 894.4901 2092.9807 936.9161 2135.4077 2135.4031 936.9217"></polygon>
                        <polygon id="Fill-26" points="2174.2935 975.8121 975.8075 2174.2981 1018.2335 2216.7241 2216.7205 1018.2391"></polygon>
                    </g>
                </g>
            </g>
        </g>
    </g>
</svg>