<?xml version="1.0" standalone="no"?>

<?xml-stylesheet type="text/css" href=""?>

<!DOCTYPE svg PUBLIC "-//W3C//DTD SVG 1.1//EN"
  "http://www.w3.org/Graphics/SVG/1.1/DTD/svg11.dtd">

<svg xmlns="http://www.w3.org/2000/svg" xmlns:xlink="http://www.w3.org/1999/xlink" width="1119" height="1145" preserveAspectRatio="xMidYMid slice" viewBox="0 15 1119 763" version="1.1" class="welcome-sign">

	<title>Shape</title>

	<desc>Created with Sketch.</desc>

	<g stroke="none" stroke-width="1" fill="none" fill-rule="evenodd">
		<g transform="translate(-161.000000, 0.000000)" fill="#B5E911">
			<path d="M437.9 159.7C331.4 224.8 295.9 337.1 301.8 455.4 307.7 550.1 402.4 650.6 497.1 686.1 621.4 721.6 745.7 680.2 840.4 597.4L461.6 147.9C455.7 141.9 449.8 153.8 437.9 159.7M514.9-307.6C366.9-230.7 455.7-53.2 550.4 47.3 603.7 35.5 645.1-23.7 662.8-71 680.6-142 686.5-218.8 633.3-278 603.7-313.5 556.3-319.4 514.9-307.6M372.8 153.8C396.5 136 437.9 112.4 437.9 112.4 366.9 29.6 313.7-76.9 331.4-195.2 355.1-272.1 432-349 532.6-360.8 633.3-372.6 727.9-337.1 775.3-248.4 810.8-189.3 793-100.6 763.5-47.3 710.2 17.7 651 41.4 580 76.9 686.5 212.9 822.6 366.7 941 496.8 976.5 461.3 1000.2 408.1 982.4 343 964.7 289.8 881.8 283.9 834.5 283.9L834.5 266.2 1236.9 266.2 1236.9 283.9C1100.8 289.8 1059.4 449.5 970.6 526.4 1041.6 609.2 1160 745.2 1225.1 709.7 1248.8 697.9 1278.3 656.5 1278.3 656.5 1284.3 674.3 1266.5 703.8 1248.8 727.5 1189.6 792.6 1112.6 792.6 1047.5 763 982.4 733.4 923.2 674.3 875.9 615.1 757.5 721.6 621.4 804.4 449.8 774.8 284.1 745.2 195.3 638.8 165.7 508.7 142 372.6 207.1 260.2 372.8 153.8" id="Shape"/>
		</g>
	</g>
</svg>
