<svg xmlns="http://www.w3.org/2000/svg" xmlns:xlink="http://www.w3.org/1999/xlink" width="35" height="35" viewBox="0 0 35 35" version="1.1">

	<title>twitter</title>

	<desc>Created with Sketch.</desc>

	<g id="Page-1" stroke="none" stroke-width="1" fill="none" fill-rule="evenodd">
		<g id="Desktop-HD" transform="translate(-1155.000000, -3924.000000)" fill-rule="nonzero">
			<g id="1494344157" transform="translate(1155.000000, 3924.000000)">
				<circle id="Oval" fill="#4A4A4A" cx="17.5" cy="17.5" r="17.5"/>
				<path d="M26.8 11.2C26.2 11.6 25.4 11.8 24.6 11.9 25.4 11.4 26 10.6 26.3 9.6 25.6 10.1 24.8 10.4 23.8 10.6 23.1 9.8 22.2 9.3 21.1 9.3 19 9.3 17.2 11.2 17.2 13.5 17.2 13.8 17.2 14.1 17.3 14.4 14.1 14.3 11.2 12.6 9.3 10.1 9 10.7 8.8 11.4 8.8 12.3 8.8 13.7 9.5 14.9 10.5 15.7 9.8 15.7 9.3 15.5 8.8 15.2L8.8 15.2C8.8 17.2 10.1 18.9 11.8 19.3 11.5 19.4 11.2 19.5 10.8 19.5 10.6 19.5 10.3 19.5 10.1 19.4 10.6 21.1 12 22.2 13.6 22.2 12.3 23.3 10.6 24 8.9 24 8.6 24 8.3 24 7.9 23.9 9.6 25.1 11.7 25.8 13.9 25.8 20.9 25.8 24.8 19.5 24.8 14.1L24.8 13.6C25.7 12.8 26.3 12.1 26.8 11.2Z" id="Shape" fill="#FFFFFF"/>
			</g>
		</g>
	</g>
</svg>
