<?xml version="1.0" encoding="utf-8"?>
<!-- Generator: Adobe Illustrator 21.1.0, SVG Export Plug-In . SVG Version: 6.00 Build 0)  -->
<svg version="1.1" id="ëÎÓÈ_1" xmlns="http://www.w3.org/2000/svg" xmlns:xlink="http://www.w3.org/1999/xlink" x="0px" y="0px"
	 viewBox="0 0 1000 1000" style="enable-background:new 0 0 1000 1000;" xml:space="preserve">
<style type="text/css">
	.st0{fill:#F4B7D6;}
	.st1{fill:#F40F82;}
	.st2{fill:#FC673A;}
	.st3{fill:#FFF343;}
	.st4{fill:#45A3FF;}
	.st5{fill:#B5CF3E;}
	.st6{fill:#201600;}
	.st7{fill:#FFFFFF;}
</style>
<g>
	<g>
		<path class="st0" d="M255.2,441.3c0,0,56,66.3,56,166.2c0,0-73.8,17.6-94.7-12c-48.5-68.6-12.1-101.1-7-107.6
			C224.3,469,235.4,462.3,255.2,441.3z"/>
		<g>
			<path class="st1" d="M267.1,140.6c4.9-7.6,9.7-15.3,14.6-23c-3.6-3.1-6.6-5.5-8.5-7c-30.7-23.7-19.2,2.6-13.4,14.9
				C262.1,130.4,264.5,135.5,267.1,140.6z"/>
			<path class="st2" d="M291,171c7.9-9.9,12.1-21.1,14.4-32.8c-9.4-8.4-17.6-15.5-23.7-20.7c-4.9,7.7-9.7,15.4-14.6,23
				c6,12,12.4,24.2,19,36.4C287.8,175,289.4,173,291,171z"/>
			<path class="st3" d="M331.3,161.3c-9.2-8.2-18-16.1-25.9-23.1c-2.2,11.7-6.5,22.9-14.4,32.8c-1.6,2-3.2,4-4.9,5.9
				c6.2,11.3,12.5,22.6,18.8,33.5c1.7-1.1,3.4-2.3,5.1-3.4C327,195.1,331.3,178.8,331.3,161.3z"/>
			<path class="st4" d="M377,261c6-9,10-19,12-29c1.3-5.1,2.5-10.3,3.5-15.4c-8.9-8.1-18.4-16.7-28.2-25.5
				c-5.6,23.5-17.4,45.4-33.9,62.1c8.4,13.7,16.1,25.9,22.3,35.6C361.5,280.6,369.7,271.6,377,261z"/>
			<path class="st3" d="M392.5,216.6c-1,5.1-2.1,10.3-3.5,15.4c-2,10-6,20-12,29c-7.3,10.6-15.5,19.6-24.3,27.7
				c9.6,15,15.7,24.2,15.7,24.2s56.2,7.7,70.7-53.9C439.1,259,418.9,240.5,392.5,216.6z"/>
			<path class="st5" d="M364.3,191c-11-10-22.3-20.1-33-29.7c0,17.5-4.2,33.8-21.3,45.7c-1.7,1.1-3.4,2.3-5.1,3.4
				c8.8,15.2,17.5,29.7,25.5,42.7C346.9,236.4,358.6,214.5,364.3,191z"/>
			<path class="st6" d="M374.3,318.4L374.3,318.4c-4,0-6.4-0.3-6.7-0.4l-2.4-0.3l-1.3-2c-0.7-1-69.5-104.3-109-188.1
				c-7.5-15.9-9.1-23.5-6.1-28.4c1.5-2.3,4-3.7,7-3.7c3.1,0,8.3,1.2,20.5,10.7c22.2,17.1,160.4,143.4,166.3,148.7l2.3,2.1l-0.7,3
				c-5.3,22.7-16.7,39.2-33.6,48.9C396.4,317.2,381.8,318.4,374.3,318.4z M371.4,307.8c0.8,0,1.8,0.1,3,0.1
				c14.1,0,47.4-4.7,58.9-47.2c-18.6-17-142.9-130.4-163.3-146.1c-6-4.6-9.6-6.7-11.7-7.7c0.5,2.5,2.1,7.3,6.3,16.2
				C300.6,199.7,361.4,292.7,371.4,307.8z"/>
		</g>
		<path class="st7" d="M761.1,720.1c2.8,14.2-6.4,29.6-14.6,40.1c-12.9,16.5-28.7,28.2-33.2,31.4c-44.4,31.2-71,48.5-139.4,83.3
			c-23,11.7-47.5,18.1-69.1,18.1c-22.7,0-40.9-6.9-52.6-20c-12.4-13.9-17.2-34.2-14.2-60.4c14.7-127.7,32.8-223.7,33-224.7
			c0.4-2.4-0.8-4.8-3.1-5.8c-0.7-0.3-1.4-0.4-2.1-0.4c-1.6,0-3.2,0.8-4.2,2.1c-5.5,7.4-21,12.1-43.6,13.3c-3.3,0.2-5.9,0.2-8.3,0.2
			c-10.3,0-19.7-1.3-34.9-7.7c-6.1-2.6-8.6-3.7-11.5-3.7c-2.8,0-4.7,1.1-7,2.3c-4.2,2.3-12.9,7-39.6,12.6
			c-0.1-77.6-45.3-141.4-57.3-156.9c11.9-14,61.2-72.1,132.8-155.5c15.5-18.1,71.3-42.4,107.1-42.4c8.5,0,15.3,1.3,20.1,4
			c10.5,5.8,23.3,10.4,36.9,15.3c33.9,12.3,72.3,26.3,88.1,62.6c50.3,115,70.3,200.3,83.5,256.7c2.2,9.5,4.3,18.4,6.3,26.2
			c5.8,23.1,9.9,38.3,13.2,50.6C752.5,681,756,693.8,761.1,720.1z"/>
		<path class="st6" d="M771.5,718.1c7.7,39.6-49.7,80.4-52.1,82.1c-44.8,31.5-71.7,49.3-140.7,84.4c-12.2,6.2-24.9,11.1-37.4,14.5
			c-12.5,3.3-24.9,5.1-36.5,5.1c-25.8,0-46.7-8.4-60.5-23.8c-14.5-16.3-20.1-39.5-16.8-68.8c11.5-100.3,25.2-181.2,30.7-212
			c-9.3,4.6-22.6,7.3-39.7,8.1c-3.4,0.2-6.2,0.2-8.8,0.2c-11.3,0-22.2-1.5-39-8.6c-3.5-1.5-6.6-2.8-7.4-2.8c-0.2,0.1-1.2,0.6-2,1
			c-4.6,2.5-14.3,7.7-42.6,13.7l-0.5,0.1c-20.7,4.3-38.6,8.1-55,8.1c-32.7,0-53.9-15.6-70.8-52.3c-12.4-26.9-6.3-57.7,17.8-88.9
			c16.3-21.2,35.4-35.6,38.9-38.2c5.1-6,56.8-67,135.2-158.4c8.6-10.1,27.3-21.6,49.8-30.9c23.5-9.7,47.4-15.2,65.3-15.2
			c10.3,0,18.7,1.8,25.1,5.3c9.9,5.4,22.3,9.9,35.4,14.7c35.9,13,76.5,27.8,94.2,68.2c50.7,115.9,70.8,201.8,84.1,258.6
			c2.3,9.8,4.3,18.3,6.2,26c5.7,23,9.9,38.2,13.2,50.4C762.8,678.4,766.3,691.4,771.5,718.1z M746.5,760.3
			c8.2-10.5,17.4-26,14.6-40.1c-5.1-26.4-8.6-39.2-13.9-58.6c-3.3-12.3-7.5-27.5-13.2-50.6c-2-7.8-4-16.7-6.3-26.2
			C714.6,528.3,694.6,443,644.3,328c-15.9-36.3-54.3-50.2-88.1-62.6c-13.5-4.9-26.3-9.6-36.9-15.3c-4.8-2.6-11.6-4-20.1-4
			c-35.8,0-91.6,24.3-107.1,42.4C320.5,372,271.2,430.1,259.3,444.1c11.9,15.5,57.2,79.4,57.3,156.9c26.7-5.6,35.4-10.3,39.6-12.6
			c2.3-1.2,4.3-2.3,7-2.3c2.9,0,5.4,1.1,11.5,3.7c15.2,6.4,24.6,7.7,34.9,7.7c2.4,0,5-0.1,8.3-0.2c22.6-1.1,38.1-5.8,43.6-13.3
			c1-1.4,2.6-2.1,4.2-2.1c0.7,0,1.4,0.1,2.1,0.4c2.3,1,3.5,3.4,3.1,5.8c-0.2,0.9-18.3,96.9-33,224.7c-3,26.1,1.8,46.5,14.2,60.4
			c11.7,13.1,29.8,20,52.6,20c21.6,0,46.2-6.4,69.1-18.1c68.4-34.8,95.1-52.2,139.4-83.3C717.8,788.5,733.6,776.8,746.5,760.3z
			 M306,603.2c0.8-73.1-42.4-135.8-54.5-151.9c-6.8,5.4-21.1,17.6-33.3,33.6c-21.7,28.3-27.2,54.5-16.4,77.9
			c15.1,32.8,32.8,46.2,61.2,46.2C275.8,609.1,290,606.5,306,603.2z"/>
		<g>
			<path class="st1" d="M790,569.7c0,0,19.4,67.3,3.9,97.6c-11.7,22.9-27.1,32.8-48.8,34.1c-20.6,1.3-52.7-12-62.6,9.2
				c-8.7,18.7,25.8,33.9,39.2,35.6c16.2,2,0,16.7-31.3,16.7c-29.4,0-68.6-30.1-77.1-70c-17.3-81.4,82.9-67.7,102.2-92.6
				C734.9,575.3,772.9,570.4,790,569.7z"/>
			<path class="st6" d="M690.6,769h-0.1c-15.9,0-34.1-8.2-49.8-21.8c-16.7-14.4-28.2-33.4-32.4-53.1c-12.7-60,34.3-73,68.7-82.3
				c15.1-4.1,29.4-8.1,34.6-14.7c21.2-27.3,61.8-31.9,78.3-32.6l4.1-0.2l1.2,4c0.8,2.8,19.8,69.6,3.6,101.5
				c-12.1,23.8-29,35.5-53.1,37c-1,0.1-2.1,0.1-3.3,0.1c-5.6,0-11.8-0.8-17.8-1.5c-6-0.7-12.2-1.5-17.7-1.5
				c-10.5,0-16.3,2.7-19.3,9.1c-1.3,2.9-1.2,5.6,0.5,8.6c5.7,10.2,25.6,18.4,34.6,19.5c10.6,1.3,11.1,8.1,11,10
				C732.8,760.6,713.6,769,690.6,769z M786.1,575.2c-43.3,3-61.6,22.3-66.2,28.3c-7.3,9.4-22.5,13.6-40.1,18.4
				c-16.5,4.5-35.3,9.6-47.8,19.9c-13.9,11.4-18.2,27.3-13.3,50c6.4,30.4,39.5,65.8,72.1,65.9l0.3,5.3v-5.3c14,0,24.9-3.5,29.6-6.3
				c-11.3-1.7-34.2-11-41.8-24.8c-3.3-5.9-3.6-12.2-0.9-18.2c7.1-15.2,23.5-15.2,28.8-15.2c6.2,0,12.7,0.8,19,1.6
				c5.9,0.7,11.6,1.4,16.5,1.4c0.9,0,1.8,0,2.6-0.1c20.6-1.2,33.9-10.6,44.4-31.2c5.8-11.4,7-31.1,3.3-56.9
				C790.6,593.8,787.6,581.3,786.1,575.2z"/>
		</g>
		<g>
			<path class="st1" d="M520.6,225c0,0-44.2-40-89.3-20.9c-35.9,15.2-26.4,40.1-43,69.1c-10.2,17.7-19.3,35.1-51.8,35.1
				c-19.8,0-50.3-28.8-38.2,4.9c6.6,18.3,34.3,42.5,81.7,37.7c35.8-3.6,68-22.4,88-48.8c18.1-23.9,19.7-41,40.1-32.8
				C539.4,281.9,551.7,252,520.6,225z"/>
			<path class="st6" d="M367.9,356.7c-41,0-67.4-21.7-74.6-41.8c-3.6-10.2-4-15.9-1.3-19.8c1-1.4,3.2-3.7,7.6-3.7
				c4.4,0,9.9,2.4,16.3,5.1c6.9,3,14.7,6.3,20.6,6.3c28.6,0,36.9-14.4,46.4-31l0.8-1.5c5.4-9.4,7.9-18.3,10.3-26.9
				c4.8-17.2,9.3-33.4,35.3-44.4c8.7-3.7,18.1-5.6,27.7-5.6c36.4,0,65.9,26.3,67.2,27.4c19.2,16.7,22.1,33.1,18.3,43.1
				c-3.1,8.2-10.9,12.9-20.8,12.9c0,0,0,0,0,0c-4.8,0-10.1-0.9-15.6-3.1c-2.8-1.1-5.2-1.6-7.1-1.6c-5.3,0-8.4,4.8-15,15.4
				c-3.2,5.2-6.9,11.1-11.8,17.5c-21.4,28.2-55.7,47.2-91.7,50.8C376.3,356.5,372,356.7,367.9,356.7z M300.8,302.2
				c0.1,1.4,0.6,4.2,2.4,9.2c5,14,26.4,34.8,64.7,34.8c3.7,0,7.6-0.2,11.5-0.6c33.2-3.4,64.7-20.8,84.4-46.7
				c4.6-6.1,8.1-11.7,11.2-16.7c7.1-11.3,12.6-20.3,24-20.3c3.3,0,6.9,0.8,11,2.5c4.3,1.7,8.2,2.6,11.7,2.6c0,0,0,0,0,0
				c5.5,0,9.4-2.3,10.9-6.3c2.6-6.9-1.2-19.3-15.5-31.7c-0.3-0.3-27.9-24.8-60.2-24.8c-8.2,0-16.2,1.6-23.6,4.8
				c-21.3,9-24.6,21-29.2,37.5c-2.5,8.8-5.3,18.8-11.3,29.3l-0.8,1.5c-9.8,17-20.9,36.3-55.6,36.3c-8.1,0-16.9-3.8-24.7-7.2
				C307.8,304.6,303.4,302.7,300.8,302.2z"/>
		</g>
		<g>
			<path class="st1" d="M628.1,598.8c-43,29.8-57.4,64.2-47.3,88.1c25.4,60,93.2,44.8,85.2,40.9c-49.7-24.3-44.7-74.9,0-73.6
				c62.7,1.8,111.5-31.2,128.3-52.9c38.2-49.2-7.1-216.4-46.8-129.7C713.4,546.3,657.6,578.4,628.1,598.8z"/>
			<path class="st6" d="M648.8,738C648.8,738,648.8,738,648.8,738c-12.3,0-53.7-3.7-72.9-48.9c-12-28.4,7.3-65.5,49.2-94.5
				c2.8-2,5.9-4.1,9.1-6.2c31.1-21,78.2-52.7,108.5-118.9c8.4-18.3,18-27.7,28.6-27.7c9.9,0,19.1,8.2,26.7,23.7
				c16.7,34.1,25.4,106.9,0.5,139c-17.6,22.7-67.8,56.8-132.6,54.9c-15.7-0.5-26.7,6.3-29.4,17.8c-4.3,18.7,13.5,36.8,31.9,45.8
				c3.1,1.5,4,4.7,3.5,7C670.1,737.1,655.2,738,648.8,738z M771.3,452.3c-5.9,0-12.7,7.6-19,21.5c-31.5,68.9-82,102.9-112.2,123.2
				c-3.2,2.2-6.2,4.2-9,6.1c-45.7,31.6-53,64.2-45.5,82.1c16.1,38.1,49.5,42.7,63.1,42.7c0,0,0,0,0,0c1.8,0,3.5-0.5,5-0.6
				c-23.7-15.3-31.2-36.7-27.6-52.3c3.7-16,18.3-26.1,38.2-26.1c0.6,0,1.2,0,1.8,0c60.9,1.7,107.7-29.8,124-50.8
				c9.4-12.1,14.2-34.3,13.2-61.1c-0.9-24.4-6.6-50-14.8-66.9C783,458.8,776.7,452.3,771.3,452.3z"/>
		</g>
		<g>
			<path class="st1" d="M697.9,319.7c0,0,52.6,9.5,69.1,53.6c16.6,44.3,26.2,112.1-13.9,170.7c-31.3,45.8-61.6,55-93.4,63.6
				c-25.2,6.8-78.5,12.8-100.6-20.1c-7.3-11-15-43.8-3-32c9.3,9.2,18.8,16.8,26.3,19c12,3.5,28.4-0.9,37.2-13.8
				c35.8-52.4,7.5-97.5,28.5-119.7c21-22.3,30.3-58.4,41.7-84C701.2,331.2,672.9,322.9,697.9,319.7z"/>
			<path class="st6" d="M619.5,618.1c-30.2,0-52.6-9.6-64.8-27.8c-5.4-8.1-13-31.2-8.9-38.9c1.3-2.4,3.6-3.8,6.2-3.8
				c3.3,0,6.1,2.3,7.8,4c12.7,12.5,20.1,16.4,24,17.5c2.2,0.6,4.5,0.8,6.9,0.8c0,0,0,0,0,0c7.6,0,18-3.2,24.4-12.6
				c19.4-28.3,19.1-54.8,18.8-76.1c-0.2-17.7-0.4-33,10.2-44.1c14.7-15.6,23.7-39.2,31.7-60.1c3-8,5.9-15.5,9-22.4
				c4.5-10.2,1.6-16.8-0.8-22c-1.6-3.6-3.5-7.8-1.2-11.8c2.3-4,7.3-5.5,14.2-6.3l0.8-0.1l0.8,0.1c2.3,0.4,55.8,10.5,73.1,56.9
				c11.2,30,32.3,107.1-14.5,175.5c-33.3,48.7-66.8,57.7-96.4,65.7C654.9,614.3,638.5,618.1,619.5,618.1z M555.6,562.2
				c1.2,6.8,4.4,17,7.9,22.2c12.8,19.1,37.6,23.1,56.1,23.1c17.8,0,33-3.6,38.8-5.2c29.2-7.9,59.4-16.1,90.5-61.5
				c44-64.3,24-137.4,13.3-165.8c-14.2-38-58-48.7-64.3-50.1c-2.5,0.4-4,0.7-4.8,1c0.3,0.7,0.7,1.6,1,2.3c2.7,6,7.2,16.1,0.8,30.6
				c-3,6.7-5.8,14.1-8.8,21.9c-8.3,21.8-17.7,46.5-33.9,63.6c-7.6,8.1-7.5,20.8-7.3,36.8c0.3,22.8,0.6,51.8-20.7,82.8
				c-7.3,10.7-20,17.9-33.2,17.9c0,0,0,0,0,0c-3.4,0-6.8-1-9.9-1.9C574.1,578.1,565.7,571.8,555.6,562.2z"/>
		</g>
		<g>
			<path class="st1" d="M562.2,235c0,0,69.1-17.7,108.8,12.4c34,25.8,51.2,65.8,50.8,111.9c-0.4,46.9-11.3,77.1-38.7,110.4
				c-18.2,22.1-45.9,35.2-71,43.9c-23.2,8-48.9,9.4-51.4-3.3c-2-10.3,7.7,0.4,29.5-14.5c52.1-35.6,40-100.2,33.7-119.4
				c-15.8-48.6-47.8-64.7-67.9-81.5C536,278,531.1,235.2,562.2,235z"/>
			<path class="st6" d="M674.2,243.2c-16.3-12.4-38.8-18.6-67-18.6c-23,0-42,4.3-45.7,5.2c-12.2,0.3-21,6.3-24.9,17
				c-5.8,16.1,1.5,40,16,52.1c3.7,3.1,7.7,6.1,11.9,9.2c18.7,14,41.9,31.5,54.4,69.9c1,3.1,23.8,75.6-31.7,113.5
				c-10.4,7.1-17.3,7.7-22,8.2c-3.2,0.3-6.4,0.6-8.6,3.5c-2,2.6-1.7,5.8-1.2,8.2c1,5.1,5.5,13.7,24.5,13.7c9.8,0,21.8-2.3,33.8-6.4
				c33.7-11.6,57.7-26.5,73.4-45.5c28.3-34.4,39.5-66.2,39.9-113.7C727.5,310.7,708.7,269.4,674.2,243.2z M679.1,466.4
				c-14.4,17.5-36.9,31.3-68.7,42.2c-10.8,3.7-21.8,5.8-30.4,5.8c-2.9,0-12-0.3-13.8-4.3c0,0,0.1,0,0.1,0c5-0.5,14.3-1.3,26.9-10
				c49.5-33.8,45.8-94.7,35.8-125.4c-13.5-41.5-38.2-60.1-58.1-75c-4.1-3.1-8-6-11.4-8.9c-11-9.2-17.2-28.5-12.9-40.5
				c2.4-6.6,7.7-10,15.6-10.1l0.6,0l0.6-0.2c0.2-0.1,19.9-5,43.7-5c25.8,0,46.2,5.6,60.6,16.5c31.8,24.1,49.1,62.4,48.7,107.7
				C716.1,404.6,706,433.6,679.1,466.4z"/>
		</g>
		<g>
			<path class="st7" d="M578.9,195.6c-40.2-37.5-83.6,90.1-83.6,90.1l44.7,34C628.9,279.7,589.5,205.5,578.9,195.6z"/>
			<path class="st6" d="M540.1,324.9c-2,0-3.9-1.2-4.8-3.1c-1.2-2.7,0-5.8,2.6-7c31-13.9,48.8-33.3,52.8-57.7
				c4.7-28.2-10.8-53.5-15.3-57.7c-5.1-4.7-10.2-6.4-15.6-5c-24.9,6.3-51.3,69.2-59.4,92.9c-0.9,2.8-3.9,4.2-6.7,3.3
				c-2.8-0.9-4.2-3.9-3.3-6.7c0.3-0.9,7.7-22.6,19.4-45.7c16.1-32,32.1-50.2,47.4-54c8.9-2.2,17.7,0.4,25.4,7.5
				c6.6,6.1,23.9,34.6,18.6,67.2c-4.6,28-24.4,50.1-58.8,65.6C541.5,324.8,540.8,324.9,540.1,324.9z"/>
		</g>
	</g>
	<g>
		<path class="st6" d="M413.8,405.3c0-0.2,0.2-0.3,0.2-0.5v-23.7c0-2.9-2.1-5.3-5-5.3c-2.9,0-5,2.4-5,5.3v23.1
			c-4,0.2-7.5,0.9-10.7,2.1c-0.1-0.3-0.4-0.5-0.6-0.8L380,387.4c-1.7-2.4-5-3-7.4-1.3c-2.4,1.7-3,4.9-1.4,7.3l12.5,18.2
			c-3.8,3-6.9,6.8-9.2,11.1L361,415c-2.5-1.4-5.8-0.5-7.2,2c-1.4,2.5-0.5,5.8,2,7.2l14.1,7.9c0.4,0.2,0.9,0.4,1.3,0.5
			c-0.3,1.9-0.5,3.8-0.5,5.7c0,18.9,15.3,34.1,34.1,34.1s34.2-15.3,34.2-34.1C439.1,422.5,428.4,409.2,413.8,405.3z M394.3,440.8
			c-5.9,0-10.6-4.7-10.6-10.6c0-5.9,4.7-10.6,10.6-10.6c5.9,0,10.6,4.7,10.6,10.6C404.9,436,400.2,440.8,394.3,440.8z"/>
		<path class="st6" d="M221.8,534.3c-7.2,4.9-3.8,14.9,2.9,16.9c9.8,2.9,5.5,9.1,8.5,12.5c2.5,2.7,6.9-10.1,6.9-15.5
			C240.2,537.3,232.4,527,221.8,534.3z"/>
	</g>
</g>
</svg>
