<svg width="76" height="71" viewBox="0 0 76 71" xmlns="http://www.w3.org/2000/svg" xmlns:xlink="http://www.w3.org/1999/xlink">
  <title>
    Page 1
  </title>
  <defs>
    <path id="a" d="M71.593 45.942H0V.086h71.593z"/>
  </defs>
  <g fill="none" fill-rule="evenodd">
    <path d="M55.832 15.85c-.62.395-1.05.997-1.475 1.583-.136.225-.225.48-.416.67-.467.66-.83 1.496-.613 2.32.212.004.424.072.64.045.205-.1.388-.26.632-.253.26.02.217-.422.488-.376.06-.157.122-.374.337-.308l.016-.304c.32.042.314-.35.46-.536.127-.12.246-.26.232-.45.106-.05.213-.102.32-.157l-.017-.267c.096-.09.187-.187.273-.29.058-.136.04-.33.23-.356.094-.167.19-.333.3-.49l-.132-.274h.21c.142-.308.196-.676.07-.997-.19-.12-.423-.097-.63-.166-.394.05-.6.426-.924.607m-7.112-4.904l-.17.012c-1.817 2.885-3.638 5.768-5.448 8.656-.134.326-.312.664-.283 1.025.44.22.73-.278 1.088-.433.247-.084.384-.327.615-.44.12-.13.253-.25.396-.354.493-.366.855-.875 1.326-1.266.33-.523.792-.96 1.046-1.527.71-.912 1.28-1.924 1.88-2.91.723-.922 1.496-1.828 1.96-2.914-.805.046-1.61.07-2.412.15M54.556.106h1.43c.54.117 1.095.01 1.64.07.347.02.684.11 1.024.17.203.11.45.04.648.162.435.093.984.027 1.312.368.228.04.422.167.573.34h.27v.186c.268.085.55.185.72.428.19.27.47.468.635.758.068.145.156.282.197.438.24.125.117.458.183.68-.016.512-.21.982-.33 1.473-.072.24-.167.487-.394.62l-.01.24c-.18.257-.364.512-.61.706-.206.15-.266.435-.5.548-.22.14-.52.21-.614.483-.058 0-.175.002-.233.004-.136.132-.268.267-.4.404-.252-.013-.436.14-.473.39l-.235-.003c-.15.093-.293.194-.417.318l-.32.01c-.272.267-.655.294-.988.43-.43.275-.977.235-1.386.557-.18.008-.364.005-.532.073-.132.05-.263.1-.394.148l-.29-.004-.146.155c-.26.048-.533.066-.77.188-.23.215-.426.464-.596.727-.354.423-.634.898-.907 1.374-.04 0-.118-.004-.157-.005l-.024.302c-.182.225-.314.487-.497.713-.267.326-.402.76-.762 1.006-.04.185-.13.347-.265.478-.182.163-.227.433-.437.567-.042.114-.054.248-.146.337-.498.49-.693 1.194-1.17 1.7-.414.765-1.044 1.402-1.39 2.204-.094.12-.182.243-.28.357-.002.183 0 .365 0 .548l.282-.01c.298-.172.65-.254.902-.5.41-.365.898-.65 1.234-1.09.185-.24.488-.35.66-.6.186-.274.417-.51.662-.728.64-.555 1.11-1.285 1.798-1.787.302-.378.736-.602 1.104-.903.6-.315 1.212-.715 1.914-.69.676-.098 1.356.015 2.025.122.035.165.115.303.29.348.07-.145.108-.39.316-.39.726-.078 1.45.092 2.18.03-.826 1.385-1.696 2.743-2.516 4.132-.246.658-.703 1.213-.91 1.886.075.063.152.127.23.19.254-.207.52-.407.825-.535.453-.384 1.01-.67 1.312-1.208.175-.116.337-.258.407-.463.172-.07.35-.127.537-.15.086.093.173.185.262.275 0 .115 0 .23.002.347-.47.38-.774.962-1.334 1.22-.208.22-.48.39-.623.664l-.233-.01c-.022.044-.066.132-.09.176-.445.23-.822.57-1.254.82-.498.14-.993.31-1.522.22-.118-.11-.256-.2-.418-.228-.16-.31-.098-.674-.25-.987h-.35l-.3.315c-.25-.023-.448.08-.555.31-.095.007-.19.015-.283.026-.064.08-.126.163-.19.244-.188.055-.378.105-.57.143-.338.174-.722.213-1.095.184-.45-.293-.854-.654-1.092-1.145-.223-.313.1-.737-.18-1.025-.364.196-.715.41-1.055.644-.118.054-.15.19-.212.29-.353 0-.562.352-.912.362-.098.078-.192.163-.304.22-.175.048-.32.154-.42.304-.492.127-1 .573-1.503.23-.164-.09-.323-.192-.447-.332-.063-.24-.16-.467-.22-.706-.037-.29.04-.582-.003-.872-.19.107-.45.172-.51.41-.214.072-.392.206-.535.378-.187.077-.418.123-.483.347h-.224c-.158.18-.36.33-.613.328-.26.138-.515.31-.814.352-.324.06-.697.233-1.003.023l-.222-.02c-.01-.225-.238-.277-.403-.357.11-.37-.226-.76-.007-1.088l.01-.37c-.266.083-.53.205-.692.44-.23.318-.598.47-.902.7l-.193-.015c-.15.092-.3.19-.425.318l-.275.012-.22.2-.06.156c-.317.007-.648.037-.924.208-.61-.12-1.213-.302-1.835-.36-.4-.832.12-1.673.443-2.43.27-.437.58-.846.875-1.264.223-.367.56-.648.75-1.038.37-.358.558-.852.92-1.22.362-.376.523-.898.92-1.247.808.01 1.616.007 2.424.002-1.093 1.764-2.28 3.462-3.438 5.18-.2.247-.36.522-.472.818.13.105.297.196.464.113.536-.194 1.092-.394 1.535-.766.254-.284.612-.45.835-.767.527-.42.865-1.02 1.38-1.452.292-.465.616-.912.964-1.34.447-.72.774-1.52 1.324-2.173.656-.977 1.245-1.997 1.875-2.99.192-.3.37-.608.506-.937-.29-.017-.48-.248-.723-.373-.076-.187-.196-.328-.416-.31 0-.085.003-.253.004-.338l-.183-.01-.12-.282c-.01-.16-.018-.324-.137-.444.172-.095.158-.338.006-.45.028-.12.058-.24.09-.36l-.13-.04c.102-.16.216-.314.33-.467.185-.35.566-.566.653-.977l.173.01.004-.18.273-.137.192-.006c.54-.445 1.084-.95 1.812-1.024.145-.175.328-.324.568-.317.336.01.593-.25.922-.265.475-.032.918-.22 1.36-.383.19.015.395.04.574-.055.274-.13.587-.053.88-.075.358-.235.82-.185 1.23-.21.667.102 1.37-.028 2.01.214.413.223.873.337 1.33.432l.177.177c.103.306.28.61.185.945-.182.063-.375.1-.565.05-.522-.126-1.027-.322-1.545-.46-.634-.054-1.27-.134-1.905-.052-.727-.097-1.448.084-2.16.21-.52.182-1.074.166-1.608.292l-.244.197-.316.01c-.273.173-.565.346-.9.32-.09.096-.182.192-.274.286-.298.027-.454.324-.73.403-.21.074-.37.238-.55.358-.137.312-.512.412-.706.683-.012.167-.044.33-.105.487.047.17.097.345.21.485.164.495.692.644 1.095.885.21.06.428.067.64.11.108.09.214.183.32.278 1.283-.026 2.567 0 3.85-.012.313-.05.62-.14.945-.107 0-.052.003-.157.005-.21.32.004.655.033.956-.105.387-.158.815-.163 1.21-.288.442-.12.944-.185 1.307-.478.175-.05.354-.095.53-.146l.018-.18c.264-.058.525-.15.8-.125.112-.105.222-.212.333-.32h.342c.106-.12.215-.238.326-.355.176-.03.345-.085.515-.14-.002-.046-.003-.14-.004-.188l.26-.008c.1-.092.21-.178.336-.236.297-.342.718-.54 1.002-.897.126-.318.413-.528.698-.695.075-.146.177-.293.152-.467.047-.043.14-.13.185-.174-.004-.22.01-.44.1-.645-.14-.19-.068-.435-.14-.646-.114-.24-.297-.456-.55-.554-.084-.166-.146-.383-.374-.365-.077-.344-.514-.362-.733-.59-.203-.008-.4-.047-.58-.142-.253-.33-.76-.04-.987-.332-.248-.078-.52-.093-.75-.22-1.23-.03-2.462 0-3.693-.016-.188.007-.384-.02-.562.05-.73.258-1.535.14-2.27.367-.686.272-1.42.415-2.075.756-.18.1-.382.14-.58.177-.227.232-.545.31-.86.31-.247.175-.522.304-.813.382-.475.192-.908.47-1.364.698-.212.22-.51.305-.774.444-.22.12-.57.144-.605.45-.203.003-.378.086-.48.266-.213.102-.464.125-.634.302-.24.087-.416.277-.585.46l-.253-.003-.062.25c-.27.11-.465.334-.682.52-.156.085-.305.18-.455.274-.108.275-.423.377-.562.633l-.175.054c-.206.265-.465.484-.686.734-.148.39-.635.49-.76.87l-.246.004c-.032.206-.228.285-.394.36-.008.096-.013.19-.016.287-.303.11-.537.348-.668.64l-.262.132c-.082.14-.205.242-.353.304-.043.166-.152.275-.32.315-.037.17-.146.278-.313.318-.042.194-.183.31-.36.376-.07.145-.165.267-.32.322-.086.157-.193.304-.338.413-.013.057-.04.172-.05.23-.103.043-.205.087-.306.133-.073.288-.407.39-.48.678-.24.304-.527.56-.795.837h-.247c-.102.3-.375.47-.575.696-.152.246-.335.468-.548.664-.184.354-.44.67-.665.998-.313.25-.523.59-.718.934-.253.06-.333.32-.46.514-.114.207-.29.37-.46.527-.076.16-.146.35-.353.353.052.478-.397.776-.667 1.11-.03.174-.17.28-.307.368-.157.386-.495.66-.643 1.05-.115.15-.278.247-.44.337-.246.124-.524.128-.793.135-.334.367-.87.286-1.27.526-.174.105-.374.142-.573.163-.01-.168-.013-.346-.13-.482.062-.145.11-.295.137-.45.043-.04.127-.12.17-.158.012-.058.04-.172.053-.23l.203-.12c.134-.25.23-.565.52-.673.09-.147.18-.297.276-.443.092-.153.156-.32.205-.492l.208-.048c.058-.22.187-.404.34-.565.004-.113.008-.225.014-.336.104-.07.208-.143.31-.218-.008-.126.016-.245.072-.356.115-.373.34-.695.582-.997.066-.252.225-.46.348-.686v-.33c.102-.096.2-.195.3-.294.03-.31.207-.567.39-.807-.003-.08-.005-.24-.008-.318.13-.12.236-.267.306-.43.01-.17.063-.332.138-.485.064-.1.124-.206.177-.314.162-.537.407-1.047.583-1.58.01-.05.027-.152.036-.203.046-.106.08-.217.107-.33.072-.155.167-.3.29-.42.002-.19.004-.38.01-.567.126-.163.292-.325.3-.547.026-.46.052-.93.198-1.372.168-.295.002-.657.127-.967.188-.43.246-.903.25-1.367-.08-.694.018-1.41-.162-2.09-.06-.216.005-.457-.1-.662-.113-.28-.142-.604-.35-.837l-.008-.216h-.262v-.284c-.195-.032-.317-.155-.35-.35h-.282v-.188c-.267-.07-.51-.206-.727-.376-.122-.01-.235-.05-.34-.114-.298-.042-.64.078-.905-.11-.18-.01-.362-.03-.54.008-.677.224-1.45-.085-2.08.336-.227.094-.495.086-.696.24-.17.13-.37.2-.577.233l-.18.177-.23.022c-.11.056-.227.093-.35.11-.025.227-.2.304-.406.318-.297.24-.577.502-.9.705-.24.318-.59.548-.76.927-.147.148-.28.314-.367.507-.026.056-.08.165-.108.22-.115.373-.103.795-.377 1.1-.093.565-.08 1.14-.058 1.71.055.25.167.487.22.74.3.24.37.796.83.756l.317.297c.313-.012.63.006.924.126.23.12.47-.017.703-.046.232-.153.55.016.758-.182.066.037.13.076.195.115.172-.096.345-.192.496-.32.07-.002.212-.008.28-.012.314-.157.524-.453.83-.614.426-.264.826-.59 1.057-1.048.042-.01.123-.035.164-.046.075-.244.32-.374.412-.607.134-.397.38-.744.616-1.084.017-.49-.047-.997.135-1.467h.327c.015.167.065.328.147.475.238.277.272.66.4.99-.17.307-.192.683-.22 1.027-.175.148-.295.34-.336.567-.124.126-.28.234-.346.41-.213.533-.72.856-1.09 1.27-.15.052-.3.105-.445.167-.19.27-.492.415-.714.65-.058 0-.175-.005-.234-.007l-.295.32c-.16 0-.325 0-.458.102l-.345.01-.318.21c-.834-.025-1.664.114-2.496.04l-.083-.128c-.164-.04-.318-.12-.44-.235-.076.003-.227.01-.302.015-.36-.4-.882-.676-1.094-1.195-.133-.145-.32-.273-.3-.497-.206-.19-.195-.505-.298-.75.01-.253.107-.508-.018-.75.068-.1.05-.18-.057-.243.372.007.178-.422.234-.654.073-.407.137-.846.4-1.182.144-.36.447-.665.402-1.084l.157-.013c.054-.12.12-.24.218-.334.228-.235.34-.603.686-.7.162-.474.695-.6.975-.97l.266.002.01-.213.262-.01c.32-.227.635-.49 1.018-.602.058-.268.354-.164.55-.195.124-.095.244-.2.387-.265.274-.1.595.042.85-.128.177-.02.368 0 .527-.103.406-.013.797-.162 1.208-.13.65.036 1.323-.095 1.95.136l.312.117c.208.086.454.03.648.157.102.008.205.015.307.02l.003.26h.416c0 .045.005.138.006.185.14.055.28.107.426.145.082.13.126.325.32.325.127.134.262.264.436.335.15.39.543.636.72 1.024l-.003.275c.1.093.198.187.296.282.018.2.106.38.207.55.02.137.046.276.124.394.007.24.005.48.004.718l.148.094c.038.76-.003 1.524.016 2.285-.02.216.075.504-.157.634-.004.258-.003.516-.013.776-.14.206-.08.468-.164.694-.203.456-.13.978-.322 1.44-.148.188-.15.425-.15.653-.403.356-.26.954-.562 1.363l-.023.31c-.048.105-.087.214-.12.327-.27.303-.322.735-.606 1.034l.052.254c.15-.164.277-.375.5-.445.312-.108.463-.432.715-.625l.003-.234c.18-.054.327-.167.46-.296l.026-.222h.154c.05-.165.16-.288.317-.36.142-.2.29-.394.445-.584.156-.065.28-.172.32-.342.15-.052.258-.16.323-.304.164-.33.564-.444.72-.78.117-.048.248-.09.28-.23.286-.163.544-.394.683-.7.18-.043.28-.17.316-.348.037 0 .11 0 .145-.002.034-.18.136-.306.317-.346.074-.256.322-.392.444-.62.21-.08.358-.244.42-.46.06-.002.177-.002.236-.002.084-.233.248-.422.453-.56.18-.033.27-.167.308-.34h.177c0-.045 0-.134.002-.18.27-.05.425-.266.522-.507l.262.002.018-.17c.21-.11.375-.285.58-.402.19-.108.368-.238.5-.413.05-.01.15-.023.2-.032.036-.17.13-.295.303-.337.545-.35 1-.847 1.603-1.106l.16-.19c.068 0 .204.006.273.008l.02-.186c.134-.032.24-.113.336-.21.372-.116.685-.364 1-.584.23-.03.428-.15.618-.275.317-.254.676-.48 1.09-.52.06-.073.124-.148.188-.222.49-.143 1.044-.22 1.43-.58.684-.196 1.35-.443 2.038-.63.676-.227 1.393-.25 2.08-.43.543-.037 1.092-.044 1.63-.127" fill="#1D1D1B"/>
    <path d="M41.63 10.684c.38-.192.788-.322 1.212-.357.206.064.412.13.62.19.08.196.123.412.263.576-.11.055-.153.156-.127.302-.174.112-.064.35-.097.516-.067 0-.206-.005-.274-.006-.06.176-.176.325-.376.333-.06.127-.177.19-.307.22-.248.183-.61.046-.904.088-.127-.14-.24-.343-.454-.336-.013-.193.067-.465-.22-.456.186-.1.176-.292.168-.476.165-.2.25-.473.497-.594M30.59 20.915c.61-.03 1.23.005 1.845-.007-.066.536-.655.736-.97 1.105-.688.618-1.364 1.246-2.06 1.854-.12.12-.283.16-.445.177-.02-.137-.083-.244-.19-.32-.012-.252.118-.468.276-.65.24-.42.62-.742.822-1.187.235-.33.55-.6.72-.972" fill="#1D1D1B"/>
    <g transform="translate(0 24.138)">
      <mask id="b" fill="#fff">
        <use xlink:href="#a"/>
      </mask>
      <path d="M44.876 38.943c.004 1.913 0 3.826.002 5.74-.03.13.088.27.223.252 1.207 0 2.414-.004 3.62.002.173-.31.11-.67.117-1.008v-4.746c.01-.194-.16-.358-.354-.335-1.028-.008-2.057 0-3.086-.005-.18-.012-.356.03-.52.098m-4.707.024c.02 1.898.002 3.796.008 5.694-.02.125.052.285.2.27 1.04.01 2.08 0 3.118.005.19.01.277-.22.272-.38.004-1.692-.004-3.383.004-5.074.003-.183-.027-.363-.057-.542-.135-.053-.276-.106-.423-.092-.882.002-1.765 0-2.647 0-.17-.01-.332.035-.475.12m-5.27.212c-.005 1.883.005 3.765-.005 5.647.118.056.238.128.377.112 1.174-.004 2.35-.005 3.523 0 .173-.313.108-.674.116-1.014.005-1.61-.005-3.22.007-4.83l-.247-.25c-1.138.012-2.275-.002-3.412.006-.182-.01-.405.118-.36.328m-4.962.008c-.002 1.76.002 3.518-.002 5.277-.002.136.034.27.065.404 1.224.023 2.45.026 3.676-.002.1-.34.054-.696.06-1.045.004-1.61-.004-3.223.005-4.835l-.173-.138c-1.09.002-2.18-.004-3.272.002-.197-.026-.37.14-.36.336m14.99-7.478c-.08.362-.04.736-.048 1.104-.005 1.63.01 3.26-.007 4.892.134.07.272.16.432.14 1.1-.006 2.2 0 3.3-.004.077-.08.156-.158.235-.237v-5.618c.02-.2-.174-.29-.34-.31-.437-.054-.88-.035-1.317.02-.75-.084-1.506-.056-2.256.013m-4.75.05c.01 1.993.003 3.988.002 5.98.12.053.24.12.376.107.88-.007 1.758-.002 2.637-.002.165.002.326-.045.487-.083.172-.393.063-.83.092-1.243-.025-1.51.054-3.028-.054-4.537-.09-.122-.184-.274-.355-.272-.76-.018-1.525 0-2.287-.006-.3.003-.607-.032-.9.057m-5.215-.06c-.096.29-.054.6-.06.898 0 1.553.003 3.107 0 4.66-.006.185.024.37.053.554.457.064.918.015 1.377.03.843-.03 1.693.064 2.53-.06.085-.346.05-.703.054-1.053.003-1.552-.002-3.104.005-4.655-.003-.128-.01-.333-.165-.363-.487-.113-.996-.07-1.488-.018-.766-.086-1.54-.047-2.304.007m-4.906.002c-.174.31-.108.67-.116 1.007-.003 1.61.006 3.223-.005 4.834l.303.303c1.06-.015 2.12.004 3.18-.01l.284-.063c.152-.33.078-.702.093-1.052-.016-.774.042-1.552-.05-2.322-.013-.836.01-1.673-.01-2.508.003-.233-.296-.184-.446-.225-.6-.032-1.205-.04-1.802.027-.476-.102-.953 0-1.43.008m14.824-7.155c.004 1.945 0 3.892.002 5.838-.04.186.15.295.312.26 1.116-.04 2.224.096 3.34.048l.25-.155c.03-.12.06-.242.06-.366-.005-1.768-.003-3.536-.002-5.303.005-.135-.046-.26-.083-.384-.866-.077-1.738-.017-2.606-.036-.425.026-.87-.076-1.274.097m-4.692.044c-.122.263.003.544-.004.816 0 1.68-.008 3.36.003 5.04-.003.252.308.19.472.2.918-.042 1.833.113 2.75.036.165-.007.322-.122.34-.293.094-.64-.062-1.28-.03-1.922.003-1.308 0-2.615.002-3.92-.168-.07-.346-.11-.528-.1-.848.005-1.694 0-2.54.002-.156.015-.37-.014-.466.14m-5.294-.023c.02 1.946.002 3.892.01 5.84l.24.237c.408.003.82-.01 1.23.007.815.087 1.655.07 2.473-.027.046-.146.082-.295.072-.448-.01-1.798 0-3.597-.004-5.395.013-.157-.064-.336-.248-.315-.957-.037-1.915-.003-2.873-.016-.302.007-.628-.048-.9.117m-4.896-.028c-.025.143-.06.288-.06.438.002 1.517 0 3.035.002 4.553 0 .353-.023.71.048 1.057.62.143 1.268-.02 1.894.104.593-.008 1.198.066 1.78-.075.093-.173.155-.36.134-.56-.02-.88.043-1.76-.056-2.636.004-.946-.004-1.89.005-2.832-.043-.035-.132-.104-.176-.138-1.054.002-2.107-.002-3.16.002-.143-.008-.276.05-.41.087M16.31 22.13c-.207.143-.533.06-.654.327-.14.276-.425.49-.41.83 4.487-.008 8.976.015 13.464-.013.01-.348.027-.698.003-1.046l-.096-.1c-4.102-.01-8.206-.013-12.308.002m24.313.847l-.032.31c.937-.007 1.874.01 2.81-.008.023-.026.072-.074.096-.1.086-.444-.123-.864-.328-1.244-.228-.423-.538-.8-.893-1.122-.117-.13-.29-.13-.45-.133-.4.767-.793 1.536-1.202 2.297m-5.524.308c1.01.002 2.023 0 3.035 0-.014-.145-.043-.29-.124-.41-.362-.634-.715-1.272-1.07-1.908-.067-.133-.185-.224-.285-.324-.87.58-1.48 1.593-1.556 2.642m2.764-3.318c-.016.094-.03.188-.047.282.473.805.957 1.607 1.39 2.436l.27.01c.44-.91 1.028-1.754 1.364-2.713-.95-.347-2.02-.332-2.976-.016M32.59 17.42c-1.463 1.56-2.504 3.606-2.61 5.77.137.054.278.11.43.097 1.024 0 2.05-.002 3.073 0 .157.005.36-.01.427-.18.193-.272.125-.627.275-.913.38-.89.892-1.756 1.684-2.335.2-.122.17-.36.134-.557-.602-.962-1.136-1.965-1.7-2.95-.15-.003-.303-.005-.454-.006-.402.38-.894.653-1.26 1.074m11.64-1.324c-.544 1.11-1.154 2.188-1.71 3.293l.057.25c.782.653 1.5 1.444 1.83 2.43.166.39.21.82.354 1.22 1.304-.017 2.607.016 3.91-.018.01-.245.028-.494-.04-.732-.134-.578-.17-1.203-.456-1.73-.342-1.084-.97-2.064-1.706-2.922-.474-.657-1.123-1.162-1.785-1.615-.13-.108-.3-.135-.454-.177m-8.384-.822c-.24.092-.5.234-.552.512.504.81.935 1.665 1.418 2.49.138.222.218.515.492.614.318.043.6-.16.915-.158.357.002.706-.15 1.064-.084.397.062.8.024 1.2.033.33.156.72.222 1.074.126.398-.446.586-1.04.88-1.555.28-.44.472-.93.745-1.374.07-.132.187-.35.054-.472-.838-.378-1.74-.615-2.65-.734-1.563-.182-3.183 0-4.64.604m-30.57-1.18c-.877.265-1.808.534-2.447 1.238-.725.545-1.15 1.372-1.5 2.188-.288.74-.255 1.54-.192 2.317.08.766.405 1.48.84 2.106.922 1.216 2.264 2.092 3.73 2.494.77.13 1.53.31 2.3.43 1.285 0 2.664.135 3.826-.52.57-.543 1.338-.823 1.95-1.313.215-.287.43-.575.673-.838l-.19-.07c-1.378-.012-2.756.002-4.133-.007-.772-.097-1.55-.034-2.326-.05-.25-.023-.525.063-.746-.085-.048-.265-.203-.54-.103-.807.204-.14.46-.16.7-.174.285-.268.72-.294.963-.612.44-.522.89-1.108.945-1.815.24-.682.122-1.407.092-2.11-.192-.565-.332-1.16-.744-1.614-.13-.345-.536-.423-.713-.716-.413-.056-.82-.172-1.24-.17-.567-.028-1.122.116-1.685.127m33.888-4.26c-.146.336-.094.71-.093 1.064.093.794.032 1.595.05 2.392.117.047.234.113.367.1.518-.01 1.04.01 1.56-.008l.077-.07c.054-.386-.274-.68-.4-1.02-.193-.556-.51-1.055-.733-1.596-.132-.25-.205-.53-.38-.756-.094-.16-.3-.078-.448-.105M12.968.198c.317-.182.98-.174.967.323.01 1.45-.003 2.904.007 4.355.014.177-.047.342-.112.504-.12.055-.237.113-.354.173-.192-.052-.4-.08-.564-.2-.17-.37-.103-.787-.153-1.178-.107-.41-.35-.782-.656-1.073-1.29-1.118-3.347-1.273-4.75-.273-.434.362-.604.93-.788 1.444-.138.78.34 1.543 1.008 1.913 1.782 1.445 3.86 2.456 5.74 3.752.342.303.738.534 1.11.794.442.298.72.768 1.16 1.07.43.516.975.942 1.258 1.572.243-.19.262-.51.37-.776.393-1.032.76-2.075 1.098-3.126.53-1.295.92-2.64 1.45-3.935.307-1.022.698-2.015 1.062-3.016-.45-.156-.928-.075-1.393-.09-.47.012-.974-.085-1.4.168-.716.28-1.178.98-1.336 1.708-.04.415.106.946-.333 1.198-.17-.004-.342-.003-.514 0-.204-.143-.333-.37-.322-.625-.007-1.31.004-2.623-.005-3.933.005-.198-.014-.405.06-.593.25-.415 1.065-.326 1.073.22.036.294.044.774.438.794 2.11.003 4.222.01 6.332-.002.134.112.36.193.34.408-.146.477-.404.913-.545 1.393-.286.835-.53 1.686-.894 2.494-1.464 4.04-2.905 8.09-4.41 12.116-.002.142.008.285.035.427.6-.01 1.2.005 1.8-.004.476-.03.98-.04 1.405-.296.724-.378 1.175-1.144 1.283-1.94.013-1.23-.007-2.46.006-3.688-.023-.507.802-.638 1.006-.212.19.355.15.77.153 1.16 0 2.187-.002 4.374.002 6.563 0 .21-.018.444-.16.612-.254.17-.59.17-.843 0-.262-.317-.06-.802-.38-1.09-1.523.013-3.046-.003-4.57.006-.182-.01-.373.088-.413.28-.093.48-.233.96-.238 1.45 3.274.032 6.552.008 9.828.014.8-.087 1.612-.135 2.4-.29.15-.432.338-.848.488-1.278-.045-.045-.136-.136-.18-.182-1.467.005-2.935.01-4.4 0-.22.018-.384-.13-.524-.274l-.072-.318c.06-.137.124-.274.185-.41.363-.113.744-.087 1.115-.138.243-.024.31-.292.297-.495-.005-4.658 0-9.316-.003-13.973-.005-.4.035-.802-.052-1.195-.407-.152-.86.007-1.26-.16-.33-.212-.307-.614-.088-.898.162-.044.324-.087.493-.08 1.2 0 2.4.007 3.6-.002 1.273-.136 2.562.043 3.83-.1.092-.31.04-.65.174-.948.135-.274.49-.196.738-.236.113.112.225.227.335.344-.018 1.482 0 2.963-.007 4.445 0 .173-.054.338-.103.5-.12.058-.237.115-.355.174-.24-.042-.598-.057-.633-.37-.117-.718-.358-1.41-.604-2.093-.398-.188-.747-.475-1.156-.64-.702-.042-1.406 0-2.11-.016-.07.072-.143.143-.214.215.004 1.45 0 2.898.002 4.347.012.17-.01.45.214.487.337.062.683.028 1.025.033.115-.116.23-.232.347-.346.006-.414-.023-.83.013-1.242-.005-.202.182-.31.312-.43.17.004.34.004.51.002.167.13.345.284.32.52.014 1.522-.002 3.043.008 4.564.012.224-.047.44-.116.65-.22.087-.476.23-.7.065-.296-.723-.13-1.598-.606-2.257-.34-.3-.802-.504-1.26-.445-.096.41-.066.83-.066 1.248-.002 2.582 0 5.162-.002 7.74 0 .17.013.403.22.444.52.116 1.02-.142 1.53-.21.386-.028.55-.423.78-.672.44-.486.926-.927 1.37-1.408.05-.162.11-.323.112-.493.013-.956-.01-1.913.007-2.87-.04-.637 1.088-.68 1.195-.09.066.818-.064 1.648.066 2.46.563-.073 1.004-.464 1.538-.622.24-.098.51-.163.695-.356.193-.276.243-.625.25-.954V2.962c0-.2-.052-.475-.295-.497-.37-.053-.778-.014-1.1-.242-.186-.123-.193-.36-.21-.56.15-.113.282-.303.494-.286 1.547-.005 3.095-.01 4.64.003.306-.017.456.272.516.528-.093.178-.143.432-.376.475-.314.075-.642.045-.96.085-.08.19-.142.392-.125.6.013.678-.017 1.354.016 2.03.097.852-.014 1.712.07 2.565.38-.113.507-.516.727-.803.586-.673.963-1.504 1.572-2.16.38-.603.794-1.183 1.176-1.784-.01-.145-.02-.29-.027-.434-.194-.04-.39-.066-.577-.132-.21-.08-.262-.314-.312-.507.044-.113.086-.226.127-.338.16-.065.32-.14.498-.133h2.863c.18-.008.347.07.51.134.044.155.086.313.133.47-.105.156-.198.347-.39.416-.35.11-.762-.058-1.078.17-.33.21-.47.583-.676.895-.785 1.067-1.47 2.198-2.255 3.263-.268.304-.163.733-.01 1.065.827 1.9 1.62 3.816 2.444 5.72.232.508.43 1.085.918 1.408.902.57 1.776 1.22 2.464 2.045.116.128.265.215.407.31.09-.168.136-.353.122-.544-.023-4.733.027-9.467-.025-14.2-.314-.092-.664-.06-.956-.217-.236-.13-.18-.434-.194-.656l.14-.23c.177-.06.36-.114.55-.103 2.254.01 4.508 0 6.76.006.146.005.345-.025.36-.207.047-.306.05-.622.175-.91.318-.124.882-.21.986.22.042.917-.023 1.836.07 2.75-.062.733.14 1.512-.146 2.21-.112.048-.224.097-.333.148-.285.012-.537-.117-.69-.358.034-.58-.014-1.18-.318-1.69-.215-.572-.772-.93-1.35-1.043-.714-.033-1.43.008-2.14-.018-.193.108-.346.29-.305.525.022 1.48-.043 2.963.037 4.44.358.174.765.132 1.15.117.14-.01.343-.033.365-.21.08-.558-.032-1.136.14-1.683.3-.16.647-.15.948-.005.166.365.095.772.106 1.16.005 1.444-.012 2.888.008 4.332-.216.397-.71.3-1.036.11-.307-.696.092-1.545-.388-2.176-.298-.314-.753-.57-1.196-.434-.242.36-.097.83-.134 1.24-.04 1.13.077 2.258.053 3.39 0 1.61.004 3.22-.002 4.83.525.186 1.095.048 1.64.093 1.23.108 2.43-1.033 2.34-2.275.09-1.123-.006-2.254.05-3.378.023-.205.064-.457.27-.56.283-.115.645-.004.786.278.12.245.132.527.144.796.002 2.26-.003 4.52.002 6.78.01.208-.062.408-.118.607-.266.124-.595.208-.86.033-.305-.298-.077-.858-.432-1.11-1.762-.028-3.526.003-5.29-.014.15.42.262.856.436 1.27.132.298.466.445.78.427h20.907c.165-.017.298.095.44.163.045.187.12.386.054.58-.095.24-.355.383-.607.37-6.938-.002-13.876 0-20.813-.004-.13-.02-.23.026-.3.134-.016.353-.005.738.203 1.04 4.964-.02 9.927.002 14.89-.01.198 0 .438-.016.567.17.314.35.048 1.022-.446.99-4.963.015-9.93 0-14.893.01-.168-.02-.25.17-.223.31.005 6.815 0 13.628.003 20.44.038.283-.185.48-.345.678-1.113.098-2.232.044-3.347.058-5.76-.006-11.518.01-17.276-.01-.07-.098-.137-.198-.205-.296 0-6.885-.003-13.77 0-20.656.027-.2-.097-.363-.195-.522-4.92-.012-9.838-.002-14.758-.006-.84.607-1.782 1.093-2.79 1.347-.468.07-.937.16-1.41.178-1.023-.095-2.044-.214-3.066-.317-.317-.038-.647-.025-.95-.147-1.035-.396-2.09-.788-3.007-1.424C1.41 23.28.523 22.028.177 20.63c-.12-.43-.103-.88-.178-1.315v-.738c.186-2.607 2.248-4.87 4.755-5.468.65-.185 1.33-.184 2-.246 1.043.003 2.138.126 3.018.74.55.282.815.892 1.35 1.19.235.465.517.906.708 1.393.3.67.282 1.422.313 2.14-.11.623-.282 1.25-.595 1.803-.154.3-.546.54-.355.92 1.258.03 2.516.007 3.775.012.097-.063.194-.124.292-.184.143-.457.346-.913.32-1.4-.01-.493-.002-.985-.004-1.476.002-.476-.178-.922-.264-1.383-.11-.582-.544-1.014-.766-1.546-.302-.28-.458-.675-.75-.962-.36-.39-.86-.604-1.256-.952-.257-.226-.564-.38-.862-.54-.825-.566-1.714-1.03-2.572-1.542-.4-.327-.88-.522-1.29-.832-1.28-.874-2.574-1.903-3.16-3.39-.122-.582-.147-1.187-.076-1.777.03-.247-.033-.515.084-.745.13-.405.25-.82.46-1.194.522-.627 1.135-1.268 1.952-1.473 1.08-.384 2.245-.355 3.374-.344.766.02 1.462.38 2.206.517.255-.518-.043-1.168.312-1.642" fill="#1D1D1B" mask="url(#b)"/>
    </g>
    <path d="M56.7 26.163c-.22-.29.062-.68.4-.646 1.586-.015 3.175.003 4.763-.008.09.073.178.15.266.226l.067.257c-.053.194-.103.443-.34.474-.308.074-.826.072-.822.51-.008 5.026.006 10.053-.006 15.08.36.466 1.02.268 1.516.196.712-.3 1.542-.723 1.708-1.558.026-1.457-.06-2.917.055-4.37.18-.206.443-.293.714-.295.306.25.39.647.39 1.025 0 2.434.005 4.87-.002 7.305.012.196-.103.353-.237.48-.243-.023-.595.055-.713-.226-.216-.375-.156-.984-.634-1.154-2.19-.024-4.385.02-6.576-.02-.476.035-.703-.647-.405-.96.42-.2.91.002 1.347-.11.226-.08.255-.34.253-.547-.002-4.994 0-9.987 0-14.98l-.083-.234c-.054-.033-.163-.1-.218-.132-.463-.183-.975-.16-1.446-.315" fill="#1D1D1B"/>
    <path d="M63.15 25.6c.205-.067.42-.103.635-.09 1.302.012 2.605-.012 3.906.01.38-.018.664.52.335.778-.347.25-.805.206-1.18.392-.104.593.33 1.074.522 1.597.66 1.342 1.118 2.8 2.004 4.018.264-.23.35-.58.495-.885.514-1.122.998-2.258 1.484-3.393.137-.378.13-.828-.048-1.19-.25-.24-.648-.215-.924-.425-.312-.154-.196-.547-.16-.817.206-.06.42-.096.635-.086 1.27.01 2.54-.007 3.808.005.238-.01.378.204.523.357v.217c-.422.586-1.265.425-1.832.766-.195.193-.36.418-.5.654-.9 1.993-1.767 4.002-2.685 5.987-.065.152-.05.322-.054.484.007 2.615.004 5.23.003 7.843-.003.15.02.303.115.424.296.088.612.033.917.038.083.095.165.192.248.29-.024.22.032.5-.176.65-.244.22-.594.17-.894.18-1.305-.018-2.61.02-3.914-.02-.53-.073-.57-.813-.186-1.103.316.01.632.01.95.01.048-.046.147-.14.196-.19 0-2.602-.003-5.204 0-7.806.003-.14-.012-.274-.042-.408-.754-2.34-1.74-4.596-2.814-6.804-.083-.148-.147-.33-.31-.408-.29-.127-.64-.04-.916-.207-.18-.118-.24-.327-.317-.512l.18-.36" fill="#1D1D1B"/>
  </g>
</svg>
