<?xml version="1.0" encoding="UTF-8" standalone="no"?>
<svg width="218px" height="34px" viewBox="0 0 218 34" version="1.1" xmlns="http://www.w3.org/2000/svg" xmlns:xlink="http://www.w3.org/1999/xlink">
    <!-- Generator: Sketch 43.2 (39069) - http://www.bohemiancoding.com/sketch -->
    <title>Group</title>
    <desc>Created with Sketch.</desc>
    <defs></defs>
    <g id="Page-1" stroke="none" stroke-width="1" fill="none" fill-rule="evenodd">
        <g id="Desktop-HD" transform="translate(-250.000000, -785.000000)">
            <g id="Group" transform="translate(250.000000, 785.000000)">
                <path d="M108.301691,15.4680851 C105.1593,17.387234 104.111836,20.7021277 104.286413,24.1914894 C104.460991,26.9829787 107.254227,29.9489362 110.047464,30.9957447 C113.713587,32.0425532 117.379709,30.8212766 120.172946,28.3787234 L109,15.1191489 C108.825423,14.9446809 108.650845,15.293617 108.301691,15.4680851 M110.571196,1.68510638 C106.206764,3.95319149 108.825423,9.18723404 111.618659,12.1531915 C113.189855,11.8042553 114.411896,10.0595745 114.935628,8.66382979 C115.459359,6.57021277 115.633937,4.30212766 114.062741,2.55744681 C113.189855,1.5106383 111.793236,1.33617021 110.571196,1.68510638 M106.381341,15.293617 C107.07965,14.7702128 108.301691,14.0723404 108.301691,14.0723404 C106.206764,11.6297872 104.635568,8.4893617 105.1593,5 C105.857609,2.73191489 108.127114,0.463829787 111.094927,0.114893617 C114.062741,-0.234042553 116.855978,0.812765957 118.252596,3.42978723 C119.30006,5.17446809 118.776328,7.79148936 117.903441,9.36170213 C116.332246,11.2808511 114.586473,11.9787234 112.491546,13.0255319 C115.633937,17.0382979 119.649214,21.5744681 123.14076,25.412766 C124.188223,24.3659574 124.886532,22.7957447 124.362801,20.8765957 C123.839069,19.306383 121.394987,19.1319149 119.998369,19.1319149 L119.998369,18.6085106 L131.869624,18.6085106 L131.869624,19.1319149 C127.854346,19.306383 126.632305,24.0170213 124.013646,26.2851064 C126.108573,28.7276596 129.600119,32.7404255 131.520469,31.693617 C132.218778,31.3446809 133.091665,30.1234043 133.091665,30.1234043 C133.266242,30.6468085 132.74251,31.5191489 132.218778,32.2170213 C130.473005,34.1361702 128.203501,34.1361702 126.283151,33.2638298 C124.362801,32.3914894 122.617028,30.6468085 121.22041,28.9021277 C117.728864,32.0425532 113.713587,34.4851064 108.650845,33.612766 C103.762682,32.7404255 101.144022,29.6 100.271136,25.7617021 C99.5728269,21.7489362 101.493177,18.4340426 106.381341,15.293617" id="Shape" fill="#E2001A"></path>
                <path d="M132.917087,1.68510638 L132.567933,1.68510638 C132.393355,2.20851064 132.393355,2.38297872 131.869624,2.38297872 C131.520469,2.38297872 131.171315,2.20851064 130.996737,2.03404255 C130.123851,1.5106383 129.425542,1.33617021 128.552655,1.33617021 C126.283151,1.33617021 124.362801,3.25531915 124.362801,5.87234043 C124.362801,11.106383 131.695046,10.9319149 131.695046,14.5957447 C131.695046,15.9914894 130.473005,16.8638298 129.250964,16.8638298 C126.806883,16.8638298 125.06111,14.2468085 124.886532,11.8042553 L124.537378,11.8042553 L124.537378,17.7361702 L124.711955,17.7361702 C124.886532,17.212766 125.235687,16.8638298 125.759419,16.8638298 C125.933996,16.8638298 126.283151,17.0382979 126.457728,17.0382979 C127.330614,17.5617021 128.028923,17.7361702 129.076387,17.7361702 C131.520469,17.7361702 133.789974,15.8170213 133.789974,13.0255319 C133.789974,7.79148936 126.457728,7.61702128 126.457728,4.47659574 C126.457728,3.08085106 127.679769,2.38297872 128.727233,2.38297872 C130.647583,2.38297872 132.393355,4.65106383 132.567933,6.74468085 L132.917087,6.74468085 L132.917087,1.68510638 Z" id="Shape" fill="#000000"></path>
                <path d="M143.391724,2.55744681 C145.137497,2.55744681 146.010383,3.08085106 146.534115,5.87234043 L146.88327,5.87234043 L146.88327,1.68510638 L132.567933,1.68510638 L132.567933,5.87234043 L132.917087,5.87234043 C133.440819,3.08085106 134.488283,2.55744681 136.059478,2.55744681 L138.154406,2.55744681 L138.154406,14.2468085 C138.154406,16.1659574 138.154406,16.6893617 136.059478,16.6893617 L136.059478,17.0382979 L143.740879,17.0382979 L143.740879,16.6893617 C141.645951,16.6893617 141.645951,16.1659574 141.645951,14.2468085 L141.645951,2.55744681 L143.391724,2.55744681 L143.391724,2.55744681 Z" id="Shape" fill="#000000"></path>
                <path d="M152.818897,2.55744681 L154.040938,2.55744681 C157.008752,2.55744681 158.754525,2.73191489 159.278257,6.2212766 L159.627411,6.2212766 L159.627411,1.68510638 L146.708692,1.68510638 L146.708692,2.03404255 C148.978197,2.03404255 148.978197,2.73191489 148.978197,4.47659574 L148.978197,14.0723404 C148.978197,15.9914894 148.978197,16.5148936 146.708692,16.5148936 L146.708692,16.8638298 L159.976566,16.8638298 L160.674875,11.9787234 L160.32572,11.9787234 C159.103679,15.9914894 156.48502,15.9914894 154.215515,15.9914894 C152.64432,15.9914894 152.64432,15.6425532 152.64432,13.5489362 L152.64432,9.36170213 C155.262979,9.36170213 155.612134,10.9319149 155.961288,13.0255319 L156.310443,13.0255319 L156.310443,4.82553191 L156.135866,4.82553191 C155.786711,6.91914894 155.612134,8.4893617 152.818897,8.4893617 L152.818897,2.55744681 Z" id="Shape" fill="#000000"></path>
                <path d="M166.261348,1.68510638 L160.849452,1.68510638 L160.849452,2.03404255 C161.896916,2.03404255 162.420648,2.55744681 163.118957,3.42978723 L163.118957,14.7702128 C163.118957,15.9914894 162.420648,16.6893617 160.849452,16.6893617 L160.849452,17.0382979 L166.08677,17.0382979 L166.08677,16.6893617 C164.515575,16.6893617 163.817266,15.9914894 163.817266,14.7702128 L163.817266,4.65106383 L163.817266,4.65106383 L174.117325,17.5617021 L174.46648,17.5617021 L174.46648,3.95319149 C174.46648,2.73191489 175.164789,2.03404255 176.735985,2.03404255 L176.735985,1.68510638 L171.498666,1.68510638 L171.498666,2.03404255 C173.069862,2.03404255 173.768171,2.73191489 173.768171,3.95319149 L173.768171,11.106383 L173.768171,11.106383 L166.261348,1.68510638 Z" id="Shape" fill="#000000"></path>
                <path d="M189.654703,1.68510638 L178.132603,1.68510638 L177.783448,6.2212766 L178.132603,6.2212766 C178.30718,4.82553191 179.703798,2.55744681 181.798726,2.55744681 L185.115694,2.55744681 L176.561407,17.212766 L190.003858,17.212766 L190.52759,11.6297872 L190.178435,11.6297872 C189.130971,15.8170213 186.686889,16.3404255 184.242808,16.3404255 L181.100417,16.3404255 L189.654703,1.68510638 Z" id="Shape" fill="#000000"></path>
                <path d="M196.463217,2.55744681 L197.685258,2.55744681 C200.653072,2.55744681 202.398845,2.73191489 202.922576,6.2212766 L203.271731,6.2212766 L203.271731,1.68510638 L190.353012,1.68510638 L190.353012,2.03404255 C192.622517,2.03404255 192.622517,2.73191489 192.622517,4.47659574 L192.622517,14.0723404 C192.622517,15.9914894 191.749631,16.5148936 189.480126,16.5148936 L189.480126,16.8638298 L203.620886,16.8638298 L204.319195,11.9787234 L203.97004,11.9787234 C202.747999,15.9914894 200.12934,15.9914894 197.859835,15.9914894 C196.28864,15.9914894 196.28864,15.6425532 196.28864,13.5489362 L196.28864,9.36170213 C198.907299,9.36170213 199.256454,10.9319149 199.605608,13.0255319 L199.954763,13.0255319 L199.954763,4.82553191 L199.780185,4.82553191 C199.431031,6.91914894 199.256454,8.4893617 196.463217,8.4893617 L196.463217,2.55744681 Z" id="Shape" fill="#000000"></path>
                <path d="M217.587068,11.8042553 L217.237913,11.8042553 C216.015872,15.8170213 215.142986,16.3404255 212.524327,16.3404255 C210.254822,16.3404255 210.254822,16.3404255 210.254822,13.8978723 L210.254822,4.47659574 C210.254822,2.55744681 210.254822,2.03404255 212.34975,2.03404255 L212.34975,1.68510638 L205.017504,1.68510638 L205.017504,2.03404255 C206.937854,2.03404255 206.937854,2.73191489 206.937854,4.47659574 L206.937854,14.0723404 C206.937854,15.9914894 206.937854,16.5148936 205.017504,16.5148936 L205.017504,16.8638298 L217.412491,16.8638298 L217.587068,11.8042553 Z" id="Shape" fill="#000000"></path>
                <path d="M34.8046561,1.68510638 L29.0436059,1.68510638 L29.0436059,2.03404255 C30.2656468,2.03404255 30.6148014,2.55744681 31.4876878,3.42978723 L31.4876878,14.7702128 C31.4876878,15.9914894 30.963956,16.6893617 29.3927605,16.6893617 L29.3927605,17.0382979 L34.6300788,17.0382979 L34.6300788,16.6893617 C32.884306,16.6893617 32.3605742,15.9914894 32.3605742,14.7702128 L32.3605742,4.65106383 L32.3605742,4.65106383 L43.1843655,17.212766 L43.8826747,17.212766 L43.8826747,3.95319149 C43.8826747,2.73191489 43.7080974,2.03404255 45.2792929,2.03404255 L45.2792929,1.68510638 L40.5657064,1.68510638 L40.5657064,2.03404255 C42.3114791,2.03404255 42.835211,2.73191489 42.835211,3.95319149 L42.835211,11.106383 L42.835211,11.106383 L34.8046561,1.68510638 Z" id="Shape" fill="#000000"></path>
                <path d="M51.0403431,9.88510638 L54.0081569,14.0723404 C54.3573114,14.4212766 55.0556206,15.4680851 55.0556206,16.1659574 C55.0556206,16.6893617 54.3573114,16.8638298 54.0081569,16.8638298 L54.0081569,17.212766 L61.1658254,17.212766 L61.1658254,16.8638298 C59.9437844,16.8638298 59.2454753,15.9914894 58.1980116,14.2468085 L53.3098478,7.61702128 L57.848857,3.42978723 C58.8963207,2.55744681 59.4200526,2.03404255 60.292939,2.03404255 L60.292939,1.68510638 L54.8810433,1.68510638 L54.8810433,2.03404255 C55.5793524,2.03404255 56.4522388,2.20851064 56.4522388,2.90638298 C56.4522388,3.42978723 56.1030842,3.7787234 55.2301978,4.65106383 L50.8657659,8.83829787 L50.8657659,4.65106383 C50.8657659,2.73191489 50.8657659,2.20851064 52.4369614,2.20851064 L52.4369614,1.85957447 L45.6284475,1.85957447 L45.6284475,2.20851064 C47.5487975,2.20851064 47.5487975,2.90638298 47.5487975,4.65106383 L47.5487975,14.2468085 C47.5487975,16.1659574 47.5487975,16.6893617 45.6284475,16.6893617 L45.6284475,17.0382979 L52.6115387,17.0382979 L52.6115387,16.6893617 C50.8657659,16.6893617 50.8657659,15.9914894 50.8657659,14.2468085 L50.8657659,10.2340426 L51.0403431,9.88510638 Z" id="Shape" fill="#000000"></path>
                <path d="M72.8625031,11.8042553 L72.3387713,11.8042553 C71.1167303,15.8170213 70.2438439,16.3404255 67.2760301,16.3404255 C65.0065255,16.3404255 64.8319482,16.3404255 64.8319482,13.8978723 L64.8319482,4.47659574 C64.8319482,2.55744681 64.8319482,2.03404255 67.1014529,2.03404255 L67.1014529,1.68510638 L59.2454753,1.68510638 L59.2454753,2.03404255 C61.3404026,2.03404255 61.3404026,2.55744681 61.3404026,4.47659574 L61.3404026,14.0723404 C61.3404026,15.9914894 61.3404026,16.5148936 59.2454753,16.5148936 L59.2454753,16.8638298 L72.164194,16.8638298 L72.8625031,11.8042553 Z" id="Shape" fill="#000000"></path>
                <path d="M78.448976,2.55744681 L79.671017,2.55744681 C82.6388308,2.55744681 84.035449,2.73191489 84.7337581,6.2212766 L85.0829127,6.2212766 L85.0829127,1.68510638 L72.8625031,1.68510638 L72.8625031,2.03404255 C74.9574305,2.03404255 74.9574305,2.73191489 74.9574305,4.47659574 L74.9574305,14.0723404 C74.9574305,15.9914894 74.9574305,16.5148936 72.8625031,16.5148936 L72.8625031,16.8638298 L85.4320672,16.8638298 L86.1303764,11.9787234 L85.7812218,11.9787234 C84.7337581,16.3404255 82.1150989,16.3404255 80.0201716,16.3404255 C78.448976,16.3404255 78.448976,15.9914894 78.448976,13.8978723 L78.448976,9.7106383 C81.0676352,9.7106383 81.2422125,11.2808511 81.5913671,13.3744681 L81.9405216,13.3744681 L81.9405216,5.17446809 L81.5913671,5.17446809 C81.2422125,7.26808511 81.0676352,8.83829787 78.448976,8.83829787 L78.448976,2.55744681 Z" id="Shape" fill="#000000"></path>
                <path d="M91.7168493,2.55744681 L91.7168493,9.36170213 L92.764313,9.36170213 C95.3829722,9.36170213 96.0812813,7.96595745 96.0812813,6.04680851 C96.0812813,3.60425532 95.0338176,2.55744681 93.1134675,2.55744681 L91.7168493,2.55744681 Z M91.7168493,10.0595745 L91.7168493,14.2468085 C91.7168493,16.1659574 91.7168493,16.6893617 93.8117767,16.6893617 L93.8117767,17.0382979 L86.3049536,17.0382979 L86.3049536,16.6893617 C88.399881,16.6893617 88.399881,15.9914894 88.399881,14.2468085 L88.399881,4.65106383 C88.399881,2.73191489 88.399881,2.20851064 86.3049536,2.20851064 L86.3049536,1.85957447 L94.1609312,1.85957447 C97.3033223,1.85957447 99.5728269,3.25531915 99.5728269,6.2212766 C99.5728269,8.31489362 98.1762087,9.7106383 96.4304359,10.0595745 L100.096559,15.6425532 C100.620291,16.5148936 100.969445,17.0382979 101.842332,17.0382979 L101.842332,17.387234 L97.3033223,17.387234 L92.764313,10.2340426 L91.7168493,10.2340426 L91.7168493,10.0595745 Z" id="Shape" fill="#000000"></path>
                <path d="M22.0605147,2.03404255 C21.1876283,2.20851064 20.8384737,3.25531915 20.4893192,4.30212766 L15.7757326,17.5617021 L15.4265781,17.5617021 L11.5858779,7.61702128 L7.57060049,17.7361702 L7.22144593,17.7361702 L2.15870481,4.65106383 C1.63497298,3.42978723 1.28581842,2.38297872 0.238354738,2.38297872 L0.238354738,2.03404255 L6.52313681,2.03404255 L6.52313681,2.38297872 C5.99940497,2.38297872 5.30109585,2.55744681 5.30109585,3.25531915 C5.30109585,3.60425532 5.47567313,4.30212766 5.65025041,4.65106383 L8.61806416,12.6765957 L10.8875688,6.74468085 L10.1892597,4.65106383 C9.66552784,3.25531915 9.31637328,2.38297872 7.91975505,2.38297872 L7.91975505,2.03404255 L15.0774235,2.03404255 L15.0774235,2.38297872 C14.3791144,2.38297872 13.506228,2.38297872 13.506228,3.25531915 C13.506228,3.60425532 13.6808053,4.12765957 13.8553826,4.47659574 L16.648619,12.1531915 L18.9181237,5.69787234 C19.0927009,5 19.6164328,3.95319149 19.6164328,3.42978723 C19.6164328,2.38297872 18.9181237,2.38297872 18.2198145,2.38297872 L18.2198145,2.03404255 L21.3622056,2.03404255 L22.0605147,2.03404255 L28.8690286,2.03404255 L28.8690286,2.38297872 C26.599524,2.38297872 26.599524,3.08085106 26.599524,4.82553191 L26.599524,14.4212766 C26.599524,16.3404255 26.599524,16.8638298 28.3452968,16.8638298 L28.3452968,17.212766 L21.3622056,17.212766 L21.3622056,16.8638298 C23.2825557,16.8638298 23.2825557,16.1659574 23.2825557,14.4212766 L23.2825557,4.82553191 C23.4571329,2.73191489 23.6317102,2.20851064 22.0605147,2.03404255" id="Shape" fill="#000000"></path>
            </g>
        </g>
    </g>
</svg>