<?xml version="1.0" encoding="utf-8"?>
<!-- Generator: Adobe Illustrator 21.0.0, SVG Export Plug-In . SVG Version: 6.00 Build 0)  -->
<svg version="1.1" id="Layer_1" xmlns="http://www.w3.org/2000/svg" xmlns:xlink="http://www.w3.org/1999/xlink" x="0px" y="0px"
	 viewBox="0 0 160 24.9" style="enable-background:new 0 0 160 24.9;" xml:space="preserve">
<style type="text/css">
	.st0{fill:#E2001A;}
</style>
<title>Group</title>
<desc>Created with Sketch.</desc>
<g id="Page-1">
	<g id="Desktop-HD" transform="translate(-250.000000, -785.000000)">
		<g id="Group" transform="translate(250.000000, 785.000000)">
			<path id="Shape" class="st0" d="M79.5,11.3c-2.3,1.4-3.1,3.9-3,6.4c0.1,2.1,2.2,4.2,4.2,5c2.7,0.8,5.4-0.1,7.5-1.9l-8.2-9.8
				C79.9,11,79.8,11.2,79.5,11.3 M81.2,1.2C78,2.9,79.9,6.7,82,8.9c1.2-0.3,2.1-1.5,2.4-2.6c0.4-1.5,0.5-3.2-0.6-4.5
				C83.1,1.1,82.1,0.9,81.2,1.2 M78.1,11.2c0.5-0.4,1.4-0.9,1.4-0.9c-1.5-1.8-2.7-4.1-2.3-6.7C77.7,2,79.4,0.3,81.6,0
				s4.2,0.5,5.3,2.4c0.8,1.3,0.4,3.2-0.3,4.4c-1.2,1.4-2.4,1.9-4,2.7c2.3,3,5.3,6.3,7.8,9.1c0.8-0.8,1.3-1.9,0.9-3.3
				C91,14.2,89.2,14,88.1,14v-0.4h8.7V14c-3,0.1-3.9,3.6-5.8,5.3c1.5,1.8,4.1,4.8,5.5,4c0.5-0.3,1.2-1.2,1.2-1.2
				c0.1,0.4-0.3,1-0.6,1.5c-1.3,1.4-3,1.4-4.4,0.8c-1.4-0.6-2.7-1.9-3.7-3.2c-2.6,2.3-5.5,4.1-9.3,3.5c-3.6-0.6-5.5-3-6.2-5.8
				C73.1,16,74.5,13.5,78.1,11.2"/>
			<path id="Shape_1_" d="M97.7,1.2h-0.3c-0.1,0.4-0.1,0.5-0.5,0.5c-0.3,0-0.5-0.1-0.6-0.3c-0.6-0.4-1.2-0.5-1.8-0.5
				c-1.7,0-3.1,1.4-3.1,3.3c0,3.9,5.4,3.7,5.4,6.4c0,1-0.9,1.7-1.8,1.7c-1.8,0-3.1-1.9-3.2-3.7h-0.3V13h0.1c0.1-0.4,0.4-0.6,0.8-0.6
				c0.1,0,0.4,0.1,0.5,0.1c0.6,0.4,1.2,0.5,1.9,0.5c1.8,0,3.5-1.4,3.5-3.5c0-3.9-5.4-4-5.4-6.3c0-1,0.9-1.5,1.7-1.5
				c1.4,0,2.7,1.7,2.8,3.2h0.3V1.2z"/>
			<path id="Shape_2_" d="M105.4,1.8c1.3,0,1.9,0.4,2.3,2.4h0.3V1.2H97.4v3.1h0.3c0.4-2.1,1.2-2.4,2.3-2.4h1.5v8.6
				c0,1.4,0,1.8-1.5,1.8v0.3h5.7v-0.3c-1.5,0-1.5-0.4-1.5-1.8V1.8H105.4L105.4,1.8z"/>
			<path id="Shape_3_" d="M112.3,1.8h0.9c2.2,0,3.5,0.1,3.9,2.7h0.3V1.2h-9.5v0.3c1.7,0,1.7,0.5,1.7,1.8v7.1c0,1.4,0,1.8-1.7,1.8
				v0.3h9.8l0.5-3.6h-0.3c-0.9,3-2.8,3-4.5,3c-1.2,0-1.2-0.3-1.2-1.8V6.9c1.9,0,2.2,1.2,2.4,2.7h0.3v-6h-0.1
				c-0.3,1.5-0.4,2.7-2.4,2.7V1.8z"/>
			<path id="Shape_4_" d="M122.2,1.2h-4v0.3c0.8,0,1.2,0.4,1.7,1v8.3c0,0.9-0.5,1.4-1.7,1.4v0.3h3.9v-0.3c-1.2,0-1.7-0.5-1.7-1.4
				V3.4l0,0l7.6,9.5h0.3v-10c0-0.9,0.5-1.4,1.7-1.4V1.2h-3.9v0.3c1.2,0,1.7,0.5,1.7,1.4v5.3l0,0L122.2,1.2z"/>
			<path id="Shape_5_" d="M139.4,1.2h-8.5l-0.3,3.3h0.3c0.1-1,1.2-2.7,2.7-2.7h2.4l-6.3,10.8h9.9l0.4-4.1h-0.3
				c-0.8,3.1-2.6,3.5-4.4,3.5h-2.3L139.4,1.2z"/>
			<path id="Shape_6_" d="M144.4,1.8h0.9c2.2,0,3.5,0.1,3.9,2.7h0.3V1.2h-9.5v0.3c1.7,0,1.7,0.5,1.7,1.8v7.1c0,1.4-0.6,1.8-2.3,1.8
				v0.3h10.4l0.5-3.6H150c-0.9,3-2.8,3-4.5,3c-1.2,0-1.2-0.3-1.2-1.8V6.9c1.9,0,2.2,1.2,2.4,2.7h0.3v-6h-0.1
				c-0.3,1.5-0.4,2.7-2.4,2.7V1.8z"/>
			<path id="Shape_7_" d="M160,8.6h-0.3c-0.9,3-1.5,3.3-3.5,3.3c-1.7,0-1.7,0-1.7-1.8V3.3c0-1.4,0-1.8,1.5-1.8V1.2h-5.4v0.3
				c1.4,0,1.4,0.5,1.4,1.8v7.1c0,1.4,0,1.8-1.4,1.8v0.3h9.1L160,8.6z"/>
			<path id="Shape_8_" d="M25.4,1.2h-4.2v0.3c0.9,0,1.2,0.4,1.8,1v8.3c0,0.9-0.4,1.4-1.5,1.4v0.3h3.9v-0.3c-1.3,0-1.7-0.5-1.7-1.4
				V3.4l0,0l8,9.2h0.5V2.9c0-0.9-0.1-1.4,1-1.4V1.2h-3.5v0.3c1.3,0,1.7,0.5,1.7,1.4v5.3l0,0L25.4,1.2z"/>
			<path id="Shape_9_" d="M37.4,7.2l2.2,3.1c0.3,0.3,0.8,1,0.8,1.5c0,0.4-0.5,0.5-0.8,0.5v0.3h5.3v-0.3c-0.9,0-1.4-0.6-2.2-1.9
				l-3.6-4.9l3.3-3.1c0.8-0.6,1.2-1,1.8-1V1.2h-4v0.3c0.5,0,1.2,0.1,1.2,0.6c0,0.4-0.3,0.6-0.9,1.3l-3.2,3.1V3.4
				c0-1.4,0-1.8,1.2-1.8V1.3h-5v0.3c1.4,0,1.4,0.5,1.4,1.8v7.1c0,1.4,0,1.8-1.4,1.8v0.3h5.1v-0.3c-1.3,0-1.3-0.5-1.3-1.8v-3
				L37.4,7.2z"/>
			<path id="Shape_10_" d="M53.5,8.6h-0.4c-0.9,3-1.5,3.3-3.7,3.3c-1.7,0-1.8,0-1.8-1.8V3.3c0-1.4,0-1.8,1.7-1.8V1.2h-5.8v0.3
				C45,1.5,45,1.8,45,3.3v7.1c0,1.4,0,1.8-1.5,1.8v0.3h9.5L53.5,8.6z"/>
			<path id="Shape_11_" d="M57.6,1.8h0.9c2.2,0,3.2,0.1,3.7,2.7h0.3V1.2h-9v0.3C55,1.5,55,2,55,3.3v7.1c0,1.4,0,1.8-1.5,1.8v0.3h9.3
				l0.5-3.6H63C62.2,12,60.3,12,58.7,12c-1.2,0-1.2-0.3-1.2-1.8V7.1c1.9,0,2.1,1.2,2.3,2.7h0.3v-6h-0.3c-0.3,1.5-0.4,2.7-2.3,2.7
				V1.8z"/>
			<path id="Shape_12_" d="M67.3,1.8v5h0.8c1.9,0,2.4-1,2.4-2.4c0-1.8-0.8-2.6-2.2-2.6H67.3z M67.3,7.4v3.1c0,1.4,0,1.8,1.5,1.8v0.3
				h-5.5v-0.3c1.5,0,1.5-0.5,1.5-1.8V3.4c0-1.4,0-1.8-1.5-1.8V1.3h5.8c2.3,0,4,1,4,3.2c0,1.5-1,2.6-2.3,2.8l2.7,4.1
				c0.4,0.6,0.6,1,1.3,1v0.3h-3.3l-3.3-5.3h-0.8V7.4z"/>
			<path id="Shape_13_" d="M16.1,1.5c-0.6,0.1-0.9,0.9-1.2,1.7l-3.5,9.8h-0.3L8.4,5.6l-3,7.4H5.1L1.4,3.4C1,2.5,0.8,1.7,0,1.7V1.5
				h4.6v0.3c-0.4,0-0.9,0.1-0.9,0.6c0,0.3,0.1,0.8,0.3,1l2.2,5.9l1.7-4.4L7.3,3.4c-0.4-1-0.6-1.7-1.7-1.7V1.5h5.3v0.3
				c-0.5,0-1.2,0-1.2,0.6C9.8,2.6,9.9,3,10,3.3l2.1,5.7l1.7-4.8c0.1-0.5,0.5-1.3,0.5-1.7c0-0.8-0.5-0.8-1-0.8V1.5h2.3H16.1h5v0.3
				c-1.7,0-1.7,0.5-1.7,1.8v7.1c0,1.4,0,1.8,1.3,1.8v0.3h-5.1v-0.3c1.4,0,1.4-0.5,1.4-1.8V3.5C17.1,2,17.2,1.6,16.1,1.5"/>
		</g>
	</g>
</g>
</svg>
