<svg width="39" height="40" xmlns="http://www.w3.org/2000/svg" xmlns:xlink="http://www.w3.org/1999/xlink">
  <defs>
    <path id="a" d="M0 30.713V.136h31.852v30.577H0z"/>
  </defs>
  <g fill="none" fill-rule="evenodd">
    <path d="M16.913 35.858s-2.602-7.528 1.474-11.042c4.077-3.514 14.311-4.35 14.919-8.617 0 0-.174-1.924 1.127-.418 1.301 1.505 6.158 6.441 3.296 16.146-2.862 9.704-10.842 7.445-16.046 6.943 0 0-1.648-.334-.347-1.255 1.301-.92 10.582-2.51 11.362-13.05 0 0-6.418 11.126-15.785 11.293" fill="#FFF"/>
    <g transform="translate(0 4.811)">
      <mask id="b" fill="#fff">
        <use xlink:href="#a"/>
      </mask>
      <path d="M15.351 30.713s-5.81-.586-11.015-5.94c-5.204-5.354-6.332-13.552 0-17.986C10.668 2.353 17.433 1.015 19.255.68c1.821-.335 7.632-1.924 10.928 2.593 3.296 4.518 1.371 8.868-2.827 10.374-4.198 1.505-12.178 4.266-12.612 7.947-.433 3.68 0 7.697.607 9.119" fill="#FFF" mask="url(#b)"/>
    </g>
    <path d="M7.806 7.164s1.387-1.421 2.428-2.216c1.04-.796 9.454-2.469 10.061-2.385.608.083 1.128.67.954 1.087-.173.419-6.245 1.34-8.066 2.008-1.821.67-5.377 1.506-5.377 1.506M11.362 3.065S13.477.471 14.544.053c1.068-.418 4.103 1.757 4.19 2.008.087.251-5.464 1.088-7.372 1.004" fill="#FFF"/>
  </g>
</svg>
