<svg width="34" height="35" xmlns="http://www.w3.org/2000/svg">
  <g fill="none" fill-rule="evenodd">
    <path d="M12.937 11.768l.004.001c.059.016.117.036.176.053.07.021.14.04.208.064l.051.02c.041.014.081.032.122.048.067.027.135.051.2.08.035.016.068.034.102.05.02.01.042.016.063.027L8.939 9.438a4.52 4.52 0 0 0-.453-.204l-.133-.053a4.91 4.91 0 0 0-.427-.133l-.007-.002 5.011 2.72.007.002" fill="#82003D"/>
    <path d="M14.04 12.202L9.03 9.482c-.03-.016-.06-.029-.09-.044l4.924 2.673c.06.029.119.06.177.091" fill="#7F003B"/>
    <path d="M7.36 23.541c-.06-.04-.119-.085-.178-.129-.051-.037-.103-.072-.153-.112-.059-.046-.114-.097-.171-.147-.047-.04-.096-.08-.142-.123-.056-.052-.109-.11-.163-.166-.043-.044-.087-.087-.13-.133-.052-.06-.102-.124-.153-.186-.039-.048-.08-.093-.116-.142-.052-.068-.099-.14-.147-.212-.033-.048-.068-.094-.1-.144-.052-.082-.099-.169-.146-.254-.025-.044-.052-.086-.075-.13a5.538 5.538 0 0 1-.308-.7l-.034-.101c-.022-.065-.044-.129-.064-.193-.013-.04-.023-.082-.034-.122-.017-.059-.034-.117-.048-.177-.011-.043-.02-.087-.03-.13-.013-.058-.026-.114-.037-.172-.01-.045-.016-.09-.024-.136l-.029-.169-.017-.14-.02-.167-.01-.143c-.004-.056-.009-.11-.012-.166L5.015 19l-.004-.165.003-.147.004-.165c.002-.049.006-.098.01-.148l.01-.163.016-.149c.006-.054.012-.108.02-.163.006-.05.014-.098.022-.148.008-.054.016-.108.026-.162l.028-.148c.01-.054.022-.107.033-.161.011-.05.024-.099.036-.148l.04-.159.041-.147c.015-.052.03-.105.047-.157.015-.05.032-.097.047-.146l.054-.156.018-.052-5.01-2.72-.02.052a6.766 6.766 0 0 0-.147.46c-.015.048-.029.096-.042.145l-.04.16a7.053 7.053 0 0 0-.035.147l-.033.161-.029.148c-.01.054-.018.108-.026.163-.008.05-.016.098-.022.148l-.019.163-.016.148c-.005.055-.008.11-.011.164l-.01.148-.004.165-.002.146c0 .056.002.112.004.168 0 .047.001.095.004.143.002.056.007.111.011.167l.011.143c.005.055.013.111.02.167.005.046.01.093.017.14.008.057.019.113.029.17.007.045.014.09.023.135.011.058.025.115.038.173.01.043.018.086.029.129.015.06.032.12.05.179.01.04.02.08.032.119.02.065.043.13.065.194.011.034.021.067.033.1.035.097.073.193.114.29.484 1.139 1.276 1.989 2.235 2.51l5.011 2.72-.017-.01c-.063-.035-.124-.074-.186-.112-.054-.033-.11-.064-.163-.099" fill="#700034"/>
    <path d="M5.485 16.27a7.88 7.88 0 0 1 .183-.448l.016-.033a7.69 7.69 0 0 1 .21-.426l.02-.04-5.011-2.72-.02.04c-.075.14-.145.282-.21.426-.006.01-.011.022-.016.033a7.728 7.728 0 0 0-.201.496l5.01 2.72.019-.047" fill="#730036"/>
    <path d="M5.926 15.303c.063-.118.13-.234.2-.348l.05-.079c.058-.092.118-.184.18-.274.013-.017.024-.036.036-.054l-5.01-2.72-.037.053c-.062.09-.122.182-.18.275l-.05.079a7.435 7.435 0 0 0-.212.368l5.01 2.72.013-.02" fill="#760037"/>
    <path d="M6.417 14.515c.073-.103.148-.204.226-.304.08-.1.161-.197.245-.292l.026-.032-5.01-2.72-.028.031a7.763 7.763 0 0 0-.244.292l-.001.002c-.078.099-.153.2-.226.303l-.023.033 5.01 2.72.025-.033" fill="#790038"/>
    <path d="M6.964 13.834c.061-.069.125-.136.189-.202l.083-.084c.078-.079.159-.156.241-.23l.03-.029-5.011-2.72-.03.028a6.858 6.858 0 0 0-.242.23l-.083.085a7.719 7.719 0 0 0-.189.201l-.048.054 5.01 2.72.05-.053" fill="#7C003A"/>
    <path d="M7.513 13.285c.1-.09.202-.176.307-.26l.087-.067c.084-.065.17-.129.258-.19.019-.014.036-.028.055-.04l-5.01-2.72c-.02.012-.038.026-.056.039a6.919 6.919 0 0 0-.259.19l-.086.068c-.105.084-.208.17-.308.26-.002 0-.003.003-.005.004l5.011 2.72.006-.004" fill="#7F003B"/>
    <path d="M8.248 12.709a6.781 6.781 0 0 1 .61-.372c.032-.018.065-.033.098-.05.067-.035.134-.07.201-.102l.02-.01-5.01-2.72-.021.01c-.068.032-.135.067-.203.102-.032.017-.065.032-.097.05a7.121 7.121 0 0 0-.61.371l-.026.02 5.01 2.72.028-.02" fill="#82003D"/>
    <path d="M9.225 12.155c.108-.05.215-.095.324-.138l.097-.038a5.99 5.99 0 0 1 .379-.13l.04-.01a6.073 6.073 0 0 1 .826-.18c.125-.019.25-.03.374-.04.016 0 .031-.003.047-.004h.036c.12-.007.24-.01.358-.01h.024c.016 0 .031.002.047.003.106.003.21.008.315.017l.05.003.02.002c.114.012.227.028.34.046l.043.007.05.01c.11.02.221.044.33.072h.005L7.92 9.046h-.005a5.004 5.004 0 0 0-.424-.089 5.037 5.037 0 0 0-.35-.047l-.06-.004a5.223 5.223 0 0 0-.326-.018l-.06-.002a5.43 5.43 0 0 0-.361.009l-.08.006c-.124.008-.248.02-.373.038a5.768 5.768 0 0 0-.827.18l-.04.011a6 6 0 0 0-.379.13l-.097.037a6.09 6.09 0 0 0-.323.139l-.047.02 5.01 2.72.048-.02" fill="#84003E"/>
    <path d="M16.275 14.713c-.523-1.234-1.41-2.125-2.475-2.63-.034-.015-.067-.033-.101-.049-.066-.029-.134-.053-.201-.08-.04-.016-.08-.034-.121-.048l-.052-.02c-.068-.023-.138-.043-.208-.064-.06-.017-.117-.037-.177-.053a4.969 4.969 0 0 0-.346-.076l-.049-.01a5.087 5.087 0 0 0-.383-.052l-.021-.003a5.286 5.286 0 0 0-.364-.02l-.047-.002a5.465 5.465 0 0 0-.382.008l-.036.001a5.495 5.495 0 0 0-1.247.223l-.04.012a6.084 6.084 0 0 0-.38.13c-.032.011-.064.024-.096.037a6.27 6.27 0 0 0-.324.138l-.068.03c-.067.032-.134.067-.201.102l-.099.05a6.753 6.753 0 0 0-.609.372l-.083.058a7.184 7.184 0 0 0-.258.191l-.087.067c-.105.084-.208.17-.307.26l-.036.033a7.26 7.26 0 0 0-.241.23l-.083.084a7.38 7.38 0 0 0-.19.202l-.075.085a7.576 7.576 0 0 0-.244.291v.001c-.079.1-.154.201-.227.304l-.06.087c-.063.09-.123.182-.18.274a7.946 7.946 0 0 0-.25.427l-.033.06c-.074.14-.145.282-.21.426l-.016.033a7.58 7.58 0 0 0-.183.449l-.037.098-.054.156-.047.146c-.017.052-.032.105-.047.157l-.041.147a6.658 6.658 0 0 0-.04.159c-.012.05-.025.099-.035.148a6.993 6.993 0 0 0-.034.161c-.01.05-.02.098-.028.148l-.027.162-.022.148-.019.164-.015.147-.012.165-.009.147c-.003.055-.003.11-.004.165l-.003.147c0 .055.003.11.004.165l.004.146.012.166.01.143.02.167c.006.047.01.094.017.14l.029.169c.008.045.015.091.024.136.01.058.024.114.037.171.01.044.019.088.03.131.014.06.031.118.048.177l.034.122c.02.064.042.128.064.193l.034.1a5.583 5.583 0 0 0 .308.7c.023.046.05.087.074.13.048.086.095.173.147.255.032.05.067.096.1.144.048.072.095.144.147.212.037.05.077.094.116.141.05.063.1.127.154.187.042.046.086.088.13.133.053.056.106.113.162.166.046.044.095.082.142.124.057.049.112.1.17.146.05.04.103.075.154.112.06.044.117.088.178.13.053.034.109.065.163.098.062.038.123.077.186.111.939.515 2.039.713 3.166.555a6.15 6.15 0 0 0 2.332-.849c2.977-1.806 4.352-5.721 3.068-8.744" fill="#A3004C"/>
    <path d="M26.624.819c.06.04.12.085.179.129.05.037.103.072.152.111.059.047.115.098.171.147.047.041.096.08.142.124.056.052.108.11.162.165.043.044.088.087.13.134.053.06.103.124.154.186.039.048.079.093.116.142.052.069.1.142.149.215.032.047.067.092.098.141.052.083.1.17.147.256.024.044.05.084.074.129a5.713 5.713 0 0 1 .324.75l.035.103a6.253 6.253 0 0 1 .178.653l.013.06c.023.118.043.236.06.355l.013.098c.01.089.02.178.028.267l.009.117c.006.092.01.184.012.277l.002.088c.002.121 0 .242-.005.362l-.005.082c-.005.095-.012.19-.021.285l-.013.118c-.01.088-.022.177-.035.265l-.015.104c-.02.12-.043.24-.069.36a7.09 7.09 0 0 1-.088.359l-.031.112c-.024.085-.05.17-.078.255-.012.037-.023.073-.036.109a7.626 7.626 0 0 1-.117.32l-.01.03a7.915 7.915 0 0 1-.147.341l-.046.098a7.461 7.461 0 0 1-.323.614l-.03.052 5.01 2.72c.012-.017.021-.035.032-.053a7.313 7.313 0 0 0 .322-.612l.047-.098c.05-.113.1-.227.146-.342l.01-.03c.042-.106.08-.212.117-.32a7.66 7.66 0 0 0 .114-.364l.032-.111c.028-.105.054-.21.078-.316l.01-.043c.026-.12.048-.24.068-.36l.016-.104a6.63 6.63 0 0 0 .068-.67l.005-.08a6.42 6.42 0 0 0 .006-.362c0-.03-.002-.06-.003-.089a7.046 7.046 0 0 0-.012-.277l-.009-.117a6.174 6.174 0 0 0-.028-.266l-.012-.099a6.24 6.24 0 0 0-.06-.355l-.014-.058a6.332 6.332 0 0 0-.07-.294l-.03-.11a6.046 6.046 0 0 0-.077-.25l-.035-.104a5.689 5.689 0 0 0-.13-.339c-.484-1.14-1.276-1.99-2.235-2.511L26.257.598l.018.01c.064.035.125.074.187.112.054.032.109.063.162.099" fill="#004B34"/>
    <path d="M30.868 14.285c.085-.061.17-.124.253-.19l.075-.058c.104-.083.205-.169.303-.257.02-.019.04-.039.061-.057a7.442 7.442 0 0 0 .556-.571l.026-.029c.086-.1.17-.202.25-.306l.066-.087a7.65 7.65 0 0 0 .18-.25l.058-.084a7.68 7.68 0 0 0 .21-.33l.008-.014-5.011-2.72-.008.013a7.623 7.623 0 0 1-.21.331c-.02.028-.04.055-.058.083a7.8 7.8 0 0 1-.496.644l-.025.028c-.08.09-.162.18-.245.266l-.08.081a7.45 7.45 0 0 1-.232.224c-.02.019-.04.039-.062.057-.098.089-.199.175-.302.258l-.076.058a7.405 7.405 0 0 1-.253.19l-.094.066c-.11.076-.223.15-.339.22a6.148 6.148 0 0 1-2.332.85c-.13.02-.26.032-.39.04-.01.001-.021.003-.032.003l-.096.003a5.304 5.304 0 0 1-.26.006l-.06.001c-.03 0-.06-.003-.09-.004a5.403 5.403 0 0 1-.235-.013l-.087-.005c-.022-.003-.044-.007-.067-.009l-.079-.007 5.002 2.715c.033.004.065.01.098.013a5.35 5.35 0 0 0 .386.026 5.444 5.444 0 0 0 .407-.003c.041-.002.083-.002.125-.005.129-.009.259-.021.39-.04a6.15 6.15 0 0 0 2.332-.85c.116-.07.228-.144.339-.22l.094-.067" fill="#004C36"/>
    <path d="M21.592 12.698c-.051-.007-.103-.012-.155-.021-.039-.007-.077-.017-.116-.025a6.073 6.073 0 0 1-.164-.036c-.038-.009-.077-.016-.115-.026-.05-.013-.1-.03-.15-.045l-.155-.046c-.026-.01-.053-.017-.08-.026-.058-.02-.115-.045-.173-.068l-.02-.008c-.045-.017-.089-.033-.132-.051l-.047-.02c-.057-.026-.112-.056-.168-.083-.058-.029-.117-.054-.173-.085l5.011 2.72c.127.069.257.13.389.188.043.019.087.034.13.051.091.036.182.071.275.102.052.017.106.032.159.048a5.196 5.196 0 0 0 .43.106 4.836 4.836 0 0 0 .36.058l-5.003-2.715c-.034-.005-.068-.013-.103-.018" fill="#004B34"/>
    <path d="M20.484 12.405c.058.023.115.048.173.068.077.027.156.05.234.072.05.015.1.032.151.046.092.023.185.042.279.061.039.008.077.018.116.025.111.02.224.034.337.046.023.002.045.006.067.009.107.01.215.014.323.018.03 0 .058.004.088.004.107.002.214-.002.32-.007.033-.001.065 0 .097-.003.14-.008.28-.022.421-.042a6.149 6.149 0 0 0 2.334-.85c.115-.07.228-.145.338-.221l.094-.066c.086-.062.17-.125.253-.19l.076-.058a7.46 7.46 0 0 0 .302-.258l.062-.057c.079-.073.156-.148.232-.224l.08-.081c.083-.087.165-.176.245-.266l.024-.028a7.5 7.5 0 0 0 .25-.307l.066-.086c.062-.082.122-.166.18-.25.02-.029.04-.056.058-.084.073-.109.144-.219.21-.331l.039-.065a8.348 8.348 0 0 0 .323-.614l.046-.098c.051-.113.1-.227.146-.342l.01-.028c.042-.106.081-.214.118-.321.013-.036.024-.073.036-.109a7.7 7.7 0 0 0 .078-.255l.031-.112c.029-.105.055-.21.079-.316l.01-.042c.026-.12.048-.24.068-.36l.015-.105a6.568 6.568 0 0 0 .069-.668l.005-.082c.005-.12.007-.241.005-.361l-.002-.09a6.683 6.683 0 0 0-.05-.66l-.012-.098a6.043 6.043 0 0 0-.06-.355c-.004-.02-.01-.04-.013-.06a6.289 6.289 0 0 0-.178-.653l-.035-.104a5.938 5.938 0 0 0-.324-.75c-.023-.044-.05-.084-.074-.128-.048-.086-.095-.173-.147-.256-.031-.049-.066-.094-.098-.141-.05-.073-.097-.146-.149-.215-.037-.05-.077-.094-.116-.142-.051-.062-.1-.126-.154-.186-.042-.047-.087-.09-.13-.134-.054-.056-.106-.113-.162-.165-.046-.044-.095-.082-.142-.124-.056-.049-.112-.1-.17-.147-.05-.039-.102-.074-.153-.111-.06-.044-.118-.089-.18-.13-.052-.035-.107-.065-.161-.098-.062-.038-.123-.077-.187-.112-.938-.515-2.038-.713-3.165-.555-.78.11-1.572.389-2.333.85-2.978 1.807-4.35 5.72-3.067 8.745.511 1.206 1.371 2.085 2.407 2.595.056.027.11.057.168.082.065.03.133.054.2.08" fill="#007854"/>
    <path d="M20.324 20.513a3.858 3.858 0 0 0-.103.267l-.02.06c-.035.104-.065.21-.09.317-.007.025-.012.05-.017.074-.021.095-.04.19-.054.287l-.01.057a4.48 4.48 0 0 0-.032.336l-.003.08c-.004.1-.006.2-.003.302v.054a4.677 4.677 0 0 0 .035.43c.013.104.03.21.049.315l.008.047c.023.118.052.235.084.353l.023.086c.032.107.065.215.103.323l.014.04a5.786 5.786 0 0 0 .18.44c.05.109.102.219.16.328l.014.03a6.527 6.527 0 0 0 .253.432c.07.111.144.222.222.331l.011.016a7.347 7.347 0 0 0 .327.418 7.717 7.717 0 0 0 .649.688c.04.04.084.075.126.112.083.075.165.15.25.22.053.044.106.084.159.125.078.062.157.124.237.183.057.042.116.081.175.121.078.055.156.11.235.16.061.04.124.077.186.114.079.048.158.096.238.141.064.037.13.07.194.105.08.042.16.084.24.123a8.814 8.814 0 0 0 .897.375 7.928 7.928 0 0 0 .66.201 7.262 7.262 0 0 0 .438.101c.065.013.13.027.196.038.08.014.162.025.244.037.064.008.128.018.192.025.083.01.166.016.249.023l.185.014c.087.005.173.006.259.007.057.001.114.004.171.003.096 0 .19-.006.285-.01.046-.003.094-.003.14-.006.141-.01.28-.025.419-.044a5.274 5.274 0 0 0 2.146-.777c.077-.05.15-.101.222-.154l.04-.03.001-.002a4.35 4.35 0 0 0 .169-.132l.078-.07.003-.002.114-.101c.027-.025.052-.052.077-.078l.104-.104c.026-.027.05-.056.074-.084.032-.035.063-.07.093-.106l.021-.027.009-.01c.043-.053.084-.107.124-.161l.05-.073.004-.006c.03-.042.058-.084.085-.127l.06-.098c1.051-1.768.658-4.238-1.204-6.223-1.8-1.92-4.463-2.844-6.733-2.525a5.278 5.278 0 0 0-2.146.776 4.143 4.143 0 0 0-1.537 1.768l-.029.067" fill="#FCBE00"/>
    <path d="M31.913 26.748l-.04.061-.045.066-.004.006-.05.073c-.025.034-.052.067-.078.1-.011.015-.02.031-.033.045l-3.362 6.002.027-.034c.044-.058.087-.116.128-.175l.05-.072c.053-.08.104-.163.151-.247l3.368-6.012c-.016.03-.035.06-.053.089-.02.033-.038.066-.059.098" fill="#9D7700"/>
    <path d="M31.65 27.115l-.009.01-.02.027c-.03.036-.062.07-.094.106-.024.028-.048.056-.074.084l-.002.002-.007.008c-.03.032-.063.063-.095.095-.025.025-.05.052-.077.077l-.046.04-.067.06v.001c-.002 0-.003.002-.003.003l-.08.069c-.03.026-.064.05-.096.076-.024.019-.047.038-.072.056l-.001.001-.04.031a4.385 4.385 0 0 1-.222.154 5.268 5.268 0 0 1-2.146.777c-.138.019-.278.033-.418.043-.047.004-.095.004-.141.007-.095.004-.19.01-.285.01l-.171-.003c-.086-.001-.173-.002-.26-.007-.06-.003-.122-.01-.184-.014-.083-.007-.166-.013-.25-.022l-.191-.026c-.082-.012-.163-.023-.245-.037l-.195-.038a7.492 7.492 0 0 1-.873-.226l-.13-.04-3.367 6.008c.043.014.086.03.129.043a7.5 7.5 0 0 0 .435.126l.197.05c.08.018.161.034.241.05.065.013.13.027.196.038.081.014.163.026.244.037.064.009.128.019.192.026.083.01.166.016.25.022.06.005.123.011.184.014.087.005.173.006.259.007.057.001.115.004.171.004.096-.001.19-.006.285-.011.047-.003.094-.003.14-.006.141-.01.28-.025.419-.044a5.276 5.276 0 0 0 2.146-.776c.09-.06.177-.122.262-.185l.073-.057a4.37 4.37 0 0 0 .178-.149l.068-.06c.076-.069.149-.14.218-.213l.006-.007c.067-.071.13-.145.191-.22l.028-.035 3.362-6.002-.013.016" fill="#A17A00"/>
    <path d="M25.061 28.404a8.397 8.397 0 0 1-.695-.282 7.343 7.343 0 0 1-.442-.218c-.064-.034-.13-.068-.194-.104a8.422 8.422 0 0 1-.238-.14c-.062-.039-.125-.075-.186-.115-.08-.05-.157-.105-.235-.16-.059-.04-.118-.08-.175-.121-.08-.059-.159-.121-.237-.183-.053-.042-.106-.081-.158-.124-.085-.071-.168-.146-.251-.22-.042-.038-.085-.074-.126-.113a7.887 7.887 0 0 1-.717-.77 7.194 7.194 0 0 1-.259-.336l-.01-.016a6.919 6.919 0 0 1-.276-.416 6.531 6.531 0 0 1-.2-.348l-.015-.03a6.131 6.131 0 0 1-.34-.767l-.013-.04a5.673 5.673 0 0 1-.103-.323l-.023-.086a5.166 5.166 0 0 1-.084-.353l-.008-.047a5.09 5.09 0 0 1-.084-.745v-.054c-.003-.102-.001-.203.003-.303v-.048c.001-.01.003-.02.003-.031a4.49 4.49 0 0 1 .033-.336l.01-.057c.014-.097.032-.192.053-.287l.016-.074a4.1 4.1 0 0 1 .09-.318l.021-.059c.032-.09.066-.18.103-.267l.029-.067c.045-.1.094-.199.147-.295l.01-.02-3.368 6.012c-.987 1.761-.574 4.183 1.256 6.135.115.124.235.243.358.358.04.038.084.074.126.112.083.074.166.15.251.22.052.043.105.083.158.124.078.062.156.124.237.183.057.042.116.082.175.122.078.054.156.108.235.16.061.039.124.076.186.113.079.048.158.097.238.141.064.037.13.07.195.105.08.042.159.084.24.124.066.032.134.063.201.094a7.674 7.674 0 0 0 .695.28l.096.033 3.366-6.009c-.031-.01-.062-.023-.094-.034" fill="#9D7700"/>
  </g>
</svg>
