<svg width="52" height="74" xmlns="http://www.w3.org/2000/svg" xmlns:xlink="http://www.w3.org/1999/xlink">
  <defs>
    <path id="a" d="M0 25.71V0h52v51.419H0v-25.71z"/>
    <path id="c" d="M39.286 25.292H.306V.269h38.98v25.023z"/>
  </defs>
  <g fill="none" fill-rule="evenodd">
    <g>
      <mask id="b" fill="#fff">
        <use xlink:href="#a"/>
      </mask>
      <path d="M26 45.186c-10.631 0-19.25-8.72-19.25-19.476C6.75 14.953 15.37 6.233 26 6.233s19.25 8.72 19.25 19.477c0 10.756-8.619 19.476-19.25 19.476m23.219-14.113C49.624 29.27 52 27.637 52 25.71c0-1.928-2.376-3.56-2.781-5.364-.419-1.862 1.012-4.373.212-6.054-.815-1.707-3.656-2.136-4.813-3.603-1.164-1.475-.95-4.37-2.406-5.548-1.45-1.172-4.191-.32-5.88-1.144-1.66-.81-2.705-3.518-4.546-3.941-1.783-.41-3.88 1.561-5.786 1.561-1.905 0-4.003-1.97-5.786-1.561-1.841.423-2.885 3.131-4.546 3.941-1.688.825-4.43-.028-5.88 1.144-1.457 1.177-1.241 4.073-2.405 5.547-1.158 1.468-3.999 1.896-4.813 3.604-.801 1.68.63 4.192.212 6.054C2.376 22.15 0 23.782 0 25.71c0 1.927 2.376 3.56 2.782 5.363.418 1.862-1.013 4.373-.212 6.054.814 1.707 3.655 2.136 4.813 3.604 1.163 1.473.948 4.37 2.405 5.547 1.45 1.172 4.191.32 5.88 1.143 1.66.81 2.705 3.519 4.546 3.942 1.783.41 3.88-1.561 5.786-1.561 1.905 0 4.003 1.97 5.786 1.56 1.841-.422 2.886-3.13 4.547-3.94 1.688-.825 4.428.028 5.878-1.144 1.458-1.177 1.243-4.073 2.406-5.547 1.158-1.467 3.999-1.896 4.813-3.604.801-1.68-.63-4.192-.211-6.054" fill="#FFC100" mask="url(#b)"/>
    </g>
    <g transform="translate(7.663 48.384)">
      <mask id="d" fill="#fff">
        <use xlink:href="#c"/>
      </mask>
      <path d="M28.67.7c-1.661.81-2.706 3.517-4.547 3.94-1.783.41-3.88-1.56-5.786-1.56-1.906 0-4.004 1.97-5.786 1.56C10.743 4.226 9.7 1.61 8.09.75L.308 22.687l7.849-2.69 5.016 5.294 6.625-18.669 6.624 18.669 5.017-5.294 7.848 2.69L31.331.27c-.958.03-1.913.065-2.661.43" fill="#FFC100" mask="url(#d)"/>
    </g>
    <path d="M43.476 25.71c0 9.765-7.824 17.682-17.476 17.682S8.524 35.475 8.524 25.71c0-9.766 7.824-17.683 17.476-17.683s17.476 7.917 17.476 17.683" fill="#FFC100"/>
  </g>
</svg>
