<?xml version="1.0" encoding="utf-8"?>
<!-- Generator: Adobe Illustrator 22.0.1, SVG Export Plug-In . SVG Version: 6.00 Build 0)  -->
<svg version="1.1" id="Layer_1" xmlns="http://www.w3.org/2000/svg" xmlns:xlink="http://www.w3.org/1999/xlink" x="0px" y="0px"
	 viewBox="0 0 1281 219" style="enable-background:new 0 0 1281 219;" xml:space="preserve">
<style type="text/css">
	.st0{fill:none;stroke:#FFFFFF;stroke-width:2;stroke-linejoin:round;stroke-miterlimit:10;}
	.st1{fill:none;stroke:#FFFFFF;stroke-width:2;stroke-miterlimit:10;}
	.st2{fill:none;stroke:#FFFFFF;stroke-miterlimit:10;}
	.st3{display:none;}
	.st4{display:inline;fill:#FF4A4A;}
	.st5{fill:none;stroke:#FFFFFF;stroke-width:2;stroke-linecap:round;stroke-linejoin:round;stroke-miterlimit:10;}
</style>
<g>
	<g>
		<rect x="518.7" y="57.9" class="st0" width="327.4" height="88.1"/>
		<rect x="412.3" y="51.2" class="st0" width="101.4" height="101.4"/>
		<rect x="851.1" y="51.2" class="st0" width="49.9" height="101.4"/>
		<polygon class="st0" points="477.7,33 469.7,33 469.7,25.5 473,25.5 473,20.5 454.7,20.5 454.7,25.5 458,25.5 458,33 449.9,33 
			412.3,51.2 513.7,51.2 		"/>
		<rect x="518.7" y="57.9" class="st1" width="10" height="88.1"/>
		<rect x="535.3" y="57.9" class="st1" width="10" height="88.1"/>
		<rect x="552" y="47.9" class="st1" width="10" height="106.4"/>
		<rect x="568.6" y="57.9" class="st1" width="10" height="88.1"/>
		<rect x="826.2" y="57.9" class="st1" width="10" height="88.1"/>
		<rect x="807.1" y="48.8" class="st1" width="10" height="106.4"/>
		<path class="st1" d="M776.7,155.1h-9.1c-0.2,0-0.5-0.2-0.5-0.5V49.2c0-0.2,0.2-0.5,0.5-0.5h9.1c0.2,0,0.5,0.2,0.5,0.5v105.5
			C777.2,154.9,777,155.1,776.7,155.1z"/>
		
			<rect x="650.8" y="-69.3" transform="matrix(6.123234e-17 -1 1 6.123234e-17 480.7555 830.9134)" class="st0" width="10" height="488.7"/>
		<rect x="433.1" y="82" class="st1" width="10" height="88.1"/>
		<rect x="484.6" y="82" class="st1" width="10" height="88.1"/>
		<rect x="871.9" y="82" class="st1" width="10" height="88.1"/>
		<polygon class="st1" points="446.4,200 446.4,180.1 429.8,180.1 429.8,200 423.1,200 423.1,206.7 453.1,206.7 453.1,200 		"/>
		<polygon class="st1" points="885.2,200 885.2,180.1 868.6,180.1 868.6,200 861.9,200 861.9,206.7 891.9,206.7 891.9,200 		"/>
	</g>
	<g>
		<path class="st0" d="M673.8,37.1c0,0,2.6-3.2,8.1-0.4c6.2,3.2,4,7.6,4,7.6"/>
		<path class="st0" d="M672.1,27.3c0,0,4.2-4.6,14.3,0.5c11.6,5.9,8.4,12.1,8.4,12.1"/>
	</g>
	<g>
		<path class="st0" d="M397.4,51.4c0,0-3.4-2.3-1.1-8c2.6-6.5,7.2-4.6,7.2-4.6"/>
		<path class="st0" d="M387.8,54c0,0-4.9-3.8-0.7-14.3c4.8-12.1,11.3-9.5,11.3-9.5"/>
	</g>
	<g>
		<path class="st0" d="M916.2,148.7c0,0,3.5,2.2,1.5,7.9c-2.3,6.6-7,5-7,5"/>
		<path class="st0" d="M925.7,145.7c0,0,5.1,3.6,1.4,14.3c-4.3,12.3-10.9,10-10.9,10"/>
	</g>
</g>
<g>
	<path class="st2" d="M346,115h-70c-1.7,0-3-1.3-3-3l0,0c0-1.7,1.3-3,3-3h70c1.7,0,3,1.3,3,3l0,0C349,113.7,347.7,115,346,115z"/>
	<path class="st2" d="M343.9,114.1l-12.4-12.4c-1.2-1.2-1.2-3.1,0-4.2l0,0c1.2-1.2,3.1-1.2,4.2,0l12.4,12.4c1.2,1.2,1.2,3.1,0,4.2h0
		C347,115.3,345.1,115.3,343.9,114.1z"/>
	<path class="st2" d="M343.9,110.5l-12.4,12.4c-1.2,1.2-1.2,3.1,0,4.2l0,0c1.2,1.2,3.1,1.2,4.2,0l12.4-12.4c1.2-1.2,1.2-3.1,0-4.2h0
		C347,109.3,345.1,109.3,343.9,110.5z"/>
</g>
<g>
	<path class="st2" d="M1047,115h-70c-1.7,0-3-1.3-3-3l0,0c0-1.7,1.3-3,3-3h70c1.7,0,3,1.3,3,3l0,0C1050,113.7,1048.7,115,1047,115z"
		/>
	<path class="st2" d="M1044.9,114.1l-12.4-12.4c-1.2-1.2-1.2-3.1,0-4.2l0,0c1.2-1.2,3.1-1.2,4.2,0l12.4,12.4c1.2,1.2,1.2,3.1,0,4.2
		l0,0C1048,115.3,1046.1,115.3,1044.9,114.1z"/>
	<path class="st2" d="M1044.9,110.5l-12.4,12.4c-1.2,1.2-1.2,3.1,0,4.2l0,0c1.2,1.2,3.1,1.2,4.2,0l12.4-12.4c1.2-1.2,1.2-3.1,0-4.2
		l0,0C1048,109.3,1046.1,109.3,1044.9,110.5z"/>
</g>
<g class="st3">
	<polygon class="st4" points="103,78 102,84 109,83 	"/>
	<polygon class="st4" points="178,89 176,96 183,95 	"/>
	<polygon class="st4" points="111,157 103,161 114,164 	"/>
	<polygon class="st4" points="90,145 85,153 92,154 	"/>
	<polygon class="st4" points="95,159 88,162 96,165 	"/>
	<polygon class="st4" points="76,151 77,160 82,157 	"/>
</g>
<g>
	<polygon class="st0" points="1224.5,48 1139.4,48 1139.4,67.4 1126,103.2 1126,179.4 1237.9,179.4 1237.9,103.2 1224.5,67.4 	"/>
	<rect x="1148.4" y="119.6" class="st0" width="67.2" height="37.3"/>
	<line class="st5" x1="1139.4" y1="67.4" x2="1193.2" y2="67.4"/>
	<path class="st0" d="M1191.2,150l-42.1,42.1h91.8c0,0-28.4-29.8-40-42C1198.3,147.3,1193.9,147.3,1191.2,150z"/>
	<path class="st0" d="M1227.5,168.9l-32.1,32.1h70c0,0-21.6-22.7-30.5-32C1232.9,166.9,1229.5,166.9,1227.5,168.9z"/>
	<polygon class="st0" points="1251.4,63.7 1247.2,62.1 1243.5,64.7 1243.7,60.2 1240.1,57.5 1244.4,56.3 1245.9,52 1248.4,55.8 
		1252.9,55.9 1250.1,59.4 	"/>
	<polygon class="st0" points="1109.7,168.4 1107.5,164.5 1103,164.1 1106,160.8 1105,156.4 1109.1,158.3 1113,156 1112.5,160.4 
		1115.9,163.4 1111.5,164.3 	"/>
</g>
<g>
	<polygon class="st0" points="91.4,149.2 102.2,174.4 125.7,188.9 154.5,183.5 176.2,163.6 159.9,123.9 114.8,127.5 	"/>
	<polygon class="st0" points="190.6,165.4 197.8,181.7 217.7,190.7 235.7,176.2 232.1,147.4 203.2,143.8 	"/>
	<polygon class="st0" points="174.4,178.1 170.8,185.3 174.4,192.5 183.4,190.7 185.2,185.3 183.4,179.9 	"/>
	<path class="st0" d="M87.6,167.9c1.8,0,5.4,3.6,5.4,3.6l1.8,5.4l-1.8,5.4H82.2v-7.2L87.6,167.9z"/>
	<polygon class="st0" points="178,131.1 179.8,140.2 190.6,140.2 192.4,127.5 	"/>
	<polygon class="st0" points="210.5,116.7 205,123.9 208.6,134.8 219.5,134.8 228.5,129.3 221.3,116.7 	"/>
	<polygon class="st0" points="170.8,98.7 178,116.7 192.4,116.7 205,104.1 197.8,84.2 176.2,87.8 	"/>
	<polygon class="st0" points="154.5,100.5 149.1,104.1 149.1,113.1 159.9,114.9 165.3,104.1 	"/>
	<polygon class="st0" points="147.3,80.6 145.5,91.4 154.5,91.4 158.1,87.8 	"/>
	<polygon class="st0" points="172.2,63.9 163.2,72.9 165,80.1 174,78.3 	"/>
	<polygon class="st0" points="123.8,49.9 127.5,68 136.5,73.4 147.3,69.8 150.9,55.4 138.3,48.1 	"/>
	<polygon class="st0" points="127.5,78.8 109.4,80.6 98.6,95.1 104,116.7 129.3,114.9 141.9,98.7 	"/>
	<polygon class="st0" points="111.2,60.8 104,64.4 102.2,69.8 107.6,71.6 114.8,68 	"/>
	<polygon class="st0" points="87.8,102.3 80.5,109.5 91.4,116.7 93.2,107.7 	"/>
	<polygon class="st0" points="95,75.2 76.9,95.1 60.7,84.2 66.1,69.8 86,62.6 	"/>
	<polygon class="st0" points="53.5,102.3 33.6,114.9 37.2,129.3 57.1,142 75.1,129.3 71.5,107.7 	"/>
	<polygon class="st0" points="69.7,156.4 35.4,147.4 21,161.8 22.8,187.1 71.5,187.1 	"/>
</g>
</svg>
