<svg id="Layer_1" xmlns="http://www.w3.org/2000/svg" viewBox="0 0 98.7 120" enable-background="new 0 0 98.7 120">
  <style>
    .st2{fill:#fff}
  </style>
  <path d="M7.9 105.4L0 100.2v16h3.7v-8.9l4.3 2.8 4.3-2.8v8.9H16v-16" fill="#070707"/>
  <g transform="translate(0 -.78)">
    <defs>
      <filter id="Adobe_OpacityMaskFilter" filterUnits="userSpaceOnUse" x="18.4" y="100.6" width="80.3" height="20.2">
        <feColorMatrix values="1 0 0 0 0 0 1 0 0 0 0 0 1 0 0 0 0 0 1 0"/>
      </filter>
    </defs>
    <mask maskUnits="userSpaceOnUse" x="18.4" y="100.6" width="80.3" height="20.2" id="b_2_">
      <g filter="url(#Adobe_OpacityMaskFilter)">
        <path id="a_2_" class="st2" d="M0 120.8h98.7V.8H0v120z"/>
      </g>
    </mask>
    <path d="M18.4 116.9H22v-11.1h-3.6v11.1zm0-14.4c0-1 .9-1.9 1.9-1.9 1.1 0 1.9.9 1.9 1.9 0 1.1-.8 1.9-1.9 1.9-1.1.1-1.9-.8-1.9-1.9zm25.1 7.3v7.1h-1.3v-7c0-1.9-1.1-3.2-2.8-3.2-1.8 0-3.1 1.2-3.1 3v7.1H35v-7c0-1.9-1.1-3.2-2.7-3.2-1.8 0-3.1 1.2-3.1 3v7.1h-1.3v-11.1h1.3v1.6c.5-1.2 1.8-1.9 3.3-1.9 1.7 0 3 .9 3.5 2.4.5-1.5 1.9-2.4 3.7-2.4 2.2.3 3.8 2 3.8 4.5m8.9-5.2l2.6-3.1 1.4.3-2.9 2.8h-1.1zm-2.8 0h-1.2l2.6-3.1 1.4.3-2.8 2.8zm4.8 1.2h1.3v11.1h-1.3v-1.8c-.6 1.2-2 2.1-3.7 2.1-2.5 0-4.2-1.8-4.2-4.2v-7.1h1.3v7c0 1.9 1.2 3.2 3 3.2 2 0 3.5-1.4 3.5-3.1l.1-7.2zm13.9 4v7.1H67v-7c0-1.9-1.2-3.2-3-3.2-2 0-3.5 1.4-3.5 3.1v7.1h-1.3v-15h1.3v5.7c.6-1.2 2-2.1 3.7-2.1 2.4.1 4.1 1.8 4.1 4.3m4 .9h8c-.2-2.2-1.5-3.9-3.9-3.9-2.1 0-3.8 1.6-4.1 3.9m7.9 3.9l.8.9c-.9 1-2.9 1.7-4.5 1.7-3 0-5.6-2.5-5.6-5.8s2.5-5.8 5.5-5.8c3.3 0 5.3 2.5 5.3 6.3h-9.4c.2 2.3 1.9 4.1 4.2 4.1 1.4 0 3-.6 3.7-1.4m4.1 2.3h1.3v-15h-1.3m4.2 18.5l.3-1.2c.4.2.9.3 1.4.3.8 0 1.4-.3 1.8-1l.7-1.4-4.9-11.3h1.5l4.1 9.7 3.9-9.7h1.4l-5.1 12.5c-.7 1.8-1.8 2.5-3.3 2.5-.7 0-1.3-.1-1.8-.4" mask="url(#b_2_)" fill="#070707"/>
    <defs>
      <filter id="Adobe_OpacityMaskFilter_1_" filterUnits="userSpaceOnUse" x="0" y=".8" width="98.7" height="94.4">
        <feColorMatrix values="1 0 0 0 0 0 1 0 0 0 0 0 1 0 0 0 0 0 1 0"/>
      </filter>
    </defs>
    <mask maskUnits="userSpaceOnUse" x="0" y=".8" width="98.7" height="94.4" id="b_4_">
      <g filter="url(#Adobe_OpacityMaskFilter_1_)">
        <path id="a_4_" class="st2" d="M0 120.8h98.7V.8H0v120z"/>
      </g>
    </mask>
    <path d="M71.4 63c-4.5 0-8.2-3.7-8.2-8.2s3.7-8.2 8.2-8.2 8.2 3.7 8.2 8.2-3.7 8.2-8.2 8.2zM49.3 33.1L0 .8v94.4h63.4V79.1h16.1v16.1h19.2V.8L49.3 33.1z" mask="url(#b_4_)" fill="#070707"/>
  </g>
</svg>
