<svg width="113" height="137" viewBox="0 0 113 137" xmlns="http://www.w3.org/2000/svg" xmlns:xlink="http://www.w3.org/1999/xlink">
  <title>
    Page 1
  </title>
  <defs>
    <path id="a" d="M0 137h112.094V.78H0V137z"/>
  </defs>
  <g fill="none" fill-rule="evenodd">
    <path fill="#070707" d="M9.005 119.622l-9.002-5.906v18.113h4.172v-10.06l4.83 3.17 4.83-3.17v10.06h4.174v-18.114"/>
    <g transform="translate(0 -.78)">
      <mask id="b" fill="#fff">
        <use xlink:href="#a"/>
      </mask>
      <path d="M20.962 132.608h4.123v-12.614h-4.123v12.614zm-.097-16.347c0-1.145.975-2.145 2.195-2.145 1.196 0 2.147 1 2.147 2.146 0 1.197-.95 2.197-2.147 2.197-1.22 0-2.195-1-2.195-2.196zM49.411 124.508l.002 8.1h-1.514v-7.905c0-2.123-1.294-3.61-3.123-3.61-2.073 0-3.538 1.414-3.538 3.415v8.1h-1.513v-7.905c0-2.123-1.267-3.61-3.097-3.61-2.075 0-3.538 1.414-3.538 3.415l-.002 8.1h-1.512v-12.614h1.513l-.002 1.855c.61-1.32 2.002-2.15 3.733-2.15 1.904 0 3.368 1.076 4.027 2.735.538-1.66 2.197-2.734 4.148-2.734 2.587 0 4.416 2.002 4.416 4.808M59.562 118.58l2.977-3.49 1.61.366-3.27 3.123H59.56zm-3.27 0h-1.34l2.975-3.515 1.635.367-3.27 3.147zm5.54 1.414h1.512v12.614h-1.512v-2.074c-.684 1.39-2.294 2.367-4.148 2.367-2.782 0-4.733-2-4.733-4.805v-8.1h1.513v7.904c0 2.122 1.415 3.61 3.415 3.61 2.22 0 3.954-1.536 3.954-3.49v-8.026zM77.593 124.508v8.1H76.08v-7.905c0-2.123-1.415-3.61-3.415-3.61-2.22 0-3.953 1.536-3.953 3.488v8.03H67.2v-17.056h1.512v6.515c.684-1.392 2.294-2.37 4.148-2.37 2.782 0 4.733 2.002 4.733 4.808M82.157 125.51h9.125c-.195-2.54-1.757-4.418-4.416-4.418-2.464 0-4.392 1.806-4.71 4.417m8.955 4.415l.953 1.024c-1.074 1.17-3.294 1.952-5.148 1.952-3.367 0-6.32-2.855-6.32-6.637 0-3.734 2.806-6.564 6.222-6.564 3.734 0 5.978 2.856 5.978 7.2H82.133c.268 2.61 2.196 4.61 4.782 4.61 1.586 0 3.318-.634 4.196-1.585M95.747 132.61h1.513v-17.056h-1.513M100.504 136.585l.39-1.342c.464.244 1.025.366 1.562.366.927 0 1.586-.342 2.05-1.17l.756-1.636-5.538-12.81h1.66l4.66 11.004 4.415-11.004h1.634l-5.807 14.176c-.805 2-2.025 2.806-3.782 2.83-.708 0-1.415-.146-2-.415" fill="#070707" mask="url(#b)"/>
      <path d="M81.107 71.382c-5.13 0-9.29-4.16-9.29-9.29 0-5.132 4.16-9.29 9.29-9.29 5.13 0 9.29 4.158 9.29 9.29 0 5.13-4.16 9.29-9.29 9.29zM56 37.5L0 .78v107.183h71.963V89.675H90.25v18.288H112V.78L56 37.5z" fill="#070707" mask="url(#b)"/>
    </g>
  </g>
</svg>
