<svg id="Layer_1" xmlns="http://www.w3.org/2000/svg" viewBox="0 0 628 178">
  <style>
    .st0{fill:#c8d0fc}.st1{fill:#717fff}.st2{fill:#4e5160}
  </style>
  <path class="st0" d="M553.4 24.1c-2.3-3.3-45 1.5-47.5 5.7-2.5 4.1-16.8 25.6-16.2 30.4.6 4.8 27.6 71.3 31.4 71.3 3.5 3.2 53.8-37.1 56.1-41.8 2.1-4.4-19.1-62-23.8-65.6zM568 26.6c-1.8 1.3 18.8 56.2 22.3 58.4 3.5 2.1 13.1 4.9 16-2.2 2.9-7.1-1.6-45.2-9.2-46.7-7.3-1.5-27.8-11.2-29.1-9.5zM589.1 101.4c-1.2-2.1-3.9-2.7-5.9-1.4-12.9 8.8-54.7 37.8-52.1 39.8 5.5 4.3 22.4 5.9 27.2 5.9.7 0 1.3-.2 1.9-.5l34.4-19.3c3.5-2 4.7-6.4 2.7-9.9l-8.2-14.6z"/>
  <path class="st1" d="M27 142.3V88h14.1v3.6c3-3.1 6.5-4.7 10.6-4.8 4.1-.1 7.6 1.1 10.6 3.5l-4.1 14.1c-3-2.3-5.8-3.3-8.5-3.2s-4.8.9-6.3 2.2c-1.5 1.4-2.2 3.4-2.2 6.1v32.7H27zM109 134.4c-6.3 6-13.2 8.9-20.8 8.6-7.6-.2-13.6-2.8-17.9-7.9-4.3-5.1-6.5-11.9-6.4-20.6.1-8.7 2.4-15.5 7-20.5s10.2-7.5 16.8-7.5c6.5 0 12.2 2.6 17 7.9 4.8 5.3 6.8 13.5 6.1 24.8H78.1c.1 1.9 1 3.9 2.5 6.2 1.5 2.3 4.3 3.6 8.3 3.8 4.1.3 7.4-1.1 9.9-4.1l10.2 9.3zm-30.5-25.9h18.4c-.4-2.6-1.3-4.7-2.7-6.5-1.4-1.8-3.5-2.7-6.5-2.8-3-.1-5.2.8-6.5 2.7-1.4 1.9-2.3 4.1-2.7 6.6z"/>
  <path class="st2" d="M166 98.5l-9.8 9.6c-2.8-4.4-6.3-6.8-10.2-7.3-4-.4-7.2.5-9.5 2.9-2.3 2.3-3.7 5.6-3.9 9.8-.3 4.2.5 7.8 2.5 10.9s5.1 4.6 9.4 4.7c4.3.1 8.5-2.2 12.5-6.9l9.4 9c-6.7 7.7-13.7 11.7-21.1 12-7.4.3-13.8-2.3-19.1-7.9s-7.9-12.5-7.8-20.7c.1-8.3 2.3-14.9 6.6-19.9 4.3-5 10.5-7.6 18.7-7.9 8-.3 15.5 3.6 22.3 11.7zM217.9 134.4c-6.3 6-13.2 8.9-20.8 8.6-7.6-.2-13.6-2.8-17.9-7.9-4.3-5.1-6.5-11.9-6.4-20.6.1-8.7 2.4-15.5 7-20.5s10.2-7.5 16.8-7.5c6.5 0 12.2 2.6 17 7.9 4.8 5.3 6.8 13.5 6.1 24.8H187c.1 1.9 1 3.9 2.5 6.2 1.5 2.3 4.3 3.6 8.3 3.8 4.1.3 7.4-1.1 9.9-4.1l10.2 9.3zm-30.5-25.9h18.4c-.4-2.6-1.3-4.7-2.7-6.5-1.4-1.8-3.5-2.7-6.5-2.8-3-.1-5.2.8-6.5 2.7-1.4 1.9-2.3 4.1-2.7 6.6zM245.7 88v3.2c4.6-3.3 9.4-4.8 14.4-4.5 5.1.3 9.6 2.5 13.6 6.6 4.3-4.7 9.8-6.9 16.7-6.6 6.8.3 11.8 2.4 14.9 6.3 3.1 3.9 4.7 9.1 4.7 15.7v33.5h-14.3v-33.1c0-2.8-.7-5.1-2-6.6-1.4-1.6-3.5-2.3-6.3-2.3s-5.1.8-6.6 2.5c-1.6 1.6-2.3 4-2.3 7.2v32.5h-14v-32.9c-.1-2.3-1-4.4-2.7-6.3-1.7-1.9-3.9-2.9-6.7-2.9s-5 .9-6.7 2.7c-1.7 1.8-2.6 3.9-2.6 6.3v33.1h-14.2l-.2-54.4h14.3zM365.4 134.4c-6.3 6-13.2 8.9-20.8 8.6-7.6-.2-13.6-2.8-17.9-7.9-4.3-5.1-6.5-11.9-6.4-20.6.1-8.7 2.4-15.5 7-20.5s10.2-7.5 16.8-7.5c6.5 0 12.2 2.6 17 7.9 4.8 5.3 6.8 13.5 6.1 24.8h-32.7c.1 1.9 1 3.9 2.5 6.2 1.5 2.3 4.3 3.6 8.3 3.8 4.1.3 7.4-1.1 9.9-4.1l10.2 9.3zm-30.5-25.9h18.4c-.4-2.6-1.3-4.7-2.7-6.5s-3.5-2.7-6.5-2.8c-3-.1-5.2.8-6.5 2.7-1.4 1.9-2.3 4.1-2.7 6.6zM393.2 88v3.2c4.6-3.3 9.4-4.8 14.4-4.5 5.1.3 9.4 2.2 12.9 5.9 3.6 3.6 5.3 9.4 5.3 17.2v32.5h-14v-32.9c-.1-2.3-1-4.4-2.7-6.3-1.7-1.9-4-2.9-6.7-2.9s-5 .9-6.7 2.7c-1.7 1.8-2.6 3.9-2.6 6.3v33.1H379l-.1-54.3h14.3zM459.8 67.5v20.7h12.8l.1 13.6h-12.8l-.1 22.1c0 3.3 1.2 5.1 3.6 5.6s5.5-1 9.2-4.3l-2.1 14.9c-4.4 2.3-8.7 3.2-12.9 2.8-4.1-.4-7.2-2.2-9.1-5.2-1.9-3.1-2.9-6.4-2.9-10.1v-25.7h-9.2V88.3h9.2V74.1l14.2-6.6z"/>
</svg>
