<svg width="192" height="71" viewBox="0 0 192 71" xmlns="http://www.w3.org/2000/svg" xmlns:xlink="http://www.w3.org/1999/xlink">
  <title>
    Page 1
  </title>
  <defs>
    <path id="a" d="M0 70.67h191.752V0H0z"/>
  </defs>
  <g fill="none" fill-rule="evenodd">
    <path d="M65.88 58.075c3.883 0 7.032-3.15 7.032-7.033 0-3.883-3.15-7.032-7.032-7.032-3.883 0-7.032 3.15-7.032 7.032 0 3.884 3.15 7.033 7.032 7.033zm0-17.25c5.64 0 10.215 4.576 10.215 10.217v9.817H72.92v-2.416c-1.83 1.744-4.31 2.815-7.04 2.815-5.64 0-10.215-4.576-10.215-10.218 0-5.64 4.574-10.216 10.215-10.216z" fill="#FEFEFE"/>
    <mask id="b" fill="#fff">
      <use xlink:href="#a"/>
    </mask>
    <path fill="#FEFEFE" mask="url(#b)" d="M79.9 60.86h3.473V41.318H79.9M81.637 34.003c-1.064 0-1.926.863-1.926 1.927s.863 1.927 1.927 1.927 1.926-.863 1.926-1.927-.862-1.927-1.926-1.927M87.23 48.458V60.86h3.333V48.458c.445-3.005 2.39-4.5 5.828-4.48l-.004-3.152c-5.453 0-9.115 2.912-9.155 7.632M109.462 58.212c-3.914 0-7.088-3.174-7.088-7.09 0-3.913 3.174-7.087 7.088-7.087s7.087 3.174 7.087 7.088c0 3.915-3.174 7.09-7.088 7.09m0-17.387c-2.75 0-5.25 1.08-7.097 2.837V32.7h-3.2v18.423c0 5.687 4.61 10.298 10.297 10.298 5.685 0 10.296-4.61 10.296-10.297 0-5.686-4.61-10.297-10.296-10.297M125.55 52.428c-.09-.448-.137-.91-.137-1.386 0-3.883 3.15-7.033 7.032-7.033 2.54 0 4.764 1.346 6 3.365l-12.895 5.053zm13.88-2.205l3.03-1.204c-.2-1-.55-1.946-1.017-2.817V46.2h-.002c-1.724-3.2-5.106-5.374-8.995-5.374-5.64 0-10.215 4.575-10.215 10.216 0 5.642 4.574 10.217 10.215 10.217 4.32 0 8.012-2.683 9.506-6.472h-3.553c-1.245 1.975-3.446 3.288-5.952 3.288-2.31 0-4.36-1.115-5.643-2.836l12.623-5.047.004.03zM145.224 48.458V60.86h3.332V48.458c.445-3.005 2.388-4.5 5.827-4.48l-.005-3.152c-5.453 0-9.115 2.912-9.154 7.632M167.272 60.86h3.472V41.318h-3.472M169.008 34.003c-1.064 0-1.927.863-1.927 1.927s.864 1.927 1.928 1.927 1.926-.863 1.926-1.927-.862-1.927-1.926-1.927M160.547 54.36V32.7h-3.565v21.66c.02 3.812 3.382 6.49 7.553 6.5v-3.02c-2.288-.246-4.003-1.723-3.988-3.48M174.566 48.457V60.86h3.367V49.207c0-6.98 10.452-7.005 10.452 0V60.86h3.368V48.457c0-10.276-17.187-10.24-17.187 0M15.35 40.775c1.43 0 2.79.294 4.025.823 1.328 4.53 3.12 8.806 5.665 12.678-1.365 4.042-5.188 6.953-9.69 6.953C9.704 61.23 5.125 56.65 5.125 51c0-5.647 4.58-10.227 10.225-10.227M36.072 0C23.332 0 10.734 8.915 8.076 19.81L.5 50.86c-2.66 10.897 5.586 19.812 18.325 19.812 8.435 0 16.805-3.91 22.272-9.715-5.814.234-10.36-1.75-13.41-6.35-2.7-4.965-4.99-10.552-7.13-16.362-2.937-7.226-6.713-11.19-11.327-11.888h9.3c4.018-.003 8.604 3.896 10.835 9.86l6.693 16.28c1.403 2.957 3.62 5.737 6.07 7.3.288-.345.568-.694.836-1.048-.97-.953-2.07-2.995-2.83-4.142C37.43 49.642 35.14 44.055 33 38.245c-2.935-7.226-6.71-11.19-11.325-11.888h9.3c4.018-.003 8.604 3.896 10.836 9.86l5.387 13.102 7.2-29.51C57.058 8.916 48.81 0 36.073 0"/>
  </g>
</svg>
