<svg width="101" height="89" viewBox="0 0 101 89" xmlns="http://www.w3.org/2000/svg" xmlns:xlink="http://www.w3.org/1999/xlink">
  <title>
    Page 1
  </title>
  <defs>
    <path id="a" d="M100.943.073H0v62.44h100.943V.073z"/>
    <path id="c" d="M0 17.503h100.944V.018H0v17.485z"/>
  </defs>
  <g fill="none" fill-rule="evenodd">
    <g transform="translate(0 .05)">
      <mask id="b" fill="#fff">
        <use xlink:href="#a"/>
      </mask>
      <path d="M37.264 14.403c0-9.5 2.31-5.995 12.036-5.995 9.723 0 12.035-3.504 12.035 5.995v.99h6.56v-2.52c0-8.953-3.812-12.8-18.595-12.8-14.784 0-18.595 3.847-18.595 12.8v2.52h6.56v-.99zm-1.686 47.395H63.02v-7.905H44.525V43.11h15.988v-7.188H44.525v-8.986H63.02v-7.863H35.578v42.725zm60.892-7.88s-4.702-5.82-7.088-10.13c6.028-2.818 7.54-7.412 7.54-11.608 0-13.15-12.26-13.41-18.448-13.408-3.76 0-7.9.326-11.59.3v7.885h12.958c5.226 0 7.98 2.057 7.98 6.054 0 4.354-2.72 6.257-7.176 6.257h-4.81V30.56s-5.932-.224-8.95 3.752v27.486h8.95v-16.06c5.38-1.042 6.976 4.17 9.305 7.905 3.227 5.163 5.175 8.87 11.66 8.87 1.178 0 2.505-.128 4.016-.39l.127-6.78c-1.593.263-2.897.443-4.473-1.426zM10.61 18.77c-3.037 0-6.166.3-10.61.3v31.295s4.87.305 8.51-2.45V26.663h3.26c5.69 0 11.598 2.575 11.598 13.593 0 9.903-4.49 13.707-13.354 13.707H0v7.74c4.444 0 7.573.09 10.61.09 16.497 0 21.67-9.393 21.67-21.547 0-12.156-5.173-21.474-21.67-21.474z" fill="#FFF" mask="url(#b)"/>
    </g>
    <g transform="translate(0 71.285)">
      <mask id="d" fill="#fff">
        <use xlink:href="#c"/>
      </mask>
      <path d="M17.74 15.262c-2.283 0-2.944-1.724-2.944-4.162 0-2.44.66-4.16 2.943-4.16 2.28 0 2.944 1.72 2.944 4.16 0 2.438-.663 4.162-2.945 4.162zm0-10.564c-4.22 0-5.792 2.56-5.792 6.402 0 3.84 1.572 6.402 5.79 6.402 4.22 0 5.792-2.56 5.792-6.402s-1.572-6.402-5.79-6.402zm63.697-1.454h2.7V.018h-2.7v3.226zm-68.8 1.11V.51H0v3.843h2.257v-1.6h2.65v12.262H3.41v2.24h5.84v-2.24H7.753V2.753h2.65v1.6h2.232zm24.51.59h-4.465v2.24h1.766v6.894c-.66.47-1.79 1.184-2.994 1.184-1.545 0-2.207-.96-2.207-2.463V4.943h-4.22v2.24h1.52v6.23c0 2.56 1.228 4.09 3.682 4.09 1.642 0 3.066-.766 4.17-1.896h.048v1.648h4.196v-2.24h-1.496V4.943zm14.92-1.7h2.7V.018h-2.7v3.226zm-7.68 3.67h-.05v-1.97h-4.22v2.24h1.52v7.83h-1.52v2.242h5.888v-2.24h-1.668V8.44c.982-.566 2.723-1.182 4.465-1.182v-2.56c-1.962 0-3.533 1.108-4.416 2.216zm32.093 8.42c-1.424 0-1.915-.737-1.915-2.092V6.89h3.24V4.944h-3.24V1.497h-2.38l-.317 3.447-1.767.173V6.89h1.768v6.82c0 2.684 1.054 3.792 3.705 3.792.613 0 1.692-.074 2.355-.197l-.245-2.092c-.49.074-.86.122-1.203.122zm23.162-.32L96.035 9.5l3.043-2.315h1.62v-2.24H94.81v2.24h1.225L91.3 10.78V.017h-4.22V2.26h1.522v12.755H87.08v2.242h5.718v-2.242H91.3v-2.142l2.454-1.896 2.502 4.038h-1.202v2.242h5.89v-2.242h-1.302zM84.136 4.945h-4.22v2.24h1.52v7.83h-1.52v2.242h5.717v-2.24h-1.497V4.943zM63.206 9.77c-1.89-.418-2.306-.886-2.306-1.576 0-.418.318-1.33 2.16-1.33.564 0 1.545.025 2.624.246v1.38h2.257V5.264c-1.47-.368-3.09-.566-5.028-.566-2.944 0-4.71 1.084-4.71 3.57 0 2.685 2.207 3.547 4.906 4.04 1.816.344 2.428.787 2.428 1.527 0 .443-.367 1.5-2.306 1.5-.588 0-1.716-.023-2.87-.244v-1.38h-2.233v3.225c1.472.37 3.484.568 5.423.568 2.92 0 4.686-1.28 4.686-3.866 0-2.685-2.576-3.35-5.03-3.867zm-8.44-4.826h-4.22v2.24h1.52v7.83h-1.52v2.242h5.716v-2.24h-1.496V4.943z" fill="#FFF" mask="url(#d)"/>
    </g>
  </g>
</svg>
