<svg width="178" height="69" viewBox="0 0 178 69" xmlns="http://www.w3.org/2000/svg" xmlns:xlink="http://www.w3.org/1999/xlink">
  <title>
    Page 1
  </title>
  <defs>
    <path id="a" d="M0 .15h20.69V20.85H0V.15z"/>
    <path id="c" d="M.52 36.365h69.11V.337H.52z"/>
  </defs>
  <g fill="none" fill-rule="evenodd">
    <path d="M25.585 52.453c0 2.345-1.9 4.246-4.243 4.246-2.34 0-4.242-1.902-4.242-4.247 0-2.342 1.9-4.245 4.242-4.245s4.243 1.903 4.243 4.245" fill="#FEFEFE"/>
    <g transform="translate(0 .784)">
      <mask id="b" fill="#fff">
        <use xlink:href="#a"/>
      </mask>
      <path d="M20.69 10.5c0 5.717-4.633 10.352-10.346 10.352C4.632 20.852 0 16.217 0 10.5 0 4.782 4.632.15 10.344.15 16.057.15 20.69 4.782 20.69 10.5" fill="#FEFEFE" mask="url(#b)"/>
    </g>
    <path d="M168.88 56.693c0 2.19-1.772 3.965-3.962 3.965h-14.792c-2.19 0-3.963-1.776-3.963-3.965v-11.63c0-2.19 1.773-3.965 3.963-3.965h14.792c2.19 0 3.963 1.775 3.963 3.965v11.63zm-3.696-23.788h-15.322c-6.566 0-11.888 5.325-11.888 11.894v12.157c0 1.293.213 2.535.594 3.7H118.67c-2.187 0-3.962-1.775-3.962-3.964v-11.63c0-2.19 1.775-3.965 3.963-3.965h14.58v.007c.02 0 .04-.007.06-.007h.024v-.002c2.22-.047 4.008-1.854 4.008-4.088s-1.787-4.042-4.008-4.09v-.013h-14.927c-6.565 0-11.888 5.325-11.888 11.894v12.157c0 6.57 5.322 11.894 11.887 11.894H149.8v-.003c.022 0 .04.004.062.004h15.322c6.565 0 11.888-5.324 11.888-11.893V44.8c0-6.57-5.323-11.895-11.888-11.895z" fill="#FEFEFE"/>
    <g transform="translate(35.414 32.486)">
      <mask id="d" fill="#fff">
        <use xlink:href="#c"/>
      </mask>
      <path d="M8.71 12.577c0-2.19 1.774-3.965 3.962-3.965h7.332v-.004h4.312c2.188 0 3.962 1.085 3.962 3.127v1.057c0 2.04-1.423 3.19-3.962 3.19H8.71v-3.405zm49.033 1.87h-9.575c-1.3-.43-2.018-1.337-2.018-2.663v-.976c0-1.886 1.775-2.89 3.963-2.89h14.3v-.015c2.252-.012 4.075-1.698 4.075-3.782 0-2.082-1.823-3.77-4.076-3.78V.336H49.85c-6.566 0-11.89 4.587-11.89 10.244v1.431c0 1.76.518 3.42 1.426 4.865 1.63 2.6 4.53 4.522 7.983 5.154.8.144 1.627.225 2.48.225h9.29c1.355.39 2.3 1.29 2.3 2.662v-.087.422c-.003 1.88-1.47 2.94-4.007 2.94l-44.76-.02c-2.19 0-3.963-1.776-3.963-3.965v-.078h15.87c6.565 0 11.887-4.968 11.887-11.092V11.49C36.467 5.364 31.145.397 24.58.397h-4.603v.02h-7.57C5.844.418.522 5.743.522 12.312v12.16c0 6.568 5.323 11.893 11.888 11.893H57.743c6.565 0 11.887-4.587 11.887-10.244V24.69c0-5.657-5.322-10.244-11.887-10.244z" fill="#FEFEFE" mask="url(#d)"/>
    </g>
  </g>
</svg>
