<svg width="206" height="54" viewBox="0 0 206 54" xmlns="http://www.w3.org/2000/svg" xmlns:xlink="http://www.w3.org/1999/xlink">
  <title>
    Group 4
  </title>
  <defs>
    <path id="a" d="M.743.376h34.99V35.37H.744V.375z"/>
  </defs>
  <g fill="none" fill-rule="evenodd">
    <g opacity=".6" transform="translate(13 -.376)">
      <mask id="b" fill="#fff">
        <use xlink:href="#a"/>
      </mask>
      <path d="M35.09 22.558c-2.59 9.308-12.23 14.757-21.538 12.166C4.244 32.137-1.2 22.494 1.387 13.186 3.977 3.877 13.617-1.57 22.924 1.02 32.23 3.61 37.678 13.25 35.09 22.558" fill="#FEFEFE" mask="url(#b)"/>
    </g>
    <path d="M34.347 35.654c-2.59 9.308-12.23 14.753-21.537 12.163C3.502 45.23-1.944 35.593.644 26.28c2.59-9.306 12.23-14.753 21.537-12.166 9.31 2.59 14.755 12.226 12.167 21.54" fill-opacity=".7" fill="#FEFEFE"/>
    <path d="M63.824 37.944v-17.7h2.742v10.42h.37c1.21 0 1.928-1.064 2.595-2.027l1.752-2.686 3.047.015-2.38 3.834c-.64.938-1.357 1.628-2.148 1.925-.1.05-.123.15 0 .198.865.372 1.68 1.063 2.298 2.002l2.464 4.01H71.47l-1.79-2.9c-.693-1.035-1.385-1.9-2.743-1.9l-.37-.002v4.81l-2.743.002zM75.98 37.95h2.79V22.905h-2.79M81.29 37.95h2.79V26.903h-2.79V37.95zm0-12.836h2.79v-2.21h-2.79v2.21zM86.6 37.95V26.903h2.158l.347 1.62c1.06-1.08 2.266-1.62 3.62-1.62 2.616 0 3.924 1.36 3.924 4.082v6.965h-2.79v-6.965c0-1.22-.606-1.83-1.82-1.83-.904 0-1.788.36-2.65 1.084v7.71H86.6zM106.07 29.407c-.456-.168-1.105-.252-1.946-.252-1.93 0-2.894 1.063-2.894 3.188 0 2.054.832 3.082 2.493 3.082.8 0 1.582-.19 2.346-.567v-5.45zm2.788 7.7c0 3.228-1.94 4.84-5.818 4.84-1.36 0-2.568-.175-3.62-.524v-2.21c1.074.35 2.287.526 3.642.526 2.005 0 3.007-.843 3.007-2.526-.83.35-1.72.527-2.673.527-3.282 0-4.923-1.792-4.923-5.376 0-3.64 1.91-5.46 5.734-5.46 1.283 0 2.834.15 4.65.452v9.752zM113.426 31.47h4.713v-.084c0-1.53-.773-2.295-2.316-2.295-1.472 0-2.27.794-2.398 2.38m2.398-4.566c3.354 0 5.03 1.71 5.03 5.134 0 .455-.032.912-.094 1.368h-7.334c0 1.556 1.143 2.335 3.43 2.335 1.115 0 2.23-.104 3.345-.315v2.21c-.973.21-2.16.315-3.553.315-4.006 0-6.008-1.882-6.008-5.65 0-3.598 1.727-5.396 5.184-5.396M122.84 37.95V26.903h2.156l.348 1.41c.97-.94 1.992-1.41 3.072-1.41v2.252c-1.037 0-1.967.432-2.787 1.293v7.502h-2.79zM132.2 37.425V35.74c1.3.42 2.61.632 3.936.632 1.758 0 2.64-.525 2.64-1.578 0-.982-.614-1.473-1.84-1.473h-1.58c-2.386 0-3.576-1.086-3.576-3.26 0-2.104 1.532-3.156 4.597-3.156 1.32 0 2.627.175 3.924.525v1.682c-1.296-.42-2.605-.63-3.923-.63-1.838 0-2.756.525-2.756 1.578 0 .982.58 1.472 1.736 1.472h1.58c2.523 0 3.786 1.088 3.786 3.262 0 2.106-1.53 3.156-4.587 3.156-1.326 0-2.636-.173-3.935-.525M141.93 26.904h2.115l3.125 8.627 3.23-8.627h2.06l-4.585 11.373c-.814 2.006-2.035 3.258-3.662 3.756l-.748-1.376c1.235-.54 2.133-1.422 2.694-2.642l-4.23-11.11zM153.733 37.95V26.903h1.314l.348 1.41c1.13-.94 2.37-1.41 3.725-1.41 2.756 0 4.134 1.37 4.134 4.113v6.934h-1.947v-6.965c0-1.64-.816-2.46-2.45-2.46-1.116 0-2.175.464-3.18 1.398v8.027h-1.944zM167.53 31.364h5.975c-.04-1.936-.99-2.904-2.84-2.904-1.965 0-3.01.968-3.135 2.904m3.135-4.46c3.142 0 4.713 1.554 4.713 4.66 0 .443-.032.915-.094 1.42h-7.754c0 2.26 1.318 3.388 3.955 3.388 1.256 0 2.37-.14 3.346-.42v1.578c-.974.28-2.16.42-3.556.42-3.795 0-5.69-1.883-5.69-5.65 0-3.598 1.692-5.397 5.08-5.397M177.89 37.95V26.903h1.315l.346 1.41c.97-.94 2.134-1.41 3.495-1.41v1.62c-1.318 0-2.388.466-3.21 1.4v8.027h-1.946zM191.924 28.776c-.666-.168-1.49-.252-2.473-.252-2.348 0-3.522 1.273-3.522 3.82 0 2.617 1.11 3.922 3.334 3.922 1.012 0 1.898-.188 2.662-.567v-6.924zm1.947 9.174c0 2.666-1.692 3.998-5.08 3.998-1.362 0-2.567-.175-3.62-.526v-1.578c1.072.35 2.287.526 3.64.526 2.077 0 3.114-.806 3.114-2.42v-.526c-.826.352-1.72.526-2.672.526-3.492 0-5.24-1.86-5.24-5.586 0-3.64 1.842-5.46 5.525-5.46 1.492 0 2.938.15 4.334.453V37.95zM195.13 26.904h2.116l3.125 8.627 3.23-8.627h2.062l-4.586 11.373c-.814 2.006-2.035 3.258-3.662 3.756l-.748-1.376c1.235-.54 2.133-1.422 2.694-2.642l-4.23-11.11z" fill="#FEFEFE"/>
    <path d="M52.913 40.816c-2.59 9.308-12.23 14.754-21.537 12.164-9.308-2.588-14.754-12.226-12.166-21.537 2.59-9.307 12.23-14.754 21.537-12.166 9.308 2.588 14.754 12.226 12.166 21.54" fill="#FEFEFE" opacity=".8"/>
  </g>
</svg>
