<svg width="224" height="50" viewBox="0 0 224 50" xmlns="http://www.w3.org/2000/svg" xmlns:xlink="http://www.w3.org/1999/xlink">
  <title>
    Page 1
  </title>
  <defs>
    <path id="a" d="M.373.115V23.65H.258V.114h.115z"/>
  </defs>
  <g fill="none" fill-rule="evenodd">
    <path d="M0 15.2c.303-1.18 1.153-1.814 2.238-2.178 4.998-1.675 10.06-2.24 15.19-.657.89.275 1.685.852 2.54 1.255.2.094.53.155.692.055 2.013-1.256 4.247-1.8 6.563-2.043 2.16-.225 4.33-.362 6.46.24 2.56.725 4.644 2.08 5.647 4.66.3.768.443 1.643.448 2.47.038 5.693.024 11.385.02 17.078 0 1.137-.378 1.5-1.545 1.504-2.436.006-4.872.005-7.308.002-1.298 0-1.662-.357-1.663-1.656-.005-5.403 0-10.807-.01-16.21 0-.49-.033-.997-.16-1.466-.243-.892-.926-1.315-1.935-1.297-.998.018-1.664.485-1.873 1.39-.105.457-.136.94-.137 1.41-.01 5.383-.005 10.766-.007 16.15 0 1.343-.336 1.678-1.686 1.68-2.395.002-4.79.002-7.185 0-1.296-.003-1.654-.36-1.654-1.663-.003-5.32 0-10.642-.002-15.963 0-.33.004-.66-.018-.99-.086-1.306-.8-2.01-2.03-2.013-1.232-.004-1.962.692-2.037 2.006-.047.823-.022 1.65-.022 2.474-.002 4.806 0 9.61-.002 14.416 0 1.39-.335 1.732-1.707 1.733-2.437.003-4.873.007-7.31-.004-.608-.003-1.227-.044-1.403-.816.005-.062.013-.123.013-.185.002-6.804.004-13.61 0-20.415 0-.198-.08-.396-.12-.594v-.37zM47.08 49.605c-.47-.124-.943-.245-1.413-.372-.99-.27-1.902-.686-2.65-1.407-1.406-1.354-1.72-3.7-.713-5.292.94-1.49 2.962-2.04 4.86-1.314.402.154.78.374 1.18.54.73.3 1.47.39 2.075-.227.607-.62.895-1.328.574-2.24-2.892-8.225-5.763-16.456-8.64-24.685-.067-.194-.138-.39-.18-.59-.26-1.233.237-1.874 1.492-1.88 2.6-.01 5.203-.01 7.804 0 1.21.006 1.566.313 1.81 1.497.805 3.915 1.633 7.826 2.398 11.75.254 1.304.343 2.64.6 3.976.05-.374.086-.754.16-1.125.82-4.184 1.646-8.367 2.477-12.548.157-.788.333-1.573.522-2.354.197-.81.504-1.15 1.302-1.162 2.352-.037 4.706-.037 7.058 0 .784.014 1.143.47 1.126 1.263-.008.365-.07.743-.184 1.09-2.92 8.954-5.833 17.91-8.792 26.85-.36 1.084-.894 2.132-1.48 3.118-1.712 2.876-4.28 4.505-7.59 4.984-.154.023-.302.087-.453.13H47.08zM223.38 7.03c-.796 2.61-3.582 3.344-6 3.18-1.104-.076-2.16-.34-3.1-.957-2.155-1.418-2.254-4.162-.203-5.72 1.982-1.507 6.02-1.515 7.926.09.584.492.925 1.274 1.378 1.923V7.03z" fill="#FEFEFE"/>
    <g transform="translate(223.01 12.972)">
      <mask id="b" fill="#fff">
        <use xlink:href="#a"/>
      </mask>
      <path d="M.258.115l.115.01v23.514l-.112.01C.26 15.804.26 7.96.26.114" fill="#FEFEFE" mask="url(#b)"/>
    </g>
    <path d="M0 15.57c.042.2.12.397.12.595.005 6.806.003 13.61.002 20.416 0 .063-.01.124-.014.186-.04-.002-.074-.013-.108-.032V15.57zM71.363 25.95c0-3.237-.002-6.475 0-9.714.003-1.82.45-2.516 2.17-3.18 3.648-1.413 7.45-1.753 11.32-1.508 2.367.15 4.592.77 6.573 2.137.137.094.442.078.6-.01 4.09-2.27 8.466-2.722 12.954-1.78 2.81.59 4.958 2.232 5.876 5.11.197.616.282 1.294.284 1.945.023 5.693.017 11.386.013 17.08 0 1.187-.375 1.557-1.558 1.56-2.457.004-4.914.006-7.37 0-1.2-.005-1.594-.4-1.595-1.612-.006-5.32-.003-10.642-.005-15.964 0-.392.004-.785-.024-1.175-.085-1.162-.753-1.815-1.898-1.88-1.178-.067-1.912.52-2.1 1.71-.06.366-.078.74-.08 1.11-.003 5.36 0 10.724-.002 16.087 0 1.375-.343 1.72-1.718 1.722-2.374 0-4.75.002-7.123 0-1.32-.003-1.687-.373-1.688-1.7-.002-5.28 0-10.56 0-15.84 0-.352.005-.703-.014-1.053-.07-1.267-.773-1.996-1.954-2.038-1.236-.045-1.98.63-2.112 1.928-.03.287-.025.577-.025.865V35.78c0 1.48-.33 1.81-1.825 1.81-2.354 0-4.708.003-7.062 0-1.256-.002-1.636-.38-1.637-1.615-.002-3.34 0-6.683 0-10.024M140.527 23.394c0 3.032.008 6.064-.003 9.096-.01 2.414-.84 3.596-3.11 4.413-2.193.79-4.48 1.132-6.793 1.27-2.89.174-5.79.204-8.608-.59-1.12-.317-2.24-.762-3.235-1.356-2.14-1.275-3.153-3.293-3.17-5.743-.043-5.63-.02-11.26-.015-16.892 0-1.02.404-1.45 1.42-1.456 2.582-.02 5.163-.017 7.744-.002 1.013.006 1.402.413 1.456 1.437.014.268.008.537.008.805.002 5.218-.003 10.436.007 15.654.003 1.42.915 2.147 2.316 1.887.7-.13 1.16-.533 1.302-1.233.074-.36.098-.736.098-1.105.006-5.22.002-10.437.004-15.655 0-1.5.306-1.797 1.827-1.798 2.353 0 4.707-.003 7.06 0 1.347.003 1.69.344 1.693 1.677.003 3.197 0 6.393 0 9.59M157.274 38.247c-2.13.003-4.195-.34-6.15-1.213-3.387-1.513-5.427-4.17-6.345-7.692-.798-3.063-.87-6.172-.025-9.24 1.24-4.5 4.26-7.198 8.767-8.222 3.02-.686 6.028-.657 8.912.674 3.944 1.82 6.22 5.652 5.952 9.983-.09 1.47-.763 2.208-2.22 2.442-3.81.61-7.62 1.22-11.43 1.837-.68.11-.715.18-.405.78 1.125 2.18 3.063 2.807 5.335 2.743 1.733-.05 3.245-.716 4.595-1.78.29-.23.572-.48.89-.662 1.527-.87 3.165.023 3.24 1.774.096 2.238-.826 4.058-2.447 5.524-2.27 2.05-5.24 3.065-8.67 3.05m-4.022-16.28c1.822-.315 3.54-.603 5.25-.92.12-.023.287-.268.278-.397-.07-1.01-.18-2.017-.808-2.87-.82-1.115-2.524-1.258-3.47-.242-1.13 1.22-1.243 2.745-1.25 4.427M182.383 38.224c-2.56.02-5.065-.298-7.42-1.378-1.352-.62-2.6-1.417-3.342-2.742-.38-.68-.688-1.48-.748-2.25-.176-2.266 1.3-3.8 3.58-3.916 2.34-.12 4.124.73 5.255 2.855.51.957 1.217 1.725 2.432 1.753 1.432.034 2.257-1.128 1.59-2.402-.306-.584-.853-1.163-1.435-1.46-1.466-.742-3.012-1.332-4.532-1.968-1.624-.68-3.228-1.394-4.494-2.665-2.975-2.984-2.45-8.02 1.078-10.476 1.616-1.126 3.453-1.662 5.372-1.91 2.784-.362 5.564-.313 8.287.456 1.79.506 3.464 1.248 4.57 2.86.68.99.898 2.084.567 3.24-.487 1.7-2.298 2.678-4.313 2.385-1.667-.243-2.91-1.08-3.695-2.585-.416-.8-.9-1.54-1.884-1.732-.732-.142-1.43-.078-1.903.56-.51.686-.52 1.517-.01 2.136.507.612 1.187 1.16 1.903 1.503 1.26.605 2.632.97 3.907 1.55 1.402.634 2.88 1.22 4.093 2.133 3.853 2.9 3.706 8.766-.188 11.682-2.13 1.595-4.592 2.182-7.183 2.367-.494.034-.992.004-1.487.004M197.477 18.797V1.853c0-1.575.284-1.852 1.89-1.852h6.81c1.59 0 1.927.333 1.927 1.916.002 10.184 0 20.367 0 30.55 0 1.175.015 2.35-.006 3.525-.022 1.207-.422 1.596-1.615 1.6-2.476.004-4.952.003-7.428 0-1.212-.003-1.576-.374-1.577-1.6-.002-5.73 0-11.462 0-17.193M223.267 13.087c0 7.845.002 15.69.003 23.533-.127.657-.58.95-1.194.954-2.703.018-5.407.025-8.11 0-.895-.008-1.255-.47-1.256-1.478-.005-3.752-.003-7.505-.003-11.257 0-3.69 0-7.382.002-11.072 0-1.26.362-1.634 1.61-1.638 2.476-.008 4.952-.008 7.43 0 .94.004 1.258.218 1.517.957" fill="#FEFEFE"/>
  </g>
</svg>
