<svg width="188" height="42" viewBox="0 0 188 42" xmlns="http://www.w3.org/2000/svg" xmlns:xlink="http://www.w3.org/1999/xlink">
  <title>
    Page 1
  </title>
  <defs>
    <path id="a" d="M0 .327v40.31h148.935V.326z"/>
    <path id="c" d="M39.742 39.818H.174V.328h39.568v39.49z"/>
  </defs>
  <g fill="none" fill-rule="evenodd">
    <g transform="translate(0 .218)">
      <mask id="b" fill="#fff">
        <use xlink:href="#a"/>
      </mask>
      <path d="M121.28 4.146h27.655v10.418h-7.542v25.09h-12.625v-25.09h-7.487V4.146zm-28.69 0h27.653v10.418H112.7v25.09h-12.623v-25.09H92.59V4.146zm-26.18 0h24.43v8.836H79.365v4.364h10.22v8.89h-10.22V30.6H90.84v9.055H66.41V4.145zm-16.886 0V19.09L39.086 4.147H26.57v10.418l12.516 18.11v-9l11.15 15.98h11.967V4.147h-12.68zM12.69 22.2c.163.49.054 1.09.11 1.636H1.157c-.055-.6-.164-1.09 0-1.636h11.53zm-.33 10.146L11.27 31.2l1.476-1.636c.11.71.273 2.236-.383 2.782zm-2.84.545l-.164-.217c.437-.49.765-1.09 1.31-1.418l1.258 1.418c-.492.545-1.64.273-2.404.218zm-2.132-1.744c.547-.71 1.203-1.42 1.804-2.073l1.366 1.473L8.7 32.51c-.547-.383-.875-.983-1.312-1.364zM5.638 33c-.108 0-.217-.164-.272-.273L6.678 31.2c.6.546 1.093 1.09 1.64 1.69l-2.68.11zM3.4 31.2c.547-.764 1.258-1.418 1.86-2.127.49.327.873.927 1.365 1.363l-.055.164-1.858 2.018L3.4 31.2zM1.65 32.455l1.038-1.2c.656.49 1.093 1.145 1.585 1.745-.93-.054-2.022.11-2.623-.545zm1.038-6.328c-.437.6-1.038 1.146-1.53 1.69l-.055-2.78.22-.328c.49.272.928.926 1.365 1.417zm.6-.11l-1.42-1.58c.875-.11 1.64-.11 2.57-.055l.163.218-1.31 1.418zm1.368 2.892c-.328.49-.82 1.09-1.367 1.526-.602-.654-1.258-1.254-1.86-2.018.274-.6.876-.982 1.313-1.527l1.913 2.02zm1.967-2.728L4.82 28.2l-.164-.054L3.4 26.782l1.857-2.073 1.366 1.472zm.656-.11c-.602-.436-1.04-1.09-1.53-1.58.818-.165 1.747-.11 2.622-.11l.164.273c-.273.49-.875.98-1.257 1.418zm1.256 2.892c-.383.6-.765.927-1.257 1.418L5.42 28.31l1.258-1.364c.656.6 1.257 1.254 1.858 2.018zm1.967-2.837c-.492.71-1.093 1.42-1.803 2.128-.437-.437-.93-.928-1.312-1.364l.055-.217 1.75-1.91 1.31 1.364zm.71 0L9.63 24.382c.873-.055 1.748 0 2.677 0l.218.218c-.382.6-.93 1.09-1.31 1.527zm1.312 2.837l-1.31 1.472L9.3 28.364l1.313-1.418c.6.6 1.366 1.363 1.912 2.018zm-1.202-2.128c.383-.545.93-1.2 1.476-1.636v2.946l-.165.11-1.312-1.42zm-9.946 5.182C.94 31.09 1.05 30 1.213 29.073h.164l1.257 1.473-1.257 1.472zm4.918-15.71h1.257l.055 5.4-1.366-.053.055-5.346zM39.742 36.6L14.822.6l-.33-.218-.163-.055-.165.164-.055 3.765-.164.218c-.874-.655-1.53-1.527-2.295-2.237h-.272c-.11 0-.22.164-.22.328l.493 2.782c.056.49.384 1.2 0 1.58-.82 1.038-1.584-.38-2.458-.38-.656.327.492.872.11 1.31-.71-.6-1.75-1.31-2.734-.983.055.654 1.093.927 1.04 1.636-.602-.492-1.258-.874-2.133-.874-.273 0-.765-.163-.82.273.33.38.93.545 1.258.98.054.22.11.437-.11.546C4 9.982 2.196 10.582.447 11.29c-.327.22-.49.71-.437 1.2.765 2.62 1.804 4.91 1.585 8.074-.054.218.22.327.383.218l1.694-1.964c.492.11.164.873.273 1.2 0 .328-.054.982.383.818.437-.49.93-1.254 1.42-1.527-.054.708.11 1.526-.054 2.4l-5.028.054c-.055 2.836.055 5.89 0 9.327l.164 1.037c.273.6.874 1.09 1.476 1.255h9.072l.983-.327c.493-.382.767-.873.93-1.473v-9.764l-5.19-.11c.163-1.308-.603-2.344.764-3.435.874-.71.218.982.71.982 1.148-.71 1.64-2.62 3.225-2.62.654 0 1.146.6 1.31 1.092l.11 16.09-.274 1.365c-.382 1.09-1.42 1.964-2.13 2.782-.165.49-.22 1.09 0 1.582.218.545.764.872 1.256 1.036l24.32.054c.82-.11 1.42-.49 1.967-1.09.655-.982.764-1.91.382-2.946z" fill="#FFF" mask="url(#b)"/>
    </g>
    <g transform="translate(148.105 1.855)">
      <mask id="d" fill="#fff">
        <use xlink:href="#c"/>
      </mask>
      <path d="M19.903 26.018c-3.28 0-5.902-2.672-5.902-5.89 0-3.273 2.68-5.892 5.903-5.892 3.28 0 5.903 2.673 5.903 5.89 0 3.274-2.624 5.892-5.903 5.892m.055-25.69C9.028.327.174 9.163.174 20.072c0 10.91 8.854 19.745 19.784 19.745s19.784-8.836 19.784-19.745C39.742 9.218 30.89.327 19.958.327" fill="#FFF" mask="url(#d)"/>
    </g>
  </g>
</svg>
