<svg width="75" height="75" viewBox="0 0 75 75" xmlns="http://www.w3.org/2000/svg">
  <title>
    Page 1
  </title>
  <path d="M0 37.5c0 15.355 9.234 28.546 22.446 34.346-.105-2.62-.018-5.762.653-8.61.72-3.045 4.824-20.434 4.824-20.434s-1.198-2.395-1.198-5.933c0-5.56 3.22-9.71 7.232-9.71 3.41 0 5.06 2.563 5.06 5.63 0 3.43-2.188 8.558-3.313 13.31-.94 3.977 1.995 7.22 5.92 7.22 7.104 0 11.89-9.124 11.89-19.936 0-8.22-5.536-14.37-15.604-14.37-11.374 0-18.46 8.482-18.46 17.958 0 3.267.962 5.57 2.47 7.355.695.82.79 1.15.54 2.09-.18.69-.593 2.35-.764 3.01-.25.95-1.02 1.29-1.877.938-5.24-2.14-7.68-7.877-7.68-14.326 0-10.654 8.983-23.427 26.8-23.427 14.317 0 23.74 10.36 23.74 21.48 0 14.712-8.178 25.702-20.234 25.702-4.048 0-7.856-2.19-9.16-4.674 0 0-2.178 8.64-2.64 10.31-.794 2.89-2.35 5.78-3.773 8.032C30.245 74.458 33.808 75 37.5 75c20.708 0 37.498-16.79 37.498-37.5S58.208 0 37.5 0C16.79 0 0 16.79 0 37.5" fill="#FFF" fill-rule="evenodd"/>
</svg>
