<svg width="195" height="53" viewBox="0 0 195 53" xmlns="http://www.w3.org/2000/svg" xmlns:xlink="http://www.w3.org/1999/xlink">
  <title>
    Group 2
  </title>
  <defs>
    <path id="a" d="M21.355 24.987V.36H.083v24.627h21.272z"/>
    <path id="c" d="M15.354 17.225H.42V.627h14.934v16.598z"/>
  </defs>
  <g fill="none" fill-rule="evenodd">
    <path d="M131.56 35.48c-.004.03.003.055-.007.09.01-.027.015-.055.013-.085l-.006-.006zM139.54 39.34c-.034 0-.088.007-.17.037.057-.022.114-.027.17-.036M94.027 8.644c1.03 1.95 7.25 14.56 8.488 17.002l1.19.006c.35-.744 5.703-12.52 7.846-16.808.416 3.195 1.926 14.194 2.278 16.808l3.78-.006c-.29-2.068-3.14-23.1-3.35-24.62h-1.53c-.946 1.925-8.558 18.05-8.904 18.74-.933-1.65-8.935-17.755-9.344-18.74h-1.772s-2.744 21.493-3.142 24.62h2.402c.104-1.942 1.868-15.17 2.06-17.002M129.534 6.807l3.218 7.313h-6.377c.555-1.378 2.682-6.284 3.16-7.313m-4.094 9.51c1.605.02 6.905 0 8.307 0 1.412 3.218 2.692 6.103 4.12 9.335h4.262c-.596-1.363-10.347-23.43-10.843-24.627h-1.814c-.768 1.784-9.326 21.687-10.61 24.62h2.574c1.653-3.77 2.364-5.393 4.004-9.328M73.055 12.773c.792.494 2.046 1.082 3.98 1.834 1.148.458 2.357.813 3.295 1.678 2.972 2.645 1.21 8.32-3.13 8.358-1.02 0-1.896-.144-2.21-.26-1.575-.494-2.846-2.112-3.195-2.63-.29-.433-.472-.865-.715-1.3l-.867.04-.042 4.31c.855.352 1.7.73 2.598.953 2.758.684 6.362.657 8.862-.837 1.106-.676 3.763-2.772 3.798-6.73 0-1.734-.595-3.627-1.81-4.8-1.57-1.57-4.323-2.147-6.31-3-1.636-.67-2.38-1.256-2.86-1.906-.214-.28-.7-1.03-.7-2.048 0-1.268.902-4.255 4.003-4.255 1.08 0 1.783.17 2.297.38 1.396.574 1.986 1.934 2.655 3.308h1.154s-.146-2.728-.188-3.916c-1.303-.565-1.834-.777-3.235-1.028-.82-.14-1.745-.14-1.984-.14-3.3 0-5.013.945-6.145 2.032-1.923 1.826-2.167 4.014-2.167 5.052 0 2.27 1.096 3.756 2.917 4.905" fill="#FEFEFE"/>
    <g transform="translate(173.186 .665)">
      <mask id="b" fill="#fff">
        <use xlink:href="#a"/>
      </mask>
      <path d="M18.835.36c0 1.55.038 14.2.004 17.66C16.837 15.97 2.785 1.144 2.083.36h-2c.033 3.763.006 22.704 0 24.62h2.384c-.007-2.038.078-15.265.118-17.932 1.19 1.18 14.997 15.73 17.013 17.94h1.755V.36h-2.52z" fill="#FEFEFE" mask="url(#b)"/>
    </g>
    <path d="M163.568 1.025c-.013 1.987.032 14.2 0 17.66-2.003-2.05-16.052-16.877-16.753-17.66h-2.004c.027 4.102.01 22.704 0 24.62h2.387c-.01-3.438.078-15.264.12-17.932 1.19 1.18 14.994 15.73 17.01 17.94h1.755c-.002-2.066-.002-21.52 0-24.628h-2.514zM3.838 12.582c-.02-1.358.024-3.048.024-4.374 0-1.67-.012-4.01-.013-5.634h2.233c2.7 0 5.476 1.374 5.476 4.85 0 2.954-2.138 4.33-3.122 4.692-1.338.46-3.167.507-4.6.466m9.725-1.067c1.72-1.686 1.97-3.633 2.007-4.495 0-1.2-.435-2.433-1.115-3.403-1.432-2.047-3.5-2.592-5.8-2.592H0v24.627l3.85-.006s.028-9.712 0-11.634l.817-.01c1.66 2.06 7.685 9.795 9.12 11.644h4.965c-1.84-2.36-7.944-10.148-9.398-12.05 1.778-.38 2.857-.76 4.21-2.08M53.253 12.773c.79.494 2.045 1.082 3.98 1.834 1.146.458 2.356.813 3.295 1.678 2.972 2.645 1.21 8.32-3.132 8.358-1.02 0-1.894-.144-2.208-.26-1.576-.494-2.847-2.112-3.196-2.63-.29-.433-.472-.865-.715-1.3l-.866.04c-.014 1.34-.04 4.31-.04 4.31.853.352 1.697.73 2.595.953 2.756.684 6.362.657 8.863-.837 1.105-.676 3.762-2.772 3.796-6.73 0-1.734-.594-3.627-1.81-4.8-1.57-1.57-4.32-2.147-6.31-3-1.634-.67-2.377-1.256-2.86-1.906-.213-.28-.698-1.03-.698-2.048 0-1.268.902-4.255 4-4.255 1.08 0 1.784.17 2.3.38 1.395.574 1.982 1.934 2.653 3.308h1.153s-.145-2.728-.188-3.916c-1.303-.565-1.833-.777-3.234-1.028-.82-.14-1.744-.14-1.984-.14-3.3 0-5.012.945-6.144 2.032-1.922 1.826-2.167 4.014-2.167 5.052 0 2.27 1.095 3.756 2.918 4.905M116.623 36.577c2.318-.947 5.02-3.105 1.757-4.944-2.905-1.638-7.456-1.233-10.516-.432-3.843 1.008-6.766 3.004-10.056 5.087-.876.554 1.122.44 1.54.175 4.798-3.04 10.004-6.19 15.98-4.568 1.01.275 2.12.763 2.616 1.743.69 1.36-1.722 2.2-2.54 2.534-2.484 1.014-5.185 1.16-7.848 1.015.765-1.447 1.39-2.955 1.75-4.494.06-.256-1.22-.07-1.294.243-.335 1.427-.892 2.826-1.582 4.176-.44-.037-.88-.08-1.317-.124-.503-.053-2.297.815-1.248.924.685.07 1.37.122 2.05.162-.962 1.7-2.116 3.3-3.293 4.742-.062.077 1.05.057 1.295-.24 1.108-1.36 2.194-2.86 3.12-4.45 3.27.09 6.486-.282 9.586-1.547M119.66 43.22c-.376.967-1.35 3.81-1.55 1.248-.05-.62-.118-1.227-.214-1.843-.26-1.66.484-1.93 1.85-2.2.326-.065.658-.115.988-.17-.34.995-.692 1.984-1.074 2.966m4.728-11.14c.293-.764 1.746-2.772 1.983-.82.032.25 1.358-.014 1.317-.355-.183-1.507-1.523-1.823-2.75-1.058-2.375 1.482-2.513 5.245-3.28 7.62-.255.786-.514 1.57-.777 2.348-.296.045-.593.08-.887.13-.866.143-2.14.195-2.924.683-1.054.657-.688 5.944.616 5.908 2.674-.073 3.097-3.055 3.893-5.178.158-.426.298-.863.45-1.294 1.234-.163 2.477-.298 3.693-.477.527-.078 1.174-.617.247-.48-1.26.185-2.525.348-3.79.52.553-1.59 1.07-3.196 1.508-4.813.25-.93.35-1.826.7-2.735M131.56 35.48l.006.005c.002.03-.002.058-.013.084.01-.035.003-.06.007-.09m-1.146-.283c-.023-.307-.316-.42-.6-.397-.2.016-.543.144-.668.362-.127.137-.183.305-.062.483.135.198.365.238.59.224.192-.012.418-.094.568-.238-.018.22.052.43.324.498.33.083.7.032.93-.25.105-.127.123-.3.068-.443.03-.52-.8-.583-1.15-.24M82.84 34.41c-.13.135-.184.303-.063.48.135.2.365.238.59.225.257-.015.574-.155.688-.402.038-.08.06-.16.058-.246-.006-.328-.314-.444-.605-.42-.2.015-.544.143-.668.362M143.046 36.58c-.11.22-.377.368-.577.494-.246.153-.53.276-.8.372l-.053.016c.15-.607.784-1.107 1.36-1.268.1-.027.11.305.07.385m.013-1.232c-1.29.127-2.68 1.275-2.816 2.595-.01.015-.028.025-.037.04-.07.13-.042.233.026.313.11 1.59 2.184 1.527 3.33 1.056.207-.085.53-.368.33-.61-.205-.25-.63-.163-.883-.06-.614.253-1.117.087-1.328-.352.74-.2 1.476-.598 2.016-1.017.404-.313.745-.706.71-1.24-.042-.635-.87-.772-1.348-.725M144.377 32.397c-.234.03-.5.134-.596.365-.173.418-.348.835-.583 1.223-.13.214.11.316.29.323.227.006.564-.08.692-.292.264-.438.46-.91.654-1.382.095-.23-.35-.25-.457-.237M149.356 36.302c-1.126.107-2.146.828-3.063 1.593.25-.89.936-1.69.748-2.61-.088-.437-1.41-.108-1.315.354.114.554-.33 1.207-.54 1.698-.263.608-.4 1.23-.254 1.883.097.433 1 .074 1.184-.077.766-.64 1.506-1.31 2.36-1.83 1.133-.692 1.105.336 1.004 1.2-.06.508 1.26.257 1.312-.173.144-1.21-.012-2.174-1.434-2.038M151.89 34.197c.03-.116-.01-.204-.088-.27-.018-.07-.054-.14-.134-.19-.285-.19-.68-.09-.942.083-.273.182-.457.436-.462.77-.004.33.323.436.603.415.296-.02.592-.12.8-.34.13-.136.172-.292.222-.468" fill="#FEFEFE"/>
    <path d="M109.993 40.97c-.344.157-1.196.448-1.365-.04-.204-.59 1.616-1.52 1.69-1.33.09.238.402.284.702.226-.245.48-.503.908-1.027 1.145m3.14.27c-.553.03-.658-1.276-.776-1.657-.085-.274-.414-.305-.72-.224.002-.038.01-.074-.004-.114-.673-1.764-4.127.57-4.33 1.794-.185 1.118 1.535 1.043 2.17.91.773-.16 1.4-.454 1.916-.91.247.643.625 1.097 1.596 1.044.698-.038 1.053-.893.148-.843M154.222 38.095c-.315.143-1.117.424-1.273-.027-.202-.582 1.527-1.372 1.556-1.294.09.234.378.3.676.266-.228.442-.475.835-.96 1.055m3.175.26c-.486.026-.614-1.298-.72-1.634-.087-.278-.405-.33-.72-.264-.004-.025.006-.046-.003-.07-.694-1.82-4.25.547-4.46 1.817-.194 1.158 1.587 1.08 2.245.944.744-.155 1.36-.435 1.87-.86.26.623.655 1.05 1.624.996.768-.042 1.158-.982.163-.928M120.047 38.398c.24-.224-.21-.258-.343-.242-1.346.17-2.73.513-3.84 1.244.09-.312.168-.626.158-.942-.006-.253-1.458-.024-1.446.39.023.84-.56 1.647-.395 2.49.07.358 1.32-.082 1.438-.32.698-1.425 1.93-2.078 3.46-2.273.325-.04.72-.113.97-.347M139.37 39.377c.082-.03.136-.036.17-.035-.056.008-.113.013-.17.035m.215-.045c-.015-.02-.045-.066-.082-.175-.055-.153-.07-.323-.09-.483-.058-.483-.002-.99.037-1.472.047-.563.2-1.15.16-1.716-.04-.573-1-.217-1.207-.017-.457.434-.85.927-1.245 1.417.01-.185 0-.37-.05-.564-.137-.535-.952-.277-1.208-.018-.247.25-.506.485-.767.716.002-.095.015-.187.01-.285-.033-.695-1.36-.487-1.332.1.025.51-.04 1-.21 1.462-.048-.058-.22-.076-.583-.01-.462.083-.908.225-1.36.35-.173.048-.243-1.196-.276-1.313-.118-.42-1.436.17-1.625.305-.51.366-.893.875-1.358 1.297-.03-.044-.064-.09-.126-.142-.116-.23-.043-.622 0-.845.08-.428.275-.844.466-1.232.108-.218-1.474-.11-1.683.313-.496 1.005-1.078 2.938.706 2.765.89-.088 1.49-.497 2.05-.99.062.247.198.446.546.513.774.15 1.59-.296 2.332-.43.325-.06.7-.257.855-.416-.08.185-.177.363-.3.535.004 0 .006 0 .01.003-.027.04-.062.074-.088.116-.365.6.893.67 1.18.27.028-.038.047-.08.073-.12h.005c.328-.54.783-.98 1.26-1.398-.082.3-.172.604-.18.91-.017.554.804.5 1.102.25.597-.5 1.088-1.09 1.576-1.683-.157 1.596-.216 3.57 1.773 2.81.755-.29.236-.886-.368-.823M52.003 32.494c-5.037.944-8.79 3.9-12.865 6.69-.88.602 1.114.517 1.553.217 2.487-1.702 4.645-3.495 7.457-4.716 2.734-1.19 5.68-2.053 8.594-.99 1.892.69 2.636 2.476 2.084 4.306-.896 2.97-4.497 5.79-7.256 6.932-.7.29-2.02.66-3.352.81 2.31-3.337 4.366-7.235 5.176-11.23.054-.268-1.233-.065-1.295.242C51.3 38.68 49.3 42.51 47.04 45.808c-1.62-.014-2.974-.53-2.85-2.17.05-.697-1.92-.283-1.964.29-.303 4.057 6.042 2.742 8.34 2.198 3.763-.893 7.778-3.814 9.654-7.215 3.124-5.663-4.008-7.204-8.217-6.416M66.063 36.08c.894-.292.046-.466-.455-.303-1.03.335-1.894.826-2.642 1.42l.062-.166c.088-.25-1.178-.105-1.298.233-.52 1.465-1.22 2.893-1.72 4.375l-.15.48c-.098.33-.19.664-.263 1-.065.303 1.225.096 1.297-.23.06-.28.137-.553.21-.828.17-.588.38-1.166.607-1.74.83-1.926 2.154-3.524 4.353-4.24" fill="#FEFEFE"/>
    <g transform="translate(62.136 35.115)">
      <mask id="d" fill="#fff">
        <use xlink:href="#c"/>
      </mask>
      <path d="M14.122 2.04c-.125.33-.445.59-.714.8-.26.203-.533.364-.815.517.065-.81.635-1.554 1.347-1.922.217-.11.23.474.182.604m-4.87 1.093c-.014.02-.033.032-.044.052-.357.647-.705 1.293-1.132 1.897-.17.24-.366.505-.598.707-.04-.027-.09-.067-.156-.137-.158-.166-.24-.38-.302-.593-.232-.815.622-1.517 1.19-1.926.323-.23.686-.426 1.046-.592.05-.023.104-.043.156-.064-.048.22-.11.436-.16.655m-2.28 7.4c-.377 1.096-.908 2.134-1.485 3.137-.464.805-2.993 4.188-3.708 2.09-.515-1.505 1.488-3.836 2.4-4.86 1.196-1.344 2.494-2.52 3.88-3.594-.352 1.08-.72 2.154-1.09 3.227m6.472-9.7c-1.283.53-2.086 1.857-2.044 3.21-.01.012-.012.025-.02.038-.028.01-.057.013-.082.028-.38.224-.764.46-1.15.707.138-.55.55-2.368.59-2.544.03-.138-.062-.215-.202-.25.048-.048.092-.097.113-.16.095-.29-.47-.266-.605-.24-1.58.304-5.41 2.097-4.31 4.227.453.874 1.385.874 2.172.53-1.978 1.485-3.864 3.196-5.356 4.967-.97 1.15-3.564 4.87-1.082 5.735 2.264.787 4.245-1.793 5.244-3.39 1.41-2.254 2.384-4.97 3.12-7.664.57-.382 1.15-.757 1.753-1.11.02-.013.028-.026.046-.038.563.984 2.078.95 3.075.395.708-.395.06-.913-.498-.603-.766.426-1.303.142-1.52-.467.92-.464 1.824-1.023 2.426-1.85.327-.45.33-1.022-.04-1.44-.405-.456-1.153-.277-1.63-.08" fill="#FEFEFE" mask="url(#d)"/>
    </g>
    <path d="M77.236 33.465c-.27.356-.54.71-.865 1.022-.158.154-.12.336.105.385.24.055.564-.025.744-.2.37-.357.687-.767.998-1.176.157-.206-.132-.318-.288-.322-.25-.01-.538.087-.694.29M86.902 39.154c-2.2 1.047-.78-2.32.353-1.758.186.09.495.033.755-.082-.026.74-.382 1.36-1.108 1.84m11.213 1.163c-2.44 1.196-6.123 2.444-8.147-.157-.796-1.022-.336-2.212-.624-3.33-.09-.35-.67-.315-1.03-.11-.012-.006-.014-.015-.027-.022-1.264-.622-4.48.98-3.996 2.6-.17-.12-.46-.1-.638-.06-.423.094-1.062.376-1.31-.127-.398-.8.114-1.574.63-2.16.03-.032.047-.072.067-.11.066-.117.073-.213.02-.285-.09-.182-.376-.248-.56-.22-.972.14-1.915.548-2.712 1.14l.09-.412c.13-.605-1.21-.42-1.326.12-.22 1.016-.43 2.033-.726 3.03-.165.586 1.17.403 1.327-.12.282-1 1.057-1.918 2.007-2.444-.33.648-.455 1.37-.02 2.04.598.924 1.853.574 2.734.38.214-.047.526-.244.538-.498.008.01.01.022.016.034.548.9 1.796.657 2.646.343.5-.186.913-.428 1.248-.726.11.817.345 1.56 1.26 2.306 2.59 2.11 6.52.7 9.083-.555.815-.4.075-.964-.55-.658M65.485 40.062c-.048.194-.715 1.658-.897 1.195-.27-.69.41-2.148 1.126-2.784-.037.535-.1 1.066-.23 1.59m.444-2.814c-1.027.295-1.702 1.208-2.188 2.11-.374.698-.842 1.888-.276 2.606.686.87 2.084.172 2.644-.456.817-.916.938-2.432.975-3.598.01-.28-.202-.415-.458-.44-.092-.196-.333-.327-.697-.223M37.128 23.52l-4.485-4.506 1.797-3.45h3.015l-.824 1.996 1.272.833 1.243-2.828h1.296l-.853 1.995 1.27.833 1.3-2.83c.344-.94-.035-1.813-1.177-1.83h-1.704l.003-6.145 3.074-.003c1.03 1.674 1.62 3.645 1.62 5.754 0 4.61-2.83 8.552-6.846 10.18m-3.557.786l-5.035-5.05 1.88-3.694H31.9l-1.696 3.392 5.11 5.126c-.563.12-1.15.196-1.743.226M22.06 13.34c0-2.11.597-4.084 1.627-5.758l10.308.006 1.472 3.518h-10.38c-.678 0-1.228.542-1.228 1.222v3.71c0 .824.597 1.072 1.223 1.334v-5.076h1.384c-.393.553-.6 1.045-.6 1.99 0 1.135.643 1.957 1.413 2.583l-1.19 2.34 4.954 4.928c-5.108-.93-8.983-5.41-8.983-10.8M33.02 2.36c3.306 0 6.273 1.47 8.28 3.792h-3.823l.35-.72c.39-.847-1.107-1.585-1.54-.654l-.692 1.374H24.736c2.01-2.325 4.972-3.792 8.282-3.792m13.31 10.98C46.327 5.973 40.367 0 33.017 0c-7.35 0-13.31 5.972-13.31 13.34 0 7.366 5.96 13.34 13.31 13.34 7.35 0 13.31-5.974 13.31-13.34" fill="#FEFEFE"/>
  </g>
</svg>
