<svg width="136" height="94" viewBox="0 0 136 94" xmlns="http://www.w3.org/2000/svg" xmlns:xlink="http://www.w3.org/1999/xlink">
  <title>
    Page 1
  </title>
  <defs>
    <path id="a" d="M.065 17.07H12.8V.16H.065z"/>
    <path id="c" d="M11.12 16.717V0H.13v16.717h10.99z"/>
    <path id="e" d="M.032.027h87.18V66.45H.032z"/>
  </defs>
  <g fill="none" fill-rule="evenodd">
    <path d="M75.737 85.394c-1.067-.386-1.972-.74-1.972-1.416 0-.806.582-1.16 1.745-1.16.938 0 2.134.354 3.103.902l.033.032.582-1.772h-.033c-1-.676-2.715-1.127-4.3-1.127-2.747 0-4.395 1.288-4.395 3.447 0 2.286 1.907 2.963 3.46 3.607 1.13.483 2.26 1.03 2.26 1.9 0 .87-.677 1.257-1.97 1.257-1.132 0-2.425-.387-3.427-1l-.032-.03-.613 1.77h.032c1 .71 2.844 1.224 4.492 1.224 1.52 0 2.683-.354 3.492-1.03.808-.677 1.195-1.643 1.195-2.867 0-2.383-2.037-3.124-3.653-3.736M65.587 87.36v2.77c-.776.483-1.584.966-2.198.966-1.197 0-1.876-.677-1.876-1.868 0-1.32.71-2.062 1.972-2.062h.581c.42-.032 1.002 0 1.52.194m3.038 1.513V85.91c0-1.772-.42-3.028-1.26-3.865-.97-.966-2.005-1.353-3.492-1.353-1.55 0-3.426.58-4.654 1.417h-.034l.518 1.77.032-.03c1.002-.613 2.166-1 3.2-1 .905 0 1.65.258 2.036.644.42.45.615.87.615 2.06-.712-.32-1.617-.288-2.457-.288h-.388c-2.715 0-4.428 1.482-4.428 3.897 0 1.128.387 2.062 1.1 2.738.742.678 1.744 1.032 2.972 1.032 1.1 0 2.393-.42 3.46-1.127.064.322.13.547.258.837v.032h2.715v-.032c-.13-1.192-.195-1.997-.195-3.77M0 78.437h4.59v14.27h3.49v-14.27h4.59V75.99H0M17.326 92.706v-8.954c.68-.483 1.487-.773 2.23-.773 1.26 0 1.875.868 1.875 2.673v7.053h3.234v-6.99c0-1.674-.388-2.898-1.164-3.768-.776-.805-1.552-1.16-2.78-1.16-1.164 0-2.392.355-3.394.967v-5.798h-3.232v16.717l3.232.032zM53.562 92.706h3.232v-6.99c0-1.77-.355-2.995-1.066-3.768-.744-.773-1.552-1.127-2.683-1.127-1.326 0-2.748.516-4.008 1.45-.033-.064-.097-.13-.162-.193l-.097-.097c-.68-.773-1.616-1.16-2.715-1.16-1.23 0-2.49.452-3.62 1.225-.098-.258-.13-.42-.195-.58-.032-.13-.064-.226-.097-.354v-.032h-2.617v11.596h3.233V83.75c.84-.644 1.616-.773 2.165-.773.486 0 .874.128 1.133.45.388.45.55 1.063.55 2.223v7.053h3.232v-9.019c.808-.61 1.487-.708 2.068-.708.485 0 .873.128 1.132.45.388.45.55 1.063.55 2.223l-.033 7.053zM32.098 82.69c1.68 0 2.522 1.416 2.522 4.186s-.84 4.188-2.522 4.188c-1.68 0-2.52-1.418-2.52-4.188-.033-2.77.807-4.187 2.52-4.187m0 10.306c1.843 0 3.362-.547 4.43-1.61 1.033-1.03 1.583-2.545 1.583-4.35 0-1.835-.55-3.38-1.583-4.476-1.067-1.127-2.586-1.74-4.43-1.74-3.684 0-5.85 2.288-5.85 6.09-.032 3.8 2.166 6.086 5.85 6.086" fill="#FFF"/>
    <g transform="translate(85.337 75.99)">
      <mask id="b" fill="#fff">
        <use xlink:href="#a"/>
      </mask>
      <path d="M12.25 13.98h-.03c-1.262.515-2.91.74-3.88.74-1.325 0-2.295-.322-3.006-.966C4.17 12.69 3.62 11.016 3.62 8.568c0-2.93.873-4.413 1.617-5.186.646-.644 1.616-1 2.812-1 1.066 0 2.747.29 4.072.968l.032.032.614-1.965v-.032h-.032C11.216.483 9.18.16 7.79.16c-2.263 0-4.073.677-5.398 2.03C.872 3.736.065 5.96.065 8.6c0 2.93.84 5.25 2.456 6.7 1.294 1.16 3.072 1.772 5.303 1.772 1.39 0 3.426-.258 4.945-1h.032l-.55-1.996v-.097z" fill="#FFF" mask="url(#b)"/>
    </g>
    <path d="M104.732 91.096c-1.68 0-2.522-1.417-2.522-4.188 0-2.77.84-4.187 2.522-4.187 1.68 0 2.52 1.418 2.52 4.188 0 2.77-.84 4.188-2.52 4.188m0-10.275c-3.685 0-5.85 2.288-5.85 6.088 0 3.8 2.197 6.088 5.85 6.088 3.685 0 5.85-2.287 5.85-6.088 0-3.8-2.198-6.087-5.85-6.087" fill="#FFF"/>
    <g transform="translate(124.773 75.99)">
      <mask id="d" fill="#fff">
        <use xlink:href="#c"/>
      </mask>
      <path fill="#FFF" mask="url(#d)" d="M11.023 5.12h-3.33l-4.33 4.253V0H.128v16.717H3.36v-4.993l4.04 4.993h3.718l-5.302-6.54"/>
    </g>
    <path d="M117.532 91.096c-1.68 0-2.52-1.417-2.52-4.188 0-2.77.84-4.187 2.52-4.187 1.68 0 2.522 1.418 2.522 4.188 0 2.77-.84 4.188-2.522 4.188m0-10.275c-3.684 0-5.85 2.288-5.85 6.088 0 3.8 2.198 6.088 5.85 6.088 3.685 0 5.85-2.287 5.85-6.088 0-3.8-2.197-6.087-5.85-6.087M26.345 32.602c7.143 7.022 19.103 7.248 26.603-.354l13.64-13.85L54.37 6.028c-7.5-7.6-19.686-7.6-27.185 0-7.144 7.248-7.467 18.844-.937 26.478l.097.096z" fill="#FFF"/>
    <g transform="translate(27.153 .295)">
      <mask id="f" fill="#fff">
        <use xlink:href="#e"/>
      </mask>
      <path d="M.323 33.53l-.29-.29L27.216 60.75c7.5 7.602 19.686 7.602 27.185 0L81.587 33.24c7.5-7.6 7.5-19.905 0-27.507-.388-.386-.775-.74-1.196-1.095-2.81-2.35-6.205-3.8-9.728-4.316-3.524-.644-7.015-.258-10.41 1.385-2.132.934-4.136 2.255-5.882 3.994L40.794 19.456 27.217 33.21c-7.273 7.343-18.91 7.6-26.44.707-.163-.096-.292-.257-.454-.386" fill="#FFF" mask="url(#f)"/>
    </g>
  </g>
</svg>
