<svg width="160" height="68" viewBox="0 0 160 68" xmlns="http://www.w3.org/2000/svg" xmlns:xlink="http://www.w3.org/1999/xlink">
  <title>
    Group
  </title>
  <defs>
    <path id="a" d="M7.953.226v29.56H.475V.226h7.478z"/>
    <path id="c" d="M.34.802H15v14.62H.34V.803z"/>
  </defs>
  <g fill="none" fill-rule="evenodd">
    <path d="M145.55 57.178c-.125-.478-.23-1.072-.23-1.74v-20.18c0-.765-.153-1.285-.7-1.697-.566-.44-1.66-.588-3.018-.588-1.394 0-2.442.147-3.01.582-.553.413-.708.936-.708 1.705v16.878c0 2.494-1.81 4.314-4.87 4.314-3.055 0-4.115-1.274-4.115-3.854v-17.34c0-.765-.155-1.285-.7-1.697-.57-.44-1.663-.588-3.02-.588-1.39 0-2.48.146-3.05.582-.554.413-.71.936-.71 1.705v18.173c0 3.184.97 5.49 2.666 7.09 1.742 1.647 4.175 2.426 7.253 2.426 3.636 0 6.138-1.166 7.54-2.543.224.535.454.964.685 1.26.07.092.137.19.212.29.09.117.207.258.364.386.337.277.775.44 1.378.44.88 0 1.85-.453 2.74-.898.538-.257 1.03-.533 1.394-.83.34-.275.715-.685.715-1.23 0-.648-.223-1.133-.472-1.63-.08-.2-.22-.552-.344-1.017M116.013 33.074h-14.86c-1.91 0-2.972 1.03-2.972 3.902 0 1.452.123 4.064 3.207 3.842l3.448-.248v19.61c0 .767.153 1.287.7 1.7.567.44 1.664.59 3.06.59 1.35 0 2.44-.148 3.01-.584.552-.413.708-.935.708-1.705V40.03l4.38-.316c2.59-.183 2.788-1.79 2.308-4.1-.43-2.076-1.53-2.54-2.987-2.54" fill="#FEFEFE"/>
    <g transform="translate(151.818 32.745)">
      <mask id="b" fill="#fff">
        <use xlink:href="#a"/>
      </mask>
      <path d="M7.254.816c-.567-.44-1.663-.59-3.02-.59-1.39 0-2.48.147-3.05.583-.554.413-.71.934-.71 1.705V27.5c0 .764.155 1.285.7 1.697.57.44 1.665.59 3.06.59 1.35 0 2.44-.148 3.01-.584.554-.413.71-.935.71-1.704V2.514c0-.766-.154-1.287-.7-1.7" fill="#FEFEFE" mask="url(#b)"/>
    </g>
    <path d="M70.084 30.335c-2.637-.653-3.425.282-5.832 5.408-14.546 30.976-41.26 21.6-45.83-7.16l6.21-.44c3.445-.243 3.708-2.366 3.07-5.416-.576-2.743-2.04-3.353-3.977-3.353H3.952c-2.54 0-3.952 1.36-3.952 5.152 0 1.918.162 5.367 4.266 5.074l5.043-.362c8.292 50.993 50.56 47.166 63.135 8.98 1.702-5.17 1.214-7-2.36-7.883" fill="#FEFEFE"/>
    <g transform="translate(68.182 .105)">
      <mask id="d" fill="#fff">
        <use xlink:href="#c"/>
      </mask>
      <path d="M7.67.802C3.622.802.34 4.075.34 8.112c0 4.038 3.282 7.31 7.33 7.31 4.05 0 7.33-3.272 7.33-7.31 0-4.037-3.28-7.31-7.33-7.31" fill="#FEFEFE" mask="url(#d)"/>
    </g>
  </g>
</svg>
