<svg width="212" height="64" viewBox="0 0 212 64" xmlns="http://www.w3.org/2000/svg">
  <title>
    Page 1
  </title>
  <g fill="#FEFEFE" fill-rule="evenodd">
    <path d="M54.89 17.437v8.567c-5.896 0-10.676 4.78-10.676 10.677v16.277H35.58V35.164c0-3.176.846-6.35 2.537-9.16.733-1.22 1.623-2.37 2.674-3.423 1.053-1.05 2.204-1.94 3.424-2.674 2.81-1.69 5.984-2.536 9.16-2.537h1.517v.067zm-22.868-.068c0-1.967 1.594-3.56 3.56-3.56 1.965 0 3.56 1.593 3.56 3.56 0 1.964-1.595 3.558-3.56 3.558-1.966 0-3.56-1.594-3.56-3.56zm-2.305 35.52v.067H28.2c-3.175 0-6.35-.848-9.158-2.537-1.22-.734-2.37-1.624-3.423-2.675-1.052-1.052-1.942-2.203-2.675-3.423-1.69-2.81-2.537-5.984-2.537-9.16V17.37h8.635v16.274c0 5.898 4.78 10.678 10.677 10.678v8.567zM24.64 13.81c1.966 0 3.56 1.593 3.56 3.56 0 1.964-1.594 3.558-3.56 3.558-1.965 0-3.558-1.594-3.558-3.56 0-1.965 1.593-3.558 3.56-3.558zM32 0C14.326 0 0 14.326 0 31.998c0 17.673 14.326 32 31.998 32 17.673 0 32-14.327 32-32C63.998 14.326 49.67 0 31.998 0zM80.01 30.766c3.702 0 6.64-2.796 6.64-7v-6.418h-3.2v6.417c0 2.052-1.448 3.762-3.44 3.762-2.012 0-3.46-1.71-3.46-3.762v-6.417h-3.198v6.417c0 4.205 2.937 7 6.658 7M93.488 20.567h2.676c1.066 0 1.93.864 1.93 1.93 0 1.087-.885 1.79-1.95 1.79h-2.656v-3.72zm0 6.598h2.293l2.154 3.26h3.942L99 26.48c1.388-.743 2.334-2.09 2.334-3.982 0-2.857-2.012-5.15-4.688-5.15H90.29v13.076h3.198v-3.26zM131.246 28.17c-2.314 0-2.454-1.77-2.454-1.79h-3.4c0 1.77 1.85 4.386 5.854 4.386 3.118 0 5.773-1.89 5.773-4.144 0-3.46-3.44-3.903-5.27-4.245-.725-.12-2.757-.12-2.757-1.187 0-.886.945-1.59 2.092-1.59 1.71 0 2.253.685 2.253 1.007h3.24c0-1.75-1.812-3.62-5.493-3.62-3.018 0-5.492 1.89-5.492 4.203 0 2.474 2.595 3.158 4.124 3.46.865.182 3.903.302 3.903 1.972 0 .805-1.126 1.55-2.374 1.55M143.275 30.424h3.903v-5.512l5.492-7.564h-3.903l-3.54 4.747-3.56-4.747h-3.905l5.513 7.564M165.322 26.622c0-3.46-3.44-3.903-5.27-4.245-.724-.12-2.756-.12-2.756-1.187 0-.885.944-1.59 2.092-1.59 1.71 0 2.252.685 2.252 1.007h3.24c0-1.75-1.81-3.62-5.492-3.62-3.017 0-5.492 1.89-5.492 4.203 0 2.474 2.595 3.158 4.124 3.46.864.182 3.903.302 3.903 1.972 0 .805-1.127 1.55-2.375 1.55-2.312 0-2.453-1.772-2.453-1.792h-3.4c0 1.77 1.85 4.386 5.853 4.386 3.12 0 5.774-1.89 5.774-4.144M175.42 30.424v-10.26h4.97v-2.816h-13.077v2.816h4.97v10.26M193.163 27.628h-6.7v-2.334h5.292v-2.796h-5.29v-2.334h6.698v-2.816h-9.837v13.076h9.837M204.167 30.424l3.077-6.68v6.68h3.14V17.348h-3.14l-3.76 7.403-3.703-7.342v-.06h-3.158v13.076h3.16v-6.618l3.017 6.618M80.856 49.816h-3.36v-6.8h3.36c1.65 0 3.097 1.43 3.097 3.38s-1.47 3.36-3.097 3.42m-.303-9.938h-6.196v13.076h6.196c3.62 0 6.54-2.937 6.54-6.558 0-3.6-2.536-6.518-6.54-6.518M89.424 52.954h9.837v-2.796h-6.697v-2.334h5.29v-2.796h-5.29v-2.334h6.698v-2.816h-9.836M107.89 47.885l-3.6-8.007h-3.582l5.614 13.076h3.138l5.592-13.076h-3.58M117.024 52.954h9.837v-2.796h-6.698v-2.334h5.29v-2.796h-5.29v-2.334h6.7v-2.816h-9.838M133.338 39.878h-3.14v13.076h11.327v-3.138h-8.187M149.913 50.3c-2.152 0-3.883-1.73-3.883-3.864 0-2.133 1.73-3.883 3.883-3.883 2.132 0 3.863 1.75 3.863 3.883s-1.73 3.863-3.863 3.863m0-10.764c-3.822 0-6.9 3.098-6.9 6.9 0 3.803 3.078 6.88 6.9 6.88 3.803 0 6.88-3.077 6.88-6.88 0-3.802-3.077-6.9-6.88-6.9M165.503 46.98h-2.655v-3.903h2.696c1.066.02 1.91.885 1.91 1.952 0 1.084-.865 1.95-1.95 1.95m.503-7.102h-6.357v13.076h3.198v-2.776h2.696c2.736 0 4.99-2.152 5.15-4.848v-.604c-.14-2.555-1.992-4.848-4.687-4.848M173.41 52.954h9.836v-2.796h-6.7v-2.334h5.292v-2.796h-5.29v-2.334h6.698v-2.816h-9.837M192.5 46.818h-2.657v-3.72h2.676c1.064 0 1.93.864 1.93 1.93 0 1.086-.885 1.79-1.95 1.79m5.19-1.79c0-2.857-2.013-5.15-4.688-5.15h-6.357v13.076h3.198v-3.258h2.293l2.153 3.258h3.942l-2.877-3.943c1.388-.743 2.334-2.09 2.334-3.98M206.278 44.907c-.724-.12-2.756-.12-2.756-1.186 0-.885.945-1.59 2.092-1.59 1.71 0 2.253.685 2.253 1.007h3.24c0-1.75-1.812-3.62-5.493-3.62-3.017 0-5.492 1.89-5.492 4.204 0 2.474 2.596 3.158 4.124 3.46.865.18 3.904.302 3.904 1.972 0 .805-1.127 1.55-2.375 1.55-2.313 0-2.453-1.772-2.453-1.792h-3.4c0 1.77 1.85 4.386 5.853 4.386 3.12 0 5.774-1.89 5.774-4.144 0-3.46-3.44-3.902-5.272-4.245M113.134 13.81c-1.966 0-3.56 1.593-3.56 3.56 0 1.964 1.594 3.557 3.56 3.557 1.965 0 3.558-1.593 3.558-3.558 0-1.967-1.593-3.56-3.558-3.56M113.134 24.75c-1.966 0-3.56 1.594-3.56 3.56 0 1.965 1.594 3.558 3.56 3.558 1.965 0 3.558-1.593 3.558-3.56 0-1.964-1.593-3.558-3.558-3.558"/>
  </g>
</svg>
