<svg width="82" height="82" viewBox="0 0 82 82" xmlns="http://www.w3.org/2000/svg" xmlns:xlink="http://www.w3.org/1999/xlink">
  <title>
    Page 1
  </title>
  <defs>
    <path id="a" d="M81.6 81.692H0V.397h81.6z"/>
  </defs>
  <g fill="none" fill-rule="evenodd">
    <g transform="translate(0 .038)">
      <mask id="b" fill="#fff">
        <use xlink:href="#a"/>
      </mask>
      <path d="M40.8 78.047c-20.513 0-37.14-16.566-37.14-37.003C3.66 20.61 20.286 4.042 40.8 4.042S77.944 20.61 77.944 41.044c0 20.437-16.63 37.003-37.142 37.003m0-77.65C18.268.397 0 18.597 0 41.044c0 22.45 18.267 40.648 40.8 40.648 22.534 0 40.8-18.2 40.8-40.648C81.6 18.596 63.335.397 40.8.397" fill="#FEFEFE" mask="url(#b)"/>
    </g>
    <path d="M48.924 13.434c-2.577-.75-5.304-1.152-8.123-1.152-2.823 0-5.552.402-8.13 1.154L40.8 31.37l8.124-17.936z" fill="#FEFEFE"/>
    <path d="M56.318 16.778l-10.61 23.53h-9.78L25.28 16.777c-3.035 1.93-5.686 4.407-7.81 7.293l13.313 29.42 5.144-11.396h9.748L50.82 53.49l13.33-29.392c-2.127-2.898-4.785-5.385-7.832-7.32M11.89 41.082c0 11.287 6.517 21.057 16.006 25.78L12.87 33.628c-.64 2.378-.98 4.877-.98 7.454" fill="#FEFEFE"/>
    <path d="M32.803 68.767c2.54.727 5.223 1.116 7.998 1.116 2.772 0 5.452-.388 7.99-1.113L40.8 51.096l-7.997 17.67zM68.75 33.69L53.705 66.863c9.49-4.724 16.005-14.493 16.005-25.78 0-2.555-.333-5.032-.96-7.39" fill="#FEFEFE"/>
  </g>
</svg>
